<svg id="Grupo_141412" data-name="Grupo 141412" xmlns="http://www.w3.org/2000/svg" xmlns:xlink="http://www.w3.org/1999/xlink" width="610" height="239.493" viewBox="0 0 610 239.493">
  <defs>
    <clipPath id="clip-path">
      <rect id="Rectángulo_36773" data-name="Rectángulo 36773" width="610" height="239.493" fill="none"/>
    </clipPath>
    <clipPath id="clip-path-2">
      <rect id="Rectángulo_36772" data-name="Rectángulo 36772" width="609.999" height="239.493" fill="none"/>
    </clipPath>
    <clipPath id="clip-path-3">
      <rect id="Rectángulo_36740" data-name="Rectángulo 36740" width="15.014" height="29.734" fill="none"/>
    </clipPath>
    <clipPath id="clip-path-4">
      <rect id="Rectángulo_36741" data-name="Rectángulo 36741" width="26.273" height="46.847" fill="none"/>
    </clipPath>
    <clipPath id="clip-path-5">
      <rect id="Rectángulo_36742" data-name="Rectángulo 36742" width="20.847" height="26.754" fill="none"/>
    </clipPath>
    <clipPath id="clip-path-6">
      <rect id="Rectángulo_36743" data-name="Rectángulo 36743" width="4.76" height="7.22" fill="none"/>
    </clipPath>
    <clipPath id="clip-path-7">
      <rect id="Rectángulo_36744" data-name="Rectángulo 36744" width="4.974" height="14.355" fill="none"/>
    </clipPath>
    <clipPath id="clip-path-8">
      <rect id="Rectángulo_36745" data-name="Rectángulo 36745" width="18.986" height="18.369" fill="none"/>
    </clipPath>
    <clipPath id="clip-path-9">
      <rect id="Rectángulo_36746" data-name="Rectángulo 36746" width="2.806" height="12.087" fill="none"/>
    </clipPath>
    <clipPath id="clip-path-10">
      <rect id="Rectángulo_36747" data-name="Rectángulo 36747" width="14.496" height="16.986" fill="none"/>
    </clipPath>
    <clipPath id="clip-path-11">
      <rect id="Rectángulo_36748" data-name="Rectángulo 36748" width="13.568" height="20.339" fill="none"/>
    </clipPath>
    <clipPath id="clip-path-12">
      <rect id="Rectángulo_36749" data-name="Rectángulo 36749" width="16.382" height="9.425" fill="none"/>
    </clipPath>
    <clipPath id="clip-path-13">
      <rect id="Rectángulo_36750" data-name="Rectángulo 36750" width="15.366" height="9.345" fill="none"/>
    </clipPath>
    <clipPath id="clip-path-14">
      <rect id="Rectángulo_36751" data-name="Rectángulo 36751" width="28.722" height="45.93" fill="none"/>
    </clipPath>
    <clipPath id="clip-path-15">
      <rect id="Rectángulo_36752" data-name="Rectángulo 36752" width="6.24" height="17.939" fill="none"/>
    </clipPath>
    <clipPath id="clip-path-16">
      <rect id="Rectángulo_36753" data-name="Rectángulo 36753" width="4.549" height="10.43" fill="none"/>
    </clipPath>
    <clipPath id="clip-path-17">
      <rect id="Rectángulo_36754" data-name="Rectángulo 36754" width="16.591" height="4.117" fill="none"/>
    </clipPath>
    <clipPath id="clip-path-18">
      <rect id="Rectángulo_36756" data-name="Rectángulo 36756" width="11.2" height="18.821" fill="none"/>
    </clipPath>
    <clipPath id="clip-path-19">
      <rect id="Rectángulo_36757" data-name="Rectángulo 36757" width="36.954" height="39.755" fill="none"/>
    </clipPath>
    <clipPath id="clip-path-20">
      <rect id="Rectángulo_36758" data-name="Rectángulo 36758" width="9.497" height="19.749" fill="none"/>
    </clipPath>
    <clipPath id="clip-path-21">
      <rect id="Rectángulo_36759" data-name="Rectángulo 36759" width="30.806" height="26.114" fill="none"/>
    </clipPath>
    <clipPath id="clip-path-22">
      <rect id="Rectángulo_36760" data-name="Rectángulo 36760" width="4.133" height="7.632" fill="none"/>
    </clipPath>
    <clipPath id="clip-path-23">
      <rect id="Rectángulo_36761" data-name="Rectángulo 36761" width="16.359" height="66.609" fill="none"/>
    </clipPath>
    <clipPath id="clip-path-24">
      <rect id="Rectángulo_36762" data-name="Rectángulo 36762" width="17.818" height="48.835" fill="none"/>
    </clipPath>
    <clipPath id="clip-path-25">
      <rect id="Rectángulo_36763" data-name="Rectángulo 36763" width="18.118" height="18.118" fill="none"/>
    </clipPath>
    <clipPath id="clip-path-26">
      <rect id="Rectángulo_36764" data-name="Rectángulo 36764" width="7.726" height="7.726" fill="none"/>
    </clipPath>
    <clipPath id="clip-path-27">
      <rect id="Rectángulo_36765" data-name="Rectángulo 36765" width="13.369" height="5.717" fill="none"/>
    </clipPath>
    <clipPath id="clip-path-28">
      <rect id="Rectángulo_36766" data-name="Rectángulo 36766" width="31.819" height="31.819" fill="none"/>
    </clipPath>
    <clipPath id="clip-path-29">
      <rect id="Rectángulo_36767" data-name="Rectángulo 36767" width="13.568" height="13.568" fill="none"/>
    </clipPath>
    <clipPath id="clip-path-30">
      <rect id="Rectángulo_36768" data-name="Rectángulo 36768" width="23.479" height="10.039" fill="none"/>
    </clipPath>
    <clipPath id="clip-path-31">
      <rect id="Rectángulo_36769" data-name="Rectángulo 36769" width="22.788" height="22.788" fill="none"/>
    </clipPath>
    <clipPath id="clip-path-32">
      <rect id="Rectángulo_36770" data-name="Rectángulo 36770" width="9.717" height="9.717" fill="none"/>
    </clipPath>
    <clipPath id="clip-path-33">
      <rect id="Rectángulo_36771" data-name="Rectángulo 36771" width="16.815" height="7.19" fill="none"/>
    </clipPath>
  </defs>
  <g id="Grupo_141411" data-name="Grupo 141411" clip-path="url(#clip-path)">
    <g id="Grupo_141410" data-name="Grupo 141410">
      <g id="Grupo_141409" data-name="Grupo 141409" clip-path="url(#clip-path-2)">
        <path id="Trazado_117109" data-name="Trazado 117109" d="M545.329,290.666V391.809c0,35.725-24.821,56.139-67.274,56.139s-67.274-20.414-67.274-56.139V290.666c0-4.872,4.176-7.423,13.918-7.423h7.887c9.743,0,13.919,2.551,13.919,7.423v98.823c0,16.238,12.759,28.069,31.55,28.069s31.781-11.831,31.781-28.069V290.666c0-4.872,4.176-7.423,13.919-7.423h7.656c9.743,0,13.919,2.551,13.919,7.423" transform="translate(-310.97 -214.421)" fill="#7dbeea"/>
        <path id="Trazado_117110" data-name="Trazado 117110" d="M1256.956,290.666V439.133c0,4.871-4.176,7.424-13.919,7.424h-6.728c-9.743,0-13.918-2.552-13.918-7.424v-96.04l-.928-.231-33.637,60.082c-2.088,2.784-4.872,4.408-9.28,4.408h-6.727c-4.408,0-7.191-1.624-9.279-4.408L1128.9,342.862l-.928.231v96.04c0,4.871-4.175,7.424-13.919,7.424h-6.727c-9.743,0-13.919-2.552-13.919-7.424V290.666c0-4.872,4.176-7.423,13.919-7.423h12.295c6.728,0,12.063,1.624,14.615,6.263l38.972,69.362,1.856,3.248,2.088-3.943,39.2-68.666c2.552-4.639,7.887-6.263,14.614-6.263h12.063c9.743,0,13.919,2.551,13.919,7.423" transform="translate(-827.737 -214.421)" fill="#7dbeea"/>
        <path id="Trazado_117111" data-name="Trazado 117111" d="M1933.971,290.666V415.7H1985.7c4.872,0,6.959,3.48,6.959,11.6v7.191c0,8.119-2.088,11.6-6.959,11.6h-78.177c-6.5,0-9.279-2.784-9.279-9.279V290.666c0-4.872,4.176-7.423,13.919-7.423h7.887c9.743,0,13.918,2.551,13.918,7.423" transform="translate(-1437.015 -214.421)" fill="#7dbeea"/>
        <path id="Trazado_117112" data-name="Trazado 117112" d="M1124.364,132.92c.028-4.593-1.249-8.578-2.63-16.229-.472-2.611-.711-4.293-2.139-5.895s-3.182-2.146-5.028-2.716a15.228,15.228,0,0,0-10.1.031,7.865,7.865,0,0,0-4,2.581c-1.165,1.63-.926,4.033-.4,8.773.877,7.913,1.068,9.539.912,11.879a28.213,28.213,0,0,1-1.323,6.827,39.437,39.437,0,0,0,16.073.77c2.762.91,4.973,1.182,5.891.892a2.742,2.742,0,0,0,1-.569,2.935,2.935,0,0,0,.628-1.1c1.376-3.655,1.12-5.24,1.12-5.24m-4.218-4.276c-.395,5.4-.6,7.064-.72,7.169-.03.027-.449.309-.451.31a1.9,1.9,0,0,1-.719.174,1.823,1.823,0,0,1-1.328-.816,31.57,31.57,0,0,1,.373-11.232,9.068,9.068,0,0,0,1.739-1.282q.553,2.838,1.107,5.677" transform="translate(-832.442 -81.165)" fill="#daf1fd"/>
        <g id="Grupo_141318" data-name="Grupo 141318" transform="translate(267.185 27.449)" style="mix-blend-mode: multiply;isolation: isolate">
          <g id="Grupo_141317" data-name="Grupo 141317">
            <g id="Grupo_141316" data-name="Grupo 141316" clip-path="url(#clip-path-3)">
              <path id="Trazado_117113" data-name="Trazado 117113" d="M1113.783,141.129c-1.806-.986-6.616-5.718-7.972-7.245-1.706-1.923-2.528-4.9-4.174-10.86-1.145-4.147-1.268-6.249-.224-8.078a6.322,6.322,0,0,1,1.808-1.978,6.226,6.226,0,0,0-2.758,2.078c-1.165,1.63-.926,4.033-.4,8.773.877,7.914,1.068,9.539.912,11.879a28.216,28.216,0,0,1-1.323,6.827l2.315.178c.211-1.161.394-2.413.525-3.747a46.07,46.07,0,0,0,.208-5.575,39.073,39.073,0,0,0,5.4,5.665,15.112,15.112,0,0,0,4.488,2.827,13.44,13.44,0,0,0,1.543.492c.214-.073.478-.2.509-.395.056-.359-.69-.75-.856-.84" transform="translate(-1099.628 -112.968)" fill="#d3dee2"/>
            </g>
          </g>
        </g>
        <path id="Trazado_117114" data-name="Trazado 117114" d="M1138.066,256.46c-.32-5.809-.906-11.25-1.652-16.28q-2.473-.731-5.009-1.448c-.139-.039-2.538-.717-5.132-1.419-5.4-1.461-10.814-2.8-13.12-3.362a72.217,72.217,0,0,1-9.72.429c-1.661-.039-3.25-.133-4.76-.269a11.893,11.893,0,0,0,.221,6.4c.634,1.934,1.726,3.283,3.911,5.981a42.938,42.938,0,0,0,5.016,5.338,44.1,44.1,0,0,0,6.955,5.076,33.768,33.768,0,0,0,.742,8.037,36.635,36.635,0,0,0,7.79,15.651,1.218,1.218,0,0,0,1.113.338,1.168,1.168,0,0,0,.835-.677l-3.659-25.344-3.764-8.051a46.448,46.448,0,0,0,12.686-1.073,21.088,21.088,0,0,0-.49,3.015c-.426,4.8.921,8.522,2.286,12.175a49.933,49.933,0,0,0,4.009,8.278,1.215,1.215,0,0,0,1.4.691,1,1,0,0,0,.58-.655c.071-4.047.007-8.334-.241-12.834" transform="translate(-831.467 -177.106)" fill="#4f6772"/>
        <path id="Trazado_117115" data-name="Trazado 117115" d="M1258.886,389.728a10.383,10.383,0,0,0,4.915,2.337.743.743,0,0,0,.167-.66,1.306,1.306,0,0,0-.31-.545c-1.122-1.331-2.731-2.033-4.1-3.043-.433-.319-1.213-.81-1.575.124-.318.822.421,1.429.9,1.787" transform="translate(-952.265 -293.27)" fill="#4f6772"/>
        <path id="Trazado_117116" data-name="Trazado 117116" d="M1204.559,431.98a7.988,7.988,0,0,0,2.544,4.115.85.85,0,0,0,.541-.437,1.105,1.105,0,0,0,.084-.569c-.09-1.561-.961-2.859-1.448-4.284-.154-.451-.484-1.2-1.351-.638a1.415,1.415,0,0,0-.369,1.814" transform="translate(-911.752 -325.494)" fill="#4f6772"/>
        <path id="Trazado_117117" data-name="Trazado 117117" d="M1154.94,221.2a1.846,1.846,0,0,0,1.028,2.02,1.335,1.335,0,0,1,.5.3,1.015,1.015,0,0,1,.165.4l.38,1.477a.507.507,0,0,0,.683.45l1.556-.13a.572.572,0,0,0,.315-.09.562.562,0,0,0,.118-.148,21.806,21.806,0,0,0,1.722-3.354c.263-.642.468-1.454,0-1.969a1.364,1.364,0,0,0-1.068-.381,6.054,6.054,0,0,0-1.148.22,10.578,10.578,0,0,1-2.687.138,1.51,1.51,0,0,0-1.563,1.067" transform="translate(-874.281 -166.371)" fill="#ffd092"/>
        <g id="Grupo_141321" data-name="Grupo 141321" transform="translate(266.872 57.005)" style="mix-blend-mode: multiply;isolation: isolate">
          <g id="Grupo_141320" data-name="Grupo 141320">
            <g id="Grupo_141319" data-name="Grupo 141319" clip-path="url(#clip-path-4)">
              <path id="Trazado_117118" data-name="Trazado 117118" d="M1124.5,281.2a50.269,50.269,0,0,1-7.742-23.2,2.75,2.75,0,0,0-1.225-2.416,107.062,107.062,0,0,1-10.064-10.761c-1.738-2.077-3.517-4.337-4.254-6.991-.191-.688,0-2.25-.228-3.045q-1.2-.069-2.315-.178a11.893,11.893,0,0,0,.221,6.4c.634,1.934,1.726,3.283,3.911,5.981a42.938,42.938,0,0,0,5.016,5.338,44.119,44.119,0,0,0,6.955,5.076,33.767,33.767,0,0,0,.742,8.037,36.636,36.636,0,0,0,7.79,15.651,1.22,1.22,0,0,0,1.113.338,1.181,1.181,0,0,0,.188-.056c-.034-.062-.07-.122-.108-.181" transform="translate(-1098.339 -234.612)" fill="#d3dee2"/>
            </g>
          </g>
        </g>
        <g id="Grupo_141324" data-name="Grupo 141324" transform="translate(284.221 65.702)" style="mix-blend-mode: multiply;isolation: isolate">
          <g id="Grupo_141323" data-name="Grupo 141323">
            <g id="Grupo_141322" data-name="Grupo 141322" clip-path="url(#clip-path-5)">
              <path id="Trazado_117119" data-name="Trazado 117119" d="M1187.372,286.356a51.546,51.546,0,0,1-.9-7.429,46.923,46.923,0,0,1,.353-7.97,40.69,40.69,0,0,1-17.081-.552q.5.9,1.005,1.842.6,1.122,1.142,2.214a46.588,46.588,0,0,0,12.685-1.074,21.087,21.087,0,0,0-.49,3.014c-.426,4.8.921,8.522,2.286,12.175a49.911,49.911,0,0,0,4.009,8.278,1.335,1.335,0,0,0,.209.305,56.755,56.755,0,0,1-3.219-10.8" transform="translate(-1169.744 -270.404)" fill="#d3dee2"/>
            </g>
          </g>
        </g>
        <path id="Trazado_117120" data-name="Trazado 117120" d="M1170.625,43.188a6.532,6.532,0,0,1-.706,1.877,4.653,4.653,0,0,1-3.665,1.878q.086-1.292.172-2.585a1.373,1.373,0,0,1,.149-.64c.267-.432.877-.43,1.38-.5a3.734,3.734,0,0,0,2.5-2.032,3.809,3.809,0,0,0,.44-1.462,6.379,6.379,0,0,1,.118,1.361,10.389,10.389,0,0,1-.387,2.1" transform="translate(-882.88 -30.072)" fill="#936522"/>
        <g id="Grupo_141327" data-name="Grupo 141327" transform="translate(283.373 9.652)" style="mix-blend-mode: multiply;isolation: isolate">
          <g id="Grupo_141326" data-name="Grupo 141326">
            <g id="Grupo_141325" data-name="Grupo 141325" clip-path="url(#clip-path-6)">
              <path id="Trazado_117121" data-name="Trazado 117121" d="M1170.625,43.188a6.532,6.532,0,0,1-.706,1.877,4.653,4.653,0,0,1-3.665,1.878q.086-1.292.172-2.585a1.373,1.373,0,0,1,.149-.64c.267-.432.877-.43,1.38-.5a3.734,3.734,0,0,0,2.5-2.032,3.809,3.809,0,0,0,.44-1.462,6.379,6.379,0,0,1,.118,1.361,10.389,10.389,0,0,1-.387,2.1" transform="translate(-1166.253 -39.724)" fill="#d3dee2"/>
            </g>
          </g>
        </g>
        <path id="Trazado_117122" data-name="Trazado 117122" d="M1128.539,33.613h0a5.611,5.611,0,0,0-7.049,3.643l-1.228,3.856a5.611,5.611,0,0,0,10.693,3.406l1.228-3.856a5.611,5.611,0,0,0-3.643-7.05" transform="translate(-847.861 -25.244)" fill="#ffd092"/>
        <path id="Trazado_117123" data-name="Trazado 117123" d="M1109.584,26.289a3.843,3.843,0,0,0-2.212-1.393,15.964,15.964,0,0,0-3.4-.543c-2.9-.53-3.076-1.611-4.972-1.662a6.971,6.971,0,0,0-4.81,2.1,24.355,24.355,0,0,0-3.029,4.446,11.7,11.7,0,0,1-3.526,4.023,6.094,6.094,0,0,0-1.578,1.131c-.969,1.185-.352,2.994.6,4.209a9.933,9.933,0,0,0,8.149,3.723,4.037,4.037,0,0,0,2.364-.6,3.872,3.872,0,0,0,1.255-2.423c1.236-5.275,1.129-6.275,2.155-7.412a4.888,4.888,0,0,1,2.644-1.559c2.322-.433,3.474,1.186,4.954.52a3.6,3.6,0,0,0,1.409-4.565" transform="translate(-821.799 -17.176)" fill="#936522"/>
        <g id="Grupo_141330" data-name="Grupo 141330" transform="translate(285.397 33.888)" style="mix-blend-mode: multiply;isolation: isolate">
          <g id="Grupo_141329" data-name="Grupo 141329">
            <g id="Grupo_141328" data-name="Grupo 141328" clip-path="url(#clip-path-7)">
              <path id="Trazado_117124" data-name="Trazado 117124" d="M1177.6,144.651a11.367,11.367,0,0,0-3.024-5.183c.139,1.707,1.618,3.023,2,4.693a3.849,3.849,0,0,1-.657,3.114c-.042.057-.086.113-.13.17q.548,2.807,1.095,5.614c-.015.215-.031.415-.046.618.344.36.694-.03,1.2-.262a5.338,5.338,0,0,0,1.247-.646.725.725,0,0,0,.234-.291c.178-.512-.579-1.149-.653-1.21-.086-.422-.215-1.059-.367-1.835-.612-3.131-.708-3.988-.9-4.782" transform="translate(-1174.579 -139.468)" fill="#d3dee2"/>
            </g>
          </g>
        </g>
        <g id="Grupo_141333" data-name="Grupo 141333" transform="translate(263.769 5.513)" style="mix-blend-mode: multiply;isolation: isolate">
          <g id="Grupo_141332" data-name="Grupo 141332">
            <g id="Grupo_141331" data-name="Grupo 141331" clip-path="url(#clip-path-8)">
              <path id="Trazado_117125" data-name="Trazado 117125" d="M1099.882,23.953c1.157.078,2.317.363,3.478.465a9.39,9.39,0,0,0,1.194.017c-.185-.02-.376-.045-.584-.083-2.9-.53-3.076-1.611-4.972-1.662a6.972,6.972,0,0,0-4.81,2.1,24.367,24.367,0,0,0-3.029,4.446,11.693,11.693,0,0,1-3.526,4.023,6.093,6.093,0,0,0-1.578,1.131c-.969,1.185-.352,2.995.6,4.209a9.645,9.645,0,0,0,2.9,2.457,6.42,6.42,0,0,1-1.262-3.051,4.882,4.882,0,0,1,.233-2.682,9,9,0,0,1,2.228-2.563,12.173,12.173,0,0,0,2.147-2.829c.85-1.548,1.413-3.345,2.79-4.452a8.7,8.7,0,0,1,2.024-1.1,4.206,4.206,0,0,1,1.737-.475,2.463,2.463,0,0,1,.433.052" transform="translate(-1085.567 -22.688)" fill="#d3dee2"/>
            </g>
          </g>
        </g>
        <path id="Trazado_117126" data-name="Trazado 117126" d="M1132.3,107.852a15.114,15.114,0,0,0-8.159-.1,11.768,11.768,0,0,1,4.212,3.334,11.651,11.651,0,0,1,1.838,3.337,22.056,22.056,0,0,0,2.109-6.575" transform="translate(-851 -81.179)" fill="#ffd092"/>
        <g id="Grupo_141336" data-name="Grupo 141336" transform="translate(282.826 42.586)" style="mix-blend-mode: multiply;isolation: isolate">
          <g id="Grupo_141335" data-name="Grupo 141335">
            <g id="Grupo_141334" data-name="Grupo 141334" clip-path="url(#clip-path-9)">
              <path id="Trazado_117127" data-name="Trazado 117127" d="M1165.525,185.934a31.489,31.489,0,0,1,.509-10.166c.241-.137.5-.307.773-.5a3.246,3.246,0,0,1-2.8.081,1.63,1.63,0,0,0,.984.837,24.16,24.16,0,0,0,.539,9.746" transform="translate(-1164.001 -175.27)" fill="#d3dee2"/>
              <path id="Trazado_117128" data-name="Trazado 117128" d="M1171.957,224.861l-.014-.013c0,.013.008.027.013.04,0-.009,0-.018,0-.027" transform="translate(-1170.013 -212.801)" fill="#d3dee2"/>
            </g>
          </g>
        </g>
        <path id="Trazado_117129" data-name="Trazado 117129" d="M1141.931,178.7l-3.058,14.347-10.432.328q.036,1.141.072,2.281l9.87-.31,24.677-.776,3.662-16.649Z" transform="translate(-854.256 -134.691)" fill="#249fe2"/>
        <g id="Grupo_141339" data-name="Grupo 141339" transform="translate(274.186 43.981)" style="mix-blend-mode: multiply;isolation: isolate">
          <g id="Grupo_141338" data-name="Grupo 141338">
            <g id="Grupo_141337" data-name="Grupo 141337" clip-path="url(#clip-path-10)">
              <path id="Trazado_117130" data-name="Trazado 117130" d="M1128.443,195.713l10.5-.332,2.987-14.343,1.006-.03-3.5,16.634-10.921.352q-.036-1.141-.072-2.281" transform="translate(-1128.442 -181.008)" fill="#d3dee2"/>
            </g>
          </g>
        </g>
        <path id="Trazado_117131" data-name="Trazado 117131" d="M1886.038,698.428V621.682a2.4,2.4,0,0,1,2.4-2.4h25.179a2.4,2.4,0,0,1,2.4,2.4v76.746a2.4,2.4,0,0,1-2.4,2.4h-25.179a2.4,2.4,0,0,1-2.4-2.4" transform="translate(-1427.773 -468.812)" fill="#73a0df"/>
        <path id="Trazado_117132" data-name="Trazado 117132" d="M1934.893,649.415a4.125,4.125,0,1,1,4.125-4.125,4.125,4.125,0,0,1-4.125,4.125" transform="translate(-1461.635 -485.376)" fill="#ffa48a"/>
        <path id="Trazado_117133" data-name="Trazado 117133" d="M1977.889,799.334a2.4,2.4,0,1,1,2.4-2.4,2.4,2.4,0,0,1-2.4,2.4" transform="translate(-1495.492 -601.485)" fill="#5f97cc"/>
        <path id="Trazado_117134" data-name="Trazado 117134" d="M1977.889,824.408a2.4,2.4,0,1,1,2.4-2.4,2.4,2.4,0,0,1-2.4,2.4" transform="translate(-1495.492 -620.467)" fill="#5f97cc"/>
        <path id="Trazado_117135" data-name="Trazado 117135" d="M1977.889,849.481a2.4,2.4,0,1,1,2.4-2.4,2.4,2.4,0,0,1-2.4,2.4" transform="translate(-1495.492 -639.448)" fill="#5f97cc"/>
        <path id="Trazado_117136" data-name="Trazado 117136" d="M1977.889,874.555a2.4,2.4,0,1,1,2.4-2.4,2.4,2.4,0,0,1-2.4,2.4" transform="translate(-1495.492 -658.429)" fill="#5f97cc"/>
        <path id="Trazado_117137" data-name="Trazado 117137" d="M1977.889,899.628a2.4,2.4,0,1,1,2.4-2.4,2.4,2.4,0,0,1-2.4,2.4" transform="translate(-1495.492 -677.41)" fill="#5f97cc"/>
        <path id="Trazado_117138" data-name="Trazado 117138" d="M1977.889,924.7a2.4,2.4,0,1,1,2.4-2.4,2.4,2.4,0,0,1-2.4,2.4" transform="translate(-1495.492 -696.392)" fill="#5f97cc"/>
        <path id="Trazado_117139" data-name="Trazado 117139" d="M1952.814,799.334a2.4,2.4,0,1,1,2.4-2.4,2.4,2.4,0,0,1-2.4,2.4" transform="translate(-1476.51 -601.485)" fill="#5f97cc"/>
        <path id="Trazado_117140" data-name="Trazado 117140" d="M1952.814,824.408a2.4,2.4,0,1,1,2.4-2.4,2.4,2.4,0,0,1-2.4,2.4" transform="translate(-1476.51 -620.467)" fill="#5f97cc"/>
        <path id="Trazado_117141" data-name="Trazado 117141" d="M1952.814,849.481a2.4,2.4,0,1,1,2.4-2.4,2.4,2.4,0,0,1-2.4,2.4" transform="translate(-1476.51 -639.448)" fill="#5f97cc"/>
        <path id="Trazado_117142" data-name="Trazado 117142" d="M1952.814,874.555a2.4,2.4,0,1,1,2.4-2.4,2.4,2.4,0,0,1-2.4,2.4" transform="translate(-1476.51 -658.429)" fill="#5f97cc"/>
        <path id="Trazado_117143" data-name="Trazado 117143" d="M1952.814,899.628a2.4,2.4,0,1,1,2.4-2.4,2.4,2.4,0,0,1-2.4,2.4" transform="translate(-1476.51 -677.41)" fill="#5f97cc"/>
        <path id="Trazado_117144" data-name="Trazado 117144" d="M1952.814,924.7a2.4,2.4,0,1,1,2.4-2.4,2.4,2.4,0,0,1-2.4,2.4" transform="translate(-1476.51 -696.392)" fill="#5f97cc"/>
        <path id="Trazado_117145" data-name="Trazado 117145" d="M1927.742,799.334a2.4,2.4,0,1,1,2.4-2.4,2.4,2.4,0,0,1-2.4,2.4" transform="translate(-1457.53 -601.485)" fill="#5f97cc"/>
        <path id="Trazado_117146" data-name="Trazado 117146" d="M1927.742,824.408a2.4,2.4,0,1,1,2.4-2.4,2.4,2.4,0,0,1-2.4,2.4" transform="translate(-1457.53 -620.467)" fill="#5f97cc"/>
        <path id="Trazado_117147" data-name="Trazado 117147" d="M1927.742,849.481a2.4,2.4,0,1,1,2.4-2.4,2.4,2.4,0,0,1-2.4,2.4" transform="translate(-1457.53 -639.448)" fill="#5f97cc"/>
        <path id="Trazado_117148" data-name="Trazado 117148" d="M1927.742,874.555a2.4,2.4,0,1,1,2.4-2.4,2.4,2.4,0,0,1-2.4,2.4" transform="translate(-1457.53 -658.429)" fill="#5f97cc"/>
        <path id="Trazado_117149" data-name="Trazado 117149" d="M1927.742,899.628a2.4,2.4,0,1,1,2.4-2.4,2.4,2.4,0,0,1-2.4,2.4" transform="translate(-1457.53 -677.41)" fill="#5f97cc"/>
        <path id="Trazado_117150" data-name="Trazado 117150" d="M1927.742,924.7a2.4,2.4,0,1,1,2.4-2.4,2.4,2.4,0,0,1-2.4,2.4" transform="translate(-1457.53 -696.392)" fill="#5f97cc"/>
        <path id="Trazado_117151" data-name="Trazado 117151" d="M1902.667,799.334a2.4,2.4,0,1,1,2.4-2.4,2.4,2.4,0,0,1-2.4,2.4" transform="translate(-1438.548 -601.485)" fill="#5f97cc"/>
        <path id="Trazado_117152" data-name="Trazado 117152" d="M1902.667,824.408a2.4,2.4,0,1,1,2.4-2.4,2.4,2.4,0,0,1-2.4,2.4" transform="translate(-1438.548 -620.467)" fill="#5f97cc"/>
        <path id="Trazado_117153" data-name="Trazado 117153" d="M1902.667,849.481a2.4,2.4,0,1,1,2.4-2.4,2.4,2.4,0,0,1-2.4,2.4" transform="translate(-1438.548 -639.448)" fill="#5f97cc"/>
        <path id="Trazado_117154" data-name="Trazado 117154" d="M1902.667,874.555a2.4,2.4,0,1,1,2.4-2.4,2.4,2.4,0,0,1-2.4,2.4" transform="translate(-1438.548 -658.429)" fill="#5f97cc"/>
        <path id="Trazado_117155" data-name="Trazado 117155" d="M1902.667,899.628a2.4,2.4,0,1,1,2.4-2.4,2.4,2.4,0,0,1-2.4,2.4" transform="translate(-1438.548 -677.41)" fill="#5f97cc"/>
        <path id="Trazado_117156" data-name="Trazado 117156" d="M1902.667,924.7a2.4,2.4,0,1,1,2.4-2.4,2.4,2.4,0,0,1-2.4,2.4" transform="translate(-1438.548 -696.392)" fill="#5f97cc"/>
        <path id="Trazado_117157" data-name="Trazado 117157" d="M1924.082,761.647h-15.311a2.4,2.4,0,1,0,0,4.793h15.311a2.4,2.4,0,0,0,0-4.793" transform="translate(-1443.168 -576.584)" fill="#a0e573"/>
        <path id="Trazado_117158" data-name="Trazado 117158" d="M1924.082,736.574h-15.311a2.4,2.4,0,1,0,0,4.793h15.311a2.4,2.4,0,0,0,0-4.793" transform="translate(-1443.168 -557.603)" fill="#a0e573"/>
        <path id="Trazado_117159" data-name="Trazado 117159" d="M1924.082,711.5h-15.311a2.4,2.4,0,1,0,0,4.793h15.311a2.4,2.4,0,0,0,0-4.793" transform="translate(-1443.168 -538.622)" fill="#a0e573"/>
        <path id="Trazado_117160" data-name="Trazado 117160" d="M1924.082,686.426h-15.311a2.4,2.4,0,0,0,0,4.794h15.311a2.4,2.4,0,0,0,0-4.794" transform="translate(-1443.168 -519.64)" fill="#a0e573"/>
        <path id="Trazado_117161" data-name="Trazado 117161" d="M2147.362,865.136a1.734,1.734,0,0,0,.231-.859,1.173,1.173,0,0,0-1.257-.939,2.644,2.644,0,0,0-1.53.751c-1.79,1.553-2.757,3.828-3.6,6.045-1.035,2.737.331,3.642,2.226,1.479a28.092,28.092,0,0,0,3.925-6.476" transform="translate(-1620.675 -653.564)" fill="#4f6772"/>
        <path id="Trazado_117162" data-name="Trazado 117162" d="M2138.942,782.94c-3.836-2.989-11.732.973-16.033,3.13-.8.4-1.464.763-2.258,1.247a1.617,1.617,0,0,0-.328-.545,2.074,2.074,0,0,0-1.331-.455,37.941,37.941,0,0,0-9.409.329,38.315,38.315,0,0,1-5.09.7,25.534,25.534,0,0,1-2.631-.115,9.754,9.754,0,0,0-2.817-.211.879.879,0,0,0-.487.357c-.772-.469-1.423-.823-2.209-1.217-4.3-2.158-12.2-6.119-16.032-3.13a5.677,5.677,0,0,0-1.887,5.611c.815,3.2,4.972,4.712,7.514,5.6,5.509,1.916,11.471,3.673,16.835,5.138l-.507.342a1.55,1.55,0,0,0,.947,2.951c1.659-.4,3.788-.916,6.224-1.534,2.593.661,4.854,1.212,6.6,1.63a1.55,1.55,0,0,0,.946-2.951l-.708-.478c5.417-1.476,11.458-3.253,17.036-5.193,2.542-.884,6.7-2.4,7.514-5.6a5.679,5.679,0,0,0-1.887-5.611" transform="translate(-1573.304 -591.889)" fill="#4f6772"/>
        <path id="Trazado_117163" data-name="Trazado 117163" d="M2246.232,865.528a1.726,1.726,0,0,1-.231-.859,1.172,1.172,0,0,1,1.257-.94,2.643,2.643,0,0,1,1.529.75c1.79,1.553,2.757,3.828,3.6,6.045,1.035,2.737-.33,3.642-2.226,1.479a28.085,28.085,0,0,1-3.925-6.476" transform="translate(-1700.271 -653.861)" fill="#4f6772"/>
        <path id="Trazado_117164" data-name="Trazado 117164" d="M2182.009,516.789c-3.693.817-8.838-1.614-11.548,2.413-1.97,2.928-2.659,9.437.5,11.663.8.565,1.723-.476,1.3-1.359a11,11,0,0,1-.782-5.128.742.742,0,0,0,.229.125c1.176.367,2.29-.474,3.449-.747a12.674,12.674,0,0,1,2.586-.337c.135.063.267.123.4.175a5.531,5.531,0,0,0,5.818-.515c3.019-2.252,1.915-7.145-1.949-6.29" transform="translate(-1641.82 -391.146)" fill="#473d34"/>
        <path id="Trazado_117165" data-name="Trazado 117165" d="M2175.12,541.133a5.245,5.245,0,0,0-4.561,1.245c-.195.156-.384.316-.575.474a6.434,6.434,0,0,0-.2,1.567v2.615a2.281,2.281,0,1,0,.455,4.318,6.485,6.485,0,0,0,12.525-2.366v-4.566a6.433,6.433,0,0,0-1.035-3.5c-2.29.838-4.056.564-6.608.211" transform="translate(-1640.498 -409.49)" fill="#ffd092"/>
        <g id="Grupo_141342" data-name="Grupo 141342" transform="translate(526.542 125.646)" style="mix-blend-mode: multiply;isolation: isolate">
          <g id="Grupo_141341" data-name="Grupo 141341">
            <g id="Grupo_141340" data-name="Grupo 141340" clip-path="url(#clip-path-11)">
              <path id="Trazado_117166" data-name="Trazado 117166" d="M2180.609,535.769c-.286.1-.578.189-.871.264a7.636,7.636,0,0,1-2.861.317,6.1,6.1,0,0,1-3.972-2.6c-.185-.281-.652-1.05-1.02-3.915a35,35,0,0,1-.268-5.3,4.4,4.4,0,0,1,2.259-1.045,10.494,10.494,0,0,1,2.731.371,6.89,6.89,0,0,0,3.406-.539,10.133,10.133,0,0,1-2.562-.135c-1.608-.3-2.238-.833-3.506-.809a4.88,4.88,0,0,0-2.175.583,7.45,7.45,0,0,1,2.37-4.813,6.521,6.521,0,0,1,1.554-1c-2.5-.128-4.952,0-6.554,2.376-1.559,2.317-2.307,6.869-.991,9.774a2.275,2.275,0,0,0,2.091,4.031,6.461,6.461,0,0,0,10.369,2.444" transform="translate(-2167.041 -517.11)" fill="#d3dee2"/>
            </g>
          </g>
        </g>
        <g id="Grupo_141345" data-name="Grupo 141345" transform="translate(549.783 189.975)" style="mix-blend-mode: multiply;isolation: isolate">
          <g id="Grupo_141344" data-name="Grupo 141344">
            <g id="Grupo_141343" data-name="Grupo 141343" clip-path="url(#clip-path-12)">
              <path id="Trazado_117167" data-name="Trazado 117167" d="M2278.541,782.94c-3.589-2.8-10.728.489-15.155,2.692-.947,1.634-.742,3.746-.486,5.657l2.113-2.643a5.787,5.787,0,0,1,.734-.807,5.917,5.917,0,0,1,1.169-.717,25.192,25.192,0,0,0,3.724-2.23,12.271,12.271,0,0,1,2.32-1.6,6.641,6.641,0,0,1,2.057-.477,7.38,7.38,0,0,1,3.774.462c.095.043.186.1.278.147a4.63,4.63,0,0,0-.528-.485" transform="translate(-2262.687 -781.864)" fill="#d3dee2"/>
            </g>
          </g>
        </g>
        <g id="Grupo_141348" data-name="Grupo 141348" transform="translate(506.273 190.072)" style="mix-blend-mode: multiply;isolation: isolate">
          <g id="Grupo_141347" data-name="Grupo 141347">
            <g id="Grupo_141346" data-name="Grupo 141346" clip-path="url(#clip-path-13)">
              <path id="Trazado_117168" data-name="Trazado 117168" d="M2098.927,791.608a24.837,24.837,0,0,0-.232-5.512.966.966,0,0,0-.193-.522,1,1,0,0,0-.589-.238,35.217,35.217,0,0,1-5.039-1.256,7.067,7.067,0,0,1-3.013-1.652c-2.129-.346-4.092-.19-5.5.91a4.729,4.729,0,0,0-.737.724,4.923,4.923,0,0,1,3.833-.378,2.647,2.647,0,0,1,.735.347,5.15,5.15,0,0,1,.677.672c1.548,1.63,3.986,2,6.233,2.07a25.747,25.747,0,0,0,3.826,4.836" transform="translate(-2083.622 -782.263)" fill="#d3dee2"/>
            </g>
          </g>
        </g>
        <path id="Trazado_117169" data-name="Trazado 117169" d="M2141.236,627.62a40.907,40.907,0,0,0-10.941-12.908c-3.462-2.481-6.868-4.921-11.74-5.088-5.516-.189-9.558,2.651-13.026,5.088a35.82,35.82,0,0,0-10.941,12.908c-2.576,4.643-4.469,9.882-4.009,15.172s3.721,10.572,8.773,12.2a13.174,13.174,0,0,0,7.367.048c.1.761.179,1.453.251,2.065a49.006,49.006,0,0,0,23.166-.117c.075-.5.159-1.061.251-1.671a12.6,12.6,0,0,0,6.084-.325c5.052-1.633,8.313-6.915,8.773-12.2s-1.432-10.529-4.008-15.172m-39.066,19.769a5.867,5.867,0,0,1-1.474-3.055,9.65,9.65,0,0,1,1.252-6.852,11.947,11.947,0,0,1,1.408-1.815c.4,2.144,1.1,4.535,2.209,11.38q.152.939.288,1.827a5.7,5.7,0,0,1-3.683-1.485m32.957-3.055a5.87,5.87,0,0,1-1.474,3.055,4.974,4.974,0,0,1-2.276,1.255c.015-.1.03-.2.045-.31.8-5.423,1.363-9.294,1.707-11.893a10.661,10.661,0,0,1,.745,1.041,9.651,9.651,0,0,1,1.253,6.852" transform="translate(-1582.562 -461.492)" fill="#d9f2ff"/>
        <g id="Grupo_141351" data-name="Grupo 141351" transform="translate(507.947 148.123)" style="mix-blend-mode: multiply;isolation: isolate">
          <g id="Grupo_141350" data-name="Grupo 141350">
            <g id="Grupo_141349" data-name="Grupo 141349" clip-path="url(#clip-path-14)">
              <path id="Trazado_117170" data-name="Trazado 117170" d="M2118.554,609.624c-5.516-.189-9.557,2.651-13.026,5.088a35.8,35.8,0,0,0-10.941,12.907c-2.577,4.643-4.469,9.882-4.009,15.172s3.721,10.571,8.773,12.2a12.743,12.743,0,0,0,6.441.259c-.162-.407-.351-.806-.541-1.188l-3.724-7.506a5.687,5.687,0,0,1-.459-.925l-.065-.131a37.7,37.7,0,0,0-.1,6.254c-5.037-1.63-8.062-7.178-8.06-12.471s2.48-10.292,5.544-14.608A42.6,42.6,0,0,1,2111.7,612.23a24.484,24.484,0,0,1,4.957-2.113,23.754,23.754,0,0,1,2.574-.449c-.224-.018-.447-.036-.677-.043" transform="translate(-2090.51 -609.615)" fill="#d3dee2"/>
            </g>
          </g>
        </g>
        <g id="Grupo_141354" data-name="Grupo 141354" transform="translate(549.87 170.502)" style="mix-blend-mode: multiply;isolation: isolate">
          <g id="Grupo_141353" data-name="Grupo 141353">
            <g id="Grupo_141352" data-name="Grupo 141352" clip-path="url(#clip-path-15)">
              <path id="Trazado_117171" data-name="Trazado 117171" d="M2263.982,701.718q-.1,2.256-.191,4.512a10.51,10.51,0,0,1,.7.976,9.649,9.649,0,0,1,1.252,6.852,5.864,5.864,0,0,1-1.474,3.055,4.335,4.335,0,0,1-.55.461,6.669,6.669,0,0,0-.671,2.082,8.416,8.416,0,0,0,5.01-3.409,9.018,9.018,0,0,0,.613-7.888,17.911,17.911,0,0,0-4.686-6.642" transform="translate(-2263.046 -701.718)" fill="#d3dee2"/>
            </g>
          </g>
        </g>
        <g id="Grupo_141357" data-name="Grupo 141357" transform="translate(520.793 171.767)" style="mix-blend-mode: multiply;isolation: isolate">
          <g id="Grupo_141356" data-name="Grupo 141356">
            <g id="Grupo_141355" data-name="Grupo 141355" clip-path="url(#clip-path-16)">
              <path id="Trazado_117172" data-name="Trazado 117172" d="M2145.459,706.925l-2.077,2.408c.3,1.621.776,3.388,1.47,7.111a2.626,2.626,0,0,0,.928.368l2.151.543c-.475-1.353-.934-2.839-1.34-4.449a51,51,0,0,1-1.132-5.98" transform="translate(-2143.382 -706.925)" fill="#d3dee2"/>
            </g>
          </g>
        </g>
        <g id="Grupo_141360" data-name="Grupo 141360" transform="translate(528.663 199.566)" style="mix-blend-mode: multiply;isolation: isolate">
          <g id="Grupo_141359" data-name="Grupo 141359">
            <g id="Grupo_141358" data-name="Grupo 141358" clip-path="url(#clip-path-17)">
              <path id="Trazado_117173" data-name="Trazado 117173" d="M2184.668,825.454l7.692-4.117-16.589.021,8.9,4.1" transform="translate(-2175.771 -821.337)" fill="#d3dee2"/>
            </g>
          </g>
        </g>
        <path id="Trazado_117174" data-name="Trazado 117174" d="M2197.285,637.6l-1.229,1.433.856,1.071q-1.087,13.876-2.173,27.753l2.406,3.464,2.62-3.62q-.953-13.783-1.9-27.565l1.071-1.163-1.647-1.371" transform="translate(-1661.467 -482.68)" fill="#4f6772"/>
        <path id="Trazado_117175" data-name="Trazado 117175" d="M2128.145,741.437l3.586,20.34h30.242l3.587-20.34Z" transform="translate(-1611.054 -561.284)" fill="#249fe2"/>
        <path id="Trazado_117176" data-name="Trazado 117176" d="M1277.74,75.587a8.345,8.345,0,1,0-8.345-8.345,8.345,8.345,0,0,0,8.345,8.345" transform="translate(-960.96 -44.587)" fill="#ffcb51"/>
        <path id="Trazado_117177" data-name="Trazado 117177" d="M1393.141,116.771H1381c-12.215,0-17.975-6.9-23.545-13.571-5.419-6.491-10.537-12.621-21.494-12.621V88.063c12.134,0,17.874,6.876,23.426,13.525,5.438,6.514,10.575,12.667,21.613,12.667h12.143Z" transform="translate(-1011.351 -66.666)" fill="#ffcb51"/>
        <path id="Trazado_117178" data-name="Trazado 117178" d="M1335.959,45.991V43.475c6.6,0,9.7-3.278,12.983-6.749,3.515-3.718,7.149-7.562,14.886-7.562h7.514v2.517h-7.514c-6.652,0-9.763,3.29-13.057,6.774-3.5,3.705-7.126,7.537-14.812,7.537" transform="translate(-1011.351 -22.078)" fill="#ffcb51"/>
        <path id="Trazado_117179" data-name="Trazado 117179" d="M1455.583,16.689a8.345,8.345,0,1,0-8.344-8.345,8.345,8.345,0,0,0,8.344,8.345" transform="translate(-1095.592)" fill="#ffcb51"/>
        <path id="Trazado_117180" data-name="Trazado 117180" d="M1547.3,183.381a8.345,8.345,0,1,0-8.345-8.345,8.345,8.345,0,0,0,8.345,8.345" transform="translate(-1165.023 -126.19)" fill="#ffcb51"/>
        <path id="Trazado_117181" data-name="Trazado 117181" d="M1687.431,16.689a8.345,8.345,0,1,0-8.345-8.345,8.344,8.344,0,0,0,8.345,8.345" transform="translate(-1271.106)" fill="#ffcb51"/>
        <rect id="Rectángulo_36755" data-name="Rectángulo 36755" width="56.334" height="2.517" transform="translate(359.991 7.086)" fill="#ffcb51"/>
        <path id="Trazado_117182" data-name="Trazado 117182" d="M297.052,283.3a.688.688,0,0,0-.432.3.673.673,0,0,0-.092.516l4.753,21.771H279.214a.742.742,0,0,0-.338-.019.717.717,0,0,0-.571.7,23.828,23.828,0,1,0,44.72-11.444.633.633,0,0,0-.028-.071.683.683,0,0,0-.076-.11,24,24,0,0,0-6.464-7.4.652.652,0,0,0-.208-.154,23.7,23.7,0,0,0-14.116-4.646,24.009,24.009,0,0,0-5.08.555" transform="translate(-210.683 -214.045)" fill="#ffa48a"/>
        <path id="Trazado_117183" data-name="Trazado 117183" d="M270.432,262.986a23.95,23.95,0,0,0-18.746,23.26h0a.727.727,0,0,0,.366.607.682.682,0,0,0,.342.092h23.12a.685.685,0,0,0,.686-.686.672.672,0,0,0-.016-.146l-4.935-22.6a.685.685,0,0,0-.815-.524" transform="translate(-190.532 -199.074)" fill="#56dacc"/>
        <path id="Trazado_117184" data-name="Trazado 117184" d="M83.192,453.428a1.243,1.243,0,0,0-1.154,0c-13.732,9.583-24.315,11.288-31.574,10.977-5.008-.214-12.147-1.546-22.107.82-3.938.936-7.087,1.684-10.825,3.9C5.122,476.468,1.59,490.872.864,493.834A43.577,43.577,0,0,0,0,498.4a36.224,36.224,0,0,0,22.666,9.938,1.671,1.671,0,0,0,.949-1,1.651,1.651,0,0,0-.406-1.641,39.1,39.1,0,0,1-10.8-9.163,28.888,28.888,0,0,1,6.645-7.053q2.159,5.542,4.523,11.229,1.494,3.591,3.007,7.08c-1.827,12.589-3.25,26.252-3.984,40.877-.428,8.534-.589,16.742-.54,24.594.008.042.186.879.81,1.09a1.584,1.584,0,0,0,1.823-1.295q3.046-10,5.92-20.7Q34,539.715,36.669,527.766a245.23,245.23,0,0,0,7.474,23.552c2.853,7.632,5.887,14.588,8.913,20.847a1.266,1.266,0,0,0,1.62.886,1.174,1.174,0,0,0,.405-1.226c-.56-9.687-1.5-20.053-2.971-31-1.337-9.959-2.97-19.337-4.774-28.109l1.694-.134c-.958-7.847-.287-13.194.577-16.724.185-.756.529-2.038,1.06-4.283q1.3-5.51,2.236-10.665a36.582,36.582,0,0,0,18.4-7.64,37.316,37.316,0,0,0,12.451-18.613,1.2,1.2,0,0,0-.559-1.231" transform="translate(0 -343.143)" fill="#4f6772"/>
        <path id="Trazado_117185" data-name="Trazado 117185" d="M341.13,411.174c-.856.441-1.053,1.631-1.254,2.836a4.561,4.561,0,0,0-.114,1.571,4.065,4.065,0,0,0,2.986,2.918,4.226,4.226,0,0,0,3.934-.938,2.77,2.77,0,0,0,1.019-1.98c-.011-.231-.055-.155-.76-1.763a2.537,2.537,0,0,0-.722-1.15,1.823,1.823,0,0,0-.836-.345c.6-1.072,1.137-1.9,1.509-2.44.744-1.091,1.319-1.784,1.074-2.35a.764.764,0,0,0-.456-.422c-.527-.162-1.135.447-1.437.747-.88.874-2.009,1.944-3.425,3.278a1.94,1.94,0,0,0-1.519.038" transform="translate(-257.183 -308.172)" fill="#ffd092"/>
        <path id="Trazado_117186" data-name="Trazado 117186" d="M79.809,960.524a12.73,12.73,0,0,0-2.662,2.784,4.027,4.027,0,0,0-1.12,2.87,1.876,1.876,0,0,0,1.7-.512,19.989,19.989,0,0,0,2.875-2.629c.5-.56,1.528-1.737,1.119-2.583-.394-.815-1.375-.31-1.911.07" transform="translate(-57.536 -726.754)" fill="#4f6772"/>
        <path id="Trazado_117187" data-name="Trazado 117187" d="M225.411,953.615a12.735,12.735,0,0,1,2.662,2.784,4.027,4.027,0,0,1,1.12,2.87,1.875,1.875,0,0,1-1.7-.512,19.975,19.975,0,0,1-2.875-2.629c-.5-.56-1.528-1.737-1.119-2.583.394-.815,1.375-.31,1.911.07" transform="translate(-169.123 -721.524)" fill="#4f6772"/>
        <path id="Trazado_117188" data-name="Trazado 117188" d="M110.468,410.582a3.606,3.606,0,0,1,.1-1.021,2.506,2.506,0,0,1,1.295-1.448,5.021,5.021,0,0,1,1.929-.555c4.5-.333,4.692,0,7.954-.063a2.979,2.979,0,0,1,1.768.312c.561.348,1.031,1.015,1.333,2.891a16.1,16.1,0,0,1-.058,5.329,2.042,2.042,0,0,1-.3.843,2.573,2.573,0,0,1-1.292.94,15.07,15.07,0,0,1-3.5.853c-1.563.248-3.13.482-4.707.627a10.407,10.407,0,0,1-3.02-.053c-.407-.083-.752-.118-.949-.457a5.143,5.143,0,0,1-.194-1.628,64.022,64.022,0,0,1-.357-6.57" transform="translate(-83.626 -308.416)" fill="#c96c27"/>
        <path id="Trazado_117189" data-name="Trazado 117189" d="M117.545,419a13.494,13.494,0,0,1-4.526,3.94c-1.864,1.013-4.686,2.306-6.969,2.087v1.35a2.333,2.333,0,0,0-.476-.049,2.369,2.369,0,0,0,0,4.738,2.319,2.319,0,0,0,.945-.2,6.668,6.668,0,0,0,12.9-2.458v-4.743a6.745,6.745,0,0,0-1.87-4.661" transform="translate(-78.144 -317.192)" fill="#ffd092"/>
        <g id="Grupo_141363" data-name="Grupo 141363" transform="translate(25.082 99.133)" style="mix-blend-mode: multiply;isolation: isolate">
          <g id="Grupo_141362" data-name="Grupo 141362">
            <g id="Grupo_141361" data-name="Grupo 141361" clip-path="url(#clip-path-18)">
              <path id="Trazado_117190" data-name="Trazado 117190" d="M110.34,425.468a4.776,4.776,0,0,1-1.109-1.982,28.8,28.8,0,0,1-1.117-6.425,15.255,15.255,0,0,0,2.182-.755,15.523,15.523,0,0,0,4.13-2.642,19.957,19.957,0,0,1-6.461,2.487,24.877,24.877,0,0,1-.25-6.56,2.556,2.556,0,0,1,.36-1.266,1.41,1.41,0,0,1,.361-.335l-.129.009a5.022,5.022,0,0,0-1.929.555A2.507,2.507,0,0,0,105.083,410a3.613,3.613,0,0,0-.1,1.021,63.881,63.881,0,0,0,.357,6.57c.012.117.017.263.02.422a2.364,2.364,0,0,0,.211,4.716,2.315,2.315,0,0,0,.945-.2,6.7,6.7,0,0,0,6.213,4.284,6.56,6.56,0,0,0,.917-.072,7.751,7.751,0,0,1-.947-.105,4.327,4.327,0,0,1-2.362-1.167" transform="translate(-103.226 -407.991)" fill="#d3dee2"/>
            </g>
          </g>
        </g>
        <path id="Trazado_117191" data-name="Trazado 117191" d="M106.7,498.136c-.754.174-1.643.395-1.643.395-.534.131-1.056.263-1.57.4q2.089,3.894,4.5,7.964c2.464,4.147,4.956,8.014,7.425,11.607,1.743-4.017,3.461-8.257,5.12-12.716q1.679-4.514,3.105-8.839a60.792,60.792,0,0,0-10.915.13c-2.3.277-5.041.832-6.022,1.059" transform="translate(-78.342 -376.058)" fill="#daf1fd"/>
        <path id="Trazado_117192" data-name="Trazado 117192" d="M146.367,526.855q-1-6.342-2-12.683l1.323-.838-2.314-2.16-1.732,2.381,1.346.679q-.378,6.444-.755,12.888a2.449,2.449,0,0,0,2,2.669,2.474,2.474,0,0,0,2.135-2.936" transform="translate(-107.224 -386.97)" fill="#4f6772"/>
        <g id="Grupo_141366" data-name="Grupo 141366" transform="translate(0 120.794)" style="mix-blend-mode: multiply;isolation: isolate">
          <g id="Grupo_141365" data-name="Grupo 141365">
            <g id="Grupo_141364" data-name="Grupo 141364" clip-path="url(#clip-path-19)">
              <path id="Trazado_117193" data-name="Trazado 117193" d="M36.954,497.138a50.553,50.553,0,0,0-8.6,1.285c-3.938.935-7.087,1.684-10.825,3.9C5.122,509.669,1.59,524.074.864,527.035A43.49,43.49,0,0,0,0,531.6a36.643,36.643,0,0,0,7.136,5.294,22.152,22.152,0,0,1-5.381-5.5,41.41,41.41,0,0,1,9.528-20.378,41.286,41.286,0,0,1,12.245-9.424,44.36,44.36,0,0,1,13.425-4.451" transform="translate(0 -497.138)" fill="#d3dee2"/>
            </g>
          </g>
        </g>
        <g id="Grupo_141369" data-name="Grupo 141369" transform="translate(19.057 145.009)" style="mix-blend-mode: multiply;isolation: isolate">
          <g id="Grupo_141368" data-name="Grupo 141368">
            <g id="Grupo_141367" data-name="Grupo 141367" clip-path="url(#clip-path-20)">
              <path id="Trazado_117194" data-name="Trazado 117194" d="M87.93,616.55q-1.43-3.141-2.811-6.534c-1.86-4.585-3.422-9.008-4.737-13.215l-1.948,1.323q2.159,5.541,4.523,11.229,1.494,3.59,3.007,7.079c.643.045,1.3.082,1.967.117" transform="translate(-78.433 -596.801)" fill="#d3dee2"/>
            </g>
          </g>
        </g>
        <g id="Grupo_141372" data-name="Grupo 141372" transform="translate(52.904 111.655)" style="mix-blend-mode: multiply;isolation: isolate">
          <g id="Grupo_141371" data-name="Grupo 141371">
            <g id="Grupo_141370" data-name="Grupo 141370" clip-path="url(#clip-path-21)">
              <path id="Trazado_117195" data-name="Trazado 117195" d="M241.49,470.457a34.306,34.306,0,0,1-16.928,11.008,31.461,31.461,0,0,1-6.2,1.049l-.632,3.131a36.578,36.578,0,0,0,18.4-7.64,37.3,37.3,0,0,0,12.409-18.473,72.752,72.752,0,0,1-7.047,10.926" transform="translate(-217.73 -459.531)" fill="#d3dee2"/>
            </g>
          </g>
        </g>
        <g id="Grupo_141375" data-name="Grupo 141375" transform="translate(82.547 102.836)" style="mix-blend-mode: multiply;isolation: isolate">
          <g id="Grupo_141374" data-name="Grupo 141374">
            <g id="Grupo_141373" data-name="Grupo 141373" clip-path="url(#clip-path-22)">
              <path id="Trazado_117196" data-name="Trazado 117196" d="M343.863,430.865a4.542,4.542,0,0,1-2.714-2.193,4.607,4.607,0,0,1,.079-4.361,1.316,1.316,0,0,1,.331-.412c.253-.19.92-.262,1.074-.542a1.935,1.935,0,0,0-1.5.042c-.856.441-1.053,1.631-1.254,2.836a4.561,4.561,0,0,0-.114,1.571,4.064,4.064,0,0,0,2.986,2.917,4.262,4.262,0,0,0,1.114.141" transform="translate(-339.73 -423.234)" fill="#d3dee2"/>
            </g>
          </g>
        </g>
        <g id="Grupo_141378" data-name="Grupo 141378" transform="translate(22.055 164.641)" style="mix-blend-mode: multiply;isolation: isolate">
          <g id="Grupo_141377" data-name="Grupo 141377">
            <g id="Grupo_141376" data-name="Grupo 141376" clip-path="url(#clip-path-23)">
              <path id="Trazado_117197" data-name="Trazado 117197" d="M106.778,684.441q.175-2.31.351-4.621l-1.4,3.1c-1.145.121-2.376.206-3.685.234-.832.018-1.633.011-2.4-.015a14.737,14.737,0,0,0-.45-2.157,4.083,4.083,0,0,0-.9-1.888,2.981,2.981,0,0,0-.748-.558q-.366-.215-.769-.429c-.333-.176-.657-.335-.97-.479-.166-.011-.34-.018-.5-.03-1.827,12.589-3.25,26.252-3.984,40.877-.428,8.534-.589,16.742-.54,24.595.008.042.186.879.81,1.09a1.04,1.04,0,0,0,.535.025q.268-6.879.652-13.884,1.293-23.519,3.708-45.567,2.759.035,5.732-.059,2.35-.078,4.562-.234" transform="translate(-90.769 -677.598)" fill="#d3dee2"/>
            </g>
          </g>
        </g>
        <path id="Trazado_117198" data-name="Trazado 117198" d="M99.618,674.873a.759.759,0,0,0,.1.424.752.752,0,0,0,.393.233,43.289,43.289,0,0,0,5.4,1.445,16.38,16.38,0,0,0-.4-3.03c-.324-1.422-.507-2.177-1.166-2.787a3.409,3.409,0,0,0-2.087-.832l-.778-1.74a1.483,1.483,0,0,0-.649.313c-.435.372-.441.9-.581,1.834a22.977,22.977,0,0,0-.24,4.138" transform="translate(-75.404 -506.136)" fill="#ffd092"/>
        <g id="Grupo_141381" data-name="Grupo 141381" transform="translate(36.669 181.164)" style="mix-blend-mode: multiply;isolation: isolate">
          <g id="Grupo_141380" data-name="Grupo 141380">
            <g id="Grupo_141379" data-name="Grupo 141379" clip-path="url(#clip-path-24)">
              <path id="Trazado_117199" data-name="Trazado 117199" d="M162.562,779.889A264.115,264.115,0,0,1,152.42,748.04q.113-1.22.227-2.44l-.8,1.592-.935,1.867c.911,3.468,2,7.318,3.316,11.477,2.2,6.97,2.146,6.693,4.158,12.076,2.853,7.632,5.887,14.588,8.913,20.847a1.351,1.351,0,0,0,1.431.957c-2.11-4.58-4.181-9.422-6.171-14.526" transform="translate(-150.915 -745.6)" fill="#d3dee2"/>
            </g>
          </g>
        </g>
        <path id="Trazado_117200" data-name="Trazado 117200" d="M808.735,528.58a8.961,8.961,0,1,0-8.961,8.961,8.961,8.961,0,0,0,8.961-8.961" transform="translate(-598.663 -393.363)" fill="#fff"/>
        <g id="Grupo_141384" data-name="Grupo 141384" transform="translate(192.138 126.256)" opacity="0.29">
          <g id="Grupo_141383" data-name="Grupo 141383">
            <g id="Grupo_141382" data-name="Grupo 141382" clip-path="url(#clip-path-25)">
              <path id="Trazado_117201" data-name="Trazado 117201" d="M799.825,537.737a9.059,9.059,0,1,0-9.059-9.059,9.069,9.069,0,0,0,9.059,9.059" transform="translate(-790.766 -519.619)" fill="#5893eb"/>
            </g>
          </g>
        </g>
        <g id="Grupo_141387" data-name="Grupo 141387" transform="translate(197.083 129.356)" opacity="0.29">
          <g id="Grupo_141386" data-name="Grupo 141386">
            <g id="Grupo_141385" data-name="Grupo 141385" clip-path="url(#clip-path-26)">
              <path id="Trazado_117202" data-name="Trazado 117202" d="M814.979,540.1a3.863,3.863,0,1,0-3.863-3.863,3.867,3.867,0,0,0,3.863,3.863" transform="translate(-811.116 -532.378)" fill="#5893eb"/>
            </g>
          </g>
        </g>
        <g id="Grupo_141390" data-name="Grupo 141390" transform="translate(194.444 138.657)" opacity="0.29">
          <g id="Grupo_141389" data-name="Grupo 141389">
            <g id="Grupo_141388" data-name="Grupo 141388" clip-path="url(#clip-path-27)">
              <path id="Trazado_117203" data-name="Trazado 117203" d="M800.256,573.346a9.041,9.041,0,0,0,13.37.148,9.473,9.473,0,0,0-13.37-.148" transform="translate(-800.256 -570.658)" fill="#5893eb"/>
            </g>
          </g>
        </g>
        <path id="Trazado_117204" data-name="Trazado 117204" d="M717.021,159.023a15.737,15.737,0,1,0-15.737,15.737,15.737,15.737,0,0,0,15.737-15.737" transform="translate(-518.974 -108.471)" fill="#fff"/>
        <g id="Grupo_141393" data-name="Grupo 141393" transform="translate(166.552 34.815)" opacity="0.29">
          <g id="Grupo_141392" data-name="Grupo 141392">
            <g id="Grupo_141391" data-name="Grupo 141391" clip-path="url(#clip-path-28)">
              <path id="Trazado_117205" data-name="Trazado 117205" d="M701.371,175.1a15.909,15.909,0,1,0-15.91-15.909,15.927,15.927,0,0,0,15.91,15.909" transform="translate(-685.462 -143.286)" fill="#5893eb"/>
            </g>
          </g>
        </g>
        <g id="Grupo_141396" data-name="Grupo 141396" transform="translate(175.235 40.26)" opacity="0.29">
          <g id="Grupo_141395" data-name="Grupo 141395">
            <g id="Grupo_141394" data-name="Grupo 141394" clip-path="url(#clip-path-29)">
              <path id="Trazado_117206" data-name="Trazado 117206" d="M727.984,179.262a6.784,6.784,0,1,0-6.784-6.784,6.792,6.792,0,0,0,6.784,6.784" transform="translate(-721.2 -165.694)" fill="#5893eb"/>
            </g>
          </g>
        </g>
        <g id="Grupo_141399" data-name="Grupo 141399" transform="translate(170.602 56.595)" opacity="0.29">
          <g id="Grupo_141398" data-name="Grupo 141398">
            <g id="Grupo_141397" data-name="Grupo 141397" clip-path="url(#clip-path-30)">
              <path id="Trazado_117207" data-name="Trazado 117207" d="M702.13,237.642a15.878,15.878,0,0,0,23.479.261,16.636,16.636,0,0,0-23.479-.261" transform="translate(-702.13 -232.922)" fill="#5893eb"/>
            </g>
          </g>
        </g>
        <path id="Trazado_117208" data-name="Trazado 117208" d="M624.648,392.77a11.271,11.271,0,1,0-11.271,11.271,11.271,11.271,0,0,0,11.271-11.271" transform="translate(-455.808 -288.804)" fill="#fff"/>
        <g id="Grupo_141402" data-name="Grupo 141402" transform="translate(146.284 92.696)" opacity="0.29">
          <g id="Grupo_141401" data-name="Grupo 141401">
            <g id="Grupo_141400" data-name="Grupo 141400" clip-path="url(#clip-path-31)">
              <path id="Trazado_117209" data-name="Trazado 117209" d="M613.441,404.287a11.394,11.394,0,1,0-11.394-11.394,11.407,11.407,0,0,0,11.394,11.394" transform="translate(-602.047 -381.499)" fill="#5893eb"/>
            </g>
          </g>
        </g>
        <g id="Grupo_141405" data-name="Grupo 141405" transform="translate(152.503 96.595)" opacity="0.29">
          <g id="Grupo_141404" data-name="Grupo 141404">
            <g id="Grupo_141403" data-name="Grupo 141403" clip-path="url(#clip-path-32)">
              <path id="Trazado_117210" data-name="Trazado 117210" d="M632.5,407.265a4.859,4.859,0,1,0-4.859-4.859,4.864,4.864,0,0,0,4.859,4.859" transform="translate(-627.642 -397.548)" fill="#5893eb"/>
            </g>
          </g>
        </g>
        <g id="Grupo_141408" data-name="Grupo 141408" transform="translate(149.184 108.294)" opacity="0.29">
          <g id="Grupo_141407" data-name="Grupo 141407">
            <g id="Grupo_141406" data-name="Grupo 141406" clip-path="url(#clip-path-33)">
              <path id="Trazado_117211" data-name="Trazado 117211" d="M613.984,449.075a11.372,11.372,0,0,0,16.815.187,11.914,11.914,0,0,0-16.815-.187" transform="translate(-613.984 -445.695)" fill="#5893eb"/>
            </g>
          </g>
        </g>
        <path id="Trazado_117212" data-name="Trazado 117212" d="M2313.138,865.139h0a3.242,3.242,0,0,0-3.241,3.242v14.755a3.242,3.242,0,1,0,6.483,0V868.38a3.242,3.242,0,0,0-3.242-3.242" transform="translate(-1748.644 -654.93)" fill="#ff8752"/>
        <path id="Trazado_117213" data-name="Trazado 117213" d="M2356.622,835.491h0a3.242,3.242,0,0,0-3.242,3.242v21.959a3.242,3.242,0,1,0,6.483,0V838.733a3.242,3.242,0,0,0-3.241-3.242" transform="translate(-1781.562 -632.485)" fill="#ff8752"/>
        <path id="Trazado_117214" data-name="Trazado 117214" d="M2400.106,865.139h0a3.242,3.242,0,0,0-3.242,3.242v14.755a3.242,3.242,0,0,0,6.483,0V868.38a3.242,3.242,0,0,0-3.242-3.242" transform="translate(-1814.48 -654.93)" fill="#ff8752"/>
        <path id="Trazado_117215" data-name="Trazado 117215" d="M2443.591,793.983h0a3.242,3.242,0,0,0-3.242,3.242v32.044a3.242,3.242,0,0,0,6.484,0V797.225a3.242,3.242,0,0,0-3.242-3.242" transform="translate(-1847.399 -601.063)" fill="#ff8752"/>
        <path id="Trazado_117216" data-name="Trazado 117216" d="M2487.075,805.843h0a3.242,3.242,0,0,0-3.242,3.242v29.163a3.242,3.242,0,0,0,6.484,0V809.085a3.242,3.242,0,0,0-3.242-3.242" transform="translate(-1880.318 -610.041)" fill="#ff8752"/>
        <path id="Trazado_117217" data-name="Trazado 117217" d="M883.458,861.676H845.883l4.508,21.907c0,1.954,6.308,3.538,14.09,3.538s14.09-1.584,14.09-3.538l4.888-21.907" transform="translate(-640.352 -652.308)" fill="#eadfd9"/>
        <path id="Trazado_117218" data-name="Trazado 117218" d="M883.458,850.654c0,1.954-8.412,3.538-18.788,3.538s-18.788-1.584-18.788-3.538,8.412-3.538,18.788-3.538,18.788,1.584,18.788,3.538" transform="translate(-640.352 -641.286)" fill="#dbc3b2"/>
        <path id="Trazado_117219" data-name="Trazado 117219" d="M858.177,645.634c-.252-1.351-1.323-5.984-4.911-7.705-4.711-2.261-11.036,1.585-13.749,4.031a53.983,53.983,0,0,0-13.364,18.63c-.129-5-.319-10.227-2.792-14.573s-8.017-7.383-12.581-5.341c-5.334,2.386-6.126,9.559-5.691,15.386a115.533,115.533,0,0,0,2.1,14.9,15.022,15.022,0,0,0-16.976-10.594c-2.471.469-4.953,1.71-6.161,3.915a8.152,8.152,0,0,0-.181,6.638c3.238,8.845,14.341,13.546,21.968,17.849,2.884,1.627,5.327,2.887,7.018,3.733l2.919-.027,3.661-.034,3.941-.036a200.642,200.642,0,0,0,19.649-19.255c15.691-17.659,15.788-24.125,15.154-27.521" transform="translate(-592.94 -482.407)" fill="#ffc848"/>
        <path id="Trazado_117220" data-name="Trazado 117220" d="M873.765,691.588c-6.187,6.673-12.567,14.157-18.914,22.508q-5.254,6.912-9.729,13.564c-.012-3.815-.158-7.85-.484-12.079a164.113,164.113,0,0,0-3.207-21.99,152.184,152.184,0,0,1,1.743,22.718c.008,4.635-.2,9-.543,13.077-3.852-4.52-8.272-9.293-13.314-14.148-5.893-5.674-5.84-4.784-11.215-8.893-.247-.189,1.6.844,10.969,11.239,5.853,6.494,10.24,12.184,13.068,16.034l3.66-.034c2.434-4.535,6.2-11.211,11.293-18.991,9.195-14.038,16.891-23.24,16.673-23" transform="translate(-619.305 -523.544)" fill="#d7f0ff"/>
      </g>
    </g>
  </g>
</svg>
