<svg xmlns="http://www.w3.org/2000/svg" xmlns:xlink="http://www.w3.org/1999/xlink" width="587.468" height="453.138" viewBox="0 0 587.468 453.138">
  <defs>
    <clipPath id="clip-path">
      <rect id="Rectángulo_36924" data-name="Rectángulo 36924" width="587.468" height="453.137" fill="none"/>
    </clipPath>
    <clipPath id="clip-path-2">
      <rect id="Rectángulo_36923" data-name="Rectángulo 36923" width="587.469" height="453.136" fill="none"/>
    </clipPath>
    <clipPath id="clip-path-3">
      <rect id="Rectángulo_36922" data-name="Rectángulo 36922" width="44.202" height="87.947" fill="none"/>
    </clipPath>
  </defs>
  <g id="Grupo_141721" data-name="Grupo 141721" transform="translate(-810 -3760.432)">
    <g id="Grupo_141425" data-name="Grupo 141425" transform="translate(810 3760.432)">
      <g id="Grupo_141424" data-name="Grupo 141424" clip-path="url(#clip-path)">
        <g id="Grupo_141423" data-name="Grupo 141423" transform="translate(0 0.002)">
          <g id="Grupo_141422" data-name="Grupo 141422" clip-path="url(#clip-path-2)">
            <path id="Trazado_117224" data-name="Trazado 117224" d="M625.452,671.945H174.3a11.76,11.76,0,0,1-11.726-11.725V361.458A11.76,11.76,0,0,1,174.3,349.733H625.452a11.76,11.76,0,0,1,11.726,11.725V660.219a11.76,11.76,0,0,1-11.726,11.725" transform="translate(-106.14 -228.336)" fill="#2b478b"/>
            <rect id="Rectángulo_36787" data-name="Rectángulo 36787" width="453.197" height="307.678" transform="translate(67.136 132.654)" fill="#dde7fe"/>
            <path id="Trazado_117225" data-name="Trazado 117225" d="M579.039,1262.534H8.431A8.431,8.431,0,0,1,0,1254.1v-3.766a8.431,8.431,0,0,1,8.431-8.431H579.039a8.431,8.431,0,0,1,8.431,8.431v3.766a8.431,8.431,0,0,1-8.431,8.431" transform="translate(0 -810.821)" fill="#2b478b"/>
            <path id="Trazado_117360" data-name="Trazado 117360" d="M0,0H453.2V299.5H0Z" transform="translate(67.136 132.654)" fill="#f6f6f6"/>
            <rect id="Rectángulo_36789" data-name="Rectángulo 36789" width="293.095" height="312.121" transform="translate(173.904 97.746)" fill="#cfdeff"/>
            <path id="Trazado_117226" data-name="Trazado 117226" d="M1000.908,1022.568H945.062a.086.086,0,0,1-.086-.086v-3.452a.086.086,0,0,1,.086-.086h55.846a.086.086,0,0,1,.086.086v3.451a.086.086,0,0,1-.086.086" transform="translate(-616.958 -665.253)" fill="#2b478b"/>
            <path id="Trazado_117227" data-name="Trazado 117227" d="M1014.789,998.833h-69.73a.082.082,0,0,1-.082-.082v-3.46a.082.082,0,0,1,.082-.082h69.73a.082.082,0,0,1,.082.082v3.46a.082.082,0,0,1-.082.082" transform="translate(-616.959 -649.756)" fill="#2b478b"/>
            <rect id="Rectángulo_36790" data-name="Rectángulo 36790" width="242.246" height="170.436" transform="translate(199.329 150.453)" fill="#aec3ff"/>
            <rect id="Rectángulo_36791" data-name="Rectángulo 36791" width="0.389" height="180.056" transform="translate(256.134 140.834)" fill="#1f1f89"/>
            <rect id="Rectángulo_36792" data-name="Rectángulo 36792" width="0.389" height="180.056" transform="translate(407.827 140.834)" fill="#1f1f89"/>
            <rect id="Rectángulo_36793" data-name="Rectángulo 36793" width="0.389" height="180.056" transform="translate(281.894 140.834)" fill="#1f1f89"/>
            <rect id="Rectángulo_36794" data-name="Rectángulo 36794" width="242.246" height="0.389" transform="translate(199.329 289)" fill="#1f1f89"/>
            <rect id="Rectángulo_36795" data-name="Rectángulo 36795" width="242.246" height="0.389" transform="translate(199.329 253.331)" fill="#1f1f89"/>
            <rect id="Rectángulo_36796" data-name="Rectángulo 36796" width="242.246" height="0.389" transform="translate(199.329 217.661)" fill="#1f1f89"/>
            <rect id="Rectángulo_36797" data-name="Rectángulo 36797" width="242.246" height="0.389" transform="translate(199.329 181.991)" fill="#1f1f89"/>
            <rect id="Rectángulo_36798" data-name="Rectángulo 36798" width="242.246" height="34.586" transform="translate(199.329 119.631)" fill="#f78248"/>
            <path id="Trazado_117228" data-name="Trazado 117228" d="M1159.028,1033.471c-5.461,1.671-10.789,2.544-14.979,2.215-6.386-.5-9.981-3.662-10.124-8.9-.114-4.154,1.713-7.792,5.291-10.742-.034-.284-.063-.567-.085-.852-.235-2.929.427-4.875,1.969-5.784,2.494-1.468,6.2.54,6.354.626l-.828,1.338c-.83-.456-3.3-1.46-4.659-.65-1.176.7-1.317,2.612-1.214,4.17a35.848,35.848,0,0,1,11.354-4.8,64.177,64.177,0,0,1,10.7-1.726,9.331,9.331,0,0,1,.092-.958c.113-.719.377-1.56,1.125-1.729a1.261,1.261,0,0,1,1.323.653,3.572,3.572,0,0,1,.5,1.881c1.189-.026,2.293-.006,3.272.062l.027-.059a16.759,16.759,0,0,1,.252-5.394c.415-1.793,1.1-2.7,2.052-2.788a1.263,1.263,0,0,1,1.3.76c.535,1.215-.467,4.5-1.918,7.653a.122.122,0,0,0,0,.017c1.36.217,2.283.572,2.573,1.07a1.113,1.113,0,0,1-.331,1.453,2.019,2.019,0,0,1-2.4.486,2.26,2.26,0,0,1-.879-.95,16.218,16.218,0,0,1-3.233,4.546,1.69,1.69,0,0,1-1.909.262,1.738,1.738,0,0,1-.415-.313,20.75,20.75,0,0,1-1.249,2.441c-1.715,2.844-3.648,4.308-5.588,4.22a3.25,3.25,0,0,1-2.092-.876,28.462,28.462,0,0,1-3.762,5.844,4.544,4.544,0,0,1-4.9,1.64c-3.182-.938-6.059-5.286-7.137-10.436a11.307,11.307,0,0,0-3.951,8.895c.123,4.466,3.023,6.953,8.621,7.394,14.129,1.111,38.9-11.3,40.781-20.424-1.528,7.423-13.283,15.88-25.938,19.753m-18.072-16.807c.861,5.434,3.741,9.425,6.185,10.146a2.876,2.876,0,0,0,3.136-1.136,26.388,26.388,0,0,0,3.949-6.376,9.036,9.036,0,0,1-.682-2.022,13.755,13.755,0,0,1,.008-5.935,43.1,43.1,0,0,0-7.734,2.543,25.662,25.662,0,0,0-4.862,2.78m15.083,2.541a1.889,1.889,0,0,0,1.443.928c1.241.049,2.735-1.2,4.089-3.44a19.869,19.869,0,0,0,1.692-3.61,14.485,14.485,0,0,1-.461-3.149c-1.818.138-3.8.37-5.841.719,1.064,1.956.448,5.261-.922,8.552m8.935-6.095c.255.729.485.87.487.871a14.484,14.484,0,0,0,2.916-4.19c-.778-.028-1.656-.032-2.612-.008a17.969,17.969,0,0,1-.791,3.327m-9.627-1.99a11.222,11.222,0,0,0-.21,5.793c.823-2.567.992-4.787.21-5.793m16.148-.989s.006,0,.009,0l-.009,0m-.242-7.949a9.183,9.183,0,0,0-.389,1.621,11.384,11.384,0,0,0,.389-1.621" transform="translate(-740.317 -652.905)" fill="#f77d48"/>
            <rect id="Rectángulo_36799" data-name="Rectángulo 36799" width="2.167" height="12.336" transform="translate(218.19 130.757)" fill="#ebf3fa"/>
            <path id="Trazado_117229" data-name="Trazado 117229" d="M644.313,376.7h2.009l6.608,8.529V376.7h2.132v12.336h-1.815l-6.8-8.776v8.776h-2.132Z" transform="translate(-420.66 -245.941)" fill="#ebf3fa"/>
            <path id="Trazado_117230" data-name="Trazado 117230" d="M681.373,376.7h2.4l3.718,9.481,3.7-9.481h2.344L688.4,389.121h-1.9Z" transform="translate(-444.857 -245.941)" fill="#ebf3fa"/>
            <path id="Trazado_117231" data-name="Trazado 117231" d="M718.738,382.467a6.45,6.45,0,1,1,6.432,6.379,6.321,6.321,0,0,1-6.432-6.379m10.626,0a4.227,4.227,0,0,0-4.194-4.388,4.177,4.177,0,0,0-4.159,4.388,4.227,4.227,0,0,0,4.194,4.388,4.177,4.177,0,0,0,4.159-4.388" transform="translate(-469.252 -245.543)" fill="#ebf3fa"/>
            <rect id="Rectángulo_36800" data-name="Rectángulo 36800" width="2.168" height="12.336" transform="translate(265.135 130.757)" fill="#ebf3fa"/>
            <path id="Trazado_117232" data-name="Trazado 117232" d="M777.983,382.467a6.242,6.242,0,0,1,6.362-6.379,6.43,6.43,0,0,1,4.828,1.921l-1.392,1.6a4.906,4.906,0,0,0-3.454-1.533,4.4,4.4,0,0,0,0,8.776,4.835,4.835,0,0,0,3.542-1.6l1.392,1.41a6.365,6.365,0,0,1-5,2.185,6.212,6.212,0,0,1-6.273-6.379" transform="translate(-507.932 -245.543)" fill="#ebf3fa"/>
            <path id="Trazado_117233" data-name="Trazado 117233" d="M817.023,376.7h9.146v1.938h-6.979v3.207h6.185v1.938h-6.185v3.313h7.067v1.938h-9.234Z" transform="translate(-533.42 -245.941)" fill="#ebf3fa"/>
            <path id="Trazado_117234" data-name="Trazado 117234" d="M196.129,1019.726l-123.812-.77a9.993,9.993,0,0,1-9.931-10.055L63.2,878.77a9.993,9.993,0,0,1,10.055-9.931l123.812.77a9.994,9.994,0,0,1,9.931,10.056l-.809,130.131a9.993,9.993,0,0,1-10.056,9.931" transform="translate(-40.731 -567.251)" fill="#f77d48"/>
            <path id="Trazado_117235" data-name="Trazado 117235" d="M210.96,922.964l-118.617-.738a4.395,4.395,0,0,1-4.367-4.422l.094-15.061a4.395,4.395,0,0,1,4.422-4.367l118.617.738a4.4,4.4,0,0,1,4.367,4.422l-.094,15.062a4.4,4.4,0,0,1-4.422,4.367" transform="translate(-57.438 -586.536)" fill="#aec3ff"/>
            <path id="Trazado_117236" data-name="Trazado 117236" d="M187.194,1099.789l-10.155-.064a4.6,4.6,0,0,1-4.566-4.623l.063-10.155a4.6,4.6,0,0,1,4.623-4.566l10.155.063a4.6,4.6,0,0,1,4.566,4.623l-.063,10.155a4.6,4.6,0,0,1-4.623,4.566" transform="translate(-112.604 -705.364)" fill="#2b478b"/>
            <path id="Trazado_117237" data-name="Trazado 117237" d="M186.769,1168.176l-10.155-.063a4.594,4.594,0,0,1-4.566-4.623l.063-10.155a4.6,4.6,0,0,1,4.623-4.566l10.155.063a4.594,4.594,0,0,1,4.566,4.623l-.063,10.155a4.6,4.6,0,0,1-4.623,4.566" transform="translate(-112.327 -750.012)" fill="#2b478b"/>
            <path id="Trazado_117238" data-name="Trazado 117238" d="M186.344,1236.562l-10.155-.063a4.594,4.594,0,0,1-4.566-4.623l.063-10.155a4.6,4.6,0,0,1,4.623-4.566l10.155.063a4.6,4.6,0,0,1,4.566,4.624L190.967,1232a4.594,4.594,0,0,1-4.623,4.566" transform="translate(-112.05 -794.661)" fill="#2b478b"/>
            <path id="Trazado_117239" data-name="Trazado 117239" d="M260.841,1100.247l-10.155-.063a4.6,4.6,0,0,1-4.566-4.623l.063-10.155a4.594,4.594,0,0,1,4.623-4.566l10.155.063a4.594,4.594,0,0,1,4.566,4.623l-.063,10.155a4.6,4.6,0,0,1-4.623,4.566" transform="translate(-160.687 -705.663)" fill="#2b478b"/>
            <path id="Trazado_117240" data-name="Trazado 117240" d="M260.415,1168.634l-10.155-.064a4.594,4.594,0,0,1-4.566-4.623l.063-10.155a4.6,4.6,0,0,1,4.623-4.566l10.155.063a4.6,4.6,0,0,1,4.566,4.623l-.063,10.155a4.6,4.6,0,0,1-4.623,4.566" transform="translate(-160.409 -750.312)" fill="#2b478b"/>
            <path id="Trazado_117241" data-name="Trazado 117241" d="M259.991,1237.02l-10.155-.063a4.594,4.594,0,0,1-4.566-4.623l.063-10.155a4.6,4.6,0,0,1,4.623-4.566l10.155.063a4.594,4.594,0,0,1,4.566,4.623l-.063,10.155a4.594,4.594,0,0,1-4.623,4.566" transform="translate(-160.132 -794.96)" fill="#2b478b"/>
            <path id="Trazado_117242" data-name="Trazado 117242" d="M331.432,1169.075l-10.155-.063a4.6,4.6,0,0,1-4.566-4.623l.063-10.155a4.6,4.6,0,0,1,4.623-4.566l10.155.063a4.594,4.594,0,0,1,4.566,4.623l-.063,10.155a4.6,4.6,0,0,1-4.623,4.566" transform="translate(-206.775 -750.6)" fill="#2b478b"/>
            <path id="Trazado_117243" data-name="Trazado 117243" d="M331.007,1237.461l-10.155-.063a4.594,4.594,0,0,1-4.566-4.623l.063-10.155a4.6,4.6,0,0,1,4.623-4.566l10.155.063a4.594,4.594,0,0,1,4.566,4.623l-.063,10.155a4.6,4.6,0,0,1-4.623,4.566" transform="translate(-206.497 -795.248)" fill="#2b478b"/>
            <path id="Trazado_117244" data-name="Trazado 117244" d="M117.334,1026.833l-10.155-.063a4.6,4.6,0,0,1-4.566-4.623l.037-6.023a4.6,4.6,0,0,1,4.623-4.566l10.155.063a4.6,4.6,0,0,1,4.566,4.623l-.037,6.023a4.6,4.6,0,0,1-4.623,4.566" transform="translate(-66.994 -660.43)" fill="#f99746"/>
            <path id="Trazado_117245" data-name="Trazado 117245" d="M116.888,1098.537l-10.155-.063a4.594,4.594,0,0,1-4.566-4.623l.037-6.023a4.6,4.6,0,0,1,4.623-4.566l10.155.063a4.6,4.6,0,0,1,4.566,4.623l-.037,6.023a4.6,4.6,0,0,1-4.623,4.566" transform="translate(-66.703 -707.245)" fill="#f99746"/>
            <path id="Trazado_117246" data-name="Trazado 117246" d="M116.442,1170.242l-10.155-.063a4.6,4.6,0,0,1-4.566-4.623l.037-6.023a4.6,4.6,0,0,1,4.623-4.566l10.155.063a4.6,4.6,0,0,1,4.566,4.623l-.037,6.023a4.6,4.6,0,0,1-4.623,4.566" transform="translate(-66.412 -754.059)" fill="#f99746"/>
            <path id="Trazado_117247" data-name="Trazado 117247" d="M116,1241.946l-10.156-.064a4.594,4.594,0,0,1-4.566-4.623l.037-6.023a4.6,4.6,0,0,1,4.623-4.566l10.155.063a4.594,4.594,0,0,1,4.566,4.623l-.037,6.023a4.594,4.594,0,0,1-4.623,4.566" transform="translate(-66.121 -800.874)" fill="#f99746"/>
            <path id="Trazado_117248" data-name="Trazado 117248" d="M187.619,1031.4l-10.155-.063a4.6,4.6,0,0,1-4.566-4.623l.063-10.155a4.6,4.6,0,0,1,4.623-4.566l10.155.063a4.6,4.6,0,0,1,4.566,4.624l-.063,10.155a4.6,4.6,0,0,1-4.623,4.566" transform="translate(-112.882 -660.716)" fill="#f99746"/>
            <path id="Trazado_117249" data-name="Trazado 117249" d="M261.266,1031.861l-10.155-.063a4.6,4.6,0,0,1-4.566-4.623l.063-10.155a4.6,4.6,0,0,1,4.623-4.566l10.155.063a4.6,4.6,0,0,1,4.566,4.623l-.063,10.155a4.6,4.6,0,0,1-4.623,4.566" transform="translate(-160.965 -661.015)" fill="#f99746"/>
            <path id="Trazado_117250" data-name="Trazado 117250" d="M332.283,1032.3l-10.155-.063a4.6,4.6,0,0,1-4.566-4.623l.063-10.155a4.6,4.6,0,0,1,4.623-4.566l10.155.063a4.6,4.6,0,0,1,4.566,4.623l-.063,10.155a4.594,4.594,0,0,1-4.623,4.566" transform="translate(-207.331 -661.303)" fill="#f99746"/>
            <path id="Trazado_117251" data-name="Trazado 117251" d="M398.6,1101.433l-10.155-.064a4.594,4.594,0,0,1-4.566-4.623l.063-10.155a4.6,4.6,0,0,1,4.623-4.566l10.155.063a4.6,4.6,0,0,1,4.566,4.623l-.063,10.155a4.6,4.6,0,0,1-4.623,4.566" transform="translate(-250.626 -706.438)" fill="#f99746"/>
            <path id="Trazado_117252" data-name="Trazado 117252" d="M399.023,1033.046l-10.155-.063a4.6,4.6,0,0,1-4.566-4.623l.063-10.155a4.6,4.6,0,0,1,4.623-4.566l10.155.063a4.594,4.594,0,0,1,4.566,4.623l-.063,10.155a4.6,4.6,0,0,1-4.623,4.566" transform="translate(-250.904 -661.789)" fill="#f99746"/>
            <path id="Trazado_117253" data-name="Trazado 117253" d="M397.747,1193.557l-10.155-.063a4.6,4.6,0,0,1-4.566-4.623l.211-33.894a4.6,4.6,0,0,1,4.623-4.566l10.155.063a4.594,4.594,0,0,1,4.566,4.623l-.211,33.894a4.6,4.6,0,0,1-4.623,4.566" transform="translate(-250.071 -751.085)" fill="#f99746"/>
            <path id="Trazado_117254" data-name="Trazado 117254" d="M207.785,924.4l.02-3.254.472-1.236a1,1,0,0,1,.77.78l-.027,4.338-.312.308Zm.922,1.245.308.312-.027,4.338a1,1,0,0,1-.78.77l-.457-1.242.02-3.254Z" transform="translate(-135.637 -600.596)" fill="#2b478b"/>
            <path id="Trazado_117255" data-name="Trazado 117255" d="M221.086,921.544l-.018,2.943-.936.924-.308-.312.025-4.028Zm-1.292,8.513.025-4.028.312-.307.924.935-.018,2.944Zm5.415,1.118-4.647-.029a1,1,0,0,1-.77-.78l1.243-.457,3.718.023Zm-.4-9.917-3.7-.023-1.236-.472a.994.994,0,0,1,.78-.77l4.632.029Zm.289,3.255.02-3.253.472-1.236a1,1,0,0,1,.77.78l-.027,4.338-.312.307Zm.922,1.245.308.312-.027,4.337a1,1,0,0,1-.78.77l-.457-1.242.02-3.253Z" transform="translate(-143.498 -600.648)" fill="#2b478b"/>
            <path id="Trazado_117256" data-name="Trazado 117256" d="M248.31,921.713l-.018,2.944-.935.923-.308-.312.025-4.028Zm-1.293,8.513.025-4.028.312-.308.924.935-.018,2.944Zm5.415,1.118-4.647-.029a.994.994,0,0,1-.77-.78l1.243-.456,3.718.023Zm-.4-9.917-3.7-.023-1.236-.472a1,1,0,0,1,.78-.77l4.632.029Zm.29,3.256.02-3.254.472-1.236a1,1,0,0,1,.77.78l-.027,4.338-.312.307Zm.922,1.245.308.312-.027,4.338a1,1,0,0,1-.78.77l-.457-1.242.02-3.254Z" transform="translate(-161.272 -600.759)" fill="#2b478b"/>
            <path id="Trazado_117257" data-name="Trazado 117257" d="M275.534,921.882l-.018,2.944-.935.924-.308-.312.025-4.028Zm-1.293,8.513.025-4.028.312-.308.924.935-.018,2.944Zm5.415,1.118-4.647-.029a.994.994,0,0,1-.77-.779l1.243-.457,3.718.023Zm-.4-9.917-3.7-.023-1.236-.472a.994.994,0,0,1,.779-.77l4.632.028Zm.289,3.255.02-3.253.472-1.236a1,1,0,0,1,.77.78l-.027,4.338-.312.307Zm.922,1.245.308.311-.027,4.338a1,1,0,0,1-.78.77l-.457-1.242.02-3.254Z" transform="translate(-179.047 -600.87)" fill="#2b478b"/>
            <path id="Trazado_117258" data-name="Trazado 117258" d="M302.758,922.052,302.74,925l-.935.924-.308-.312.025-4.028Zm-1.293,8.513.025-4.028.311-.307.924.935-.018,2.944Zm5.415,1.118-4.647-.029a.994.994,0,0,1-.77-.78l1.243-.456,3.718.023Zm-.4-9.917-3.7-.023-1.236-.472a.994.994,0,0,1,.779-.77l4.632.029Zm.289,3.255.02-3.253.472-1.236a1,1,0,0,1,.77.78L308,925.648l-.312.308Zm.922,1.245.308.312-.027,4.337a1,1,0,0,1-.78.77l-.457-1.242.02-3.253Z" transform="translate(-196.821 -600.98)" fill="#2b478b"/>
            <path id="Trazado_117259" data-name="Trazado 117259" d="M329.982,922.221l-.018,2.944-.935.923-.308-.312.025-4.028Zm-1.293,8.513.025-4.028.311-.308.924.935-.018,2.944Zm5.415,1.118-4.647-.029a.994.994,0,0,1-.77-.78l1.243-.456,3.718.023Zm-.4-9.918-3.7-.023-1.236-.472a1,1,0,0,1,.779-.77l4.632.029Zm.29,3.256.02-3.254.472-1.236a1,1,0,0,1,.77.78l-.027,4.338-.312.308Zm.922,1.245.308.312-.027,4.338a1,1,0,0,1-.78.77l-.457-1.242.02-3.254Z" transform="translate(-214.595 -601.09)" fill="#2b478b"/>
            <path id="Trazado_117260" data-name="Trazado 117260" d="M357.206,922.39l-.018,2.944-.935.924-.308-.312.025-4.028Zm-1.293,8.513.025-4.028.312-.307.924.935-.018,2.944Zm5.415,1.118-4.647-.029a.993.993,0,0,1-.77-.779l1.243-.457,3.718.023Zm-.4-9.917-3.7-.023-1.236-.472a.994.994,0,0,1,.779-.77l4.632.028Zm.289,3.255.02-3.254.472-1.236a1,1,0,0,1,.77.78l-.027,4.338-.312.307Zm.922,1.245.308.311-.027,4.338a1,1,0,0,1-.78.77l-.457-1.242.02-3.254Z" transform="translate(-232.369 -601.202)" fill="#2b478b"/>
            <path id="Trazado_117261" data-name="Trazado 117261" d="M384.429,922.56l-.018,2.944-.935.924-.308-.312.025-4.028Zm-1.293,8.513.025-4.028.311-.308.924.935-.019,2.944Zm5.415,1.118-4.647-.029a.994.994,0,0,1-.77-.78l1.242-.456,3.718.023Zm-.4-9.917-3.7-.023-1.236-.472a.994.994,0,0,1,.779-.77l4.632.029Zm.289,3.255.02-3.253.472-1.236a1,1,0,0,1,.77.78l-.027,4.338-.311.307Zm.922,1.245.308.312-.027,4.338a1,1,0,0,1-.78.77l-.457-1.242.021-3.253Z" transform="translate(-250.142 -601.312)" fill="#2b478b"/>
            <path id="Trazado_117262" data-name="Trazado 117262" d="M411.653,922.728l-.018,2.944-.935.923-.308-.312.025-4.028Zm-1.293,8.513.025-4.028.311-.308.924.935-.018,2.944Zm5.415,1.118-4.647-.029a.994.994,0,0,1-.77-.78l1.242-.456,3.718.023Zm-.4-9.918-3.7-.023-1.236-.472a1,1,0,0,1,.779-.77l4.632.029Zm.289,3.256.02-3.254.472-1.236a1,1,0,0,1,.77.78l-.027,4.338-.312.308Zm.922,1.245.308.312-.027,4.338a1,1,0,0,1-.779.77l-.457-1.242.02-3.254Z" transform="translate(-267.916 -601.422)" fill="#2b478b"/>
            <path id="Trazado_117263" data-name="Trazado 117263" d="M613.219,1278.291v5.039a1.717,1.717,0,0,1-.4,1.083,2.3,2.3,0,0,1-1.083.725,2.271,2.271,0,0,1-.424.1,2.644,2.644,0,0,1-.409.03H515.346a2.237,2.237,0,0,1-2.29-1.651,1.9,1.9,0,0,1-.021-.191c0-.033,0-.066,0-.1v-5.039c0-.033,0-.065,0-.1a1.906,1.906,0,0,1,.021-.191,2.237,2.237,0,0,1,2.29-1.651h95.559a2.644,2.644,0,0,1,.409.03,2.48,2.48,0,0,1,.424.1,2.3,2.3,0,0,1,1.083.726,1.717,1.717,0,0,1,.4,1.083" transform="translate(-334.95 -833.309)" fill="#ffb93e"/>
            <path id="Trazado_117264" data-name="Trazado 117264" d="M566.3,1285.271H515.1a2.05,2.05,0,0,1-1.986-1.437,1.731,1.731,0,0,1-.056-.214c-.009-.063-.018-.125-.021-.191,0-.032,0-.065,0-.1v-5.039c0-.033,0-.066,0-.1,0-.066.012-.128.021-.191a1.741,1.741,0,0,1,.056-.214,2.05,2.05,0,0,1,1.986-1.437h44.909a15.63,15.63,0,0,0,6.287,8.92" transform="translate(-334.95 -833.309)" fill="#ffa412"/>
            <rect id="Rectángulo_36801" data-name="Rectángulo 36801" width="1.086" height="8.921" transform="translate(265.554 443.042)" fill="#ffa412"/>
            <rect id="Rectángulo_36802" data-name="Rectángulo 36802" width="1.086" height="8.921" transform="translate(261.878 443.042)" fill="#ffa412"/>
            <rect id="Rectángulo_36803" data-name="Rectángulo 36803" width="1.086" height="8.921" transform="translate(257.469 443.042)" fill="#ffa412"/>
            <rect id="Rectángulo_36804" data-name="Rectángulo 36804" width="1.086" height="8.921" transform="translate(250.711 443.042)" fill="#ffa412"/>
            <rect id="Rectángulo_36805" data-name="Rectángulo 36805" width="1.086" height="8.921" transform="translate(243.566 443.042)" fill="#ffa412"/>
            <rect id="Rectángulo_36806" data-name="Rectángulo 36806" width="1.086" height="8.921" transform="translate(232.611 443.042)" fill="#ffa412"/>
            <rect id="Rectángulo_36807" data-name="Rectángulo 36807" width="1.086" height="8.921" transform="translate(222.354 443.042)" fill="#ffa412"/>
            <rect id="Rectángulo_36808" data-name="Rectángulo 36808" width="1.086" height="8.921" transform="translate(213.194 443.042)" fill="#ffa412"/>
            <rect id="Rectángulo_36809" data-name="Rectángulo 36809" width="1.086" height="8.921" transform="translate(269.054 443.042)" fill="#ffa412"/>
            <rect id="Rectángulo_36810" data-name="Rectángulo 36810" width="1.086" height="8.921" transform="translate(271.366 443.042)" fill="#ffa412"/>
            <rect id="Rectángulo_36811" data-name="Rectángulo 36811" width="1.086" height="8.921" transform="translate(273.598 443.042)" fill="#ffa412"/>
            <path id="Trazado_117265" data-name="Trazado 117265" d="M794.125,1276.38v8.859a2.681,2.681,0,0,1-.408.031h-.679v-8.921h.679a2.666,2.666,0,0,1,.408.031" transform="translate(-517.761 -833.308)" fill="#ffa412"/>
            <path id="Trazado_117266" data-name="Trazado 117266" d="M798.473,1277.453v7.206a2.309,2.309,0,0,1-1.085.727v-8.66a2.307,2.307,0,0,1,1.085.727" transform="translate(-520.601 -833.554)" fill="#ffa412"/>
            <path id="Trazado_117267" data-name="Trazado 117267" d="M583.788,1252.588v5.036a1.734,1.734,0,0,1-.394,1.087,2.234,2.234,0,0,1-.218.23,2.4,2.4,0,0,1-.869.5,2.459,2.459,0,0,1-.424.1,2.654,2.654,0,0,1-.406.033H485.915a2.238,2.238,0,0,1-2.286-1.654c-.009-.063-.018-.126-.021-.188,0-.033,0-.066,0-.1v-5.036c0-.033,0-.069,0-.1,0-.063.012-.125.021-.188a2.238,2.238,0,0,1,2.286-1.654h95.562a1.745,1.745,0,0,1,.182.009.542.542,0,0,1,.066.005.011.011,0,0,1,.012,0,.423.423,0,0,1,.086.01l.06.009a2.459,2.459,0,0,1,.424.1c.081.027.158.057.233.09h0l.15.072.083.048a.666.666,0,0,1,.078.048,1.751,1.751,0,0,1,.28.206c.03.024.054.051.081.075s.032.03.047.045a.2.2,0,0,1,.024.027l.021.021a.907.907,0,0,1,.086.1,1.725,1.725,0,0,1,.394,1.084" transform="translate(-315.737 -816.526)" fill="#ffb93e"/>
            <path id="Trazado_117268" data-name="Trazado 117268" d="M536.863,1259.568h-51.2a2.048,2.048,0,0,1-1.983-1.441,1.682,1.682,0,0,1-.056-.213c-.009-.062-.018-.125-.021-.188,0-.033,0-.066,0-.1v-5.036c0-.033,0-.069,0-.1,0-.063.012-.126.021-.188a1.666,1.666,0,0,1,.056-.213,2.048,2.048,0,0,1,1.983-1.441h44.909c.018.075.039.146.062.221a15.6,15.6,0,0,0,6.224,8.7" transform="translate(-315.737 -816.526)" fill="#ffa412"/>
            <rect id="Rectángulo_36812" data-name="Rectángulo 36812" width="1.086" height="8.921" transform="translate(255.337 434.12)" fill="#ffa412"/>
            <rect id="Rectángulo_36813" data-name="Rectángulo 36813" width="1.086" height="8.921" transform="translate(251.661 434.12)" fill="#ffa412"/>
            <rect id="Rectángulo_36814" data-name="Rectángulo 36814" width="1.086" height="8.921" transform="translate(247.252 434.12)" fill="#ffa412"/>
            <rect id="Rectángulo_36815" data-name="Rectángulo 36815" width="1.086" height="8.921" transform="translate(240.494 434.12)" fill="#ffa412"/>
            <rect id="Rectángulo_36816" data-name="Rectángulo 36816" width="1.086" height="8.921" transform="translate(233.349 434.12)" fill="#ffa412"/>
            <rect id="Rectángulo_36817" data-name="Rectángulo 36817" width="1.086" height="8.921" transform="translate(222.394 434.12)" fill="#ffa412"/>
            <rect id="Rectángulo_36818" data-name="Rectángulo 36818" width="1.086" height="8.921" transform="translate(212.137 434.12)" fill="#ffa412"/>
            <rect id="Rectángulo_36819" data-name="Rectángulo 36819" width="1.086" height="8.921" transform="translate(202.977 434.12)" fill="#ffa412"/>
            <rect id="Rectángulo_36820" data-name="Rectángulo 36820" width="1.086" height="8.921" transform="translate(258.837 434.12)" fill="#ffa412"/>
            <rect id="Rectángulo_36821" data-name="Rectángulo 36821" width="1.086" height="8.921" transform="translate(261.149 434.12)" fill="#ffa412"/>
            <rect id="Rectángulo_36822" data-name="Rectángulo 36822" width="1.086" height="8.921" transform="translate(263.381 434.12)" fill="#ffa412"/>
            <path id="Trazado_117269" data-name="Trazado 117269" d="M764.691,1250.679v8.858a2.618,2.618,0,0,1-.408.031H763.6v-8.921h.678a2.618,2.618,0,0,1,.408.031" transform="translate(-498.544 -816.528)" fill="#ffa412"/>
            <path id="Trazado_117270" data-name="Trazado 117270" d="M769.038,1251.751v7.206a2.3,2.3,0,0,1-1.085.727v-8.66a2.3,2.3,0,0,1,1.085.727" transform="translate(-501.383 -816.774)" fill="#ffa412"/>
            <path id="Trazado_117271" data-name="Trazado 117271" d="M598.011,1227.525v5.039a1.719,1.719,0,0,1-.4,1.084,2.288,2.288,0,0,1-1.084.725,2.655,2.655,0,0,1-.423.1,3,3,0,0,1-.406.03H500.139a2.657,2.657,0,0,1-1.066-.221,2.017,2.017,0,0,1-1.218-1.409c-.009-.042-.012-.084-.018-.125a.75.75,0,0,1-.006-.087c0-.033,0-.066,0-.1v-5.039c0-.033,0-.066,0-.1a1.29,1.29,0,0,1,.021-.188,2.235,2.235,0,0,1,2.287-1.654H595.7a2.608,2.608,0,0,1,.406.03,2.422,2.422,0,0,1,.423.1,2.317,2.317,0,0,1,1.084.729,1.718,1.718,0,0,1,.4,1.084" transform="translate(-325.023 -800.165)" fill="#ffb93e"/>
            <path id="Trazado_117272" data-name="Trazado 117272" d="M551.088,1234.506h-51.2a2.132,2.132,0,0,1-.949-.221,1.957,1.957,0,0,1-1.087-1.409c-.009-.042-.012-.084-.018-.126a.754.754,0,0,1-.006-.087c0-.032,0-.065,0-.1v-5.039c0-.033,0-.066,0-.1a1.245,1.245,0,0,1,.021-.188,1.609,1.609,0,0,1,.053-.208,2.042,2.042,0,0,1,1.985-1.446H544.8a15.661,15.661,0,0,0,5.974,8.7c.1.075.206.15.313.221" transform="translate(-325.024 -800.166)" fill="#ffa412"/>
            <rect id="Rectángulo_36823" data-name="Rectángulo 36823" width="1.086" height="8.921" transform="translate(260.274 425.419)" fill="#ffa412"/>
            <rect id="Rectángulo_36824" data-name="Rectángulo 36824" width="1.086" height="8.921" transform="translate(256.599 425.419)" fill="#ffa412"/>
            <rect id="Rectángulo_36825" data-name="Rectángulo 36825" width="1.086" height="8.921" transform="translate(252.189 425.419)" fill="#ffa412"/>
            <rect id="Rectángulo_36826" data-name="Rectángulo 36826" width="1.086" height="8.921" transform="translate(245.432 425.419)" fill="#ffa412"/>
            <rect id="Rectángulo_36827" data-name="Rectángulo 36827" width="1.086" height="8.921" transform="translate(238.286 425.419)" fill="#ffa412"/>
            <rect id="Rectángulo_36828" data-name="Rectángulo 36828" width="1.086" height="8.921" transform="translate(227.331 425.419)" fill="#ffa412"/>
            <rect id="Rectángulo_36829" data-name="Rectángulo 36829" width="1.086" height="8.921" transform="translate(217.074 425.419)" fill="#ffa412"/>
            <rect id="Rectángulo_36830" data-name="Rectángulo 36830" width="1.086" height="8.921" transform="translate(207.915 425.419)" fill="#ffa412"/>
            <rect id="Rectángulo_36831" data-name="Rectángulo 36831" width="1.086" height="8.921" transform="translate(263.774 425.419)" fill="#ffa412"/>
            <rect id="Rectángulo_36832" data-name="Rectángulo 36832" width="1.086" height="8.921" transform="translate(266.086 425.419)" fill="#ffa412"/>
            <rect id="Rectángulo_36833" data-name="Rectángulo 36833" width="1.086" height="8.921" transform="translate(268.319 425.419)" fill="#ffa412"/>
            <path id="Trazado_117273" data-name="Trazado 117273" d="M778.915,1225.612v8.859a2.7,2.7,0,0,1-.408.031h-.679v-8.921h.679a2.667,2.667,0,0,1,.408.031" transform="translate(-507.831 -800.162)" fill="#ffa412"/>
            <path id="Trazado_117274" data-name="Trazado 117274" d="M783.263,1226.685v7.206a2.3,2.3,0,0,1-1.085.727v-8.66a2.3,2.3,0,0,1,1.085.727" transform="translate(-510.67 -800.408)" fill="#ffa412"/>
            <path id="Trazado_117275" data-name="Trazado 117275" d="M604.608,1201.823v5.036a1.71,1.71,0,0,1-.4,1.083c-.032.042-.068.081-.1.12a2.236,2.236,0,0,1-.66.48,2.776,2.776,0,0,1-.319.129,2.533,2.533,0,0,1-.424.1c-.066.009-.131.018-.2.024s-.14.009-.209.009H506.735a2.239,2.239,0,0,1-2.29-1.654c-.009-.063-.018-.125-.021-.188v-5.239a2.132,2.132,0,0,1,2.036-1.827c.09-.009.182-.015.275-.015h95.559c.068,0,.14,0,.209.009s.135.012.2.024a2.534,2.534,0,0,1,.424.1,2.3,2.3,0,0,1,1.083.726,1.718,1.718,0,0,1,.4,1.086" transform="translate(-329.33 -783.382)" fill="#ffb93e"/>
            <path id="Trazado_117276" data-name="Trazado 117276" d="M557.684,1208.8h-51.2a2.052,2.052,0,0,1-1.986-1.44,1.653,1.653,0,0,1-.056-.214c-.009-.062-.018-.125-.021-.188v-5.239a2.008,2.008,0,0,1,1.818-1.827,2.275,2.275,0,0,1,.245-.015H551.4c0,.006,0,.009,0,.015a15.648,15.648,0,0,0,6.284,8.908" transform="translate(-329.33 -783.382)" fill="#ffa412"/>
            <rect id="Rectángulo_36834" data-name="Rectángulo 36834" width="1.086" height="8.921" transform="translate(262.564 416.498)" fill="#ffa412"/>
            <rect id="Rectángulo_36835" data-name="Rectángulo 36835" width="1.086" height="8.921" transform="translate(258.887 416.498)" fill="#ffa412"/>
            <rect id="Rectángulo_36836" data-name="Rectángulo 36836" width="1.086" height="8.921" transform="translate(254.479 416.498)" fill="#ffa412"/>
            <rect id="Rectángulo_36837" data-name="Rectángulo 36837" width="1.086" height="8.921" transform="translate(247.721 416.498)" fill="#ffa412"/>
            <rect id="Rectángulo_36838" data-name="Rectángulo 36838" width="1.086" height="8.921" transform="translate(240.575 416.498)" fill="#ffa412"/>
            <rect id="Rectángulo_36839" data-name="Rectángulo 36839" width="1.086" height="8.921" transform="translate(229.62 416.498)" fill="#ffa412"/>
            <rect id="Rectángulo_36840" data-name="Rectángulo 36840" width="1.086" height="8.921" transform="translate(219.363 416.498)" fill="#ffa412"/>
            <rect id="Rectángulo_36841" data-name="Rectángulo 36841" width="1.086" height="8.921" transform="translate(210.204 416.498)" fill="#ffa412"/>
            <rect id="Rectángulo_36842" data-name="Rectángulo 36842" width="1.086" height="8.921" transform="translate(266.063 416.498)" fill="#ffa412"/>
            <rect id="Rectángulo_36843" data-name="Rectángulo 36843" width="1.086" height="8.921" transform="translate(268.375 416.498)" fill="#ffa412"/>
            <rect id="Rectángulo_36844" data-name="Rectángulo 36844" width="1.086" height="8.921" transform="translate(270.607 416.498)" fill="#ffa412"/>
            <path id="Trazado_117277" data-name="Trazado 117277" d="M785.51,1199.91v8.859a2.669,2.669,0,0,1-.408.031h-.679v-8.921h.679a2.685,2.685,0,0,1,.408.031" transform="translate(-512.137 -783.382)" fill="#ffa412"/>
            <path id="Trazado_117278" data-name="Trazado 117278" d="M789.856,1200.984v7.206a2.3,2.3,0,0,1-1.085.727v-8.66a2.3,2.3,0,0,1,1.085.727" transform="translate(-514.975 -783.629)" fill="#ffa412"/>
            <path id="Trazado_117279" data-name="Trazado 117279" d="M584.364,1176.161v5.036a1.708,1.708,0,0,1-.394,1.083,2.284,2.284,0,0,1-1.087.729,2.522,2.522,0,0,1-.421.1,1.04,1.04,0,0,1-.134.018h-.018a.594.594,0,0,1-.072.006l-.063.006-.122,0H486.495a2.185,2.185,0,0,1-2.311-1.842c0-.033,0-.066,0-.1v-5.036c0-.033,0-.069,0-.1a.7.7,0,0,1,.006-.081,2.092,2.092,0,0,1,1.734-1.7.5.5,0,0,1,.069-.015,2.751,2.751,0,0,1,.5-.048h95.559c.072,0,.137,0,.206.009l.086.009h.009c.035,0,.072.009.107.015a2.486,2.486,0,0,1,.421.1,2.279,2.279,0,0,1,1.087.728,1.708,1.708,0,0,1,.394,1.084" transform="translate(-316.113 -766.628)" fill="#ffb93e"/>
            <path id="Trazado_117280" data-name="Trazado 117280" d="M537.439,1183.14H486.246a2.021,2.021,0,0,1-2.063-1.842c0-.033,0-.066,0-.1v-5.036c0-.033,0-.068,0-.1a.7.7,0,0,1,.006-.081,1.991,1.991,0,0,1,1.6-1.711.411.411,0,0,1,.086-.018,2.134,2.134,0,0,1,.368-.033h44.906c.006.024.012.042.018.066a15.637,15.637,0,0,0,6.248,8.842c.006.006.015.009.021.015" transform="translate(-316.113 -766.628)" fill="#ffa412"/>
            <rect id="Rectángulo_36845" data-name="Rectángulo 36845" width="1.086" height="8.921" transform="translate(255.538 407.59)" fill="#ffa412"/>
            <rect id="Rectángulo_36846" data-name="Rectángulo 36846" width="1.086" height="8.921" transform="translate(251.861 407.59)" fill="#ffa412"/>
            <rect id="Rectángulo_36847" data-name="Rectángulo 36847" width="1.086" height="8.921" transform="translate(247.453 407.59)" fill="#ffa412"/>
            <rect id="Rectángulo_36848" data-name="Rectángulo 36848" width="1.086" height="8.921" transform="translate(240.696 407.59)" fill="#ffa412"/>
            <rect id="Rectángulo_36849" data-name="Rectángulo 36849" width="1.086" height="8.921" transform="translate(233.55 407.59)" fill="#ffa412"/>
            <rect id="Rectángulo_36850" data-name="Rectángulo 36850" width="1.086" height="8.921" transform="translate(222.595 407.59)" fill="#ffa412"/>
            <rect id="Rectángulo_36851" data-name="Rectángulo 36851" width="1.086" height="8.921" transform="translate(212.337 407.59)" fill="#ffa412"/>
            <rect id="Rectángulo_36852" data-name="Rectángulo 36852" width="1.086" height="8.921" transform="translate(203.178 407.59)" fill="#ffa412"/>
            <rect id="Rectángulo_36853" data-name="Rectángulo 36853" width="1.086" height="8.921" transform="translate(259.037 407.59)" fill="#ffa412"/>
            <rect id="Rectángulo_36854" data-name="Rectángulo 36854" width="1.086" height="8.921" transform="translate(261.35 407.59)" fill="#ffa412"/>
            <rect id="Rectángulo_36855" data-name="Rectángulo 36855" width="1.086" height="8.921" transform="translate(263.582 407.59)" fill="#ffa412"/>
            <path id="Trazado_117281" data-name="Trazado 117281" d="M765.269,1174.25v8.859a2.667,2.667,0,0,1-.408.031h-.679v-8.921h.679a2.667,2.667,0,0,1,.408.031" transform="translate(-498.922 -766.629)" fill="#ffa412"/>
            <path id="Trazado_117282" data-name="Trazado 117282" d="M769.617,1175.323v7.206a2.31,2.31,0,0,1-1.085.727v-8.66a2.305,2.305,0,0,1,1.085.726" transform="translate(-501.761 -766.876)" fill="#ffa412"/>
            <path id="Trazado_117283" data-name="Trazado 117283" d="M583.788,1150.645v5.036a1.725,1.725,0,0,1-.394,1.084,2.681,2.681,0,0,1-.218.233,2.393,2.393,0,0,1-.869.5,2.557,2.557,0,0,1-.328.084h-.009c-.03.006-.057.012-.086.015a2.623,2.623,0,0,1-.406.033H485.915a2.524,2.524,0,0,1-.3-.018c-.039,0-.078-.009-.114-.015a2.15,2.15,0,0,1-1.878-1.642,1.614,1.614,0,0,1-.018-.167c0-.036,0-.069,0-.1v-5.036c0-.036,0-.069,0-.1,0-.063.012-.125.021-.188a2.238,2.238,0,0,1,2.286-1.654h95.562c.06,0,.122,0,.182.006.009,0,.018,0,.024,0a.323.323,0,0,0,.054,0c.027,0,.057.006.086.012a.223.223,0,0,1,.06.009,2.459,2.459,0,0,1,.424.1q.121.04.233.09h0a2.322,2.322,0,0,1,.764.537c.03.033.06.065.086.1a1.735,1.735,0,0,1,.394,1.087" transform="translate(-315.737 -749.969)" fill="#ffb93e"/>
            <path id="Trazado_117284" data-name="Trazado 117284" d="M536.863,1157.625h-51.2c-.039,0-.081,0-.119,0l-.132-.012a2.019,2.019,0,0,1-1.791-1.66,1.548,1.548,0,0,1-.018-.168c0-.035,0-.068,0-.1v-5.036c0-.036,0-.069,0-.1,0-.063.012-.126.021-.188a1.661,1.661,0,0,1,.056-.213,2.047,2.047,0,0,1,1.983-1.441h44.909c.018.075.039.146.062.221a15.608,15.608,0,0,0,6.132,8.636c.03.024.063.042.093.066" transform="translate(-315.737 -749.969)" fill="#ffa412"/>
            <rect id="Rectángulo_36856" data-name="Rectángulo 36856" width="1.086" height="8.921" transform="translate(255.337 398.733)" fill="#ffa412"/>
            <rect id="Rectángulo_36857" data-name="Rectángulo 36857" width="1.086" height="8.921" transform="translate(251.661 398.733)" fill="#ffa412"/>
            <rect id="Rectángulo_36858" data-name="Rectángulo 36858" width="1.086" height="8.921" transform="translate(247.252 398.733)" fill="#ffa412"/>
            <rect id="Rectángulo_36859" data-name="Rectángulo 36859" width="1.086" height="8.921" transform="translate(240.494 398.733)" fill="#ffa412"/>
            <rect id="Rectángulo_36860" data-name="Rectángulo 36860" width="1.086" height="8.921" transform="translate(233.349 398.733)" fill="#ffa412"/>
            <rect id="Rectángulo_36861" data-name="Rectángulo 36861" width="1.086" height="8.921" transform="translate(222.394 398.733)" fill="#ffa412"/>
            <rect id="Rectángulo_36862" data-name="Rectángulo 36862" width="1.086" height="8.921" transform="translate(212.137 398.733)" fill="#ffa412"/>
            <rect id="Rectángulo_36863" data-name="Rectángulo 36863" width="1.086" height="8.921" transform="translate(202.977 398.733)" fill="#ffa412"/>
            <rect id="Rectángulo_36864" data-name="Rectángulo 36864" width="1.086" height="8.921" transform="translate(258.837 398.733)" fill="#ffa412"/>
            <rect id="Rectángulo_36865" data-name="Rectángulo 36865" width="1.086" height="8.921" transform="translate(261.149 398.733)" fill="#ffa412"/>
            <rect id="Rectángulo_36866" data-name="Rectángulo 36866" width="1.086" height="8.921" transform="translate(263.381 398.733)" fill="#ffa412"/>
            <path id="Trazado_117285" data-name="Trazado 117285" d="M764.691,1148.733v8.859a2.679,2.679,0,0,1-.408.031H763.6V1148.7h.678a2.679,2.679,0,0,1,.408.031" transform="translate(-498.544 -749.969)" fill="#ffa412"/>
            <path id="Trazado_117286" data-name="Trazado 117286" d="M769.038,1149.807v7.206a2.306,2.306,0,0,1-1.085.727v-8.659a2.3,2.3,0,0,1,1.085.727" transform="translate(-501.383 -750.216)" fill="#ffa412"/>
            <path id="Trazado_117287" data-name="Trazado 117287" d="M598.011,1125.575v5.036a1.721,1.721,0,0,1-.4,1.087,2.294,2.294,0,0,1-1.084.726,2.456,2.456,0,0,1-.423.1,2.622,2.622,0,0,1-.406.033H500.139a2.659,2.659,0,0,1-1.066-.221,2.018,2.018,0,0,1-1.218-1.409c-.009-.042-.012-.084-.018-.125a.8.8,0,0,1-.006-.086c0-.033,0-.066,0-.1v-5.036c0-.033,0-.068,0-.1a1.339,1.339,0,0,1,.021-.188,2.238,2.238,0,0,1,2.287-1.654H595.7a2.622,2.622,0,0,1,.406.033,2.456,2.456,0,0,1,.423.1,2.272,2.272,0,0,1,1.084.728,1.711,1.711,0,0,1,.4,1.084" transform="translate(-325.023 -733.602)" fill="#ffb93e"/>
            <path id="Trazado_117288" data-name="Trazado 117288" d="M551.088,1132.555h-51.2a2.132,2.132,0,0,1-.949-.221,1.958,1.958,0,0,1-1.087-1.409c-.009-.042-.012-.084-.018-.126a.8.8,0,0,1-.006-.086c0-.033,0-.066,0-.1v-5.036c0-.033,0-.069,0-.1a1.283,1.283,0,0,1,.021-.188,1.6,1.6,0,0,1,.053-.207,2.046,2.046,0,0,1,1.985-1.447H544.8a15.656,15.656,0,0,0,5.974,8.7c.1.075.206.146.313.221" transform="translate(-325.024 -733.602)" fill="#ffa412"/>
            <rect id="Rectángulo_36867" data-name="Rectángulo 36867" width="1.086" height="8.921" transform="translate(260.274 390.032)" fill="#ffa412"/>
            <rect id="Rectángulo_36868" data-name="Rectángulo 36868" width="1.086" height="8.921" transform="translate(256.599 390.032)" fill="#ffa412"/>
            <rect id="Rectángulo_36869" data-name="Rectángulo 36869" width="1.086" height="8.921" transform="translate(252.189 390.032)" fill="#ffa412"/>
            <rect id="Rectángulo_36870" data-name="Rectángulo 36870" width="1.086" height="8.921" transform="translate(245.432 390.032)" fill="#ffa412"/>
            <rect id="Rectángulo_36871" data-name="Rectángulo 36871" width="1.086" height="8.921" transform="translate(238.286 390.032)" fill="#ffa412"/>
            <rect id="Rectángulo_36872" data-name="Rectángulo 36872" width="1.086" height="8.921" transform="translate(227.331 390.032)" fill="#ffa412"/>
            <rect id="Rectángulo_36873" data-name="Rectángulo 36873" width="1.086" height="8.921" transform="translate(217.074 390.032)" fill="#ffa412"/>
            <rect id="Rectángulo_36874" data-name="Rectángulo 36874" width="1.086" height="8.921" transform="translate(207.915 390.032)" fill="#ffa412"/>
            <rect id="Rectángulo_36875" data-name="Rectángulo 36875" width="1.086" height="8.921" transform="translate(263.774 390.032)" fill="#ffa412"/>
            <rect id="Rectángulo_36876" data-name="Rectángulo 36876" width="1.086" height="8.921" transform="translate(266.086 390.032)" fill="#ffa412"/>
            <rect id="Rectángulo_36877" data-name="Rectángulo 36877" width="1.086" height="8.921" transform="translate(268.319 390.032)" fill="#ffa412"/>
            <path id="Trazado_117289" data-name="Trazado 117289" d="M778.915,1123.667v8.859a2.667,2.667,0,0,1-.408.031h-.679v-8.921h.679a2.666,2.666,0,0,1,.408.031" transform="translate(-507.831 -733.604)" fill="#ffa412"/>
            <path id="Trazado_117290" data-name="Trazado 117290" d="M783.263,1124.74v7.206a2.3,2.3,0,0,1-1.085.727v-8.66a2.3,2.3,0,0,1,1.085.727" transform="translate(-510.67 -733.85)" fill="#ffa412"/>
            <path id="Trazado_117291" data-name="Trazado 117291" d="M620.509,1099.876v5.039a1.724,1.724,0,0,1-.394,1.081l0,0c-.033.042-.068.08-.1.119a2.174,2.174,0,0,1-.511.4,2.373,2.373,0,0,1-.3.146s0,0,0,0c-.051.021-.1.042-.161.06a2.4,2.4,0,0,1-.424.1,2.571,2.571,0,0,1-.406.03H522.636a2.236,2.236,0,0,1-2.286-1.651,1.33,1.33,0,0,1-.021-.191c0-.033,0-.066,0-.1v-5.039c0-.033,0-.066,0-.1a2.129,2.129,0,0,1,2.036-1.827,2.037,2.037,0,0,1,.271-.015H618.2a2.994,2.994,0,0,1,.406.03,2.713,2.713,0,0,1,.424.1,2.347,2.347,0,0,1,.979.606c.036.038.071.078.1.119l0,0a1.723,1.723,0,0,1,.394,1.081" transform="translate(-339.712 -716.825)" fill="#ffb93e"/>
            <path id="Trazado_117292" data-name="Trazado 117292" d="M573.585,1106.855h-51.2a2.044,2.044,0,0,1-1.985-1.443,1.661,1.661,0,0,1-.053-.208,1.276,1.276,0,0,1-.021-.191c0-.033,0-.066,0-.1v-5.039c0-.033,0-.066,0-.1a2,2,0,0,1,1.815-1.826,1.659,1.659,0,0,1,.245-.015H567.3a.114.114,0,0,1,0,.015,15.629,15.629,0,0,0,6.284,8.9" transform="translate(-339.712 -716.825)" fill="#ffa412"/>
            <rect id="Rectángulo_36878" data-name="Rectángulo 36878" width="1.086" height="8.921" transform="translate(268.084 381.111)" fill="#ffa412"/>
            <rect id="Rectángulo_36879" data-name="Rectángulo 36879" width="1.086" height="8.921" transform="translate(264.408 381.111)" fill="#ffa412"/>
            <rect id="Rectángulo_36880" data-name="Rectángulo 36880" width="1.086" height="8.921" transform="translate(259.999 381.111)" fill="#ffa412"/>
            <rect id="Rectángulo_36881" data-name="Rectángulo 36881" width="1.086" height="8.921" transform="translate(253.242 381.111)" fill="#ffa412"/>
            <rect id="Rectángulo_36882" data-name="Rectángulo 36882" width="1.086" height="8.921" transform="translate(246.095 381.111)" fill="#ffa412"/>
            <rect id="Rectángulo_36883" data-name="Rectángulo 36883" width="1.086" height="8.921" transform="translate(235.14 381.111)" fill="#ffa412"/>
            <rect id="Rectángulo_36884" data-name="Rectángulo 36884" width="1.086" height="8.921" transform="translate(224.883 381.111)" fill="#ffa412"/>
            <rect id="Rectángulo_36885" data-name="Rectángulo 36885" width="1.086" height="8.921" transform="translate(215.724 381.111)" fill="#ffa412"/>
            <rect id="Rectángulo_36886" data-name="Rectángulo 36886" width="1.086" height="8.921" transform="translate(271.584 381.111)" fill="#ffa412"/>
            <rect id="Rectángulo_36887" data-name="Rectángulo 36887" width="1.086" height="8.921" transform="translate(273.896 381.111)" fill="#ffa412"/>
            <rect id="Rectángulo_36888" data-name="Rectángulo 36888" width="1.086" height="8.921" transform="translate(276.128 381.111)" fill="#ffa412"/>
            <path id="Trazado_117293" data-name="Trazado 117293" d="M801.413,1097.966v8.859a2.666,2.666,0,0,1-.408.031h-.679v-8.921h.679a2.666,2.666,0,0,1,.408.031" transform="translate(-522.52 -716.824)" fill="#ffa412"/>
            <path id="Trazado_117294" data-name="Trazado 117294" d="M805.761,1099.039v7.206a2.3,2.3,0,0,1-1.085.726v-8.659a2.3,2.3,0,0,1,1.085.727" transform="translate(-525.359 -717.071)" fill="#ffa412"/>
            <path id="Trazado_117295" data-name="Trazado 117295" d="M584.364,1074.216v5.036a1.708,1.708,0,0,1-.394,1.084,2.283,2.283,0,0,1-1.087.728,2.522,2.522,0,0,1-.421.1l-.134.018h-.018a.754.754,0,0,1-.09.009c-.018,0-.035,0-.054,0l-.113,0H486.495a2.43,2.43,0,0,1-1.967-.926,1.708,1.708,0,0,1-.343-.916c0-.036,0-.068,0-.1v-5.036c0-.036,0-.068,0-.1a2.051,2.051,0,0,1,1.639-1.755,2.612,2.612,0,0,1,.672-.086h95.559l.122,0a.341.341,0,0,1,.06.006,1.852,1.852,0,0,1,.227.024,2.486,2.486,0,0,1,.421.1,1.473,1.473,0,0,1,.2.075h0a2.253,2.253,0,0,1,.668.421.049.049,0,0,1,.009.012c.009.009.017.015.027.024a1.862,1.862,0,0,1,.182.194,1.716,1.716,0,0,1,.394,1.086" transform="translate(-316.113 -700.07)" fill="#ffb93e"/>
            <path id="Trazado_117296" data-name="Trazado 117296" d="M537.439,1081.2H486.246a2.1,2.1,0,0,1-1.726-.881,1.83,1.83,0,0,1-.337-.962c0-.035,0-.068,0-.1v-5.036c0-.036,0-.069,0-.1a1.991,1.991,0,0,1,1.645-1.8,2.144,2.144,0,0,1,.418-.042h44.906c.018.068.039.137.059.206a15.607,15.607,0,0,0,6.206,8.7.085.085,0,0,1,.021.015" transform="translate(-316.113 -700.071)" fill="#ffa412"/>
            <rect id="Rectángulo_36889" data-name="Rectángulo 36889" width="1.086" height="8.921" transform="translate(255.538 372.204)" fill="#ffa412"/>
            <rect id="Rectángulo_36890" data-name="Rectángulo 36890" width="1.086" height="8.921" transform="translate(251.861 372.204)" fill="#ffa412"/>
            <rect id="Rectángulo_36891" data-name="Rectángulo 36891" width="1.086" height="8.921" transform="translate(247.453 372.204)" fill="#ffa412"/>
            <rect id="Rectángulo_36892" data-name="Rectángulo 36892" width="1.086" height="8.921" transform="translate(240.696 372.204)" fill="#ffa412"/>
            <rect id="Rectángulo_36893" data-name="Rectángulo 36893" width="1.086" height="8.921" transform="translate(233.55 372.204)" fill="#ffa412"/>
            <rect id="Rectángulo_36894" data-name="Rectángulo 36894" width="1.086" height="8.921" transform="translate(222.595 372.204)" fill="#ffa412"/>
            <rect id="Rectángulo_36895" data-name="Rectángulo 36895" width="1.086" height="8.921" transform="translate(212.337 372.204)" fill="#ffa412"/>
            <rect id="Rectángulo_36896" data-name="Rectángulo 36896" width="1.086" height="8.921" transform="translate(203.178 372.204)" fill="#ffa412"/>
            <rect id="Rectángulo_36897" data-name="Rectángulo 36897" width="1.086" height="8.921" transform="translate(259.037 372.204)" fill="#ffa412"/>
            <rect id="Rectángulo_36898" data-name="Rectángulo 36898" width="1.086" height="8.921" transform="translate(261.35 372.204)" fill="#ffa412"/>
            <rect id="Rectángulo_36899" data-name="Rectángulo 36899" width="1.086" height="8.921" transform="translate(263.582 372.204)" fill="#ffa412"/>
            <path id="Trazado_117297" data-name="Trazado 117297" d="M765.269,1072.306v8.859a2.683,2.683,0,0,1-.408.031h-.679v-8.921h.679a2.667,2.667,0,0,1,.408.031" transform="translate(-498.922 -700.071)" fill="#ffa412"/>
            <path id="Trazado_117298" data-name="Trazado 117298" d="M769.617,1073.378v7.206a2.3,2.3,0,0,1-1.085.726v-8.659a2.3,2.3,0,0,1,1.085.727" transform="translate(-501.761 -700.317)" fill="#ffa412"/>
            <path id="Trazado_117299" data-name="Trazado 117299" d="M604.605,1049.109v5.038a1.715,1.715,0,0,1-.4,1.084,2.3,2.3,0,0,1-1.085.727,2.473,2.473,0,0,1-.422.1,2.719,2.719,0,0,1-.408.031h-95.56a2.642,2.642,0,0,1-1.033-.206,1.987,1.987,0,0,1-1.27-1.557c0-.026-.005-.052-.006-.079s0-.067,0-.1v-5.038c0-.033,0-.066,0-.1a2.13,2.13,0,0,1,2.036-1.828,2.514,2.514,0,0,1,.273-.014h95.56a2.719,2.719,0,0,1,.408.031,2.52,2.52,0,0,1,.422.1,2.3,2.3,0,0,1,1.085.726,1.716,1.716,0,0,1,.4,1.084" transform="translate(-329.328 -683.679)" fill="#ffb93e"/>
            <path id="Trazado_117300" data-name="Trazado 117300" d="M557.68,1056.088h-51.2a2.142,2.142,0,0,1-.922-.206,1.954,1.954,0,0,1-1.134-1.556c0-.026,0-.053-.006-.079s0-.067,0-.1v-5.038c0-.033,0-.067,0-.1a2.073,2.073,0,0,1,2.062-1.842h44.908l0,.014a15.65,15.65,0,0,0,5.989,8.7c.1.07.194.139.294.206" transform="translate(-329.328 -683.679)" fill="#ffa412"/>
            <rect id="Rectángulo_36900" data-name="Rectángulo 36900" width="1.086" height="8.921" transform="translate(262.564 363.488)" fill="#ffa412"/>
            <rect id="Rectángulo_36901" data-name="Rectángulo 36901" width="1.086" height="8.921" transform="translate(258.887 363.488)" fill="#ffa412"/>
            <rect id="Rectángulo_36902" data-name="Rectángulo 36902" width="1.086" height="8.921" transform="translate(254.479 363.488)" fill="#ffa412"/>
            <rect id="Rectángulo_36903" data-name="Rectángulo 36903" width="1.086" height="8.921" transform="translate(247.721 363.488)" fill="#ffa412"/>
            <rect id="Rectángulo_36904" data-name="Rectángulo 36904" width="1.086" height="8.921" transform="translate(240.575 363.488)" fill="#ffa412"/>
            <rect id="Rectángulo_36905" data-name="Rectángulo 36905" width="1.086" height="8.921" transform="translate(229.62 363.488)" fill="#ffa412"/>
            <rect id="Rectángulo_36906" data-name="Rectángulo 36906" width="1.086" height="8.921" transform="translate(219.363 363.488)" fill="#ffa412"/>
            <rect id="Rectángulo_36907" data-name="Rectángulo 36907" width="1.086" height="8.921" transform="translate(210.204 363.488)" fill="#ffa412"/>
            <rect id="Rectángulo_36908" data-name="Rectángulo 36908" width="1.086" height="8.921" transform="translate(266.063 363.488)" fill="#ffa412"/>
            <rect id="Rectángulo_36909" data-name="Rectángulo 36909" width="1.086" height="8.921" transform="translate(268.375 363.488)" fill="#ffa412"/>
            <rect id="Rectángulo_36910" data-name="Rectángulo 36910" width="1.086" height="8.921" transform="translate(270.607 363.488)" fill="#ffa412"/>
            <path id="Trazado_117301" data-name="Trazado 117301" d="M785.51,1047.2v8.859a2.654,2.654,0,0,1-.408.031h-.679v-8.921h.679a2.669,2.669,0,0,1,.408.031" transform="translate(-512.137 -683.679)" fill="#ffa412"/>
            <path id="Trazado_117302" data-name="Trazado 117302" d="M789.856,1048.27v7.206a2.305,2.305,0,0,1-1.085.727v-8.66a2.3,2.3,0,0,1,1.085.726" transform="translate(-514.975 -683.925)" fill="#ffa412"/>
            <path id="Trazado_117303" data-name="Trazado 117303" d="M613.221,1023.449v5.038a1.716,1.716,0,0,1-.4,1.084,2.3,2.3,0,0,1-1.085.726,2.477,2.477,0,0,1-.423.1c-.045.007-.09.013-.134.017l-.075.007-.076,0c-.041,0-.082,0-.123,0h-95.56a2.183,2.183,0,0,1-2.309-1.842c0-.033,0-.067,0-.1v-5.038c0-.033,0-.067,0-.1a2.183,2.183,0,0,1,2.309-1.842h95.56a2.733,2.733,0,0,1,.408.031,2.5,2.5,0,0,1,.423.1,2.3,2.3,0,0,1,1.085.727,1.716,1.716,0,0,1,.4,1.084" transform="translate(-334.953 -666.926)" fill="#ffb93e"/>
            <path id="Trazado_117304" data-name="Trazado 117304" d="M566.3,1030.428H515.1a2.021,2.021,0,0,1-2.062-1.842c0-.033,0-.066,0-.1v-5.038c0-.033,0-.067,0-.1a2.021,2.021,0,0,1,2.062-1.842h44.908a15.636,15.636,0,0,0,6.266,8.907l.021.014" transform="translate(-334.953 -666.926)" fill="#ffa412"/>
            <rect id="Rectángulo_36911" data-name="Rectángulo 36911" width="1.086" height="8.921" transform="translate(265.554 354.581)" fill="#ffa412"/>
            <rect id="Rectángulo_36912" data-name="Rectángulo 36912" width="1.086" height="8.921" transform="translate(261.878 354.581)" fill="#ffa412"/>
            <rect id="Rectángulo_36913" data-name="Rectángulo 36913" width="1.086" height="8.921" transform="translate(257.469 354.581)" fill="#ffa412"/>
            <rect id="Rectángulo_36914" data-name="Rectángulo 36914" width="1.086" height="8.921" transform="translate(250.712 354.581)" fill="#ffa412"/>
            <rect id="Rectángulo_36915" data-name="Rectángulo 36915" width="1.086" height="8.921" transform="translate(243.566 354.581)" fill="#ffa412"/>
            <rect id="Rectángulo_36916" data-name="Rectángulo 36916" width="1.086" height="8.921" transform="translate(232.611 354.581)" fill="#ffa412"/>
            <rect id="Rectángulo_36917" data-name="Rectángulo 36917" width="1.086" height="8.921" transform="translate(222.354 354.581)" fill="#ffa412"/>
            <rect id="Rectángulo_36918" data-name="Rectángulo 36918" width="1.086" height="8.921" transform="translate(213.194 354.581)" fill="#ffa412"/>
            <rect id="Rectángulo_36919" data-name="Rectángulo 36919" width="1.086" height="8.921" transform="translate(269.054 354.581)" fill="#ffa412"/>
            <rect id="Rectángulo_36920" data-name="Rectángulo 36920" width="1.086" height="8.921" transform="translate(271.366 354.581)" fill="#ffa412"/>
            <rect id="Rectángulo_36921" data-name="Rectángulo 36921" width="1.086" height="8.921" transform="translate(273.598 354.581)" fill="#ffa412"/>
            <path id="Trazado_117305" data-name="Trazado 117305" d="M794.126,1021.538v8.859a2.712,2.712,0,0,1-.407.031h-.679v-8.921h.679a2.664,2.664,0,0,1,.407.031" transform="translate(-517.762 -666.926)" fill="#ffa412"/>
            <path id="Trazado_117306" data-name="Trazado 117306" d="M798.473,1022.61v7.206a2.3,2.3,0,0,1-1.085.727v-8.66a2.3,2.3,0,0,1,1.085.726" transform="translate(-520.601 -667.172)" fill="#ffa412"/>
            <path id="Trazado_117307" data-name="Trazado 117307" d="M670.043,857.053s-5.019,7.066-9.621,7.164-11.6-3.275-11.6-3.275-4.225-9.416-1.359-13.1a6.153,6.153,0,0,1,5.879.966,9.009,9.009,0,0,1,1.556,1.49,4.934,4.934,0,0,0,2.415,1.638c3.283,1,7.181-1.351,8.638.917a15.419,15.419,0,0,0,2.538,3.005,11.61,11.61,0,0,0,1.556,1.2" transform="translate(-422.065 -553.311)" fill="#ffeddc"/>
            <path id="Trazado_117308" data-name="Trazado 117308" d="M525.883,939.492s17.74-42.986,49.673-43.805c0,0,29.477,3.275,31.114,43.805Z" transform="translate(-343.34 -584.78)" fill="#ffeddc"/>
            <path id="Trazado_117309" data-name="Trazado 117309" d="M643.665,889s12.8,2.846,16.749,1.174c0,0,.6-5.352-4.794-4.6-3.689.514-6.092-1.259-7.506-1.979-2-1.018-4.981,3.168-4.449,5.407" transform="translate(-420.197 -576.785)" fill="#db6a1d"/>
            <path id="Trazado_117310" data-name="Trazado 117310" d="M669.6,859.949c-.819.614-3.333-8.655-3.333-8.655a9.026,9.026,0,0,1,1.556,1.49,4.934,4.934,0,0,0,2.415,1.638c.008.27.156,4.929-.638,5.527" transform="translate(-434.997 -555.797)" fill="#e5c1a1"/>
            <path id="Trazado_117311" data-name="Trazado 117311" d="M696.762,865.952c-.18.107-6.1,3.652-6.9,3.652-.819,0,4.364-6.657,4.364-6.657a15.4,15.4,0,0,0,2.538,3.005" transform="translate(-450.34 -563.405)" fill="#e5c1a1"/>
            <path id="Trazado_117312" data-name="Trazado 117312" d="M575.8,951.347c-.328-.28,12.555-18.968,16.1-19.105s11.52,4.094,17.291,4.64,11.366-1.092,12.458,2.32,4.094,15.507,2.252,17.442-41.02.755-48.1-5.3" transform="translate(-375.925 -608.644)" fill="#f9ddbf"/>
            <g id="Grupo_141421" data-name="Grupo 141421" transform="translate(167.868 360.958)" opacity="0.5">
              <g id="Grupo_141420" data-name="Grupo 141420">
                <g id="Grupo_141419" data-name="Grupo 141419" clip-path="url(#clip-path-3)">
                  <path id="Trazado_117313" data-name="Trazado 117313" d="M527.744,1086.509c0,.024,0,.045-.006.066a42.736,42.736,0,0,1-1.433,8.842s0,.009,0,.015c-.113.418-.233.836-.361,1.251a43.646,43.646,0,0,1-3.149,7.657,44.359,44.359,0,0,1-6,8.7c-.063.075-.129.149-.194.221a46.029,46.029,0,0,1-10.5,8.7q-1.272.774-2.609,1.478c-.6.316-1.209.615-1.818.9-.582.337-1.2.627-1.776.982a24.811,24.811,0,0,1-6.072,2.5V1123.9c0-.033,0-.066,0-.1,0-.066.012-.128.021-.191a1.683,1.683,0,0,1,.056-.214,2.049,2.049,0,0,1,1.986-1.437H485.668a2.049,2.049,0,0,1-1.983-1.441,1.643,1.643,0,0,1-.055-.213c-.009-.062-.018-.125-.021-.188,0-.033,0-.066,0-.1v-5.036c0-.033,0-.069,0-.1,0-.062.012-.125.021-.188a1.64,1.64,0,0,1,.055-.213,2.048,2.048,0,0,1,1.983-1.441h3.988a1.956,1.956,0,0,1-1.086-1.409c-.009-.042-.012-.084-.018-.125a.751.751,0,0,1-.006-.087c0-.033,0-.066,0-.1v-5.039c0-.033,0-.066,0-.1a1.285,1.285,0,0,1,.021-.188,1.7,1.7,0,0,1,.053-.208,2.044,2.044,0,0,1,1.986-1.446h2.29a2.052,2.052,0,0,1-1.986-1.44,1.709,1.709,0,0,1-.056-.214c-.009-.063-.018-.126-.021-.188v-5.239a2.008,2.008,0,0,1,1.818-1.827h-6.779a2.022,2.022,0,0,1-2.063-1.842c0-.033,0-.066,0-.1v-5.036c0-.033,0-.069,0-.1a.7.7,0,0,1,.006-.081,1.991,1.991,0,0,1,1.6-1.711,2.018,2.018,0,0,1-1.791-1.66,1.61,1.61,0,0,1-.018-.167c0-.036,0-.068,0-.1V1079.6c0-.036,0-.069,0-.1,0-.063.012-.125.021-.188a1.639,1.639,0,0,1,.055-.212,2.048,2.048,0,0,1,1.983-1.441h3.988a1.955,1.955,0,0,1-1.086-1.409c-.009-.042-.012-.084-.018-.125a.807.807,0,0,1-.006-.087c0-.033,0-.066,0-.1v-5.036c0-.033,0-.069,0-.1a1.328,1.328,0,0,1,.021-.188,1.674,1.674,0,0,1,.053-.207,2.046,2.046,0,0,1,1.986-1.447h7.809a2.045,2.045,0,0,1-1.985-1.443,1.756,1.756,0,0,1-.053-.208,1.367,1.367,0,0,1-.021-.191c0-.033,0-.066,0-.1v-5.039c0-.033,0-.066,0-.1a2,2,0,0,1,1.815-1.826h-12.3a2.1,2.1,0,0,1-1.725-.881l.006-.045,1.3-7.911.006-.045,1.845-11.287a49.425,49.425,0,0,1,6.331,1.275l.365.1.024.009q1.814.506,3.579,1.149a.148.148,0,0,1,.033.012,47.311,47.311,0,0,1,14.837,8.7c.078.065.156.134.23.205a44.725,44.725,0,0,1,6.221,6.7q.56.734,1.083,1.5c.117.167.233.334.344.5a.016.016,0,0,1,.009.015q.847,1.249,1.606,2.564a43.884,43.884,0,0,1,3.024,6.341,42.39,42.39,0,0,1,2.316,8.7c.015.075.024.146.036.221a42.565,42.565,0,0,1,.409,8.636" transform="translate(-483.605 -1039.877)" fill="#e2810e"/>
                </g>
              </g>
            </g>
            <path id="Trazado_117314" data-name="Trazado 117314" d="M315.392,1095.222a47,47,0,1,1,63.855,18.472,47,47,0,0,1-63.855-18.472" transform="translate(-202.095 -669.545)" fill="#e2810e"/>
            <path id="Trazado_117315" data-name="Trazado 117315" d="M370.668,1118.371q-.868.53-1.766,1.025c-.2.112-.405.222-.608.328-.463.247-.926.485-1.394.716a47,47,0,0,1-43.381-83.373c.6-.332,1.21-.651,1.82-.951q.889-.443,1.791-.844a46.918,46.918,0,0,1,14.109-3.793,47.012,47.012,0,0,1,29.429,86.891" transform="translate(-195.341 -673.267)" fill="#ffb93e"/>
            <path id="Trazado_117316" data-name="Trazado 117316" d="M356.216,1130.992a42.29,42.29,0,0,1-11.763-1.679,41.855,41.855,0,1,1,11.763,1.679m-.129-83.109a40.976,40.976,0,1,0,35.957,21.19,40.729,40.729,0,0,0-35.957-21.19" transform="translate(-205.018 -683.404)" fill="#ffa412"/>
            <path id="Trazado_117317" data-name="Trazado 117317" d="M419,1114.014c-.093-.232-.191-.455-.291-.676a12.336,12.336,0,0,0-2.851-4.073,12.734,12.734,0,0,0-4.488-2.641,21.463,21.463,0,0,0-5.7-1.071q-3.147-.194-6.849-.089a33,33,0,0,1-3.911-.079,9.81,9.81,0,0,1-2.753-.6,4.827,4.827,0,0,1-1.838-1.245,6.542,6.542,0,0,1-1.168-1.927,7.129,7.129,0,0,1-.531-2.258,4.849,4.849,0,0,1,.334-2.125,5.2,5.2,0,0,1,1.311-1.857,7.653,7.653,0,0,1,2.4-1.459,6.049,6.049,0,0,1,5.135.048q2.383,1.167,3.882,4.859l9.576-3.888a17.906,17.906,0,0,0-3.135-5.2,13.43,13.43,0,0,0-9.387-4.631,17.737,17.737,0,0,0-5.779.59l-2.712-6.679-5.3,2.152,2.673,6.586a19.865,19.865,0,0,0-4.866,3.463,14.87,14.87,0,0,0-3.067,4.276,11.908,11.908,0,0,0-1.127,4.831,14.15,14.15,0,0,0,4.165,9.923,12.54,12.54,0,0,0,4.482,2.625,21.221,21.221,0,0,0,5.706,1.034,67.24,67.24,0,0,0,6.866-.008,25.5,25.5,0,0,1,3.735.025,9.769,9.769,0,0,1,2.737.608,5.181,5.181,0,0,1,1.917,1.3,7.068,7.068,0,0,1,1.29,2.129,5.913,5.913,0,0,1,.458,2.27,4.845,4.845,0,0,1-.512,2.162,6.117,6.117,0,0,1-1.521,1.909,9.2,9.2,0,0,1-2.571,1.509,11.065,11.065,0,0,1-2.811.729,6.409,6.409,0,0,1-2.836-.284,6.585,6.585,0,0,1-2.588-1.673,10.169,10.169,0,0,1-2.095-3.4l-9.574,3.888a16.535,16.535,0,0,0,3.766,5.854,13.6,13.6,0,0,0,4.961,3.094,15.171,15.171,0,0,0,5.637.812,23.9,23.9,0,0,0,5.807-.959l2.472,6.094,5.268-2.139-2.486-6.122a21.392,21.392,0,0,0,4.916-3.432,14.5,14.5,0,0,0,2.967-3.874c.058-.112.114-.224.168-.338a11.783,11.783,0,0,0,1.154-4.806,12.937,12.937,0,0,0-1.031-5.245" transform="translate(-247.148 -704.471)" fill="#ffa412"/>
            <path id="Trazado_117318" data-name="Trazado 117318" d="M308.492,456.622a2.181,2.181,0,0,0-.372,2.336.016.016,0,0,0,.006.011c.574,1.552,2.446,3.276,4.618,5,.277.221.524.422.74.608.057.049.113.1.166.147s.086.077.128.114c2.027,1.842,1.273,2.273,4.918,6.016,4.157,4.264,7,4.322,7.8,3.924.681-.338-.724-2.605-2.281-5.154-.076-.123-.15-.247-.227-.372-.207-.339-.413-.682-.619-1.023-1.826-3.067-1.372-4.516-.977-9.1.321-3.727,5.648-20.851,5.648-20.851l-7.917-1.306s-2.285,13.622-4.894,15.736c-1.4,1.126-2.965,1.152-4.308,1.989q-.142.088-.279.179a10.382,10.382,0,0,0-2.151,1.754" transform="translate(-201.049 -285.288)" fill="#ffb27d"/>
            <path id="Trazado_117319" data-name="Trazado 117319" d="M308.492,489.959a2.181,2.181,0,0,0-.372,2.336.016.016,0,0,0,.006.011c.7,1.549,2.525,3.265,4.625,4.979.275.224.517.431.732.624.057.049.113.1.166.147s.086.077.128.114c2.027,1.843,1.273,2.273,4.918,6.016,4.157,4.264,7,4.322,7.8,3.925.681-.338-.724-2.605-2.281-5.154a17.584,17.584,0,0,1-7.394-5.368c-2.507-3.153-4.193-7.215-5.9-9.563q-.142.087-.279.179a10.382,10.382,0,0,0-2.151,1.754" transform="translate(-201.049 -318.625)" fill="#233862"/>
            <path id="Trazado_117320" data-name="Trazado 117320" d="M481,446c.505,2.438,3.982,2.006,7.862,1.029s2.964.158,8.493-.493,7.189-2.726,7.352-3.55c.146-.731-2.589-.969-5.524-1.286-.369-.039-.74-.082-1.11-.125-3.313-.392-5.753-2.511-8.772-4.244-2.86-1.642-7.158-8.382-7.158-8.382l-7.583.655s4.024,6.019,5.582,8.637a9.167,9.167,0,0,1,.781,5.165A9.719,9.719,0,0,0,481,446" transform="translate(-309.835 -280.054)" fill="#ffb27d"/>
            <path id="Trazado_117321" data-name="Trazado 117321" d="M500.744,471.01c3.88-.977,2.964.158,8.492-.493s7.19-2.726,7.353-3.55c.145-.731-2.589-.969-5.524-1.286l-.027.057a15.594,15.594,0,0,1-7.906,2.519c-3.753.118-7.736-.93-10.327-.869a9.734,9.734,0,0,0,.077,2.595c.505,2.437,3.981,2.006,7.862,1.028" transform="translate(-321.712 -304.037)" fill="#233862"/>
            <path id="Trazado_117322" data-name="Trazado 117322" d="M359.96,316.165,353,335.3l-9.084,24.985A15,15,0,0,1,339,359.87a21.336,21.336,0,0,1-4.774-2.282s2.383-26.775,7.07-42.167c1.2-3.951,2.557-7.15,4.064-8.955,7.373-8.84,14.6,9.7,14.6,9.7" transform="translate(-218.208 -198.528)" fill="#ed7d2b"/>
            <path id="Trazado_117323" data-name="Trazado 117323" d="M258.227,245.4c-4.657-1.466-17.9.552-31.19,3.252l-2.82-4.578-28.771-2.043s-9.34,21.109-4.051,34.48c.777,1.965,5.568,2.923,5.569,2.924s16.855.184,22.412.145c14.3-.1,30.195-10.043,32.257-10.471,3.376-.7,4.775,6.051,8.206,13.126s32,31.212,32,31.212,4.364.013,6.162-.677a6.071,6.071,0,0,0,2.636-1.69s-31.9-62.374-42.406-65.68" transform="translate(-123.9 -158.017)" fill="#f99746"/>
            <path id="Trazado_117324" data-name="Trazado 117324" d="M191.081,1.641A10.2,10.2,0,0,0,185.542.252a16.625,16.625,0,0,1-2.748-.161c-10.906-1.387-17.353,14.492-17.7,19.292-.648,8.848-5.317,10.23-11.862,15.814-13.124,11.2-9.161,24.074-1.908,28.817,4.352,2.846,11.967-.085,11.967-.085.108.075,20.8-11.76,31-17.47,15.335-2.29,2.99-41.191-3.2-44.819" transform="translate(-94.415 -0.005)" fill="#233862"/>
            <path id="Trazado_117325" data-name="Trazado 117325" d="M236.45,90.03c.045.029-5.026,1.8-8.435.319-3.208-1.391-5.667-6.634-5.62-6.637,1.454-.077,3.042-1.36,4.213-9.713l.621.218,10.441,3.674s-.731,3.347-1.2,6.532c-.392,2.674-.595,5.235-.023,5.608" transform="translate(-145.198 -48.314)" fill="#ffb27d"/>
            <path id="Trazado_117326" data-name="Trazado 117326" d="M246.763,78.3s-.445,2.345-1.063,5.7c-5.989-1.035-8.513-6.144-9.378-9.371Z" transform="translate(-154.291 -48.724)" fill="#ed975d"/>
            <path id="Trazado_117327" data-name="Trazado 117327" d="M246.341,47.657s-14.262-1.812-13-10.676.276-15.068,9.436-14.286,10.442,4.416,10.739,7.478-3.435,17.727-7.178,17.484" transform="translate(-152.295 -14.776)" fill="#ffb27d"/>
            <path id="Trazado_117328" data-name="Trazado 117328" d="M245.2,23.831s-9.066,7.925-15.266,8.6-8.562-1.3-8.562-1.3a24.224,24.224,0,0,0,5.8-7.977,4.36,4.36,0,0,1,3.578-2.6c4.427-.414,12.824-.647,14.448,3.27" transform="translate(-144.533 -13.283)" fill="#233862"/>
            <path id="Trazado_117329" data-name="Trazado 117329" d="M273.581,25.228s3.072,2.929,4.048,5.11c.942,2.106,1.256,7.154.531,9.165,0,0,4.689-9.278,1.966-13.75-2.888-4.742-6.546-.525-6.546-.525" transform="translate(-178.616 -15.345)" fill="#233862"/>
            <path id="Trazado_117330" data-name="Trazado 117330" d="M225.938,128.559c-.227,28.845.043,22.816-3.093,25.576-.755.664-2.89,1.072-5.7,1.277-8.84.65-24.4-.7-25-2.328-2.08-5.641-.652-7.408-2.415-16.054-.184-.919-.411-1.914-.676-3-1.461-5.937-2.856-7.95,2.11-17.539,4.5-8.686,9.2-15.743,9.626-15.493,12.1,7.065,13.025,1.048,13.025,1.048s12.235,12.441,12.123,26.511" transform="translate(-122.539 -65.939)" fill="#aec3ff"/>
            <path id="Trazado_117331" data-name="Trazado 117331" d="M353,356.637l-9.084,24.985a15,15,0,0,1-4.922-.415,21.336,21.336,0,0,1-4.774-2.282s2.383-26.775,7.07-42.167Z" transform="translate(-218.208 -219.865)" fill="#f99746"/>
            <path id="Trazado_117332" data-name="Trazado 117332" d="M262.954,104.026s12.409,2.014,13.9,7.34S287.136,148,287.136,148s-6.293,1.177-9.225-1.714-10.319-26.934-10.319-26.934Z" transform="translate(-171.678 -67.919)" fill="#aec3ff"/>
            <path id="Trazado_117333" data-name="Trazado 117333" d="M220.978,200.542c-8.84.649-24.4-.7-25-2.328-2.08-5.641-.652-7.408-2.415-16.054l4.181-12.042s-.611,13.381,3.359,16.871,16.2,6.677,18.137,9.6a10.762,10.762,0,0,1,1.738,3.95" transform="translate(-126.374 -111.069)" fill="#8ea3ed"/>
            <path id="Trazado_117334" data-name="Trazado 117334" d="M243.236,239.106s8.712-2,10.125-1.24,4.874,3.56,5.312,4.538-3.139-.723-4.3-1.026c-.753-.2-2.724.5-3.7.838-4.108,1.4-6.637.713-6.637.713Z" transform="translate(-158.805 -155.187)" fill="#ffb27d"/>
            <path id="Trazado_117335" data-name="Trazado 117335" d="M172.863,100.993s-11.71.8-15.726,6.49c-5.653,8-16.739,42.018-10.216,46.5,7.345,5.045,33.276,1.1,33.276,1.1s.836-4.044-.38-5.988-20.769-4.961-21.677-5.857,11.144-17.658,11.125-20.362,3.6-21.879,3.6-21.879" transform="translate(-94.62 -65.938)" fill="#aec3ff"/>
            <path id="Trazado_117336" data-name="Trazado 117336" d="M273.67,245.181a16.882,16.882,0,0,0,2.446,2.622,1.789,1.789,0,0,0,.988.2l-1.248-2.209Z" transform="translate(-178.674 -160.076)" fill="#ffb27d"/>
            <path id="Trazado_117337" data-name="Trazado 117337" d="M272.4,238.193l5.333,2.544a.948.948,0,0,1-.878.346,12.706,12.706,0,0,1-2.31-.618Z" transform="translate(-177.848 -155.514)" fill="#ffb27d"/>
            <path id="Trazado_117338" data-name="Trazado 117338" d="M277.44,203.818l42.045-.3,12.426-31.542-41.981.3Z" transform="translate(-181.136 -112.285)" fill="#233862"/>
            <path id="Trazado_117339" data-name="Trazado 117339" d="M295.535,259.306l-55.521.392.009,1.225,55.028-.388Z" transform="translate(-156.701 -169.298)" fill="#233862"/>
            <path id="Trazado_117340" data-name="Trazado 117340" d="M360,214.012a1.457,1.457,0,0,0-1.442-1.992,2.869,2.869,0,0,0-2.562,2.02,1.457,1.457,0,0,0,1.442,1.992,2.869,2.869,0,0,0,2.562-2.02" transform="translate(-232.37 -138.426)" fill="#ebf3fa"/>
            <path id="Trazado_117341" data-name="Trazado 117341" d="M1325.428,551.91a11.347,11.347,0,0,0-9.01.463c-15.33.63-15.9,16.343-14.1,22.191,2.527,8.213-6.416,14.69,3.5,18.013,11.508,3.856,21.165-2.233,20.506-.247,36.395,2.868,11.211-36.4-.9-40.42" transform="translate(-849.413 -359.889)" fill="#2a539b"/>
            <path id="Trazado_117342" data-name="Trazado 117342" d="M1282.936,712.091a40.158,40.158,0,0,1-4.1,6.2c-3.184,3.989-19.9-5.479-18.459-6.2s9.579-23.825,13.025-27.921a14.671,14.671,0,0,1,7.63-4.656Z" transform="translate(-822.822 -443.645)" fill="#2b478b"/>
            <path id="Trazado_117343" data-name="Trazado 117343" d="M1456.587,1239.759s4.614,4.21,3.713,7.2-5.063,4.986-5.626,8.642-2.813,5.65-4.838,5.65h-9.656s-1.491-2.573,2.11-3.349,4.958-5.072,4.733-9.06a70.331,70.331,0,0,1,.337-9.307l7.651-1.772Z" transform="translate(-940.069 -808.117)" fill="#4075c1"/>
            <path id="Trazado_117344" data-name="Trazado 117344" d="M1326.1,1248.66s1.66,17.835-.366,18.832l-25.919-.053s0-2.991,4.163-3.656,11.477-3.1,12.714-8.531,9.408-6.592,9.408-6.592" transform="translate(-848.625 -815.23)" fill="#4075c1"/>
            <path id="Trazado_117345" data-name="Trazado 117345" d="M1344.9,697.407a103.3,103.3,0,0,1,0,11.98c-.257,4.331-4.638,10.133-5.26,11.569-1.56,3.6-3.319,4.185-3.319,4.185l-13.609,3.335-4.785,1.171-15.089-4.507s-6.873-19.184-4.113-29.983a83.007,83.007,0,0,1,6.976-18.3s10.255-2.305,28.346-1.022Z" transform="translate(-847.486 -440.991)" fill="#2b478b"/>
            <path id="Trazado_117346" data-name="Trazado 117346" d="M1385.712,751.59c-.257,4.332-5.935,9.982-6.556,11.417-1.56,3.6-3.319,4.185-3.319,4.185l-13.609,3.336-3.63-5.12s22.03-6.127,17.859-25.551Z" transform="translate(-887.005 -483.042)" fill="#163560"/>
            <path id="Trazado_117347" data-name="Trazado 117347" d="M1299.584,826.993s-7.472,23.26-7.953,31.179,14.285,112.5,14.879,116.148c.56,3.44,4.831,5.632,4.831,5.632a6.464,6.464,0,0,0,4.768.367c3.89-1.1,5.119-2.413,5.119-2.413s5.816-74.586,2.217-101.229a422,422,0,0,1-3.642-49.684Z" transform="translate(-843.276 -539.931)" fill="#ed7d2b"/>
            <path id="Trazado_117348" data-name="Trazado 117348" d="M1350.852,824.995s11.4,15.294,12.461,25.634,1.667,46.655,3.931,56.734,10.582,29.475,10.582,60.912a6.273,6.273,0,0,1-3.535,2.762,29.158,29.158,0,0,1-3.108.859,4.886,4.886,0,0,1-5.465-2.594c-5.624-11.323-23.538-47.841-24.456-55.422-.65-5.365-6.306-40.87-18.644-61.7-2.962-5,1.818-24.893,1.818-24.893Z" transform="translate(-862.883 -538.627)" fill="#f99746"/>
            <path id="Trazado_117349" data-name="Trazado 117349" d="M1310.328,816.649s3,2.373,8.96,2.493c7.118.143,24.757-1.815,24.757-1.815a14.591,14.591,0,0,1,.752,4.5s-21.543,5.434-34.025.794a7.89,7.89,0,0,1-.443-5.974" transform="translate(-855.214 -533.178)" fill="#163560"/>
            <path id="Trazado_117350" data-name="Trazado 117350" d="M1325.907,827.674a3.7,3.7,0,1,1,3.248-3.677,3.486,3.486,0,0,1-3.248,3.677m0-6.276a2.642,2.642,0,1,0,2.172,2.6,2.418,2.418,0,0,0-2.172-2.6" transform="translate(-863.541 -535.575)" fill="#fff"/>
            <path id="Trazado_117351" data-name="Trazado 117351" d="M1285.984,790.342l-32.379.3L1237.672,753.2l32.379-.3Z" transform="translate(-808.054 -491.556)" fill="#d35b31"/>
            <path id="Trazado_117352" data-name="Trazado 117352" d="M1333.411,800.876l-2.373-2.917a8.342,8.342,0,0,0-2.771-1.676c-1.166-.244-3.627-1.663-3.865-1.263s1.891,3.253,1.891,3.253l.108.016c-2.445,1.838-8.616.215-9.378.965-.923.909,1.271,2.874,2.449,3.978s4.544,2.944,7.168,2.126c1.919-.6,4.938-1.205,4.938-1.205Z" transform="translate(-859.716 -519.011)" fill="#ffb27d"/>
            <path id="Trazado_117353" data-name="Trazado 117353" d="M1244.3,769.917s2.035-2.312,3.33-1.2-.34,6.568-1.573,6.012-2.466-4.131-1.757-4.81" transform="translate(-812.244 -501.685)" fill="#ffb27d"/>
            <path id="Trazado_117354" data-name="Trazado 117354" d="M1371.1,676.57s10.8.757,14.935,10.818,11.747,26.62,10.112,33.559c-.652,2.766-8.518,12.345-41.322,6.259,0,0,.268-3.432,2.484-5.04,0,0,23.113-7.42,23.073-8.9-.075-2.792-3.123-5.205-16.034-18.12-3.51-3.511,6.752-18.579,6.752-18.579" transform="translate(-884.54 -441.723)" fill="#2b478b"/>
            <path id="Trazado_117355" data-name="Trazado 117355" d="M1354.828,651.325c.318-.428-.091-1.789-.6-4.325a47.335,47.335,0,0,1-1.227-9.847l-.683.114-11.488,1.932s.262,3.072.269,5.966c0,.024,0,.048,0,.072.014,2.513-.678,6.311.169,6.807,4.353,2.551,12.335.925,13.56-.719" transform="translate(-875.404 -415.988)" fill="#ffb27d"/>
            <path id="Trazado_117356" data-name="Trazado 117356" d="M1340.829,639.414s.228,4.332.236,7.225c6.429-.154,9.859-6.4,11.252-9.158Z" transform="translate(-875.404 -416.203)" fill="#e8945b"/>
            <path id="Trazado_117357" data-name="Trazado 117357" d="M1324,607.971s15.061-2.145,13.58-11.5-.533-15.938-10.211-14.964-10.977,4.84-11.243,8.083,3.918,18.7,7.874,18.383" transform="translate(-859.267 -379.593)" fill="#ffb27d"/>
            <path id="Trazado_117358" data-name="Trazado 117358" d="M1328.722,579.284s5.861,10.322,12.432,10.939,9.038-1.51,9.038-1.51a18.1,18.1,0,0,1-7.528-9.628s-11.672-5.521-13.942.2" transform="translate(-867.5 -376.512)" fill="#2a539b"/>
            <path id="Trazado_117359" data-name="Trazado 117359" d="M1319.159,583.636s-2.868,1.626-3.769,4.05a15.315,15.315,0,0,0-.662,8.913s-4.287-6.968-1.477-11.743c2.979-5.064,5.908-1.22,5.908-1.22" transform="translate(-856.776 -380.136)" fill="#2a539b"/>
          </g>
        </g>
      </g>
    </g>
    <rect id="Rectángulo_36925" data-name="Rectángulo 36925" width="182" height="44" rx="22" transform="translate(943 3791)" fill="#12263f"/>
    <rect id="Rectángulo_36926" data-name="Rectángulo 36926" width="182" height="44" rx="22" transform="translate(1092 4072)" fill="#12263f"/>
    <path id="Trazado_183817" data-name="Trazado 183817" d="M7.567,13.6a1.268,1.268,0,0,0-.479-1.055,5.954,5.954,0,0,0-1.683-.782,16.147,16.147,0,0,1-1.969-.782Q.949,9.758.949,7.622a3.011,3.011,0,0,1,.62-1.876A4.008,4.008,0,0,1,3.322,4.48a6.823,6.823,0,0,1,2.549-.453,5.969,5.969,0,0,1,2.474.492,3.917,3.917,0,0,1,1.7,1.4A3.661,3.661,0,0,1,10.652,8H7.576A1.547,1.547,0,0,0,7.1,6.787a1.867,1.867,0,0,0-1.3-.431A2.106,2.106,0,0,0,4.5,6.721a1.074,1.074,0,0,0,.048,1.819A6.65,6.65,0,0,0,6.4,9.367a11.36,11.36,0,0,1,2.18.918,3.663,3.663,0,0,1,2.074,3.3,3.125,3.125,0,0,1-1.266,2.637,5.629,5.629,0,0,1-3.472.958A6.888,6.888,0,0,1,3.1,16.618a4.247,4.247,0,0,1-1.9-1.529,3.985,3.985,0,0,1-.637-2.237H3.656a1.963,1.963,0,0,0,.532,1.516,2.513,2.513,0,0,0,1.727.488,1.985,1.985,0,0,0,1.208-.33A1.088,1.088,0,0,0,7.567,13.6ZM15.223,17H12.252V7.49h2.971ZM12.076,5.029a1.334,1.334,0,0,1,.457-1.043,1.718,1.718,0,0,1,1.187-.407,1.718,1.718,0,0,1,1.187.407,1.334,1.334,0,0,1,.457,1.043,1.334,1.334,0,0,1-.457,1.043,1.718,1.718,0,0,1-1.187.407,1.718,1.718,0,0,1-1.187-.407A1.334,1.334,0,0,1,12.076,5.029Zm9.949,9.3a.684.684,0,0,0-.4-.606,6.016,6.016,0,0,0-1.5-.475A6.853,6.853,0,0,1,18.3,12.6a3.062,3.062,0,0,1-1.1-.971,2.319,2.319,0,0,1-.378-1.31A2.628,2.628,0,0,1,17.9,8.163a4.453,4.453,0,0,1,2.83-.848,4.934,4.934,0,0,1,3.023.853A2.666,2.666,0,0,1,24.9,10.408H21.929q0-1.143-1.2-1.143a1.194,1.194,0,0,0-.782.259.8.8,0,0,0-.316.646.737.737,0,0,0,.387.642,3.654,3.654,0,0,0,1.235.4,10.671,10.671,0,0,1,1.49.378,2.706,2.706,0,0,1,2.145,2.646,2.491,2.491,0,0,1-1.156,2.118,5.068,5.068,0,0,1-2.993.817,5.172,5.172,0,0,1-2.18-.439,3.645,3.645,0,0,1-1.494-1.2,2.707,2.707,0,0,1-.536-1.591h2.769a1.145,1.145,0,0,0,.439.962,1.808,1.808,0,0,0,1.081.3,1.422,1.422,0,0,0,.91-.246A.787.787,0,0,0,22.025,14.328Zm7.69-9.2V7.49H31.28V9.547H29.716V13.9a1.111,1.111,0,0,0,.193.747,1.037,1.037,0,0,0,.765.211,4.345,4.345,0,0,0,.738-.053v2.118a5.466,5.466,0,0,1-1.67.255,3.1,3.1,0,0,1-2.259-.721,2.954,2.954,0,0,1-.729-2.188V9.547H25.541V7.49h1.213V5.126Zm7.33,12.05A4.889,4.889,0,0,1,33.5,15.871a4.507,4.507,0,0,1-1.354-3.4v-.246a5.84,5.84,0,0,1,.541-2.575,3.955,3.955,0,0,1,1.578-1.727,4.763,4.763,0,0,1,2.461-.611,4.117,4.117,0,0,1,3.164,1.244,4.887,4.887,0,0,1,1.16,3.467v1.151H35.165a2.135,2.135,0,0,0,.694,1.257,2.066,2.066,0,0,0,1.389.457,2.662,2.662,0,0,0,2.2-.984l1.354,1.6a3.784,3.784,0,0,1-1.569,1.217A5.3,5.3,0,0,1,37.046,17.176ZM36.712,9.6q-1.3,0-1.547,1.723h2.988v-.229a1.467,1.467,0,0,0-.36-1.1A1.434,1.434,0,0,0,36.712,9.6ZM45.044,7.49l.1,1.116a3.27,3.27,0,0,1,2.716-1.292,2.407,2.407,0,0,1,2.435,1.433,3.165,3.165,0,0,1,2.795-1.433q2.892,0,2.971,3.5V17H53.086V11a1.813,1.813,0,0,0-.246-1.063,1.048,1.048,0,0,0-.9-.334,1.4,1.4,0,0,0-1.31.782l.009.123V17H47.672V11.015a1.906,1.906,0,0,0-.237-1.081,1.045,1.045,0,0,0-.905-.334,1.42,1.42,0,0,0-1.3.782V17H42.267V7.49ZM63.105,17a3.344,3.344,0,0,1-.281-.853,2.754,2.754,0,0,1-2.285,1.028,3.374,3.374,0,0,1-2.285-.813,2.588,2.588,0,0,1-.94-2.043,2.66,2.66,0,0,1,1.143-2.338,5.821,5.821,0,0,1,3.322-.791h.914v-.5q0-1.316-1.134-1.316A.927.927,0,0,0,60.5,10.413H57.542a2.655,2.655,0,0,1,1.173-2.239,4.931,4.931,0,0,1,2.993-.86,4.323,4.323,0,0,1,2.874.888,3.086,3.086,0,0,1,1.081,2.435v4.21a4.311,4.311,0,0,0,.4,2V17Zm-1.854-1.934a1.652,1.652,0,0,0,.918-.237,1.487,1.487,0,0,0,.523-.536V12.772h-.861q-1.547,0-1.547,1.389a.848.848,0,0,0,.272.655A.986.986,0,0,0,61.251,15.066Zm15.135,2.109a4.889,4.889,0,0,1-3.542-1.305,4.507,4.507,0,0,1-1.354-3.4v-.246a5.84,5.84,0,0,1,.541-2.575,3.955,3.955,0,0,1,1.578-1.727,4.763,4.763,0,0,1,2.461-.611,4.117,4.117,0,0,1,3.164,1.244,4.887,4.887,0,0,1,1.16,3.467v1.151H74.5a2.135,2.135,0,0,0,.694,1.257,2.066,2.066,0,0,0,1.389.457,2.662,2.662,0,0,0,2.2-.984l1.354,1.6a3.784,3.784,0,0,1-1.569,1.217A5.3,5.3,0,0,1,76.386,17.176ZM76.052,9.6q-1.3,0-1.547,1.723h2.988v-.229a1.467,1.467,0,0,0-.36-1.1A1.434,1.434,0,0,0,76.052,9.6Zm9.387.51,1.38-2.619h3.076l-2.5,4.632L90.018,17H86.924L85.43,14.188,83.962,17H80.851l2.637-4.878-2.5-4.632H84.1ZM94.3,5.126V7.49h1.564V9.547H94.3V13.9a1.111,1.111,0,0,0,.193.747,1.037,1.037,0,0,0,.765.211,4.345,4.345,0,0,0,.738-.053v2.118a5.466,5.466,0,0,1-1.67.255,3.1,3.1,0,0,1-2.259-.721,2.954,2.954,0,0,1-.729-2.188V9.547H90.123V7.49h1.213V5.126Zm7.33,12.05a4.889,4.889,0,0,1-3.542-1.305,4.507,4.507,0,0,1-1.354-3.4v-.246a5.84,5.84,0,0,1,.541-2.575,3.955,3.955,0,0,1,1.578-1.727,4.763,4.763,0,0,1,2.461-.611,4.117,4.117,0,0,1,3.164,1.244,4.887,4.887,0,0,1,1.16,3.467v1.151H99.747a2.135,2.135,0,0,0,.694,1.257,2.066,2.066,0,0,0,1.389.457,2.662,2.662,0,0,0,2.2-.984l1.354,1.6a3.784,3.784,0,0,1-1.569,1.217A5.3,5.3,0,0,1,101.628,17.176ZM101.294,9.6q-1.3,0-1.547,1.723h2.988v-.229a1.467,1.467,0,0,0-.36-1.1A1.434,1.434,0,0,0,101.294,9.6Zm11.285.571-.976-.07a1.752,1.752,0,0,0-1.793.879V17h-2.962V7.49h2.777l.1,1.222a2.294,2.294,0,0,1,2.083-1.4,2.888,2.888,0,0,1,.826.105Zm3.788-2.681.1,1.116a3.225,3.225,0,0,1,2.716-1.292A2.713,2.713,0,0,1,121.4,8.2a4.226,4.226,0,0,1,.76,2.672V17h-2.971V11a1.6,1.6,0,0,0-.29-1.059,1.342,1.342,0,0,0-1.055-.338,1.413,1.413,0,0,0-1.292.686V17H113.59V7.49Zm7.058,4.667a5.613,5.613,0,0,1,.554-2.536,3.96,3.96,0,0,1,1.591-1.709,4.791,4.791,0,0,1,2.435-.6,4.373,4.373,0,0,1,3.366,1.323,5.076,5.076,0,0,1,1.23,3.6v.105a4.925,4.925,0,0,1-1.235,3.529,4.384,4.384,0,0,1-3.344,1.305,4.434,4.434,0,0,1-3.261-1.217,4.761,4.761,0,0,1-1.327-3.3Zm2.962.185a3.538,3.538,0,0,0,.413,1.934,1.376,1.376,0,0,0,1.222.615q1.582,0,1.617-2.435v-.3Q129.639,9.6,128,9.6q-1.485,0-1.608,2.206Z" transform="translate(965 3800)" fill="#fff"/>
    <path id="Trazado_183818" data-name="Trazado 183818" d="M11.32,12.667a4.673,4.673,0,0,1-.721,2.36,4.35,4.35,0,0,1-1.85,1.586,6.3,6.3,0,0,1-2.72.563,5.025,5.025,0,0,1-3.973-1.644,6.786,6.786,0,0,1-1.45-4.641v-.633a7.746,7.746,0,0,1,.655-3.292,4.961,4.961,0,0,1,1.885-2.18,5.26,5.26,0,0,1,2.848-.769A5.516,5.516,0,0,1,9.738,5.245a4.844,4.844,0,0,1,1.608,3.379H8.271a2.292,2.292,0,0,0-.589-1.679,2.422,2.422,0,0,0-1.687-.51A1.843,1.843,0,0,0,4.307,7.3a5.536,5.536,0,0,0-.562,2.751v.905a6.125,6.125,0,0,0,.514,2.927,1.882,1.882,0,0,0,1.771.879,2.369,2.369,0,0,0,1.626-.5,2.126,2.126,0,0,0,.6-1.591Zm.949-.51a5.613,5.613,0,0,1,.554-2.536,3.96,3.96,0,0,1,1.591-1.709,4.791,4.791,0,0,1,2.435-.6,4.373,4.373,0,0,1,3.366,1.323,5.076,5.076,0,0,1,1.23,3.6v.105a4.925,4.925,0,0,1-1.235,3.529,4.384,4.384,0,0,1-3.344,1.305,4.434,4.434,0,0,1-3.261-1.217,4.761,4.761,0,0,1-1.327-3.3Zm2.962.185a3.538,3.538,0,0,0,.413,1.934,1.376,1.376,0,0,0,1.222.615q1.582,0,1.617-2.435v-.3q0-2.558-1.635-2.558-1.485,0-1.608,2.206ZM25.55,7.49l.1,1.116a3.27,3.27,0,0,1,2.716-1.292A2.407,2.407,0,0,1,30.8,8.747a3.165,3.165,0,0,1,2.795-1.433q2.892,0,2.971,3.5V17H33.592V11a1.813,1.813,0,0,0-.246-1.063,1.048,1.048,0,0,0-.9-.334,1.4,1.4,0,0,0-1.31.782l.009.123V17H28.178V11.015a1.906,1.906,0,0,0-.237-1.081,1.045,1.045,0,0,0-.905-.334,1.42,1.42,0,0,0-1.3.782V17H22.772V7.49Zm17.306,9.686a4.889,4.889,0,0,1-3.542-1.305,4.507,4.507,0,0,1-1.354-3.4v-.246A5.84,5.84,0,0,1,38.5,9.652a3.955,3.955,0,0,1,1.578-1.727,4.763,4.763,0,0,1,2.461-.611A4.117,4.117,0,0,1,45.7,8.558a4.887,4.887,0,0,1,1.16,3.467v1.151H40.975a2.135,2.135,0,0,0,.694,1.257,2.066,2.066,0,0,0,1.389.457,2.662,2.662,0,0,0,2.2-.984l1.354,1.6a3.784,3.784,0,0,1-1.569,1.217A5.3,5.3,0,0,1,42.855,17.176ZM42.521,9.6q-1.3,0-1.547,1.723h2.988v-.229a1.467,1.467,0,0,0-.36-1.1A1.434,1.434,0,0,0,42.521,9.6Zm11.285.571-.976-.07a1.752,1.752,0,0,0-1.793.879V17H48.076V7.49h2.777l.1,1.222a2.294,2.294,0,0,1,2.083-1.4,2.888,2.888,0,0,1,.826.105Zm4.922,4.72a1.317,1.317,0,0,0,.967-.338,1.241,1.241,0,0,0,.334-.945h2.777a3.288,3.288,0,0,1-1.121,2.566,4.168,4.168,0,0,1-2.887,1,4.22,4.22,0,0,1-3.27-1.3,5.125,5.125,0,0,1-1.2-3.6v-.123A5.792,5.792,0,0,1,54.866,9.6a3.872,3.872,0,0,1,1.534-1.7,4.573,4.573,0,0,1,2.373-.593,4.116,4.116,0,0,1,2.944,1.028,3.647,3.647,0,0,1,1.09,2.786H60.029A1.626,1.626,0,0,0,59.669,10a1.244,1.244,0,0,0-.967-.4q-1.151,0-1.345,1.468a10.357,10.357,0,0,0-.062,1.283,4.068,4.068,0,0,0,.343,1.986A1.187,1.187,0,0,0,58.729,14.891ZM67.184,17H64.213V7.49h2.971ZM64.037,5.029a1.334,1.334,0,0,1,.457-1.043,1.934,1.934,0,0,1,2.373,0,1.334,1.334,0,0,1,.457,1.043,1.334,1.334,0,0,1-.457,1.043,1.934,1.934,0,0,1-2.373,0A1.334,1.334,0,0,1,64.037,5.029ZM74.364,17a3.344,3.344,0,0,1-.281-.853A2.754,2.754,0,0,1,71.8,17.176a3.374,3.374,0,0,1-2.285-.813,2.588,2.588,0,0,1-.94-2.043,2.66,2.66,0,0,1,1.143-2.338,5.821,5.821,0,0,1,3.322-.791h.914v-.5q0-1.316-1.134-1.316a.927.927,0,0,0-1.055,1.042H68.8a2.655,2.655,0,0,1,1.173-2.239,4.931,4.931,0,0,1,2.993-.86,4.323,4.323,0,0,1,2.874.888,3.086,3.086,0,0,1,1.081,2.435v4.21a4.311,4.311,0,0,0,.4,2V17ZM72.51,15.066a1.652,1.652,0,0,0,.918-.237,1.487,1.487,0,0,0,.523-.536V12.772H73.09q-1.547,0-1.547,1.389a.848.848,0,0,0,.272.655A.986.986,0,0,0,72.51,15.066ZM81.281,7.49l.1,1.116a3.225,3.225,0,0,1,2.716-1.292,2.713,2.713,0,0,1,2.219.888,4.226,4.226,0,0,1,.76,2.672V17H84.1V11a1.6,1.6,0,0,0-.29-1.059A1.342,1.342,0,0,0,82.758,9.6a1.413,1.413,0,0,0-1.292.686V17H78.5V7.49ZM92.162,5.126V7.49h1.564V9.547H92.162V13.9a1.111,1.111,0,0,0,.193.747,1.037,1.037,0,0,0,.765.211,4.345,4.345,0,0,0,.738-.053v2.118a5.466,5.466,0,0,1-1.67.255,3.1,3.1,0,0,1-2.259-.721,2.954,2.954,0,0,1-.729-2.188V9.547H87.987V7.49H89.2V5.126Zm7.33,12.05a4.889,4.889,0,0,1-3.542-1.305,4.507,4.507,0,0,1-1.354-3.4v-.246a5.84,5.84,0,0,1,.541-2.575,3.955,3.955,0,0,1,1.578-1.727,4.763,4.763,0,0,1,2.461-.611,4.117,4.117,0,0,1,3.164,1.244,4.887,4.887,0,0,1,1.16,3.467v1.151H97.611a2.135,2.135,0,0,0,.694,1.257,2.066,2.066,0,0,0,1.389.457,2.662,2.662,0,0,0,2.2-.984l1.354,1.6a3.784,3.784,0,0,1-1.569,1.217A5.3,5.3,0,0,1,99.492,17.176ZM99.158,9.6q-1.3,0-1.547,1.723H100.6v-.229a1.467,1.467,0,0,0-.36-1.1A1.434,1.434,0,0,0,99.158,9.6Z" transform="translate(1134 4081)" fill="#fff"/>
  </g>
</svg>
