<svg id="Grupo_141631" data-name="Grupo 141631" xmlns="http://www.w3.org/2000/svg" xmlns:xlink="http://www.w3.org/1999/xlink" width="432.075" height="413.51" viewBox="0 0 432.075 413.51">
  <defs>
    <clipPath id="clip-path">
      <rect id="Rectángulo_37092" data-name="Rectángulo 37092" width="432.075" height="413.51" fill="none"/>
    </clipPath>
    <clipPath id="clip-path-3">
      <rect id="Rectángulo_37048" data-name="Rectángulo 37048" width="158.967" height="175.755" fill="none"/>
    </clipPath>
    <clipPath id="clip-path-4">
      <path id="Trazado_183393" data-name="Trazado 183393" d="M9.514,133.358A38.138,38.138,0,1,0,47.655,95.219,38.141,38.141,0,0,0,9.514,133.358" transform="translate(-9.514 -95.219)" fill="none"/>
    </clipPath>
    <clipPath id="clip-path-6">
      <rect id="Rectángulo_37060" data-name="Rectángulo 37060" width="132.959" height="147.209" fill="none"/>
    </clipPath>
    <clipPath id="clip-path-7">
      <rect id="Rectángulo_37061" data-name="Rectángulo 37061" width="131.483" height="145.364" fill="none"/>
    </clipPath>
    <clipPath id="clip-path-8">
      <path id="Trazado_183428" data-name="Trazado 183428" d="M243.105,168.606a31.544,31.544,0,1,0,31.546-31.544,31.543,31.543,0,0,0-31.546,31.544" transform="translate(-243.105 -137.062)" fill="none"/>
    </clipPath>
    <clipPath id="clip-path-10">
      <rect id="Rectángulo_37072" data-name="Rectángulo 37072" width="109.885" height="121.664" fill="none"/>
    </clipPath>
    <clipPath id="clip-path-11">
      <rect id="Rectángulo_37074" data-name="Rectángulo 37074" width="108.668" height="120.141" fill="none"/>
    </clipPath>
    <clipPath id="clip-path-12">
      <path id="Trazado_183461" data-name="Trazado 183461" d="M190.959,49.141a26.071,26.071,0,1,0,26.07-26.071,26.071,26.071,0,0,0-26.07,26.071" transform="translate(-190.959 -23.07)" fill="none"/>
    </clipPath>
  </defs>
  <g id="Grupo_141630" data-name="Grupo 141630" clip-path="url(#clip-path)">
    <g id="Grupo_141605" data-name="Grupo 141605">
      <g id="Grupo_141604" data-name="Grupo 141604" clip-path="url(#clip-path)">
        <g id="Grupo_141603" data-name="Grupo 141603" transform="translate(1.779 80.392)" style="mix-blend-mode: multiply;isolation: isolate">
          <g id="Grupo_141602" data-name="Grupo 141602">
            <g id="Grupo_141601" data-name="Grupo 141601" clip-path="url(#clip-path-3)">
              <path id="Rectángulo_37047" data-name="Rectángulo 37047" d="M13.975,0H144.991a13.977,13.977,0,0,1,13.977,13.977v147.8a13.977,13.977,0,0,1-13.977,13.977H13.977A13.977,13.977,0,0,1,0,161.778V13.975A13.975,13.975,0,0,1,13.975,0Z" transform="translate(-0.001 0.001)" fill="#c0c2c8"/>
            </g>
          </g>
        </g>
        <path id="Rectángulo_37049" data-name="Rectángulo 37049" d="M13.979,0H144.99a13.979,13.979,0,0,1,13.979,13.979v147.8a13.979,13.979,0,0,1-13.979,13.979H13.978A13.978,13.978,0,0,1,0,161.778V13.979A13.979,13.979,0,0,1,13.979,0Z" transform="translate(-0.001 78.164)" fill="#fff"/>
        <path id="Trazado_183361" data-name="Trazado 183361" d="M158.969,88.131V79.246a17.776,17.776,0,0,0-17.774-17.775H17.775A17.776,17.776,0,0,0,0,79.246v8.884Z" transform="translate(0 16.693)" fill="#003b69"/>
        <path id="Trazado_183362" data-name="Trazado 183362" d="M100.918,78.917a1.458,1.458,0,0,1-1.453,1.456H89.779a1.456,1.456,0,0,1-1.45-1.456V69.23a1.448,1.448,0,0,1,1.45-1.447h9.686a1.45,1.45,0,0,1,1.453,1.447Z" transform="translate(23.987 18.408)" fill="#fff"/>
        <path id="Trazado_183363" data-name="Trazado 183363" d="M115.284,78.917a1.458,1.458,0,0,1-1.456,1.456h-9.682a1.458,1.458,0,0,1-1.453-1.456V69.23a1.451,1.451,0,0,1,1.453-1.447h9.682a1.451,1.451,0,0,1,1.456,1.447Z" transform="translate(27.888 18.408)" fill="#fff"/>
        <path id="Trazado_183364" data-name="Trazado 183364" d="M101.811,74.079a6.292,6.292,0,0,1-6.29,6.294H14.061a6.295,6.295,0,0,1,0-12.59H95.52a6.29,6.29,0,0,1,6.29,6.3" transform="translate(2.109 18.408)" fill="#fff"/>
        <path id="Trazado_183365" data-name="Trazado 183365" d="M85.79,133.358A38.138,38.138,0,1,1,47.655,95.22,38.141,38.141,0,0,1,85.79,133.358" transform="translate(2.584 25.859)" fill="#cfd1d6"/>
      </g>
    </g>
    <g id="Grupo_141607" data-name="Grupo 141607" transform="translate(12.098 121.077)">
      <g id="Grupo_141606" data-name="Grupo 141606" clip-path="url(#clip-path-4)">
        <path id="Trazado_183366" data-name="Trazado 183366" d="M62.843,151.236c1.2,5.627-38.464,5.015-38.464,0,6.2-10.7.2-17.84-.52-31.934s37.958-10.287,38.768,0-5.191,24.44.216,31.934" transform="translate(-5.621 -91.177)" fill="#5f170f"/>
        <path id="Trazado_183367" data-name="Trazado 183367" d="M49.741,169.478h5.7l-.149-2.013s-.619-17.665-1.3-22.624-4.592-4.907-4.592-4.907l-2.842,8.315s2.52,15.7,2.829,19.06c.047.482.172,1.237.355,2.169" transform="translate(0.546 -83.076)" fill="#f4aa7f"/>
        <path id="Trazado_183368" data-name="Trazado 183368" d="M29.346,169.519c.207-1.026.347-1.849.4-2.36.308-3.358,2.829-19.061,2.829-19.061l-2.841-8.317s-3.909-.051-4.592,4.912-1.3,22.62-1.3,22.62l-.164,2.206Z" transform="translate(-5.668 -83.117)" fill="#f4aa7f"/>
        <path id="Trazado_183369" data-name="Trazado 183369" d="M29.627,163.327l1.532,6.874H52.694l2.282-6.874s3.609-2.672,3.574-5.151-4.6-9.209-4.6-9.209l1.589-8.492-6.805-3.209H35.51l-6.655,3.061,1.378,8.64s-3.707,6.526-3.756,9.209,3.15,5.151,3.15,5.151" transform="translate(-4.908 -83.8)" fill="#dd3e35"/>
        <path id="Trazado_183370" data-name="Trazado 183370" d="M47.05,139.406s2.4,9.4,1.1,11.807c-1.458,2.706-13.285,2.478-14.875,0s.547-11.807.547-11.807l2.036-.1v-9.918h9.092v9.5Z" transform="translate(-3.221 -85.941)" fill="#f4aa7f"/>
        <path id="Trazado_183371" data-name="Trazado 183371" d="M42.75,137.944a13.793,13.793,0,0,0,1.523-.539v-8.022h-9.09v7.236c2.41,1.134,4.758,2.116,7.567,1.325" transform="translate(-2.543 -85.941)" fill="#d2876a"/>
        <path id="Trazado_183372" data-name="Trazado 183372" d="M56.339,127.652a3.365,3.365,0,0,1-2.691-.369s-6.407.332-6.407-1.336v-5.59c0-3.985,6.407-3.586,6.407-3.586a2.408,2.408,0,0,1,3.385-.643c3.059,2.183,1.705,10.515-.694,11.524" transform="translate(0.731 -89.672)" fill="#f4aa7f"/>
        <path id="Trazado_183373" data-name="Trazado 183373" d="M25.152,127.652a3.367,3.367,0,0,0,2.692-.369s6.4.332,6.4-1.336v-5.59c0-3.985-6.4-3.586-6.4-3.586a2.408,2.408,0,0,0-3.385-.643c-3.061,2.183-1.709,10.515.693,11.524" transform="translate(-5.936 -89.672)" fill="#f4aa7f"/>
        <path id="Trazado_183374" data-name="Trazado 183374" d="M59.445,130.326c0,7.412-10.737,15.63-16.492,15.63-6.325,0-16.485-8.745-16.485-16.1v-15.5c0-21.893,32.977-23.343,32.977,0Z" transform="translate(-4.91 -94.628)" fill="#f4aa7f"/>
        <path id="Trazado_183375" data-name="Trazado 183375" d="M28.5,122.1c-.112-2.085,3.345-3.759,3.691-11.368,2.87,1.595,16.778,9.752,27.271,11.325a16.8,16.8,0,0,0,1.231,7.122s.025-3.813,0-5.777,2.469-2.654,2.469-2.654v-6.755c0-3.629-3.716-20.475-19.26-16.529-14.811-3.427-21.52,12.112-21.207,15.938s.726,9.009.726,9.009,3.39-3.151,3.852,1.189c.253,2.336.053,4.8,1.741,5.192-.219-2.092-.364-4.03-.514-6.692" transform="translate(-5.938 -94.771)" fill="#5f170f"/>
        <path id="Trazado_183376" data-name="Trazado 183376" d="M39.19,117.6v10.857l1.91-1.5Z" transform="translate(-1.455 -89.141)" fill="#d2876a"/>
        <path id="Trazado_183377" data-name="Trazado 183377" d="M38.906,116.35s-2.92-1.961-4.782-1.341a16.119,16.119,0,0,0-4.18,2.63l-.257-.96a6.917,6.917,0,0,1,4.265-2.307c2.529-.214,4.954,1.979,4.954,1.979" transform="translate(-4.036 -90.022)" fill="#5f170f"/>
        <path id="Trazado_183378" data-name="Trazado 183378" d="M35.666,129.177s1.541,1.48,2.416,1.54a21.412,21.412,0,0,0,5.157-.164,11.051,11.051,0,0,0,1.647-1.344s-3.691-.182-4.356-.211-4.864.179-4.864.179" transform="translate(-2.412 -86.047)" fill="#be3029"/>
        <path id="Trazado_183379" data-name="Trazado 183379" d="M33.743,128.352a11.409,11.409,0,0,0,3.171.718c.905-.1,2.424-1.38,2.787-1.222l1.265.529a4.91,4.91,0,0,1,1.544-.529c.36.059,2.239,1.31,2.9,1.222a14.568,14.568,0,0,0,2.186-.718,17.529,17.529,0,0,1-2.65,1.481,10.412,10.412,0,0,1-3.882-.085c-1.194-.076-2.926.763-4.286.043s-3.033-1.439-3.033-1.439" transform="translate(-2.934 -86.361)" fill="#db362f"/>
        <path id="Trazado_183380" data-name="Trazado 183380" d="M42.085,116.208s2.918-1.967,4.776-1.345a16.256,16.256,0,0,1,4.19,2.633l.253-.965a6.9,6.9,0,0,0-4.266-2.309c-2.529-.211-4.953,1.986-4.953,1.986" transform="translate(-0.669 -90.062)" fill="#5f170f"/>
        <path id="Trazado_183381" data-name="Trazado 183381" d="M46.066,117.291c2.127,0,1.8,1.581,2.48,2.007.189-.118,1.355-.507,1.355-.507a4.48,4.48,0,0,0-3.835-1.886,4.19,4.19,0,0,0-3.724,1.849,1.519,1.519,0,0,1,.608.117c.682-.427.993-1.579,3.117-1.579" transform="translate(-0.599 -89.33)" fill="#200e0d"/>
        <path id="Trazado_183382" data-name="Trazado 183382" d="M49.375,118.729s-.439,1.6-3.153,1.6a4.618,4.618,0,0,1-3.827-1.64,4.693,4.693,0,0,1,3.827-1.564c2.715,0,3.153,1.6,3.153,1.6" transform="translate(-0.585 -89.269)" fill="#fff"/>
        <path id="Trazado_183383" data-name="Trazado 183383" d="M43.942,118.711a1.9,1.9,0,0,0,.792,1.549,6.625,6.625,0,0,0,2.134,0,1.913,1.913,0,0,0,0-3.1,7.032,7.032,0,0,0-2.134,0,1.912,1.912,0,0,0-.792,1.554" transform="translate(-0.164 -89.283)" fill="#200e0d"/>
        <path id="Trazado_183384" data-name="Trazado 183384" d="M46.322,118.549a.756.756,0,1,1-.758-.758.759.759,0,0,1,.758.758" transform="translate(0.071 -89.089)" fill="#100"/>
        <path id="Trazado_183385" data-name="Trazado 183385" d="M45.394,117.9a.342.342,0,0,1-.343.336.339.339,0,0,1,0-.678.343.343,0,0,1,.343.342" transform="translate(0.045 -89.153)" fill="#fff"/>
        <path id="Trazado_183386" data-name="Trazado 183386" d="M45.493,118.441a.177.177,0,1,1-.355,0,.177.177,0,1,1,.355,0" transform="translate(0.16 -88.961)" fill="#fff"/>
        <path id="Trazado_183387" data-name="Trazado 183387" d="M34.57,117.291c-2.127,0-1.8,1.581-2.476,2.007-.191-.118-1.359-.507-1.359-.507A4.48,4.48,0,0,1,34.57,116.9a4.2,4.2,0,0,1,3.726,1.849,1.5,1.5,0,0,0-.607.117c-.684-.427-.991-1.579-3.119-1.579" transform="translate(-3.751 -89.33)" fill="#200e0d"/>
        <path id="Trazado_183388" data-name="Trazado 183388" d="M31.142,118.729s.437,1.6,3.15,1.6a4.628,4.628,0,0,0,3.829-1.64,4.7,4.7,0,0,0-3.829-1.564c-2.712,0-3.15,1.6-3.15,1.6" transform="translate(-3.641 -89.269)" fill="#fff"/>
        <path id="Trazado_183389" data-name="Trazado 183389" d="M35.875,118.711a1.9,1.9,0,0,1-.792,1.549,6.633,6.633,0,0,1-2.135,0,1.917,1.917,0,0,1,0-3.1,7.04,7.04,0,0,1,2.135,0,1.912,1.912,0,0,1,.792,1.554" transform="translate(-3.365 -89.283)" fill="#200e0d"/>
        <path id="Trazado_183390" data-name="Trazado 183390" d="M33.024,118.549a.755.755,0,1,0,.755-.758.755.755,0,0,0-.755.758" transform="translate(-3.129 -89.089)" fill="#100"/>
        <path id="Trazado_183391" data-name="Trazado 183391" d="M33.776,117.9a.34.34,0,1,0,.343-.342.339.339,0,0,0-.343.342" transform="translate(-2.925 -89.153)" fill="#fff"/>
        <path id="Trazado_183392" data-name="Trazado 183392" d="M33.606,118.441a.177.177,0,0,0,.179.179.18.18,0,0,0,.178-.179.183.183,0,0,0-.178-.178.18.18,0,0,0-.179.178" transform="translate(-2.971 -88.961)" fill="#fff"/>
      </g>
    </g>
    <g id="Grupo_141615" data-name="Grupo 141615">
      <g id="Grupo_141614" data-name="Grupo 141614" clip-path="url(#clip-path)">
        <rect id="Rectángulo_37051" data-name="Rectángulo 37051" width="51.209" height="9.688" transform="translate(94.677 123.896)" fill="#9f9fa6"/>
        <rect id="Rectángulo_37052" data-name="Rectángulo 37052" width="51.209" height="4.843" transform="translate(94.677 140.506)" fill="#cfd1d6"/>
        <rect id="Rectángulo_37053" data-name="Rectángulo 37053" width="51.209" height="4.842" transform="translate(94.677 150.423)" fill="#cfd1d6"/>
        <rect id="Rectángulo_37054" data-name="Rectángulo 37054" width="51.209" height="4.846" transform="translate(94.677 160.34)" fill="#cfd1d6"/>
        <rect id="Rectángulo_37055" data-name="Rectángulo 37055" width="51.209" height="4.847" transform="translate(94.677 170.254)" fill="#cfd1d6"/>
        <rect id="Rectángulo_37056" data-name="Rectángulo 37056" width="51.209" height="4.84" transform="translate(94.677 180.177)" fill="#cfd1d6"/>
        <rect id="Rectángulo_37057" data-name="Rectángulo 37057" width="51.209" height="4.848" transform="translate(94.677 190.09)" fill="#cfd1d6"/>
        <rect id="Rectángulo_37058" data-name="Rectángulo 37058" width="126.867" height="4.843" transform="translate(19.019 210.397)" fill="#cfd1d6"/>
        <rect id="Rectángulo_37059" data-name="Rectángulo 37059" width="126.867" height="4.841" transform="translate(19.019 222.393)" fill="#cfd1d6"/>
        <g id="Grupo_141610" data-name="Grupo 141610" transform="translate(293.183 142.178)" style="mix-blend-mode: multiply;isolation: isolate">
          <g id="Grupo_141609" data-name="Grupo 141609">
            <g id="Grupo_141608" data-name="Grupo 141608" clip-path="url(#clip-path-6)">
              <path id="Trazado_183394" data-name="Trazado 183394" d="M359.585,118.365a14.685,14.685,0,0,0-12.234-6.552H245.271a14.7,14.7,0,0,0-14.7,14.7V242.478a17.884,17.884,0,0,0,16.173,16.543H348.824a14.7,14.7,0,0,0,14.7-14.7V128.357a14.624,14.624,0,0,0-3.942-9.992" transform="translate(-230.568 -111.813)" fill="#b6b8bf"/>
            </g>
          </g>
        </g>
        <g id="Grupo_141613" data-name="Grupo 141613" transform="translate(300.592 140.632)" style="mix-blend-mode: multiply;isolation: isolate">
          <g id="Grupo_141612" data-name="Grupo 141612">
            <g id="Grupo_141611" data-name="Grupo 141611" clip-path="url(#clip-path-7)">
              <path id="Trazado_183395" data-name="Trazado 183395" d="M367.878,241.265a14.7,14.7,0,0,1-14.7,14.7H251.094a14.7,14.7,0,0,1-14.7-14.7V125.3a14.7,14.7,0,0,1,14.7-14.7h102.08a14.7,14.7,0,0,1,14.7,14.7Z" transform="translate(-236.395 -110.597)" fill="#c0c2c8"/>
            </g>
          </g>
        </g>
        <path id="Rectángulo_37062" data-name="Rectángulo 37062" d="M11.561,0h108.36a11.562,11.562,0,0,1,11.562,11.562V133.8a11.563,11.563,0,0,1-11.563,11.563H11.563A11.563,11.563,0,0,1,0,133.8V11.561A11.561,11.561,0,0,1,11.561,0Z" transform="translate(299.119 138.786)" fill="#fff"/>
        <path id="Trazado_183396" data-name="Trazado 183396" d="M366.72,131.2v-7.347a14.7,14.7,0,0,0-14.7-14.7H249.939a14.7,14.7,0,0,0-14.7,14.7V131.2Z" transform="translate(63.883 29.64)" fill="#003b69"/>
        <path id="Trazado_183397" data-name="Trazado 183397" d="M318.706,123.573a1.2,1.2,0,0,1-1.2,1.205h-8.012a1.2,1.2,0,0,1-1.2-1.205v-8.01a1.2,1.2,0,0,1,1.2-1.2H317.5a1.2,1.2,0,0,1,1.2,1.2Z" transform="translate(83.722 31.058)" fill="#fff"/>
        <path id="Trazado_183398" data-name="Trazado 183398" d="M330.587,123.573a1.206,1.206,0,0,1-1.2,1.205h-8.01a1.2,1.2,0,0,1-1.2-1.205v-8.01a1.2,1.2,0,0,1,1.2-1.2h8.01a1.2,1.2,0,0,1,1.2,1.2Z" transform="translate(86.949 31.058)" fill="#fff"/>
        <path id="Trazado_183399" data-name="Trazado 183399" d="M319.447,119.574a5.206,5.206,0,0,1-5.206,5.206H246.868a5.206,5.206,0,1,1,0-10.413h67.373a5.2,5.2,0,0,1,5.206,5.207" transform="translate(65.627 31.058)" fill="#fff"/>
        <path id="Trazado_183400" data-name="Trazado 183400" d="M306.195,168.606a31.544,31.544,0,1,1-31.544-31.544,31.544,31.544,0,0,1,31.544,31.544" transform="translate(66.02 37.222)" fill="#cfd1d6"/>
      </g>
    </g>
    <g id="Grupo_141617" data-name="Grupo 141617" transform="translate(309.124 174.284)">
      <g id="Grupo_141616" data-name="Grupo 141616" clip-path="url(#clip-path-8)">
        <path id="Trazado_183401" data-name="Trazado 183401" d="M277.884,193.918c1.087,5.105-15.77,1.453-15.77-3.092,5.624-9.707-7.985-10.445-8.4-31.494-.253-12.8,35.067-9.364,35.169,0,.2,18.642-15.906,27.788-11,34.587" transform="translate(-240.225 -133.285)" fill="#402815"/>
        <path id="Trazado_183402" data-name="Trazado 183402" d="M277.195,204.853h5.165l-.136-1.827s-.561-16.027-1.18-20.528-4.162-4.452-4.162-4.452l-2.575,7.547s2.284,14.24,2.567,17.291c.037.436.154,1.122.32,1.97" transform="translate(-234.632 -125.932)" fill="#8d572e"/>
        <path id="Trazado_183403" data-name="Trazado 183403" d="M258.694,204.891c.184-.929.313-1.68.355-2.145.279-3.048,2.566-17.292,2.566-17.292l-2.577-7.547s-3.546-.047-4.163,4.454-1.18,20.524-1.18,20.524l-.149,2.005Z" transform="translate(-240.27 -125.97)" fill="#8d572e"/>
        <path id="Trazado_183404" data-name="Trazado 183404" d="M258.944,199.272l1.388,6.238h19.54l2.074-6.238s3.27-2.422,3.244-4.673-4.176-8.353-4.176-8.353l1.443-7.706-6.173-2.918h-12l-6.045,2.781,1.255,7.843s-3.363,5.918-3.408,8.353,2.856,4.673,2.856,4.673" transform="translate(-239.579 -126.59)" fill="#4aadb0"/>
        <path id="Trazado_183405" data-name="Trazado 183405" d="M274.754,177.564s2.181,8.531,1,10.717c-1.321,2.453-12.052,2.249-13.493,0s.5-10.717.5-10.717l1.846-.092v-9h8.247v8.617Z" transform="translate(-238.049 -128.531)" fill="#8d572e"/>
        <path id="Trazado_183406" data-name="Trazado 183406" d="M270.853,176.24a11.88,11.88,0,0,0,1.381-.49v-7.273h-8.247v6.568c2.185,1.022,4.316,1.912,6.866,1.2" transform="translate(-237.434 -128.531)" fill="#6f4624"/>
        <path id="Trazado_183407" data-name="Trazado 183407" d="M283.178,166.9a3.054,3.054,0,0,1-2.439-.339s-5.811.3-5.811-1.212v-5.068c0-3.614,5.811-3.259,5.811-3.259a2.186,2.186,0,0,1,3.072-.579c2.777,1.98,1.547,9.543-.633,10.457" transform="translate(-234.463 -131.917)" fill="#8d572e"/>
        <path id="Trazado_183408" data-name="Trazado 183408" d="M254.886,166.9a3.068,3.068,0,0,0,2.444-.339s5.809.3,5.809-1.212v-5.068c0-3.614-5.809-3.259-5.809-3.259a2.191,2.191,0,0,0-3.075-.579c-2.777,1.98-1.55,9.543.631,10.457" transform="translate(-240.513 -131.917)" fill="#8d572e"/>
        <path id="Trazado_183409" data-name="Trazado 183409" d="M285.994,169.325c0,6.729-9.74,14.184-14.959,14.184-5.741,0-14.957-7.932-14.957-14.6v-14.06c0-19.875,29.916-21.184,29.916,0Z" transform="translate(-239.582 -136.414)" fill="#8d572e"/>
        <path id="Trazado_183410" data-name="Trazado 183410" d="M257.918,161.866c-.1-1.895,10.555-4.5,13.458-12.777,2.816,7.127,5.115,11.3,14.636,12.733a15.24,15.24,0,0,0,1.115,6.462s.022-3.459,0-5.236,2.242-2.415,2.242-2.415v-6.128c0-3.287-3.372-18.574-17.479-15-13.435-3.109-19.249,9.862-19.24,14.463a73.538,73.538,0,0,0,.659,8.174s3.077-2.856,3.5,1.077c.229,2.12.047,4.36,1.579,4.71-.2-1.9-.333-3.653-.467-6.067" transform="translate(-240.513 -136.544)" fill="#402815"/>
        <path id="Trazado_183411" data-name="Trazado 183411" d="M267.621,157.785v9.852l1.733-1.366Z" transform="translate(-236.447 -131.434)" fill="#6f4624"/>
        <path id="Trazado_183412" data-name="Trazado 183412" d="M267.364,156.647s-2.647-1.778-4.336-1.218a14.615,14.615,0,0,0-3.8,2.392l-.231-.88a6.278,6.278,0,0,1,3.867-2.09c2.3-.189,4.5,1.8,4.5,1.8" transform="translate(-238.788 -132.235)" fill="#402815"/>
        <path id="Trazado_183413" data-name="Trazado 183413" d="M264.424,168.288s1.4,1.343,2.193,1.4a19.271,19.271,0,0,0,4.681-.154,9.631,9.631,0,0,0,1.49-1.218s-3.351-.163-3.953-.191-4.411.164-4.411.164" transform="translate(-237.315 -128.627)" fill="#702918"/>
        <path id="Trazado_183414" data-name="Trazado 183414" d="M262.68,167.537a10.379,10.379,0,0,0,2.879.651c.819-.093,2.2-1.249,2.528-1.109s1.147.484,1.147.484a4.49,4.49,0,0,1,1.4-.484c.328.058,2.035,1.191,2.63,1.109a12.96,12.96,0,0,0,1.985-.651,15.533,15.533,0,0,1-2.407,1.342,9.275,9.275,0,0,1-3.521-.074c-1.081-.071-2.652.689-3.885.039s-2.754-1.307-2.754-1.307" transform="translate(-237.789 -128.913)" fill="#702918"/>
        <path id="Trazado_183415" data-name="Trazado 183415" d="M270.246,156.516s2.65-1.78,4.336-1.217a14.541,14.541,0,0,1,3.8,2.391l.233-.881a6.283,6.283,0,0,0-3.869-2.09c-2.3-.188-4.5,1.8-4.5,1.8" transform="translate(-235.734 -132.271)" fill="#402815"/>
        <path id="Trazado_183416" data-name="Trazado 183416" d="M273.863,157.5c1.928,0,1.631,1.438,2.248,1.822.168-.1,1.228-.46,1.228-.46a4.059,4.059,0,0,0-3.476-1.706,3.8,3.8,0,0,0-3.38,1.677,1.364,1.364,0,0,1,.548.106c.622-.384.9-1.438,2.832-1.438" transform="translate(-235.67 -131.606)" fill="#200e0d"/>
        <path id="Trazado_183417" data-name="Trazado 183417" d="M276.86,158.805s-.4,1.452-2.858,1.452a4.192,4.192,0,0,1-3.473-1.481A4.249,4.249,0,0,1,274,157.353c2.458,0,2.858,1.452,2.858,1.452" transform="translate(-235.658 -131.552)" fill="#fff"/>
        <path id="Trazado_183418" data-name="Trazado 183418" d="M271.932,158.787a1.733,1.733,0,0,0,.722,1.408,6.386,6.386,0,0,0,1.935,0,1.733,1.733,0,0,0,0-2.811,6.174,6.174,0,0,0-1.935,0,1.729,1.729,0,0,0-.722,1.4" transform="translate(-235.277 -131.564)" fill="#200e0d"/>
        <path id="Trazado_183419" data-name="Trazado 183419" d="M274.092,158.641a.685.685,0,1,1-.685-.684.687.687,0,0,1,.685.684" transform="translate(-235.062 -131.388)" fill="#100"/>
        <path id="Trazado_183420" data-name="Trazado 183420" d="M273.249,158.045a.309.309,0,1,1-.31-.3.306.306,0,0,1,.31.3" transform="translate(-235.087 -131.446)" fill="#fff"/>
        <path id="Trazado_183421" data-name="Trazado 183421" d="M273.343,158.547a.166.166,0,0,1-.164.163.163.163,0,1,1,.164-.163" transform="translate(-234.982 -131.272)" fill="#fff"/>
        <path id="Trazado_183422" data-name="Trazado 183422" d="M263.427,157.5c-1.928,0-1.629,1.438-2.251,1.822-.168-.1-1.226-.46-1.226-.46a4.059,4.059,0,0,1,3.476-1.706,3.8,3.8,0,0,1,3.38,1.677,1.387,1.387,0,0,0-.551.106c-.619-.384-.9-1.438-2.829-1.438" transform="translate(-238.53 -131.606)" fill="#200e0d"/>
        <path id="Trazado_183423" data-name="Trazado 183423" d="M260.318,158.805s.4,1.452,2.859,1.452a4.2,4.2,0,0,0,3.473-1.481,4.255,4.255,0,0,0-3.473-1.423c-2.458,0-2.859,1.452-2.859,1.452" transform="translate(-238.431 -131.552)" fill="#fff"/>
        <path id="Trazado_183424" data-name="Trazado 183424" d="M264.613,158.787a1.733,1.733,0,0,1-.718,1.408,6.377,6.377,0,0,1-1.934,0,1.733,1.733,0,0,1,0-2.811,6.165,6.165,0,0,1,1.934,0,1.729,1.729,0,0,1,.718,1.4" transform="translate(-238.18 -131.564)" fill="#200e0d"/>
        <path id="Trazado_183425" data-name="Trazado 183425" d="M262.029,158.641a.684.684,0,1,0,.683-.684.685.685,0,0,0-.683.684" transform="translate(-237.966 -131.388)" fill="#100"/>
        <path id="Trazado_183426" data-name="Trazado 183426" d="M262.711,158.045a.306.306,0,0,0,.31.308.306.306,0,0,0,0-.612.307.307,0,0,0-.31.3" transform="translate(-237.781 -131.446)" fill="#fff"/>
        <path id="Trazado_183427" data-name="Trazado 183427" d="M262.555,158.547a.165.165,0,0,0,.159.163.163.163,0,1,0-.159-.163" transform="translate(-237.823 -131.272)" fill="#fff"/>
      </g>
    </g>
    <g id="Grupo_141625" data-name="Grupo 141625">
      <g id="Grupo_141624" data-name="Grupo 141624" clip-path="url(#clip-path)">
        <rect id="Rectángulo_37064" data-name="Rectángulo 37064" width="42.355" height="8.012" transform="translate(377.424 176.613)" fill="#9f9fa6"/>
        <rect id="Rectángulo_37065" data-name="Rectángulo 37065" width="42.355" height="4.005" transform="translate(377.424 190.35)" fill="#cfd1d6"/>
        <path id="Trazado_183429" data-name="Trazado 183429" d="M339.173,160.152H296.818v-4h42.355Z" transform="translate(80.606 42.405)" fill="#cfd1d6"/>
        <rect id="Rectángulo_37066" data-name="Rectángulo 37066" width="42.355" height="4.008" transform="translate(377.424 206.757)" fill="#cfd1d6"/>
        <rect id="Rectángulo_37067" data-name="Rectángulo 37067" width="42.355" height="4.008" transform="translate(377.424 214.957)" fill="#cfd1d6"/>
        <rect id="Rectángulo_37068" data-name="Rectángulo 37068" width="42.355" height="4.004" transform="translate(377.424 223.163)" fill="#cfd1d6"/>
        <rect id="Rectángulo_37069" data-name="Rectángulo 37069" width="42.355" height="4.007" transform="translate(377.424 231.363)" fill="#cfd1d6"/>
        <rect id="Rectángulo_37070" data-name="Rectángulo 37070" width="104.931" height="4.004" transform="translate(314.848 248.158)" fill="#cfd1d6"/>
        <rect id="Rectángulo_37071" data-name="Rectángulo 37071" width="104.931" height="4.005" transform="translate(314.848 258.077)" fill="#cfd1d6"/>
        <g id="Grupo_141620" data-name="Grupo 141620" transform="translate(229.772 4.775)" style="mix-blend-mode: multiply;isolation: isolate">
          <g id="Grupo_141619" data-name="Grupo 141619">
            <g id="Grupo_141618" data-name="Grupo 141618" clip-path="url(#clip-path-10)">
              <path id="Trazado_183430" data-name="Trazado 183430" d="M287.333,9.176a12.135,12.135,0,0,0-10.113-5.421H192.85A12.148,12.148,0,0,0,180.7,15.9v95.846A12.081,12.081,0,0,0,183.955,120a12.13,12.13,0,0,0,10.11,5.417h84.371a12.15,12.15,0,0,0,12.149-12.15V17.428a12.1,12.1,0,0,0-3.251-8.252" transform="translate(-180.7 -3.755)" fill="#cfd1d6"/>
            </g>
          </g>
        </g>
        <g id="Grupo_141623" data-name="Grupo 141623" transform="translate(235.764 1.522)" style="mix-blend-mode: multiply;isolation: isolate">
          <g id="Grupo_141622" data-name="Grupo 141622">
            <g id="Grupo_141621" data-name="Grupo 141621" clip-path="url(#clip-path-11)">
              <path id="Rectángulo_37073" data-name="Rectángulo 37073" d="M9.556,0H99.113a9.555,9.555,0,0,1,9.555,9.555V110.587a9.556,9.556,0,0,1-9.556,9.556H9.555A9.555,9.555,0,0,1,0,110.588V9.556A9.556,9.556,0,0,1,9.556,0Z" transform="translate(0 -0.001)" fill="#c0c2c8"/>
            </g>
          </g>
        </g>
        <path id="Rectángulo_37075" data-name="Rectángulo 37075" d="M9.554,0h89.56a9.555,9.555,0,0,1,9.555,9.555V110.586a9.555,9.555,0,0,1-9.555,9.555H9.555A9.555,9.555,0,0,1,0,110.586V9.554A9.554,9.554,0,0,1,9.554,0Z" transform="translate(234.547 -0.001)" fill="#fff"/>
        <path id="Trazado_183431" data-name="Trazado 183431" d="M293.124,18.224V12.146A12.148,12.148,0,0,0,280.975,0H196.6a12.148,12.148,0,0,0-12.15,12.146v6.078Z" transform="translate(50.092 0)" fill="#003b69"/>
        <path id="Rectángulo_37076" data-name="Rectángulo 37076" d="M.78,0H7.824a.782.782,0,0,1,.782.782V7.825a.782.782,0,0,1-.782.782H.781A.781.781,0,0,1,0,7.826V.78A.78.78,0,0,1,.78,0Z" transform="translate(311.325 5.482)" fill="#fff"/>
        <path id="Rectángulo_37077" data-name="Rectángulo 37077" d="M.78,0H7.825A.78.78,0,0,1,8.6.78V7.825a.782.782,0,0,1-.782.782H.78A.78.78,0,0,1,0,7.827V.78A.78.78,0,0,1,.78,0Z" transform="translate(323.812 5.482)" fill="#fff"/>
        <path id="Trazado_183432" data-name="Trazado 183432" d="M254.053,8.615a4.3,4.3,0,0,1-4.3,4.3H194.068a4.3,4.3,0,0,1,0-8.607H249.75a4.3,4.3,0,0,1,4.3,4.3" transform="translate(51.534 1.171)" fill="#fff"/>
        <path id="Trazado_183433" data-name="Trazado 183433" d="M243.1,49.14a26.071,26.071,0,1,1-26.072-26.071A26.071,26.071,0,0,1,243.1,49.14" transform="translate(51.858 6.265)" fill="#cfd1d6"/>
      </g>
    </g>
    <g id="Grupo_141627" data-name="Grupo 141627" transform="translate(242.817 29.335)">
      <g id="Grupo_141626" data-name="Grupo 141626" clip-path="url(#clip-path-12)">
        <path id="Trazado_183434" data-name="Trazado 183434" d="M223.218,56.042c-4.256,3.878-13.775,3.213-16.632,1.035s-8.219-5.377-6.166-15.9c2.041-10.428,27.02-7.745,27.592,0s-.725,11.163-4.794,14.868" transform="translate(-188.514 -20.014)" fill="#d76913"/>
        <path id="Trazado_183435" data-name="Trazado 183435" d="M218.748,76.524H222.8l-.109-1.431s-.437-12.575-.923-16.1S218.5,55.5,218.5,55.5l-2.022,5.919s1.794,11.173,2.015,13.568c.031.34.12.882.252,1.541" transform="translate(-184.028 -14.264)" fill="#f1c9a6"/>
        <path id="Trazado_183436" data-name="Trazado 183436" d="M204.231,76.554c.142-.724.245-1.314.281-1.678.216-2.392,2.01-13.566,2.01-13.566L204.5,55.387s-2.783-.036-3.268,3.5-.923,16.1-.923,16.1l-.116,1.568Z" transform="translate(-188.451 -14.294)" fill="#f1c9a6"/>
        <path id="Trazado_183437" data-name="Trazado 183437" d="M204.43,72.148l1.09,4.892h15.327l1.625-4.892s2.572-1.9,2.547-3.663-3.274-6.556-3.274-6.556l1.13-6.045L218.031,53.6h-9.413l-4.739,2.182.984,6.151s-2.636,4.642-2.674,6.556,2.242,3.663,2.242,3.663" transform="translate(-187.91 -14.78)" fill="#a10e13"/>
        <path id="Trazado_183438" data-name="Trazado 183438" d="M216.83,55.119s1.71,6.694.786,8.406c-1.04,1.924-9.459,1.765-10.592,0s.393-8.406.393-8.406l1.448-.688V47.988h6.472v6.149Z" transform="translate(-186.709 -16.303)" fill="#f1c9a6"/>
        <path id="Trazado_183439" data-name="Trazado 183439" d="M213.772,54.078a9.342,9.342,0,0,0,1.085-.383V47.988h-6.472v5.15c1.718.806,3.389,1.506,5.388.94" transform="translate(-186.227 -16.303)" fill="#d2876a"/>
        <path id="Trazado_183440" data-name="Trazado 183440" d="M223.445,46.755a2.4,2.4,0,0,1-1.916-.264s-4.562.237-4.562-.952V41.562c0-2.837,4.562-2.553,4.562-2.553a1.713,1.713,0,0,1,2.41-.458c2.178,1.555,1.214,7.49-.493,8.2" transform="translate(-183.896 -18.96)" fill="#f1c9a6"/>
        <path id="Trazado_183441" data-name="Trazado 183441" d="M201.246,46.755a2.4,2.4,0,0,0,1.915-.264s4.56.237,4.56-.952V41.562c0-2.837-4.56-2.553-4.56-2.553a1.713,1.713,0,0,0-2.41-.458c-2.181,1.555-1.217,7.49.495,8.2" transform="translate(-188.642 -18.96)" fill="#f1c9a6"/>
        <path id="Trazado_183442" data-name="Trazado 183442" d="M225.654,48.657c0,5.276-7.641,11.126-11.737,11.126-4.5,0-11.739-6.222-11.739-11.456V37.3c0-15.591,23.476-16.617,23.476,0Z" transform="translate(-187.912 -22.487)" fill="#f1c9a6"/>
        <path id="Trazado_183443" data-name="Trazado 183443" d="M203.627,42.8c-.083-1.486,2.378-2.678,2.623-8.092,2.047,1.134,11.944,6.939,19.414,8.06a11.98,11.98,0,0,0,.875,5.066s.019-2.711,0-4.1,1.762-1.9,1.762-1.9v-4.8c0-2.584-2.65-14.573-13.716-11.767-10.539-2.441-15.313,8.624-15.092,11.345s.515,6.41.515,6.41,2.416-2.241,2.745.847c.177,1.664.034,3.419,1.237,3.7-.155-1.489-.261-2.866-.364-4.763" transform="translate(-188.643 -22.589)" fill="#d76913"/>
        <path id="Trazado_183444" data-name="Trazado 183444" d="M211.236,39.6v7.727l1.362-1.068Z" transform="translate(-185.452 -18.581)" fill="#d2876a"/>
        <path id="Trazado_183445" data-name="Trazado 183445" d="M211.034,38.709s-2.076-1.395-3.4-.954a11.446,11.446,0,0,0-2.978,1.876l-.179-.69a4.9,4.9,0,0,1,3.034-1.642,5.509,5.509,0,0,1,3.525,1.41" transform="translate(-187.289 -19.209)" fill="#d76913"/>
        <path id="Trazado_183446" data-name="Trazado 183446" d="M208.729,47.841s1.1,1.054,1.718,1.095a15.126,15.126,0,0,0,3.671-.116,7.614,7.614,0,0,0,1.172-.959l-3.1-.15c-.472-.022-3.459.13-3.459.13" transform="translate(-186.133 -16.379)" fill="#d7365d"/>
        <path id="Trazado_183447" data-name="Trazado 183447" d="M207.361,47.251a7.953,7.953,0,0,0,2.255.51c.643-.07,1.726-.977,1.982-.867s.9.378.9.378a3.475,3.475,0,0,1,1.1-.378c.258.046,1.595.933,2.065.867a9.747,9.747,0,0,0,1.554-.51,12.281,12.281,0,0,1-1.886,1.055,7.347,7.347,0,0,1-2.764-.06c-.846-.056-2.08.54-3.047.036s-2.158-1.031-2.158-1.031" transform="translate(-186.505 -16.603)" fill="#db4e6e"/>
        <path id="Trazado_183448" data-name="Trazado 183448" d="M213.3,38.6s2.078-1.394,3.4-.952a11.453,11.453,0,0,1,2.978,1.873l.181-.687a4.917,4.917,0,0,0-3.035-1.645A5.536,5.536,0,0,0,213.3,38.6" transform="translate(-184.892 -19.237)" fill="#d76913"/>
        <path id="Trazado_183449" data-name="Trazado 183449" d="M216.133,39.381c1.514,0,1.282,1.124,1.766,1.425.131-.084.963-.36.963-.36a3.189,3.189,0,0,0-2.729-1.344,2.984,2.984,0,0,0-2.652,1.319,1.106,1.106,0,0,1,.432.081c.486-.3.707-1.122,2.22-1.122" transform="translate(-184.843 -18.716)" fill="#200e0d"/>
        <path id="Trazado_183450" data-name="Trazado 183450" d="M218.486,40.4s-.314,1.139-2.244,1.139a3.291,3.291,0,0,1-2.724-1.166,3.341,3.341,0,0,1,2.724-1.115c1.93,0,2.244,1.142,2.244,1.142" transform="translate(-184.833 -18.673)" fill="#fff"/>
        <path id="Trazado_183451" data-name="Trazado 183451" d="M214.621,40.389a1.349,1.349,0,0,0,.561,1.1,4.767,4.767,0,0,0,1.521,0,1.363,1.363,0,0,0,0-2.207,5.2,5.2,0,0,0-1.521,0,1.358,1.358,0,0,0-.561,1.1" transform="translate(-184.533 -18.682)" fill="#200e0d"/>
        <path id="Trazado_183452" data-name="Trazado 183452" d="M216.312,40.275a.538.538,0,1,1-.537-.539.537.537,0,0,1,.537.539" transform="translate(-184.366 -18.544)" fill="#100"/>
        <path id="Trazado_183453" data-name="Trazado 183453" d="M215.65,39.807a.242.242,0,1,1-.484,0,.242.242,0,0,1,.484,0" transform="translate(-184.385 -18.59)" fill="#fff"/>
        <path id="Trazado_183454" data-name="Trazado 183454" d="M215.724,40.2a.127.127,0,0,1-.13.127.128.128,0,0,1,0-.256.128.128,0,0,1,.13.128" transform="translate(-184.302 -18.453)" fill="#fff"/>
        <path id="Trazado_183455" data-name="Trazado 183455" d="M207.947,39.381c-1.511,0-1.278,1.124-1.762,1.425-.134-.084-.968-.36-.968-.36a3.19,3.19,0,0,1,2.73-1.344,2.979,2.979,0,0,1,2.651,1.319,1.11,1.11,0,0,0-.432.081c-.484-.3-.7-1.122-2.219-1.122" transform="translate(-187.087 -18.716)" fill="#200e0d"/>
        <path id="Trazado_183456" data-name="Trazado 183456" d="M205.508,40.4s.312,1.139,2.243,1.139a3.286,3.286,0,0,0,2.721-1.166,3.335,3.335,0,0,0-2.721-1.115c-1.932,0-2.243,1.142-2.243,1.142" transform="translate(-187.008 -18.673)" fill="#fff"/>
        <path id="Trazado_183457" data-name="Trazado 183457" d="M208.879,40.389a1.351,1.351,0,0,1-.567,1.1,4.744,4.744,0,0,1-1.517,0,1.359,1.359,0,0,1,0-2.207,5.169,5.169,0,0,1,1.517,0,1.36,1.36,0,0,1,.567,1.1" transform="translate(-186.812 -18.682)" fill="#200e0d"/>
        <path id="Trazado_183458" data-name="Trazado 183458" d="M206.848,40.275a.539.539,0,1,0,.539-.539.541.541,0,0,0-.539.539" transform="translate(-186.644 -18.544)" fill="#100"/>
        <path id="Trazado_183459" data-name="Trazado 183459" d="M207.384,39.807a.243.243,0,1,0,.242-.239.239.239,0,0,0-.242.239" transform="translate(-186.499 -18.59)" fill="#fff"/>
        <path id="Trazado_183460" data-name="Trazado 183460" d="M207.262,40.2a.125.125,0,0,0,.127.127.128.128,0,0,0,0-.256.125.125,0,0,0-.127.128" transform="translate(-186.532 -18.453)" fill="#fff"/>
      </g>
    </g>
    <g id="Grupo_141629" data-name="Grupo 141629">
      <g id="Grupo_141628" data-name="Grupo 141628" clip-path="url(#clip-path)">
        <rect id="Rectángulo_37079" data-name="Rectángulo 37079" width="35.005" height="6.622" transform="translate(299.268 31.261)" fill="#9f9fa6"/>
        <rect id="Rectángulo_37080" data-name="Rectángulo 37080" width="35.005" height="3.312" transform="translate(299.268 42.613)" fill="#cfd1d6"/>
        <rect id="Rectángulo_37081" data-name="Rectángulo 37081" width="35.005" height="3.312" transform="translate(299.268 49.393)" fill="#cfd1d6"/>
        <rect id="Rectángulo_37082" data-name="Rectángulo 37082" width="35.005" height="3.311" transform="translate(299.268 56.173)" fill="#cfd1d6"/>
        <rect id="Rectángulo_37083" data-name="Rectángulo 37083" width="35.005" height="3.311" transform="translate(299.268 62.953)" fill="#cfd1d6"/>
        <rect id="Rectángulo_37084" data-name="Rectángulo 37084" width="35.005" height="3.309" transform="translate(299.268 69.733)" fill="#cfd1d6"/>
        <rect id="Rectángulo_37085" data-name="Rectángulo 37085" width="35.005" height="3.31" transform="translate(299.268 76.511)" fill="#cfd1d6"/>
        <rect id="Rectángulo_37086" data-name="Rectángulo 37086" width="86.725" height="3.309" transform="translate(247.549 90.391)" fill="#cfd1d6"/>
        <rect id="Rectángulo_37087" data-name="Rectángulo 37087" width="86.725" height="3.311" transform="translate(247.549 98.59)" fill="#cfd1d6"/>
        <path id="Trazado_183462" data-name="Trazado 183462" d="M77.271,295.108c3.187,6.912,9.2,12.37,15.331,16.069l4.18,2.52,8.2,4.949q2.415,1.448,4.823,2.907c1.282.773,3.4.512,3.78-1.2.4-1.84-1.036-3.105-2.277-4.119-1.113-.91-2.131-1.952-3.225-2.892-2.284-1.97-4.464-4.06-6.742-6.037-.5-.437-.982-.932-1.508-1.345q.895.647,1.79,1.294,2.192,1.583,4.379,3.169,2.756,2,5.516,4,2.607,1.9,5.227,3.785c1.266.912,2.506,1.879,3.825,2.72,1.127.718,3.052,1.119,4.05-.062a2.968,2.968,0,0,0,.4-2.3,5.26,5.26,0,0,0-1.475-2.669c-.641-.587-1.242-1.177-1.841-1.811a66.531,66.531,0,0,0-5.248-4.8c-1.968-1.68-3.923-3.37-5.918-5.021q-2.491-2.06-4.977-4.126c-.774-.65-1.553-1.317-2.359-1.926l-.05-.029L126.479,316.5c1.558,1.222,5.372,3.269,7,.6.576-.938.237-2.964-.245-3.871a9.805,9.805,0,0,0-2.285-2.457c-1.722-1.558-3.353-3.175-5.136-4.673-3.653-3.072-7.277-6.173-11.037-9.116-.832-.651-1.634-1.349-2.488-1.967a88.544,88.544,0,0,0,8.794,6.5c3.489,2.374,5.707,4.355,8.45,5.964a6.092,6.092,0,0,0,2.528,1.172c1.225.014,2.822-.289,3.437-1.214.874-1.312-.065-3.756-1.249-4.782-6.868-5.933-11.7-9.912-18.018-13.836,0,0-5.377-3.267-5.826-3.813,0,0,10.34,5.661,17.111,4.4,0,0,8.918-4.49-5.576-7.512,0,0-8.181-3.651-13.268-6.135a30.617,30.617,0,0,0-21.584-1.755s-9.46-5.829-11.913-7.884L66.1,277.876s8.821,12.133,11.171,17.232" transform="translate(17.951 72.271)" fill="#db986c"/>
        <path id="Trazado_183463" data-name="Trazado 183463" d="M265.723,285.441c.638,7.582-1.9,15.293-5.409,21.539q-1.2,2.131-2.392,4.253l-4.691,8.35c-.924,1.635-1.84,3.273-2.762,4.908-.732,1.307-2.7,2.125-3.877.825-1.261-1.4-.631-3.213-.052-4.706.519-1.341.891-2.75,1.376-4.107,1.016-2.839,1.883-5.732,2.889-8.575.223-.629.392-1.3.647-1.915-.305.67-.613,1.338-.918,2.008q-1.129,2.459-2.246,4.917c-.941,2.066-1.89,4.13-2.827,6.2-.891,1.961-1.778,3.918-2.679,5.872-.654,1.419-1.251,2.874-1.985,4.253-.626,1.181-2.1,2.478-3.555,1.943a2.957,2.957,0,0,1-1.48-1.807,5.226,5.226,0,0,1-.033-3.05c.268-.828.5-1.637.706-2.482a66.8,66.8,0,0,1,2.2-6.763c.885-2.431,1.748-4.868,2.67-7.286q1.15-3.021,2.3-6.045c.35-.946.7-1.912,1.1-2.839a.486.486,0,0,1,.027-.05s-11.22,27.355-11.257,27.442c-.753,1.831-3.061,5.491-5.795,3.979-.966-.532-1.666-2.462-1.7-3.487a9.788,9.788,0,0,1,.777-3.264c.726-2.2,1.349-4.417,2.162-6.6,1.661-4.472,3.286-8.958,5.1-13.373.4-.977.755-1.98,1.2-2.94a88.06,88.06,0,0,1-4.445,9.992c-1.865,3.788-2.816,6.6-4.408,9.356a6.087,6.087,0,0,1-1.617,2.267c-1.06.617-2.6,1.142-3.593.641-1.405-.711-1.8-3.3-1.272-4.776,3.048-8.55,5.29-14.4,8.846-20.926,0,0,3.07-5.493,3.189-6.193,0,0-6.2,10.028-12.711,12.276,0,0-9.974.493,1.144-9.286,0,0,5.315-7.21,8.512-11.88a30.611,30.611,0,0,1,17.911-12.175s5.352-9.738,6.471-12.735l19.651,8.241s-7.647,12.408-7.173,18" transform="translate(58.412 70.389)" fill="#db986c"/>
        <path id="Trazado_183464" data-name="Trazado 183464" d="M147.226,152.58s4.656,13.14-8.695,23.081c0,0,30.518,31.348,70.572,0,0,0-15.259-1.531-9.537-31.35Z" transform="translate(37.62 39.19)" fill="#c58258"/>
        <path id="Trazado_183465" data-name="Trazado 183465" d="M324.108,281.747,296.4,209.317c-6.159-18.047-21.932-28.955-38.418-35.7q-13.437-5.5-26.9-10.966c-30.075,32.851-67.766,0-67.766,0-5.573,3.065-11.119,6.179-16.679,9.271-15.48,8.61-33.759,15.03-43.355,30.883L59.2,280.052s4.028,29.034,15.415,36.394c0,0,3.236-17.743,26.9-15.254l-3.745-18.319,38.994-39.7,6.184,67.393H246.876l8.143-67.359,32.85,37.9L273.2,307.391c24.582-10.173,34.953,6.574,34.953,6.574s12.309-14.871,15.957-32.218" transform="translate(16.075 44.17)" fill="#333132"/>
        <path id="Trazado_183466" data-name="Trazado 183466" d="M223.512,124.972c-.06-38.851-21.306-59.994-47.5-59.994s-47.443,21.142-47.5,59.994c-1.5.023-9.342.554-4.883,9.476a25.21,25.21,0,0,1,5.127,13.3s1.7,4.019,4.209,2.181A77.341,77.341,0,0,0,160.02,185.1s17.728,11.623,30.879,1.288c12.557-7.736,23.41-19.318,28.863-36.086,2.121.718,3.507-2.556,3.507-2.556a25.21,25.21,0,0,1,5.123-13.3c4.458-8.92-3.377-9.453-4.88-9.476" transform="translate(33.203 17.646)" fill="#db986c"/>
        <path id="Trazado_183467" data-name="Trazado 183467" d="M223.252,128.063c-1.555,3.3-8.722,7.846-7.947,12.126h0c-.961-1.5.144-6.156,0-7.993a59.823,59.823,0,0,0-1.589-9.228c-1.545-6.5-3.452-12.324-7.225-17.874-4.448-6.546-9.5-10.846-18.206-10.409-5.24.264-13.114,1.526-13.98,7.853-4.468-10.619-23.558-10.462-29.889-1.672-3.71,5.151-5.23,10.932-6.1,17.1-.526,3.71-.74,7.479-1.455,11.126-.432,2.193-.766,6.719-1.977,8.194,0,0-1.23-6.425-7.132-9.412-5.822-2.944-.559-31.586.693-35.842,6-20.447,23.876-32.386,44.375-34.555,10.3-1.09,20.494-3.793,31.026-3.034a42.232,42.232,0,0,0-6.624,6.151c5.985-.961,11.65-2.843,18.036-2.369-3.382,2.48-1.826,6.269-3.522,9.983,7.416-.45,12.91,8.727,16.735,14-3.551-.941-6.9-2.768-10.429-3.78,15.612,4.485,9.909,39.655,5.216,49.636" transform="translate(33.962 14.748)" fill="#311e0d"/>
        <path id="Trazado_183468" data-name="Trazado 183468" d="M143.654,162.647,131.6,169.342s21.38,19.478,43.387,19.585c.238,0,.474,0,.712,0,22.252-.318,37.693-6.655,46.024-22.083l-10.3-4.192s-16.9,15-31.4,14.6c0,0-15.451.765-36.369-14.6" transform="translate(35.738 44.17)" fill="#e8eaed"/>
        <path id="Rectángulo_37088" data-name="Rectángulo 37088" d="M5.936,0H168.7a5.936,5.936,0,0,1,5.936,5.936V125.524a5.936,5.936,0,0,1-5.936,5.936H5.937A5.937,5.937,0,0,1,0,125.523V5.936A5.936,5.936,0,0,1,5.936,0Z" transform="translate(121.626 263.283)" fill="#17100d"/>
        <path id="Trazado_183469" data-name="Trazado 183469" d="M97.281,214.25v65.094c0,29.642,3.3,53.67,7.364,53.67H260.278c4.068,0,7.364-24.029,7.364-53.67V214.25Z" transform="translate(26.418 58.183)" fill="#757479"/>
        <rect id="Rectángulo_37089" data-name="Rectángulo 37089" width="24.12" height="5.69" transform="translate(147.77 392.788)" fill="#757479"/>
        <rect id="Rectángulo_37090" data-name="Rectángulo 37090" width="24.118" height="5.69" transform="translate(241.719 392.788)" fill="#757479"/>
        <path id="Trazado_183470" data-name="Trazado 183470" d="M81.691,315.183H292.359s-2.906,9.221-8.174,12.733H100.762s-17.231-1.757-19.071-12.733" transform="translate(22.185 85.593)" fill="#17100d"/>
        <path id="Trazado_183471" data-name="Trazado 183471" d="M196.652,109.958a34.654,34.654,0,0,0-7.355,1.334c-.59.181-1.169.379-1.731.6a37.481,37.481,0,0,1-23.616.212A22.944,22.944,0,0,0,161.283,111l-.005,0h0a33.543,33.543,0,0,0-8.156-1.591c-20.429-1.6-23.74,6.948-20.3,17.044,3.048,8.952,7.89,13.536,19.175,13.536s17.012-3.047,19.175-13.536a14.749,14.749,0,0,0,.254-4.784c2.716-2.4,5.428-1.241,7.02-.1A14.42,14.42,0,0,0,178.6,127c2.163,10.488,7.893,13.536,19.175,13.536s16.129-4.584,19.174-13.536c3.44-10.1.126-18.642-20.3-17.047M168.464,126.6c-1.793,8.183-6.535,10.56-15.873,10.56s-13.349-3.578-15.872-10.56c-2.843-7.879-.1-14.543,16.806-13.3,9.313.684,16.8,4.771,14.938,13.3m44.594.547c-2.52,6.985-6.535,10.56-15.872,10.56s-14.08-2.378-15.873-10.56c-1.865-8.527,5.625-12.613,14.938-13.3,16.911-1.246,19.65,5.421,16.806,13.3" transform="translate(35.75 29.66)" fill="#17100d"/>
        <path id="Trazado_183472" data-name="Trazado 183472" d="M135.875,123.209l-4.945,1.272-1.9-12.787h7.885Z" transform="translate(35.039 30.332)" fill="#17100d"/>
        <path id="Trazado_183473" data-name="Trazado 183473" d="M197.251,123.209l4.945,1.272,1.9-12.787h-7.882Z" transform="translate(53.285 30.332)" fill="#17100d"/>
      </g>
    </g>
  </g>
</svg>
