<svg xmlns="http://www.w3.org/2000/svg" width="620.288" height="331" viewBox="0 0 620.288 331">
  <g id="Grupo_141696" data-name="Grupo 141696" transform="translate(-709.843 -9436)">
    <g id="Rectángulo_36935" data-name="Rectángulo 36935" transform="translate(781 9436)" fill="none" stroke="#1d67bd" stroke-width="2">
      <rect width="484" height="331" stroke="none"/>
      <rect x="1" y="1" width="482" height="329" fill="none"/>
    </g>
    <g id="Grupo_141434" data-name="Grupo 141434" transform="translate(1289.97 9538.254)">
      <g id="Elipse_4826" data-name="Elipse 4826" transform="translate(2.03 -0.254)" fill="none" stroke="#2fa69a" stroke-width="3">
        <ellipse cx="17.5" cy="18" rx="17.5" ry="18" stroke="none"/>
        <ellipse cx="17.5" cy="18" rx="16" ry="16.5" fill="none"/>
      </g>
      <line id="Línea_235" data-name="Línea 235" y1="41" transform="translate(19.03 35.746)" fill="none" stroke="#2fa69a" stroke-width="3"/>
      <line id="Línea_236" data-name="Línea 236" y1="23" x2="19" transform="translate(0.03 76.746)" fill="none" stroke="#2fa69a" stroke-width="3"/>
      <line id="Línea_237" data-name="Línea 237" x1="20" y1="23" transform="translate(19.03 76.746)" fill="none" stroke="#2fa69a" stroke-width="3"/>
      <line id="Línea_238" data-name="Línea 238" x2="36.392" transform="translate(1.453 53.695)" fill="none" stroke="#2fa69a" stroke-width="3"/>
    </g>
    <g id="Grupo_141435" data-name="Grupo 141435" transform="translate(710.97 9490.254)">
      <g id="Elipse_4826-2" data-name="Elipse 4826" transform="translate(2.03 -0.254)" fill="none" stroke="#2fa69a" stroke-width="3">
        <ellipse cx="17.5" cy="18" rx="17.5" ry="18" stroke="none"/>
        <ellipse cx="17.5" cy="18" rx="16" ry="16.5" fill="none"/>
      </g>
      <line id="Línea_235-2" data-name="Línea 235" y1="41" transform="translate(19.03 35.746)" fill="none" stroke="#2fa69a" stroke-width="3"/>
      <line id="Línea_236-2" data-name="Línea 236" y1="23" x2="19" transform="translate(0.03 76.746)" fill="none" stroke="#2fa69a" stroke-width="3"/>
      <line id="Línea_237-2" data-name="Línea 237" x1="20" y1="23" transform="translate(19.03 76.746)" fill="none" stroke="#2fa69a" stroke-width="3"/>
      <line id="Línea_238-2" data-name="Línea 238" x2="36.392" transform="translate(1.453 53.695)" fill="none" stroke="#2fa69a" stroke-width="3"/>
    </g>
    <g id="Elipse_4836" data-name="Elipse 4836" transform="translate(858 9449)" fill="none" stroke="#1d67bd" stroke-width="3">
      <ellipse cx="113.5" cy="41" rx="113.5" ry="41" stroke="none"/>
      <ellipse cx="113.5" cy="41" rx="112" ry="39.5" fill="none"/>
    </g>
    <g id="Elipse_4837" data-name="Elipse 4837" transform="translate(858 9547)" fill="none" stroke="#1d67bd" stroke-width="3">
      <ellipse cx="113.5" cy="42" rx="113.5" ry="42" stroke="none"/>
      <ellipse cx="113.5" cy="42" rx="112" ry="40.5" fill="none"/>
    </g>
    <g id="Elipse_4835" data-name="Elipse 4835" transform="translate(1023 9654)" fill="none" stroke="#1d67bd" stroke-width="3">
      <ellipse cx="112.5" cy="41.5" rx="112.5" ry="41.5" stroke="none"/>
      <ellipse cx="112.5" cy="41.5" rx="111" ry="40" fill="none"/>
    </g>
    <g id="Elipse_4838" data-name="Elipse 4838" transform="translate(794 9654)" fill="none" stroke="#1d67bd" stroke-width="3">
      <ellipse cx="112.5" cy="41.5" rx="112.5" ry="41.5" stroke="none"/>
      <ellipse cx="112.5" cy="41.5" rx="111" ry="40" fill="none"/>
    </g>
    <path id="Trazado_183805" data-name="Trazado 183805" d="M10.934,15.321a3.9,3.9,0,0,1-1.815,1.393,7.331,7.331,0,0,1-2.711.461,5.258,5.258,0,0,1-2.777-.734,4.889,4.889,0,0,1-1.876-2.087,7.21,7.21,0,0,1-.681-3.138V10.1A6.73,6.73,0,0,1,2.421,5.618,4.7,4.7,0,0,1,6.214,4.027,4.856,4.856,0,0,1,9.439,5.051a4.461,4.461,0,0,1,1.494,2.9H9.246A2.79,2.79,0,0,0,6.223,5.407,2.987,2.987,0,0,0,3.652,6.6a5.82,5.82,0,0,0-.883,3.453V11.1a5.454,5.454,0,0,0,.984,3.426A3.191,3.191,0,0,0,6.416,15.8a5.882,5.882,0,0,0,1.661-.21,2.569,2.569,0,0,0,1.178-.71V12.008H6.293v-1.38h4.641Zm6.5,1.854a4.155,4.155,0,0,1-3.146-1.27,4.714,4.714,0,0,1-1.213-3.4v-.3a5.707,5.707,0,0,1,.541-2.527,4.217,4.217,0,0,1,1.512-1.74,3.8,3.8,0,0,1,2.1-.628,3.562,3.562,0,0,1,2.883,1.222,5.289,5.289,0,0,1,1.028,3.5v.677H14.7a3.38,3.38,0,0,0,.822,2.272,2.583,2.583,0,0,0,2,.866,2.832,2.832,0,0,0,1.459-.352,3.666,3.666,0,0,0,1.046-.932l.993.773A3.993,3.993,0,0,1,17.438,17.176Zm-.2-8.525a2.169,2.169,0,0,0-1.652.716,3.482,3.482,0,0,0-.826,2.008h4.764v-.123a3.1,3.1,0,0,0-.668-1.92A2.042,2.042,0,0,0,17.235,8.65Zm7.33-1.16.053,1.2a3.465,3.465,0,0,1,2.848-1.371q3.015,0,3.041,3.4V17H28.881V10.707a2.189,2.189,0,0,0-.47-1.521,1.884,1.884,0,0,0-1.437-.492,2.347,2.347,0,0,0-1.389.422,2.865,2.865,0,0,0-.932,1.107V17H23.027V7.49Zm12.34,9.686a4.155,4.155,0,0,1-3.146-1.27,4.714,4.714,0,0,1-1.213-3.4v-.3a5.707,5.707,0,0,1,.541-2.527A4.217,4.217,0,0,1,34.6,7.943a3.8,3.8,0,0,1,2.1-.628,3.562,3.562,0,0,1,2.883,1.222,5.289,5.289,0,0,1,1.028,3.5v.677H34.172a3.38,3.38,0,0,0,.822,2.272,2.583,2.583,0,0,0,2,.866,2.832,2.832,0,0,0,1.459-.352,3.666,3.666,0,0,0,1.046-.932l.993.773A3.993,3.993,0,0,1,36.905,17.176ZM36.7,8.65a2.169,2.169,0,0,0-1.652.716,3.482,3.482,0,0,0-.826,2.008h4.764v-.123a3.1,3.1,0,0,0-.668-1.92A2.042,2.042,0,0,0,36.7,8.65Zm10.389.3a4.873,4.873,0,0,0-.8-.062,2.143,2.143,0,0,0-2.171,1.362V17H42.5V7.49h1.582l.026,1.1a2.532,2.532,0,0,1,2.268-1.274,1.661,1.661,0,0,1,.721.123ZM54.105,17a3.416,3.416,0,0,1-.229-1,3.628,3.628,0,0,1-2.707,1.178,3.357,3.357,0,0,1-2.307-.8,2.573,2.573,0,0,1-.9-2.017,2.688,2.688,0,0,1,1.129-2.307,5.325,5.325,0,0,1,3.177-.822h1.582v-.747a1.826,1.826,0,0,0-.51-1.358,2.049,2.049,0,0,0-1.5-.505,2.371,2.371,0,0,0-1.459.439,1.3,1.3,0,0,0-.589,1.063H48.155a2.244,2.244,0,0,1,.505-1.375A3.449,3.449,0,0,1,50.032,7.7a4.613,4.613,0,0,1,1.9-.387,3.759,3.759,0,0,1,2.575.822,2.964,2.964,0,0,1,.967,2.263v4.377a5.351,5.351,0,0,0,.334,2.083V17Zm-2.7-1.239a2.858,2.858,0,0,0,1.45-.4,2.392,2.392,0,0,0,.993-1.028V12.386H52.576q-2.988,0-2.988,1.749a1.48,1.48,0,0,0,.51,1.2A1.959,1.959,0,0,0,51.407,15.761ZM62.622,8.949a4.873,4.873,0,0,0-.8-.062,2.143,2.143,0,0,0-2.171,1.362V17H58.025V7.49h1.582l.026,1.1A2.532,2.532,0,0,1,61.9,7.314a1.661,1.661,0,0,1,.721.123ZM69.372,17V8.747h-1.5V7.49h1.5V6.515a3.238,3.238,0,0,1,.817-2.364A3.088,3.088,0,0,1,72.5,3.315a4.293,4.293,0,0,1,1.116.148l-.088,1.311A4.67,4.67,0,0,0,72.65,4.7a1.586,1.586,0,0,0-1.222.463A1.877,1.877,0,0,0,71,6.485V7.49h2.03V8.747H71V17Zm11.32,0a3.416,3.416,0,0,1-.229-1,3.628,3.628,0,0,1-2.707,1.178,3.357,3.357,0,0,1-2.307-.8,2.573,2.573,0,0,1-.9-2.017,2.688,2.688,0,0,1,1.129-2.307,5.325,5.325,0,0,1,3.177-.822h1.582v-.747a1.826,1.826,0,0,0-.51-1.358,2.049,2.049,0,0,0-1.5-.505,2.371,2.371,0,0,0-1.459.439,1.3,1.3,0,0,0-.589,1.063H74.742a2.244,2.244,0,0,1,.505-1.375A3.449,3.449,0,0,1,76.619,7.7a4.613,4.613,0,0,1,1.9-.387,3.759,3.759,0,0,1,2.575.822,2.964,2.964,0,0,1,.967,2.263v4.377a5.351,5.351,0,0,0,.334,2.083V17Zm-2.7-1.239a2.858,2.858,0,0,0,1.45-.4,2.392,2.392,0,0,0,.993-1.028V12.386H79.163q-2.988,0-2.988,1.749a1.48,1.48,0,0,0,.51,1.2A1.959,1.959,0,0,0,77.994,15.761Zm10.433.088a2.342,2.342,0,0,0,1.521-.527A1.855,1.855,0,0,0,90.668,14h1.538a2.949,2.949,0,0,1-.562,1.556,3.7,3.7,0,0,1-1.384,1.178,3.994,3.994,0,0,1-1.833.439,3.918,3.918,0,0,1-3.089-1.3,5.163,5.163,0,0,1-1.147-3.546v-.272a5.725,5.725,0,0,1,.51-2.47,3.883,3.883,0,0,1,1.463-1.679,4.157,4.157,0,0,1,2.254-.6,3.814,3.814,0,0,1,2.659.958,3.424,3.424,0,0,1,1.129,2.487H90.668a2.241,2.241,0,0,0-.7-1.516,2.174,2.174,0,0,0-1.551-.593,2.276,2.276,0,0,0-1.92.892,4.19,4.19,0,0,0-.681,2.58v.308a4.106,4.106,0,0,0,.677,2.531A2.287,2.287,0,0,0,88.427,15.849ZM96.24,5.188v2.3h1.775V8.747H96.24v5.9a1.32,1.32,0,0,0,.237.858,1,1,0,0,0,.809.286,3.937,3.937,0,0,0,.773-.105V17a4.742,4.742,0,0,1-1.248.175,2.025,2.025,0,0,1-1.644-.659,2.832,2.832,0,0,1-.554-1.872v-5.9H92.883V7.49h1.731v-2.3Zm9.545,10.872A3.454,3.454,0,0,1,103,17.176a2.956,2.956,0,0,1-2.316-.883,3.823,3.823,0,0,1-.8-2.615V7.49H101.5v6.144q0,2.162,1.758,2.162a2.434,2.434,0,0,0,2.479-1.389V7.49h1.626V17H105.82Zm8.648-7.11a4.873,4.873,0,0,0-.8-.062,2.143,2.143,0,0,0-2.171,1.362V17h-1.626V7.49h1.582l.026,1.1a2.532,2.532,0,0,1,2.268-1.274,1.661,1.661,0,0,1,.721.123ZM121.447,17a3.416,3.416,0,0,1-.229-1,3.628,3.628,0,0,1-2.707,1.178,3.357,3.357,0,0,1-2.307-.8,2.573,2.573,0,0,1-.9-2.017,2.688,2.688,0,0,1,1.129-2.307,5.325,5.325,0,0,1,3.177-.822h1.582v-.747a1.826,1.826,0,0,0-.51-1.358,2.049,2.049,0,0,0-1.5-.505,2.371,2.371,0,0,0-1.459.439,1.3,1.3,0,0,0-.589,1.063H115.5A2.244,2.244,0,0,1,116,8.751a3.449,3.449,0,0,1,1.371-1.05,4.613,4.613,0,0,1,1.9-.387,3.759,3.759,0,0,1,2.575.822,2.964,2.964,0,0,1,.967,2.263v4.377a5.351,5.351,0,0,0,.334,2.083V17Zm-2.7-1.239a2.858,2.858,0,0,0,1.45-.4,2.392,2.392,0,0,0,.993-1.028V12.386h-1.274q-2.988,0-2.988,1.749a1.48,1.48,0,0,0,.51,1.2A1.959,1.959,0,0,0,118.749,15.761Z" transform="translate(906 9478)" fill="#12263f"/>
    <path id="Trazado_183806" data-name="Trazado 183806" d="M8.719,11.085H3.173V15.62H9.615V17H1.485V4.2H9.527v1.38H3.173V9.705H8.719ZM13,7.49l.053,1.2A3.465,3.465,0,0,1,15.9,7.314q3.015,0,3.041,3.4V17H17.314V10.707a2.189,2.189,0,0,0-.47-1.521,1.884,1.884,0,0,0-1.437-.492,2.347,2.347,0,0,0-1.389.422,2.865,2.865,0,0,0-.932,1.107V17H11.461V7.49Zm11.531,7.3,2.355-7.3h1.661L25.137,17H23.9L20.452,7.49h1.661ZM31.878,17H30.252V7.49h1.626ZM30.12,4.968a.971.971,0,0,1,.242-.668.907.907,0,0,1,.716-.272A.922.922,0,0,1,31.8,4.3a.96.96,0,0,1,.246.668.929.929,0,0,1-.246.659.938.938,0,0,1-.721.264.924.924,0,0,1-.716-.264A.938.938,0,0,1,30.12,4.968ZM40.351,17a3.416,3.416,0,0,1-.229-1,3.628,3.628,0,0,1-2.707,1.178,3.357,3.357,0,0,1-2.307-.8,2.573,2.573,0,0,1-.9-2.017,2.688,2.688,0,0,1,1.129-2.307,5.325,5.325,0,0,1,3.177-.822H40.1v-.747a1.826,1.826,0,0,0-.51-1.358,2.049,2.049,0,0,0-1.5-.505,2.371,2.371,0,0,0-1.459.439,1.3,1.3,0,0,0-.589,1.063H34.4a2.244,2.244,0,0,1,.505-1.375A3.449,3.449,0,0,1,36.277,7.7a4.613,4.613,0,0,1,1.9-.387,3.759,3.759,0,0,1,2.575.822,2.964,2.964,0,0,1,.967,2.263v4.377a5.351,5.351,0,0,0,.334,2.083V17Zm-2.7-1.239a2.858,2.858,0,0,0,1.45-.4,2.392,2.392,0,0,0,.993-1.028V12.386H38.821q-2.988,0-2.988,1.749a1.48,1.48,0,0,0,.51,1.2A1.959,1.959,0,0,0,37.652,15.761ZM48.867,8.949a4.873,4.873,0,0,0-.8-.062A2.143,2.143,0,0,0,45.9,10.25V17H44.271V7.49h1.582l.026,1.1a2.532,2.532,0,0,1,2.268-1.274,1.661,1.661,0,0,1,.721.123ZM55.617,17V8.747h-1.5V7.49h1.5V6.515a3.238,3.238,0,0,1,.817-2.364,3.088,3.088,0,0,1,2.312-.835,4.293,4.293,0,0,1,1.116.148l-.088,1.311A4.67,4.67,0,0,0,58.9,4.7a1.586,1.586,0,0,0-1.222.463,1.877,1.877,0,0,0-.431,1.327V7.49h2.03V8.747h-2.03V17Zm11.32,0a3.416,3.416,0,0,1-.229-1A3.628,3.628,0,0,1,64,17.176a3.357,3.357,0,0,1-2.307-.8,2.573,2.573,0,0,1-.9-2.017,2.688,2.688,0,0,1,1.129-2.307,5.325,5.325,0,0,1,3.177-.822h1.582v-.747a1.826,1.826,0,0,0-.51-1.358,2.049,2.049,0,0,0-1.5-.505,2.371,2.371,0,0,0-1.459.439,1.3,1.3,0,0,0-.589,1.063H60.987a2.244,2.244,0,0,1,.505-1.375A3.449,3.449,0,0,1,62.864,7.7a4.613,4.613,0,0,1,1.9-.387,3.759,3.759,0,0,1,2.575.822,2.964,2.964,0,0,1,.967,2.263v4.377a5.351,5.351,0,0,0,.334,2.083V17Zm-2.7-1.239a2.858,2.858,0,0,0,1.45-.4,2.392,2.392,0,0,0,.993-1.028V12.386H65.408q-2.988,0-2.988,1.749a1.48,1.48,0,0,0,.51,1.2A1.959,1.959,0,0,0,64.239,15.761Zm10.433.088a2.342,2.342,0,0,0,1.521-.527A1.855,1.855,0,0,0,76.913,14h1.538a2.949,2.949,0,0,1-.562,1.556A3.7,3.7,0,0,1,76.5,16.736a3.994,3.994,0,0,1-1.833.439,3.918,3.918,0,0,1-3.089-1.3,5.163,5.163,0,0,1-1.147-3.546v-.272a5.725,5.725,0,0,1,.51-2.47,3.883,3.883,0,0,1,1.463-1.679,4.157,4.157,0,0,1,2.254-.6,3.814,3.814,0,0,1,2.659.958,3.424,3.424,0,0,1,1.129,2.487H76.913a2.241,2.241,0,0,0-.7-1.516,2.174,2.174,0,0,0-1.551-.593,2.276,2.276,0,0,0-1.92.892,4.19,4.19,0,0,0-.681,2.58v.308a4.106,4.106,0,0,0,.677,2.531A2.287,2.287,0,0,0,74.672,15.849ZM82.485,5.188v2.3h1.775V8.747H82.485v5.9a1.32,1.32,0,0,0,.237.858,1,1,0,0,0,.809.286,3.937,3.937,0,0,0,.773-.105V17a4.742,4.742,0,0,1-1.248.175,2.025,2.025,0,0,1-1.644-.659,2.832,2.832,0,0,1-.554-1.872v-5.9H79.128V7.49h1.731v-2.3ZM92.03,16.06a3.454,3.454,0,0,1-2.786,1.116,2.956,2.956,0,0,1-2.316-.883,3.823,3.823,0,0,1-.8-2.615V7.49H87.75v6.144q0,2.162,1.758,2.162a2.434,2.434,0,0,0,2.479-1.389V7.49h1.626V17H92.065Zm8.648-7.11a4.873,4.873,0,0,0-.8-.062,2.143,2.143,0,0,0-2.171,1.362V17H96.082V7.49h1.582l.026,1.1a2.532,2.532,0,0,1,2.268-1.274,1.661,1.661,0,0,1,.721.123ZM107.692,17a3.416,3.416,0,0,1-.229-1,3.628,3.628,0,0,1-2.707,1.178,3.357,3.357,0,0,1-2.307-.8,2.573,2.573,0,0,1-.9-2.017,2.688,2.688,0,0,1,1.129-2.307,5.325,5.325,0,0,1,3.177-.822h1.582v-.747a1.826,1.826,0,0,0-.51-1.358,2.049,2.049,0,0,0-1.5-.505,2.371,2.371,0,0,0-1.459.439,1.3,1.3,0,0,0-.589,1.063h-1.635a2.244,2.244,0,0,1,.505-1.375,3.449,3.449,0,0,1,1.371-1.05,4.613,4.613,0,0,1,1.9-.387,3.759,3.759,0,0,1,2.575.822,2.964,2.964,0,0,1,.967,2.263v4.377a5.351,5.351,0,0,0,.334,2.083V17Zm-2.7-1.239a2.858,2.858,0,0,0,1.45-.4,2.392,2.392,0,0,0,.993-1.028V12.386h-1.274q-2.988,0-2.988,1.749a1.48,1.48,0,0,0,.51,1.2A1.959,1.959,0,0,0,104.994,15.761Z" transform="translate(906 9578)" fill="#12263f"/>
    <path id="Trazado_183808" data-name="Trazado 183808" d="M21.028,11.085H15.482V15.62h6.442V17h-8.13V4.2h8.042v1.38H15.482V9.705h5.546Zm4.28-3.595.053,1.2a3.465,3.465,0,0,1,2.848-1.371q3.015,0,3.041,3.4V17H29.624V10.707a2.189,2.189,0,0,0-.47-1.521,1.884,1.884,0,0,0-1.437-.492,2.347,2.347,0,0,0-1.389.422,2.865,2.865,0,0,0-.932,1.107V17H23.77V7.49Zm11.531,7.3,2.355-7.3h1.661L37.446,17H36.207L32.761,7.49h1.661ZM44.187,17H42.561V7.49h1.626ZM42.429,4.968a.971.971,0,0,1,.242-.668.907.907,0,0,1,.716-.272.922.922,0,0,1,.721.272.96.96,0,0,1,.246.668.929.929,0,0,1-.246.659.938.938,0,0,1-.721.264.924.924,0,0,1-.716-.264A.938.938,0,0,1,42.429,4.968ZM52.66,17a3.416,3.416,0,0,1-.229-1,3.628,3.628,0,0,1-2.707,1.178,3.357,3.357,0,0,1-2.307-.8,2.573,2.573,0,0,1-.9-2.017,2.688,2.688,0,0,1,1.129-2.307,5.325,5.325,0,0,1,3.177-.822H52.4v-.747a1.826,1.826,0,0,0-.51-1.358,2.049,2.049,0,0,0-1.5-.505,2.371,2.371,0,0,0-1.459.439,1.3,1.3,0,0,0-.589,1.063H46.709a2.244,2.244,0,0,1,.505-1.375A3.449,3.449,0,0,1,48.586,7.7a4.613,4.613,0,0,1,1.9-.387,3.759,3.759,0,0,1,2.575.822,2.964,2.964,0,0,1,.967,2.263v4.377a5.351,5.351,0,0,0,.334,2.083V17Zm-2.7-1.239a2.858,2.858,0,0,0,1.45-.4,2.392,2.392,0,0,0,.993-1.028V12.386H51.13q-2.988,0-2.988,1.749a1.48,1.48,0,0,0,.51,1.2A1.959,1.959,0,0,0,49.961,15.761ZM61.176,8.949a4.873,4.873,0,0,0-.8-.062,2.143,2.143,0,0,0-2.171,1.362V17H56.58V7.49h1.582l.026,1.1a2.532,2.532,0,0,1,2.268-1.274,1.661,1.661,0,0,1,.721.123ZM67.926,17V8.747h-1.5V7.49h1.5V6.515a3.238,3.238,0,0,1,.817-2.364,3.088,3.088,0,0,1,2.312-.835,4.293,4.293,0,0,1,1.116.148l-.088,1.311A4.67,4.67,0,0,0,71.2,4.7a1.586,1.586,0,0,0-1.222.463,1.877,1.877,0,0,0-.431,1.327V7.49h2.03V8.747h-2.03V17Zm11.32,0a3.416,3.416,0,0,1-.229-1,3.628,3.628,0,0,1-2.707,1.178A3.357,3.357,0,0,1,74,16.38a2.573,2.573,0,0,1-.9-2.017,2.688,2.688,0,0,1,1.129-2.307,5.325,5.325,0,0,1,3.177-.822h1.582v-.747a1.826,1.826,0,0,0-.51-1.358,2.049,2.049,0,0,0-1.5-.505,2.371,2.371,0,0,0-1.459.439,1.3,1.3,0,0,0-.589,1.063H73.3A2.244,2.244,0,0,1,73.8,8.751,3.449,3.449,0,0,1,75.173,7.7a4.613,4.613,0,0,1,1.9-.387,3.759,3.759,0,0,1,2.575.822,2.964,2.964,0,0,1,.967,2.263v4.377a5.351,5.351,0,0,0,.334,2.083V17Zm-2.7-1.239a2.858,2.858,0,0,0,1.45-.4,2.392,2.392,0,0,0,.993-1.028V12.386H77.717q-2.988,0-2.988,1.749a1.48,1.48,0,0,0,.51,1.2A1.959,1.959,0,0,0,76.548,15.761Zm10.433.088a2.342,2.342,0,0,0,1.521-.527A1.855,1.855,0,0,0,89.222,14H90.76a2.949,2.949,0,0,1-.562,1.556,3.7,3.7,0,0,1-1.384,1.178,3.994,3.994,0,0,1-1.833.439,3.918,3.918,0,0,1-3.089-1.3,5.163,5.163,0,0,1-1.147-3.546v-.272a5.725,5.725,0,0,1,.51-2.47,3.883,3.883,0,0,1,1.463-1.679,4.157,4.157,0,0,1,2.254-.6,3.814,3.814,0,0,1,2.659.958A3.424,3.424,0,0,1,90.76,10.76H89.222a2.241,2.241,0,0,0-.7-1.516,2.174,2.174,0,0,0-1.551-.593,2.276,2.276,0,0,0-1.92.892,4.19,4.19,0,0,0-.681,2.58v.308a4.106,4.106,0,0,0,.677,2.531A2.287,2.287,0,0,0,86.981,15.849ZM94.794,5.188v2.3H96.57V8.747H94.794v5.9a1.32,1.32,0,0,0,.237.858,1,1,0,0,0,.809.286,3.937,3.937,0,0,0,.773-.105V17a4.742,4.742,0,0,1-1.248.175,2.025,2.025,0,0,1-1.644-.659,2.832,2.832,0,0,1-.554-1.872v-5.9H91.437V7.49h1.731v-2.3Zm9.545,10.872a3.454,3.454,0,0,1-2.786,1.116,2.956,2.956,0,0,1-2.316-.883,3.823,3.823,0,0,1-.8-2.615V7.49h1.626v6.144q0,2.162,1.758,2.162a2.434,2.434,0,0,0,2.479-1.389V7.49h1.626V17h-1.547Zm8.648-7.11a4.873,4.873,0,0,0-.8-.062,2.143,2.143,0,0,0-2.171,1.362V17h-1.626V7.49h1.582l.026,1.1a2.532,2.532,0,0,1,2.268-1.274,1.661,1.661,0,0,1,.721.123ZM120,17a3.416,3.416,0,0,1-.229-1,3.628,3.628,0,0,1-2.707,1.178,3.357,3.357,0,0,1-2.307-.8,2.573,2.573,0,0,1-.9-2.017,2.688,2.688,0,0,1,1.129-2.307,5.325,5.325,0,0,1,3.177-.822h1.582v-.747a1.826,1.826,0,0,0-.51-1.358,2.049,2.049,0,0,0-1.5-.505,2.371,2.371,0,0,0-1.459.439,1.3,1.3,0,0,0-.589,1.063h-1.635a2.244,2.244,0,0,1,.505-1.375,3.449,3.449,0,0,1,1.371-1.05,4.613,4.613,0,0,1,1.9-.387,3.759,3.759,0,0,1,2.575.822,2.964,2.964,0,0,1,.967,2.263v4.377a5.351,5.351,0,0,0,.334,2.083V17Zm-2.7-1.239a2.858,2.858,0,0,0,1.45-.4,2.392,2.392,0,0,0,.993-1.028V12.386h-1.274q-2.988,0-2.988,1.749a1.48,1.48,0,0,0,.51,1.2A1.959,1.959,0,0,0,117.3,15.761ZM46.793,40.849a2.342,2.342,0,0,0,1.521-.527A1.855,1.855,0,0,0,49.034,39h1.538a2.949,2.949,0,0,1-.562,1.556,3.7,3.7,0,0,1-1.384,1.178,3.994,3.994,0,0,1-1.833.439,3.918,3.918,0,0,1-3.089-1.3,5.163,5.163,0,0,1-1.147-3.546v-.272a5.725,5.725,0,0,1,.51-2.47,3.883,3.883,0,0,1,1.463-1.679,4.157,4.157,0,0,1,2.254-.6,3.814,3.814,0,0,1,2.659.958,3.424,3.424,0,0,1,1.129,2.487H49.034a2.241,2.241,0,0,0-.7-1.516,2.174,2.174,0,0,0-1.551-.593,2.276,2.276,0,0,0-1.92.892,4.19,4.19,0,0,0-.681,2.58v.308a4.106,4.106,0,0,0,.677,2.531A2.287,2.287,0,0,0,46.793,40.849Zm5.177-3.691a5.617,5.617,0,0,1,.549-2.514,4.1,4.1,0,0,1,1.529-1.723,4.163,4.163,0,0,1,2.237-.606,4.01,4.01,0,0,1,3.142,1.345,5.174,5.174,0,0,1,1.2,3.577v.114a5.666,5.666,0,0,1-.532,2.492,4.038,4.038,0,0,1-1.521,1.718,4.211,4.211,0,0,1-2.272.615,4,4,0,0,1-3.133-1.345,5.147,5.147,0,0,1-1.2-3.56Zm1.635.193a4.068,4.068,0,0,0,.734,2.54,2.487,2.487,0,0,0,3.933-.013A4.449,4.449,0,0,0,59,37.157a4.061,4.061,0,0,0-.743-2.536,2.361,2.361,0,0,0-1.973-.971,2.335,2.335,0,0,0-1.942.958A4.416,4.416,0,0,0,53.6,37.351Zm13.658-3.4a4.873,4.873,0,0,0-.8-.062,2.143,2.143,0,0,0-2.171,1.362V42H62.666V32.49h1.582l.026,1.1a2.532,2.532,0,0,1,2.268-1.274,1.661,1.661,0,0,1,.721.123Zm6.091,0a4.873,4.873,0,0,0-.8-.062,2.143,2.143,0,0,0-2.171,1.362V42H68.757V32.49h1.582l.026,1.1a2.532,2.532,0,0,1,2.268-1.274,1.661,1.661,0,0,1,.721.123Zm5.273,8.227a4.155,4.155,0,0,1-3.146-1.27,4.714,4.714,0,0,1-1.213-3.4v-.3a5.707,5.707,0,0,1,.541-2.527,4.217,4.217,0,0,1,1.512-1.74,3.8,3.8,0,0,1,2.1-.628,3.562,3.562,0,0,1,2.883,1.222,5.289,5.289,0,0,1,1.028,3.5v.677H75.894a3.38,3.38,0,0,0,.822,2.272,2.583,2.583,0,0,0,2,.866,2.832,2.832,0,0,0,1.459-.352,3.666,3.666,0,0,0,1.046-.932l.993.773A3.993,3.993,0,0,1,78.627,42.176Zm-.2-8.525a2.169,2.169,0,0,0-1.652.716,3.482,3.482,0,0,0-.826,2.008H80.71v-.123a3.1,3.1,0,0,0-.668-1.92A2.042,2.042,0,0,0,78.425,33.65Zm5.361,3.507a5.617,5.617,0,0,1,.549-2.514,4.1,4.1,0,0,1,1.529-1.723,4.163,4.163,0,0,1,2.237-.606,4.01,4.01,0,0,1,3.142,1.345,5.174,5.174,0,0,1,1.2,3.577v.114a5.666,5.666,0,0,1-.532,2.492,4.038,4.038,0,0,1-1.521,1.718,4.211,4.211,0,0,1-2.272.615,4,4,0,0,1-3.133-1.345,5.147,5.147,0,0,1-1.2-3.56Zm1.635.193a4.068,4.068,0,0,0,.734,2.54,2.487,2.487,0,0,0,3.933-.013,4.449,4.449,0,0,0,.729-2.72,4.061,4.061,0,0,0-.743-2.536A2.361,2.361,0,0,0,88.1,33.65a2.335,2.335,0,0,0-1.942.958A4.416,4.416,0,0,0,85.421,37.351Z" transform="translate(1066 9677)" fill="#12263f"/>
    <path id="Trazado_183807" data-name="Trazado 183807" d="M10.5,17V4.2h4.184a4.856,4.856,0,0,1,3.133.861,3.1,3.1,0,0,1,1.05,2.549A2.6,2.6,0,0,1,18.36,9.2a3.3,3.3,0,0,1-1.389,1.068,2.968,2.968,0,0,1,1.639,1.1,3.166,3.166,0,0,1,.6,1.938A3.423,3.423,0,0,1,18.1,16.016,4.616,4.616,0,0,1,14.941,17Zm1.688-5.985V15.62h2.786a2.683,2.683,0,0,0,1.859-.611,2.145,2.145,0,0,0,.681-1.683q0-2.312-2.514-2.312Zm0-1.354h2.549a2.672,2.672,0,0,0,1.771-.555A1.86,1.86,0,0,0,17.174,7.6a1.829,1.829,0,0,0-.615-1.537,3.021,3.021,0,0,0-1.872-.48h-2.5Zm15.135,6.4a3.454,3.454,0,0,1-2.786,1.116,2.956,2.956,0,0,1-2.316-.883,3.823,3.823,0,0,1-.8-2.615V7.49h1.626v6.144q0,2.162,1.758,2.162a2.434,2.434,0,0,0,2.479-1.389V7.49h1.626V17H27.36Zm9.589-1.582a1.2,1.2,0,0,0-.5-1.024,4.78,4.78,0,0,0-1.731-.628,8.186,8.186,0,0,1-1.96-.633,2.788,2.788,0,0,1-1.072-.879,2.1,2.1,0,0,1-.347-1.213A2.467,2.467,0,0,1,32.3,8.123a3.861,3.861,0,0,1,2.527-.809,3.974,3.974,0,0,1,2.624.835,2.652,2.652,0,0,1,1.006,2.136H36.817a1.468,1.468,0,0,0-.567-1.151,2.124,2.124,0,0,0-1.428-.483,2.223,2.223,0,0,0-1.389.387,1.217,1.217,0,0,0-.5,1.011.986.986,0,0,0,.466.888,5.731,5.731,0,0,0,1.683.571,8.77,8.77,0,0,1,1.973.65,2.878,2.878,0,0,1,1.121.91,2.237,2.237,0,0,1,.365,1.3,2.434,2.434,0,0,1-1.02,2.043,4.277,4.277,0,0,1-2.646.769,4.789,4.789,0,0,1-2.021-.4,3.288,3.288,0,0,1-1.375-1.129,2.722,2.722,0,0,1-.5-1.569h1.626a1.683,1.683,0,0,0,.655,1.3,2.54,2.54,0,0,0,1.613.479,2.622,2.622,0,0,0,1.481-.374A1.148,1.148,0,0,0,36.914,14.478Zm7.559,1.371a2.342,2.342,0,0,0,1.521-.527A1.855,1.855,0,0,0,46.714,14h1.538a2.949,2.949,0,0,1-.562,1.556,3.7,3.7,0,0,1-1.384,1.178,3.994,3.994,0,0,1-1.833.439,3.918,3.918,0,0,1-3.089-1.3,5.163,5.163,0,0,1-1.147-3.546v-.272a5.725,5.725,0,0,1,.51-2.47,3.883,3.883,0,0,1,1.463-1.679,4.157,4.157,0,0,1,2.254-.6,3.814,3.814,0,0,1,2.659.958,3.424,3.424,0,0,1,1.129,2.487H46.714a2.241,2.241,0,0,0-.7-1.516,2.174,2.174,0,0,0-1.551-.593,2.276,2.276,0,0,0-1.92.892,4.19,4.19,0,0,0-.681,2.58v.308a4.106,4.106,0,0,0,.677,2.531A2.287,2.287,0,0,0,44.473,15.849ZM55.951,17a3.416,3.416,0,0,1-.229-1,3.628,3.628,0,0,1-2.707,1.178,3.357,3.357,0,0,1-2.307-.8,2.573,2.573,0,0,1-.9-2.017,2.688,2.688,0,0,1,1.129-2.307,5.325,5.325,0,0,1,3.177-.822H55.7v-.747a1.826,1.826,0,0,0-.51-1.358,2.049,2.049,0,0,0-1.5-.505,2.371,2.371,0,0,0-1.459.439,1.3,1.3,0,0,0-.589,1.063H50a2.244,2.244,0,0,1,.505-1.375A3.449,3.449,0,0,1,51.877,7.7a4.613,4.613,0,0,1,1.9-.387,3.759,3.759,0,0,1,2.575.822,2.964,2.964,0,0,1,.967,2.263v4.377a5.351,5.351,0,0,0,.334,2.083V17Zm-2.7-1.239a2.858,2.858,0,0,0,1.45-.4,2.392,2.392,0,0,0,.993-1.028V12.386H54.422q-2.988,0-2.988,1.749a1.48,1.48,0,0,0,.51,1.2A1.959,1.959,0,0,0,53.253,15.761ZM64.468,8.949a4.873,4.873,0,0,0-.8-.062A2.143,2.143,0,0,0,61.5,10.25V17H59.871V7.49h1.582l.026,1.1a2.532,2.532,0,0,1,2.268-1.274,1.661,1.661,0,0,1,.721.123ZM71.218,17V8.747h-1.5V7.49h1.5V6.515a3.238,3.238,0,0,1,.817-2.364,3.088,3.088,0,0,1,2.312-.835,4.293,4.293,0,0,1,1.116.148l-.088,1.311A4.67,4.67,0,0,0,74.5,4.7a1.586,1.586,0,0,0-1.222.463,1.877,1.877,0,0,0-.431,1.327V7.49h2.03V8.747h-2.03V17Zm11.32,0a3.416,3.416,0,0,1-.229-1A3.628,3.628,0,0,1,79.6,17.176a3.357,3.357,0,0,1-2.307-.8,2.573,2.573,0,0,1-.9-2.017,2.688,2.688,0,0,1,1.129-2.307,5.325,5.325,0,0,1,3.177-.822h1.582v-.747a1.826,1.826,0,0,0-.51-1.358,2.049,2.049,0,0,0-1.5-.505,2.371,2.371,0,0,0-1.459.439,1.3,1.3,0,0,0-.589,1.063H76.588a2.244,2.244,0,0,1,.505-1.375A3.449,3.449,0,0,1,78.464,7.7a4.613,4.613,0,0,1,1.9-.387,3.759,3.759,0,0,1,2.575.822,2.964,2.964,0,0,1,.967,2.263v4.377a5.351,5.351,0,0,0,.334,2.083V17Zm-2.7-1.239a2.858,2.858,0,0,0,1.45-.4,2.392,2.392,0,0,0,.993-1.028V12.386H81.009q-2.988,0-2.988,1.749a1.48,1.48,0,0,0,.51,1.2A1.959,1.959,0,0,0,79.84,15.761Zm10.433.088a2.342,2.342,0,0,0,1.521-.527A1.855,1.855,0,0,0,92.514,14h1.538a2.949,2.949,0,0,1-.562,1.556A3.7,3.7,0,0,1,92.1,16.736a3.994,3.994,0,0,1-1.833.439,3.918,3.918,0,0,1-3.089-1.3,5.163,5.163,0,0,1-1.147-3.546v-.272a5.725,5.725,0,0,1,.51-2.47,3.883,3.883,0,0,1,1.463-1.679,4.157,4.157,0,0,1,2.254-.6,3.814,3.814,0,0,1,2.659.958,3.424,3.424,0,0,1,1.129,2.487H92.514a2.241,2.241,0,0,0-.7-1.516,2.174,2.174,0,0,0-1.551-.593,2.276,2.276,0,0,0-1.92.892,4.19,4.19,0,0,0-.681,2.58v.308a4.106,4.106,0,0,0,.677,2.531A2.287,2.287,0,0,0,90.272,15.849ZM98.086,5.188v2.3h1.775V8.747H98.086v5.9a1.32,1.32,0,0,0,.237.858,1,1,0,0,0,.809.286,3.937,3.937,0,0,0,.773-.105V17a4.742,4.742,0,0,1-1.248.175,2.025,2.025,0,0,1-1.644-.659,2.832,2.832,0,0,1-.554-1.872v-5.9H94.729V7.49H96.46v-2.3Zm9.545,10.872a3.454,3.454,0,0,1-2.786,1.116,2.956,2.956,0,0,1-2.316-.883,3.823,3.823,0,0,1-.8-2.615V7.49h1.626v6.144q0,2.162,1.758,2.162a2.434,2.434,0,0,0,2.479-1.389V7.49h1.626V17h-1.547Zm8.648-7.11a4.873,4.873,0,0,0-.8-.062,2.143,2.143,0,0,0-2.171,1.362V17h-1.626V7.49h1.582l.026,1.1a2.532,2.532,0,0,1,2.268-1.274,1.661,1.661,0,0,1,.721.123ZM123.293,17a3.416,3.416,0,0,1-.229-1,3.628,3.628,0,0,1-2.707,1.178,3.357,3.357,0,0,1-2.307-.8,2.573,2.573,0,0,1-.9-2.017,2.688,2.688,0,0,1,1.129-2.307,5.325,5.325,0,0,1,3.177-.822h1.582v-.747a1.826,1.826,0,0,0-.51-1.358,2.049,2.049,0,0,0-1.5-.505,2.371,2.371,0,0,0-1.459.439,1.3,1.3,0,0,0-.589,1.063h-1.635a2.244,2.244,0,0,1,.505-1.375,3.449,3.449,0,0,1,1.371-1.05,4.613,4.613,0,0,1,1.9-.387,3.759,3.759,0,0,1,2.575.822,2.964,2.964,0,0,1,.967,2.263v4.377A5.351,5.351,0,0,0,125,16.859V17Zm-2.7-1.239a2.858,2.858,0,0,0,1.45-.4,2.392,2.392,0,0,0,.993-1.028V12.386h-1.274q-2.988,0-2.988,1.749a1.48,1.48,0,0,0,.51,1.2A1.959,1.959,0,0,0,120.595,15.761Z" transform="translate(834 9684)" fill="#12263f"/>
    <line id="Línea_246" data-name="Línea 246" y1="48" x2="94" transform="translate(764 9490)" fill="none" stroke="#707070" stroke-width="2"/>
    <line id="Línea_247" data-name="Línea 247" x2="94" y2="37" transform="translate(764 9551)" fill="none" stroke="#707070" stroke-width="2"/>
    <line id="Línea_245" data-name="Línea 245" x2="191.22" transform="translate(1084.667 9589.581)" fill="none" stroke="#707070" stroke-width="2"/>
    <path id="Polígono_28" data-name="Polígono 28" d="M8.683,0l8.683,14.97H0Z" transform="matrix(0.914, -0.407, 0.407, 0.914, 1042.974, 9625.644)" fill="#2fa69a"/>
    <path id="Polígono_30" data-name="Polígono 30" d="M8.683,0l8.683,14.97H0Z" transform="matrix(-0.961, -0.276, 0.276, -0.961, 869.394, 9656.877)" fill="#2fa69a"/>
    <line id="Línea_248" data-name="Línea 248" x2="9" y2="19" transform="translate(1056 9634)" fill="none" stroke="#2fa69a" stroke-width="2"/>
    <line id="Línea_250" data-name="Línea 250" x2="9" y2="19" transform="translate(864.787 9642.102) rotate(-140)" fill="none" stroke="#2fa69a" stroke-width="2"/>
    <path id="Trazado_183809" data-name="Trazado 183809" d="M3.5,7.2A5.29,5.29,0,0,1,1.4,6.175a1.954,1.954,0,0,1-.659-1.5,2.064,2.064,0,0,1,.806-1.667,3.2,3.2,0,0,1,2.095-.659,3.5,3.5,0,0,1,1.567.34,2.577,2.577,0,0,1,1.066.938A2.4,2.4,0,0,1,6.65,4.936H5.52a1.56,1.56,0,0,0-.492-1.22,2,2,0,0,0-1.389-.444,2.049,2.049,0,0,0-1.3.367,1.224,1.224,0,0,0-.466,1.018,1.1,1.1,0,0,0,.442.883,4.339,4.339,0,0,0,1.506.66,6.987,6.987,0,0,1,1.664.66,2.525,2.525,0,0,1,.891.841,2.146,2.146,0,0,1,.29,1.131,1.993,1.993,0,0,1-.809,1.661,3.448,3.448,0,0,1-2.162.624,4.01,4.01,0,0,1-1.641-.337A2.761,2.761,0,0,1,.882,9.857a2.252,2.252,0,0,1-.413-1.33H1.6a1.469,1.469,0,0,0,.571,1.222A2.4,2.4,0,0,0,3.7,10.2a2.211,2.211,0,0,0,1.365-.363,1.18,1.18,0,0,0,.475-.99,1.158,1.158,0,0,0-.439-.97A5.066,5.066,0,0,0,3.5,7.2ZM9.117,11H8.033V4.66H9.117ZM7.945,2.979a.647.647,0,0,1,.161-.445.6.6,0,0,1,.478-.182.614.614,0,0,1,.48.182.64.64,0,0,1,.164.445.619.619,0,0,1-.164.439.626.626,0,0,1-.48.176.616.616,0,0,1-.478-.176A.626.626,0,0,1,7.945,2.979Zm6.6,6.34a.8.8,0,0,0-.331-.683,3.187,3.187,0,0,0-1.154-.419,5.457,5.457,0,0,1-1.307-.422,1.859,1.859,0,0,1-.715-.586A1.4,1.4,0,0,1,10.8,6.4a1.645,1.645,0,0,1,.659-1.318,2.574,2.574,0,0,1,1.685-.539A2.649,2.649,0,0,1,14.9,5.1a1.768,1.768,0,0,1,.671,1.424h-1.09a.979.979,0,0,0-.378-.768,1.416,1.416,0,0,0-.952-.322,1.482,1.482,0,0,0-.926.258.812.812,0,0,0-.334.674.658.658,0,0,0,.311.592,3.821,3.821,0,0,0,1.122.381,5.847,5.847,0,0,1,1.315.434,1.919,1.919,0,0,1,.747.606,1.491,1.491,0,0,1,.243.864,1.623,1.623,0,0,1-.68,1.362,2.851,2.851,0,0,1-1.764.513,3.193,3.193,0,0,1-1.348-.27,2.192,2.192,0,0,1-.917-.753,1.815,1.815,0,0,1-.331-1.046h1.084a1.122,1.122,0,0,0,.437.864,1.693,1.693,0,0,0,1.075.319,1.748,1.748,0,0,0,.987-.249A.765.765,0,0,0,14.543,9.318ZM18.51,3.125V4.66h1.184V5.5H18.51V9.435a.88.88,0,0,0,.158.572.666.666,0,0,0,.539.191,2.624,2.624,0,0,0,.516-.07V11a3.161,3.161,0,0,1-.832.116,1.35,1.35,0,0,1-1.1-.439,1.888,1.888,0,0,1-.369-1.248V5.5H16.271V4.66h1.154V3.125Zm5.08,7.992a2.77,2.77,0,0,1-2.1-.847,3.142,3.142,0,0,1-.809-2.265v-.2a3.8,3.8,0,0,1,.36-1.685,2.811,2.811,0,0,1,1.008-1.16,2.534,2.534,0,0,1,1.4-.419,2.374,2.374,0,0,1,1.922.814,3.526,3.526,0,0,1,.686,2.332v.451H21.768a2.254,2.254,0,0,0,.548,1.515,1.722,1.722,0,0,0,1.333.577A1.888,1.888,0,0,0,24.621,10a2.444,2.444,0,0,0,.7-.621l.662.516A2.662,2.662,0,0,1,23.59,11.117Zm-.135-5.684a1.446,1.446,0,0,0-1.1.478A2.321,2.321,0,0,0,21.8,7.25h3.176V7.168a2.065,2.065,0,0,0-.445-1.28A1.361,1.361,0,0,0,23.455,5.434Zm4.881-.773.029.7a2.341,2.341,0,0,1,1.881-.82,1.813,1.813,0,0,1,1.811,1.02,2.4,2.4,0,0,1,.823-.738,2.431,2.431,0,0,1,1.2-.281q2.086,0,2.121,2.209V11H35.115V6.816A1.456,1.456,0,0,0,34.8,5.8a1.368,1.368,0,0,0-1.043-.337,1.437,1.437,0,0,0-1,.36,1.462,1.462,0,0,0-.463.97V11h-1.09V6.846a1.209,1.209,0,0,0-1.354-1.383,1.45,1.45,0,0,0-1.459.908V11H27.311V4.66ZM41.748,11a2.277,2.277,0,0,1-.152-.668,2.419,2.419,0,0,1-1.8.785,2.238,2.238,0,0,1-1.538-.53,1.716,1.716,0,0,1-.6-1.345A1.792,1.792,0,0,1,38.405,7.7a3.55,3.55,0,0,1,2.118-.548h1.055v-.5a1.217,1.217,0,0,0-.34-.905,1.366,1.366,0,0,0-1-.337,1.581,1.581,0,0,0-.973.293.863.863,0,0,0-.393.709h-1.09a1.5,1.5,0,0,1,.337-.917,2.3,2.3,0,0,1,.914-.7A3.075,3.075,0,0,1,40.3,4.543a2.506,2.506,0,0,1,1.717.548A1.976,1.976,0,0,1,42.662,6.6V9.518a3.567,3.567,0,0,0,.223,1.389V11Zm-1.8-.826a1.905,1.905,0,0,0,.967-.264,1.6,1.6,0,0,0,.662-.686v-1.3h-.85q-1.992,0-1.992,1.166a.987.987,0,0,0,.34.8A1.306,1.306,0,0,0,39.949,10.174ZM5.813,19.057h-3.7V22.08H6.41V23H.99V14.469H6.352v.92H2.115v2.748h3.7Zm3.955-.082,1.406-2.314h1.266l-2.074,3.135L12.5,23H11.25L9.785,20.627,8.32,23H7.061L9.2,19.795,7.125,16.66H8.379Zm5.291-3.85V16.66h1.184V17.5H15.059v3.937a.88.88,0,0,0,.158.572.666.666,0,0,0,.539.191,2.624,2.624,0,0,0,.516-.07V23a3.161,3.161,0,0,1-.832.116,1.35,1.35,0,0,1-1.1-.439,1.888,1.888,0,0,1-.369-1.248V17.5H12.82V16.66h1.154V15.125Zm5.08,7.992a2.77,2.77,0,0,1-2.1-.847,3.142,3.142,0,0,1-.809-2.265v-.2a3.8,3.8,0,0,1,.36-1.685,2.811,2.811,0,0,1,1.008-1.16,2.534,2.534,0,0,1,1.4-.419,2.374,2.374,0,0,1,1.922.814,3.526,3.526,0,0,1,.686,2.332v.451H18.316a2.254,2.254,0,0,0,.548,1.515,1.722,1.722,0,0,0,1.333.577A1.888,1.888,0,0,0,21.17,22a2.444,2.444,0,0,0,.7-.621l.662.516A2.662,2.662,0,0,1,20.139,23.117ZM20,17.434a1.446,1.446,0,0,0-1.1.478,2.321,2.321,0,0,0-.551,1.339h3.176v-.082a2.065,2.065,0,0,0-.445-1.28A1.361,1.361,0,0,0,20,17.434Zm6.926.2a3.248,3.248,0,0,0-.533-.041,1.428,1.428,0,0,0-1.447.908V23H23.865V16.66H24.92l.018.732a1.688,1.688,0,0,1,1.512-.85,1.107,1.107,0,0,1,.48.082Zm2.021-.973.035.8a2.31,2.31,0,0,1,1.9-.914q2.01,0,2.027,2.268V23H31.828V18.8a1.459,1.459,0,0,0-.313-1.014,1.256,1.256,0,0,0-.958-.328,1.564,1.564,0,0,0-.926.281,1.91,1.91,0,0,0-.621.738V23H27.926V16.66Zm5.309,3.111a3.745,3.745,0,0,1,.366-1.676,2.732,2.732,0,0,1,1.02-1.148,2.775,2.775,0,0,1,1.491-.4,2.674,2.674,0,0,1,2.095.9,3.449,3.449,0,0,1,.8,2.385V19.9a3.777,3.777,0,0,1-.354,1.661,2.692,2.692,0,0,1-1.014,1.146,2.807,2.807,0,0,1-1.515.41,2.667,2.667,0,0,1-2.089-.9,3.432,3.432,0,0,1-.8-2.373Zm1.09.129a2.712,2.712,0,0,0,.489,1.693,1.658,1.658,0,0,0,2.622-.009,2.966,2.966,0,0,0,.486-1.813,2.708,2.708,0,0,0-.5-1.69,1.574,1.574,0,0,0-1.315-.647,1.557,1.557,0,0,0-1.295.639A2.944,2.944,0,0,0,35.35,19.9Z" transform="translate(1280 9654)" fill="#12263f"/>
    <path id="Trazado_183804" data-name="Trazado 183804" d="M7.266,8.293a3.139,3.139,0,0,1-1,2.089,3.274,3.274,0,0,1-2.235.735,3.006,3.006,0,0,1-2.423-1.084A4.361,4.361,0,0,1,.7,7.133v-.82a4.861,4.861,0,0,1,.425-2.092,3.173,3.173,0,0,1,1.2-1.386,3.353,3.353,0,0,1,1.8-.483,3.083,3.083,0,0,1,2.18.759,3.176,3.176,0,0,1,.955,2.1H6.135A2.451,2.451,0,0,0,5.5,3.73a1.924,1.924,0,0,0-1.368-.458,2.013,2.013,0,0,0-1.69.8,3.661,3.661,0,0,0-.612,2.269v.827a3.764,3.764,0,0,0,.58,2.211,1.874,1.874,0,0,0,1.623.821A2.165,2.165,0,0,0,5.47,9.772a2.357,2.357,0,0,0,.665-1.479Zm1.078-.521A3.745,3.745,0,0,1,8.71,6.1a2.732,2.732,0,0,1,1.02-1.148,2.775,2.775,0,0,1,1.491-.4,2.674,2.674,0,0,1,2.095.9,3.449,3.449,0,0,1,.8,2.385V7.9a3.777,3.777,0,0,1-.354,1.661,2.692,2.692,0,0,1-1.014,1.146,2.807,2.807,0,0,1-1.515.41,2.667,2.667,0,0,1-2.089-.9,3.432,3.432,0,0,1-.8-2.373Zm1.09.129a2.712,2.712,0,0,0,.489,1.693,1.658,1.658,0,0,0,2.622-.009,2.966,2.966,0,0,0,.486-1.813,2.708,2.708,0,0,0-.5-1.69,1.574,1.574,0,0,0-1.315-.647,1.557,1.557,0,0,0-1.295.639A2.944,2.944,0,0,0,9.434,7.9Zm7.061-3.24.029.7a2.341,2.341,0,0,1,1.881-.82,1.813,1.813,0,0,1,1.811,1.02,2.4,2.4,0,0,1,.823-.738,2.431,2.431,0,0,1,1.2-.281q2.086,0,2.121,2.209V11H23.273V6.816A1.456,1.456,0,0,0,22.963,5.8a1.368,1.368,0,0,0-1.043-.337,1.437,1.437,0,0,0-1,.36,1.462,1.462,0,0,0-.463.97V11h-1.09V6.846a1.209,1.209,0,0,0-1.354-1.383,1.45,1.45,0,0,0-1.459.908V11H15.469V4.66Zm12.129,6.457a2.77,2.77,0,0,1-2.1-.847,3.142,3.142,0,0,1-.809-2.265v-.2a3.8,3.8,0,0,1,.36-1.685,2.811,2.811,0,0,1,1.008-1.16,2.534,2.534,0,0,1,1.4-.419,2.374,2.374,0,0,1,1.922.814A3.526,3.526,0,0,1,31.1,7.689v.451H26.8a2.254,2.254,0,0,0,.548,1.515,1.722,1.722,0,0,0,1.333.577A1.888,1.888,0,0,0,29.654,10a2.444,2.444,0,0,0,.7-.621l.662.516A2.662,2.662,0,0,1,28.623,11.117Zm-.135-5.684a1.446,1.446,0,0,0-1.1.478,2.321,2.321,0,0,0-.551,1.339h3.176V7.168a2.065,2.065,0,0,0-.445-1.28A1.361,1.361,0,0,0,28.488,5.434Zm6.926.2a3.248,3.248,0,0,0-.533-.041,1.428,1.428,0,0,0-1.447.908V11H32.35V4.66H33.4l.018.732a1.688,1.688,0,0,1,1.512-.85,1.107,1.107,0,0,1,.48.082Zm3.428,4.6a1.561,1.561,0,0,0,1.014-.352A1.237,1.237,0,0,0,40.336,9h1.025a1.966,1.966,0,0,1-.375,1.037,2.47,2.47,0,0,1-.923.785,2.663,2.663,0,0,1-1.222.293,2.612,2.612,0,0,1-2.06-.864,3.442,3.442,0,0,1-.765-2.364V7.707a3.817,3.817,0,0,1,.34-1.646,2.588,2.588,0,0,1,.976-1.119,2.771,2.771,0,0,1,1.5-.4,2.543,2.543,0,0,1,1.772.639,2.283,2.283,0,0,1,.753,1.658H40.336a1.494,1.494,0,0,0-.466-1.011,1.449,1.449,0,0,0-1.034-.4,1.517,1.517,0,0,0-1.28.595,2.793,2.793,0,0,0-.454,1.72v.205a2.737,2.737,0,0,0,.451,1.688A1.524,1.524,0,0,0,38.842,10.232ZM43.758,11H42.674V4.66h1.084ZM42.586,2.979a.647.647,0,0,1,.161-.445.6.6,0,0,1,.478-.182.614.614,0,0,1,.48.182.64.64,0,0,1,.164.445.619.619,0,0,1-.164.439.626.626,0,0,1-.48.176.616.616,0,0,1-.478-.176A.626.626,0,0,1,42.586,2.979ZM49.406,11a2.277,2.277,0,0,1-.152-.668,2.419,2.419,0,0,1-1.8.785,2.238,2.238,0,0,1-1.538-.53,1.716,1.716,0,0,1-.6-1.345A1.792,1.792,0,0,1,46.063,7.7a3.55,3.55,0,0,1,2.118-.548h1.055v-.5a1.217,1.217,0,0,0-.34-.905,1.366,1.366,0,0,0-1-.337,1.581,1.581,0,0,0-.973.293.863.863,0,0,0-.393.709h-1.09a1.5,1.5,0,0,1,.337-.917,2.3,2.3,0,0,1,.914-.7,3.075,3.075,0,0,1,1.269-.258,2.506,2.506,0,0,1,1.717.548A1.976,1.976,0,0,1,50.32,6.6V9.518a3.567,3.567,0,0,0,.223,1.389V11Zm-1.8-.826a1.905,1.905,0,0,0,.967-.264,1.6,1.6,0,0,0,.662-.686v-1.3h-.85q-1.992,0-1.992,1.166a.987.987,0,0,0,.34.8A1.306,1.306,0,0,0,47.607,10.174ZM53.045,4.66l.035.8a2.31,2.31,0,0,1,1.9-.914q2.01,0,2.027,2.268V11H55.922V6.8a1.459,1.459,0,0,0-.313-1.014,1.256,1.256,0,0,0-.958-.328,1.564,1.564,0,0,0-.926.281,1.91,1.91,0,0,0-.621.738V11H52.02V4.66Zm7.066-1.535V4.66h1.184V5.5H60.111V9.435a.88.88,0,0,0,.158.572.666.666,0,0,0,.539.191,2.624,2.624,0,0,0,.516-.07V11a3.161,3.161,0,0,1-.832.116,1.35,1.35,0,0,1-1.1-.439,1.888,1.888,0,0,1-.369-1.248V5.5H57.873V4.66h1.154V3.125Zm5.08,7.992a2.77,2.77,0,0,1-2.1-.847,3.142,3.142,0,0,1-.809-2.265v-.2a3.8,3.8,0,0,1,.36-1.685,2.811,2.811,0,0,1,1.008-1.16,2.534,2.534,0,0,1,1.4-.419,2.374,2.374,0,0,1,1.922.814,3.526,3.526,0,0,1,.686,2.332v.451H63.369a2.254,2.254,0,0,0,.548,1.515,1.722,1.722,0,0,0,1.333.577A1.888,1.888,0,0,0,66.223,10a2.444,2.444,0,0,0,.7-.621l.662.516A2.662,2.662,0,0,1,65.191,11.117Zm-.135-5.684a1.446,1.446,0,0,0-1.1.478A2.321,2.321,0,0,0,63.4,7.25H66.58V7.168a2.065,2.065,0,0,0-.445-1.28A1.361,1.361,0,0,0,65.057,5.434Z" transform="translate(711 9601)" fill="#12263f"/>
  </g>
</svg>
