<svg id="Grupo_141464" data-name="Grupo 141464" xmlns="http://www.w3.org/2000/svg" xmlns:xlink="http://www.w3.org/1999/xlink" width="408.545" height="509" viewBox="0 0 408.545 509">
  <defs>
    <clipPath id="clip-path">
      <rect id="Rectángulo_36946" data-name="Rectángulo 36946" width="408.545" height="509" fill="none"/>
    </clipPath>
    <clipPath id="clip-path-3">
      <rect id="Rectángulo_36937" data-name="Rectángulo 36937" width="190.331" height="203.419" fill="none"/>
    </clipPath>
    <clipPath id="clip-path-4">
      <rect id="Rectángulo_36938" data-name="Rectángulo 36938" width="79.72" height="33.624" fill="none"/>
    </clipPath>
    <clipPath id="clip-path-6">
      <rect id="Rectángulo_36940" data-name="Rectángulo 36940" width="76.987" height="73.856" fill="none"/>
    </clipPath>
    <clipPath id="clip-path-7">
      <rect id="Rectángulo_36941" data-name="Rectángulo 36941" width="32.178" height="32.538" fill="none"/>
    </clipPath>
    <clipPath id="clip-path-9">
      <rect id="Rectángulo_36943" data-name="Rectángulo 36943" width="148.096" height="138.864" fill="none"/>
    </clipPath>
    <clipPath id="clip-path-10">
      <rect id="Rectángulo_36944" data-name="Rectángulo 36944" width="269.485" height="53.525" fill="none"/>
    </clipPath>
  </defs>
  <g id="Grupo_141463" data-name="Grupo 141463" clip-path="url(#clip-path)">
    <g id="Grupo_141462" data-name="Grupo 141462">
      <g id="Grupo_141461" data-name="Grupo 141461" clip-path="url(#clip-path)">
        <path id="Trazado_117361" data-name="Trazado 117361" d="M0,101.193a36.756,36.756,0,0,1,6.2-19.73L6.1,81.4c3.54-5.477,8.357-9.835,13.665-11.825L201.242,1.541c4.59-1.72,8.812-1.4,12.159.548l11,6.957-3.476,354.711a1.017,1.017,0,0,1-.084.478c-.067,13.164-8.852,27.083-19.681,31.143l-183.7,72.094-7.893-5.316C3.568,458.092,0,453.93,0,445.241Z" transform="translate(0 0.224)" fill="#bef0e8"/>
        <path id="Trazado_117362" data-name="Trazado 117362" d="M129.181,167.374s99.37,217.539,99.038,204.04L223.273,8.839l-11.764-7.1c-3.432-2-7.706-2.358-12.3-.623L17.55,69.689C12.237,71.7,7.479,76.124,4.04,81.7Z" transform="translate(2.149 0)" fill="#bef0e8"/>
        <path id="Trazado_117363" data-name="Trazado 117363" d="M27.1,466.984l181.032-68.1c10.871-4.075,19.238-18.153,19.238-31.36V21.844c0-13.208-8.582-20.575-19.454-16.5L26.985,73.457C16.114,77.533,7.848,91.625,7.848,104.832V450.514c0,13.207,8.381,20.545,19.252,16.47" transform="translate(4.175 2.245)" fill="#fff"/>
        <path id="Trazado_117364" data-name="Trazado 117364" d="M29.47,468.142l181.032-68.1c10.871-4.075,19.238-18.153,19.238-31.36V23c0-13.208-8.582-20.575-19.454-16.5L29.355,74.616C18.484,78.691,10.218,92.783,10.218,105.99V451.672c0,13.207,8.381,20.545,19.252,16.47" transform="translate(5.435 2.861)" fill="#fff"/>
        <path id="Trazado_117365" data-name="Trazado 117365" d="M18.756,91.488A4.552,4.552,0,0,1,21.8,87.142l181.182-67.92c4.06-1.523,9.135,1.915,9.135,6.187v334.3a4.551,4.551,0,0,1-3.045,4.346L27.891,431.977c-4.06,1.523-9.135-1.915-9.135-6.186V91.488Z" transform="translate(9.977 10.03)" fill="#0ba0d1"/>
        <g id="Grupo_141439" data-name="Grupo 141439" transform="translate(31.764 28.886)" opacity="0.15">
          <g id="Grupo_141438" data-name="Grupo 141438">
            <g id="Grupo_141437" data-name="Grupo 141437" clip-path="url(#clip-path-3)">
              <path id="Trazado_117366" data-name="Trazado 117366" d="M20.748,87.142l78.682-29.5,102.5-38.424c4.06-1.523,9.136,1.915,9.136,6.187V222.274S18.863,87.848,20.748,87.142" transform="translate(-20.735 -18.856)" fill="#fff"/>
            </g>
          </g>
        </g>
        <line id="Línea_251" data-name="Línea 251" x1="192.556" y2="69.948" transform="translate(28.712 51.733)" fill="none" stroke="#fff" stroke-linecap="round" stroke-linejoin="round" stroke-width="0.418"/>
        <path id="Trazado_117367" data-name="Trazado 117367" d="M42.821,64.3c.1,1.549,1.532,2.29,3.2,1.656A4.372,4.372,0,0,0,48.864,62c-.1-1.549-1.532-2.29-3.2-1.656A4.366,4.366,0,0,0,42.821,64.3" transform="translate(22.775 31.98)" fill="#225da6"/>
        <path id="Trazado_117368" data-name="Trazado 117368" d="M34.061,67.272c.1,1.549,1.533,2.29,3.2,1.656A4.368,4.368,0,0,0,40.1,64.977c-.1-1.549-1.532-2.29-3.2-1.656a4.37,4.37,0,0,0-2.842,3.951" transform="translate(18.115 33.562)" fill="#fed32e"/>
        <path id="Trazado_117369" data-name="Trazado 117369" d="M25.55,70.614c.1,1.549,1.533,2.29,3.2,1.656a4.368,4.368,0,0,0,2.842-3.951c-.1-1.549-1.532-2.29-3.2-1.656a4.37,4.37,0,0,0-2.842,3.951" transform="translate(13.588 35.339)" fill="#fff"/>
        <path id="Trazado_117370" data-name="Trazado 117370" d="M131.8,32.17c0,2.5,1.984,3.767,4.43,2.84a7.205,7.205,0,0,0,4.43-6.2c0-2.5-1.984-3.767-4.43-2.84A7.207,7.207,0,0,0,131.8,32.17Z" transform="translate(70.11 13.655)" fill="none" stroke="#fff" stroke-linecap="round" stroke-linejoin="round" stroke-width="0.808"/>
        <line id="Línea_252" data-name="Línea 252" x1="2.685" y2="3.127" transform="translate(199.991 48.847)" fill="none" stroke="#fff" stroke-linecap="round" stroke-linejoin="round" stroke-width="0.808"/>
        <g id="Grupo_141442" data-name="Grupo 141442" transform="translate(256.41 392.366)" opacity="0.32" style="mix-blend-mode: multiply;isolation: isolate">
          <g id="Grupo_141441" data-name="Grupo 141441">
            <g id="Grupo_141440" data-name="Grupo 141440" clip-path="url(#clip-path-4)">
              <path id="Trazado_117371" data-name="Trazado 117371" d="M247.1,272.937c0,9.285-17.845,16.811-39.861,16.811s-39.859-7.526-39.859-16.811,17.845-16.811,39.859-16.811,39.861,7.526,39.861,16.811" transform="translate(-167.377 -256.125)" fill="#42a19e"/>
            </g>
          </g>
        </g>
        <g id="Grupo_141445" data-name="Grupo 141445" transform="translate(120.914 448.474)" opacity="0.32" style="mix-blend-mode: multiply;isolation: isolate">
          <g id="Grupo_141444" data-name="Grupo 141444">
            <g id="Grupo_141443" data-name="Grupo 141443" clip-path="url(#clip-path-4)">
              <path id="Trazado_117372" data-name="Trazado 117372" d="M158.649,309.562c0,9.285-17.845,16.811-39.861,16.811s-39.859-7.526-39.859-16.811,17.845-16.811,39.859-16.811,39.861,7.526,39.861,16.811" transform="translate(-78.929 -292.75)" fill="#42a19e"/>
            </g>
          </g>
        </g>
        <path id="Trazado_117373" data-name="Trazado 117373" d="M186.525,279.717l.435-21.475c-.5-2.027-3.22-2.445-5.38-4.342a2.663,2.663,0,0,0-3.3-.244l-2.05,1.5c-3.039,2.047-3.2,2.656-2.534,5.331l3.939,15.878a10.115,10.115,0,0,0,5.331,6.417l.643.244c2.269.855,3.582-.633,2.918-3.307" transform="translate(92.223 134.682)" fill="#163c6b"/>
        <path id="Trazado_117374" data-name="Trazado 117374" d="M177.728,253.983s1.175,13.7,4.533,14.538c0,0,2.154.53,2.224-2.94s.97-10.192.97-10.192Z" transform="translate(94.539 135.102)" fill="#ffb39c"/>
        <path id="Trazado_117375" data-name="Trazado 117375" d="M222.182,269.747l-16.5-11.581c-2.106-.85-6.569-.965-9.506-.415a2.419,2.419,0,0,0-2.1,2.48l.172,2.555c.1,3.684.558,4.187,3.337,5.31l16.507,6.664c2.78,1.121,6.744.994,8.807-.285l.585-.363c2.065-1.278,1.478-3.243-1.3-4.365" transform="translate(103.232 136.927)" fill="#163c6b"/>
        <path id="Trazado_117376" data-name="Trazado 117376" d="M196.306,311.317c.175,4.666,9.659,6.345,9.838,1.61,9.484-54.31,12.985-84.135,15.185-130.591L192.3,157.9c2.342,40.324,7.654,71.538,6.934,106.354-.092,4.513-2.6,8.38-2.851,12.718-.521,9.009.7,25.573-.078,34.341" transform="translate(102.292 83.994)" fill="#ffb39c"/>
        <path id="Trazado_117377" data-name="Trazado 117377" d="M201.2,280.788c.251-4.338,2.759-8.207,2.852-12.718.72-34.816-4.591-66.032-6.934-106.354L192.3,156.9c2.341,40.322,7.652,71.538,6.934,106.353-.093,4.513-2.6,8.381-2.852,12.72-.521,9.008.7,25.571-.078,34.34.087,2.313,2.46,3.891,4.855,4.319.692-8.884-.472-25,.038-33.843" transform="translate(102.292 83.461)" fill="#eb7a59"/>
        <path id="Trazado_117378" data-name="Trazado 117378" d="M177.85,284.847c-1.034,4.093,4.787,8.05,7.393,4.372,7.83-16.127,13.562-28.551,18.893-40.736,4.04-9.231,4.905-20.266,6.6-31.342,4.038-26.423-23.262-33.09-21.9-6.235.558,10.976,2.4,19.776,1.045,30.728-.654,5.3-5.72,7.292-7.47,16.2-1.779,9.046-2.128,14.094-4.557,27.016" transform="translate(94.54 103.065)" fill="#ffb39c"/>
        <path id="Trazado_117379" data-name="Trazado 117379" d="M184.165,260.1c2.018-10.264,8.588-13.676,9.343-19.785,1.558-12.623.293-20.873-.349-33.522a29.211,29.211,0,0,1,1.587-12.159c-3.677,2.025-6.391,7.243-5.939,16.168.556,10.975,2.4,19.774,1.045,30.728-.654,5.3-5.72,7.29-7.47,16.2-1.779,9.045-2.128,14.094-4.557,27.016-.587,2.319,4.377-14.651,6.341-24.643" transform="translate(94.565 103.534)" fill="#eb7a59"/>
        <path id="Trazado_117380" data-name="Trazado 117380" d="M196.829,261.68s11.793,4.812,13.928,3.4c1.8-1.189-6.923-6.892-6.923-6.892Z" transform="translate(104.7 137.34)" fill="#ffb39c"/>
        <path id="Trazado_117381" data-name="Trazado 117381" d="M211.246,226.694s-4.44-5.08-10.99,1.062l-1.334-1.835,1.674-8.637,11.755.8Z" transform="translate(105.813 115.58)" fill="#eb7a59"/>
        <path id="Trazado_117382" data-name="Trazado 117382" d="M218.682,135.216,238.5,172.932l-7.626,8.358-26.23-43.109Z" transform="translate(108.856 71.926)" fill="#ffb39c"/>
        <path id="Trazado_117383" data-name="Trazado 117383" d="M212.594,152.127l10.794-5.515s.884,5.88-3.931,7.367-6.863-1.852-6.863-1.852" transform="translate(113.086 77.988)" fill="#fa8d6c"/>
        <path id="Trazado_117384" data-name="Trazado 117384" d="M213.7,154.665s9.31.244,11.231-6.737l-2.872-5.778-12.105,6.384Z" transform="translate(111.681 75.614)" fill="#fff"/>
        <path id="Trazado_117385" data-name="Trazado 117385" d="M192.707,106.578s-15.338,3-19.1,8.874,2.9,20.362,2.9,20.362v-7.569s-8.862-14.555,15.6-17.746c16.43-2.143.6-3.922.6-3.922" transform="translate(91.733 56.692)" fill="#163c6b"/>
        <path id="Trazado_117386" data-name="Trazado 117386" d="M191.739,106.868s-25.3,16.379-15.921,32.243,34.8,22.7,34.8,22.7l10.333-53.284Z" transform="translate(92.414 56.847)" fill="#163c6b"/>
        <path id="Trazado_117387" data-name="Trazado 117387" d="M208.29,121.916c5.593-.4,9.025,5.748,11.405,15.543l9.846,18.5s-3.07,12.557-18.736,6.2c-21.7-8.8-2.515-40.245-2.515-40.245" transform="translate(106.633 64.842)" fill="#0283ad"/>
        <path id="Trazado_117388" data-name="Trazado 117388" d="M191.308,166.167c-11.993,20.482-2.339,39.775-7.332,75.7,0,0,22.282,17.455,42.729.786l-.947-77.493Z" transform="translate(97.863 87.855)" fill="#225da6"/>
        <path id="Trazado_117389" data-name="Trazado 117389" d="M209.966,246.411c3.258-1.379,3-1.956,4.556-3.159,1.615-30.106,1.624-57.106-3.225-79.218l-4.421,1.46c4.308,13.839,4.308,18.248,4.308,35.205,0,23.753-4.412,39.15-1.218,45.711" transform="translate(110.044 87.255)" fill="#0ba0d1"/>
        <path id="Trazado_117390" data-name="Trazado 117390" d="M201.086,251.014c-14.912-21.488-.544-21.01-2.606-32.394-4.279-23.615,4.862-29.036,1.078-53.605l-7.341-3.407c-20.355,18.314-2.339,46.225-7.332,82.151,0,0,4.842,4.361,16.2,7.255" transform="translate(96.954 85.964)" fill="#163c6b"/>
        <path id="Trazado_117391" data-name="Trazado 117391" d="M225.571,188.494c.057-3.586,2.056-15.3,2.923-22.1.81-6.348,4.717-5.406,3.347-13.144-.179-4.222-6.567-15.07-6.892-18.153-.513-4.876.332-10.043-9.921-14.843l-4.508.977a29.775,29.775,0,0,0-6.186,2.068c-20.9,9.683-25.461,10.155-24.005,22.4.237,6.3,3.985,1.4,5.114,5.567,2.166,8,10.612,16.144,7.635,30.171-.6,2.831-2.816,4.76-.294,6.638,10.929,8.139,32.639,9.746,32.788.417" transform="translate(95.79 63.969)" fill="#0ba0d1"/>
        <path id="Trazado_117392" data-name="Trazado 117392" d="M211.3,164.76c.012.3.028-.021,0,0" transform="translate(112.4 87.641)" fill="#ff5cab"/>
        <path id="Trazado_117393" data-name="Trazado 117393" d="M217.243,147.706c-.179-4.222-7.664-16.222-7.989-19.305l-.031,1.935c.355,3.386,5.245,11.58,5.443,16.215a25.324,25.324,0,0,1-1.972,13.948s5.713-6.217,4.548-12.793" transform="translate(111.293 68.301)" fill="#0ba0d1"/>
        <path id="Trazado_117394" data-name="Trazado 117394" d="M189.193,137.366l-4.375,15.192,5.739,21.994,4.073,2.857V158.136c-3.047-6.022-4.337-13.326-5.437-20.77" transform="translate(98.311 73.069)" fill="#0283ad"/>
        <path id="Trazado_117395" data-name="Trazado 117395" d="M232.8,172.517l-4.167,2.37c-2.034,1.158-4.654,1.1-5.82-.127L222,173.9c-1.167-1.229-.455-3.183,1.581-4.341l4.167-2.37c2.036-1.158,4.654-1.1,5.82.127l.817.861c1.167,1.229.457,3.183-1.581,4.341" transform="translate(117.789 88.49)" fill="#ffb39c"/>
        <path id="Trazado_117396" data-name="Trazado 117396" d="M199.8,176.478l-.126-.885,1.478.426.219-.567,32.9-16.851a2.283,2.283,0,0,1,1.677.037l16.28,6.924-.029-.2,2.951.882.142.941h-.021a.4.4,0,0,1-.231.247L220.8,184.97a2.283,2.283,0,0,1-1.677-.037l-18.855-8.021c-.288-.121-.449-.28-.472-.434Z" transform="translate(106.212 84.289)" fill="#a8c4e5"/>
        <path id="Trazado_117397" data-name="Trazado 117397" d="M220.681,184.359l34.24-17.536c.4-.2.29-.553-.236-.777l-18.855-8.02a2.291,2.291,0,0,0-1.677-.038l-34.24,17.538c-.4.2-.29.551.236.775L219,184.32a2.279,2.279,0,0,0,1.676.038" transform="translate(106.212 83.964)" fill="#e1eaf4"/>
        <path id="Trazado_117398" data-name="Trazado 117398" d="M212.437,170.194l8.286-4.243c.1-.051.07-.135-.057-.188l-4.564-1.941a.556.556,0,0,0-.406-.009l-8.286,4.243c-.1.051-.07.135.057.188l4.564,1.941a.556.556,0,0,0,.406.009" transform="translate(110.297 87.119)" fill="#a8c4e5"/>
        <path id="Trazado_117399" data-name="Trazado 117399" d="M213.773,183.721a70.346,70.346,0,0,1-33.172-9.587c-2.664-1.552-3.58-4.167-3.644-7.145-.146-6.825.558-19.894,2.866-21.864l8.95,11.332-1.052,10.022c11.572,5.1,18.6,10.8,25.666,12.943Z" transform="translate(94.119 77.197)" fill="#ffb39c"/>
        <path id="Trazado_117400" data-name="Trazado 117400" d="M182.7,172.7c-2.4-1.946-3.269-5.952-3.332-8.93-.1-4.813-.092-12.251.731-16.913l-.774-.887c-2.309,1.972-2.388,14.085-2.243,20.909a8.807,8.807,0,0,0,4.41,7.34,70.345,70.345,0,0,0,33.172,9.587S192.982,181.05,182.7,172.7" transform="translate(94.169 77.645)" fill="#fa8d6c"/>
        <path id="Trazado_117401" data-name="Trazado 117401" d="M188.381,128.579s8.089,19.385,19.84,14.334,3.237-22.585,3.237-22.585a99.374,99.374,0,0,0-23.077,8.251" transform="translate(100.206 64.006)" fill="#ffb39c"/>
        <path id="Trazado_117402" data-name="Trazado 117402" d="M199.29,136.711l.792.159a4.466,4.466,0,0,0,5.489-3.615l1.935-14.245a5.2,5.2,0,0,0-4.242-5.572l-.792-.159a4.464,4.464,0,0,0-5.489,3.615l-3.991,13.26c-.343,2.526,3.621,6.019,6.3,6.557" transform="translate(102.648 60.202)" fill="#ffb39c"/>
        <path id="Trazado_117403" data-name="Trazado 117403" d="M198.865,167.733s9.087-3.649,12.763-2.405c2.7.911,6.885,3.991,8.922,5.566a.391.391,0,0,1-.286.709l-3.957-.625,3.352,2.727L217.8,176.1a2.531,2.531,0,0,1-3.392.476l-5.78-3.755s-.752,2.712-8.64.815c-1.854-.446-1.118-5.9-1.118-5.9" transform="translate(105.706 87.806)" fill="#ffb39c"/>
        <path id="Trazado_117404" data-name="Trazado 117404" d="M215.472,170.2a3.434,3.434,0,0,1,1.682-2.059l36.187-18.114a1.17,1.17,0,0,1,.8-.149l0,0,.006,0a.47.47,0,0,1,.185.1l1.193.893-1.088-.006L250.952,168.2a3.437,3.437,0,0,1-1.684,2.059l-34.217,17.127-1.106,1.025-.138.244a5.711,5.711,0,0,1-2.344-.64Z" transform="translate(112.484 79.715)" fill="#fff"/>
        <path id="Trazado_117405" data-name="Trazado 117405" d="M216.477,165.608a3.434,3.434,0,0,1,1.682-2.059l36.187-18.114a1.17,1.17,0,0,1,.8-.149l0,0,.006,0a.471.471,0,0,1,.185.1l1.193.892-1.088,0L251.957,163.6a3.441,3.441,0,0,1-1.684,2.059l-34.217,17.127-1.106,1.025-.138.244a5.711,5.711,0,0,1-2.344-.64Z" transform="translate(113.019 77.271)" fill="#fff"/>
        <path id="Trazado_117406" data-name="Trazado 117406" d="M255.433,146.053l-36.187,18.114a3.434,3.434,0,0,0-1.682,2.059l-3.528,17.519a.252.252,0,0,0,0,.034l-1.412,7.013c-.15.748.358,1.037,1.138.648l36.186-18.114a3.442,3.442,0,0,0,1.684-2.059l3.527-17.519c0-.012,0-.023,0-.035l1.412-7.012c.15-.748-.36-1.039-1.138-.648" transform="translate(113.086 77.598)" fill="#225da6"/>
        <path id="Trazado_117407" data-name="Trazado 117407" d="M226.742,162.788c-.04,1.276,1.16,1.69,2.679.925a5.1,5.1,0,0,0,2.823-3.7c.04-1.276-1.16-1.69-2.679-.924a5.1,5.1,0,0,0-2.823,3.693" transform="translate(120.611 84.423)" fill="#fff"/>
        <path id="Trazado_117408" data-name="Trazado 117408" d="M190.932,127.084s7.127,19.989,18.858,14.682c9.1-4.118,2.5-20.652,2.5-20.652l2.453.473S222.6,141,209.312,146.422c-11.7,4.772-21.505-17.839-21.505-17.839Z" transform="translate(99.901 64.424)" fill="#fff"/>
        <path id="Trazado_117409" data-name="Trazado 117409" d="M194.84,103.211c2.416-3.879,6.1-4.559,9.518-2.327,3.352-1.36,7.4.64,10.385,5.716,4.156,7.067,3.743,16.877,1.147,23.039-1.406,3.338-3.056,5.662-11.044,4.27-5.412-1.037-8.459-2.626-11.523-7.834-4.156-7.067-2.005-17.205,1.517-22.863" transform="translate(101.624 52.989)" fill="#ffb39c"/>
        <path id="Trazado_117410" data-name="Trazado 117410" d="M205.623,124.3a14.915,14.915,0,0,1-10.88-6.2s4.435,9.173,10.339,10.178Z" transform="translate(103.59 62.822)" fill="#fa8d6c"/>
        <path id="Trazado_117411" data-name="Trazado 117411" d="M189.847,129.3a23.757,23.757,0,0,1,5.16-2.322l2.931-10.019s-1.388,2.027,1.691,5.084l-.541,2.036a10.721,10.721,0,0,1-4.922,6.5l-3.124,1.559Z" transform="translate(100.986 62.212)" fill="#fa8d6c"/>
        <path id="Trazado_117412" data-name="Trazado 117412" d="M188.144,140.249c2.877,6.849,4.746,15.606,20.906,19.67,0,0-14.308,2.8-17.959,1.561s-2.947-21.231-2.947-21.231" transform="translate(100.051 74.603)" fill="#0283ad"/>
        <path id="Trazado_117413" data-name="Trazado 117413" d="M213.91,148.631s-.427.524-.555.7c-.628.878-2.652,3.523-4.728,4.184l4.343.286" transform="translate(110.976 79.062)" fill="#0283ad"/>
        <path id="Trazado_117414" data-name="Trazado 117414" d="M196.773,118.305s8.177,3.222,13.2-7.776c0,0,1.786-3.775,1.023-5.374s-14.224,13.15-14.224,13.15" transform="translate(104.67 55.871)" fill="#fa8d6c"/>
        <path id="Trazado_117415" data-name="Trazado 117415" d="M217.275,109.871c-9.605,14.857-15.2,10.592-15.428,12.911,0,0-1.622,6.164-1.625,6.178-.974,4.61-5.651,2.736-10.149,4.228l-.014,0S175.3,116.117,193.644,102.4c12.412-9.284,29.582-.142,27.723,12.072Z" transform="translate(98.113 52.446)" fill="#163c6b"/>
        <path id="Trazado_117416" data-name="Trazado 117416" d="M177.294,142.219s13.809-6.776,15.025-11.165,7.888-4.925,9.477-9.814l5.34-2.957s7.28.614,13.944-11.859c0,0,1.336-1.74-1.829-1.271s-4.988,8.492-8.94,8.824-8.413,5.964-11.4,7.87-7.955-.573-12.061,5.386-9.552,14.985-9.552,14.985" transform="translate(94.308 55.892)" fill="#225da6"/>
        <path id="Trazado_117417" data-name="Trazado 117417" d="M192.887,117.378a3.9,3.9,0,0,0,4.939,1.61,3.2,3.2,0,0,0,1.279-4.613,3.9,3.9,0,0,0-4.939-1.61,3.2,3.2,0,0,0-1.279,4.613" transform="translate(102.337 59.801)" fill="#ffb39c"/>
        <path id="Trazado_117418" data-name="Trazado 117418" d="M195.892,115.471a.842.842,0,0,0,.061-1.285c-.544-.541-1.377-1.054-2,.006s.055,2.439.653,3.314a.164.164,0,0,0,.3-.123,1.3,1.3,0,0,1,.415-1.54c.231-.139.418-.263.568-.372" transform="translate(103.039 60.414)" fill="#fa8d6c"/>
        <path id="Trazado_117419" data-name="Trazado 117419" d="M209.742,109.59l4.092,4.6a11.3,11.3,0,0,0-2.541-9.4s-4.027-4.833-8.377-5.638-7.948,13.878,2.492,12.893Z" transform="translate(105.646 52.727)" fill="#225da6"/>
        <path id="Trazado_117420" data-name="Trazado 117420" d="M177.953,155.208,188,154.7s-3.955,4.815-9.922,3.073Z" transform="translate(94.659 82.287)" fill="#fa8d6c"/>
        <path id="Trazado_117421" data-name="Trazado 117421" d="M176.824,156.109s4.679,3.628,11.862.671l.412-5.172-12.274-.87Z" transform="translate(94.058 80.182)" fill="#fff"/>
        <path id="Trazado_117422" data-name="Trazado 117422" d="M195.058,142.459l-3.3,20.908a5.989,5.989,0,0,1-5.6,5.268c-4.2.165-9.6-.578-9.613-5.477a83.785,83.785,0,0,1,5.457-30.3c1.048-2.692,4.041-3.327,7.4-5.423.542-.339.158,2.653.76,3.091a12.52,12.52,0,0,1,4.895,11.932" transform="translate(93.912 67.773)" fill="#0ba0d1"/>
        <path id="Trazado_117423" data-name="Trazado 117423" d="M182.074,130.967s-6.892,18.714-5.458,30.963c0,0-.021,3.261,3.919,4.222a16.215,16.215,0,0,1-1.287-6.649c.095-3.715,1.673,1.31,2.247-.034s.87-6.316.579-9.786,1.852-13.407.817-15.756-.817-2.961-.817-2.961" transform="translate(93.843 69.666)" fill="#0283ad"/>
        <g id="Grupo_141448" data-name="Grupo 141448" transform="translate(292.67 195.182)" opacity="0.19">
          <g id="Grupo_141447" data-name="Grupo 141447">
            <g id="Grupo_141446" data-name="Grupo 141446" clip-path="url(#clip-path-6)">
              <path id="Trazado_117424" data-name="Trazado 117424" d="M265.742,154.934l-17.26-27.526-57.435,26.345,34.174,47.511,42.813-44.739" transform="translate(-191.046 -127.409)" fill="#fff"/>
            </g>
          </g>
        </g>
        <g id="Grupo_141451" data-name="Grupo 141451" transform="translate(376.367 190.603)" opacity="0.28">
          <g id="Grupo_141450" data-name="Grupo 141450">
            <g id="Grupo_141449" data-name="Grupo 141449" clip-path="url(#clip-path-7)">
              <path id="Trazado_117425" data-name="Trazado 117425" d="M274.595,143.453l-28.914,13.506,3.265-19.031,28.914-13.507Z" transform="translate(-245.681 -124.42)" fill="#fff"/>
            </g>
          </g>
        </g>
        <g id="Grupo_141454" data-name="Grupo 141454" transform="translate(373.913 214.651)" opacity="0.28">
          <g id="Grupo_141453" data-name="Grupo 141453">
            <g id="Grupo_141452" data-name="Grupo 141452" clip-path="url(#clip-path-7)">
              <path id="Trazado_117426" data-name="Trazado 117426" d="M272.993,159.15l-28.914,13.506,3.265-19.031,28.914-13.507Z" transform="translate(-244.079 -140.118)" fill="#fff"/>
            </g>
          </g>
        </g>
        <g id="Grupo_141457" data-name="Grupo 141457" transform="translate(57.223 275.563)" opacity="0.32" style="mix-blend-mode: multiply;isolation: isolate">
          <g id="Grupo_141456" data-name="Grupo 141456">
            <g id="Grupo_141455" data-name="Grupo 141455" clip-path="url(#clip-path-9)">
              <path id="Trazado_117427" data-name="Trazado 117427" d="M37.354,306.38s8.158-17.334,23.2-23.158c11.5-4.453,5.455.559,19.252-7.661,8.136-4.846,20.77-29.906,40.841-39.058,36.339-16.571,49.007-59.934,64.8-56.421v82.248l-148.1,56.415Z" transform="translate(-37.353 -179.879)" fill="#009c98"/>
            </g>
          </g>
        </g>
        <path id="Trazado_117428" data-name="Trazado 117428" d="M37.522,300.053c-.268.2-.486.147-.486-.121V217.765a1.244,1.244,0,0,1,.486-.849c.268-.2.486-.147.486.12V299.2a1.244,1.244,0,0,1-.486.849" transform="translate(19.701 115.32)" fill="#fff"/>
        <path id="Trazado_117429" data-name="Trazado 117429" d="M61.6,290.265c-.268.2-.486.147-.486-.12v-82.17a1.244,1.244,0,0,1,.486-.849c.268-.2.486-.147.486.121v82.168a1.244,1.244,0,0,1-.486.849" transform="translate(32.509 110.113)" fill="#fff"/>
        <path id="Trazado_117430" data-name="Trazado 117430" d="M85.68,281.148c-.268.2-.486.147-.486-.121V198.86a1.244,1.244,0,0,1,.486-.849c.268-.2.486-.147.486.121V280.3a1.244,1.244,0,0,1-.486.849" transform="translate(45.317 105.264)" fill="#fff"/>
        <path id="Trazado_117431" data-name="Trazado 117431" d="M109.758,272.019c-.268.2-.486.147-.486-.121V189.731a1.244,1.244,0,0,1,.486-.849c.268-.2.486-.147.486.121V271.17a1.244,1.244,0,0,1-.486.849" transform="translate(58.125 100.408)" fill="#8123b0"/>
        <path id="Trazado_117432" data-name="Trazado 117432" d="M133.836,263.722c-.268.2-.486.147-.486-.121V181.434a1.244,1.244,0,0,1,.486-.849c.268-.2.486-.147.486.12v82.168a1.244,1.244,0,0,1-.486.849" transform="translate(70.933 95.995)" fill="#fff"/>
        <path id="Trazado_117433" data-name="Trazado 117433" d="M135.416,176.717l-4.864,1.572c-.538.173-.979-.253-.979-.95a1.706,1.706,0,0,1,.979-1.581l4.864-1.572c.538-.175.979.253.979.95a1.708,1.708,0,0,1-.979,1.581" transform="translate(68.924 92.635)" fill="#fff"/>
        <path id="Trazado_117434" data-name="Trazado 117434" d="M110.979,186.977l-4.864,1.572c-.539.175-.979-.253-.979-.95a1.705,1.705,0,0,1,.979-1.581l4.864-1.572c.538-.173.979.253.979.95a1.708,1.708,0,0,1-.979,1.581" transform="translate(55.925 98.093)" fill="#afb0e0"/>
        <path id="Trazado_117435" data-name="Trazado 117435" d="M87.08,196.883l-4.864,1.572c-.539.175-.979-.253-.979-.95a1.705,1.705,0,0,1,.979-1.581l4.864-1.572c.538-.175.979.253.979.95a1.708,1.708,0,0,1-.979,1.581" transform="translate(43.213 103.362)" fill="#fff"/>
        <path id="Trazado_117436" data-name="Trazado 117436" d="M62.836,206.812l-4.864,1.572c-.539.175-.979-.253-.979-.948a1.706,1.706,0,0,1,.979-1.582l4.864-1.572c.538-.173.979.253.979.95a1.706,1.706,0,0,1-.979,1.581" transform="translate(30.316 108.643)" fill="#fff"/>
        <path id="Trazado_117437" data-name="Trazado 117437" d="M38.95,216.266l-4.864,1.572c-.538.175-.979-.253-.979-.95a1.707,1.707,0,0,1,.979-1.581l4.864-1.572c.538-.175.979.253.979.95a1.706,1.706,0,0,1-.979,1.581" transform="translate(17.611 113.672)" fill="#fff"/>
        <path id="Trazado_117438" data-name="Trazado 117438" d="M33.785,112.331,114.363,82.8a6.183,6.183,0,0,1,1.8-.374l73.161-26.816c4.412-1.618,8.138,1.918,8.28,7.856l.715,29.957c0,.032,0,.063,0,.1l.178,7.419a10,10,0,0,1-6.63,9.924s-54.995,19.976-79.1,28.725c-.132.049-.267.075-.4.113-13.656,4.96-54.647,19.849-74.564,27.077-5.02,1.823-11.261,2.419-11.391-3.05l-.8-38.516c-.144-6.06,2.97-10.969,8.171-12.876" transform="translate(13.622 29.37)" fill="#45e6bb"/>
        <path id="Trazado_117439" data-name="Trazado 117439" d="M45.289,96.451C53.5,93.375,60.7,98.224,61.382,107.28s-5.423,18.89-13.631,21.966-15.413-1.774-16.093-10.829,5.423-18.89,13.631-21.966" transform="translate(16.812 50.814)" fill="#78f5d3"/>
        <path id="Trazado_117440" data-name="Trazado 117440" d="M60.725,114.943,166.814,75.533a5.64,5.64,0,0,0,3.107-5.062c0-2.149-1.4-3.389-3.107-2.754L60.725,107.127a5.643,5.643,0,0,0-3.107,5.062c0,2.149,1.4,3.389,3.107,2.754" transform="translate(30.649 35.932)" fill="#78f5d3"/>
        <path id="Trazado_117441" data-name="Trazado 117441" d="M61.111,118.482l52.625-19.551a5.64,5.64,0,0,0,3.107-5.062c0-2.148-1.4-3.387-3.107-2.753L61.111,110.666A5.643,5.643,0,0,0,58,115.727c0,2.149,1.4,3.389,3.107,2.754" transform="translate(30.854 48.38)" fill="#78f5d3"/>
        <path id="Trazado_117442" data-name="Trazado 117442" d="M28.761,152.328v80.593l74.464-26.463V125.865Z" transform="translate(15.299 66.952)" fill="#78f5d3"/>
        <path id="Trazado_117443" data-name="Trazado 117443" d="M89.014,131.331v80.593l74.464-26.463V104.869Z" transform="translate(47.35 55.783)" fill="#78f5d3"/>
        <path id="Trazado_117444" data-name="Trazado 117444" d="M40.8,174.4l.149,1.169a2.875,2.875,0,0,0,4.369,2.312h0c1.877-.879,3.125,1.106,1.978,3.148-1.3,2.312-.968,4.916.737,5.818l.879.466c1.707.9,4.142-.241,5.44-2.551,1.147-2.042,3.545-2.1,3.8-.093a2.876,2.876,0,0,0,4.371,2.312l1.092-.513a6.138,6.138,0,0,0,3.327-5.918c-.256-2.007,1.886-4.076,3.393-3.278h0c1.707.9,4.142-.239,5.44-2.551l.669-1.189c1.3-2.312.968-4.916-.738-5.818-1.507-.8-.875-3.666,1-4.545a6.141,6.141,0,0,0,3.326-5.918l-.149-1.17a2.875,2.875,0,0,0-4.369-2.31c-1.877.879-3.125-1.106-1.978-3.148,1.3-2.312.968-4.916-.738-5.818l-.878-.464c-1.707-.9-4.142.239-5.441,2.549-1.147,2.042-3.545,2.1-3.8.093a2.875,2.875,0,0,0-4.369-2.312l-1.094.513A6.14,6.14,0,0,0,53.9,151.1c.254,2.007-1.887,4.076-3.395,3.278-1.707-.9-4.142.239-5.441,2.551l-.668,1.189c-1.3,2.312-.97,4.916.737,5.82,1.507.8.876,3.664-1,4.544A6.141,6.141,0,0,0,40.8,174.4m10.069-4.1c-.715-5.639,2.98-12.214,8.254-14.687s10.128.1,10.843,5.736-2.98,12.214-8.253,14.687-10.129-.1-10.845-5.736" transform="translate(21.685 76.614)" fill="#fff"/>
        <path id="Trazado_117445" data-name="Trazado 117445" d="M133.243,221.968c-.55,1.327-1.166,2.794-1.166,2.794a9.378,9.378,0,0,1-5.351,4.936,10.39,10.39,0,0,0-1.651.746l.516-4.3c0-.025.282-2.753.5-4.921-1.65-3.292-3.208-5.4-2.583-7.214l-1.114-1.6a.793.793,0,0,1-.064-.783l3.438-7.588a.8.8,0,0,1,1.442-.058c.311.65.718,1.6,1.177,2.718l1.97-2.08s2.572,9.357,3.165,13.36c.006.041.015.087.026.139a6.448,6.448,0,0,1-.306,3.853" transform="translate(65.033 108.273)" fill="#ffb39c"/>
        <path id="Trazado_117446" data-name="Trazado 117446" d="M96.775,139.653l-3.356.686a2.384,2.384,0,0,1-2.834-2.517l-.006-.412a3.718,3.718,0,0,1,2.724-3.652l3.356-.686a2.384,2.384,0,0,1,2.834,2.517L99.5,136A3.721,3.721,0,0,1,96.775,139.653Z" transform="translate(48.181 70.758)" fill="none" stroke="#082187" stroke-linecap="round" stroke-linejoin="round" stroke-width="0.396"/>
        <path id="Trazado_117447" data-name="Trazado 117447" d="M130.559,156.657,139.543,189c1.642,4.436-.27,11.327-.815,16.026l-3.7,30.309-17.836-5.417s7.991-62.852,8.029-63.479,5.336-9.781,5.336-9.781" transform="translate(62.339 83.331)" fill="#de8b64"/>
        <path id="Trazado_117448" data-name="Trazado 117448" d="M128.879,294.234a1.817,1.817,0,0,1,2.155,1.036c1.319,3.055,4.023,10.088,2.283,12.769-1.347,2.079-2.592,2.071-4.173,2.728a5.871,5.871,0,0,1-3.3.354l-15.759-10.045c-2.051-.429,1.1-6.022,4.133-6.109,4.1-.116,5.616,1.772,5.616,1.772Z" transform="translate(58.21 156.477)" fill="#163c6b"/>
        <path id="Trazado_117449" data-name="Trazado 117449" d="M116.945,295.673a4.256,4.256,0,0,0-3.8,2.517" transform="translate(60.183 157.277)" fill="none" stroke="#fff" stroke-linecap="round" stroke-linejoin="round" stroke-width="0.342"/>
        <path id="Trazado_117450" data-name="Trazado 117450" d="M115.181,292.463l.581,10.967s4.571.407,5.569-2.234a5.2,5.2,0,0,1,3.519-3.1l1.416-.391,1.348-10.3Z" transform="translate(61.269 152.882)" fill="#ffb39c"/>
        <path id="Trazado_117451" data-name="Trazado 117451" d="M129.077,204.526l5.063,1.052.5,16.576a20.26,20.26,0,0,1-1.708,9.812c-.815,9.259-2.669,26.217-1.085,42.091,1.089,10.906,2.005,19.693,1.965,22.657-.09,6.734.3,44.621.3,44.621s-6.422,5.075-15.834.836l-9.314-67.109.43-61.34Z" transform="translate(57.964 108.794)" fill="#163c6b"/>
        <path id="Trazado_117452" data-name="Trazado 117452" d="M113.76,302.059a1.674,1.674,0,0,1,2.181.859c1.031,2.9,3.055,9.605.858,12.361-1.7,2.137-2.684,3.608-7.223,3.68l-24.208-4.668c-2.146-.273-3.539-8.205,2.814-8.707,4.4-.348,16.352-2.273,16.352-2.273Z" transform="translate(44.452 160.619)" fill="#163c6b"/>
        <path id="Trazado_117453" data-name="Trazado 117453" d="M96.393,297.7l-1.025,15.1s5.489-.757,6.886-3.421a7.084,7.084,0,0,1,4.155-3.294l1.566-.487,2.417-10.592Z" transform="translate(50.729 156.925)" fill="#ffb39c"/>
        <path id="Trazado_117454" data-name="Trazado 117454" d="M96.681,303.275s-4.64,1.87-5,5.08" transform="translate(48.767 161.322)" fill="none" stroke="#fff" stroke-linecap="round" stroke-linejoin="round" stroke-width="0.337"/>
        <path id="Trazado_117455" data-name="Trazado 117455" d="M93.9,303.725s-4.155.892-4.5,3.952" transform="translate(47.557 161.561)" fill="none" stroke="#fff" stroke-linecap="round" stroke-linejoin="round" stroke-width="0.337"/>
        <path id="Trazado_117456" data-name="Trazado 117456" d="M108.38,267.4l-.147-27.676,14.707-15.666.968-1.377c.42,7.439-3.127,11.673-6.178,14.736a121.337,121.337,0,0,0-3.122,13.175c.833,3.932,1.6,8.076.121,10.425-1.385,2.2-1.141,6.512-.541,10.606s1.553,7.963,1.592,9.267c.078,2.609,7.926,12.81,6.388,18.446s.9,19.388,2.249,23.236-1.673,11.315-1.673,11.315a52.631,52.631,0,0,1-6.5-2.2l-3.75-36.141-2.226-16.033Z" transform="translate(57.573 118.453)" fill="#225da6"/>
        <path id="Trazado_117457" data-name="Trazado 117457" d="M122.137,208.161l-6.921,79.281s-1.046,26.95-1.308,62.512c-4.185,3.006-13.017,3.966-17.441,1.244,0,0-4.968-61.365-4.787-63.341l.636-80.639Z" transform="translate(48.764 110.226)" fill="#163c6b"/>
        <path id="Trazado_117458" data-name="Trazado 117458" d="M91.679,287.855l.637-80.639,6.03.191-.634,80.342c-.179,1.975,4.787,63.341,4.787,63.341a11.444,11.444,0,0,0,4.41,1.428c-3.784.594-7.862.267-10.443-1.321,0,0-4.967-61.366-4.787-63.342" transform="translate(48.764 110.225)" fill="#225da6"/>
        <path id="Trazado_117459" data-name="Trazado 117459" d="M118.938,160.715l-7.948-21.142-12.821.434,5.025,22.017Z" transform="translate(52.22 74.243)" fill="#ffb39c"/>
        <path id="Trazado_117460" data-name="Trazado 117460" d="M119.333,131.21s5.827,29.344-18.645,29.324c0,0-9.925,2.947-7.837-22.323s16.533-13.775,26.483-7" transform="translate(49.237 65.234)" fill="#ffb39c"/>
        <path id="Trazado_117461" data-name="Trazado 117461" d="M96.1,151a30.819,30.819,0,0,0,10.164-10.9l11.113,5.584,2.053,13.035L103.669,160.3l-1.558-8.784S97.664,152,96.1,151" transform="translate(51.118 74.519)" fill="#fa8d6c"/>
        <path id="Trazado_117462" data-name="Trazado 117462" d="M119.792,157.36l-4.288.982a5.409,5.409,0,0,1-5.844-2.485,26.889,26.889,0,0,1-2.136-4.018c-.787-2.685-1.19-2.368-1.858-6.4-.267-1.6-3.549-1.086-4.05-3.972-.924-5.316-7.018-10.776-7.018-10.776s-3.045-1.267-2.142-3.874c1.321-3.808,3.436-3.108,6.236-4.922,4.23-2.739,21.908-1.29,25.372,4.387.867,1.42,2.05,2.759,2.949,4.446,5.7,10.7-7.222,26.633-7.222,26.633" transform="translate(49.091 64.126)" fill="#225da6"/>
        <path id="Trazado_117463" data-name="Trazado 117463" d="M102.94,141.816h0a14.532,14.532,0,0,0,9.046-6.388,54.932,54.932,0,0,0,6.022-12.576,7.6,7.6,0,0,1,2.721,2.442c.866,1.42,2.048,2.759,2.947,4.446,5.7,10.7-7.222,26.633-7.222,26.633l-4.288.982a5.408,5.408,0,0,1-5.843-2.485,26.708,26.708,0,0,1-2.137-4.02c-.787-2.684-1.19-2.367-1.858-6.4-.234-1.408-2.808-1.181-3.761-3.081a6.851,6.851,0,0,0,4.372.446" transform="translate(52.432 65.349)" fill="#163c6b"/>
        <path id="Trazado_117464" data-name="Trazado 117464" d="M98.632,139.63c-.092,2.5,1.438,4.58,3.418,4.654s3.657-1.9,3.747-4.392-1.438-4.582-3.416-4.654-3.657,1.893-3.749,4.392" transform="translate(52.464 71.936)" fill="#fa8d6c"/>
        <path id="Trazado_117465" data-name="Trazado 117465" d="M86.861,181.585c-4.936-13.242,22.115-27.556,22.115-27.556l15.209-5.012,14.956,3.419c9.811,3.549,10.714,15.568,10.451,21.694,0,.1-2.845,22.907-2.388,34.328.161,4.027.9,27.739.457,29.5-1.3,5.129-51.349,19.008-55.019,4.372,0,0,3.655-31.959-.708-44.947-2.234-6.652-3.775-12.311-5.072-15.793" transform="translate(45.884 79.266)" fill="#f4bb81"/>
        <path id="Trazado_117466" data-name="Trazado 117466" d="M91,128.907c.126,2.439,2.713,4.492,6.2,4.58s6.364-1.818,6.426-4.259,2.364-9.129-1.059-8.458c-4.329.849-12.018-.62-11.568,8.136" transform="translate(48.395 64.217)" fill="#225da6"/>
        <path id="Trazado_117467" data-name="Trazado 117467" d="M117.907,147l-15.313,4.737-6.024,7.65a20.2,20.2,0,0,1,6.263-1.659c9.714-1.366,17.413-3.307,20.548-6.546-.366-1.766-2.278-4.542-5.474-4.182" transform="translate(51.369 78.175)" fill="#fff"/>
        <path id="Trazado_117468" data-name="Trazado 117468" d="M107.916,150.684a6.484,6.484,0,0,0-2.067-1.484l7.124-2.2c3.2-.362,5.107,2.416,5.474,4.182-2.051,2.119-6.066,3.68-11.313,4.891l.031-.02a3.5,3.5,0,0,0,.752-5.366" transform="translate(56.305 78.175)" fill="#cfe4fa"/>
        <path id="Trazado_117469" data-name="Trazado 117469" d="M96.243,155.946s3.284-3.773,1.733-8.286-3.364-13.558-1.039-16.28,4.314,4.772,4.314,4.772l.444,7.626,3.948,2.618-.807,9.141Z" transform="translate(50.973 69.568)" fill="#fa8d6c"/>
        <path id="Trazado_117470" data-name="Trazado 117470" d="M100.28,141.087h0a2,2,0,0,0,2.048-1.946l.161-6.31a2,2,0,0,0-1.947-2.048c-1.1-.028-3.992-2.319-4.02-1.221l1.812,9.477a2,2,0,0,0,1.946,2.048" transform="translate(51.343 68.76)" fill="#225da6"/>
        <path id="Trazado_117471" data-name="Trazado 117471" d="M96.778,182.932c-4.2-11.264,13.072-22.067,18.322-25.041a14.678,14.678,0,0,1,2.82-1.227,56.837,56.837,0,0,1,17.413-2.62l1.818.012c9.809,3.549,10.488,11.272,10.224,17.4,0,.1-2.846,22.907-2.39,34.328.161,4.027.9,27.739.458,29.5-1.305,5.129-50.831,22.189-55.019,4.372,0,0,9.4-29.508,5.035-42.5-2.235-6.652,2.615-10.74,1.317-14.222" transform="translate(48.1 81.941)" fill="#eda65f"/>
        <path id="Trazado_117472" data-name="Trazado 117472" d="M96.551,172.27c1.135,3.044,2.5-.738,3.144,4.911.092.813.627,9.478.665,10.36.276,6.305-2.869,14.311-2.6,20.228a60.562,60.562,0,0,0,4.492,20.908c.093,2.051-1.006,8.009.971,9.264-8.372-.593-12.283-3.162-12.5-7.986,0,0,1.187-34.383-.864-49.068Z" transform="translate(47.8 91.636)" fill="#f4bb81"/>
        <line id="Línea_253" data-name="Línea 253" x2="10.517" y2="1.354" transform="translate(139.16 206.444)" fill="none" stroke="#082187" stroke-linecap="round" stroke-linejoin="round" stroke-width="0.396"/>
        <path id="Trazado_117473" data-name="Trazado 117473" d="M67.866,180.577l-20.14-1.1s-.335,9.058,3.7,9.118,16.128-2.348,16.128-2.348Z" transform="translate(25.383 95.468)" fill="#ffb39c"/>
        <path id="Trazado_117474" data-name="Trazado 117474" d="M44.43,179.635l13.833.758a1.452,1.452,0,0,0,.159-2.9l-13.833-.758a1.452,1.452,0,1,0-.159,2.9" transform="translate(22.903 94.01)" fill="#ffb39c"/>
        <path id="Trazado_117475" data-name="Trazado 117475" d="M63.446,180.083l-4.787-3.965a3.459,3.459,0,0,0-3.211-.65c-2.387.725-6.353,2.152-6.987,3.793-2.908,7.536,4.6,9.948,6.405,5.618,6.2.792,10.572.279,8.58-4.8" transform="translate(25.426 93.258)" fill="#ffb39c"/>
        <path id="Trazado_117476" data-name="Trazado 117476" d="M63.753,178.538l-6.5-.76s-2.2,7.716-.2,10.978l6.736.934Z" transform="translate(29.9 94.566)" fill="#fff"/>
        <path id="Trazado_117477" data-name="Trazado 117477" d="M132.229,154.724S110.7,159.242,104.684,166.7c-2.718,3.366-11.718,17.991-15.16,21.871-1.291,1.455-27.739-.437-27.739-.437-3.738-.415-7.608,13.127,1.777,16.407l27.962,3.105a8.887,8.887,0,0,0,7.421-2.708l15.226-19.5c-9.256-13.731,2.235-22.732,18.057-30.715" transform="translate(30.705 82.303)" fill="#f4bb81"/>
        <path id="Trazado_117478" data-name="Trazado 117478" d="M63.433,186.476a.812.812,0,1,0,.855-.766.812.812,0,0,0-.855.766" transform="translate(33.742 98.785)" fill="#fff"/>
        <path id="Trazado_117479" data-name="Trazado 117479" d="M66.372,186.637a.812.812,0,1,0,.856-.766.812.812,0,0,0-.856.766" transform="translate(35.305 98.87)" fill="#fff"/>
        <path id="Trazado_117480" data-name="Trazado 117480" d="M69.251,186.8a.812.812,0,1,0,.855-.766.812.812,0,0,0-.855.766" transform="translate(36.836 98.954)" fill="#fff"/>
        <g id="Grupo_141460" data-name="Grupo 141460" transform="translate(65.463 455.475)" opacity="0.28">
          <g id="Grupo_141459" data-name="Grupo 141459">
            <g id="Grupo_141458" data-name="Grupo 141458" clip-path="url(#clip-path-10)">
              <path id="Trazado_117481" data-name="Trazado 117481" d="M43.043,303.053l58.93,46.623,134.55-51.795,75.1,51.4" transform="translate(-42.567 -297.022)" fill="none" stroke="#fff" stroke-miterlimit="10" stroke-width="1"/>
            </g>
          </g>
        </g>
      </g>
    </g>
  </g>
</svg>
