<svg xmlns="http://www.w3.org/2000/svg" xmlns:xlink="http://www.w3.org/1999/xlink" width="733" height="198" viewBox="0 0 733 198">
  <defs>
    <filter id="Rectángulo_36007" x="0" y="0" width="246" height="198" filterUnits="userSpaceOnUse">
      <feOffset dy="3" input="SourceAlpha"/>
      <feGaussianBlur stdDeviation="3" result="blur"/>
      <feFlood flood-opacity="0.161"/>
      <feComposite operator="in" in2="blur"/>
      <feComposite in="SourceGraphic"/>
    </filter>
    <clipPath id="clip-path">
      <rect id="Rectángulo_37044" data-name="Rectángulo 37044" width="54.691" height="60.244" fill="#fff"/>
    </clipPath>
    <filter id="Rectángulo_37045" x="243" y="0" width="247" height="198" filterUnits="userSpaceOnUse">
      <feOffset dy="3" input="SourceAlpha"/>
      <feGaussianBlur stdDeviation="3" result="blur-2"/>
      <feFlood flood-opacity="0.161"/>
      <feComposite operator="in" in2="blur-2"/>
      <feComposite in="SourceGraphic"/>
    </filter>
    <clipPath id="clip-path-2">
      <rect id="Rectángulo_37093" data-name="Rectángulo 37093" width="70.832" height="70.832" fill="#fff"/>
    </clipPath>
    <filter id="Rectángulo_37046" x="487" y="0" width="246" height="198" filterUnits="userSpaceOnUse">
      <feOffset dy="3" input="SourceAlpha"/>
      <feGaussianBlur stdDeviation="3" result="blur-3"/>
      <feFlood flood-opacity="0.161"/>
      <feComposite operator="in" in2="blur-3"/>
      <feComposite in="SourceGraphic"/>
    </filter>
    <clipPath id="clip-path-3">
      <rect id="Rectángulo_37094" data-name="Rectángulo 37094" width="42" height="72.672" fill="#fff"/>
    </clipPath>
  </defs>
  <g id="Grupo_141734" data-name="Grupo 141734" transform="translate(-171 -632)">
    <g id="Grupo_141717" data-name="Grupo 141717">
      <g transform="matrix(1, 0, 0, 1, 171, 632)" filter="url(#Rectángulo_36007)">
        <rect id="Rectángulo_36007-2" data-name="Rectángulo 36007" width="228" height="180" rx="35" transform="translate(9 6)" fill="#fff"/>
      </g>
      <path id="Trazado_183763" data-name="Trazado 183763" d="M79.738,11.211A4.025,4.025,0,0,1,78.383,14.1a4.76,4.76,0,0,1-3.223,1.055,4.28,4.28,0,0,1-3.441-1.473,6.038,6.038,0,0,1-1.254-4.043v-.7a6.819,6.819,0,0,1,.578-2.891A4.332,4.332,0,0,1,72.7,4.137a5.164,5.164,0,0,1,5.668.387,4.326,4.326,0,0,1,1.391,2.961H77.41a2.376,2.376,0,0,0-.613-1.6,2.271,2.271,0,0,0-1.605-.5,1.991,1.991,0,0,0-1.754.84,4.707,4.707,0,0,0-.6,2.605V9.7a5.038,5.038,0,0,0,.559,2.7,1.954,1.954,0,0,0,1.762.852,2.314,2.314,0,0,0,1.621-.5,2.241,2.241,0,0,0,.613-1.535Zm1.039-.516a5.013,5.013,0,0,1,.484-2.242A3.546,3.546,0,0,1,82.656,6.93a4.069,4.069,0,0,1,2.113-.539,3.849,3.849,0,0,1,2.793,1.047,4.2,4.2,0,0,1,1.207,2.844l.016.578A4.418,4.418,0,0,1,87.7,13.98a4.209,4.209,0,0,1-5.832,0,4.5,4.5,0,0,1-1.09-3.187Zm2.258.16a3.16,3.16,0,0,0,.453,1.843,1.628,1.628,0,0,0,2.578.008,3.457,3.457,0,0,0,.461-2.015,3.128,3.128,0,0,0-.461-1.831,1.5,1.5,0,0,0-1.3-.649,1.474,1.474,0,0,0-1.281.646A3.516,3.516,0,0,0,83.035,10.856ZM85.215,3h2.461L85.512,5.422H83.676Zm7.078,3.547.07.945a2.971,2.971,0,0,1,2.43-1.1A2.255,2.255,0,0,1,97.035,7.68a2.9,2.9,0,0,1,2.539-1.289,2.521,2.521,0,0,1,2.047.8,3.681,3.681,0,0,1,.672,2.41V15h-2.266V9.6a1.616,1.616,0,0,0-.281-1.053,1.245,1.245,0,0,0-.992-.333,1.409,1.409,0,0,0-1.406.971L97.355,15H95.1V9.6a1.6,1.6,0,0,0-.289-1.065,1.257,1.257,0,0,0-.984-.329,1.463,1.463,0,0,0-1.391.8V15H90.176V6.547ZM103.676,10.7a5.013,5.013,0,0,1,.484-2.242,3.546,3.546,0,0,1,1.395-1.523,4.069,4.069,0,0,1,2.113-.539,3.849,3.849,0,0,1,2.793,1.047,4.2,4.2,0,0,1,1.207,2.844l.016.578A4.418,4.418,0,0,1,110.6,13.98a4.209,4.209,0,0,1-5.832,0,4.5,4.5,0,0,1-1.09-3.187Zm2.258.16a3.16,3.16,0,0,0,.453,1.843,1.628,1.628,0,0,0,2.578.008,3.457,3.457,0,0,0,.461-2.015,3.128,3.128,0,0,0-.461-1.831,1.5,1.5,0,0,0-1.3-.649,1.474,1.474,0,0,0-1.281.646A3.516,3.516,0,0,0,105.934,10.856ZM38.254,27.188H36.762V40.25h1.492v1.188H35.309V26h2.945ZM43.9,34.4H41.23V39H39.723V27.625h3.766a4.457,4.457,0,0,1,2.957.875,3.148,3.148,0,0,1,1.035,2.547,3.062,3.062,0,0,1-.574,1.852,3.428,3.428,0,0,1-1.6,1.18l2.672,4.828V39H46.371ZM41.23,33.172h2.3a2.6,2.6,0,0,0,1.777-.579,1.959,1.959,0,0,0,.66-1.55,2.062,2.062,0,0,0-.629-1.62,2.663,2.663,0,0,0-1.816-.571h-2.3ZM48.973,34.7a4.993,4.993,0,0,1,.488-2.234A3.643,3.643,0,0,1,50.82,30.93a3.7,3.7,0,0,1,1.988-.539,3.565,3.565,0,0,1,2.793,1.2,4.6,4.6,0,0,1,1.066,3.18v.1a5.036,5.036,0,0,1-.473,2.215,3.589,3.589,0,0,1-1.352,1.527,3.743,3.743,0,0,1-2.02.547,3.556,3.556,0,0,1-2.785-1.2A4.575,4.575,0,0,1,48.973,34.8Zm1.453.172a3.616,3.616,0,0,0,.652,2.258,2.211,2.211,0,0,0,3.5-.012,3.955,3.955,0,0,0,.648-2.418,3.61,3.61,0,0,0-.66-2.254,2.1,2.1,0,0,0-1.754-.863,2.075,2.075,0,0,0-1.727.852A3.925,3.925,0,0,0,50.426,34.867ZM60.051,39H58.605V27h1.445Zm5.922-4.3a4.952,4.952,0,0,1,.922-3.129,3.137,3.137,0,0,1,4.766-.168V27h1.445V39H71.777l-.07-.906a2.943,2.943,0,0,1-2.414,1.063,2.887,2.887,0,0,1-2.395-1.2,5.008,5.008,0,0,1-.926-3.141Zm1.445.164a3.749,3.749,0,0,0,.594,2.25,1.92,1.92,0,0,0,1.641.813A2.108,2.108,0,0,0,71.66,36.7V32.813a2.125,2.125,0,0,0-1.992-1.2,1.929,1.929,0,0,0-1.656.82A4.128,4.128,0,0,0,67.418,34.867Zm11.438,4.289a3.693,3.693,0,0,1-2.8-1.129,4.19,4.19,0,0,1-1.078-3.02v-.266a5.073,5.073,0,0,1,.48-2.246A3.748,3.748,0,0,1,76.8,30.949a3.378,3.378,0,0,1,1.871-.559,3.166,3.166,0,0,1,2.563,1.086,4.7,4.7,0,0,1,.914,3.109v.6H76.426a3,3,0,0,0,.73,2.02,2.3,2.3,0,0,0,1.777.77,2.517,2.517,0,0,0,1.3-.312,3.259,3.259,0,0,0,.93-.828l.883.688A3.55,3.55,0,0,1,78.855,39.156Zm-.18-7.578a1.928,1.928,0,0,0-1.469.637A3.1,3.1,0,0,0,76.473,34h4.234v-.109a2.753,2.753,0,0,0-.594-1.707A1.815,1.815,0,0,0,78.676,31.578ZM85.395,39H83.949V27h1.445Zm11.492-.836a3.07,3.07,0,0,1-2.477.992,2.628,2.628,0,0,1-2.059-.785,3.4,3.4,0,0,1-.715-2.324v-5.5h1.445v5.461q0,1.922,1.563,1.922a2.163,2.163,0,0,0,2.2-1.234V30.547h1.445V39H96.918Zm8.523-1.406a1.064,1.064,0,0,0-.441-.91,4.249,4.249,0,0,0-1.539-.559,7.277,7.277,0,0,1-1.742-.562,2.479,2.479,0,0,1-.953-.781,1.869,1.869,0,0,1-.309-1.078,2.193,2.193,0,0,1,.879-1.758,3.432,3.432,0,0,1,2.246-.719,3.532,3.532,0,0,1,2.332.742,2.357,2.357,0,0,1,.895,1.9h-1.453a1.3,1.3,0,0,0-.5-1.023,1.888,1.888,0,0,0-1.27-.43,1.976,1.976,0,0,0-1.234.344,1.082,1.082,0,0,0-.445.9.877.877,0,0,0,.414.789,5.1,5.1,0,0,0,1.5.508,7.8,7.8,0,0,1,1.754.578,2.558,2.558,0,0,1,1,.809,1.988,1.988,0,0,1,.324,1.152,2.163,2.163,0,0,1-.906,1.816,3.8,3.8,0,0,1-2.352.684,4.257,4.257,0,0,1-1.8-.359,2.922,2.922,0,0,1-1.223-1,2.42,2.42,0,0,1-.441-1.395h1.445a1.5,1.5,0,0,0,.582,1.152,2.258,2.258,0,0,0,1.434.426,2.331,2.331,0,0,0,1.316-.332A1.02,1.02,0,0,0,105.41,36.758Zm8.547,1.406a3.07,3.07,0,0,1-2.477.992,2.628,2.628,0,0,1-2.059-.785,3.4,3.4,0,0,1-.715-2.324v-5.5h1.445v5.461q0,1.922,1.563,1.922a2.163,2.163,0,0,0,2.2-1.234V30.547h1.445V39h-1.375Zm8.82.836a3.036,3.036,0,0,1-.2-.891,3.225,3.225,0,0,1-2.406,1.047,2.984,2.984,0,0,1-2.051-.707,2.288,2.288,0,0,1-.8-1.793,2.39,2.39,0,0,1,1-2.051,4.733,4.733,0,0,1,2.824-.73h1.406v-.664A1.623,1.623,0,0,0,122.1,32a1.821,1.821,0,0,0-1.336-.449,2.108,2.108,0,0,0-1.3.391,1.151,1.151,0,0,0-.523.945h-1.453a2,2,0,0,1,.449-1.223,3.066,3.066,0,0,1,1.219-.934,4.1,4.1,0,0,1,1.691-.344,3.342,3.342,0,0,1,2.289.73A2.635,2.635,0,0,1,124,33.133v3.891a4.757,4.757,0,0,0,.3,1.852V39Zm-2.4-1.1a2.54,2.54,0,0,0,1.289-.352,2.127,2.127,0,0,0,.883-.914V34.9h-1.133q-2.656,0-2.656,1.555a1.316,1.316,0,0,0,.453,1.063A1.742,1.742,0,0,0,120.379,37.9Zm9.969-6.055a4.331,4.331,0,0,0-.711-.055A1.9,1.9,0,0,0,127.707,33v6h-1.445V30.547h1.406l.023.977a2.251,2.251,0,0,1,2.016-1.133,1.477,1.477,0,0,1,.641.109Zm2.9,7.156H131.8V30.547h1.445Zm-1.562-10.7a.863.863,0,0,1,.215-.594.807.807,0,0,1,.637-.242.819.819,0,0,1,.641.242.854.854,0,0,1,.219.594.826.826,0,0,1-.219.586.834.834,0,0,1-.641.234.821.821,0,0,1-.637-.234A.834.834,0,0,1,131.684,28.3Zm3.492,6.391a4.993,4.993,0,0,1,.488-2.234,3.642,3.642,0,0,1,1.359-1.531,3.7,3.7,0,0,1,1.988-.539,3.565,3.565,0,0,1,2.793,1.2,4.6,4.6,0,0,1,1.066,3.18v.1a5.036,5.036,0,0,1-.473,2.215,3.589,3.589,0,0,1-1.352,1.527,3.743,3.743,0,0,1-2.02.547,3.556,3.556,0,0,1-2.785-1.2,4.575,4.575,0,0,1-1.066-3.164Zm1.453.172a3.616,3.616,0,0,0,.652,2.258,2.211,2.211,0,0,0,3.5-.012,3.954,3.954,0,0,0,.648-2.418,3.61,3.61,0,0,0-.66-2.254,2.1,2.1,0,0,0-1.754-.863,2.075,2.075,0,0,0-1.727.852A3.925,3.925,0,0,0,136.629,34.867ZM143.66,26h2.953V41.438H143.66V40.25h1.508V27.188H143.66Z" transform="translate(198 755)" fill="#12263f"/>
      <circle id="Elipse_4775" data-name="Elipse 4775" cx="43" cy="43" r="43" transform="translate(246 657)" fill="#039be5"/>
      <g id="Grupo_141598" data-name="Grupo 141598" transform="translate(261.644 669.716)">
        <g id="Grupo_141597" data-name="Grupo 141597" transform="translate(0 0)" clip-path="url(#clip-path)">
          <path id="Trazado_183339" data-name="Trazado 183339" d="M128.787,55.735a4.994,4.994,0,1,1,4.994-4.994,5,5,0,0,1-4.994,4.994m0-8.083a3.089,3.089,0,1,0,3.089,3.089,3.092,3.092,0,0,0-3.089-3.089" transform="translate(-101.33 -37.445)" fill="#fff"/>
          <path id="Trazado_183340" data-name="Trazado 183340" d="M120.713,215.5a3.076,3.076,0,0,1-.5-.04,3.11,3.11,0,0,1-2.523-3.094v-21.74a.953.953,0,0,1,1.905,0v21.74a1.207,1.207,0,0,0,.924,1.213,1.12,1.12,0,0,0,1.314-1.1V196.73a1.942,1.942,0,1,1,3.883,0v15.632a1.207,1.207,0,0,0,.924,1.213,1.12,1.12,0,0,0,1.313-1.1v-1.739a.953.953,0,0,1,1.905,0v1.739a3.025,3.025,0,0,1-3.525,2.983,3.109,3.109,0,0,1-2.523-3.094V196.73c0-.04-.072-.04-.072,0v15.743a3.023,3.023,0,0,1-3.029,3.023" transform="translate(-96.338 -155.253)" fill="#fff"/>
          <path id="Trazado_183341" data-name="Trazado 183341" d="M175.2,221.8a.953.953,0,0,1-.953-.953V202.98a.953.953,0,1,1,1.905,0v17.87a.953.953,0,0,1-.953.953" transform="translate(-142.632 -165.368)" fill="#fff"/>
          <path id="Trazado_183342" data-name="Trazado 183342" d="M104.467,189.427a2.576,2.576,0,0,1-2.573-2.573v-5.895a.953.953,0,1,1,1.905,0v5.895a.668.668,0,0,0,.668.668.659.659,0,0,0,.309-.075.953.953,0,0,1,.886,1.687,2.581,2.581,0,0,1-1.195.294" transform="translate(-83.405 -147.343)" fill="#fff"/>
          <path id="Trazado_183343" data-name="Trazado 183343" d="M119.087,107.267a.949.949,0,0,1-.668-.274,9.878,9.878,0,0,0-6.971-2.859h-.282a9.878,9.878,0,0,0-6.971,2.859.953.953,0,1,1-1.337-1.357,11.772,11.772,0,0,1,8.308-3.407h.282a11.771,11.771,0,0,1,8.307,3.407.953.953,0,0,1-.668,1.631" transform="translate(-83.961 -83.678)" fill="#fff"/>
          <path id="Trazado_183344" data-name="Trazado 183344" d="M177.637,218.86a2.581,2.581,0,0,1-1.195-.294.953.953,0,0,1,.886-1.687.658.658,0,0,0,.309.075.668.668,0,0,0,.616-.408.953.953,0,0,1,1.755.742,2.569,2.569,0,0,1-2.37,1.571" transform="translate(-144.008 -176.777)" fill="#fff"/>
          <path id="Trazado_183345" data-name="Trazado 183345" d="M245.925,65.553a.953.953,0,1,1,0-1.905,2.474,2.474,0,1,0-.464-4.905.953.953,0,0,1-.355-1.872,4.38,4.38,0,1,1,.819,8.683" transform="translate(-199.995 -46.488)" fill="#fff"/>
          <path id="Trazado_183346" data-name="Trazado 183346" d="M222.608,275.669c-.1,0-.192,0-.288-.014a3.1,3.1,0,0,1-2.73-3.1v-8.423a.953.953,0,0,1,1.905,0v8.423a1.177,1.177,0,0,0,1.005,1.2,1.119,1.119,0,0,0,1.232-1.113v-7.977a.953.953,0,0,1,1.905,0v7.977a3.023,3.023,0,0,1-3.03,3.024" transform="translate(-179.744 -215.425)" fill="#fff"/>
          <path id="Trazado_183347" data-name="Trazado 183347" d="M256.335,246.429c-.1,0-.192,0-.288-.014a3.1,3.1,0,0,1-2.73-3.1V230.66a.953.953,0,0,1,1.905,0v12.656a1.177,1.177,0,0,0,1.005,1.2,1.119,1.119,0,0,0,1.232-1.113V228.412a.953.953,0,1,1,1.905,0v14.993a3.023,3.023,0,0,1-3.03,3.024" transform="translate(-207.351 -186.185)" fill="#fff"/>
          <path id="Trazado_183348" data-name="Trazado 183348" d="M277.1,164.725a.953.953,0,0,1-.953-.953V149.443a.953.953,0,1,1,1.905,0v14.329a.953.953,0,0,1-.953.953" transform="translate(-226.038 -121.545)" fill="#fff"/>
          <path id="Trazado_183349" data-name="Trazado 183349" d="M283.262,224.734a.953.953,0,0,1-.953-.953v-1.407a.953.953,0,0,1,1.905,0v1.407a.953.953,0,0,1-.953.953" transform="translate(-231.082 -181.243)" fill="#fff"/>
          <path id="Trazado_183350" data-name="Trazado 183350" d="M254.042,127.775a2.581,2.581,0,0,1-1.195-.294.953.953,0,1,1,.886-1.687.658.658,0,0,0,.309.075.668.668,0,0,0,.668-.668V111.437a3.474,3.474,0,0,0-1.022-2.462,8.232,8.232,0,0,0-5.809-2.383h-.239a.953.953,0,1,1,0-1.905h.239a10.126,10.126,0,0,1,7.146,2.931,5.39,5.39,0,0,1,1.591,3.819V125.2a2.576,2.576,0,0,1-2.573,2.573" transform="translate(-201.923 -85.691)" fill="#fff"/>
          <path id="Trazado_183351" data-name="Trazado 183351" d="M79.471,224.734a.953.953,0,0,1-.953-.953v-1.407a.953.953,0,0,1,1.905,0v1.407a.953.953,0,0,1-.953.953" transform="translate(-64.27 -181.243)" fill="#fff"/>
          <path id="Trazado_183352" data-name="Trazado 183352" d="M74,242.747H70.879a.953.953,0,0,1-.953-.953V231.476a.953.953,0,0,1,.953-.953H74a.953.953,0,0,1,.953.953v10.319a.953.953,0,0,1-.953.953m-2.166-1.905h1.213v-8.413H71.831Z" transform="translate(-57.237 -188.693)" fill="#fff"/>
          <path id="Trazado_183353" data-name="Trazado 183353" d="M29.357,65.547l-.059,0a4.38,4.38,0,0,1,.273-8.751.953.953,0,0,1,0,1.905,2.474,2.474,0,0,0-.156,4.944.953.953,0,0,1-.058,1.9" transform="translate(-20.62 -46.488)" fill="#fff"/>
          <path id="Trazado_183354" data-name="Trazado 183354" d="M24.938,181.789a3.074,3.074,0,0,1-.5-.04,3.109,3.109,0,0,1-2.523-3.094V163.023c0-.04-.072-.04-.072,0v15.743a3.025,3.025,0,0,1-3.525,2.983,3.109,3.109,0,0,1-2.523-3.094V149.443a.953.953,0,1,1,1.905,0v29.212a1.207,1.207,0,0,0,.924,1.213,1.12,1.12,0,0,0,1.314-1.1V163.023a1.941,1.941,0,1,1,3.883,0v15.632a1.207,1.207,0,0,0,.924,1.213,1.12,1.12,0,0,0,1.313-1.1v-1.887a.953.953,0,1,1,1.905,0v1.887a3.023,3.023,0,0,1-3.029,3.023" transform="translate(-12.932 -121.545)" fill="#fff"/>
          <path id="Trazado_183355" data-name="Trazado 183355" d="M73.308,172.6a.953.953,0,0,1-.953-.953V158.682a.953.953,0,0,1,1.905,0v12.965a.953.953,0,0,1-.953.953" transform="translate(-59.226 -129.108)" fill="#fff"/>
          <path id="Trazado_183356" data-name="Trazado 183356" d="M2.573,127.775A2.576,2.576,0,0,1,0,125.2V111.437a5.389,5.389,0,0,1,1.591-3.819,10.125,10.125,0,0,1,7.146-2.931.953.953,0,0,1,0,1.905,8.232,8.232,0,0,0-5.809,2.383,3.472,3.472,0,0,0-1.022,2.462V125.2a.668.668,0,0,0,.668.668.658.658,0,0,0,.309-.075.953.953,0,1,1,.886,1.687,2.581,2.581,0,0,1-1.195.294" transform="translate(0 -85.691)" fill="#fff"/>
          <path id="Trazado_183357" data-name="Trazado 183357" d="M75.742,182.587a2.581,2.581,0,0,1-1.195-.294.953.953,0,0,1,.886-1.687.658.658,0,0,0,.309.075.668.668,0,0,0,.668-.668V172.6a.953.953,0,1,1,1.905,0v7.411a2.576,2.576,0,0,1-2.573,2.573" transform="translate(-60.603 -140.503)" fill="#fff"/>
          <path id="Trazado_183358" data-name="Trazado 183358" d="M186.058,175.151a4.217,4.217,0,0,1-1.012-.123,4.165,4.165,0,0,1-2.585-1.9l-7.891-13.044a.953.953,0,0,1,1.63-.986l7.891,13.044a2.287,2.287,0,0,0,3.141.773l.016-.01a2.287,2.287,0,0,0,.762-3.134L180.225,156.9a.953.953,0,1,1,1.63-.986l7.786,12.87a4.194,4.194,0,0,1-1.417,5.758l-.017.01a4.143,4.143,0,0,1-2.149.6" transform="translate(-142.78 -127.245)" fill="#fff"/>
          <path id="Trazado_183359" data-name="Trazado 183359" d="M72.735,34.049a17.127,17.127,0,0,1-4.1-.5A17.017,17.017,0,0,1,63.9,2.464,17.018,17.018,0,0,1,89.23,21.093,17.039,17.039,0,0,1,72.735,34.049M72.679,1.906a15.117,15.117,0,0,0-12.9,22.94A15.112,15.112,0,1,0,85.635,9.2,15.012,15.012,0,0,0,76.318,2.35a15.212,15.212,0,0,0-3.638-.444m.05,28.622a13.59,13.59,0,0,1-3.25-.4,13.5,13.5,0,0,1-3.76-24.656,13.5,13.5,0,1,1,13.972,23.1,13.406,13.406,0,0,1-6.962,1.955m-.044-25.1a11.6,11.6,0,0,0-2.751,22.855,11.51,11.51,0,0,0,8.771-1.339h0A11.593,11.593,0,0,0,75.476,5.767a11.678,11.678,0,0,0-2.791-.34" transform="translate(-45.577 0)" fill="#fff"/>
          <path id="Trazado_183360" data-name="Trazado 183360" d="M223.057,154.39a.953.953,0,0,1-.953-.953V151.6a.953.953,0,1,1,1.905,0v1.835a.953.953,0,0,1-.953.953" transform="translate(-181.802 -123.313)" fill="#fff"/>
        </g>
      </g>
    </g>
    <g id="Grupo_141718" data-name="Grupo 141718">
      <g transform="matrix(1, 0, 0, 1, 171, 632)" filter="url(#Rectángulo_37045)">
        <rect id="Rectángulo_37045-2" data-name="Rectángulo 37045" width="229" height="180" rx="35" transform="translate(252 6)" fill="#fff"/>
      </g>
      <path id="Trazado_183764" data-name="Trazado 183764" d="M77.6,9.57a6.853,6.853,0,0,1-.516,2.77,4.754,4.754,0,0,1-1.43,1.887l1.891,1.484-1.492,1.32-2.422-1.945a5.126,5.126,0,0,1-.859.07,4.732,4.732,0,0,1-2.523-.68,4.515,4.515,0,0,1-1.719-1.941,6.67,6.67,0,0,1-.617-2.9V9.07a6.831,6.831,0,0,1,.605-2.957,4.508,4.508,0,0,1,1.711-1.961,5.014,5.014,0,0,1,5.055,0,4.508,4.508,0,0,1,1.711,1.961A6.811,6.811,0,0,1,77.6,9.063Zm-2.375-.516a4.787,4.787,0,0,0-.641-2.719,2.263,2.263,0,0,0-3.648-.012,4.732,4.732,0,0,0-.648,2.691V9.57a4.847,4.847,0,0,0,.641,2.7,2.243,2.243,0,0,0,3.656.035,4.819,4.819,0,0,0,.641-2.7Zm9.008,5.086a2.831,2.831,0,0,1-2.312,1.016,2.67,2.67,0,0,1-2.074-.781,3.335,3.335,0,0,1-.73-2.289V6.547h2.258v5.467q0,1.322,1.2,1.322a1.63,1.63,0,0,0,1.578-.8V6.547h2.266V15H84.293ZM90.5,15H88.238V6.547H90.5Zm-2.4-10.641a1.112,1.112,0,0,1,.34-.836,1.465,1.465,0,0,1,1.848,0,1.105,1.105,0,0,1,.344.836,1.108,1.108,0,0,1-.348.844,1.448,1.448,0,0,1-1.836,0A1.108,1.108,0,0,1,88.105,4.359Zm8.148,10.8a4.15,4.15,0,0,1-3.027-1.141,4.054,4.054,0,0,1-1.168-3.039v-.219a5.106,5.106,0,0,1,.492-2.277,3.612,3.612,0,0,1,1.395-1.547A3.914,3.914,0,0,1,96,6.391a3.508,3.508,0,0,1,2.73,1.094,4.444,4.444,0,0,1,1,3.1v.922H94.348a2.1,2.1,0,0,0,.66,1.328,2,2,0,0,0,1.395.5,2.437,2.437,0,0,0,2.039-.945l1.109,1.242a3.389,3.389,0,0,1-1.375,1.121A4.511,4.511,0,0,1,96.254,15.156ZM96,8.211a1.411,1.411,0,0,0-1.09.455,2.357,2.357,0,0,0-.535,1.3h3.141V9.788a1.681,1.681,0,0,0-.406-1.165A1.456,1.456,0,0,0,96,8.211Zm9.766.453a6.134,6.134,0,0,0-.812-.062,1.654,1.654,0,0,0-1.68.867V15h-2.258V6.547h2.133l.063,1.008a2.092,2.092,0,0,1,1.883-1.164,2.366,2.366,0,0,1,.7.1Zm.453,2.031a5.013,5.013,0,0,1,.484-2.242,3.546,3.546,0,0,1,1.395-1.523,4.069,4.069,0,0,1,2.113-.539A3.849,3.849,0,0,1,113,7.438a4.2,4.2,0,0,1,1.207,2.844l.016.578a4.418,4.418,0,0,1-1.086,3.121,4.209,4.209,0,0,1-5.832,0,4.5,4.5,0,0,1-1.09-3.187Zm2.258.16a3.16,3.16,0,0,0,.453,1.843,1.628,1.628,0,0,0,2.578.008,3.457,3.457,0,0,0,.461-2.015A3.128,3.128,0,0,0,111.5,8.86a1.5,1.5,0,0,0-1.3-.649,1.474,1.474,0,0,0-1.281.646A3.516,3.516,0,0,0,108.473,10.856Zm-46.7,16.332H60.281V40.25h1.492v1.188H58.828V26h2.945ZM72,33.68a7.037,7.037,0,0,1-.562,2.918,4.261,4.261,0,0,1-1.594,1.9,4.4,4.4,0,0,1-6.4-1.887,6.752,6.752,0,0,1-.59-2.832v-.82a6.953,6.953,0,0,1,.57-2.9,4.218,4.218,0,0,1,4-2.594,4.41,4.41,0,0,1,2.41.66,4.253,4.253,0,0,1,1.605,1.914A7.071,7.071,0,0,1,72,32.961Zm-1.492-.734A5.1,5.1,0,0,0,69.7,29.84a2.68,2.68,0,0,0-2.273-1.082,2.651,2.651,0,0,0-2.238,1.082,5,5,0,0,0-.84,3v.836a5.107,5.107,0,0,0,.824,3.082,2.888,2.888,0,0,0,4.52.063,5.079,5.079,0,0,0,.82-3.035ZM81.18,34.867a5.026,5.026,0,0,1-.891,3.113A2.846,2.846,0,0,1,77.9,39.156a2.947,2.947,0,0,1-2.477-1.133l-.07.977H74.023V27h1.445v4.477a2.93,2.93,0,0,1,2.414-1.086A2.863,2.863,0,0,1,80.3,31.555a5.177,5.177,0,0,1,.879,3.188ZM79.734,34.7a3.906,3.906,0,0,0-.57-2.281,1.888,1.888,0,0,0-1.641-.8,2.122,2.122,0,0,0-2.055,1.328V36.6a2.181,2.181,0,0,0,2.07,1.328,1.878,1.878,0,0,0,1.617-.8A4.153,4.153,0,0,0,79.734,34.7Zm4.758-4.156v9.43q0,2.438-2.211,2.438a2.7,2.7,0,0,1-.883-.14V41.125a2.794,2.794,0,0,0,.656.063.982.982,0,0,0,.738-.262,1.3,1.3,0,0,0,.254-.911V30.547ZM82.9,28.3a.867.867,0,0,1,.215-.59.79.79,0,0,1,.629-.246.819.819,0,0,1,.641.242.854.854,0,0,1,.219.594.826.826,0,0,1-.219.586.834.834,0,0,1-.641.234.808.808,0,0,1-.633-.234A.843.843,0,0,1,82.9,28.3Zm7.43,10.852a3.693,3.693,0,0,1-2.8-1.129,4.19,4.19,0,0,1-1.078-3.02v-.266a5.073,5.073,0,0,1,.48-2.246,3.748,3.748,0,0,1,1.344-1.547,3.378,3.378,0,0,1,1.871-.559,3.166,3.166,0,0,1,2.563,1.086,4.7,4.7,0,0,1,.914,3.109v.6H87.9a3,3,0,0,0,.73,2.02,2.3,2.3,0,0,0,1.777.77,2.517,2.517,0,0,0,1.3-.312,3.259,3.259,0,0,0,.93-.828l.883.688A3.55,3.55,0,0,1,90.328,39.156Zm-.18-7.578a1.928,1.928,0,0,0-1.469.637A3.1,3.1,0,0,0,87.945,34H92.18v-.109a2.753,2.753,0,0,0-.594-1.707A1.815,1.815,0,0,0,90.148,31.578ZM97.258,28.5v2.047h1.578v1.117H97.258v5.249a1.173,1.173,0,0,0,.211.763.888.888,0,0,0,.719.254,3.5,3.5,0,0,0,.688-.094V39a4.215,4.215,0,0,1-1.109.155A1.8,1.8,0,0,1,96.3,38.57a2.517,2.517,0,0,1-.492-1.664V31.664H94.273V30.547h1.539V28.5ZM102.094,39h-1.445V30.547h1.445Zm-1.562-10.7a.863.863,0,0,1,.215-.594.807.807,0,0,1,.637-.242.819.819,0,0,1,.641.242.854.854,0,0,1,.219.594.826.826,0,0,1-.219.586.834.834,0,0,1-.641.234.821.821,0,0,1-.637-.234A.834.834,0,0,1,100.531,28.3Zm6.664,8.734,2.094-6.492h1.477L107.734,39h-1.1l-3.062-8.453h1.477Zm4.461-2.344a4.993,4.993,0,0,1,.488-2.234A3.643,3.643,0,0,1,113.5,30.93a3.7,3.7,0,0,1,1.988-.539,3.565,3.565,0,0,1,2.793,1.2,4.6,4.6,0,0,1,1.066,3.18v.1a5.036,5.036,0,0,1-.473,2.215,3.589,3.589,0,0,1-1.352,1.527,3.743,3.743,0,0,1-2.02.547,3.556,3.556,0,0,1-2.785-1.2,4.575,4.575,0,0,1-1.066-3.164Zm1.453.172a3.616,3.616,0,0,0,.652,2.258,2.211,2.211,0,0,0,3.5-.012,3.955,3.955,0,0,0,.648-2.418,3.61,3.61,0,0,0-.66-2.254,2.1,2.1,0,0,0-1.754-.863,2.075,2.075,0,0,0-1.727.852A3.925,3.925,0,0,0,113.109,34.867ZM120.141,26h2.953V41.438h-2.953V40.25h1.508V27.188h-1.508Z" transform="translate(442 755)" fill="#12263f"/>
      <ellipse id="Elipse_4866" data-name="Elipse 4866" cx="43.5" cy="43" rx="43.5" ry="43" transform="translate(489 657)" fill="#039be5"/>
      <g id="Grupo_141633" data-name="Grupo 141633" transform="translate(497.084 664.422)">
        <g id="Grupo_141632" data-name="Grupo 141632" clip-path="url(#clip-path-2)">
          <path id="Trazado_183474" data-name="Trazado 183474" d="M49.923,81.451A31.529,31.529,0,1,1,81.452,49.922,31.565,31.565,0,0,1,49.923,81.451m0-60.839a29.31,29.31,0,1,0,29.31,29.31,29.343,29.343,0,0,0-29.31-29.31" transform="translate(-14.507 -14.506)" fill="#fff"/>
          <path id="Trazado_183475" data-name="Trazado 183475" d="M163.445,200.33a1.109,1.109,0,0,1,0-2.219,20.674,20.674,0,0,0,20.43-17.187,1.11,1.11,0,0,1,2.187.377,22.957,22.957,0,0,1-22.617,19.029" transform="translate(-128.028 -141.963)" fill="#fff"/>
          <path id="Trazado_183476" data-name="Trazado 183476" d="M198.683,84.138a1.109,1.109,0,0,1-1.109-1.109A20.739,20.739,0,0,0,180.25,62.574a1.109,1.109,0,0,1,.362-2.189,22.958,22.958,0,0,1,19.18,22.643,1.11,1.11,0,0,1-1.109,1.109" transform="translate(-141.425 -47.612)" fill="#fff"/>
          <path id="Trazado_183477" data-name="Trazado 183477" d="M61.28,79.718a1.111,1.111,0,0,1-1.1-1.277,22.957,22.957,0,0,1,22.687-19.46,1.109,1.109,0,0,1,0,2.219A20.738,20.738,0,0,0,62.376,78.776a1.11,1.11,0,0,1-1.1.942" transform="translate(-47.453 -46.516)" fill="#fff"/>
          <path id="Trazado_183478" data-name="Trazado 183478" d="M78.6,186.143a1.1,1.1,0,0,1-.169-.013,22.957,22.957,0,0,1-19.451-22.686,1.109,1.109,0,0,1,2.219,0,20.738,20.738,0,0,0,17.567,20.493,1.11,1.11,0,0,1-.167,2.206" transform="translate(-46.516 -128.027)" fill="#fff"/>
          <path id="Trazado_183479" data-name="Trazado 183479" d="M163.445,17.664a1.11,1.11,0,0,1-1.109-1.109V1.109a1.109,1.109,0,1,1,2.219,0V16.554a1.11,1.11,0,0,1-1.109,1.109" transform="translate(-128.028)" fill="#fff"/>
          <path id="Trazado_183480" data-name="Trazado 183480" d="M16.553,164.553H1.108a1.109,1.109,0,1,1,0-2.219H16.553a1.109,1.109,0,0,1,0,2.219" transform="translate(0.001 -128.027)" fill="#fff"/>
          <path id="Trazado_183481" data-name="Trazado 183481" d="M163.445,269.25a1.11,1.11,0,0,1-1.109-1.109V252.7a1.109,1.109,0,0,1,2.219,0V268.14a1.11,1.11,0,0,1-1.109,1.109" transform="translate(-128.028 -198.418)" fill="#fff"/>
          <path id="Trazado_183482" data-name="Trazado 183482" d="M255.676,164.553H252.7a1.109,1.109,0,1,1,0-2.219h2.98a1.109,1.109,0,1,1,0,2.219" transform="translate(-198.418 -128.027)" fill="#fff"/>
          <path id="Trazado_183483" data-name="Trazado 183483" d="M279.261,164.553H266.8a1.109,1.109,0,0,1,0-2.219h12.465a1.109,1.109,0,0,1,0,2.219" transform="translate(-209.539 -128.027)" fill="#fff"/>
          <path id="Trazado_183484" data-name="Trazado 183484" d="M136.042,191.383a1.11,1.11,0,0,1-1.048-.744,9.515,9.515,0,0,0-17.965,0,1.11,1.11,0,0,1-2.1-.731,11.734,11.734,0,0,1,22.156,0,1.11,1.11,0,0,1-1.048,1.475" transform="translate(-90.595 -143.571)" fill="#fff"/>
          <path id="Trazado_183485" data-name="Trazado 183485" d="M136.521,113.783a8.323,8.323,0,1,1,8.324-8.324,8.333,8.333,0,0,1-8.324,8.324m0-14.428a6.1,6.1,0,1,0,6.1,6.1,6.111,6.111,0,0,0-6.1-6.1" transform="translate(-101.106 -76.608)" fill="#fff"/>
        </g>
      </g>
    </g>
    <g id="Grupo_141719" data-name="Grupo 141719">
      <g transform="matrix(1, 0, 0, 1, 171, 632)" filter="url(#Rectángulo_37046)">
        <rect id="Rectángulo_37046-2" data-name="Rectángulo 37046" width="228" height="180" rx="35" transform="translate(496 6)" fill="#fff"/>
      </g>
      <path id="Trazado_183765" data-name="Trazado 183765" d="M55.094,10.992V15H52.75V3.625h4.438a5.134,5.134,0,0,1,2.254.469,3.454,3.454,0,0,1,1.5,1.332,3.714,3.714,0,0,1,.523,1.965,3.266,3.266,0,0,1-1.145,2.637,4.767,4.767,0,0,1-3.168.965Zm0-1.9h2.094a2.059,2.059,0,0,0,1.418-.437,1.591,1.591,0,0,0,.488-1.25A1.876,1.876,0,0,0,58.6,6.055a1.839,1.839,0,0,0-1.359-.531H55.094ZM67.734,15a2.507,2.507,0,0,1-.227-.758,2.732,2.732,0,0,1-2.133.914,3,3,0,0,1-2.059-.719,2.312,2.312,0,0,1-.816-1.812,2.389,2.389,0,0,1,1-2.062,4.915,4.915,0,0,1,2.879-.727h1.039V9.352a1.393,1.393,0,0,0-.3-.937,1.183,1.183,0,0,0-.949-.352,1.345,1.345,0,0,0-.895.273.929.929,0,0,0-.324.75H62.688a2.268,2.268,0,0,1,.453-1.359,3,3,0,0,1,1.281-.98,4.669,4.669,0,0,1,1.859-.355,3.689,3.689,0,0,1,2.48.785,2.747,2.747,0,0,1,.918,2.207v3.664a4.041,4.041,0,0,0,.336,1.82V15Zm-1.867-1.57a1.945,1.945,0,0,0,.922-.223,1.462,1.462,0,0,0,.625-.6V11.156H66.57q-1.7,0-1.8,1.172l-.008.133a.9.9,0,0,0,.3.7A1.153,1.153,0,0,0,65.867,13.43Zm10.3-4.766a6.134,6.134,0,0,0-.812-.062,1.654,1.654,0,0,0-1.68.867V15H71.414V6.547h2.133l.063,1.008a2.092,2.092,0,0,1,1.883-1.164,2.366,2.366,0,0,1,.7.1ZM81.914,15a2.507,2.507,0,0,1-.227-.758,2.732,2.732,0,0,1-2.133.914,3,3,0,0,1-2.059-.719,2.312,2.312,0,0,1-.816-1.812,2.389,2.389,0,0,1,1-2.062,4.915,4.915,0,0,1,2.879-.727h1.039V9.352a1.393,1.393,0,0,0-.3-.937,1.183,1.183,0,0,0-.949-.352,1.345,1.345,0,0,0-.895.273.929.929,0,0,0-.324.75H76.867a2.268,2.268,0,0,1,.453-1.359,3,3,0,0,1,1.281-.98,4.669,4.669,0,0,1,1.859-.355,3.689,3.689,0,0,1,2.48.785,2.747,2.747,0,0,1,.918,2.207v3.664a4.041,4.041,0,0,0,.336,1.82V15Zm-1.867-1.57a1.945,1.945,0,0,0,.922-.223,1.462,1.462,0,0,0,.625-.6V11.156H80.75q-1.7,0-1.8,1.172l-.008.133a.9.9,0,0,0,.3.7A1.153,1.153,0,0,0,80.047,13.43Zm17.141-2.578A5.07,5.07,0,0,1,96.3,13.98a2.843,2.843,0,0,1-2.395,1.176,2.633,2.633,0,0,1-2.07-.891V18.25H89.578V6.547h2.094l.078.828a2.654,2.654,0,0,1,2.141-.984,2.862,2.862,0,0,1,2.43,1.156,5.207,5.207,0,0,1,.867,3.188Zm-2.258-.172a3.345,3.345,0,0,0-.418-1.826A1.36,1.36,0,0,0,93.3,8.211a1.478,1.478,0,0,0-1.461.815V12.5a1.5,1.5,0,0,0,1.477.839Q94.93,13.336,94.93,10.679Zm3.3.016a5.013,5.013,0,0,1,.484-2.242,3.546,3.546,0,0,1,1.395-1.523,4.069,4.069,0,0,1,2.113-.539,3.849,3.849,0,0,1,2.793,1.047,4.2,4.2,0,0,1,1.207,2.844l.016.578a4.418,4.418,0,0,1-1.086,3.121,4.209,4.209,0,0,1-5.832,0,4.5,4.5,0,0,1-1.09-3.187Zm2.258.16a3.16,3.16,0,0,0,.453,1.843,1.628,1.628,0,0,0,2.578.008,3.457,3.457,0,0,0,.461-2.015,3.128,3.128,0,0,0-.461-1.831,1.5,1.5,0,0,0-1.3-.649,1.474,1.474,0,0,0-1.281.646A3.516,3.516,0,0,0,100.492,10.856Zm6.789-.145a5.094,5.094,0,0,1,.887-3.148,2.877,2.877,0,0,1,2.426-1.172,2.589,2.589,0,0,1,2.039.922V3H114.9V15h-2.039l-.109-.9a2.657,2.657,0,0,1-2.172,1.055,2.869,2.869,0,0,1-2.395-1.176A5.258,5.258,0,0,1,107.281,10.711Zm2.258.161a3.355,3.355,0,0,0,.414,1.829,1.348,1.348,0,0,0,1.2.636,1.51,1.51,0,0,0,1.477-.887V9.1a1.489,1.489,0,0,0-1.461-.887Q109.539,8.211,109.539,10.872Zm11,4.285a4.15,4.15,0,0,1-3.027-1.141,4.054,4.054,0,0,1-1.168-3.039v-.219a5.106,5.106,0,0,1,.492-2.277,3.612,3.612,0,0,1,1.395-1.547,3.914,3.914,0,0,1,2.059-.543,3.508,3.508,0,0,1,2.73,1.094,4.444,4.444,0,0,1,1,3.1v.922h-5.383a2.1,2.1,0,0,0,.66,1.328,2,2,0,0,0,1.395.5,2.437,2.437,0,0,0,2.039-.945l1.109,1.242a3.389,3.389,0,0,1-1.375,1.121A4.511,4.511,0,0,1,120.539,15.156Zm-.258-6.945a1.411,1.411,0,0,0-1.09.455,2.357,2.357,0,0,0-.535,1.3H121.8V9.788a1.681,1.681,0,0,0-.406-1.165A1.456,1.456,0,0,0,120.281,8.211Zm9.766.453a6.134,6.134,0,0,0-.812-.062,1.654,1.654,0,0,0-1.68.867V15H125.3V6.547h2.133l.063,1.008a2.092,2.092,0,0,1,1.883-1.164,2.366,2.366,0,0,1,.7.1Zm-72.2,18.523H56.359V40.25h1.492v1.188H54.906V26h2.945ZM59.328,39V27.625h3.719a4.317,4.317,0,0,1,2.785.766,2.759,2.759,0,0,1,.934,2.266,2.31,2.31,0,0,1-.453,1.41,2.937,2.937,0,0,1-1.234.949,2.638,2.638,0,0,1,1.457.98,2.814,2.814,0,0,1,.535,1.723,3.042,3.042,0,0,1-.992,2.406,4.1,4.1,0,0,1-2.8.875Zm1.5-5.32v4.094H63.3a2.385,2.385,0,0,0,1.652-.543,1.907,1.907,0,0,0,.605-1.5q0-2.055-2.234-2.055Zm0-1.2h2.266a2.375,2.375,0,0,0,1.574-.493,1.654,1.654,0,0,0,.59-1.339,1.626,1.626,0,0,0-.547-1.366,2.686,2.686,0,0,0-1.664-.427H60.828Zm11.742,6.68a3.693,3.693,0,0,1-2.8-1.129,4.19,4.19,0,0,1-1.078-3.02v-.266a5.073,5.073,0,0,1,.48-2.246,3.748,3.748,0,0,1,1.344-1.547,3.378,3.378,0,0,1,1.871-.559,3.166,3.166,0,0,1,2.563,1.086,4.7,4.7,0,0,1,.914,3.109v.6H70.141a3,3,0,0,0,.73,2.02,2.3,2.3,0,0,0,1.777.77,2.517,2.517,0,0,0,1.3-.312,3.259,3.259,0,0,0,.93-.828l.883.688A3.55,3.55,0,0,1,72.57,39.156Zm-.18-7.578a1.928,1.928,0,0,0-1.469.637A3.1,3.1,0,0,0,70.188,34h4.234v-.109a2.753,2.753,0,0,0-.594-1.707A1.815,1.815,0,0,0,72.391,31.578Zm6.516-1.031.047,1.063a3.08,3.08,0,0,1,2.531-1.219q2.68,0,2.7,3.023V39H82.742V33.406a1.946,1.946,0,0,0-.418-1.352,1.675,1.675,0,0,0-1.277-.437,2.086,2.086,0,0,0-1.234.375,2.546,2.546,0,0,0-.828.984V39H77.539V30.547Zm10.969,8.609a3.693,3.693,0,0,1-2.8-1.129A4.19,4.19,0,0,1,86,35.008v-.266a5.073,5.073,0,0,1,.48-2.246,3.748,3.748,0,0,1,1.344-1.547,3.378,3.378,0,0,1,1.871-.559,3.166,3.166,0,0,1,2.563,1.086,4.7,4.7,0,0,1,.914,3.109v.6H87.445a3,3,0,0,0,.73,2.02,2.3,2.3,0,0,0,1.777.77,2.517,2.517,0,0,0,1.3-.312,3.259,3.259,0,0,0,.93-.828l.883.688A3.55,3.55,0,0,1,89.875,39.156Zm-.18-7.578a1.928,1.928,0,0,0-1.469.637A3.1,3.1,0,0,0,87.492,34h4.234v-.109a2.753,2.753,0,0,0-.594-1.707A1.815,1.815,0,0,0,89.7,31.578ZM95.328,39V31.664H93.992V30.547h1.336v-.719a2.937,2.937,0,0,1,.809-2.2,3.136,3.136,0,0,1,2.285-.789,6.881,6.881,0,0,1,2.211.477l-.242,1.219a5.008,5.008,0,0,0-1.859-.391,1.819,1.819,0,0,0-1.34.418,1.723,1.723,0,0,0-.41,1.254v.734h1.727v1.117H96.781V39Zm6.023,0H99.9V30.547h1.453Zm5.742-1.023a2.082,2.082,0,0,0,1.352-.469,1.649,1.649,0,0,0,.641-1.172h1.367a2.621,2.621,0,0,1-.5,1.383,3.293,3.293,0,0,1-1.23,1.047,3.55,3.55,0,0,1-1.629.391A3.482,3.482,0,0,1,104.348,38a4.59,4.59,0,0,1-1.02-3.152v-.242a5.089,5.089,0,0,1,.453-2.2,3.451,3.451,0,0,1,1.3-1.492,3.7,3.7,0,0,1,2-.531,3.39,3.39,0,0,1,2.363.852,3.043,3.043,0,0,1,1,2.211h-1.367a1.992,1.992,0,0,0-.621-1.348,1.932,1.932,0,0,0-1.379-.527,2.023,2.023,0,0,0-1.707.793,3.724,3.724,0,0,0-.605,2.293v.273a3.65,3.65,0,0,0,.6,2.25A2.033,2.033,0,0,0,107.094,37.977ZM113.648,39H112.2V30.547h1.445Zm-1.562-10.7a.863.863,0,0,1,.215-.594.807.807,0,0,1,.637-.242.819.819,0,0,1,.641.242.854.854,0,0,1,.219.594.826.826,0,0,1-.219.586.834.834,0,0,1-.641.234.821.821,0,0,1-.637-.234A.834.834,0,0,1,112.086,28.3Zm3.492,6.391a4.993,4.993,0,0,1,.488-2.234,3.643,3.643,0,0,1,1.359-1.531,3.7,3.7,0,0,1,1.988-.539,3.565,3.565,0,0,1,2.793,1.2,4.6,4.6,0,0,1,1.066,3.18v.1a5.036,5.036,0,0,1-.473,2.215,3.589,3.589,0,0,1-1.352,1.527,3.743,3.743,0,0,1-2.02.547,3.556,3.556,0,0,1-2.785-1.2,4.575,4.575,0,0,1-1.066-3.164Zm1.453.172a3.616,3.616,0,0,0,.652,2.258,2.211,2.211,0,0,0,3.5-.012,3.955,3.955,0,0,0,.648-2.418,3.61,3.61,0,0,0-.66-2.254,2.1,2.1,0,0,0-1.754-.863,2.075,2.075,0,0,0-1.727.852A3.925,3.925,0,0,0,117.031,34.867ZM124.063,26h2.953V41.438h-2.953V40.25h1.508V27.188h-1.508Z" transform="translate(684 755)" fill="#12263f"/>
      <circle id="Elipse_4867" data-name="Elipse 4867" cx="43" cy="43" r="43" transform="translate(733 657)" fill="#039be5"/>
      <g id="Grupo_141635" data-name="Grupo 141635" transform="translate(754 660.288)">
        <g id="Grupo_141634" data-name="Grupo 141634" clip-path="url(#clip-path-3)">
          <path id="Trazado_183486" data-name="Trazado 183486" d="M66.479,230.357a8.4,8.4,0,1,1,8.4-8.4,8.405,8.405,0,0,1-8.4,8.4m0-14.513a6.117,6.117,0,1,0,6.117,6.117,6.124,6.124,0,0,0-6.117-6.117" transform="translate(-45.479 -167.221)" fill="#fff"/>
          <path id="Trazado_183487" data-name="Trazado 183487" d="M33.807,219.331a1.14,1.14,0,0,1-1.048-1.585c4-9.417,6.617-15.7,6.862-16.48,0-.023.01-.046.016-.069a2.48,2.48,0,0,0-.176-1.755l-4.314-8.486a2.489,2.489,0,0,0-4.447,2.236l3.68,7.24a1.139,1.139,0,0,1,.03.968l-5.647,13.073a1.139,1.139,0,0,1-1.705.477,10.47,10.47,0,0,0-12.115,0,1.139,1.139,0,0,1-1.705-.477L7.59,201.4a1.139,1.139,0,0,1,.03-.968l3.682-7.244a2.489,2.489,0,0,0-4.447-2.236l-4.317,8.494a2.477,2.477,0,0,0-.174,1.751c.006.023.012.046.016.069.245.779,2.862,7.064,6.862,16.48a1.139,1.139,0,0,1-2.1.891C1.413,205.142.364,202.478.17,201.78l-.007,0a4.754,4.754,0,0,1,.343-3.365l4.317-8.494a4.767,4.767,0,0,1,8.513,4.294l-3.441,6.77L14.8,212.349a12.758,12.758,0,0,1,12.4,0l4.908-11.361-3.44-6.767a4.767,4.767,0,1,1,8.513-4.294l4.313,8.487a4.759,4.759,0,0,1,.345,3.369l-.007,0c-.194.7-1.242,3.36-6.976,16.857a1.14,1.14,0,0,1-1.049.694M2.4,201.469v0m37.2,0v0m-37.2,0h0Zm37.2,0h0Z" transform="translate(0 -146.659)" fill="#fff"/>
          <path id="Trazado_183488" data-name="Trazado 183488" d="M69.6,158.851H51.919a1.139,1.139,0,0,1-1.139-1.139V157.5a5.331,5.331,0,0,1,2.958-4.7,3.947,3.947,0,0,0,2.138-3.518l0-1.193a1.139,1.139,0,0,1,1.137-1.141h0a1.139,1.139,0,0,1,1.139,1.137l0,1.195a6.218,6.218,0,0,1-3.368,5.543,3.2,3.2,0,0,0-1.569,1.755H68.3a3.206,3.206,0,0,0-1.571-1.754,6.219,6.219,0,0,1-3.37-5.535l0-1.2a1.139,1.139,0,0,1,1.138-1.141h0a1.139,1.139,0,0,1,1.139,1.138l0,1.2a3.948,3.948,0,0,0,2.14,3.514,5.336,5.336,0,0,1,2.962,4.7v.219a1.14,1.14,0,0,1-1.139,1.14" transform="translate(-39.76 -115.055)" fill="#fff"/>
          <path id="Trazado_183489" data-name="Trazado 183489" d="M53.444,72.511A12.022,12.022,0,0,1,41.436,60.5V50.112a1.139,1.139,0,0,1,1.139-1.139H64.313a1.139,1.139,0,0,1,1.139,1.139V60.5A12.022,12.022,0,0,1,53.444,72.511m-9.73-21.26V60.5a9.73,9.73,0,1,0,19.459,0V51.252Z" transform="translate(-32.444 -38.346)" fill="#fff"/>
          <path id="Trazado_183490" data-name="Trazado 183490" d="M53.444,72.511A12.022,12.022,0,0,1,41.436,60.5V50.112a1.139,1.139,0,0,1,1.139-1.139H64.313a1.139,1.139,0,0,1,1.139,1.139V60.5A12.022,12.022,0,0,1,53.444,72.511m-9.73-21.26V60.5a9.73,9.73,0,1,0,19.459,0V51.252Z" transform="translate(-32.444 -38.346)" fill="#fff"/>
          <path id="Trazado_183491" data-name="Trazado 183491" d="M138.808,81.689a1.139,1.139,0,0,1-.285-2.242,10.315,10.315,0,0,0,7.655-8.849h-5.994a1.139,1.139,0,1,1,0-2.279h7.2a1.139,1.139,0,0,1,1.139,1.139,12.594,12.594,0,0,1-9.424,12.193,1.135,1.135,0,0,1-.287.037" transform="translate(-107.794 -53.494)" fill="#fff"/>
          <path id="Trazado_183492" data-name="Trazado 183492" d="M142.694,89.492a1.139,1.139,0,0,1-.514-2.157,7.114,7.114,0,0,0,2.449-2.036h-1.4a1.139,1.139,0,1,1,0-2.279h3.367a1.14,1.14,0,0,1,1.051,1.579,9.408,9.408,0,0,1-4.437,4.77,1.133,1.133,0,0,1-.512.122" transform="translate(-110.836 -65.005)" fill="#fff"/>
          <path id="Trazado_183493" data-name="Trazado 183493" d="M15.59,81.689a1.137,1.137,0,0,1-.287-.037A12.594,12.594,0,0,1,5.879,69.459,1.139,1.139,0,0,1,7.018,68.32h7.2a1.139,1.139,0,1,1,0,2.279H8.22a10.314,10.314,0,0,0,7.655,8.849,1.139,1.139,0,0,1-.285,2.242" transform="translate(-4.603 -53.494)" fill="#fff"/>
          <path id="Trazado_183494" data-name="Trazado 183494" d="M28.559,89.492a1.133,1.133,0,0,1-.512-.122A9.409,9.409,0,0,1,23.61,84.6a1.139,1.139,0,0,1,1.051-1.579h3.368a1.139,1.139,0,1,1,0,2.279h-1.4a7.113,7.113,0,0,0,2.449,2.036,1.139,1.139,0,0,1-.514,2.157" transform="translate(-18.418 -65.005)" fill="#fff"/>
          <path id="Trazado_183495" data-name="Trazado 183495" d="M78.482,81.3a1.137,1.137,0,0,1-.533-.132L75.555,79.9l-2.4,1.255a1.139,1.139,0,0,1-1.65-1.205l.465-2.669-1.935-1.9a1.139,1.139,0,0,1,.636-1.942l2.682-.383,1.205-2.426A1.139,1.139,0,0,1,75.577,70h0a1.139,1.139,0,0,1,1.02.638l1.193,2.432,2.68.4a1.139,1.139,0,0,1,.626,1.945l-1.945,1.886.451,2.671A1.139,1.139,0,0,1,78.482,81.3M75.558,77.47a1.139,1.139,0,0,1,.533.132l.883.467-.166-.986a1.14,1.14,0,0,1,.33-1.008l.717-.7-.989-.146a1.14,1.14,0,0,1-.856-.625l-.44-.9-.445.9a1.139,1.139,0,0,1-.859.621l-.99.141.714.7a1.14,1.14,0,0,1,.325,1.009l-.172.985.886-.463a1.139,1.139,0,0,1,.528-.13" transform="translate(-54.568 -54.808)" fill="#fff"/>
          <path id="Trazado_183496" data-name="Trazado 183496" d="M87.455,178.476H83.463a1.139,1.139,0,1,1,0-2.279h3.992a1.139,1.139,0,0,1,0,2.279" transform="translate(-64.459 -137.961)" fill="#fff"/>
          <path id="Trazado_183497" data-name="Trazado 183497" d="M92.663,6.074a1.139,1.139,0,0,1-1.139-1.139v-3.8a1.139,1.139,0,1,1,2.279,0v3.8a1.139,1.139,0,0,1-1.139,1.139" transform="translate(-71.663)" fill="#fff"/>
          <path id="Trazado_183498" data-name="Trazado 183498" d="M5.053,43.772a1.133,1.133,0,0,1-.569-.153L1.2,41.721a1.139,1.139,0,0,1,1.139-1.973l3.287,1.9a1.139,1.139,0,0,1-.571,2.126" transform="translate(-0.491 -31.003)" fill="#fff"/>
          <path id="Trazado_183499" data-name="Trazado 183499" d="M1.766,139.985a1.139,1.139,0,0,1-.571-2.126l3.287-1.9a1.139,1.139,0,1,1,1.139,1.973l-3.287,1.9a1.135,1.135,0,0,1-.569.153" transform="translate(-0.49 -106.337)" fill="#fff"/>
          <path id="Trazado_183500" data-name="Trazado 183500" d="M171.694,139.986a1.135,1.135,0,0,1-.569-.153l-3.287-1.9a1.139,1.139,0,1,1,1.139-1.973l3.287,1.9a1.139,1.139,0,0,1-.571,2.126" transform="translate(-130.971 -106.338)" fill="#fff"/>
          <path id="Trazado_183501" data-name="Trazado 183501" d="M168.41,43.774a1.139,1.139,0,0,1-.571-2.126l3.287-1.9a1.139,1.139,0,0,1,1.139,1.973l-3.287,1.9a1.133,1.133,0,0,1-.569.153" transform="translate(-130.971 -31.005)" fill="#fff"/>
        </g>
      </g>
    </g>
  </g>
</svg>
