<svg id="Grupo_141668" data-name="Grupo 141668" xmlns="http://www.w3.org/2000/svg" xmlns:xlink="http://www.w3.org/1999/xlink" width="420" height="407.212" viewBox="0 0 420 407.212">
  <defs>
    <clipPath id="clip-path">
      <rect id="Rectángulo_36951" data-name="Rectángulo 36951" width="420" height="407.212" fill="none"/>
    </clipPath>
    <clipPath id="clip-path-3">
      <rect id="Rectángulo_36947" data-name="Rectángulo 36947" width="44.818" height="45.868" fill="none"/>
    </clipPath>
    <clipPath id="clip-path-4">
      <rect id="Rectángulo_36948" data-name="Rectángulo 36948" width="28.635" height="39.391" fill="none"/>
    </clipPath>
    <clipPath id="clip-path-5">
      <rect id="Rectángulo_36949" data-name="Rectángulo 36949" width="323.82" height="170.76" fill="none"/>
    </clipPath>
  </defs>
  <g id="Grupo_141476" data-name="Grupo 141476" clip-path="url(#clip-path)">
    <g id="Grupo_141475" data-name="Grupo 141475">
      <g id="Grupo_141474" data-name="Grupo 141474" clip-path="url(#clip-path)">
        <path id="Trazado_117482" data-name="Trazado 117482" d="M465.625,297.547c-11.284,7.1-34.347,6.233-51.291-5.831,0,0-16.183,52.557,3.121,60.694,8.107,3.417,37.047,6.063,45.309,3.934,34.746-8.953,2.86-58.8,2.86-58.8" transform="translate(-192.324 -137.515)" fill="#1d60dc"/>
        <path id="Trazado_117483" data-name="Trazado 117483" d="M459.306,211.118l4.963,129.349c.188,4.89,6.211,24.156,11.325,23.508l35.393-14.912c2.846-.3,3.894-3.923,3.689-6.634l-12.419-82.742a21.573,21.573,0,0,0-.585-3.64c-2.572-10.181-4.943-18.781-5.025-21.346-.153-4.746,12.662-46.008,6.935-57.217S488.31,166.1,488.31,166.1l-15.5,20.982Z" transform="translate(-216.517 -78.298)" fill="#1d60dc"/>
        <path id="Trazado_117484" data-name="Trazado 117484" d="M360.827,236.127l-9.873,22.4c-6.047,9.132-5.32,14.264-24.043,20.01l4.55,8.622c18.422,1.908,19.087-13.36,25.094-15.458,4.011-1.294,6.641-6.211,8.683-9.138l8.624-22.883Z" transform="translate(-154.106 -111.31)" fill="#ffaa82"/>
        <path id="Trazado_117485" data-name="Trazado 117485" d="M480.266,112.487l-32.375-1.631-.255-43.487,14.091.71c10.1.509,18.335,9.553,18.4,20.2Z" transform="translate(-211.015 -31.758)" fill="#724526"/>
        <path id="Trazado_117486" data-name="Trazado 117486" d="M371.215,225.069l17.5-51.359c1.74-4.692,7.332-6.681,12.492-4.443s7.035,6.874,6.191,12.549l-21.417,50.8c-5.144-6.784-9.693-8.413-14.767-7.551" transform="translate(-174.991 -79.359)" fill="#1a57c7"/>
        <path id="Trazado_117487" data-name="Trazado 117487" d="M477.453,158.259l-23.57-1.364-.037-12.012c7.6-1.65,13.217-2.15,20.956.52Z" transform="translate(-213.943 -67.657)" fill="#1d60dc"/>
        <path id="Trazado_117488" data-name="Trazado 117488" d="M417.186,195.943s3.365,48.419,2.667,55.417c-.662,6.639,37.787,9.8,41.328,6.625s25.79-72,25.79-72c-12.392-30.369-49.956-12-69.786,9.958" transform="translate(-196.662 -80.138)" fill="#1d60dc"/>
        <path id="Trazado_117489" data-name="Trazado 117489" d="M440.136,148.027c1.893-1.2,7.556-.8,8.229-.461a14.415,14.415,0,0,1,6.215,2.2c11.8,8.219,30.8,15.306,29.941,25.479,0,0,0,7.266-6.434,6.269l-31.676-5.368-26.585-4.056c-6.429-1-7.837-10.731-7.837-10.731.671-9.614,16.261-5.768,28.147-13.333" transform="translate(-194.212 -69.397)" fill="#1d60dc"/>
        <path id="Trazado_117490" data-name="Trazado 117490" d="M455.435,160.1c14.4,2.4,17.167-2.961,22.6-6.023-5.279-3.651-1.862-.752-6.952-4.256-1.944-1.338-6.89-2.755-7.6-2.622a9.518,9.518,0,0,0-5.74-.29c-5.846,2.073-6.356,2.871-12.517,4.695,4.406,3.674-3.36,6.238,10.205,8.5" transform="translate(-209.882 -69.098)" fill="#f28f70"/>
        <path id="Trazado_117491" data-name="Trazado 117491" d="M469.732,136.878l-1.721.152c-3.437.3-6.162,1.1-6.639-1.918l-3.645-23.065c-.477-3.016,1.945-5.732,5.382-6.034l1.721-.152c3.437-.3,6.639,1.918,7.115,4.934l3.169,20.048c.477,3.016-1.945,5.732-5.382,6.034" transform="translate(-215.744 -49.89)" fill="#f28f70"/>
        <path id="Trazado_117492" data-name="Trazado 117492" d="M459.726,122.449l13.161-12.174.762,8.949c-.572,3.883-7.621,10.3-12.677,9.458Z" transform="translate(-216.715 -51.984)" fill="#ea8a6c"/>
        <path id="Trazado_117493" data-name="Trazado 117493" d="M463.494,158.322s8.684,2.513,15.856-11.242l8.522,7.284a2.214,2.214,0,0,1,.442,3.272l-8.1,10.834c-1.288,1.722-4.787,2.219-6.612.939Z" transform="translate(-218.491 -69.334)" fill="#4083ff"/>
        <path id="Trazado_117494" data-name="Trazado 117494" d="M457.906,158.093s-10.033,1.169-10.746-12l-6.544,6.563a2.586,2.586,0,0,0-.823,2.824l2.792,8.71a2.9,2.9,0,0,0,4.238,1.416Z" transform="translate(-207.257 -68.87)" fill="#4083ff"/>
        <path id="Trazado_117495" data-name="Trazado 117495" d="M541.642,347.123l-12.419-82.742a21.5,21.5,0,0,0-.586-3.64c-2.572-10.181-4.942-18.781-5.025-21.346-.153-4.746,12.661-46.008,6.935-57.217a21.152,21.152,0,0,0-9.328-9.675c-10.751,21.167,3.522,41.636-9.515,50,0,0,2.559,29.318,5.727,41.862a26.51,26.51,0,0,1,.722,4.485l13.164,87.706,6.634-2.8c2.846-.3,3.895-3.923,3.69-6.634" transform="translate(-241.217 -81.317)" fill="#1a57c7"/>
        <path id="Trazado_117496" data-name="Trazado 117496" d="M404.152,157.176s-9.745.717-10.368,10.264a31.417,31.417,0,0,0,.279,4.457,35.2,35.2,0,0,1-2.244,16.747,17.166,17.166,0,0,0,7.111,21.691s.525,7.57,1.809,15.376c0,0-13.834,49.333-18.4,103.061-.262,3.08-3.312,10.36.038,11.179l13.268,12.54c4.708,1.151,12.971-13.185,13.037-17.556l4.851-134.205c-.454-17.562,3.018-30.645-2.984-44.856Z" transform="translate(-179.516 -73.48)" fill="#1d60dc"/>
        <path id="Trazado_117497" data-name="Trazado 117497" d="M429.957,110.013c-3.415-2.142-8.847-4.982-10.709-8.252a10.508,10.508,0,0,1-1-2.232,7.578,7.578,0,0,1,.433-5.087,27.145,27.145,0,0,1,2.58-4.335,58.892,58.892,0,0,0,3.533-6.1Z" transform="translate(-197.039 -39.601)" fill="#915a34"/>
        <path id="Trazado_117498" data-name="Trazado 117498" d="M428.043,77s2.854,27.255,5,32.927c1.025,2.707,2.3,3.518,5.155,4.8l.99.391c1.253.33,1.3-1.041,1.174-2.444L437.782,75.33Z" transform="translate(-201.78 -35.511)" fill="#915a34"/>
        <path id="Trazado_117499" data-name="Trazado 117499" d="M451.836,103.553c-11.973,2.232-13.5-5.589-13.694-14.009l1.093-15.658c-.617-11.214,2.886-11.272,11.943-10.851l.073,0c9.057.422,16.522,5.693,16.718,14.114l-1.178,9.21c-.83,14.136-14.955,17.2-14.955,17.2" transform="translate(-206.54 -29.658)" fill="#ffaa82"/>
        <path id="Trazado_117500" data-name="Trazado 117500" d="M438.292,105.975l-.017-7.891-.867,6.541a17.473,17.473,0,0,0-.134,3.166c.295,5.842,1.558,10.963,6.967,12.274-4.433-2.825-5.824-8.663-5.95-14.09" transform="translate(-206.121 -46.237)" fill="#ffc2a6"/>
        <path id="Trazado_117501" data-name="Trazado 117501" d="M491.254,106.392c-.545,2.694-2.9,4.455-5.261,3.933s-3.833-3.129-3.288-5.823,2.9-4.455,5.261-3.933,3.832,3.129,3.288,5.823" transform="translate(-227.494 -47.365)" fill="#ffaa82"/>
        <path id="Trazado_117502" data-name="Trazado 117502" d="M445.366,58.066s-14.277,2.075-14.66,13.392c0,0-6.081-11.494.015-17.134s13.7-14.485,26.463-7.12Z" transform="translate(-201.763 -20.931)" fill="#915a34"/>
        <path id="Trazado_117503" data-name="Trazado 117503" d="M518.8,113.77a16.1,16.1,0,0,0,5.5-8.5,8.269,8.269,0,0,0,.293-2.232,8.907,8.907,0,0,0-2.052-4.988c-1.148-1.5-1.682-3.817-3.062-5.167-1.926-1.885-2.17-7.884-3.894-9.913Z" transform="translate(-243.048 -39.11)" fill="#915a34"/>
        <path id="Trazado_117504" data-name="Trazado 117504" d="M475.889,75.426h0c2.421,1.845,4.948,3.7,6.527,6.148a9.7,9.7,0,0,1,.519,9.933,20.865,20.865,0,0,0-1.735,3.052c-.686,1.941-1.056,7.659,1.9,8.534a9.566,9.566,0,0,0,7.922-1.7c1.512-1.143,1.912-3.074,2.1-4.878.615-5.839-4.518-39.518-6.3-42.778-6.967-12.724-24.479-3.07-24.816-.889a11.652,11.652,0,0,1-1.208,3.864c-.817,1.738-.165,3.172,1.035,4.659,1.334,1.652,2.438,3.422,3.875,5.03a72.033,72.033,0,0,0,10.18,9.021" transform="translate(-217.049 -22.293)" fill="#915a34"/>
        <path id="Trazado_117505" data-name="Trazado 117505" d="M439.186,83.733s1.327-6.273,12.276-11.586l-1.405-4.791-10.071,6.052Z" transform="translate(-207.032 -31.752)" fill="#ea8a6c"/>
        <path id="Trazado_117506" data-name="Trazado 117506" d="M444.8,67.356c5.916.962-9.706,3.446-16.426,15.589,0,0-4.131-14.734,16.426-15.589" transform="translate(-201.776 -31.752)" fill="#a56941"/>
        <path id="Trazado_117507" data-name="Trazado 117507" d="M459.752,67.356s.781,13.039,20.5,20.73c0,0-4.048-16.5-20.5-20.73" transform="translate(-216.727 -31.752)" fill="#a56941"/>
        <path id="Trazado_117508" data-name="Trazado 117508" d="M483.744,225.954l-11.292-1.577a2.378,2.378,0,0,1-2-2.846l.622-4.059a3.384,3.384,0,0,1,3.607-2.847l11.292,1.577a2.377,2.377,0,0,1,2,2.846l-.621,4.059a3.384,3.384,0,0,1-3.608,2.846" transform="translate(-221.757 -101.162)" fill="#4083ff"/>
        <path id="Trazado_117509" data-name="Trazado 117509" d="M488.284,213.2h0a.578.578,0,0,1-.573-.7l.624-4.074a.835.835,0,0,1,.786-.7.578.578,0,0,1,.573.7l-.624,4.074a.834.834,0,0,1-.786.7" transform="translate(-229.903 -97.925)" fill="#4083ff"/>
        <path id="Trazado_117510" data-name="Trazado 117510" d="M446.253,118.574l10.625,1s-2.453,5.33-6.613,4.725-4.013-5.721-4.013-5.721" transform="translate(-210.364 -55.896)" fill="#fff"/>
        <path id="Trazado_117511" data-name="Trazado 117511" d="M333.205,401.249,26.791,353.307l3.547,168.67,305.383,51.784Z" transform="translate(-12.629 -166.549)" fill="#699eff"/>
        <path id="Trazado_117512" data-name="Trazado 117512" d="M333.205,401.249,26.791,353.307l1.26,53.453,305.9,45.941Z" transform="translate(-12.629 -166.549)" fill="#5a8ff2"/>
        <path id="Trazado_117513" data-name="Trazado 117513" d="M608.978,579.2l90.9-66.073-.848-148.28-92.566,41.84Z" transform="translate(-285.886 -171.99)" fill="#5a8ff2"/>
        <path id="Trazado_117514" data-name="Trazado 117514" d="M331.649,434.8,0,385.475V362.059l331.649,48.156Z" transform="translate(0 -170.675)" fill="#b4d2f5"/>
        <path id="Trazado_117515" data-name="Trazado 117515" d="M420,320.987l-319.405-40.85L0,323.441,331.649,371.6Z" transform="translate(0 -132.057)" fill="#e9f5ff"/>
        <g id="Grupo_141467" data-name="Grupo 141467" transform="translate(336.657 39.872)" opacity="0.4" style="mix-blend-mode: multiply;isolation: isolate">
          <g id="Grupo_141466" data-name="Grupo 141466">
            <g id="Grupo_141465" data-name="Grupo 141465" clip-path="url(#clip-path-3)">
              <path id="Trazado_117516" data-name="Trazado 117516" d="M681.636,102.247a20.194,20.194,0,0,1-24.068,18.718,25.453,25.453,0,0,1-20.615-26.482A20.193,20.193,0,0,1,661.02,75.766a25.454,25.454,0,0,1,20.615,26.481" transform="translate(-636.885 -75.43)" fill="#a8c4e5"/>
            </g>
          </g>
        </g>
        <path id="Trazado_117517" data-name="Trazado 117517" d="M644.134,75.814a22.323,22.323,0,0,0-15.956,3.036l0,0-8.246,5.035,1.407,2A22.967,22.967,0,0,0,618.174,96a27.454,27.454,0,0,0,22.237,28.564,23.366,23.366,0,0,0,8.142,0l6.319-2.171a21.384,21.384,0,0,0,1.882-1.122l.106-.063,0,0a22.035,22.035,0,0,0,9.514-16.831,27.455,27.455,0,0,0-22.237-28.564" transform="translate(-291.373 -35.569)" fill="#a8c4e5"/>
        <path id="Trazado_117518" data-name="Trazado 117518" d="M655.98,108.017a21.781,21.781,0,0,1-25.96,20.189,27.454,27.454,0,0,1-22.237-28.564,21.78,21.78,0,0,1,25.96-20.189,27.454,27.454,0,0,1,22.237,28.564" transform="translate(-286.475 -37.284)" fill="#b4d2f5"/>
        <path id="Trazado_117519" data-name="Trazado 117519" d="M655.478,111.538a17.489,17.489,0,0,1-20.845,16.211,22.045,22.045,0,0,1-17.855-22.936A17.49,17.49,0,0,1,637.623,88.6a22.045,22.045,0,0,1,17.855,22.936" transform="translate(-290.722 -41.631)" fill="#fff"/>
        <g id="Grupo_141470" data-name="Grupo 141470" transform="translate(325.998 47.016)" opacity="0.44">
          <g id="Grupo_141469" data-name="Grupo 141469">
            <g id="Grupo_141468" data-name="Grupo 141468" clip-path="url(#clip-path-4)">
              <path id="Trazado_117520" data-name="Trazado 117520" d="M638.571,126.786a22.045,22.045,0,0,1-17.855-22.936,17.534,17.534,0,0,1,10.127-14.907,17.422,17.422,0,0,0-14.066,16.166,22.045,22.045,0,0,0,17.855,22.936,18.154,18.154,0,0,0,10.721-1.3,18.712,18.712,0,0,1-6.782.042" transform="translate(-616.719 -88.944)" fill="#a8c4e5"/>
            </g>
          </g>
        </g>
        <path id="Trazado_117521" data-name="Trazado 117521" d="M653.3,93.289a2.186,2.186,0,0,1-1.41,2.07,1.133,1.133,0,0,1-1.533-1.129,2.185,2.185,0,0,1,1.41-2.07,1.133,1.133,0,0,1,1.533,1.129" transform="translate(-306.576 -43.412)" fill="#8ca4bf"/>
        <path id="Trazado_117522" data-name="Trazado 117522" d="M653.765,155.677a2.186,2.186,0,0,1-1.41,2.07,1.133,1.133,0,0,1-1.533-1.129,2.186,2.186,0,0,1,1.41-2.07,1.133,1.133,0,0,1,1.534,1.129" transform="translate(-306.797 -72.822)" fill="#8ca4bf"/>
        <path id="Trazado_117523" data-name="Trazado 117523" d="M681.232,132.146c-.91-.144-1.346-.861-.975-1.6a2.312,2.312,0,0,1,2.319-1.08c.909.144,1.346.861.975,1.6a2.312,2.312,0,0,1-2.319,1.08" transform="translate(-320.611 -61.018)" fill="#8ca4bf"/>
        <path id="Trazado_117524" data-name="Trazado 117524" d="M619.421,122.453c-.91-.144-1.346-.861-.975-1.6a2.312,2.312,0,0,1,2.32-1.08c.909.144,1.346.861.975,1.6a2.311,2.311,0,0,1-2.319,1.08" transform="translate(-291.473 -56.448)" fill="#8ca4bf"/>
        <path id="Trazado_117525" data-name="Trazado 117525" d="M661.078,137.13l-9.187-9.788a.187.187,0,0,1,.05-.271.226.226,0,0,1,.3-.008l9.187,9.788a.188.188,0,0,1-.05.271.225.225,0,0,1-.3.008" transform="translate(-307.283 -59.873)" fill="#a8c4e5"/>
        <path id="Trazado_117526" data-name="Trazado 117526" d="M641.874,126.284l-11.487,9.661a1.02,1.02,0,0,1-1.354.124c-.288-.316-.15-.889.308-1.273l11.486-9.661a1.02,1.02,0,0,1,1.354-.124c.288.316.149.889-.308,1.273" transform="translate(-296.456 -58.834)" fill="#8ca4bf"/>
        <path id="Trazado_117527" data-name="Trazado 117527" d="M652.4,109.5l.006,8.161a1.344,1.344,0,0,1-.981,1.144c-.54.157-.982-.1-.982-.572l-.006-8.161a1.342,1.342,0,0,1,.981-1.144c.54-.157.982.1.982.572" transform="translate(-306.617 -51.329)" fill="#db9d39"/>
        <path id="Trazado_117528" data-name="Trazado 117528" d="M652.394,124.861a1.637,1.637,0,0,1-1.75,1.6,1.8,1.8,0,0,1-1.873-1.6,1.637,1.637,0,0,1,1.75-1.6,1.8,1.8,0,0,1,1.873,1.6" transform="translate(-305.83 -58.107)" fill="#db9d39"/>
        <path id="Trazado_117529" data-name="Trazado 117529" d="M652.256,125.474a.739.739,0,0,1-.79.72.811.811,0,0,1-.845-.72.739.739,0,0,1,.79-.72.81.81,0,0,1,.845.72" transform="translate(-306.702 -58.809)" fill="#fff"/>
        <path id="Trazado_117530" data-name="Trazado 117530" d="M715.761,380.287v-22.87l-88.351,50.61v24.58Z" transform="translate(-295.761 -168.486)" fill="#a8c4e5"/>
        <path id="Trazado_117531" data-name="Trazado 117531" d="M393.2,331.833A1.832,1.832,0,0,0,394.571,333l.024.007c2.038.55,5.507-.849,10.314-4.158.2-.084,1-.308,2.114-.6a8.855,8.855,0,0,0-3.1,4.5c-1.337,6.1-.477,9.063-.439,9.187l.051.167.184.079a1.918,1.918,0,0,0,1.509-.1c1.575-.736,2.579-3.31,2.987-7.651.109-1.167.951-2.247,2.508-3.223a4.684,4.684,0,0,0-1.587,2.548c-.535,2.808-.152,8.823-.135,9.077l.015.24.267.091a1.829,1.829,0,0,0,1.4-.176,2.6,2.6,0,0,0,.709-.563c-.013.09-.019.138-.019.138l-.053.39.471.033c3.47.248,3.989-2.855,4.368-5.121.049-.293.1-.578.149-.85a3.562,3.562,0,0,1,2.168-2.8,31.653,31.653,0,0,1,7.562-1.632c.331,0,3.067-.447,3.468-.483,7.569-.692,6.629-8.427-.387-11.009-8.36,1.171-20.759,1.285-24.742,3.821l-.073.018-11.16,6.66Z" transform="translate(-185.325 -151.36)" fill="#ffaa82"/>
        <path id="Trazado_117532" data-name="Trazado 117532" d="M239.914,286.026l-31.361,16.55,62.917,9.242,21.99-15.27Z" transform="translate(-98.312 -134.833)" fill="#b4d2f5"/>
        <path id="Trazado_117533" data-name="Trazado 117533" d="M172.331,230.568,181.689,275l72.706,10.68-10.783-44.464Z" transform="translate(-81.237 -108.69)" fill="#1c4591"/>
        <path id="Trazado_117534" data-name="Trazado 117534" d="M498.979,287.8s-28.529,11.389-48.922,20.373l3.852,4.593s51.439-.7,55.571-17.45-10.5-7.516-10.5-7.516" transform="translate(-212.157 -134.473)" fill="#ffaa82"/>
        <path id="Trazado_117535" data-name="Trazado 117535" d="M524.232,227.684l-17.7-54.3a8.255,8.255,0,0,1,6.332-11.042c5.2-1.036,9.52,1.9,12.505,7.293,9.365,18.655,11.874,39.541,12.729,63.143-3-2.175-7.386-4.311-10.559-3.57-.9.211-3.31-1.526-3.31-1.526" transform="translate(-238.547 -76.432)" fill="#1d60dc"/>
        <path id="Trazado_117536" data-name="Trazado 117536" d="M530.978,169.637c-2.986-5.4-7.3-8.328-12.505-7.293-.237.047-.464.112-.691.174.4.6.794,1.223,1.162,1.889,20.147,10.778,22.8,67.084,22.8,67.084.7.412,1.36.849,1.966,1.288-.855-23.6-3.363-44.488-12.729-63.143" transform="translate(-244.082 -76.432)" fill="#1a57c7"/>
        <path id="Trazado_117537" data-name="Trazado 117537" d="M252.351,23.622,141.769,11.369,147.05.753,257.631,13.005Z" transform="translate(-66.83 -0.355)" fill="#e9f5ff"/>
        <path id="Trazado_117538" data-name="Trazado 117538" d="M252.351,58.475,141.769,46.223l5.281-10.616L257.631,47.859Z" transform="translate(-66.83 -16.785)" fill="#e9f5ff"/>
        <path id="Trazado_117539" data-name="Trazado 117539" d="M252.351,93.328,141.769,81.076,147.05,70.46,257.631,82.712Z" transform="translate(-66.83 -33.215)" fill="#e9f5ff"/>
        <path id="Trazado_117540" data-name="Trazado 117540" d="M252.351,128.182,141.769,115.929l5.281-10.616,110.581,12.252Z" transform="translate(-66.83 -49.645)" fill="#e9f5ff"/>
        <path id="Trazado_117541" data-name="Trazado 117541" d="M252.351,163.035,141.769,150.782l5.281-10.616,110.581,12.252Z" transform="translate(-66.83 -66.075)" fill="#e9f5ff"/>
        <line id="Línea_254" data-name="Línea 254" x2="2.524" y2="66.175" transform="translate(61.381 1.03)" fill="none" stroke="#e9f5ff" stroke-linecap="round" stroke-linejoin="round" stroke-width="3.896"/>
        <path id="Trazado_117542" data-name="Trazado 117542" d="M121.284,128.643a3.733,3.733,0,0,1-3.612,3.691,3.464,3.464,0,0,1-3.612-3.466,3.734,3.734,0,0,1,3.612-3.691,3.464,3.464,0,0,1,3.612,3.466" transform="translate(-53.768 -59.008)" fill="#e9f5ff"/>
        <g id="Grupo_141473" data-name="Grupo 141473" transform="translate(51.251 44.406)" opacity="0.58">
          <g id="Grupo_141472" data-name="Grupo 141472">
            <g id="Grupo_141471" data-name="Grupo 141471" clip-path="url(#clip-path-5)">
              <path id="Trazado_117543" data-name="Trazado 117543" d="M247.906,189.242c23.75,2.8,25.433,31.875,25.138,43.567l147.732,21.959-4.013-131.932L96.956,84.007l3.949,123.216,120.036,17.842c-.11-8.867,1.246-38.852,26.965-35.823" transform="translate(-96.956 -84.007)" fill="#e9f5ff"/>
            </g>
          </g>
        </g>
        <path id="Trazado_117544" data-name="Trazado 117544" d="M331.505,318.725s-1-37.2,24.756-36c28.645,1.33,27.347,43.748,27.347,43.748" transform="translate(-156.269 -133.262)" fill="none" stroke="#1c4591" stroke-linecap="round" stroke-linejoin="round" stroke-width="1.299"/>
        <line id="Línea_255" data-name="Línea 255" x2="118.223" y2="17.572" transform="translate(55.2 167.622)" fill="none" stroke="#1c4591" stroke-linecap="round" stroke-linejoin="round" stroke-width="1.299"/>
        <path id="Trazado_117545" data-name="Trazado 117545" d="M529.217,388.687c0,1.591-4.5,2.881-10.054,2.881s-10.055-1.29-10.055-2.881,4.5-7.2,10.055-7.2,10.054,5.614,10.054,7.2" transform="translate(-239.994 -179.831)" fill="#a8c4e5"/>
        <line id="Línea_256" data-name="Línea 256" y1="22.925" x2="11.144" transform="translate(279.169 180.441)" fill="none" stroke="#1c4591" stroke-linecap="round" stroke-linejoin="round" stroke-width="6.493"/>
        <path id="Trazado_117546" data-name="Trazado 117546" d="M546.461,345.6s3.755,1.1,3.149,3.139,3.877,2.082,2.665,6.784,1.741,7.2-.77,9.045,2.425,6-5.818,5.434" transform="translate(-257.237 -162.915)" fill="none" stroke="#1c4591" stroke-linecap="round" stroke-linejoin="round" stroke-width="1.299"/>
        <line id="Línea_257" data-name="Línea 257" x2="145.566" y2="21.959" transform="translate(229.505 193.208)" fill="none" stroke="#1c4591" stroke-linecap="round" stroke-linejoin="round" stroke-width="1.299"/>
        <path id="Trazado_117547" data-name="Trazado 117547" d="M147.235,328.492l11.931-22.421,36.894,5.583-10.018,23.655Z" transform="translate(-69.407 -144.282)" fill="#1d60dc"/>
        <path id="Trazado_117548" data-name="Trazado 117548" d="M220.65,340.287,235.2,329.953l-4.53-13.32Z" transform="translate(-104.014 -149.261)" fill="#a8c4e5"/>
        <path id="Trazado_117549" data-name="Trazado 117549" d="M198.509,322.761l-25.387-3.929c-.761-.118-1.019-.929-.574-1.8a2.393,2.393,0,0,1,2.193-1.375l25.387,3.929c.761.117,1.02.929.574,1.8a2.393,2.393,0,0,1-2.193,1.375" transform="translate(-81.237 -148.792)" fill="#fff"/>
        <path id="Trazado_117550" data-name="Trazado 117550" d="M98.385,128.589,96.956,84.007,238.56,101.2" transform="translate(-45.705 -39.601)" fill="none" stroke="#7995c9" stroke-linecap="round" stroke-linejoin="round" stroke-width="1.299"/>
        <path id="Trazado_117551" data-name="Trazado 117551" d="M309.891,354.667l-26.81,18.256,53.8,8.135,20.8-16.561" transform="translate(-133.445 -167.19)" fill="none" stroke="#7995c9" stroke-linecap="round" stroke-linejoin="round" stroke-width="1.299"/>
        <path id="Trazado_117552" data-name="Trazado 117552" d="M323.778,374.333l36.134-15.87a107.354,107.354,0,0,1-15.321-5.932l-36.084,15.807a160.811,160.811,0,0,1,15.272,5.994" transform="translate(-145.43 -166.183)" fill="#7da84b"/>
        <path id="Trazado_117553" data-name="Trazado 117553" d="M327.5,373.587l-.236.1-.2-.1a2.066,2.066,0,0,0-.891-.193,4.342,4.342,0,0,0-1.476.264l-.235.086-.184-.094a57.076,57.076,0,0,0-8.812-3.542l-.277-.086.278-.1c.394-.146.633-.34.641-.518s-.191-.322-.589-.454l-.242-.081L345.64,355.8l.221-.1.2.089a3.45,3.45,0,0,0,2.37-.062l.241-.1.191.1a51.69,51.69,0,0,0,8.808,3.541l.309.1-.334.1c-.5.152-.761.324-.766.5s.262.345.71.459l.3.076Zm29.509-14.2a52.2,52.2,0,0,1-8.438-3.4,4.767,4.767,0,0,1-2.731.06l-29.7,12.782c.467.2.567.4.56.551-.008.206-.228.422-.6.6a57.676,57.676,0,0,1,8.47,3.409,5.63,5.63,0,0,1,1.671-.248,3.255,3.255,0,0,1,1.072.179l29.667-12.767c-.439-.152-.69-.358-.686-.572a.329.329,0,0,1,.061-.177,1.349,1.349,0,0,1,.656-.423" transform="translate(-148.58 -167.647)" fill="#8dbe55"/>
        <path id="Trazado_117554" data-name="Trazado 117554" d="M354.444,371.768c-3.072,1.323-7.793,1.5-10.523.408s-2.452-3.067.62-4.388,7.793-1.5,10.523-.407c1.758.707,2.268,1.775,1.588,2.8a4.961,4.961,0,0,1-2.208,1.588" transform="translate(-161.239 -172.845)" fill="#8dbe55"/>
        <path id="Trazado_117555" data-name="Trazado 117555" d="M336.243,386.469c.145.058.112.131-.014.186a.609.609,0,0,1-.433.027l-1.645-.661c-.286-.112-.539-.213-.821-.327-.083-.033-.085-.084-.036-.126a.96.96,0,0,1,.278-.117c.137-.035,2.339.884,2.67,1.018" transform="translate(-157.1 -181.701)" fill="#8dbe55"/>
        <path id="Trazado_117556" data-name="Trazado 117556" d="M344.637,381.329c.808.325.795.751.176,1.018a3.6,3.6,0,0,1-2.551-.075c-.866-.348-1.036-.762-.321-1.069a3.756,3.756,0,0,1,2.7.126m-2.273.04c-.45.193-.182.488.374.712a2.325,2.325,0,0,0,1.666.09c.42-.181.206-.461-.275-.654a2.473,2.473,0,0,0-1.764-.147" transform="translate(-160.98 -179.606)" fill="#8dbe55"/>
        <path id="Trazado_117557" data-name="Trazado 117557" d="M339.521,383.53c.808.325.8.751.176,1.018a3.6,3.6,0,0,1-2.551-.075c-.866-.348-1.035-.762-.321-1.069a3.756,3.756,0,0,1,2.7.126m-2.273.04c-.45.193-.182.488.374.712a2.326,2.326,0,0,0,1.667.09c.419-.181.205-.461-.275-.654a2.475,2.475,0,0,0-1.765-.147" transform="translate(-158.569 -180.643)" fill="#8dbe55"/>
        <path id="Trazado_117558" data-name="Trazado 117558" d="M356.128,372.048a7.832,7.832,0,0,1-2.277.94l-.16-.419a6.077,6.077,0,0,0,2.047-.865c.69-.5.664-.871.1-1.046-1.462-.456-3.744,1.541-5.5.992-.8-.251-.84-.826-.147-1.454l-.912-.284.559-.408.893.279a5.8,5.8,0,0,1,2.008-.752l.033.438a4.052,4.052,0,0,0-1.65.669c-.568.416-.588.788-.065.951,1.309.408,3.545-1.6,5.485-1,.857.267.894.861.127,1.544l.911.284-.559.408Z" transform="translate(-164.65 -173.96)" fill="#7da84b"/>
        <path id="Trazado_117559" data-name="Trazado 117559" d="M357,377.641l22.157-18.846a158.037,158.037,0,0,1-16.983-4.73l-22.617,19.151c6.825,1.5,11.232,2.616,17.443,4.425" transform="translate(-160.066 -166.906)" fill="#8dbe55"/>
        <path id="Trazado_117560" data-name="Trazado 117560" d="M360.482,376.889l-.146.121-.263-.082a2.61,2.61,0,0,0-.981-.115,2.562,2.562,0,0,0-1.193.39l-.157.106-.243-.077a94.844,94.844,0,0,0-10.906-2.774l-.324-.062.184-.127c.262-.18.344-.393.219-.571a1.475,1.475,0,0,0-.89-.4l-.287-.06,18.881-15.642.138-.114.257.071a2.676,2.676,0,0,0,2.183-.265l.156-.116.254.085a86.038,86.038,0,0,0,10.9,2.771l.362.069-.239.131c-.355.195-.476.389-.353.561a1.655,1.655,0,0,0,1.008.4l.338.05Zm17.241-16.7a86.93,86.93,0,0,1-10.445-2.659,3.819,3.819,0,0,1-2.524.3l-18.471,15.3a1.6,1.6,0,0,1,.934.5.477.477,0,0,1-.118.651,95.907,95.907,0,0,1,10.486,2.67,3.506,3.506,0,0,1,1.387-.392,3.791,3.791,0,0,1,1.14.086l18.448-15.283a1.854,1.854,0,0,1-1.067-.511.392.392,0,0,1-.075-.182c-.015-.134.054-.3.3-.478" transform="translate(-162.867 -168.369)" fill="#bbe68a"/>
        <path id="Trazado_117561" data-name="Trazado 117561" d="M380.225,372.753c-1.793,1.495-5.986,2-9.346,1.129s-4.637-2.8-2.844-4.294,5.985-2,9.346-1.129c2.165.562,3.464,1.56,3.636,2.6a1.819,1.819,0,0,1-.792,1.694" transform="translate(-173.109 -173.49)" fill="#bbe68a"/>
        <path id="Trazado_117562" data-name="Trazado 117562" d="M379.29,372.883a7.829,7.829,0,0,1-2.277.94l-.161-.419a6.075,6.075,0,0,0,2.047-.865c.69-.5.664-.871.1-1.046-1.462-.456-3.744,1.541-5.5.992-.8-.251-.84-.826-.147-1.454l-.912-.284.559-.408.893.279a5.814,5.814,0,0,1,2.008-.752l.033.438a4.058,4.058,0,0,0-1.651.669c-.568.415-.587.788-.064.951,1.308.408,3.545-1.6,5.485-1,.857.268.894.862.127,1.544l.911.284-.559.408Z" transform="translate(-175.569 -174.354)" fill="#8dbe55"/>
        <path id="Trazado_117563" data-name="Trazado 117563" d="M370.292,390.9c.124.043.1.125.008.2a.4.4,0,0,1-.349.089l-1.4-.482c-.244-.08-.459-.154-.7-.237a.077.077,0,0,1-.042-.13.773.773,0,0,1,.214-.163,20.284,20.284,0,0,1,2.271.723" transform="translate(-173.374 -183.929)" fill="#bbe68a"/>
        <path id="Trazado_117564" data-name="Trazado 117564" d="M376.631,384.077c.689.237.721.7.245,1.065a2.315,2.315,0,0,1-2.079.27c-.738-.254-.917-.673-.369-1.1a2.4,2.4,0,0,1,2.2-.235m-1.842.355c-.346.269-.1.548.375.71a1.49,1.49,0,0,0,1.362-.132c.322-.251.12-.521-.29-.662a1.575,1.575,0,0,0-1.448.084" transform="translate(-176.355 -180.979)" fill="#bbe68a"/>
        <path id="Trazado_117565" data-name="Trazado 117565" d="M372.7,387.135c.689.237.721.7.246,1.065a2.314,2.314,0,0,1-2.079.27c-.738-.254-.918-.673-.369-1.1a2.4,2.4,0,0,1,2.2-.235m-1.842.355c-.346.269-.1.548.375.71a1.49,1.49,0,0,0,1.362-.132c.322-.251.12-.521-.29-.662a1.576,1.576,0,0,0-1.448.084" transform="translate(-174.501 -182.421)" fill="#bbe68a"/>
        <path id="Trazado_117571" data-name="Trazado 117571" d="M473.752,350.387l-17.607-2.607c-1.851-.274-3.365,1.416-3.365,3.754v9.631c0,2.339,1.514,4.477,3.365,4.751l17.607,2.607c1.851.274,3.365-1.415,3.365-3.754v-9.631c0-2.339-1.514-4.477-3.365-4.751" transform="translate(-213.441 -163.93)" fill="#1a53bd"/>
        <path id="Trazado_117572" data-name="Trazado 117572" d="M446.254,351.433l4.851-2.649,21.178,19.944-4.93,2.7Z" transform="translate(-210.364 -164.417)" fill="#1a53bd"/>
        <path id="Trazado_117573" data-name="Trazado 117573" d="M464.525,373.575l-17.607-2.607c-1.851-.274-3.365-2.412-3.365-4.751v-9.631c0-2.339,1.514-4.028,3.365-3.754l17.607,2.607c1.851.274,3.365,2.412,3.365,4.751v9.631c0,2.339-1.514,4.028-3.365,3.755" transform="translate(-209.091 -166.311)" fill="#1d60dc"/>
        <path id="Trazado_117574" data-name="Trazado 117574" d="M482.482,380.642c0,1.434-.919,2.459-2.054,2.292a2.839,2.839,0,0,1-2.054-2.9c0-1.433.92-2.459,2.054-2.291a2.837,2.837,0,0,1,2.054,2.9" transform="translate(-225.506 -178.06)" fill="#3b74dc"/>
        <path id="Trazado_117575" data-name="Trazado 117575" d="M460.5,360.738l-11.183-1.656a.857.857,0,0,1-.618-.873c0-.43.279-.741.618-.69l11.183,1.656a.858.858,0,0,1,.618.873c0,.43-.279.741-.618.69" transform="translate(-211.518 -168.532)" fill="#3b74dc"/>
        <path id="Trazado_117576" data-name="Trazado 117576" d="M460.5,368.073l-11.183-1.656a.857.857,0,0,1-.618-.873c0-.43.279-.741.618-.69l11.183,1.656a.858.858,0,0,1,.618.873c0,.43-.279.741-.618.69" transform="translate(-211.518 -171.989)" fill="#3b74dc"/>
        <path id="Trazado_117577" data-name="Trazado 117577" d="M460.5,375.408l-11.183-1.656a.857.857,0,0,1-.618-.873c0-.43.279-.741.618-.69l11.183,1.656a.857.857,0,0,1,.618.873c0,.431-.279.741-.618.69" transform="translate(-211.518 -175.448)" fill="#3b74dc"/>
        <path id="Trazado_117578" data-name="Trazado 117578" d="M460.5,382.744l-11.183-1.656a.857.857,0,0,1-.618-.873c0-.43.279-.741.618-.69l11.183,1.656a.858.858,0,0,1,.618.873c0,.43-.279.741-.618.69" transform="translate(-211.518 -178.906)" fill="#3b74dc"/>
        <path id="Trazado_117579" data-name="Trazado 117579" d="M498.129,319.5l-17.253-2.44a2.244,2.244,0,0,1-1.822-2.19v-11.2A1.6,1.6,0,0,1,480.876,302l17.253,2.44a2.244,2.244,0,0,1,1.822,2.19v11.2a1.6,1.6,0,0,1-1.822,1.675" transform="translate(-225.826 -142.353)" fill="#fff"/>
        <path id="Trazado_117580" data-name="Trazado 117580" d="M489.592,326.136s3.191,9.812,3.12,9.267,8.284-8.54,7.2-8.358-10.316-.909-10.316-.909" transform="translate(-230.794 -153.741)" fill="#fff"/>
        <path id="Trazado_117581" data-name="Trazado 117581" d="M487.591,315.954a1.248,1.248,0,0,1-1.618,1.3,2.311,2.311,0,0,1-1.618-2.143,1.248,1.248,0,0,1,1.618-1.3,2.31,2.31,0,0,1,1.618,2.142" transform="translate(-228.326 -147.907)" fill="#8dbe55"/>
        <path id="Trazado_117582" data-name="Trazado 117582" d="M498.419,317.4a1.248,1.248,0,0,1-1.618,1.3,2.311,2.311,0,0,1-1.617-2.143,1.248,1.248,0,0,1,1.617-1.3,2.31,2.31,0,0,1,1.618,2.142" transform="translate(-233.43 -148.591)" fill="#8dbe55"/>
        <path id="Trazado_117583" data-name="Trazado 117583" d="M509.247,318.856a1.248,1.248,0,0,1-1.618,1.3,2.311,2.311,0,0,1-1.618-2.143,1.248,1.248,0,0,1,1.618-1.3,2.309,2.309,0,0,1,1.618,2.142" transform="translate(-238.534 -149.275)" fill="#8dbe55"/>
        <line id="Línea_258" data-name="Línea 258" x2="304.236" y2="49.068" transform="translate(16.34 264.121)" fill="none" stroke="#b4d2f5" stroke-linecap="round" stroke-linejoin="round" stroke-width="2"/>
        <line id="Línea_259" data-name="Línea 259" x2="304.236" y2="49.068" transform="translate(16.34 293.819)" fill="none" stroke="#b4d2f5" stroke-linecap="round" stroke-linejoin="round" stroke-width="2"/>
        <line id="Línea_260" data-name="Línea 260" x2="304.236" y2="49.068" transform="translate(16.34 323.518)" fill="none" stroke="#b4d2f5" stroke-linecap="round" stroke-linejoin="round" stroke-width="2"/>
      </g>
    </g>
  </g>
</svg>
