<svg xmlns="http://www.w3.org/2000/svg" xmlns:xlink="http://www.w3.org/1999/xlink" width="208" height="208" viewBox="0 0 208 208">
  <defs>
    <filter id="Elipse_4813" x="0" y="0" width="208" height="208" filterUnits="userSpaceOnUse">
      <feOffset dy="3" input="SourceAlpha"/>
      <feGaussianBlur stdDeviation="3" result="blur"/>
      <feFlood flood-opacity="0.161"/>
      <feComposite operator="in" in2="blur"/>
      <feComposite in="SourceGraphic"/>
    </filter>
    <clipPath id="clip-path">
      <rect id="Rectángulo_37102" data-name="Rectángulo 37102" width="53.672" height="59.547" fill="#fff"/>
    </clipPath>
  </defs>
  <g id="Grupo_141680" data-name="Grupo 141680" transform="translate(-1006.125 -5514)">
    <g transform="matrix(1, 0, 0, 1, 1006.13, 5514)" filter="url(#Elipse_4813)">
      <circle id="Elipse_4813-2" data-name="Elipse 4813" cx="95" cy="95" r="95" transform="translate(9 6)" fill="#039be5"/>
    </g>
    <path id="Trazado_183779" data-name="Trazado 183779" d="M-21.626-6.338a8.817,8.817,0,0,1-3.511-1.7,3.256,3.256,0,0,1-1.1-2.5,3.439,3.439,0,0,1,1.343-2.778,5.337,5.337,0,0,1,3.491-1.1,5.825,5.825,0,0,1,2.612.566,4.3,4.3,0,0,1,1.777,1.563,4,4,0,0,1,.63,2.178h-1.885a2.6,2.6,0,0,0-.82-2.034,3.336,3.336,0,0,0-2.314-.74,3.415,3.415,0,0,0-2.163.611,2.04,2.04,0,0,0-.776,1.7A1.835,1.835,0,0,0-23.6-9.1,7.232,7.232,0,0,0-21.094-8,11.645,11.645,0,0,1-18.32-6.9a4.209,4.209,0,0,1,1.484,1.4,3.577,3.577,0,0,1,.483,1.885A3.322,3.322,0,0,1-17.7-.845,5.746,5.746,0,0,1-21.3.2a6.683,6.683,0,0,1-2.734-.562A4.6,4.6,0,0,1-26-1.9a3.754,3.754,0,0,1-.688-2.217H-24.8a2.449,2.449,0,0,0,.952,2.036,4.009,4.009,0,0,0,2.544.747,3.685,3.685,0,0,0,2.275-.605,1.967,1.967,0,0,0,.791-1.65A1.931,1.931,0,0,0-18.97-5.21,8.444,8.444,0,0,0-21.626-6.338Zm9.092-4.229.049,1.172a3.9,3.9,0,0,1,3.135-1.367,3.021,3.021,0,0,1,3.018,1.7,4,4,0,0,1,1.372-1.23,4.052,4.052,0,0,1,2-.469q3.477,0,3.535,3.682V0H-1.235V-6.973a2.426,2.426,0,0,0-.518-1.694,2.279,2.279,0,0,0-1.738-.562,2.4,2.4,0,0,0-1.67.6,2.436,2.436,0,0,0-.771,1.616V0H-7.749V-6.924A2.016,2.016,0,0,0-10-9.229a2.417,2.417,0,0,0-2.432,1.514V0h-1.807V-10.566ZM9.819,0a3.8,3.8,0,0,1-.254-1.113A4.031,4.031,0,0,1,6.558.2,3.73,3.73,0,0,1,3.994-.688a2.859,2.859,0,0,1-1-2.241A2.987,2.987,0,0,1,4.248-5.493a5.916,5.916,0,0,1,3.53-.913H9.536v-.83A2.029,2.029,0,0,0,8.97-8.745,2.276,2.276,0,0,0,7.3-9.307a2.634,2.634,0,0,0-1.621.488,1.439,1.439,0,0,0-.654,1.182H3.208A2.493,2.493,0,0,1,3.77-9.165a3.832,3.832,0,0,1,1.523-1.167,5.125,5.125,0,0,1,2.114-.43,4.177,4.177,0,0,1,2.861.913,3.294,3.294,0,0,1,1.074,2.515v4.863a5.946,5.946,0,0,0,.371,2.314V0Zm-3-1.377a3.175,3.175,0,0,0,1.611-.439,2.658,2.658,0,0,0,1.1-1.143V-5.127H8.12q-3.32,0-3.32,1.943a1.645,1.645,0,0,0,.566,1.328A2.177,2.177,0,0,0,6.821-1.377ZM16.138,0H14.331V-15h1.807Zm4.854,0H19.185V-15h1.807ZM-43.955,22.229a15.1,15.1,0,0,1,.591-4.238A12.312,12.312,0,0,1-41.6,14.3a7.5,7.5,0,0,1,2.432-2.344l.371,1.191a7.778,7.778,0,0,0-2.339,3.34,14.479,14.479,0,0,0-1,5.029l-.01.83a14.554,14.554,0,0,0,1.377,6.543,7.815,7.815,0,0,0,1.973,2.6l-.371,1.1a7.74,7.74,0,0,1-2.48-2.422A13.574,13.574,0,0,1-43.955,22.229Zm15.83.605a6.327,6.327,0,0,1-1.1,3.887A3.537,3.537,0,0,1-32.217,28.2a3.875,3.875,0,0,1-3.027-1.221v5.088h-1.807V17.434h1.65l.088,1.172a3.722,3.722,0,0,1,3.066-1.367,3.6,3.6,0,0,1,3.013,1.436,6.4,6.4,0,0,1,1.108,3.994Zm-1.807-.205a4.669,4.669,0,0,0-.762-2.822,2.454,2.454,0,0,0-2.09-1.035,2.656,2.656,0,0,0-2.461,1.455v5.049a2.661,2.661,0,0,0,2.48,1.445A2.442,2.442,0,0,0-30.7,25.69,5.1,5.1,0,0,0-29.932,22.629Zm8.486,5.566a4.617,4.617,0,0,1-3.5-1.411,5.237,5.237,0,0,1-1.348-3.774v-.332a6.341,6.341,0,0,1,.6-2.808,4.685,4.685,0,0,1,1.68-1.934,4.223,4.223,0,0,1,2.339-.7,3.957,3.957,0,0,1,3.2,1.357,5.877,5.877,0,0,1,1.143,3.887v.752h-7.158a3.756,3.756,0,0,0,.913,2.524,2.87,2.87,0,0,0,2.222.962,3.147,3.147,0,0,0,1.621-.391,4.073,4.073,0,0,0,1.162-1.035l1.1.859A4.437,4.437,0,0,1-21.445,28.2Zm-.225-9.473a2.41,2.41,0,0,0-1.836.8,3.868,3.868,0,0,0-.918,2.231h5.293v-.137a3.441,3.441,0,0,0-.742-2.134A2.269,2.269,0,0,0-21.67,18.723Zm6,3.906a6.2,6.2,0,0,1,1.143-3.94,3.7,3.7,0,0,1,3.066-1.45A3.7,3.7,0,0,1-8.506,18.5l.078-1.064h1.66V32.063H-8.574V27.023a3.792,3.792,0,0,1-2.91,1.172,3.644,3.644,0,0,1-3.052-1.489,6.34,6.34,0,0,1-1.138-3.95Zm1.807.205a4.7,4.7,0,0,0,.767,2.852,2.438,2.438,0,0,0,2.065,1.035,2.705,2.705,0,0,0,2.461-1.426V20.119a2.714,2.714,0,0,0-2.441-1.4,2.457,2.457,0,0,0-2.08,1.04A5.118,5.118,0,0,0-13.867,22.834ZM2.656,26.955a3.837,3.837,0,0,1-3.1,1.24,3.285,3.285,0,0,1-2.573-.981,4.248,4.248,0,0,1-.894-2.905V17.434H-2.1V24.26q0,2.4,1.953,2.4a2.7,2.7,0,0,0,2.754-1.543V17.434H4.414V28H2.7Zm8.887,1.24a4.617,4.617,0,0,1-3.5-1.411A5.237,5.237,0,0,1,6.7,23.01v-.332a6.341,6.341,0,0,1,.6-2.808,4.685,4.685,0,0,1,1.68-1.934,4.223,4.223,0,0,1,2.339-.7,3.957,3.957,0,0,1,3.2,1.357,5.877,5.877,0,0,1,1.143,3.887v.752H8.506a3.756,3.756,0,0,0,.913,2.524,2.87,2.87,0,0,0,2.222.962,3.147,3.147,0,0,0,1.621-.391,4.073,4.073,0,0,0,1.162-1.035l1.1.859A4.437,4.437,0,0,1,11.543,28.2Zm-.225-9.473a2.41,2.41,0,0,0-1.836.8,3.868,3.868,0,0,0-.918,2.231h5.293v-.137a3.441,3.441,0,0,0-.742-2.134A2.269,2.269,0,0,0,11.318,18.723Zm8.145-1.289.059,1.328a3.85,3.85,0,0,1,3.164-1.523q3.35,0,3.379,3.779V28H24.258V21.008a2.432,2.432,0,0,0-.522-1.689,2.094,2.094,0,0,0-1.6-.547,2.607,2.607,0,0,0-1.543.469,3.183,3.183,0,0,0-1.035,1.23V28H17.754V17.434Zm5.977-4.121a2.428,2.428,0,0,1-.6,1.709,1.951,1.951,0,0,1-1.5.654,2.2,2.2,0,0,1-.693-.1,3.741,3.741,0,0,1-.767-.4,3.32,3.32,0,0,0-.684-.366,1.673,1.673,0,0,0-.483-.063.9.9,0,0,0-.684.308,1.115,1.115,0,0,0-.283.786l-1.211-.068a2.549,2.549,0,0,1,.591-1.729,1.9,1.9,0,0,1,1.5-.684,1.821,1.821,0,0,1,.615.1,4.484,4.484,0,0,1,.742.381,4.367,4.367,0,0,0,.718.371,1.649,1.649,0,0,0,.552.088.874.874,0,0,0,.7-.332,1.165,1.165,0,0,0,.278-.771ZM35.313,28a3.8,3.8,0,0,1-.254-1.113A4.031,4.031,0,0,1,32.051,28.2a3.73,3.73,0,0,1-2.563-.884,2.859,2.859,0,0,1-1-2.241,2.987,2.987,0,0,1,1.255-2.563,5.916,5.916,0,0,1,3.53-.913h1.758v-.83a2.029,2.029,0,0,0-.566-1.509,2.276,2.276,0,0,0-1.67-.562,2.634,2.634,0,0,0-1.621.488,1.439,1.439,0,0,0-.654,1.182H28.7a2.493,2.493,0,0,1,.562-1.528,3.832,3.832,0,0,1,1.523-1.167,5.125,5.125,0,0,1,2.114-.43,4.177,4.177,0,0,1,2.861.913,3.294,3.294,0,0,1,1.074,2.515v4.863a5.946,5.946,0,0,0,.371,2.314V28Zm-3-1.377a3.175,3.175,0,0,0,1.611-.439,2.658,2.658,0,0,0,1.1-1.143V22.873H33.613q-3.32,0-3.32,1.943a1.645,1.645,0,0,0,.566,1.328A2.177,2.177,0,0,0,32.314,26.623Zm11.523-4.3a15.106,15.106,0,0,1-.571,4.175,12.345,12.345,0,0,1-1.748,3.687,7.659,7.659,0,0,1-2.466,2.4l-.381-1.1a7.851,7.851,0,0,0,2.417-3.579,15.484,15.484,0,0,0,.933-5.386v-.312a16.076,16.076,0,0,0-.43-3.813,12.87,12.87,0,0,0-1.2-3.159,7.3,7.3,0,0,0-1.724-2.178l.381-1.1a7.629,7.629,0,0,1,2.456,2.383,12.371,12.371,0,0,1,1.748,3.682A15.454,15.454,0,0,1,43.838,22.326Z" transform="translate(1110.125 5652)" fill="#fff"/>
    <g id="Grupo_141649" data-name="Grupo 141649" transform="translate(1083.289 5553.798)">
      <g id="Grupo_141648" data-name="Grupo 141648" transform="translate(0 0)" clip-path="url(#clip-path)">
        <path id="Trazado_183524" data-name="Trazado 183524" d="M49.412,17.468a4.233,4.233,0,0,0-.694.07A22.686,22.686,0,0,0,26.807,0,22.69,22.69,0,0,0,4.9,17.533a4.1,4.1,0,0,0-.636-.065A4.266,4.266,0,0,0,0,21.729v5.113A4.266,4.266,0,0,0,4.261,31.1a4.242,4.242,0,0,0,1.467-.276,8.521,8.521,0,0,0,7.906,5.389,1.7,1.7,0,1,0,0-3.408,5.119,5.119,0,0,1-5.113-5.113v-5.4A18.522,18.522,0,0,1,26.807,4.261,18.552,18.552,0,0,1,45.127,23c0,.043.022.077.024.119v3.725a4.261,4.261,0,1,0,8.521,0V21.729a4.266,4.266,0,0,0-4.261-4.261" transform="translate(0 0)" fill="#fff"/>
        <path id="Trazado_183525" data-name="Trazado 183525" d="M40.233,37.608h-5a3.407,3.407,0,0,0-2.795,1.457l-3.5,5.005a3.409,3.409,0,0,1-5.614-.037L19.979,39.1a3.406,3.406,0,0,0-2.82-1.495H12.247A11.454,11.454,0,0,0,.793,49.062v5.084a1.7,1.7,0,0,0,1.7,1.7H49.981a1.7,1.7,0,0,0,1.7-1.7V49.062A11.453,11.453,0,0,0,40.233,37.608M26.247,33.347A14.049,14.049,0,1,0,12.2,19.3,14.05,14.05,0,0,0,26.247,33.347" transform="translate(0.558 3.697)" fill="#fff"/>
      </g>
    </g>
  </g>
</svg>
