<svg xmlns="http://www.w3.org/2000/svg" xmlns:xlink="http://www.w3.org/1999/xlink" width="208" height="208" viewBox="0 0 208 208">
  <defs>
    <filter id="Elipse_4810" x="0" y="0" width="208" height="208" filterUnits="userSpaceOnUse">
      <feOffset dy="3" input="SourceAlpha"/>
      <feGaussianBlur stdDeviation="3" result="blur"/>
      <feFlood flood-opacity="0.161"/>
      <feComposite operator="in" in2="blur"/>
      <feComposite in="SourceGraphic"/>
    </filter>
    <clipPath id="clip-path">
      <rect id="Rectángulo_37098" data-name="Rectángulo 37098" width="66.665" height="70.568" fill="none"/>
    </clipPath>
  </defs>
  <g id="Grupo_141677" data-name="Grupo 141677" transform="translate(-376.125 -5514)">
    <g transform="matrix(1, 0, 0, 1, 376.13, 5514)" filter="url(#Elipse_4810)">
      <circle id="Elipse_4810-2" data-name="Elipse 4810" cx="95" cy="95" r="95" transform="translate(9 6)" fill="#4dd0e1"/>
    </g>
    <path id="Trazado_183776" data-name="Trazado 183776" d="M12.578,0H10.693L3.535-10.957V0H1.65V-14.219H3.535L10.713-3.213V-14.219h1.865ZM20.01.2a4.617,4.617,0,0,1-3.5-1.411A5.237,5.237,0,0,1,15.166-4.99v-.332a6.341,6.341,0,0,1,.6-2.808,4.685,4.685,0,0,1,1.68-1.934,4.223,4.223,0,0,1,2.339-.7,3.957,3.957,0,0,1,3.2,1.357,5.877,5.877,0,0,1,1.143,3.887v.752H16.973a3.756,3.756,0,0,0,.913,2.524,2.87,2.87,0,0,0,2.222.962,3.147,3.147,0,0,0,1.621-.391,4.073,4.073,0,0,0,1.162-1.035l1.1.859A4.437,4.437,0,0,1,20.01.2Zm-.225-9.473a2.41,2.41,0,0,0-1.836.8,3.868,3.868,0,0,0-.918,2.231h5.293v-.137a3.441,3.441,0,0,0-.742-2.134A2.269,2.269,0,0,0,19.785-9.277Zm6.006,3.906A6.21,6.21,0,0,1,26.934-9.3a3.654,3.654,0,0,1,3.027-1.46,3.635,3.635,0,0,1,3.018,1.367l.088-1.172h1.65V-.254A4.3,4.3,0,0,1,33.5,2.979,4.487,4.487,0,0,1,30.234,4.16,5.435,5.435,0,0,1,28,3.672a3.85,3.85,0,0,1-1.67-1.338l.938-1.084a3.533,3.533,0,0,0,2.842,1.436,2.768,2.768,0,0,0,2.056-.742A2.837,2.837,0,0,0,32.9-.146v-.908A3.713,3.713,0,0,1,29.941.2a3.609,3.609,0,0,1-3-1.494A6.529,6.529,0,0,1,25.791-5.371Zm1.816.205a4.738,4.738,0,0,0,.732,2.808,2.38,2.38,0,0,0,2.051,1.021A2.646,2.646,0,0,0,32.9-2.891V-7.715a2.677,2.677,0,0,0-2.49-1.514A2.4,2.4,0,0,0,28.35-8.2,5.16,5.16,0,0,0,27.607-5.166Zm9.355-.215a6.241,6.241,0,0,1,.61-2.793,4.553,4.553,0,0,1,1.7-1.914,4.626,4.626,0,0,1,2.485-.674,4.456,4.456,0,0,1,3.491,1.494,5.748,5.748,0,0,1,1.333,3.975v.127A6.3,6.3,0,0,1,45.991-2.4,4.486,4.486,0,0,1,44.3-.488,4.679,4.679,0,0,1,41.777.2,4.445,4.445,0,0,1,38.3-1.3a5.719,5.719,0,0,1-1.333-3.955Zm1.816.215a4.52,4.52,0,0,0,.815,2.822,2.61,2.61,0,0,0,2.183,1.064,2.594,2.594,0,0,0,2.188-1.079,4.943,4.943,0,0,0,.811-3.022A4.513,4.513,0,0,0,43.95-8.2a2.623,2.623,0,0,0-2.192-1.079A2.594,2.594,0,0,0,39.6-8.213,4.906,4.906,0,0,0,38.779-5.166ZM53.086-1.279a2.6,2.6,0,0,0,1.689-.586,2.061,2.061,0,0,0,.8-1.465h1.709A3.276,3.276,0,0,1,56.66-1.6,4.116,4.116,0,0,1,55.122-.293,4.438,4.438,0,0,1,53.086.2a4.353,4.353,0,0,1-3.433-1.44,5.737,5.737,0,0,1-1.274-3.94v-.3a6.361,6.361,0,0,1,.566-2.744A4.314,4.314,0,0,1,50.571-10.1a4.619,4.619,0,0,1,2.5-.664A4.238,4.238,0,0,1,56.03-9.7a3.8,3.8,0,0,1,1.255,2.764H55.576A2.49,2.49,0,0,0,54.8-8.618a2.415,2.415,0,0,0-1.724-.659,2.529,2.529,0,0,0-2.134.991,4.655,4.655,0,0,0-.757,2.866v.342a4.562,4.562,0,0,0,.752,2.813A2.541,2.541,0,0,0,53.086-1.279ZM61.279,0H59.473V-10.566h1.807ZM59.326-13.369a1.078,1.078,0,0,1,.269-.742,1.008,1.008,0,0,1,.8-.3,1.024,1.024,0,0,1,.8.3,1.067,1.067,0,0,1,.273.742,1.032,1.032,0,0,1-.273.732,1.043,1.043,0,0,1-.8.293,1.026,1.026,0,0,1-.8-.293A1.043,1.043,0,0,1,59.326-13.369ZM70.693,0a3.8,3.8,0,0,1-.254-1.113A4.031,4.031,0,0,1,67.432.2a3.73,3.73,0,0,1-2.563-.884,2.859,2.859,0,0,1-1-2.241,2.987,2.987,0,0,1,1.255-2.563,5.916,5.916,0,0,1,3.53-.913H70.41v-.83a2.029,2.029,0,0,0-.566-1.509,2.276,2.276,0,0,0-1.67-.562,2.634,2.634,0,0,0-1.621.488A1.439,1.439,0,0,0,65.9-7.637H64.082a2.493,2.493,0,0,1,.562-1.528,3.832,3.832,0,0,1,1.523-1.167,5.125,5.125,0,0,1,2.114-.43,4.177,4.177,0,0,1,2.861.913,3.294,3.294,0,0,1,1.074,2.515v4.863a5.946,5.946,0,0,0,.371,2.314V0Zm-3-1.377a3.175,3.175,0,0,0,1.611-.439,2.658,2.658,0,0,0,1.1-1.143V-5.127H68.994q-3.32,0-3.32,1.943a1.645,1.645,0,0,0,.566,1.328A2.177,2.177,0,0,0,67.7-1.377Zm16.3-3.789a6.283,6.283,0,0,1-1.113,3.892A3.557,3.557,0,0,1,79.893.2a3.683,3.683,0,0,1-3.1-1.416L76.709,0h-1.66V-15h1.807v5.6a3.663,3.663,0,0,1,3.018-1.357A3.579,3.579,0,0,1,82.9-9.307a6.471,6.471,0,0,1,1.1,3.984Zm-1.807-.205a4.882,4.882,0,0,0-.713-2.852,2.36,2.36,0,0,0-2.051-1.006,2.652,2.652,0,0,0-2.568,1.66V-3a2.727,2.727,0,0,0,2.588,1.66,2.347,2.347,0,0,0,2.021-1.006A5.192,5.192,0,0,0,82.188-5.371ZM88.232,0H86.426V-15h1.807Zm7.275.2a4.617,4.617,0,0,1-3.5-1.411A5.237,5.237,0,0,1,90.664-4.99v-.332a6.341,6.341,0,0,1,.6-2.808,4.685,4.685,0,0,1,1.68-1.934,4.223,4.223,0,0,1,2.339-.7,3.957,3.957,0,0,1,3.2,1.357,5.877,5.877,0,0,1,1.143,3.887v.752H92.471a3.756,3.756,0,0,0,.913,2.524,2.87,2.87,0,0,0,2.222.962,3.147,3.147,0,0,0,1.621-.391,4.073,4.073,0,0,0,1.162-1.035l1.1.859A4.437,4.437,0,0,1,95.508.2Zm-.225-9.473a2.41,2.41,0,0,0-1.836.8,3.869,3.869,0,0,0-.918,2.231h5.293v-.137a3.441,3.441,0,0,0-.742-2.134A2.269,2.269,0,0,0,95.283-9.277Z" transform="translate(430.125 5663.339)" fill="#12263f"/>
    <g id="Grupo_141641" data-name="Grupo 141641" transform="translate(446.792 5551.405)">
      <g id="Grupo_141640" data-name="Grupo 141640" transform="translate(0 0)" clip-path="url(#clip-path)">
        <path id="Trazado_183516" data-name="Trazado 183516" d="M61.8,24.352a4.735,4.735,0,0,0-6.635-.79L41.78,34.047a3.79,3.79,0,0,1-2.328.805l-9.59.009a2.363,2.363,0,1,1,0-4.727l8.036-.008a4.727,4.727,0,0,0-.009-9.454l-8.9.008-6.075.006-3.424,0-1.242,0a11.355,11.355,0,0,0-7,2.424L4.677,28.271A.945.945,0,0,0,4.519,29.6L17.27,45.729a.944.944,0,0,0,.734.359l15.427.129,4.264.036a11.333,11.333,0,0,0,7.132-2.445L61.023,31a4.735,4.735,0,0,0,.777-6.652" transform="translate(3.844 18.416)" fill="#173042"/>
        <path id="Trazado_183517" data-name="Trazado 183517" d="M4.653,50.945a.946.946,0,0,0-1.327-.155L.359,53.137A.943.943,0,0,0,.2,54.464L12.651,70.208a.947.947,0,0,0,1.329.155l2.967-2.345A.948.948,0,0,0,17.1,66.69ZM40.994,0A16.65,16.65,0,1,0,57.646,16.65,16.651,16.651,0,0,0,40.994,0m-.926,13.449,3.844,1.978a5.8,5.8,0,0,1,3.1,6.172,5.645,5.645,0,0,1-3.326,4.343v.512a2.363,2.363,0,1,1-4.727,0v-.363a6.963,6.963,0,0,1-4.211-3.84,2.363,2.363,0,1,1,4.334-1.883,2.278,2.278,0,0,0,2.284,1.356,1.006,1.006,0,0,0,.979-.872,1.131,1.131,0,0,0-.6-1.221L37.9,17.652a5.836,5.836,0,0,1-3.069-6.3A5.672,5.672,0,0,1,38.96,6.826V6.474a2.363,2.363,0,1,1,4.727,0v.868a6.933,6.933,0,0,1,3.371,3.479,2.364,2.364,0,0,1-4.336,1.887,2.27,2.27,0,0,0-2.286-1.359,1.016,1.016,0,0,0-.957.872,1.094,1.094,0,0,0,.588,1.229" transform="translate(0 0)" fill="#173042"/>
      </g>
    </g>
  </g>
</svg>
