<svg xmlns="http://www.w3.org/2000/svg" xmlns:xlink="http://www.w3.org/1999/xlink" width="208" height="208" viewBox="0 0 208 208">
  <defs>
    <filter id="Elipse_4868" x="0" y="0" width="208" height="208" filterUnits="userSpaceOnUse">
      <feOffset dy="3" input="SourceAlpha"/>
      <feGaussianBlur stdDeviation="3" result="blur"/>
      <feFlood flood-opacity="0.161"/>
      <feComposite operator="in" in2="blur"/>
      <feComposite in="SourceGraphic"/>
    </filter>
    <clipPath id="clip-path">
      <rect id="Rectángulo_37101" data-name="Rectángulo 37101" width="64" height="64" transform="translate(-0.386 -0.387)" fill="none"/>
    </clipPath>
  </defs>
  <g id="Grupo_141681" data-name="Grupo 141681" transform="translate(-1222.125 -5514)">
    <g transform="matrix(1, 0, 0, 1, 1222.13, 5514)" filter="url(#Elipse_4868)">
      <circle id="Elipse_4868-2" data-name="Elipse 4868" cx="95" cy="95" r="95" transform="translate(9 6)" fill="#4dd0e1"/>
    </g>
    <path id="Trazado_183810" data-name="Trazado 183810" d="M-34.277-12.686h-4.57V0h-1.865V-12.686h-4.561v-1.533h11ZM-29.033.2a4.617,4.617,0,0,1-3.5-1.411A5.237,5.237,0,0,1-33.877-4.99v-.332a6.341,6.341,0,0,1,.6-2.808,4.685,4.685,0,0,1,1.68-1.934,4.223,4.223,0,0,1,2.339-.7,3.957,3.957,0,0,1,3.2,1.357,5.877,5.877,0,0,1,1.143,3.887v.752H-32.07a3.756,3.756,0,0,0,.913,2.524,2.87,2.87,0,0,0,2.222.962,3.147,3.147,0,0,0,1.621-.391,4.073,4.073,0,0,0,1.162-1.035l1.1.859A4.437,4.437,0,0,1-29.033.2Zm-.225-9.473a2.41,2.41,0,0,0-1.836.8,3.868,3.868,0,0,0-.918,2.231h5.293v-.137a3.441,3.441,0,0,0-.742-2.134A2.269,2.269,0,0,0-29.258-9.277ZM-16.67-2.8a1.33,1.33,0,0,0-.552-1.138,5.311,5.311,0,0,0-1.924-.7,9.1,9.1,0,0,1-2.178-.7,3.1,3.1,0,0,1-1.191-.977A2.336,2.336,0,0,1-22.9-7.666a2.741,2.741,0,0,1,1.1-2.2,4.291,4.291,0,0,1,2.808-.9,4.415,4.415,0,0,1,2.915.928,2.947,2.947,0,0,1,1.118,2.373h-1.816a1.631,1.631,0,0,0-.63-1.279,2.36,2.36,0,0,0-1.587-.537,2.47,2.47,0,0,0-1.543.43,1.353,1.353,0,0,0-.557,1.123,1.1,1.1,0,0,0,.518.986,6.368,6.368,0,0,0,1.87.635,9.744,9.744,0,0,1,2.192.723A3.2,3.2,0,0,1-15.269-4.37a2.485,2.485,0,0,1,.405,1.44A2.7,2.7,0,0,1-16-.659,4.752,4.752,0,0,1-18.936.2a5.321,5.321,0,0,1-2.246-.449A3.653,3.653,0,0,1-22.71-1.509a3.025,3.025,0,0,1-.552-1.743h1.807a1.87,1.87,0,0,0,.728,1.44,2.822,2.822,0,0,0,1.792.532,2.913,2.913,0,0,0,1.646-.415A1.275,1.275,0,0,0-16.67-2.8Zm6.611-10.322v2.559h1.973v1.4h-1.973v6.561a1.467,1.467,0,0,0,.264.953,1.11,1.11,0,0,0,.9.318,4.374,4.374,0,0,0,.859-.117V0A5.268,5.268,0,0,1-9.424.2,2.25,2.25,0,0,1-11.25-.537a3.147,3.147,0,0,1-.615-2.08V-9.17h-1.924v-1.4h1.924v-2.559ZM-1.592.2a4.617,4.617,0,0,1-3.5-1.411A5.237,5.237,0,0,1-6.436-4.99v-.332a6.341,6.341,0,0,1,.6-2.808,4.685,4.685,0,0,1,1.68-1.934,4.223,4.223,0,0,1,2.339-.7A3.957,3.957,0,0,1,1.387-9.4,5.877,5.877,0,0,1,2.529-5.518v.752H-4.629a3.756,3.756,0,0,0,.913,2.524,2.87,2.87,0,0,0,2.222.962A3.147,3.147,0,0,0,.127-1.67,4.073,4.073,0,0,0,1.289-2.705l1.1.859A4.437,4.437,0,0,1-1.592.2Zm-.225-9.473a2.41,2.41,0,0,0-1.836.8A3.868,3.868,0,0,0-4.57-6.25H.723v-.137A3.441,3.441,0,0,0-.02-8.521,2.269,2.269,0,0,0-1.816-9.277ZM11.143,0a3.8,3.8,0,0,1-.254-1.113A4.031,4.031,0,0,1,7.881.2,3.73,3.73,0,0,1,5.317-.688a2.859,2.859,0,0,1-1-2.241A2.987,2.987,0,0,1,5.571-5.493,5.916,5.916,0,0,1,9.1-6.406h1.758v-.83a2.029,2.029,0,0,0-.566-1.509,2.276,2.276,0,0,0-1.67-.562A2.634,2.634,0,0,0,7-8.818a1.439,1.439,0,0,0-.654,1.182H4.531a2.493,2.493,0,0,1,.562-1.528,3.832,3.832,0,0,1,1.523-1.167,5.125,5.125,0,0,1,2.114-.43,4.177,4.177,0,0,1,2.861.913,3.294,3.294,0,0,1,1.074,2.515v4.863a5.946,5.946,0,0,0,.371,2.314V0Zm-3-1.377a3.175,3.175,0,0,0,1.611-.439,2.658,2.658,0,0,0,1.1-1.143V-5.127H9.443q-3.32,0-3.32,1.943a1.645,1.645,0,0,0,.566,1.328A2.177,2.177,0,0,0,8.145-1.377Zm16.3-3.789A6.283,6.283,0,0,1,23.33-1.274,3.557,3.557,0,0,1,20.342.2a3.683,3.683,0,0,1-3.1-1.416L17.158,0H15.5V-15H17.3v5.6a3.663,3.663,0,0,1,3.018-1.357,3.579,3.579,0,0,1,3.022,1.455,6.471,6.471,0,0,1,1.1,3.984Zm-1.807-.205a4.882,4.882,0,0,0-.713-2.852,2.36,2.36,0,0,0-2.051-1.006A2.652,2.652,0,0,0,17.3-7.568V-3a2.727,2.727,0,0,0,2.588,1.66,2.347,2.347,0,0,0,2.021-1.006A5.192,5.192,0,0,0,22.637-5.371ZM28.682,0H26.875V-15h1.807Zm7.275.2a4.617,4.617,0,0,1-3.5-1.411A5.237,5.237,0,0,1,31.113-4.99v-.332a6.341,6.341,0,0,1,.6-2.808,4.685,4.685,0,0,1,1.68-1.934,4.223,4.223,0,0,1,2.339-.7,3.957,3.957,0,0,1,3.2,1.357,5.877,5.877,0,0,1,1.143,3.887v.752H32.92a3.756,3.756,0,0,0,.913,2.524,2.87,2.87,0,0,0,2.222.962,3.147,3.147,0,0,0,1.621-.391,4.073,4.073,0,0,0,1.162-1.035l1.1.859A4.437,4.437,0,0,1,35.957.2Zm-.225-9.473a2.41,2.41,0,0,0-1.836.8,3.868,3.868,0,0,0-.918,2.231h5.293v-.137a3.441,3.441,0,0,0-.742-2.134A2.269,2.269,0,0,0,35.732-9.277ZM-64.282,22.229a15.1,15.1,0,0,1,.591-4.238A12.312,12.312,0,0,1-61.929,14.3,7.5,7.5,0,0,1-59.5,11.955l.371,1.191a7.778,7.778,0,0,0-2.339,3.34,14.479,14.479,0,0,0-1,5.029l-.01.83A14.554,14.554,0,0,0-61.1,28.889a7.815,7.815,0,0,0,1.973,2.6l-.371,1.1a7.74,7.74,0,0,1-2.48-2.422A13.574,13.574,0,0,1-64.282,22.229Zm11.143,4.492a2.6,2.6,0,0,0,1.689-.586,2.061,2.061,0,0,0,.8-1.465h1.709a3.276,3.276,0,0,1-.625,1.729A4.116,4.116,0,0,1-51.1,27.707a4.438,4.438,0,0,1-2.036.488,4.353,4.353,0,0,1-3.433-1.44,5.737,5.737,0,0,1-1.274-3.94v-.3a6.361,6.361,0,0,1,.566-2.744A4.314,4.314,0,0,1-55.654,17.9a4.619,4.619,0,0,1,2.5-.664A4.238,4.238,0,0,1-50.2,18.3a3.8,3.8,0,0,1,1.255,2.764h-1.709a2.49,2.49,0,0,0-.776-1.685,2.415,2.415,0,0,0-1.724-.659,2.529,2.529,0,0,0-2.134.991,4.655,4.655,0,0,0-.757,2.866v.342a4.562,4.562,0,0,0,.752,2.813A2.541,2.541,0,0,0-53.14,26.721Zm5.752-4.1a6.241,6.241,0,0,1,.61-2.793,4.553,4.553,0,0,1,1.7-1.914,4.626,4.626,0,0,1,2.485-.674A4.456,4.456,0,0,1-39.1,18.732a5.748,5.748,0,0,1,1.333,3.975v.127a6.3,6.3,0,0,1-.591,2.769,4.486,4.486,0,0,1-1.689,1.909,4.679,4.679,0,0,1-2.524.684A4.445,4.445,0,0,1-46.055,26.7a5.719,5.719,0,0,1-1.333-3.955Zm1.816.215a4.52,4.52,0,0,0,.815,2.822,2.61,2.61,0,0,0,2.183,1.064,2.594,2.594,0,0,0,2.188-1.079,4.943,4.943,0,0,0,.811-3.022A4.513,4.513,0,0,0-40.4,19.8a2.623,2.623,0,0,0-2.192-1.079,2.594,2.594,0,0,0-2.158,1.064A4.906,4.906,0,0,0-45.571,22.834Zm11.768-5.4.049,1.172a3.9,3.9,0,0,1,3.135-1.367,3.021,3.021,0,0,1,3.018,1.7,4,4,0,0,1,1.372-1.23,4.052,4.052,0,0,1,2-.469q3.477,0,3.535,3.682V28H-22.5V21.027a2.426,2.426,0,0,0-.518-1.694,2.279,2.279,0,0,0-1.738-.562,2.4,2.4,0,0,0-1.67.6,2.436,2.436,0,0,0-.771,1.616V28h-1.816V21.076a2.016,2.016,0,0,0-2.256-2.3,2.417,2.417,0,0,0-2.432,1.514V28h-1.807V17.434Zm24.756,5.4a6.327,6.327,0,0,1-1.1,3.887A3.537,3.537,0,0,1-13.14,28.2a3.875,3.875,0,0,1-3.027-1.221v5.088h-1.807V17.434h1.65l.088,1.172a3.722,3.722,0,0,1,3.066-1.367,3.6,3.6,0,0,1,3.013,1.436,6.4,6.4,0,0,1,1.108,3.994Zm-1.807-.205a4.669,4.669,0,0,0-.762-2.822,2.454,2.454,0,0,0-2.09-1.035,2.656,2.656,0,0,0-2.461,1.455v5.049a2.661,2.661,0,0,0,2.48,1.445,2.442,2.442,0,0,0,2.065-1.03A5.1,5.1,0,0,0-10.854,22.629Zm9.209-3.574a5.414,5.414,0,0,0-.889-.068A2.381,2.381,0,0,0-4.946,20.5V28H-6.753V17.434H-5l.029,1.221a2.813,2.813,0,0,1,2.52-1.416,1.846,1.846,0,0,1,.8.137Zm.986,3.564a6.241,6.241,0,0,1,.61-2.793,4.553,4.553,0,0,1,1.7-1.914,4.626,4.626,0,0,1,2.485-.674,4.456,4.456,0,0,1,3.491,1.494A5.748,5.748,0,0,1,8.96,22.707v.127A6.3,6.3,0,0,1,8.369,25.6,4.486,4.486,0,0,1,6.68,27.512a4.679,4.679,0,0,1-2.524.684A4.445,4.445,0,0,1,.674,26.7,5.719,5.719,0,0,1-.659,22.746Zm1.816.215a4.52,4.52,0,0,0,.815,2.822,2.61,2.61,0,0,0,2.183,1.064,2.594,2.594,0,0,0,2.188-1.079,4.943,4.943,0,0,0,.811-3.022A4.513,4.513,0,0,0,6.328,19.8a2.623,2.623,0,0,0-2.192-1.079,2.594,2.594,0,0,0-2.158,1.064A4.906,4.906,0,0,0,1.157,22.834Zm19.014,0a6.283,6.283,0,0,1-1.113,3.892,3.557,3.557,0,0,1-2.988,1.47,3.683,3.683,0,0,1-3.1-1.416L12.886,28h-1.66V13h1.807v5.6a3.663,3.663,0,0,1,3.018-1.357,3.579,3.579,0,0,1,3.022,1.455,6.471,6.471,0,0,1,1.1,3.984Zm-1.807-.205a4.882,4.882,0,0,0-.713-2.852A2.36,2.36,0,0,0,15.6,18.771a2.652,2.652,0,0,0-2.568,1.66V25a2.727,2.727,0,0,0,2.588,1.66,2.347,2.347,0,0,0,2.021-1.006A5.192,5.192,0,0,0,18.364,22.629ZM28.97,28a3.8,3.8,0,0,1-.254-1.113A4.031,4.031,0,0,1,25.708,28.2a3.73,3.73,0,0,1-2.563-.884,2.859,2.859,0,0,1-1-2.241A2.987,2.987,0,0,1,23.4,22.507a5.916,5.916,0,0,1,3.53-.913h1.758v-.83a2.029,2.029,0,0,0-.566-1.509,2.276,2.276,0,0,0-1.67-.562,2.634,2.634,0,0,0-1.621.488,1.439,1.439,0,0,0-.654,1.182H22.358a2.493,2.493,0,0,1,.562-1.528,3.832,3.832,0,0,1,1.523-1.167,5.125,5.125,0,0,1,2.114-.43,4.177,4.177,0,0,1,2.861.913,3.294,3.294,0,0,1,1.074,2.515v4.863a5.946,5.946,0,0,0,.371,2.314V28Zm-3-1.377a3.175,3.175,0,0,0,1.611-.439,2.658,2.658,0,0,0,1.1-1.143V22.873H27.271q-3.32,0-3.32,1.943a1.645,1.645,0,0,0,.566,1.328A2.177,2.177,0,0,0,25.972,26.623Zm16.3-3.789a6.283,6.283,0,0,1-1.113,3.892,3.557,3.557,0,0,1-2.988,1.47,3.683,3.683,0,0,1-3.1-1.416L34.985,28h-1.66V13h1.807v5.6a3.663,3.663,0,0,1,3.018-1.357,3.579,3.579,0,0,1,3.022,1.455,6.471,6.471,0,0,1,1.1,3.984Zm-1.807-.205a4.882,4.882,0,0,0-.713-2.852A2.36,2.36,0,0,0,37.7,18.771a2.652,2.652,0,0,0-2.568,1.66V25a2.727,2.727,0,0,0,2.588,1.66,2.347,2.347,0,0,0,2.021-1.006A5.192,5.192,0,0,0,40.464,22.629ZM46.509,28H44.7V13h1.807Zm7.275.2a4.617,4.617,0,0,1-3.5-1.411A5.237,5.237,0,0,1,48.94,23.01v-.332a6.341,6.341,0,0,1,.6-2.808,4.685,4.685,0,0,1,1.68-1.934,4.223,4.223,0,0,1,2.339-.7,3.957,3.957,0,0,1,3.2,1.357,5.877,5.877,0,0,1,1.143,3.887v.752H50.747a3.756,3.756,0,0,0,.913,2.524,2.87,2.87,0,0,0,2.222.962A3.147,3.147,0,0,0,55.5,26.33a4.073,4.073,0,0,0,1.162-1.035l1.1.859A4.437,4.437,0,0,1,53.784,28.2Zm-.225-9.473a2.41,2.41,0,0,0-1.836.8,3.868,3.868,0,0,0-.918,2.231H56.1v-.137a3.441,3.441,0,0,0-.742-2.134A2.269,2.269,0,0,0,53.56,18.723Zm10.605,3.6a15.106,15.106,0,0,1-.571,4.175,12.345,12.345,0,0,1-1.748,3.687,7.659,7.659,0,0,1-2.466,2.4L59,31.486a7.851,7.851,0,0,0,2.417-3.579,15.484,15.484,0,0,0,.933-5.386v-.312a16.076,16.076,0,0,0-.43-3.813,12.87,12.87,0,0,0-1.2-3.159A7.3,7.3,0,0,0,59,13.059l.381-1.1a7.629,7.629,0,0,1,2.456,2.383,12.371,12.371,0,0,1,1.748,3.682A15.454,15.454,0,0,1,64.165,22.326Z" transform="translate(1326.125 5641.992)" fill="#12263f"/>
    <g id="Grupo_141647" data-name="Grupo 141647" transform="translate(1294.512 5548.067)">
      <g id="Grupo_141646" data-name="Grupo 141646" transform="translate(0 -0.342)" clip-path="url(#clip-path)">
        <path id="Trazado_183522" data-name="Trazado 183522" d="M36.107,14.4a1.9,1.9,0,0,0-1.9-1.9h-7.6a1.9,1.9,0,0,0-1.9,1.9V41.006h11.4ZM52.26,18.2a1.9,1.9,0,0,0-1.9-1.9h-7.6a1.9,1.9,0,0,0-1.9,1.9v22.8h11.4Zm7.6,27.555H2.851a2.851,2.851,0,0,0,0,5.7H59.862a2.851,2.851,0,1,0,0-5.7M19.954,23.9a1.9,1.9,0,0,0-1.9-1.9h-7.6a1.9,1.9,0,0,0-1.9,1.9v17.1h11.4Z" transform="translate(0 11.77)" fill="#173042"/>
        <path id="Trazado_183523" data-name="Trazado 183523" d="M51.865.017l-8.544,1.22A1.687,1.687,0,0,0,42.367,4.1l1.974,1.974-6.893,6.893L26.126,4.381a2.853,2.853,0,0,0-3.531.068L4.542,19.287A2.851,2.851,0,0,0,8.16,23.694L24.475,10.283l11.511,8.728a2.851,2.851,0,0,0,3.738-.257L48.372,10.1l1.319,1.319a1.687,1.687,0,0,0,2.862-.954l1.22-8.544A1.685,1.685,0,0,0,51.865.017" transform="translate(3.151 0.515)" fill="#173042"/>
      </g>
    </g>
  </g>
</svg>
