<svg xmlns="http://www.w3.org/2000/svg" xmlns:xlink="http://www.w3.org/1999/xlink" width="208" height="208" viewBox="0 0 208 208">
  <defs>
    <filter id="Elipse_4809" x="0" y="0" width="208" height="208" filterUnits="userSpaceOnUse">
      <feOffset dy="3" input="SourceAlpha"/>
      <feGaussianBlur stdDeviation="3" result="blur"/>
      <feFlood flood-opacity="0.161"/>
      <feComposite operator="in" in2="blur"/>
      <feComposite in="SourceGraphic"/>
    </filter>
    <clipPath id="clip-path">
      <rect id="Rectángulo_37097" data-name="Rectángulo 37097" width="68" height="67.608" fill="#fff"/>
    </clipPath>
  </defs>
  <g id="Grupo_141676" data-name="Grupo 141676" transform="translate(-166.125 -5514)">
    <g transform="matrix(1, 0, 0, 1, 166.13, 5514)" filter="url(#Elipse_4809)">
      <circle id="Elipse_4809-2" data-name="Elipse 4809" cx="95" cy="95" r="95" transform="translate(9 6)" fill="#039be5"/>
    </g>
    <path id="Trazado_183775" data-name="Trazado 183775" d="M3.662,0H1.787V-14.219H3.662ZM8.516-10.566l.059,1.328a3.85,3.85,0,0,1,3.164-1.523q3.35,0,3.379,3.779V0H13.311V-6.992a2.432,2.432,0,0,0-.522-1.689,2.094,2.094,0,0,0-1.6-.547,2.607,2.607,0,0,0-1.543.469,3.183,3.183,0,0,0-1.035,1.23V0H6.807V-10.566Zm8.887,5.2a6.19,6.19,0,0,1,1.152-3.911,3.644,3.644,0,0,1,3.018-1.479,3.665,3.665,0,0,1,2.939,1.27V-15h1.807V0h-1.66L24.57-1.133A3.679,3.679,0,0,1,21.553.2a3.609,3.609,0,0,1-2.993-1.5A6.26,6.26,0,0,1,17.4-5.234Zm1.807.205a4.687,4.687,0,0,0,.742,2.813A2.4,2.4,0,0,0,22-1.338a2.636,2.636,0,0,0,2.51-1.543V-7.734a2.656,2.656,0,0,0-2.49-1.494A2.411,2.411,0,0,0,19.951-8.2,5.16,5.16,0,0,0,19.209-5.166ZM33.506.2a4.617,4.617,0,0,1-3.5-1.411A5.237,5.237,0,0,1,28.662-4.99v-.332a6.341,6.341,0,0,1,.6-2.808,4.685,4.685,0,0,1,1.68-1.934,4.223,4.223,0,0,1,2.339-.7,3.957,3.957,0,0,1,3.2,1.357,5.877,5.877,0,0,1,1.143,3.887v.752H30.469a3.756,3.756,0,0,0,.913,2.524,2.87,2.87,0,0,0,2.222.962,3.147,3.147,0,0,0,1.621-.391,4.073,4.073,0,0,0,1.162-1.035l1.1.859A4.437,4.437,0,0,1,33.506.2Zm-.225-9.473a2.41,2.41,0,0,0-1.836.8,3.868,3.868,0,0,0-.918,2.231H35.82v-.137a3.441,3.441,0,0,0-.742-2.134A2.269,2.269,0,0,0,33.281-9.277ZM48.643-5.166a6.327,6.327,0,0,1-1.1,3.887A3.537,3.537,0,0,1,44.551.2a3.875,3.875,0,0,1-3.027-1.221V4.063H39.717V-10.566h1.65l.088,1.172a3.722,3.722,0,0,1,3.066-1.367,3.6,3.6,0,0,1,3.013,1.436,6.4,6.4,0,0,1,1.108,3.994Zm-1.807-.205a4.669,4.669,0,0,0-.762-2.822,2.454,2.454,0,0,0-2.09-1.035,2.656,2.656,0,0,0-2.461,1.455v5.049A2.661,2.661,0,0,0,44-1.279a2.442,2.442,0,0,0,2.065-1.03A5.1,5.1,0,0,0,46.836-5.371ZM55.322.2a4.617,4.617,0,0,1-3.5-1.411A5.237,5.237,0,0,1,50.479-4.99v-.332a6.341,6.341,0,0,1,.6-2.808,4.685,4.685,0,0,1,1.68-1.934,4.223,4.223,0,0,1,2.339-.7A3.957,3.957,0,0,1,58.3-9.4a5.877,5.877,0,0,1,1.143,3.887v.752H52.285A3.756,3.756,0,0,0,53.2-2.241a2.87,2.87,0,0,0,2.222.962,3.147,3.147,0,0,0,1.621-.391A4.073,4.073,0,0,0,58.2-2.705l1.1.859A4.437,4.437,0,0,1,55.322.2ZM55.1-9.277a2.41,2.41,0,0,0-1.836.8,3.868,3.868,0,0,0-.918,2.231h5.293v-.137a3.441,3.441,0,0,0-.742-2.134A2.269,2.269,0,0,0,55.1-9.277Zm8.145-1.289L63.3-9.238a3.85,3.85,0,0,1,3.164-1.523q3.35,0,3.379,3.779V0H68.037V-6.992a2.432,2.432,0,0,0-.522-1.689,2.094,2.094,0,0,0-1.6-.547,2.607,2.607,0,0,0-1.543.469,3.183,3.183,0,0,0-1.035,1.23V0H61.533V-10.566Zm8.887,5.2a6.19,6.19,0,0,1,1.152-3.911A3.644,3.644,0,0,1,76.3-10.762a3.665,3.665,0,0,1,2.939,1.27V-15h1.807V0h-1.66L79.3-1.133A3.679,3.679,0,0,1,76.279.2a3.609,3.609,0,0,1-2.993-1.5,6.26,6.26,0,0,1-1.157-3.926Zm1.807.205a4.687,4.687,0,0,0,.742,2.813,2.4,2.4,0,0,0,2.051,1.016,2.636,2.636,0,0,0,2.51-1.543V-7.734a2.656,2.656,0,0,0-2.49-1.494A2.411,2.411,0,0,0,74.678-8.2,5.16,5.16,0,0,0,73.936-5.166ZM85.811,0H84V-10.566h1.807ZM83.857-13.369a1.078,1.078,0,0,1,.269-.742,1.008,1.008,0,0,1,.8-.3,1.024,1.024,0,0,1,.8.3,1.067,1.067,0,0,1,.273.742,1.032,1.032,0,0,1-.273.732,1.043,1.043,0,0,1-.8.293,1.026,1.026,0,0,1-.8-.293A1.043,1.043,0,0,1,83.857-13.369ZM93.086.2a4.617,4.617,0,0,1-3.5-1.411A5.237,5.237,0,0,1,88.242-4.99v-.332a6.341,6.341,0,0,1,.6-2.808,4.685,4.685,0,0,1,1.68-1.934,4.223,4.223,0,0,1,2.339-.7,3.957,3.957,0,0,1,3.2,1.357,5.877,5.877,0,0,1,1.143,3.887v.752H90.049a3.756,3.756,0,0,0,.913,2.524,2.87,2.87,0,0,0,2.222.962A3.147,3.147,0,0,0,94.8-1.67a4.073,4.073,0,0,0,1.162-1.035l1.1.859A4.437,4.437,0,0,1,93.086.2Zm-.225-9.473a2.41,2.41,0,0,0-1.836.8,3.869,3.869,0,0,0-.918,2.231H95.4v-.137a3.441,3.441,0,0,0-.742-2.134A2.269,2.269,0,0,0,92.861-9.277Zm8.145-1.289.059,1.328a3.85,3.85,0,0,1,3.164-1.523q3.35,0,3.379,3.779V0H105.8V-6.992a2.432,2.432,0,0,0-.522-1.689,2.094,2.094,0,0,0-1.6-.547,2.607,2.607,0,0,0-1.543.469,3.183,3.183,0,0,0-1.035,1.23V0H99.3V-10.566Zm11.777-2.559v2.559h1.973v1.4h-1.973v6.561a1.467,1.467,0,0,0,.264.953,1.11,1.11,0,0,0,.9.318,4.374,4.374,0,0,0,.859-.117V0A5.268,5.268,0,0,1,113.418.2a2.25,2.25,0,0,1-1.826-.732,3.147,3.147,0,0,1-.615-2.08V-9.17h-1.924v-1.4h1.924v-2.559ZM121.25.2a4.617,4.617,0,0,1-3.5-1.411,5.237,5.237,0,0,1-1.348-3.774v-.332a6.341,6.341,0,0,1,.6-2.808,4.685,4.685,0,0,1,1.68-1.934,4.223,4.223,0,0,1,2.339-.7,3.957,3.957,0,0,1,3.2,1.357,5.877,5.877,0,0,1,1.143,3.887v.752h-7.158a3.756,3.756,0,0,0,.913,2.524,2.87,2.87,0,0,0,2.222.962,3.147,3.147,0,0,0,1.621-.391,4.073,4.073,0,0,0,1.162-1.035l1.1.859A4.437,4.437,0,0,1,121.25.2Zm-.225-9.473a2.41,2.41,0,0,0-1.836.8,3.869,3.869,0,0,0-.918,2.231h5.293v-.137a3.441,3.441,0,0,0-.742-2.134A2.269,2.269,0,0,0,121.025-9.277Z" transform="translate(206.125 5663.339)" fill="#fff"/>
    <g id="Grupo_141639" data-name="Grupo 141639" transform="translate(236.125 5551.405)">
      <g id="Grupo_141638" data-name="Grupo 141638" transform="translate(0 0)" clip-path="url(#clip-path)">
        <path id="Trazado_183514" data-name="Trazado 183514" d="M21.015,43.909a.979.979,0,0,0-.928-.674H15.3A15.3,15.3,0,0,0,0,58.54v6.791a2.276,2.276,0,0,0,2.276,2.276H27.4a.976.976,0,0,0,.928-1.28ZM52.7,43.235H47.93a.979.979,0,0,0-.93.674L39.691,66.328a.977.977,0,0,0,.928,1.28h25.1A2.276,2.276,0,0,0,68,65.332V58.54A15.3,15.3,0,0,0,52.7,43.235m.074-24.463A18.771,18.771,0,1,0,34,37.543,18.773,18.773,0,0,0,52.771,18.772" transform="translate(0 0)" fill="#fff"/>
        <path id="Trazado_183515" data-name="Trazado 183515" d="M18.834,22.4A2.93,2.93,0,0,0,15.9,25.332v15.63a2.931,2.931,0,1,0,5.861,0V25.332A2.93,2.93,0,0,0,18.834,22.4" transform="translate(15.168 21.365)" fill="#fff"/>
      </g>
    </g>
  </g>
</svg>
