<svg xmlns="http://www.w3.org/2000/svg" xmlns:xlink="http://www.w3.org/1999/xlink" width="454.774" height="580.965" viewBox="0 0 454.774 580.965">
  <defs>
    <filter id="Elipse_4882" x="97.359" y="124.5" width="110" height="110" filterUnits="userSpaceOnUse">
      <feOffset dy="3" input="SourceAlpha"/>
      <feGaussianBlur stdDeviation="3" result="blur"/>
      <feFlood flood-opacity="0.161"/>
      <feComposite operator="in" in2="blur"/>
      <feComposite in="SourceGraphic"/>
    </filter>
    <filter id="Elipse_4884" x="83.359" y="356.5" width="144" height="144" filterUnits="userSpaceOnUse">
      <feOffset dy="3" input="SourceAlpha"/>
      <feGaussianBlur stdDeviation="3" result="blur-2"/>
      <feFlood flood-opacity="0.161"/>
      <feComposite operator="in" in2="blur-2"/>
      <feComposite in="SourceGraphic"/>
    </filter>
    <filter id="Elipse_4883" x="284.359" y="217.5" width="110" height="110" filterUnits="userSpaceOnUse">
      <feOffset dy="3" input="SourceAlpha"/>
      <feGaussianBlur stdDeviation="3" result="blur-3"/>
      <feFlood flood-opacity="0.161"/>
      <feComposite operator="in" in2="blur-3"/>
      <feComposite in="SourceGraphic"/>
    </filter>
    <filter id="Trazado_183767" x="123.761" y="156.131" width="56.797" height="48.353" filterUnits="userSpaceOnUse">
      <feOffset dy="3" input="SourceAlpha"/>
      <feGaussianBlur stdDeviation="3" result="blur-4"/>
      <feFlood flood-opacity="0.161"/>
      <feComposite operator="in" in2="blur-4"/>
      <feComposite in="SourceGraphic"/>
    </filter>
  </defs>
  <g id="Grupo_141735" data-name="Grupo 141735" transform="translate(-573 -1255.5)">
    <g id="Grupo_141669" data-name="Grupo 141669" transform="translate(27.359 88)">
      <path id="Trazado_183502" data-name="Trazado 183502" d="M249.873,224.689c0-7.147,11.238-14.044,20.7-16.876a130.154,130.154,0,0,0-11.423-34.923c-9.353,3.318-23.108,4.85-26.907-1.727-3.575-6.184,2.706-17.767,9.469-24.951a132.176,132.176,0,0,0-27.345-24.532c-6.443,7.538-17.577,15.741-24.155,11.949-6.193-3.572-6.538-16.764-4.262-26.375a130.929,130.929,0,0,0-35.962-7.531c-1.806,9.752-7.358,22.42-14.942,22.42-7.147,0-14.037-11.238-16.869-20.7a130.205,130.205,0,0,0-34.93,11.426c3.325,9.36,4.857,23.115-1.72,26.907-6.186,3.572-17.758-2.707-24.944-9.469a131.637,131.637,0,0,0-24.53,27.336c7.538,6.452,15.732,17.586,11.94,24.164-3.572,6.193-16.757,6.538-26.368,4.262a130.539,130.539,0,0,0-7.536,35.962c9.749,1.806,22.409,7.351,22.409,14.935.009,7.147-11.236,14.044-20.691,16.873A130.131,130.131,0,0,0,23.23,288.762c9.351-3.315,23.106-4.848,26.9,1.73,3.572,6.184-2.7,17.758-9.472,24.944A131.9,131.9,0,0,0,68,339.965c6.452-7.538,17.586-15.734,24.157-11.94,6.193,3.572,6.543,16.758,4.26,26.368a130.715,130.715,0,0,0,35.962,7.536c1.815-9.749,7.358-22.418,14.945-22.418,7.147,0,14.035,11.238,16.866,20.7a130.263,130.263,0,0,0,34.93-11.426c-3.315-9.353-4.855-23.106,1.72-26.907,6.186-3.572,17.76,2.707,24.946,9.476a131.6,131.6,0,0,0,24.537-27.345c-7.538-6.443-15.741-17.586-11.949-24.161,3.575-6.193,16.767-6.538,26.377-4.262a130.539,130.539,0,0,0,7.536-35.962c-9.759-1.806-22.418-7.351-22.418-14.935M141.186,318.346a87.518,87.518,0,1,1,87.519-87.517,87.519,87.519,0,0,1-87.519,87.517" transform="translate(558.907 1361.69)" fill="#26a69a"/>
      <path id="Trazado_183503" data-name="Trazado 183503" d="M110.537,128.678a71.5,71.5,0,1,1-71.5,71.5,71.58,71.58,0,0,1,71.5-71.5m0-5.649a77.146,77.146,0,1,0,77.147,77.147,77.148,77.148,0,0,0-77.147-77.147" transform="translate(589.555 1392.343)" fill="#26a69a"/>
      <path id="Trazado_183504" data-name="Trazado 183504" d="M196.216,97.929c0-5.082,7.987-9.983,14.713-12a92.43,92.43,0,0,0-8.122-24.824c-6.647,2.357-16.424,3.445-19.126-1.229-2.54-4.4,1.924-12.629,6.73-17.737a93.91,93.91,0,0,0-19.436-17.436c-4.579,5.357-12.5,11.189-17.17,8.492-4.4-2.54-4.647-11.916-3.031-18.749A93.138,93.138,0,0,0,125.213,9.1c-1.285,6.932-5.23,15.936-10.622,15.936-5.08,0-9.976-7.987-11.99-14.711a92.485,92.485,0,0,0-24.828,8.119c2.361,6.654,3.452,16.431-1.222,19.126-4.4,2.54-12.625-1.922-17.732-6.73A93.649,93.649,0,0,0,41.382,50.27c5.357,4.586,11.182,12.5,8.488,17.177-2.54,4.4-11.912,4.647-18.744,3.028A92.765,92.765,0,0,0,25.768,96.04C32.7,97.322,41.7,101.263,41.7,106.655c0,5.08-7.987,9.983-14.709,12a92.431,92.431,0,0,0,8.122,24.824c6.647-2.357,16.424-3.445,19.121,1.229,2.54,4.4-1.919,12.623-6.733,17.73a93.8,93.8,0,0,0,19.438,17.438c4.584-5.36,12.5-11.185,17.17-8.488,4.4,2.54,4.651,11.912,3.031,18.742a92.87,92.87,0,0,0,25.562,5.36c1.29-6.932,5.23-15.938,10.622-15.938,5.08,0,9.976,7.987,11.988,14.715a92.668,92.668,0,0,0,24.831-8.122c-2.357-6.647-3.452-16.424,1.222-19.126,4.4-2.54,12.623,1.922,17.732,6.735a93.567,93.567,0,0,0,17.44-19.436c-5.357-4.582-11.189-12.5-8.492-17.177,2.54-4.4,11.916-4.647,18.749-3.028a92.768,92.768,0,0,0,5.357-25.562c-6.936-1.285-15.936-5.225-15.936-10.618M118.957,164.5a62.211,62.211,0,1,1,62.212-62.21,62.211,62.211,0,0,1-62.212,62.21" transform="translate(579.531 1242.501)" fill="#039be5"/>
      <path id="Trazado_183505" data-name="Trazado 183505" d="M97.171,29.682A50.821,50.821,0,1,1,46.348,80.5,50.88,50.88,0,0,1,97.171,29.682m0-4.017A54.838,54.838,0,1,0,152.009,80.5,54.839,54.839,0,0,0,97.171,25.665" transform="translate(601.317 1264.289)" fill="#039be5"/>
      <path id="Trazado_183506" data-name="Trazado 183506" d="M276.68,137.545c0-5.08,7.987-9.983,14.713-12a92.433,92.433,0,0,0-8.122-24.824c-6.647,2.357-16.424,3.445-19.126-1.229-2.54-4.4,1.924-12.627,6.73-17.737a93.91,93.91,0,0,0-19.436-17.436c-4.579,5.357-12.5,11.189-17.17,8.492-4.4-2.54-4.647-11.916-3.031-18.749a93.137,93.137,0,0,0-25.562-5.353c-1.285,6.932-5.23,15.936-10.622,15.936-5.08,0-9.976-7.987-11.99-14.711a92.566,92.566,0,0,0-24.828,8.119c2.362,6.654,3.452,16.431-1.222,19.126-4.4,2.54-12.625-1.922-17.732-6.73a93.65,93.65,0,0,0-17.436,19.432c5.357,4.586,11.182,12.5,8.488,17.177-2.54,4.4-11.912,4.647-18.744,3.028a92.766,92.766,0,0,0-5.357,25.565c6.932,1.283,15.931,5.223,15.931,10.615,0,5.08-7.987,9.983-14.709,12a92.432,92.432,0,0,0,8.122,24.824c6.647-2.357,16.424-3.445,19.119,1.229,2.542,4.4-1.917,12.622-6.73,17.73A93.8,93.8,0,0,0,147.4,219.487c4.584-5.36,12.5-11.185,17.17-8.488,4.4,2.54,4.651,11.912,3.028,18.742a92.906,92.906,0,0,0,25.565,5.36c1.29-6.932,5.23-15.936,10.622-15.936,5.08,0,9.976,7.987,11.988,14.713a92.669,92.669,0,0,0,24.831-8.122c-2.357-6.647-3.452-16.426,1.222-19.126,4.4-2.54,12.622,1.922,17.73,6.737A93.582,93.582,0,0,0,277,193.929c-5.357-4.582-11.189-12.5-8.492-17.176,2.54-4.4,11.916-4.647,18.749-3.028a92.769,92.769,0,0,0,5.357-25.562c-6.936-1.285-15.936-5.225-15.936-10.618m-77.258,66.574a62.211,62.211,0,1,1,62.212-62.21,62.211,62.211,0,0,1-62.212,62.21" transform="translate(685.357 1294.604)" fill="#1565c0"/>
      <path id="Trazado_183507" data-name="Trazado 183507" d="M177.635,69.3a50.822,50.822,0,1,1-50.823,50.823A50.882,50.882,0,0,1,177.635,69.3m0-4.015a54.838,54.838,0,1,0,54.838,54.838,54.839,54.839,0,0,0-54.838-54.838" transform="translate(707.144 1316.394)" fill="#1565c0"/>
      <path id="Trazado_183508" data-name="Trazado 183508" d="M43.42,190.49c-1.523-1.771-3.005-3.6-4.408-5.452l1.845-1.4c1.375,1.81,2.827,3.609,4.318,5.346Zm-10.993-15.1c-1.211-1.984-2.378-4.031-3.468-6.089L31,168.215c1.07,2.014,2.213,4.022,3.4,5.964Zm-8.409-16.679c-.875-2.153-1.695-4.366-2.438-6.575l2.195-.739c.727,2.165,1.53,4.334,2.389,6.443Zm-5.594-17.827c-.512-2.276-.963-4.593-1.336-6.885l2.285-.37c.366,2.243.806,4.515,1.31,6.744Zm-2.623-18.5c-.139-2.313-.211-4.672-.211-7.01h2.315c0,2.292.069,4.6.206,6.874Zm2.672-18.445-2.3-.232c.232-2.311.539-4.649.912-6.953l2.285.37c-.366,2.257-.667,4.549-.894,6.814m3.3-18.008-2.236-.6c.6-2.25,1.285-4.51,2.026-6.714l2.2.739c-.727,2.158-1.4,4.371-1.986,6.577m213.934-13.1c-.861-2.116-1.794-4.228-2.774-6.274l2.086-1c1,2.091,1.954,4.244,2.834,6.4ZM27.952,68.7l-2.109-.956c.963-2.121,2-4.241,3.1-6.3l2.047,1.081c-1.07,2.021-2.091,4.1-3.033,6.177M227.465,56.5c-1.183-1.94-2.447-3.873-3.755-5.749l1.9-1.324c1.334,1.912,2.623,3.887,3.834,5.867ZM36.852,52.684,34.925,51.4c1.292-1.938,2.662-3.862,4.072-5.716l1.841,1.4c-1.38,1.82-2.72,3.7-3.987,5.6M216.69,41.7c-1.489-1.732-3.049-3.44-4.635-5.075l1.662-1.611c1.618,1.667,3.209,3.408,4.73,5.177ZM48.215,38.323l-1.692-1.579c1.584-1.7,3.241-3.376,4.931-4.985l1.6,1.676c-1.655,1.577-3.283,3.22-4.834,4.887m155.462-9.5c-1.746-1.468-3.561-2.9-5.394-4.267l1.382-1.857c1.871,1.389,3.723,2.855,5.5,4.353ZM61.733,25.971l-1.417-1.829c1.836-1.424,3.741-2.813,5.665-4.126l1.306,1.912c-1.885,1.287-3.753,2.649-5.554,4.042M188.757,18.2c-1.959-1.169-3.982-2.292-6.013-3.343L183.8,12.8c2.074,1.072,4.14,2.218,6.138,3.41ZM77.06,15.96l-1.107-2.035C78,12.814,80.1,11.751,82.206,10.769l.979,2.1c-2.058.961-4.121,2-6.126,3.091m95.255-5.834c-2.132-.838-4.313-1.621-6.48-2.322l.713-2.2c2.213.718,4.438,1.516,6.615,2.371ZM93.794,8.561l-.759-2.188c2.2-.766,4.457-1.472,6.693-2.1l.625,2.23c-2.192.616-4.4,1.308-6.559,2.058m60.98-3.73c-2.234-.477-4.508-.894-6.758-1.234l.345-2.29c2.3.347,4.617.771,6.9,1.262Zm-43.255-.852-.4-2.283c2.287-.4,4.621-.727,6.943-.984l.255,2.3c-2.274.252-4.561.576-6.8.965m25.1-1.523q-2.823-.139-5.682-.141l-1.19.007L129.726.006,130.942,0q2.914,0,5.795.144Z" transform="translate(566.146 1230.533)" fill="#039be5"/>
      <path id="Trazado_183509" data-name="Trazado 183509" d="M119.056,69.647l1.512,1.753c-1.729,1.491-3.431,3.056-5.061,4.647l-1.618-1.655c1.665-1.625,3.4-3.22,5.168-4.744m15.107-10.995,1.2,1.979c-1.949,1.183-3.885,2.443-5.758,3.748l-1.322-1.9c1.91-1.331,3.887-2.618,5.876-3.827m16.72-8.321.854,2.151c-2.111.84-4.23,1.76-6.29,2.732l-.989-2.1c2.1-.991,4.267-1.929,6.425-2.788M168.758,44.9l.486,2.264c-2.232.479-4.475,1.035-6.665,1.651l-.625-2.23c2.237-.627,4.524-1.195,6.8-1.685m18.529-2.4.106,2.313c-2.278.1-4.584.282-6.848.526l-.25-2.3c2.313-.25,4.667-.431,6.992-.537m18.677.685-.273,2.3c-2.271-.273-4.573-.477-6.848-.607l.132-2.311c2.322.132,4.674.34,6.99.618m18.316,3.76-.653,2.223c-2.188-.641-4.427-1.225-6.654-1.732l.512-2.257c2.274.516,4.561,1.111,6.8,1.767M241.722,53.7l-1.014,2.081c-2.049-1-4.163-1.945-6.279-2.813l.88-2.142c2.16.887,4.32,1.854,6.413,2.873m16.061,9.557-1.345,1.882c-1.854-1.324-3.776-2.609-5.712-3.815l1.225-1.966c1.975,1.234,3.938,2.544,5.832,3.9M272.035,75.34,270.4,76.979c-1.618-1.621-3.3-3.2-5.005-4.709l1.533-1.734c1.739,1.537,3.457,3.153,5.11,4.8m5.283,5.651c1.54,1.767,3.035,3.591,4.445,5.425l-1.836,1.412c-1.38-1.8-2.845-3.584-4.355-5.313ZM288.4,96.043c1.22,1.984,2.392,4.033,3.482,6.087l-2.044,1.086c-1.067-2.012-2.216-4.017-3.41-5.962Zm8.42,16.681c.868,2.149,1.681,4.362,2.417,6.578l-2.2.729c-.72-2.169-1.516-4.334-2.368-6.439Zm5.524,17.841c.5,2.278.935,4.6,1.294,6.89l-2.287.357c-.352-2.246-.778-4.517-1.271-6.749Zm2.5,18.515c.12,2.338.169,4.7.144,7.015l-2.315-.025c.025-2.269-.021-4.579-.139-6.872Zm-.583,18.679c-.266,2.327-.609,4.663-1.014,6.946l-2.28-.408c.4-2.234.732-4.524.993-6.8Zm-80.016,92.675.664,2.218c-2.23.669-4.51,1.276-6.774,1.8L217.6,262.2c2.218-.516,4.45-1.109,6.635-1.766m76.36-74.341c-.644,2.236-1.368,4.485-2.153,6.684L296.264,192c.771-2.153,1.477-4.357,2.107-6.547Zm-59.334,67.639,1.023,2.077c-2.1,1.035-4.241,2.012-6.383,2.906l-.894-2.135c2.1-.877,4.2-1.834,6.253-2.848m52.683-50.164c-1.009,2.1-2.1,4.2-3.232,6.226l-2.019-1.13c1.111-1.984,2.176-4.035,3.163-6.1Zm-37.009,40.72,1.357,1.875c-1.882,1.361-3.836,2.683-5.809,3.931l-1.236-1.959c1.933-1.22,3.846-2.514,5.688-3.848m27.546-24.606c-1.338,1.894-2.76,3.778-4.223,5.6l-1.8-1.449c1.433-1.785,2.825-3.633,4.135-5.487ZM270.4,232.811l.433-.438L272.477,234l-.442.447c-1.5,1.5-3.063,2.98-4.637,4.387l-1.542-1.725c1.542-1.38,3.07-2.827,4.542-4.3" transform="translate(695.427 1286.441)" fill="#1565c0"/>
      <path id="Trazado_183510" data-name="Trazado 183510" d="M155.823,385.434q-2.368,0-4.716-.072l.067-2.315c2.285.069,4.591.088,6.892.053l.035,2.315q-1.139.017-2.278.019m13.917-.614-.206-2.306c2.3-.2,4.6-.461,6.848-.762l.308,2.294c-2.283.306-4.621.567-6.95.773m-30.262-.236c-2.308-.239-4.644-.535-6.939-.878l.343-2.292c2.26.34,4.561.632,6.837.868Zm48.7-2.514-.479-2.264c2.253-.477,4.508-1.007,6.707-1.577l.581,2.241c-2.232.579-4.524,1.116-6.809,1.6m-67.095-.526c-2.267-.514-4.549-1.088-6.784-1.706l.616-2.232c2.2.609,4.45,1.174,6.682,1.683Zm85.072-4.42-.748-2.19c2.169-.741,4.346-1.54,6.469-2.371l.845,2.153c-2.155.845-4.364,1.658-6.566,2.408m-102.969-.806c-2.195-.79-4.4-1.635-6.543-2.517l.88-2.142c2.114.868,4.283,1.7,6.446,2.48Zm120.21-6.26-1.007-2.084c2.058-1,4.121-2.047,6.128-3.128l1.1,2.04c-2.037,1.1-4.13,2.165-6.219,3.172m-137.37-1.093c-2.081-1.044-4.163-2.148-6.189-3.283l1.13-2.021c2,1.118,4.047,2.206,6.1,3.234Zm153.632-7.985-1.248-1.952c1.915-1.225,3.836-2.517,5.714-3.839l1.334,1.894c-1.905,1.343-3.857,2.653-5.8,3.9M69.878,359.61c-1.94-1.287-3.873-2.63-5.746-4l1.364-1.868c1.845,1.345,3.751,2.67,5.663,3.936Zm184.853-9.587-1.47-1.787q2.66-2.191,5.221-4.494l1.549,1.72c-1.716,1.544-3.5,3.079-5.3,4.561M54.97,348.4c-1.769-1.5-3.528-3.068-5.23-4.649l1.577-1.695q2.525,2.348,5.154,4.58ZM268.4,337.347l-1.674-1.6c1.579-1.648,3.146-3.359,4.656-5.084l1.741,1.526c-1.53,1.75-3.121,3.487-4.723,5.161M41.5,335.5c-1.586-1.709-3.146-3.47-4.637-5.235l1.767-1.5c1.47,1.736,3.007,3.473,4.57,5.158Zm238.964-12.368-1.85-1.391c1.368-1.82,2.72-3.707,4.019-5.605l1.91,1.306c-1.317,1.929-2.688,3.843-4.079,5.691M29.672,321.1q-2.049-2.827-3.98-5.744l1.931-1.278q1.9,2.876,3.922,5.661ZM19.64,305.4c-1.123-2.014-2.22-4.091-3.264-6.172l2.072-1.037q1.542,3.08,3.214,6.082Zm-8.078-16.778c-.877-2.144-1.72-4.341-2.505-6.534l2.179-.778c.773,2.158,1.6,4.323,2.468,6.434ZM5.55,270.97c-.616-2.243-1.188-4.526-1.7-6.786l2.26-.509c.5,2.223,1.065,4.473,1.672,6.684ZM1.7,252.728c-.343-2.294-.637-4.63-.875-6.939l2.3-.238c.236,2.276.526,4.577.861,6.837ZM.067,234.16Q0,231.893,0,229.613c0-.82.007-1.635.021-2.449l2.315.037c-.014.8-.021,1.6-.021,2.41q0,2.25.067,4.482Zm2.869-18.427-2.308-.206c.206-2.3.47-4.637.78-6.95l2.294.31c-.308,2.278-.565,4.582-.766,6.846m2.73-18.161L3.4,197.092c.482-2.267,1.023-4.556,1.609-6.807l2.239.581c-.576,2.22-1.109,4.475-1.581,6.707m4.89-17.7-2.193-.75c.752-2.195,1.567-4.41,2.422-6.58l2.155.847c-.843,2.139-1.646,4.32-2.385,6.483m6.994-17.01-2.084-1.009c1.012-2.091,2.084-4.188,3.193-6.237l2.037,1.1c-1.093,2.019-2.151,4.086-3.146,6.145m8.985-16.04-1.949-1.25c1.25-1.949,2.565-3.9,3.913-5.807l1.889,1.336q-1.986,2.813-3.853,5.721m10.831-14.847L35.58,130.5c1.477-1.79,3.014-3.572,4.573-5.3l1.718,1.551q-2.309,2.559-4.505,5.221m12.516-13.451-1.6-1.674c1.681-1.6,3.42-3.188,5.168-4.714l1.523,1.746c-1.725,1.5-3.436,3.063-5.091,4.642M63.9,106.66l-1.389-1.854c1.859-1.389,3.771-2.757,5.686-4.063l1.306,1.912c-1.887,1.287-3.771,2.635-5.6,4.005" transform="translate(545.641 1363.031)" fill="#26a69a"/>
      <path id="Trazado_183511" data-name="Trazado 183511" d="M121.537,46.314l-13.905-9.691,16.834-6.777Z" transform="translate(687.199 1269.788)" fill="#039be5"/>
      <path id="Trazado_183512" data-name="Trazado 183512" d="M152.966,146.352l16.074,5.374-4.61-17.552Z" transform="translate(746.823 1407.002)" fill="#1565c0"/>
      <path id="Trazado_183513" data-name="Trazado 183513" d="M134.393,188.989l-.331,16.945L119.073,195.7Z" transform="translate(702.247 1479.094)" fill="#26a69a"/>
      <rect id="Rectángulo_37095" data-name="Rectángulo 37095" width="454.774" height="517.93" transform="translate(545.641 1230.534)" fill="none"/>
      <g transform="matrix(1, 0, 0, 1, 545.64, 1167.5)" filter="url(#Elipse_4882)">
        <circle id="Elipse_4882-2" data-name="Elipse 4882" cx="46" cy="46" r="46" transform="translate(106.36 130.5)" fill="#fff"/>
      </g>
      <g transform="matrix(1, 0, 0, 1, 545.64, 1167.5)" filter="url(#Elipse_4884)">
        <circle id="Elipse_4884-2" data-name="Elipse 4884" cx="63" cy="63" r="63" transform="translate(92.36 362.5)" fill="#fff"/>
      </g>
      <g transform="matrix(1, 0, 0, 1, 545.64, 1167.5)" filter="url(#Elipse_4883)">
        <circle id="Elipse_4883-2" data-name="Elipse 4883" cx="46" cy="46" r="46" transform="translate(293.36 223.5)" fill="#fff"/>
      </g>
      <g transform="matrix(1, 0, 0, 1, 545.64, 1167.5)" filter="url(#Trazado_183767)">
        <path id="Trazado_183767-2" data-name="Trazado 183767" d="M74.549,3.754H71.578V12H70.366V3.754H67.4v-1h7.147ZM79.259,12a2.467,2.467,0,0,1-.165-.724,2.62,2.62,0,0,1-1.955.851,2.424,2.424,0,0,1-1.666-.574,1.859,1.859,0,0,1-.651-1.457,1.942,1.942,0,0,1,.816-1.666,3.846,3.846,0,0,1,2.295-.594h1.143V7.3a1.319,1.319,0,0,0-.368-.981,1.48,1.48,0,0,0-1.085-.365,1.712,1.712,0,0,0-1.054.317.935.935,0,0,0-.425.768H74.962a1.621,1.621,0,0,1,.365-.993,2.491,2.491,0,0,1,.99-.759A3.331,3.331,0,0,1,77.691,5a2.715,2.715,0,0,1,1.86.594,2.141,2.141,0,0,1,.7,1.635v3.161a3.865,3.865,0,0,0,.241,1.5V12Zm-1.949-.9a2.064,2.064,0,0,0,1.047-.286,1.728,1.728,0,0,0,.717-.743V8.667h-.92Q76,8.667,76,9.931a1.069,1.069,0,0,0,.368.863A1.415,1.415,0,0,0,77.31,11.1Zm8.1-4.919a3.519,3.519,0,0,0-.578-.044,1.547,1.547,0,0,0-1.568.984V12H82.09V5.132h1.143l.019.793A1.829,1.829,0,0,1,84.889,5a1.2,1.2,0,0,1,.521.089ZM87.7,5.132v7.662q0,1.98-1.8,1.98a2.191,2.191,0,0,1-.717-.114v-.934a2.27,2.27,0,0,0,.533.051.8.8,0,0,0,.6-.213,1.052,1.052,0,0,0,.206-.74V5.132ZM86.406,3.31a.7.7,0,0,1,.175-.479.642.642,0,0,1,.511-.2.666.666,0,0,1,.521.2.694.694,0,0,1,.178.482.671.671,0,0,1-.178.476.678.678,0,0,1-.521.19.657.657,0,0,1-.514-.19A.685.685,0,0,1,86.406,3.31Zm6.037,8.817a3,3,0,0,1-2.272-.917,3.4,3.4,0,0,1-.876-2.453V8.541a4.121,4.121,0,0,1,.39-1.825,3.045,3.045,0,0,1,1.092-1.257A2.745,2.745,0,0,1,92.3,5a2.572,2.572,0,0,1,2.082.882,3.82,3.82,0,0,1,.743,2.526V8.9H90.469a2.441,2.441,0,0,0,.594,1.641,1.866,1.866,0,0,0,1.444.625,2.045,2.045,0,0,0,1.054-.254,2.648,2.648,0,0,0,.755-.673l.717.559A2.884,2.884,0,0,1,92.443,12.127ZM92.3,5.97a1.566,1.566,0,0,0-1.193.517,2.515,2.515,0,0,0-.6,1.45h3.44V7.849a2.237,2.237,0,0,0-.482-1.387A1.475,1.475,0,0,0,92.3,5.97Zm5.776-2.5V5.132h1.282V6.04H98.073V10.3a.953.953,0,0,0,.171.62.721.721,0,0,0,.584.207,2.843,2.843,0,0,0,.559-.076V12a3.424,3.424,0,0,1-.9.126,1.462,1.462,0,0,1-1.187-.476,2.045,2.045,0,0,1-.4-1.352V6.04h-1.25V5.132H96.9V3.469ZM104.967,12a2.467,2.467,0,0,1-.165-.724,2.62,2.62,0,0,1-1.955.851,2.424,2.424,0,0,1-1.666-.574,1.859,1.859,0,0,1-.651-1.457,1.942,1.942,0,0,1,.816-1.666,3.846,3.846,0,0,1,2.295-.594h1.143V7.3a1.319,1.319,0,0,0-.368-.981,1.48,1.48,0,0,0-1.085-.365,1.712,1.712,0,0,0-1.054.317.935.935,0,0,0-.425.768H100.67a1.621,1.621,0,0,1,.365-.993,2.491,2.491,0,0,1,.99-.759A3.331,3.331,0,0,1,103.4,5a2.715,2.715,0,0,1,1.86.594,2.141,2.141,0,0,1,.7,1.635v3.161a3.865,3.865,0,0,0,.241,1.5V12Zm-1.949-.9a2.064,2.064,0,0,0,1.047-.286,1.728,1.728,0,0,0,.717-.743V8.667h-.92q-2.158,0-2.158,1.263a1.069,1.069,0,0,0,.368.863A1.415,1.415,0,0,0,103.018,11.1ZM71.4,26.249a9.814,9.814,0,0,1,.384-2.755,8,8,0,0,1,1.146-2.4,4.874,4.874,0,0,1,1.581-1.523l.241.774a5.056,5.056,0,0,0-1.52,2.171,9.411,9.411,0,0,0-.651,3.269l-.006.54a9.46,9.46,0,0,0,.9,4.253,5.079,5.079,0,0,0,1.282,1.688l-.241.717A5.031,5.031,0,0,1,72.9,31.409,8.823,8.823,0,0,1,71.4,26.249Zm11.47.819a3.4,3.4,0,0,1-1.082,2.263,3.547,3.547,0,0,1-2.422.8,3.257,3.257,0,0,1-2.625-1.174,4.724,4.724,0,0,1-.987-3.142v-.889a5.266,5.266,0,0,1,.46-2.266,3.437,3.437,0,0,1,1.3-1.5,3.632,3.632,0,0,1,1.955-.524,3.34,3.34,0,0,1,2.361.822,3.441,3.441,0,0,1,1.035,2.276H81.646a2.655,2.655,0,0,0-.689-1.6,2.084,2.084,0,0,0-1.482-.5,2.181,2.181,0,0,0-1.831.864,3.966,3.966,0,0,0-.663,2.459v.9a4.077,4.077,0,0,0,.628,2.4,2.031,2.031,0,0,0,1.758.889,2.345,2.345,0,0,0,1.558-.46,2.554,2.554,0,0,0,.72-1.6ZM88.59,30a2.467,2.467,0,0,1-.165-.724,2.62,2.62,0,0,1-1.955.851,2.424,2.424,0,0,1-1.666-.574,1.859,1.859,0,0,1-.651-1.457,1.942,1.942,0,0,1,.816-1.666,3.846,3.846,0,0,1,2.295-.594h1.143V25.3a1.319,1.319,0,0,0-.368-.981,1.48,1.48,0,0,0-1.085-.365,1.712,1.712,0,0,0-1.054.317.935.935,0,0,0-.425.768H84.293a1.621,1.621,0,0,1,.365-.993,2.491,2.491,0,0,1,.99-.759A3.331,3.331,0,0,1,87.022,23a2.715,2.715,0,0,1,1.86.594,2.141,2.141,0,0,1,.7,1.635v3.161a3.865,3.865,0,0,0,.241,1.5V30Zm-1.949-.9a2.064,2.064,0,0,0,1.047-.286,1.728,1.728,0,0,0,.717-.743V26.667h-.92q-2.158,0-2.158,1.263a1.069,1.069,0,0,0,.368.863A1.415,1.415,0,0,0,86.641,29.1Zm8.1-4.919a3.519,3.519,0,0,0-.578-.044,1.547,1.547,0,0,0-1.568.984V30H91.421V23.132h1.143l.019.793A1.829,1.829,0,0,1,94.22,23a1.2,1.2,0,0,1,.521.089Zm.673,2.323a4.023,4.023,0,0,1,.749-2.542,2.548,2.548,0,0,1,3.872-.136V20.25h1.174V30H100.13l-.057-.736a2.391,2.391,0,0,1-1.961.863,2.346,2.346,0,0,1-1.946-.978,4.069,4.069,0,0,1-.752-2.552Zm1.174.133a3.046,3.046,0,0,0,.482,1.828,1.56,1.56,0,0,0,1.333.66,1.713,1.713,0,0,0,1.631-1V24.973A1.726,1.726,0,0,0,98.416,24a1.567,1.567,0,0,0-1.346.667A3.354,3.354,0,0,0,96.588,26.642Zm9.153-.33a9.819,9.819,0,0,1-.371,2.714,8.024,8.024,0,0,1-1.136,2.4,4.978,4.978,0,0,1-1.6,1.562l-.248-.717a5.1,5.1,0,0,0,1.571-2.326,10.065,10.065,0,0,0,.606-3.5v-.2a10.45,10.45,0,0,0-.279-2.479A8.366,8.366,0,0,0,103.5,21.7a4.743,4.743,0,0,0-1.12-1.416l.248-.717a4.959,4.959,0,0,1,1.6,1.549,8.041,8.041,0,0,1,1.136,2.393A10.045,10.045,0,0,1,105.741,26.312Z" transform="translate(65.36 159.5)" fill="#12263f"/>
      </g>
      <path id="Trazado_183768" data-name="Trazado 183768" d="M56.042,9.067A3.4,3.4,0,0,1,54.96,11.33a3.547,3.547,0,0,1-2.422.8,3.257,3.257,0,0,1-2.625-1.174,4.724,4.724,0,0,1-.987-3.142V6.922a5.266,5.266,0,0,1,.46-2.266,3.438,3.438,0,0,1,1.3-1.5,3.632,3.632,0,0,1,1.955-.524,3.34,3.34,0,0,1,2.361.822,3.441,3.441,0,0,1,1.035,2.276H54.817a2.655,2.655,0,0,0-.689-1.6,2.084,2.084,0,0,0-1.482-.5,2.181,2.181,0,0,0-1.831.864,3.966,3.966,0,0,0-.663,2.459v.9a4.077,4.077,0,0,0,.628,2.4,2.031,2.031,0,0,0,1.758.889,2.345,2.345,0,0,0,1.558-.46,2.554,2.554,0,0,0,.72-1.6ZM57.21,8.5a4.057,4.057,0,0,1,.4-1.815,2.96,2.96,0,0,1,1.1-1.244A3.007,3.007,0,0,1,60.327,5a2.9,2.9,0,0,1,2.269.971,3.736,3.736,0,0,1,.866,2.583v.083a4.092,4.092,0,0,1-.384,1.8,2.916,2.916,0,0,1-1.1,1.241,3.041,3.041,0,0,1-1.641.444,2.889,2.889,0,0,1-2.263-.971,3.718,3.718,0,0,1-.866-2.571Zm1.181.14a2.938,2.938,0,0,0,.53,1.834,1.8,1.8,0,0,0,2.841-.01A3.213,3.213,0,0,0,62.289,8.5a2.933,2.933,0,0,0-.536-1.831,1.705,1.705,0,0,0-1.425-.7,1.686,1.686,0,0,0-1.4.692A3.189,3.189,0,0,0,58.391,8.642Zm7.655-3.51L66.084,6A2.5,2.5,0,0,1,68.141,5q2.177,0,2.2,2.457V12H69.163V7.455a1.581,1.581,0,0,0-.34-1.1A1.361,1.361,0,0,0,67.786,6a1.7,1.7,0,0,0-1,.3,2.069,2.069,0,0,0-.673.8V12H64.936V5.132ZM72.5,12V6.04H71.417V5.132H72.5V4.548a2.386,2.386,0,0,1,.657-1.79,2.548,2.548,0,0,1,1.857-.641,5.591,5.591,0,0,1,1.8.387l-.2.99A4.069,4.069,0,0,0,75.1,3.177a1.478,1.478,0,0,0-1.089.34,1.4,1.4,0,0,0-.333,1.019v.6h1.4V6.04h-1.4V12ZM77.4,12H76.215V5.132H77.4Zm5.23-5.814a3.519,3.519,0,0,0-.578-.044,1.547,1.547,0,0,0-1.568.984V12H79.307V5.132h1.143l.019.793A1.829,1.829,0,0,1,82.106,5a1.2,1.2,0,0,1,.521.089ZM84.81,5.132l.032.762A2.536,2.536,0,0,1,86.879,5a1.964,1.964,0,0,1,1.961,1.1,2.6,2.6,0,0,1,.892-.8,2.634,2.634,0,0,1,1.3-.3q2.26,0,2.3,2.393V12H92.154V7.468a1.577,1.577,0,0,0-.336-1.1A1.482,1.482,0,0,0,90.688,6a1.557,1.557,0,0,0-1.085.39,1.584,1.584,0,0,0-.5,1.051V12H87.92V7.5A1.31,1.31,0,0,0,86.454,6a1.571,1.571,0,0,0-1.581.984V12H83.7V5.132ZM99.34,12a2.467,2.467,0,0,1-.165-.724,2.62,2.62,0,0,1-1.955.851,2.424,2.424,0,0,1-1.666-.574A1.859,1.859,0,0,1,94.9,10.1a1.942,1.942,0,0,1,.816-1.666,3.846,3.846,0,0,1,2.295-.594h1.143V7.3a1.319,1.319,0,0,0-.368-.981A1.48,1.48,0,0,0,97.7,5.951a1.712,1.712,0,0,0-1.054.317.935.935,0,0,0-.425.768H95.042a1.621,1.621,0,0,1,.365-.993,2.491,2.491,0,0,1,.99-.759A3.331,3.331,0,0,1,97.772,5a2.715,2.715,0,0,1,1.86.594,2.141,2.141,0,0,1,.7,1.635v3.161a3.865,3.865,0,0,0,.241,1.5V12Zm-1.949-.9a2.064,2.064,0,0,0,1.047-.286,1.728,1.728,0,0,0,.717-.743V8.667h-.92q-2.158,0-2.158,1.263a1.069,1.069,0,0,0,.368.863A1.415,1.415,0,0,0,97.391,11.1Zm7.535.063a1.691,1.691,0,0,0,1.1-.381,1.34,1.34,0,0,0,.521-.952h1.111a2.13,2.13,0,0,1-.406,1.124,2.676,2.676,0,0,1-1,.851,2.885,2.885,0,0,1-1.323.317,2.829,2.829,0,0,1-2.231-.936,3.729,3.729,0,0,1-.828-2.561v-.2a4.135,4.135,0,0,1,.368-1.784,2.8,2.8,0,0,1,1.057-1.212A3,3,0,0,1,104.919,5a2.755,2.755,0,0,1,1.92.692,2.473,2.473,0,0,1,.816,1.8h-1.111a1.618,1.618,0,0,0-.5-1.095,1.57,1.57,0,0,0-1.12-.428,1.644,1.644,0,0,0-1.387.644,3.026,3.026,0,0,0-.492,1.863V8.7a2.966,2.966,0,0,0,.489,1.828A1.651,1.651,0,0,0,104.926,11.168Zm5.326.832h-1.174V5.132h1.174Zm-1.27-8.69a.7.7,0,0,1,.175-.482.655.655,0,0,1,.517-.2.666.666,0,0,1,.521.2.694.694,0,0,1,.178.482.671.671,0,0,1-.178.476.678.678,0,0,1-.521.19.667.667,0,0,1-.517-.19A.678.678,0,0,1,108.982,3.31ZM111.819,8.5a4.057,4.057,0,0,1,.4-1.815,2.96,2.96,0,0,1,1.1-1.244A3.007,3.007,0,0,1,114.936,5a2.9,2.9,0,0,1,2.269.971,3.736,3.736,0,0,1,.866,2.583v.083a4.092,4.092,0,0,1-.384,1.8,2.916,2.916,0,0,1-1.1,1.241,3.041,3.041,0,0,1-1.641.444,2.889,2.889,0,0,1-2.263-.971,3.718,3.718,0,0,1-.866-2.571Zm1.181.14a2.938,2.938,0,0,0,.53,1.834,1.8,1.8,0,0,0,2.841-.01A3.213,3.213,0,0,0,116.9,8.5a2.933,2.933,0,0,0-.536-1.831,1.705,1.705,0,0,0-1.425-.7,1.686,1.686,0,0,0-1.4.692A3.189,3.189,0,0,0,113,8.642Zm2.469-6.379h1.422l-1.7,1.866-.946,0Zm5.186,2.869.038.863A2.5,2.5,0,0,1,122.75,5q2.177,0,2.2,2.457V12h-1.174V7.455a1.581,1.581,0,0,0-.34-1.1A1.361,1.361,0,0,0,122.395,6a1.7,1.7,0,0,0-1,.3,2.069,2.069,0,0,0-.673.8V12h-1.174V5.132ZM46.642,26.249a9.814,9.814,0,0,1,.384-2.755,8,8,0,0,1,1.146-2.4,4.874,4.874,0,0,1,1.581-1.523l.241.774a5.056,5.056,0,0,0-1.52,2.171,9.411,9.411,0,0,0-.651,3.269l-.006.54a9.46,9.46,0,0,0,.9,4.253,5.079,5.079,0,0,0,1.282,1.688l-.241.717a5.031,5.031,0,0,1-1.612-1.574A8.823,8.823,0,0,1,46.642,26.249Zm7.243,2.92a1.692,1.692,0,0,0,1.1-.381,1.34,1.34,0,0,0,.521-.952h1.111a2.13,2.13,0,0,1-.406,1.124,2.676,2.676,0,0,1-1,.851,2.885,2.885,0,0,1-1.323.317,2.829,2.829,0,0,1-2.231-.936,3.729,3.729,0,0,1-.828-2.561v-.2a4.135,4.135,0,0,1,.368-1.784,2.8,2.8,0,0,1,1.057-1.212A3,3,0,0,1,53.878,23a2.755,2.755,0,0,1,1.92.692,2.473,2.473,0,0,1,.816,1.8H55.5A1.618,1.618,0,0,0,55,24.4a1.57,1.57,0,0,0-1.12-.428,1.644,1.644,0,0,0-1.387.644A3.026,3.026,0,0,0,52,26.477V26.7a2.965,2.965,0,0,0,.489,1.828A1.651,1.651,0,0,0,53.884,29.168ZM57.623,26.5a4.057,4.057,0,0,1,.4-1.815,2.96,2.96,0,0,1,1.1-1.244A3.007,3.007,0,0,1,60.74,23a2.9,2.9,0,0,1,2.269.971,3.736,3.736,0,0,1,.866,2.583v.083a4.092,4.092,0,0,1-.384,1.8,2.916,2.916,0,0,1-1.1,1.241,3.041,3.041,0,0,1-1.641.444,2.889,2.889,0,0,1-2.263-.971,3.718,3.718,0,0,1-.866-2.571Zm1.181.14a2.938,2.938,0,0,0,.53,1.834,1.8,1.8,0,0,0,2.841-.01A3.213,3.213,0,0,0,62.7,26.5a2.933,2.933,0,0,0-.536-1.831,1.705,1.705,0,0,0-1.425-.7,1.686,1.686,0,0,0-1.4.692A3.189,3.189,0,0,0,58.8,26.642Zm7.655-3.51L66.5,24A2.5,2.5,0,0,1,68.554,23q2.177,0,2.2,2.457V30H69.576V25.455a1.581,1.581,0,0,0-.34-1.1A1.361,1.361,0,0,0,68.2,24a1.7,1.7,0,0,0-1,.3,2.069,2.069,0,0,0-.673.8V30H65.348V23.132ZM72.915,30V24.04H71.829v-.908h1.085v-.584a2.386,2.386,0,0,1,.657-1.79,2.548,2.548,0,0,1,1.857-.641,5.591,5.591,0,0,1,1.8.387l-.2.99a4.069,4.069,0,0,0-1.511-.317,1.478,1.478,0,0,0-1.089.34,1.4,1.4,0,0,0-.333,1.019v.6h1.4v.908H74.1V30Zm4.894,0H76.628V23.132h1.181Zm5.23-5.814a3.519,3.519,0,0,0-.578-.044,1.547,1.547,0,0,0-1.568.984V30H79.719V23.132h1.143l.019.793A1.829,1.829,0,0,1,82.519,23a1.2,1.2,0,0,1,.521.089Zm2.184-1.054.032.762A2.536,2.536,0,0,1,87.292,23a1.964,1.964,0,0,1,1.961,1.1,2.6,2.6,0,0,1,.892-.8,2.634,2.634,0,0,1,1.3-.3q2.26,0,2.3,2.393V30H92.567V25.468a1.577,1.577,0,0,0-.336-1.1A1.482,1.482,0,0,0,91.1,24a1.557,1.557,0,0,0-1.085.39,1.584,1.584,0,0,0-.5,1.051V30H88.333V25.5A1.31,1.31,0,0,0,86.867,24a1.571,1.571,0,0,0-1.581.984V30H84.112V23.132ZM99.752,30a2.467,2.467,0,0,1-.165-.724,2.62,2.62,0,0,1-1.955.851,2.424,2.424,0,0,1-1.666-.574,1.859,1.859,0,0,1-.651-1.457,1.942,1.942,0,0,1,.816-1.666,3.846,3.846,0,0,1,2.295-.594h1.143V25.3a1.319,1.319,0,0,0-.368-.981,1.48,1.48,0,0,0-1.085-.365,1.712,1.712,0,0,0-1.054.317.935.935,0,0,0-.425.768H95.455a1.621,1.621,0,0,1,.365-.993,2.491,2.491,0,0,1,.99-.759A3.331,3.331,0,0,1,98.185,23a2.715,2.715,0,0,1,1.86.594,2.141,2.141,0,0,1,.7,1.635v3.161a3.865,3.865,0,0,0,.241,1.5V30ZM97.8,29.1a2.064,2.064,0,0,0,1.047-.286,1.728,1.728,0,0,0,.717-.743V26.667h-.92q-2.158,0-2.158,1.263a1.069,1.069,0,0,0,.368.863A1.415,1.415,0,0,0,97.8,29.1Zm6.373-7.636v1.663h1.282v.908h-1.282V28.3a.953.953,0,0,0,.171.62.721.721,0,0,0,.584.207,2.843,2.843,0,0,0,.559-.076V30a3.424,3.424,0,0,1-.9.126,1.462,1.462,0,0,1-1.187-.476A2.045,2.045,0,0,1,103,28.3V24.04h-1.25v-.908H103V21.469ZM108.106,30h-1.174V23.132h1.174Zm-1.27-8.69a.7.7,0,0,1,.175-.482.655.655,0,0,1,.517-.2.666.666,0,0,1,.521.2.694.694,0,0,1,.178.482.671.671,0,0,1-.178.476.678.678,0,0,1-.521.19.667.667,0,0,1-.517-.19A.678.678,0,0,1,106.836,21.31Zm2.837,5.192a4.057,4.057,0,0,1,.4-1.815,2.96,2.96,0,0,1,1.1-1.244A3.007,3.007,0,0,1,112.791,23a2.9,2.9,0,0,1,2.269.971,3.736,3.736,0,0,1,.866,2.583v.083a4.092,4.092,0,0,1-.384,1.8,2.916,2.916,0,0,1-1.1,1.241,3.041,3.041,0,0,1-1.641.444,2.889,2.889,0,0,1-2.263-.971,3.718,3.718,0,0,1-.866-2.571Zm1.181.14a2.938,2.938,0,0,0,.53,1.834,1.8,1.8,0,0,0,2.841-.01,3.213,3.213,0,0,0,.527-1.965,2.933,2.933,0,0,0-.536-1.831,1.705,1.705,0,0,0-1.425-.7,1.686,1.686,0,0,0-1.4.692A3.189,3.189,0,0,0,110.854,26.642Zm7.655-3.51.038.863A2.5,2.5,0,0,1,120.6,23q2.177,0,2.2,2.457V30h-1.174V25.455a1.581,1.581,0,0,0-.34-1.1A1.361,1.361,0,0,0,120.249,24a1.7,1.7,0,0,0-1,.3,2.069,2.069,0,0,0-.673.8V30H117.4V23.132Zm8.772,3.18a9.819,9.819,0,0,1-.371,2.714,8.024,8.024,0,0,1-1.136,2.4,4.978,4.978,0,0,1-1.6,1.562l-.248-.717A5.1,5.1,0,0,0,125.5,29.94a10.065,10.065,0,0,0,.606-3.5v-.2a10.45,10.45,0,0,0-.279-2.479,8.366,8.366,0,0,0-.778-2.053,4.743,4.743,0,0,0-1.12-1.416l.248-.717a4.959,4.959,0,0,1,1.6,1.549,8.041,8.041,0,0,1,1.136,2.393A10.045,10.045,0,0,1,127.282,26.312Z" transform="translate(798.719 1418.5)" fill="#12263f"/>
      <path id="Trazado_183769" data-name="Trazado 183769" d="M55.436,9.067a3.4,3.4,0,0,1-1.082,2.263,3.547,3.547,0,0,1-2.422.8,3.257,3.257,0,0,1-2.625-1.174,4.724,4.724,0,0,1-.987-3.142V6.922a5.266,5.266,0,0,1,.46-2.266,3.438,3.438,0,0,1,1.3-1.5,3.632,3.632,0,0,1,1.955-.524,3.34,3.34,0,0,1,2.361.822,3.441,3.441,0,0,1,1.035,2.276H54.211a2.655,2.655,0,0,0-.689-1.6,2.084,2.084,0,0,0-1.482-.5,2.181,2.181,0,0,0-1.831.864,3.966,3.966,0,0,0-.663,2.459v.9a4.077,4.077,0,0,0,.628,2.4,2.031,2.031,0,0,0,1.758.889,2.345,2.345,0,0,0,1.558-.46,2.554,2.554,0,0,0,.72-1.6ZM56.6,8.5A4.057,4.057,0,0,1,57,6.687a2.96,2.96,0,0,1,1.1-1.244A3.007,3.007,0,0,1,59.721,5a2.9,2.9,0,0,1,2.269.971,3.736,3.736,0,0,1,.866,2.583v.083a4.092,4.092,0,0,1-.384,1.8,2.916,2.916,0,0,1-1.1,1.241,3.041,3.041,0,0,1-1.641.444,2.889,2.889,0,0,1-2.263-.971A3.718,3.718,0,0,1,56.6,8.585Zm1.181.14a2.938,2.938,0,0,0,.53,1.834,1.8,1.8,0,0,0,2.841-.01A3.213,3.213,0,0,0,61.682,8.5a2.933,2.933,0,0,0-.536-1.831,1.705,1.705,0,0,0-1.425-.7,1.686,1.686,0,0,0-1.4.692A3.189,3.189,0,0,0,57.785,8.642Zm7.655-3.51L65.478,6A2.5,2.5,0,0,1,67.535,5q2.177,0,2.2,2.457V12H68.557V7.455a1.581,1.581,0,0,0-.34-1.1A1.361,1.361,0,0,0,67.179,6a1.7,1.7,0,0,0-1,.3,2.069,2.069,0,0,0-.673.8V12H64.329V5.132Zm8.328,5.275,1.7-5.275h1.2L74.206,12h-.9L70.823,5.132h1.2Zm6.8,1.72a3,3,0,0,1-2.272-.917,3.4,3.4,0,0,1-.876-2.453V8.541a4.121,4.121,0,0,1,.39-1.825A3.045,3.045,0,0,1,78.9,5.459,2.745,2.745,0,0,1,80.421,5a2.572,2.572,0,0,1,2.082.882,3.82,3.82,0,0,1,.743,2.526V8.9H78.593a2.441,2.441,0,0,0,.594,1.641,1.866,1.866,0,0,0,1.444.625,2.045,2.045,0,0,0,1.054-.254,2.648,2.648,0,0,0,.755-.673l.717.559A2.884,2.884,0,0,1,80.567,12.127ZM80.421,5.97a1.566,1.566,0,0,0-1.193.517,2.515,2.515,0,0,0-.6,1.45h3.44V7.849a2.237,2.237,0,0,0-.482-1.387A1.475,1.475,0,0,0,80.421,5.97Zm7.5.216a3.519,3.519,0,0,0-.578-.044,1.547,1.547,0,0,0-1.568.984V12H84.6V5.132h1.143l.019.793A1.829,1.829,0,0,1,87.4,5a1.2,1.2,0,0,1,.521.089ZM93,10.178a.864.864,0,0,0-.359-.74,3.452,3.452,0,0,0-1.25-.454,5.912,5.912,0,0,1-1.416-.457,2.014,2.014,0,0,1-.774-.635,1.518,1.518,0,0,1-.251-.876,1.782,1.782,0,0,1,.714-1.428A2.789,2.789,0,0,1,91.491,5a2.87,2.87,0,0,1,1.895.6,1.915,1.915,0,0,1,.727,1.542H92.932a1.06,1.06,0,0,0-.409-.832,1.534,1.534,0,0,0-1.031-.349,1.606,1.606,0,0,0-1,.279.879.879,0,0,0-.362.73.712.712,0,0,0,.336.641,4.139,4.139,0,0,0,1.216.413A6.334,6.334,0,0,1,93.1,8.5a2.079,2.079,0,0,1,.809.657,1.615,1.615,0,0,1,.263.936,1.758,1.758,0,0,1-.736,1.476,3.089,3.089,0,0,1-1.911.555,3.459,3.459,0,0,1-1.46-.292,2.375,2.375,0,0,1-.993-.816,1.966,1.966,0,0,1-.359-1.133h1.174a1.216,1.216,0,0,0,.473.936,1.835,1.835,0,0,0,1.165.346,1.894,1.894,0,0,0,1.07-.27A.829.829,0,0,0,93,10.178ZM99.946,12a2.467,2.467,0,0,1-.165-.724,2.62,2.62,0,0,1-1.955.851,2.424,2.424,0,0,1-1.666-.574,1.859,1.859,0,0,1-.651-1.457,1.942,1.942,0,0,1,.816-1.666,3.846,3.846,0,0,1,2.295-.594h1.143V7.3a1.319,1.319,0,0,0-.368-.981,1.48,1.48,0,0,0-1.085-.365,1.712,1.712,0,0,0-1.054.317.935.935,0,0,0-.425.768H95.649a1.621,1.621,0,0,1,.365-.993A2.491,2.491,0,0,1,97,5.284,3.331,3.331,0,0,1,98.378,5a2.715,2.715,0,0,1,1.86.594,2.141,2.141,0,0,1,.7,1.635v3.161a3.865,3.865,0,0,0,.241,1.5V12ZM98,11.1a2.064,2.064,0,0,0,1.047-.286,1.728,1.728,0,0,0,.717-.743V8.667h-.92q-2.158,0-2.158,1.263a1.069,1.069,0,0,0,.368.863A1.415,1.415,0,0,0,98,11.1Zm7.535.063a1.691,1.691,0,0,0,1.1-.381,1.34,1.34,0,0,0,.521-.952h1.111a2.13,2.13,0,0,1-.406,1.124,2.676,2.676,0,0,1-1,.851,2.885,2.885,0,0,1-1.323.317,2.829,2.829,0,0,1-2.231-.936,3.729,3.729,0,0,1-.828-2.561v-.2a4.135,4.135,0,0,1,.368-1.784A2.8,2.8,0,0,1,103.9,5.437,3,3,0,0,1,105.526,5a2.755,2.755,0,0,1,1.92.692,2.473,2.473,0,0,1,.816,1.8h-1.111a1.618,1.618,0,0,0-.5-1.095,1.57,1.57,0,0,0-1.12-.428,1.644,1.644,0,0,0-1.387.644,3.026,3.026,0,0,0-.492,1.863V8.7a2.966,2.966,0,0,0,.489,1.828A1.651,1.651,0,0,0,105.532,11.168Zm5.326.832h-1.174V5.132h1.174Zm-1.27-8.69a.7.7,0,0,1,.175-.482.655.655,0,0,1,.517-.2.666.666,0,0,1,.521.2.694.694,0,0,1,.178.482.671.671,0,0,1-.178.476.678.678,0,0,1-.521.19.667.667,0,0,1-.517-.19A.678.678,0,0,1,109.588,3.31ZM112.426,8.5a4.057,4.057,0,0,1,.4-1.815,2.96,2.96,0,0,1,1.1-1.244A3.007,3.007,0,0,1,115.542,5a2.9,2.9,0,0,1,2.269.971,3.736,3.736,0,0,1,.866,2.583v.083a4.092,4.092,0,0,1-.384,1.8,2.916,2.916,0,0,1-1.1,1.241,3.041,3.041,0,0,1-1.641.444,2.889,2.889,0,0,1-2.263-.971,3.718,3.718,0,0,1-.866-2.571Zm1.181.14a2.938,2.938,0,0,0,.53,1.834,1.8,1.8,0,0,0,2.841-.01A3.213,3.213,0,0,0,117.5,8.5a2.933,2.933,0,0,0-.536-1.831,1.705,1.705,0,0,0-1.425-.7,1.686,1.686,0,0,0-1.4.692A3.189,3.189,0,0,0,113.606,8.642Zm2.469-6.379H117.5l-1.7,1.866-.946,0Zm5.186,2.869L121.3,6A2.5,2.5,0,0,1,123.356,5q2.177,0,2.2,2.457V12h-1.174V7.455a1.581,1.581,0,0,0-.34-1.1A1.361,1.361,0,0,0,123,6a1.7,1.7,0,0,0-1,.3,2.069,2.069,0,0,0-.673.8V12h-1.174V5.132ZM45.207,26.249a9.814,9.814,0,0,1,.384-2.755,8,8,0,0,1,1.146-2.4,4.874,4.874,0,0,1,1.581-1.523l.241.774a5.056,5.056,0,0,0-1.52,2.171,9.411,9.411,0,0,0-.651,3.269l-.006.54a9.46,9.46,0,0,0,.9,4.253,5.079,5.079,0,0,0,1.282,1.688l-.241.717a5.031,5.031,0,0,1-1.612-1.574A8.823,8.823,0,0,1,45.207,26.249Zm11.47.819a3.4,3.4,0,0,1-1.082,2.263,3.547,3.547,0,0,1-2.422.8,3.257,3.257,0,0,1-2.625-1.174,4.724,4.724,0,0,1-.987-3.142v-.889a5.266,5.266,0,0,1,.46-2.266,3.438,3.438,0,0,1,1.3-1.5,3.632,3.632,0,0,1,1.955-.524,3.34,3.34,0,0,1,2.361.822,3.441,3.441,0,0,1,1.035,2.276H55.452a2.655,2.655,0,0,0-.689-1.6,2.084,2.084,0,0,0-1.482-.5,2.181,2.181,0,0,0-1.831.864,3.966,3.966,0,0,0-.663,2.459v.9a4.077,4.077,0,0,0,.628,2.4,2.031,2.031,0,0,0,1.758.889,2.345,2.345,0,0,0,1.558-.46,2.554,2.554,0,0,0,.72-1.6Zm1.168-.565a4.057,4.057,0,0,1,.4-1.815,2.96,2.96,0,0,1,1.1-1.244A3.007,3.007,0,0,1,60.962,23a2.9,2.9,0,0,1,2.269.971A3.736,3.736,0,0,1,64.1,26.56v.083a4.092,4.092,0,0,1-.384,1.8,2.916,2.916,0,0,1-1.1,1.241,3.041,3.041,0,0,1-1.641.444,2.889,2.889,0,0,1-2.263-.971,3.718,3.718,0,0,1-.866-2.571Zm1.181.14a2.938,2.938,0,0,0,.53,1.834,1.8,1.8,0,0,0,2.841-.01,3.213,3.213,0,0,0,.527-1.965,2.933,2.933,0,0,0-.536-1.831,1.705,1.705,0,0,0-1.425-.7,1.686,1.686,0,0,0-1.4.692A3.189,3.189,0,0,0,59.026,26.642Zm7.655-3.51.038.863A2.5,2.5,0,0,1,68.776,23q2.177,0,2.2,2.457V30H69.8V25.455a1.581,1.581,0,0,0-.34-1.1A1.361,1.361,0,0,0,68.42,24a1.7,1.7,0,0,0-1,.3,2.069,2.069,0,0,0-.673.8V30H65.57V23.132Zm8.328,5.275,1.7-5.275h1.2L75.447,30h-.9l-2.488-6.868h1.2Zm6.8,1.72a3,3,0,0,1-2.272-.917,3.4,3.4,0,0,1-.876-2.453v-.216a4.121,4.121,0,0,1,.39-1.825,3.045,3.045,0,0,1,1.092-1.257A2.745,2.745,0,0,1,81.662,23a2.572,2.572,0,0,1,2.082.882,3.82,3.82,0,0,1,.743,2.526V26.9H79.833a2.441,2.441,0,0,0,.594,1.641,1.866,1.866,0,0,0,1.444.625,2.045,2.045,0,0,0,1.054-.254,2.648,2.648,0,0,0,.755-.673l.717.559A2.884,2.884,0,0,1,81.808,30.127Zm-.146-6.157a1.566,1.566,0,0,0-1.193.517,2.515,2.515,0,0,0-.6,1.45h3.44v-.089a2.237,2.237,0,0,0-.482-1.387A1.475,1.475,0,0,0,81.662,23.97Zm7.5.216a3.519,3.519,0,0,0-.578-.044,1.547,1.547,0,0,0-1.568.984V30H85.845V23.132h1.143l.019.793A1.829,1.829,0,0,1,88.644,23a1.2,1.2,0,0,1,.521.089Zm5.078,3.993a.864.864,0,0,0-.359-.74,3.452,3.452,0,0,0-1.25-.454,5.912,5.912,0,0,1-1.416-.457,2.014,2.014,0,0,1-.774-.635,1.518,1.518,0,0,1-.251-.876,1.782,1.782,0,0,1,.714-1.428A2.789,2.789,0,0,1,92.732,23a2.87,2.87,0,0,1,1.895.6,1.915,1.915,0,0,1,.727,1.542H94.173a1.06,1.06,0,0,0-.409-.832,1.534,1.534,0,0,0-1.031-.349,1.606,1.606,0,0,0-1,.279.879.879,0,0,0-.362.73.712.712,0,0,0,.336.641,4.139,4.139,0,0,0,1.216.413,6.334,6.334,0,0,1,1.425.47,2.079,2.079,0,0,1,.809.657,1.615,1.615,0,0,1,.263.936,1.758,1.758,0,0,1-.736,1.476,3.089,3.089,0,0,1-1.911.555,3.459,3.459,0,0,1-1.46-.292,2.375,2.375,0,0,1-.993-.816,1.966,1.966,0,0,1-.359-1.133h1.174a1.216,1.216,0,0,0,.473.936,1.835,1.835,0,0,0,1.165.346,1.894,1.894,0,0,0,1.07-.27A.829.829,0,0,0,94.243,28.178ZM101.187,30a2.467,2.467,0,0,1-.165-.724,2.62,2.62,0,0,1-1.955.851,2.424,2.424,0,0,1-1.666-.574A1.859,1.859,0,0,1,96.75,28.1a1.942,1.942,0,0,1,.816-1.666,3.846,3.846,0,0,1,2.295-.594H101V25.3a1.319,1.319,0,0,0-.368-.981,1.48,1.48,0,0,0-1.085-.365,1.712,1.712,0,0,0-1.054.317.935.935,0,0,0-.425.768H96.89a1.621,1.621,0,0,1,.365-.993,2.491,2.491,0,0,1,.99-.759A3.331,3.331,0,0,1,99.619,23a2.715,2.715,0,0,1,1.86.594,2.141,2.141,0,0,1,.7,1.635v3.161a3.865,3.865,0,0,0,.241,1.5V30Zm-1.949-.9a2.064,2.064,0,0,0,1.047-.286,1.728,1.728,0,0,0,.717-.743V26.667h-.92q-2.158,0-2.158,1.263a1.069,1.069,0,0,0,.368.863A1.415,1.415,0,0,0,99.238,29.1Zm6.373-7.636v1.663h1.282v.908h-1.282V28.3a.953.953,0,0,0,.171.62.721.721,0,0,0,.584.207,2.843,2.843,0,0,0,.559-.076V30a3.424,3.424,0,0,1-.9.126,1.462,1.462,0,0,1-1.187-.476,2.045,2.045,0,0,1-.4-1.352V24.04h-1.25v-.908h1.25V21.469ZM109.541,30h-1.174V23.132h1.174Zm-1.27-8.69a.7.7,0,0,1,.175-.482.655.655,0,0,1,.517-.2.666.666,0,0,1,.521.2.694.694,0,0,1,.178.482.671.671,0,0,1-.178.476.678.678,0,0,1-.521.19.667.667,0,0,1-.517-.19A.678.678,0,0,1,108.271,21.31Zm2.837,5.192a4.057,4.057,0,0,1,.4-1.815,2.96,2.96,0,0,1,1.1-1.244A3.007,3.007,0,0,1,114.225,23a2.9,2.9,0,0,1,2.269.971,3.736,3.736,0,0,1,.866,2.583v.083a4.092,4.092,0,0,1-.384,1.8,2.916,2.916,0,0,1-1.1,1.241,3.041,3.041,0,0,1-1.641.444,2.889,2.889,0,0,1-2.263-.971,3.718,3.718,0,0,1-.866-2.571Zm1.181.14a2.938,2.938,0,0,0,.53,1.834,1.8,1.8,0,0,0,2.841-.01,3.213,3.213,0,0,0,.527-1.965,2.933,2.933,0,0,0-.536-1.831,1.705,1.705,0,0,0-1.425-.7,1.686,1.686,0,0,0-1.4.692A3.189,3.189,0,0,0,112.289,26.642Zm7.655-3.51.038.863a2.5,2.5,0,0,1,2.057-.99q2.177,0,2.2,2.457V30h-1.174V25.455a1.581,1.581,0,0,0-.34-1.1A1.361,1.361,0,0,0,121.684,24a1.7,1.7,0,0,0-1,.3,2.069,2.069,0,0,0-.673.8V30h-1.174V23.132Zm8.772,3.18a9.819,9.819,0,0,1-.371,2.714,8.024,8.024,0,0,1-1.136,2.4,4.978,4.978,0,0,1-1.6,1.562l-.248-.717a5.1,5.1,0,0,0,1.571-2.326,10.065,10.065,0,0,0,.606-3.5v-.2a10.45,10.45,0,0,0-.279-2.479,8.366,8.366,0,0,0-.778-2.053,4.743,4.743,0,0,0-1.12-1.416l.248-.717a4.959,4.959,0,0,1,1.6,1.549,8.041,8.041,0,0,1,1.136,2.393A10.045,10.045,0,0,1,128.717,26.312Z" transform="translate(613.719 1574)" fill="#12263f"/>
    </g>
    <path id="Trazado_183766" data-name="Trazado 183766" d="M8.9,11.568H4.052v3.059h5.73V17H.967V4.2H9.8V6.585H4.052v2.7H8.9ZM14.027,17H11.057V3.5h2.971Zm6.425.176a4.889,4.889,0,0,1-3.542-1.305,4.507,4.507,0,0,1-1.354-3.4v-.246A5.84,5.84,0,0,1,16.1,9.652a3.955,3.955,0,0,1,1.578-1.727,4.763,4.763,0,0,1,2.461-.611A4.117,4.117,0,0,1,23.3,8.558a4.887,4.887,0,0,1,1.16,3.467v1.151H18.571a2.135,2.135,0,0,0,.694,1.257,2.066,2.066,0,0,0,1.389.457,2.662,2.662,0,0,0,2.2-.984l1.354,1.6a3.784,3.784,0,0,1-1.569,1.217A5.3,5.3,0,0,1,20.452,17.176ZM20.118,9.6q-1.3,0-1.547,1.723H21.56v-.229a1.467,1.467,0,0,0-.36-1.1A1.434,1.434,0,0,0,20.118,9.6ZM28.45,7.49l.1,1.116a3.27,3.27,0,0,1,2.716-1.292A2.407,2.407,0,0,1,33.7,8.747a3.165,3.165,0,0,1,2.795-1.433q2.892,0,2.971,3.5V17H36.492V11a1.813,1.813,0,0,0-.246-1.063,1.048,1.048,0,0,0-.9-.334,1.4,1.4,0,0,0-1.31.782l.009.123V17H31.078V11.015a1.906,1.906,0,0,0-.237-1.081,1.045,1.045,0,0,0-.905-.334,1.42,1.42,0,0,0-1.3.782V17H25.673V7.49Zm17.306,9.686a4.889,4.889,0,0,1-3.542-1.305,4.507,4.507,0,0,1-1.354-3.4v-.246A5.84,5.84,0,0,1,41.4,9.652a3.955,3.955,0,0,1,1.578-1.727,4.763,4.763,0,0,1,2.461-.611A4.117,4.117,0,0,1,48.6,8.558a4.887,4.887,0,0,1,1.16,3.467v1.151H43.875a2.135,2.135,0,0,0,.694,1.257,2.066,2.066,0,0,0,1.389.457,2.662,2.662,0,0,0,2.2-.984l1.354,1.6a3.784,3.784,0,0,1-1.569,1.217A5.3,5.3,0,0,1,45.756,17.176ZM45.422,9.6q-1.3,0-1.547,1.723h2.988v-.229a1.467,1.467,0,0,0-.36-1.1A1.434,1.434,0,0,0,45.422,9.6ZM53.675,7.49l.1,1.116a3.225,3.225,0,0,1,2.716-1.292,2.713,2.713,0,0,1,2.219.888,4.226,4.226,0,0,1,.76,2.672V17H56.5V11a1.6,1.6,0,0,0-.29-1.059A1.342,1.342,0,0,0,55.151,9.6a1.413,1.413,0,0,0-1.292.686V17H50.9V7.49ZM64.556,5.126V7.49H66.12V9.547H64.556V13.9a1.111,1.111,0,0,0,.193.747,1.037,1.037,0,0,0,.765.211,4.345,4.345,0,0,0,.738-.053v2.118a5.466,5.466,0,0,1-1.67.255,3.1,3.1,0,0,1-2.259-.721,2.954,2.954,0,0,1-.729-2.188V9.547H60.381V7.49h1.213V5.126Zm2.092,7.031A5.613,5.613,0,0,1,67.2,9.622a3.96,3.96,0,0,1,1.591-1.709,4.791,4.791,0,0,1,2.435-.6,4.373,4.373,0,0,1,3.366,1.323,5.076,5.076,0,0,1,1.23,3.6v.105a4.925,4.925,0,0,1-1.235,3.529,4.384,4.384,0,0,1-3.344,1.305,4.434,4.434,0,0,1-3.261-1.217,4.761,4.761,0,0,1-1.327-3.3Zm2.962.185a3.538,3.538,0,0,0,.413,1.934,1.376,1.376,0,0,0,1.222.615q1.582,0,1.617-2.435v-.3q0-2.558-1.635-2.558-1.485,0-1.608,2.206Zm12.5,1.986a.684.684,0,0,0-.4-.606,6.016,6.016,0,0,0-1.5-.475,6.853,6.853,0,0,1-1.828-.646,3.062,3.062,0,0,1-1.1-.971,2.319,2.319,0,0,1-.378-1.31,2.628,2.628,0,0,1,1.081-2.158,4.453,4.453,0,0,1,2.83-.848,4.934,4.934,0,0,1,3.023.853,2.666,2.666,0,0,1,1.143,2.241H82.011q0-1.143-1.2-1.143a1.194,1.194,0,0,0-.782.259.8.8,0,0,0-.316.646.737.737,0,0,0,.387.642,3.654,3.654,0,0,0,1.235.4,10.671,10.671,0,0,1,1.49.378,2.706,2.706,0,0,1,2.145,2.646,2.491,2.491,0,0,1-1.156,2.118,5.068,5.068,0,0,1-2.993.817,5.172,5.172,0,0,1-2.18-.439,3.645,3.645,0,0,1-1.494-1.2,2.707,2.707,0,0,1-.536-1.591h2.769a1.145,1.145,0,0,0,.439.962,1.808,1.808,0,0,0,1.081.3,1.422,1.422,0,0,0,.91-.246A.787.787,0,0,0,82.107,14.328Zm8.35-2.153a5.809,5.809,0,0,1,.976-3.56,3.211,3.211,0,0,1,2.725-1.3,2.731,2.731,0,0,1,2.145,1V3.5h2.971V17H96.609l-.149-1.02a2.8,2.8,0,0,1-2.32,1.2,3.205,3.205,0,0,1-2.689-1.3A5.993,5.993,0,0,1,90.457,12.175Zm2.962.185q0,2.531,1.477,2.531a1.458,1.458,0,0,0,1.406-.826V10.443A1.419,1.419,0,0,0,94.913,9.6q-1.371,0-1.485,2.215Zm12.138,4.816a4.889,4.889,0,0,1-3.542-1.305,4.507,4.507,0,0,1-1.354-3.4v-.246a5.84,5.84,0,0,1,.541-2.575,3.955,3.955,0,0,1,1.578-1.727,4.763,4.763,0,0,1,2.461-.611A4.117,4.117,0,0,1,108.4,8.558a4.887,4.887,0,0,1,1.16,3.467v1.151h-5.889a2.135,2.135,0,0,0,.694,1.257,2.066,2.066,0,0,0,1.389.457,2.662,2.662,0,0,0,2.2-.984l1.354,1.6a3.784,3.784,0,0,1-1.569,1.217A5.3,5.3,0,0,1,105.557,17.176ZM105.223,9.6q-1.3,0-1.547,1.723h2.988v-.229a1.467,1.467,0,0,0-.36-1.1A1.434,1.434,0,0,0,105.223,9.6Zm15.68,6.372a3.054,3.054,0,0,1-2.54,1.2,3,3,0,0,1-2.369-.91,3.826,3.826,0,0,1-.8-2.615V7.49h2.962v6.179a1.065,1.065,0,0,0,1.187,1.222,1.548,1.548,0,0,0,1.45-.729V7.49h2.979V17H120.99Zm7.207-8.481.1,1.116a3.225,3.225,0,0,1,2.716-1.292,2.713,2.713,0,0,1,2.219.888,4.226,4.226,0,0,1,.76,2.672V17h-2.971V11a1.6,1.6,0,0,0-.29-1.059,1.342,1.342,0,0,0-1.055-.338,1.413,1.413,0,0,0-1.292.686V17h-2.962V7.49ZM140.9,17a3.344,3.344,0,0,1-.281-.853,2.754,2.754,0,0,1-2.285,1.028,3.374,3.374,0,0,1-2.285-.813,2.588,2.588,0,0,1-.94-2.043,2.66,2.66,0,0,1,1.143-2.338,5.821,5.821,0,0,1,3.322-.791h.914v-.5q0-1.316-1.134-1.316a.927.927,0,0,0-1.055,1.042h-2.962a2.655,2.655,0,0,1,1.173-2.239,4.931,4.931,0,0,1,2.993-.86,4.323,4.323,0,0,1,2.874.888,3.086,3.086,0,0,1,1.081,2.435v4.21a4.311,4.311,0,0,0,.4,2V17Zm-1.854-1.934a1.652,1.652,0,0,0,.918-.237,1.487,1.487,0,0,0,.523-.536V12.772h-.861q-1.547,0-1.547,1.389a.848.848,0,0,0,.272.655A.986.986,0,0,0,139.043,15.066ZM160.409,17h-3.067V11.656H152.8V17h-3.085V4.2H152.8v5.08h4.544V4.2h3.067Zm4.939,0h-2.971V7.49h2.971ZM162.2,5.029a1.334,1.334,0,0,1,.457-1.043,1.934,1.934,0,0,1,2.373,0,1.334,1.334,0,0,1,.457,1.043,1.334,1.334,0,0,1-.457,1.043,1.934,1.934,0,0,1-2.373,0A1.334,1.334,0,0,1,162.2,5.029Zm9.949,9.3a.684.684,0,0,0-.4-.606,6.016,6.016,0,0,0-1.5-.475,6.853,6.853,0,0,1-1.828-.646,3.062,3.062,0,0,1-1.1-.971,2.319,2.319,0,0,1-.378-1.31,2.628,2.628,0,0,1,1.081-2.158,4.453,4.453,0,0,1,2.83-.848,4.934,4.934,0,0,1,3.023.853,2.666,2.666,0,0,1,1.143,2.241h-2.971q0-1.143-1.2-1.143a1.194,1.194,0,0,0-.782.259.8.8,0,0,0-.316.646.737.737,0,0,0,.387.642,3.654,3.654,0,0,0,1.235.4,10.671,10.671,0,0,1,1.49.378,2.706,2.706,0,0,1,2.145,2.646,2.491,2.491,0,0,1-1.156,2.118,5.068,5.068,0,0,1-2.993.817,5.172,5.172,0,0,1-2.18-.439,3.645,3.645,0,0,1-1.494-1.2,2.707,2.707,0,0,1-.536-1.591h2.769a1.145,1.145,0,0,0,.439.962,1.808,1.808,0,0,0,1.081.3,1.422,1.422,0,0,0,.91-.246A.787.787,0,0,0,172.151,14.328Zm7.69-9.2V7.49h1.564V9.547h-1.564V13.9a1.111,1.111,0,0,0,.193.747,1.037,1.037,0,0,0,.765.211,4.345,4.345,0,0,0,.738-.053v2.118a5.466,5.466,0,0,1-1.67.255,3.1,3.1,0,0,1-2.259-.721,2.954,2.954,0,0,1-.729-2.188V9.547h-1.213V7.49h1.213V5.126Zm2.092,7.031a5.613,5.613,0,0,1,.554-2.536,3.96,3.96,0,0,1,1.591-1.709,4.791,4.791,0,0,1,2.435-.6,4.373,4.373,0,0,1,3.366,1.323,5.076,5.076,0,0,1,1.23,3.6v.105a4.925,4.925,0,0,1-1.235,3.529,4.384,4.384,0,0,1-3.344,1.305,4.434,4.434,0,0,1-3.261-1.217,4.761,4.761,0,0,1-1.327-3.3Zm2.962.185a3.538,3.538,0,0,0,.413,1.934,1.376,1.376,0,0,0,1.222.615q1.582,0,1.617-2.435v-.3q0-2.558-1.635-2.558-1.485,0-1.608,2.206Zm13.271-2.171-.976-.07a1.752,1.752,0,0,0-1.793.879V17h-2.962V7.49h2.777l.1,1.222a2.294,2.294,0,0,1,2.083-1.4,2.888,2.888,0,0,1,.826.105ZM202.359,17h-2.971V7.49h2.971ZM199.213,5.029a1.334,1.334,0,0,1,.457-1.043,1.934,1.934,0,0,1,2.373,0,1.334,1.334,0,0,1,.457,1.043,1.334,1.334,0,0,1-.457,1.043,1.934,1.934,0,0,1-2.373,0A1.334,1.334,0,0,1,199.213,5.029ZM209.54,17a3.344,3.344,0,0,1-.281-.853,2.754,2.754,0,0,1-2.285,1.028,3.374,3.374,0,0,1-2.285-.813,2.588,2.588,0,0,1-.94-2.043,2.66,2.66,0,0,1,1.143-2.338,5.821,5.821,0,0,1,3.322-.791h.914v-.5q0-1.316-1.134-1.316a.927.927,0,0,0-1.055,1.042h-2.962a2.655,2.655,0,0,1,1.173-2.239,4.931,4.931,0,0,1,2.993-.86,4.323,4.323,0,0,1,2.874.888,3.086,3.086,0,0,1,1.081,2.435v4.21a4.311,4.311,0,0,0,.4,2V17Zm-1.854-1.934a1.652,1.652,0,0,0,.918-.237,1.487,1.487,0,0,0,.523-.536V12.772h-.861q-1.547,0-1.547,1.389a.848.848,0,0,0,.272.655A.986.986,0,0,0,207.686,15.066Zm10.16-2.892a5.809,5.809,0,0,1,.976-3.56,3.211,3.211,0,0,1,2.725-1.3,2.731,2.731,0,0,1,2.145,1V3.5h2.971V17H224l-.149-1.02a2.8,2.8,0,0,1-2.32,1.2,3.205,3.205,0,0,1-2.689-1.3A5.993,5.993,0,0,1,217.846,12.175Zm2.962.185q0,2.531,1.477,2.531a1.458,1.458,0,0,0,1.406-.826V10.443A1.419,1.419,0,0,0,222.3,9.6q-1.371,0-1.485,2.215Zm12.138,4.816a4.889,4.889,0,0,1-3.542-1.305,4.507,4.507,0,0,1-1.354-3.4v-.246a5.84,5.84,0,0,1,.541-2.575,3.955,3.955,0,0,1,1.578-1.727,4.763,4.763,0,0,1,2.461-.611,4.117,4.117,0,0,1,3.164,1.244,4.887,4.887,0,0,1,1.16,3.467v1.151h-5.889a2.135,2.135,0,0,0,.694,1.257,2.066,2.066,0,0,0,1.389.457,2.662,2.662,0,0,0,2.2-.984l1.354,1.6a3.784,3.784,0,0,1-1.569,1.217A5.3,5.3,0,0,1,232.945,17.176ZM232.611,9.6q-1.3,0-1.547,1.723h2.988v-.229a1.467,1.467,0,0,0-.36-1.1A1.434,1.434,0,0,0,232.611,9.6ZM252.8,4.2v8.376a4.814,4.814,0,0,1-.606,2.465,3.929,3.929,0,0,1-1.74,1.586,6.131,6.131,0,0,1-2.681.545,5.3,5.3,0,0,1-3.683-1.213,4.326,4.326,0,0,1-1.371-3.322V4.2h3.1v8.5q.053,2.1,1.951,2.1a1.889,1.889,0,0,0,1.45-.527,2.465,2.465,0,0,0,.492-1.714V4.2Zm6.768,10.125a.684.684,0,0,0-.4-.606,6.016,6.016,0,0,0-1.5-.475,6.853,6.853,0,0,1-1.828-.646,3.062,3.062,0,0,1-1.1-.971,2.319,2.319,0,0,1-.378-1.31,2.628,2.628,0,0,1,1.081-2.158,4.453,4.453,0,0,1,2.83-.848,4.934,4.934,0,0,1,3.023.853,2.666,2.666,0,0,1,1.143,2.241h-2.971q0-1.143-1.2-1.143a1.194,1.194,0,0,0-.782.259.8.8,0,0,0-.316.646.737.737,0,0,0,.387.642,3.654,3.654,0,0,0,1.235.4,10.671,10.671,0,0,1,1.49.378,2.706,2.706,0,0,1,2.145,2.646,2.491,2.491,0,0,1-1.156,2.118,5.068,5.068,0,0,1-2.993.817,5.172,5.172,0,0,1-2.18-.439,3.645,3.645,0,0,1-1.494-1.2,2.707,2.707,0,0,1-.536-1.591h2.769a1.145,1.145,0,0,0,.439.962,1.808,1.808,0,0,0,1.081.3,1.422,1.422,0,0,0,.91-.246A.787.787,0,0,0,259.567,14.328Zm9.905,1.644a3.054,3.054,0,0,1-2.54,1.2,3,3,0,0,1-2.369-.91,3.826,3.826,0,0,1-.8-2.615V7.49h2.962v6.179a1.065,1.065,0,0,0,1.187,1.222,1.548,1.548,0,0,0,1.45-.729V7.49h2.979V17h-2.777ZM279.316,17a3.344,3.344,0,0,1-.281-.853,2.754,2.754,0,0,1-2.285,1.028,3.374,3.374,0,0,1-2.285-.813,2.588,2.588,0,0,1-.94-2.043,2.66,2.66,0,0,1,1.143-2.338,5.821,5.821,0,0,1,3.322-.791h.914v-.5q0-1.316-1.134-1.316a.927.927,0,0,0-1.055,1.042h-2.962a2.655,2.655,0,0,1,1.173-2.239,4.931,4.931,0,0,1,2.993-.86,4.323,4.323,0,0,1,2.874.888,3.086,3.086,0,0,1,1.081,2.435v4.21a4.311,4.311,0,0,0,.4,2V17Zm-1.854-1.934a1.652,1.652,0,0,0,.918-.237,1.487,1.487,0,0,0,.523-.536V12.772h-.861q-1.547,0-1.547,1.389a.848.848,0,0,0,.272.655A.986.986,0,0,0,277.462,15.066Zm11.8-4.9-.976-.07a1.752,1.752,0,0,0-1.793.879V17h-2.962V7.49h2.777l.1,1.222a2.294,2.294,0,0,1,2.083-1.4,2.888,2.888,0,0,1,.826.105ZM293.458,17h-2.971V7.49h2.971ZM290.312,5.029a1.334,1.334,0,0,1,.457-1.043,1.934,1.934,0,0,1,2.373,0,1.334,1.334,0,0,1,.457,1.043,1.334,1.334,0,0,1-.457,1.043,1.934,1.934,0,0,1-2.373,0A1.334,1.334,0,0,1,290.312,5.029Zm4.6,7.128a5.613,5.613,0,0,1,.554-2.536,3.96,3.96,0,0,1,1.591-1.709,4.791,4.791,0,0,1,2.435-.6,4.373,4.373,0,0,1,3.366,1.323,5.076,5.076,0,0,1,1.23,3.6v.105a4.925,4.925,0,0,1-1.235,3.529,4.384,4.384,0,0,1-3.344,1.305,4.434,4.434,0,0,1-3.261-1.217,4.761,4.761,0,0,1-1.327-3.3Zm2.962.185a3.538,3.538,0,0,0,.413,1.934,1.376,1.376,0,0,0,1.222.615q1.582,0,1.617-2.435v-.3q0-2.558-1.635-2.558-1.485,0-1.608,2.206Z" transform="translate(638 1252)" fill="#12263f"/>
    <g id="Grupo_141672" data-name="Grupo 141672" transform="translate(637.533 1276.5)">
      <rect id="BG" width="314.688" height="4.963" transform="translate(0.467 1.957)" fill="#ffa726"/>
      <path id="Trazado_1367" data-name="Trazado 1367" d="M0,0,9.784,9.784.037,9.747Z" transform="translate(151.73 6.867) rotate(-45)" fill="#ffa726"/>
    </g>
  </g>
</svg>
