<svg xmlns="http://www.w3.org/2000/svg" xmlns:xlink="http://www.w3.org/1999/xlink" width="208" height="208" viewBox="0 0 208 208">
  <defs>
    <filter id="Elipse_4812" x="0" y="0" width="208" height="208" filterUnits="userSpaceOnUse">
      <feOffset dy="3" input="SourceAlpha"/>
      <feGaussianBlur stdDeviation="3" result="blur"/>
      <feFlood flood-opacity="0.161"/>
      <feComposite operator="in" in2="blur"/>
      <feComposite in="SourceGraphic"/>
    </filter>
    <clipPath id="clip-path">
      <rect id="Rectángulo_37100" data-name="Rectángulo 37100" width="52.925" height="67.194" fill="none"/>
    </clipPath>
  </defs>
  <g id="Grupo_141679" data-name="Grupo 141679" transform="translate(-796.125 -5514)">
    <g transform="matrix(1, 0, 0, 1, 796.13, 5514)" filter="url(#Elipse_4812)">
      <circle id="Elipse_4812-2" data-name="Elipse 4812" cx="95" cy="95" r="95" transform="translate(9 6)" fill="#4dd0e1"/>
    </g>
    <path id="Trazado_183778" data-name="Trazado 183778" d="M9.688-6.572H3.525v5.039h7.158V0H1.65V-14.219h8.936v1.533H3.525v4.58H9.688Zm9.2,3.77a1.33,1.33,0,0,0-.552-1.138,5.311,5.311,0,0,0-1.924-.7,9.1,9.1,0,0,1-2.178-.7,3.1,3.1,0,0,1-1.191-.977,2.336,2.336,0,0,1-.386-1.348,2.741,2.741,0,0,1,1.1-2.2,4.291,4.291,0,0,1,2.808-.9,4.415,4.415,0,0,1,2.915.928A2.947,2.947,0,0,1,20.6-7.461H18.779a1.631,1.631,0,0,0-.63-1.279,2.36,2.36,0,0,0-1.587-.537,2.47,2.47,0,0,0-1.543.43,1.353,1.353,0,0,0-.557,1.123,1.1,1.1,0,0,0,.518.986,6.368,6.368,0,0,0,1.87.635,9.744,9.744,0,0,1,2.192.723A3.2,3.2,0,0,1,20.288-4.37a2.485,2.485,0,0,1,.405,1.44A2.7,2.7,0,0,1,19.561-.659,4.752,4.752,0,0,1,16.621.2a5.321,5.321,0,0,1-2.246-.449,3.653,3.653,0,0,1-1.528-1.255,3.025,3.025,0,0,1-.552-1.743H14.1a1.87,1.87,0,0,0,.728,1.44,2.822,2.822,0,0,0,1.792.532,2.913,2.913,0,0,0,1.646-.415A1.275,1.275,0,0,0,18.887-2.8ZM25.5-13.125v2.559h1.973v1.4H25.5v6.561a1.467,1.467,0,0,0,.264.953,1.11,1.11,0,0,0,.9.318,4.374,4.374,0,0,0,.859-.117V0A5.268,5.268,0,0,1,26.133.2a2.25,2.25,0,0,1-1.826-.732,3.147,3.147,0,0,1-.615-2.08V-9.17H21.768v-1.4h1.924v-2.559ZM31.543,0H29.736V-10.566h1.807ZM29.59-13.369a1.078,1.078,0,0,1,.269-.742,1.008,1.008,0,0,1,.8-.3,1.024,1.024,0,0,1,.8.3,1.067,1.067,0,0,1,.273.742,1.032,1.032,0,0,1-.273.732,1.043,1.043,0,0,1-.8.293,1.026,1.026,0,0,1-.8-.293A1.043,1.043,0,0,1,29.59-13.369Zm6.543,2.8.049,1.172a3.9,3.9,0,0,1,3.135-1.367,3.021,3.021,0,0,1,3.018,1.7,4,4,0,0,1,1.372-1.23,4.052,4.052,0,0,1,2-.469q3.477,0,3.535,3.682V0H47.432V-6.973a2.426,2.426,0,0,0-.518-1.694,2.279,2.279,0,0,0-1.738-.562,2.4,2.4,0,0,0-1.67.6,2.436,2.436,0,0,0-.771,1.616V0H40.918V-6.924a2.016,2.016,0,0,0-2.256-2.3A2.417,2.417,0,0,0,36.23-7.715V0H34.424V-10.566ZM58.486,0a3.8,3.8,0,0,1-.254-1.113A4.031,4.031,0,0,1,55.225.2a3.73,3.73,0,0,1-2.563-.884,2.859,2.859,0,0,1-1-2.241,2.987,2.987,0,0,1,1.255-2.563,5.916,5.916,0,0,1,3.53-.913H58.2v-.83a2.029,2.029,0,0,0-.566-1.509,2.276,2.276,0,0,0-1.67-.562,2.634,2.634,0,0,0-1.621.488,1.439,1.439,0,0,0-.654,1.182H51.875a2.493,2.493,0,0,1,.562-1.528,3.832,3.832,0,0,1,1.523-1.167,5.125,5.125,0,0,1,2.114-.43,4.177,4.177,0,0,1,2.861.913A3.294,3.294,0,0,1,60.01-7.334v4.863a5.946,5.946,0,0,0,.371,2.314V0Zm-3-1.377A3.175,3.175,0,0,0,57.1-1.816a2.658,2.658,0,0,0,1.1-1.143V-5.127H56.787q-3.32,0-3.32,1.943a1.645,1.645,0,0,0,.566,1.328A2.177,2.177,0,0,0,55.488-1.377Zm16.3-3.789a6.283,6.283,0,0,1-1.113,3.892A3.557,3.557,0,0,1,67.686.2a3.683,3.683,0,0,1-3.1-1.416L64.5,0h-1.66V-15h1.807v5.6a3.663,3.663,0,0,1,3.018-1.357,3.579,3.579,0,0,1,3.022,1.455,6.471,6.471,0,0,1,1.1,3.984ZM69.98-5.371a4.882,4.882,0,0,0-.713-2.852,2.36,2.36,0,0,0-2.051-1.006,2.652,2.652,0,0,0-2.568,1.66V-3a2.727,2.727,0,0,0,2.588,1.66,2.347,2.347,0,0,0,2.021-1.006A5.192,5.192,0,0,0,69.98-5.371ZM76.025,0H74.219V-15h1.807ZM83.3.2a4.617,4.617,0,0,1-3.5-1.411A5.237,5.237,0,0,1,78.457-4.99v-.332a6.341,6.341,0,0,1,.6-2.808,4.685,4.685,0,0,1,1.68-1.934,4.223,4.223,0,0,1,2.339-.7,3.957,3.957,0,0,1,3.2,1.357,5.877,5.877,0,0,1,1.143,3.887v.752H80.264a3.756,3.756,0,0,0,.913,2.524,2.87,2.87,0,0,0,2.222.962A3.147,3.147,0,0,0,85.02-1.67a4.073,4.073,0,0,0,1.162-1.035l1.1.859A4.437,4.437,0,0,1,83.3.2Zm-.225-9.473a2.41,2.41,0,0,0-1.836.8,3.869,3.869,0,0,0-.918,2.231h5.293v-.137a3.441,3.441,0,0,0-.742-2.134A2.269,2.269,0,0,0,83.076-9.277Z" transform="translate(856.125 5661.339)" fill="#12263f"/>
    <g id="Grupo_141645" data-name="Grupo 141645" transform="translate(873.663 5553.798)">
      <g id="Grupo_141644" data-name="Grupo 141644" transform="translate(0 0)" clip-path="url(#clip-path)">
        <path id="Trazado_183520" data-name="Trazado 183520" d="M28,20.406A15.746,15.746,0,1,0,43.742,36.152,15.746,15.746,0,0,0,28,20.406m-.772,12.957,3.557,1.83a5.367,5.367,0,0,1,2.869,5.714,5.225,5.225,0,0,1-3.078,4.015V45.4a2.187,2.187,0,0,1-4.374,0v-.331a6.457,6.457,0,0,1-3.9-3.56,2.187,2.187,0,0,1,4.012-1.743,2.109,2.109,0,0,0,2.112,1.256.927.927,0,0,0,.906-.8,1.046,1.046,0,0,0-.551-1.132l-3.559-1.83a5.4,5.4,0,0,1-2.841-5.83A5.247,5.247,0,0,1,26.2,27.235v-.325a2.187,2.187,0,1,1,4.374,0v.81a6.4,6.4,0,0,1,3.118,3.212,2.188,2.188,0,1,1-4.012,1.746,2.106,2.106,0,0,0-2.113-1.258.939.939,0,0,0-.887.807,1.011,1.011,0,0,0,.546,1.137" transform="translate(9.182 15.295)" fill="#173042"/>
        <path id="Trazado_183521" data-name="Trazado 183521" d="M41.152,1.166,37.276,3.28a1.749,1.749,0,0,1-1.676,0L29.975.213a1.75,1.75,0,0,0-1.674,0L22.69,3.278a1.752,1.752,0,0,1-1.678,0L15.4.215a1.752,1.752,0,0,0-1.678,0L8.118,3.278a1.752,1.752,0,0,1-1.678,0L2.589,1.172A1.75,1.75,0,0,0,0,2.708V58.775a1.75,1.75,0,0,0,2.588,1.536L6.463,58.2a1.749,1.749,0,0,1,1.676,0l5.625,3.067a1.753,1.753,0,0,0,1.676,0l3.294-1.8a20.08,20.08,0,0,1,25-27.015V2.7a1.75,1.75,0,0,0-2.588-1.536m-29.78,42.49H8.748a2.187,2.187,0,0,1,0-4.374h2.624a2.187,2.187,0,0,1,0,4.374M16.5,34.909H8.748a2.187,2.187,0,0,1,0-4.374H16.5a2.187,2.187,0,1,1,0,4.374m18.068-8.748H8.748a2.187,2.187,0,0,1,0-4.374H34.565a2.187,2.187,0,0,1,0,4.374m0-8.748H8.748a2.187,2.187,0,0,1,0-4.374H34.565a2.187,2.187,0,0,1,0,4.374" transform="translate(0 0)" fill="#173042"/>
      </g>
    </g>
  </g>
</svg>
