<svg xmlns="http://www.w3.org/2000/svg" width="101" height="101" viewBox="0 0 101 101">
  <g id="Grupo_141737" data-name="Grupo 141737" transform="translate(-374 -2882)">
    <circle id="Elipse_4885" data-name="Elipse 4885" cx="50.5" cy="50.5" r="50.5" transform="translate(374 2882)" fill="#fff"/>
    <path id="Trazado_183770" data-name="Trazado 183770" d="M-7.8-20.259A28.6,28.6,0,0,1-6.35-30.388a15.842,15.842,0,0,1,4.7-6.438A31.262,31.262,0,0,0,3.3-41.814,8.142,8.142,0,0,0,4.988-46.8q0-6.636-5.713-6.636A5.3,5.3,0,0,0-4.988-51.5,8.224,8.224,0,0,0-6.7-46.274H-21.555q.088-8.789,5.537-13.689t15.293-4.9q9.8,0,15.183,4.526t5.383,12.876a15,15,0,0,1-1.45,6.636,22.426,22.426,0,0,1-4.658,6.108l-5.054,4.7a11.889,11.889,0,0,0-2.988,4.241,16.805,16.805,0,0,0-.923,5.515ZM-9.6-6.9a6.82,6.82,0,0,1,2.351-5.339,8.512,8.512,0,0,1,5.867-2.087,8.512,8.512,0,0,1,5.867,2.087A6.82,6.82,0,0,1,6.833-6.9,6.82,6.82,0,0,1,4.482-1.56,8.512,8.512,0,0,1-1.384.527,8.512,8.512,0,0,1-7.251-1.56,6.82,6.82,0,0,1-9.6-6.9Z" transform="translate(425 2964)" fill="#1565c0"/>
  </g>
</svg>
