<svg id="Grupo_141510" data-name="Grupo 141510" xmlns="http://www.w3.org/2000/svg" xmlns:xlink="http://www.w3.org/1999/xlink" width="504.053" height="333.098" viewBox="0 0 504.053 333.098">
  <defs>
    <clipPath id="clip-path">
      <rect id="Rectángulo_36977" data-name="Rectángulo 36977" width="504.053" height="333.098" fill="none"/>
    </clipPath>
    <clipPath id="clip-path-3">
      <rect id="Rectángulo_36964" data-name="Rectángulo 36964" width="4.446" height="17.281" fill="none"/>
    </clipPath>
    <clipPath id="clip-path-4">
      <rect id="Rectángulo_36965" data-name="Rectángulo 36965" width="36.599" height="29.703" fill="none"/>
    </clipPath>
    <clipPath id="clip-path-5">
      <rect id="Rectángulo_36966" data-name="Rectángulo 36966" width="5.376" height="17.01" fill="none"/>
    </clipPath>
    <clipPath id="clip-path-6">
      <rect id="Rectángulo_36968" data-name="Rectángulo 36968" width="12.163" height="11.045" fill="none"/>
    </clipPath>
    <clipPath id="clip-path-7">
      <rect id="Rectángulo_36969" data-name="Rectángulo 36969" width="11.235" height="11.152" fill="none"/>
    </clipPath>
    <clipPath id="clip-path-8">
      <rect id="Rectángulo_36970" data-name="Rectángulo 36970" width="19.918" height="54.488" fill="none"/>
    </clipPath>
    <clipPath id="clip-path-9">
      <rect id="Rectángulo_36972" data-name="Rectángulo 36972" width="18.31" height="29.22" fill="none"/>
    </clipPath>
    <clipPath id="clip-path-10">
      <rect id="Rectángulo_36974" data-name="Rectángulo 36974" width="12.829" height="9.236" fill="none"/>
    </clipPath>
    <clipPath id="clip-path-11">
      <rect id="Rectángulo_36975" data-name="Rectángulo 36975" width="61.456" height="66.278" fill="none"/>
    </clipPath>
  </defs>
  <g id="Grupo_141509" data-name="Grupo 141509" clip-path="url(#clip-path)">
    <g id="Grupo_141508" data-name="Grupo 141508">
      <g id="Grupo_141507" data-name="Grupo 141507" clip-path="url(#clip-path)">
        <path id="Trazado_117584" data-name="Trazado 117584" d="M501.673,1664.886H2.38a2.189,2.189,0,0,0-2.38,1.9v.511a2.189,2.189,0,0,0,2.38,1.9H501.673a2.189,2.189,0,0,0,2.38-1.9v-.511a2.189,2.189,0,0,0-2.38-1.9" transform="translate(0 -1336.105)" fill="#575ba5"/>
        <rect id="Rectángulo_36962" data-name="Rectángulo 36962" width="75.823" height="109.59" transform="translate(111.084 37.192)" fill="#c2f2f8"/>
        <path id="Trazado_117585" data-name="Trazado 117585" d="M590.341,595.318h62a1.766,1.766,0,0,0,0-3.532h-62a1.766,1.766,0,1,0,0,3.532" transform="translate(-472.344 -474.921)" fill="#f0f3f9"/>
        <path id="Trazado_117586" data-name="Trazado 117586" d="M652.337,632.928h-62a1.766,1.766,0,1,0,0,3.533h62a1.766,1.766,0,0,0,0-3.533" transform="translate(-472.344 -507.938)" fill="#f0f3f9"/>
        <path id="Trazado_117587" data-name="Trazado 117587" d="M652.337,674.07h-62a1.766,1.766,0,1,0,0,3.532h62a1.766,1.766,0,0,0,0-3.532" transform="translate(-472.344 -540.955)" fill="#f0f3f9"/>
        <path id="Trazado_117588" data-name="Trazado 117588" d="M838.358,525.619,835.3,525.6l-.923-2.916-.967,2.9-3.059-.023,2.461,1.817-.967,2.9,2.488-1.779,2.461,1.817-.923-2.917Z" transform="translate(-666.373 -419.461)" fill="#ecd165"/>
        <path id="Trazado_117589" data-name="Trazado 117589" d="M787.229,525.233l-.923-2.916-.967,2.9-3.059-.023,2.461,1.817-.967,2.9,2.488-1.779,2.461,1.817-.923-2.916,2.488-1.779Z" transform="translate(-627.795 -419.17)" fill="#ecd165"/>
        <path id="Trazado_117590" data-name="Trazado 117590" d="M739.158,524.871l-.923-2.917-.967,2.9-3.059-.023,2.461,1.817-.967,2.9,2.489-1.779,2.461,1.817-.923-2.917,2.488-1.779Z" transform="translate(-589.217 -418.879)" fill="#ecd165"/>
        <path id="Trazado_117591" data-name="Trazado 117591" d="M691.087,524.508l-.923-2.917-.967,2.9-3.059-.023,2.461,1.817-.967,2.9,2.489-1.78,2.461,1.817-.923-2.916,2.489-1.779Z" transform="translate(-550.639 -418.588)" fill="#ecd165"/>
        <path id="Trazado_117592" data-name="Trazado 117592" d="M643.017,524.146l-.923-2.917-.967,2.9-3.059-.023,2.461,1.817-.967,2.9,2.489-1.78,2.461,1.817-.923-2.917,2.488-1.779Z" transform="translate(-512.062 -418.298)" fill="#ecd165"/>
        <path id="Trazado_117593" data-name="Trazado 117593" d="M676.409,264.936a25.483,25.483,0,1,1-25.483-25.483,25.483,25.483,0,0,1,25.483,25.483" transform="translate(-501.93 -192.166)" fill="#f0f3f9"/>
        <path id="Trazado_117594" data-name="Trazado 117594" d="M693.73,269.319s-.587-1.2-3.521-.873-3.762,2.965-3.9,4.723-1.823,22.188-5.243,25.2L692,296.727Z" transform="translate(-546.571 -215.388)" fill="#2f2c60"/>
        <path id="Trazado_117595" data-name="Trazado 117595" d="M726.091,272.749s-3.13-1.056-4.777.509a3.31,3.31,0,0,0-.714,3.636Z" transform="translate(-578.085 -218.608)" fill="#575ba3"/>
        <path id="Trazado_117596" data-name="Trazado 117596" d="M732.31,280.311s-.058-6.9-11.165-6.106a5.429,5.429,0,0,0-4.462,2.9c-1.249,2.442-1.794,6.74,2.243,13.632Z" transform="translate(-574.419 -220.003)" fill="#373484"/>
        <path id="Trazado_117597" data-name="Trazado 117597" d="M736.335,368.543a1.392,1.392,0,0,0-.7-.587l-.012,0-.392-.076c-.208-.038-.412-.074-.617-.107a17.362,17.362,0,0,1-.389-6.84l-9.037-2.752c.713,5.929-.087,8.579-.482,9.469-.169.023-.335.046-.5.07-4.414.655,15.729,9.374,12.132.825" transform="translate(-580.678 -287.446)" fill="#cd8085"/>
        <path id="Trazado_117598" data-name="Trazado 117598" d="M739.594,308.565s-11.024.5-11.232-6.366-1.771-11.431,5.259-12.044,8.477,1.968,9.1,4.244-.269,13.858-3.131,14.166" transform="translate(-584.292 -232.782)" fill="#dcabb0"/>
        <path id="Trazado_117599" data-name="Trazado 117599" d="M697.8,420a25.3,25.3,0,0,1-4.622,2.489l-.181.073-.054.021c-.237.1-.476.187-.716.274a25.2,25.2,0,0,1-5.065,1.275,25.542,25.542,0,0,1-18.448-4.454h0c-.131-.092-.26-.186-.389-.282v0c-.163-.118-.325-.242-.485-.367q-.948-.739-1.824-1.563c1.069-4.348,1.959-7.7,2.44-8.179a4.084,4.084,0,0,1,1-.686h0c2.744-1.428,8.548-2.2,8.548-2.2l.014.017a2.9,2.9,0,0,0,.305.3h0a9.3,9.3,0,0,0,1.156.834,13.913,13.913,0,0,0,7.193,2.13c1.611-.01,2.355-.436,2.652-.971a2.384,2.384,0,0,0-.283-2.133l-.005-.008a3.265,3.265,0,0,1,.4.084c.025.006.05.014.073.021l.566.177c7.5,2.371,7.627,3.313,7.627,3.313,1.314,1.438,2.354,4.185,3.274,7.287q-.87.821-1.815,1.56-.664.519-1.361.992" transform="translate(-534.489 -326.144)" fill="#dce1f1"/>
        <path id="Trazado_117600" data-name="Trazado 117600" d="M742.2,289.794c-.439-3.569-4.009-5.821-7.029-5.821s-5.916.309-5.916.309c-6.806,3.043-3.239,13.676-3.239,13.676s3.963-2.673,4.457-5.968c.311-2.073,3.628-3.187,5.557-3.986.426.265,4.849,3.109,4.35,6.731,0,0,2.259-1.372,1.82-4.941" transform="translate(-581.896 -227.894)" fill="#373484"/>
        <rect id="Rectángulo_36963" data-name="Rectángulo 36963" width="75.823" height="109.59" transform="translate(337.384 37.192)" fill="#c2f2f8"/>
        <path id="Trazado_117601" data-name="Trazado 117601" d="M1736.288,595.318h62a1.766,1.766,0,1,0,0-3.532h-62a1.766,1.766,0,1,0,0,3.532" transform="translate(-1391.99 -474.921)" fill="#f0f3f9"/>
        <path id="Trazado_117602" data-name="Trazado 117602" d="M1798.282,632.928h-62a1.766,1.766,0,0,0,0,3.533h62a1.766,1.766,0,0,0,0-3.533" transform="translate(-1391.989 -507.938)" fill="#f0f3f9"/>
        <path id="Trazado_117603" data-name="Trazado 117603" d="M1798.282,674.07h-62a1.766,1.766,0,1,0,0,3.532h62a1.766,1.766,0,1,0,0-3.532" transform="translate(-1391.989 -540.955)" fill="#f0f3f9"/>
        <path id="Trazado_117604" data-name="Trazado 117604" d="M1980.321,522.679l-.968,2.9-3.059-.023,2.461,1.817-.967,2.9,2.488-1.78,2.462,1.817-.923-2.917,2.488-1.779-3.059-.023Z" transform="translate(-1586.018 -419.461)" fill="#ecd165"/>
        <path id="Trazado_117605" data-name="Trazado 117605" d="M1932.25,522.317l-.967,2.9-3.059-.023,2.461,1.817-.967,2.9,2.488-1.78,2.461,1.817-.923-2.917,2.489-1.779-3.059-.023Z" transform="translate(-1547.44 -419.17)" fill="#ecd165"/>
        <path id="Trazado_117606" data-name="Trazado 117606" d="M1884.18,521.955l-.967,2.9-3.059-.023,2.461,1.817-.967,2.9,2.489-1.779,2.461,1.817-.924-2.916,2.489-1.78-3.059-.023Z" transform="translate(-1508.863 -418.88)" fill="#ecd165"/>
        <path id="Trazado_117607" data-name="Trazado 117607" d="M1836.109,521.592l-.967,2.9-3.059-.023,2.461,1.817-.967,2.9,2.488-1.779,2.462,1.817-.924-2.917,2.489-1.78-3.059-.023Z" transform="translate(-1470.285 -418.589)" fill="#ecd165"/>
        <path id="Trazado_117608" data-name="Trazado 117608" d="M1788.039,521.23l-.967,2.9-3.059-.023,2.461,1.817-.967,2.9,2.488-1.779,2.462,1.817-.923-2.917,2.489-1.779-3.059-.023Z" transform="translate(-1431.708 -418.298)" fill="#ecd165"/>
        <path id="Trazado_117609" data-name="Trazado 117609" d="M1822.354,264.937a25.483,25.483,0,1,1-25.483-25.483,25.483,25.483,0,0,1,25.483,25.483" transform="translate(-1421.576 -192.167)" fill="#f0f3f9"/>
        <path id="Trazado_117610" data-name="Trazado 117610" d="M1881.55,355.249a12.951,12.951,0,0,0,1.025-5.634l7.838-5.387c.678,6.654,1.856,8.44,1.8,11.063,0,.039-4.183,2.773-7.169,2.756-2.238-.013-3.5-2.769-3.489-2.8" transform="translate(-1509.983 -276.251)" fill="#945c2e"/>
        <path id="Trazado_117611" data-name="Trazado 117611" d="M1841.76,393.234a25.5,25.5,0,0,1-6.052,8.759q-.871.822-1.815,1.56-.662.52-1.36.993a25.333,25.333,0,0,1-4.623,2.488l-.18.074-.054.021q-.357.144-.717.273a25.108,25.108,0,0,1-5.065,1.276,25.647,25.647,0,0,1-3.672.263,25.357,25.357,0,0,1-14.775-4.718c-.13-.092-.259-.187-.389-.282h0c-.163-.118-.325-.242-.485-.368q-.948-.739-1.823-1.562a25.723,25.723,0,0,1-2.758-3.053c.805-1.419,1.61-2.738,2.388-3.888,1.093-1.612,7.209-3.914,14.223-5.745l.012.028h0a3.57,3.57,0,0,0,3.652,2.332c2.835,0,6.372-1.948,6.588-4.544.018,0,11.219,2.11,13.54,2.931a7.046,7.046,0,0,1,3.365,3.164" transform="translate(-1442.926 -310.688)" fill="#d1872b"/>
        <path id="Trazado_117612" data-name="Trazado 117612" d="M1865.668,307.91s9.54.436,9.719-5.509,1.532-9.893-4.551-10.422-7.336,1.7-7.878,3.673.233,11.992,2.71,12.258" transform="translate(-1494.932 -234.256)" fill="#a36d3c"/>
        <path id="Trazado_117613" data-name="Trazado 117613" d="M1869.212,290.988s-.751-8.5-9.4-7.8c-6.236.5-4.465-5.9-4.465-5.9a88.84,88.84,0,0,1,10.906.131c9.838.958,3.832,12.293,2.958,13.577" transform="translate(-1488.77 -222.432)" fill="#373481"/>
        <path id="Trazado_117614" data-name="Trazado 117614" d="M204.682,1630.456c-6.974-.3-7.241,6.792-7.241,6.792H211.7s-.043-7.093-7.017-6.792" transform="translate(-158.451 -1308.467)" fill="#272253"/>
        <path id="Trazado_117615" data-name="Trazado 117615" d="M412.525,1630.456c-6.974-.3-7.241,6.792-7.241,6.792h14.258s-.043-7.093-7.017-6.792" transform="translate(-325.249 -1308.467)" fill="#272253"/>
        <path id="Trazado_117616" data-name="Trazado 117616" d="M368.226,1131.653l-14.375-.182-3.432-.043a479.742,479.742,0,0,1-9.752-63.193c-.091-1.114-.2-2.129-.31-3.073v-58.926c10.332,1.675,19.831,4.182,19.831,4.182l.557,7.465.034.521Z" transform="translate(-273.144 -807.525)" fill="#2f2c60"/>
        <path id="Trazado_117617" data-name="Trazado 117617" d="M224.087,1023.283v21.988s-2.037.53-2.3,1.989-1,59.841-14.1,97.469H190.34s.576-114.773,3.776-122.2Z" transform="translate(-152.752 -820.601)" fill="#373484"/>
        <path id="Trazado_117618" data-name="Trazado 117618" d="M219.468,1024.99A14.759,14.759,0,0,0,232,1018.609l-.4-.235a14.315,14.315,0,0,1-12.435,6.148l-.008.465c.106,0,.212,0,.316,0" transform="translate(-175.874 -817.266)" fill="#272253"/>
        <path id="Trazado_117619" data-name="Trazado 117619" d="M416.588,1031.29a14.048,14.048,0,0,1-6.431-5.221l.4-.237a13.632,13.632,0,0,0,5.981,4.817Z" transform="translate(-329.16 -823.252)" fill="#272253"/>
        <path id="Trazado_117620" data-name="Trazado 117620" d="M277.021,601.547c1.308-1.634-4.056-2.251-4.071-2.357-.72-5.067-1.294-10.727-1.294-10.727l-13.024-1.387c-.284,4-.016,7.548-1.2,12.176-.024.1-6.378.817.4,7.771,3.481,3.573,18.074,1.505,19.186-5.476" transform="translate(-204.411 -471.141)" fill="#965c2e"/>
        <path id="Trazado_117621" data-name="Trazado 117621" d="M224.229,689.274c-.113.922-.221,1.95-.287,2.92a3.73,3.73,0,0,1-3.146,3.391c-9.351,1.656-11.235-1.126-11.235-1.126-2.126,5.78.8,20.622.964,25.458a1.555,1.555,0,0,1-1.579,1.608l-44.765-.683a2.448,2.448,0,0,1-2.41-2.542c.034-.912.024-2.066-.021-3.372-.224-6.129-1.256-15.625-2.247-19.331-1.774-6.647-4.728-16.858-6.471-26.151a40.77,40.77,0,0,1-.789-11.5c.269-6.5,2.078-7.053,3.877-7.95,2.925-1.461,8.11-2.727,19.109-3.8a3.778,3.778,0,0,0-.088.567c0,2.47,5.274,4.67,9.561,4.389,3.614-.237,5.914-2.915,5.914-4.4,0-.21-.024-.434-.032-.691,11.754.931,18.823,3.982,18.823,3.982s10.537,14.66,14.5,32.433a19.916,19.916,0,0,1,.318,6.8" transform="translate(-122.106 -518.477)" fill="#d1872b"/>
        <g id="Grupo_141482" data-name="Grupo 141482" transform="translate(83.447 144.005)" opacity="0.6">
          <g id="Grupo_141481" data-name="Grupo 141481">
            <g id="Grupo_141480" data-name="Grupo 141480" clip-path="url(#clip-path-3)">
              <path id="Trazado_117622" data-name="Trazado 117622" d="M422.562,729.215s3.636,13.448.35,17.259c0,0,3.229.2,3.738-.6,1.851-2.9-4.088-16.659-4.088-16.659" transform="translate(-422.562 -729.215)" fill="#c27123"/>
            </g>
          </g>
        </g>
        <g id="Grupo_141485" data-name="Grupo 141485" transform="translate(38.613 171.404)" opacity="0.6">
          <g id="Grupo_141484" data-name="Grupo 141484">
            <g id="Grupo_141483" data-name="Grupo 141483" clip-path="url(#clip-path-4)">
              <path id="Trazado_117623" data-name="Trazado 117623" d="M232.128,869.868s-20.884,7.885-24.832,9.067-3.554,16.558-3.554,16.558a3.993,3.993,0,0,1-4.468,2.1c-3.351-.526-.394-10.25-2.1-16.821s-1.643-9.462-1.643-9.462l35.153-3.351Z" transform="translate(-195.529 -867.962)" fill="#c27123"/>
            </g>
          </g>
        </g>
        <g id="Grupo_141488" data-name="Grupo 141488" transform="translate(45.926 144.946)" opacity="0.6">
          <g id="Grupo_141487" data-name="Grupo 141487">
            <g id="Grupo_141486" data-name="Grupo 141486" clip-path="url(#clip-path-5)">
              <path id="Trazado_117624" data-name="Trazado 117624" d="M237.852,744.246l-1.2-5.259c-1.4-5.257-2.814-4.98-2.814-4.98h0a.876.876,0,0,0-.882.288c-1.692,1.781,2.645,12.82,2.645,12.82s-1.61,5.242.871,3.534c1.552-1.068,1.58-3.934,1.383-6.4Z" transform="translate(-232.561 -733.982)" fill="#c27123"/>
            </g>
          </g>
        </g>
        <path id="Trazado_117625" data-name="Trazado 117625" d="M294.806,805.42a9.166,9.166,0,0,0-11.343,2.122l-1.662.62-3.194.761L257.135,810.3s-2.281,11.585-4.783,12.811c0,0,21.97-1.745,32.149-9.2l1.282-.853a10.508,10.508,0,0,0,5.727-2.1c2.7-1.969,2.156-1.2,4.1-2.562s-.8-2.973-.8-2.973" transform="translate(-202.518 -645.47)" fill="#965c2e"/>
        <path id="Trazado_117626" data-name="Trazado 117626" d="M291.16,802.116a1.732,1.732,0,0,1,1.177.782c1.609,2.551,7.015,11.694,1.866,11.786-5.984.107-14.781-.153-26.3-7.512a94.478,94.478,0,0,0-10.048-5.416l-6.06.488s-2.894-6.573-1.329-6.943c6.161-1.457,4.707-1.569,7.078-1.436,1.683.094,2.816.149,7.657,2.712,4.4,2.331,11.784,3.147,25.96,5.539" transform="translate(-200.631 -637.06)" fill="#a56d3c"/>
        <path id="Trazado_117627" data-name="Trazado 117627" d="M166.362,698.039a70.3,70.3,0,0,1,8.367,27.336s3.617-.883,4.249,0c2,2.8-1.471,11.529-5.578,12.455,0,0-11.046,1.255-13.718.335,0,0-2.626-6.2-5.71-30.1Z" transform="translate(-123.566 -560.191)" fill="#d1872b"/>
        <path id="Trazado_117628" data-name="Trazado 117628" d="M206.129,1189.436c1.394-9.2,2.548-20.112,3.183-31.5.1-1.741.186-3.533.265-5.324.087-1.976.163-3.979.226-5.95a9.007,9.007,0,0,0-.345-2.218,8.665,8.665,0,0,1-.326-2.016c.186-7.5.032-14.361-.1-20.418q-.053-2.383-.1-4.668c-.254-13.772-.35-21.576-.346-21.653,0,.077-.346,7.841-.092,21.632q.042,2.288.1,4.67c.135,6.051.289,12.91.1,20.393a9.031,9.031,0,0,0,.34,2.153,8.65,8.65,0,0,1,.33,2.077c-.063,1.97-.139,3.969-.225,5.944-.079,1.79-.168,3.579-.265,5.318-.634,11.372-1.479,22.385-2.871,31.567Z" transform="translate(-165.322 -879.313)" fill="#2f2c60"/>
        <path id="Trazado_117629" data-name="Trazado 117629" d="M272.871,504.754s-14.668,3.407-16.649-5.76-5.209-14.9,4.072-17.464,11.863.54,13.268,3.439,3.072,18.662-.692,19.784" transform="translate(-203.863 -385.673)" fill="#a56d3c"/>
        <path id="Trazado_117630" data-name="Trazado 117630" d="M238.994,474.821s-1.1-12.089,12.093-14.5c9.576-1.748,7.475-9.868,7.475-9.868s-15.776,2.01-18.882,2.9c-14.682,4.217-2.375,19.757-.686,21.464" transform="translate(-186.635 -361.5)" fill="#575ba5"/>
        <rect id="Rectángulo_36967" data-name="Rectángulo 36967" width="127.288" height="183.975" transform="translate(198.624 0)" fill="#c2f2f8"/>
        <path id="Trazado_117631" data-name="Trazado 117631" d="M1052.524,683.223H1156.6a2.965,2.965,0,0,0,0-5.93H1052.524a2.965,2.965,0,1,0,0,5.93" transform="translate(-842.293 -543.542)" fill="#f0f3f9"/>
        <path id="Trazado_117632" data-name="Trazado 117632" d="M1156.6,746.36H1052.525a2.965,2.965,0,0,0,0,5.93H1156.6a2.965,2.965,0,0,0,0-5.93" transform="translate(-842.294 -598.97)" fill="#f0f3f9"/>
        <path id="Trazado_117633" data-name="Trazado 117633" d="M1156.6,815.429H1052.525a2.965,2.965,0,1,0,0,5.93H1156.6a2.965,2.965,0,1,0,0-5.93" transform="translate(-842.294 -654.399)" fill="#f0f3f9"/>
        <path id="Trazado_117634" data-name="Trazado 117634" d="M1197.011,128.592a42.78,42.78,0,1,1-42.78-42.78,42.78,42.78,0,0,1,42.78,42.78" transform="translate(-891.963 -68.866)" fill="#f0f3f9"/>
        <path id="Trazado_117635" data-name="Trazado 117635" d="M1296.63,186.948c-8.052-4.17-13.575-5.9-13.252-11.192s-2.107-28.079-17.582-22.117c0,0-2.482-1.1-3.6-.939a3.059,3.059,0,0,1,1.372.651,12,12,0,0,0-6.5,1.245c-1.174.666-2.321,2.434-3.327,4.888q-.1.238-.195.488a37.405,37.405,0,0,0-1.167,3.564,55.744,55.744,0,0,0-1.488,7.384v0q-.175,1.281-.3,2.583s0,0,0,.005c-.005.039-.009.08-.012.118-.58,6.41-.149,13.057,1.962,17.582a11.169,11.169,0,0,0,2.492,3.553,17.378,17.378,0,0,1-1.209-3.613,42.66,42.66,0,0,1-.9-6.07,38.579,38.579,0,0,0,1.354,6.051,18.239,18.239,0,0,0,2.109,4.655c4.439,2.913,10.633,8.768,16.212,14.828,1.248,1.354,2.463,2.717,3.622,4.062a0,0,0,0,1,0,0c1.991,2.311,3.813,4.561,5.332,6.6a.005.005,0,0,0,0,0c.023.03.044.056.065.087.113.15.223.3.332.447a42.894,42.894,0,0,0,24.807-27.575,39.8,39.8,0,0,0-10.145-7.289" transform="translate(-1003.434 -122.507)" fill="#b24318"/>
        <path id="Trazado_117636" data-name="Trazado 117636" d="M1284.059,310.822c1.431-.667.55-12.844.55-12.844l12.123-2.4c.842,3.989.4,10.957,1.906,11.256.049.01-2.274,4.62-5.827,5.589-3.78,1.031-8.8-1.575-8.752-1.6" transform="translate(-1030.484 -237.207)" fill="#cd8085"/>
        <path id="Trazado_117637" data-name="Trazado 117637" d="M1293.824,168.5s-6.26-5.856-12.689.578a83.156,83.156,0,0,1,12.689-.578" transform="translate(-1028.138 -133.268)" fill="#575ba3"/>
        <path id="Trazado_117638" data-name="Trazado 117638" d="M1270.182,194.417s3.355-5.3,4.16-9.834c.575-3.236-1.073-15.233-13.128-13.5a16.377,16.377,0,0,0-6.792,2.568c-2.617,1.768-6.4,5.584-2.171,16.052l1.1,3.536Z" transform="translate(-1003.435 -137.157)" fill="#c4541c"/>
        <path id="Trazado_117639" data-name="Trazado 117639" d="M1413.558,453.355a42.622,42.622,0,0,1-10.044,5.844c-.1.042-.2.083-.3.124-.016-.117-.034-.233-.049-.35v0s0,0,0,0c-.016-.1-.03-.2-.044-.3a.005.005,0,0,1,0,0c-.239-1.653-.463-3.193-.654-4.515-.391-2.694-.652-4.485-.652-4.485l2.785-.3,8.459-.909s.039.216.115.856h0c.087.718.217,1.968.393,4.043" transform="translate(-1124.98 -359.895)" fill="#dcabb0"/>
        <path id="Trazado_117640" data-name="Trazado 117640" d="M1164.206,350.864l-.009.133L1163,367.775s-2.832,3.09-5.844,6.24c-.051.053-.1.108-.156.163l0,0-.855.889a43.012,43.012,0,0,1-9.576-10.407c1.655-1.734,3.447-3.548,5.258-5.27,4.649-4.419,9.422-8.229,12.307-8.521.023,0,.046-.005.067-.007Z" transform="translate(-920.146 -281.576)" fill="#dcabb0"/>
        <path id="Trazado_117641" data-name="Trazado 117641" d="M1228.6,367.587c-2.076-9.979-5.431-14.3-5.431-14.3l0,0c-3.842-2.914-10.458-5.262-15.822-5.859-.078-.011-.157-.018-.235-.026h0a7.249,7.249,0,0,1-6.452,3.292,7.959,7.959,0,0,1-6.482-3.147q-.215-.286-.4-.573c-1.168.032-2.206.067-3.127.106-.156.005-.309.012-.458.02q-.687.029-1.283.06a40.167,40.167,0,0,0-5.054.44s0,0,0,0v0s-3.019-.627-12.8,7.685c0,0,5.531,12.7,5.6,15.772l.151-.111h0q-.109.809-.193,1.618v0a42.831,42.831,0,0,0,40.125,5.813c.4-.145.8-.3,1.2-.46.013-.129.026-.258.041-.385v0s0,0,0,0c.007-.073.014-.143.021-.216.193-1.8.428-3.555.69-5.241h0Z" transform="translate(-939.791 -278.45)" fill="#eacf65"/>
        <path id="Trazado_117642" data-name="Trazado 117642" d="M1255.513,220.122s15.148.25,15.158-9.186,1.973-15.758-7.7-16.317-11.554,3.04-12.323,6.189.924,19.006,4.864,19.314" transform="translate(-1003.526 -156.14)" fill="#daa9ae"/>
        <path id="Trazado_117643" data-name="Trazado 117643" d="M1278.854,185.889s4.147,11.07,10.512,12.707,9.126-.069,9.126-.069a18.023,18.023,0,0,1-5.9-10.649s-10.615-7.258-13.743-1.989" transform="translate(-1026.307 -147.641)" fill="#c4541c"/>
        <path id="Trazado_117644" data-name="Trazado 117644" d="M1252.889,190.9s-3.1,2.471-3.852,4.874-1.095,7.349-2.536,7.181c0,0-3.125-7.524.387-11.781,3.723-4.513,6-.275,6-.275" transform="translate(-999.315 -151.752)" fill="#c4541c"/>
        <path id="Trazado_117645" data-name="Trazado 117645" d="M1468.883,566.214l-5.135-.039-1.55-4.9-1.624,4.872-5.135-.039,4.132,3.05-1.624,4.872,4.177-2.987,4.132,3.05-1.55-4.9Z" transform="translate(-1168.02 -450.439)" fill="#ecd165"/>
        <path id="Trazado_117646" data-name="Trazado 117646" d="M1383.049,565.568l-1.55-4.9-1.624,4.872-5.135-.039,4.132,3.05-1.624,4.872,4.177-2.987,4.132,3.05-1.55-4.9,4.177-2.987Z" transform="translate(-1103.258 -449.951)" fill="#ecd165"/>
        <path id="Trazado_117647" data-name="Trazado 117647" d="M1302.35,564.96l-1.55-4.9-1.623,4.872-5.136-.039,4.132,3.05-1.624,4.872,4.177-2.987,4.132,3.05-1.55-4.9,4.177-2.987Z" transform="translate(-1038.495 -449.463)" fill="#ecd165"/>
        <path id="Trazado_117648" data-name="Trazado 117648" d="M1221.652,564.351l-1.55-4.9-1.624,4.872-5.135-.039,4.132,3.05-1.624,4.872,4.177-2.987,4.132,3.05-1.55-4.9,4.177-2.987Z" transform="translate(-973.733 -448.974)" fill="#ecd165"/>
        <path id="Trazado_117649" data-name="Trazado 117649" d="M1140.953,563.743l-1.55-4.9-1.624,4.872-5.135-.039,4.132,3.05-1.624,4.872,4.177-2.987,4.132,3.05-1.55-4.9,4.178-2.987Z" transform="translate(-908.97 -448.487)" fill="#ecd165"/>
        <path id="Trazado_117650" data-name="Trazado 117650" d="M1908.227,795.174l-5.509-.445a9.523,9.523,0,0,0-11.881,1.61s-2.182,2.488.178,3.195,1.578.126,4.88,1.189,6.9.648,8.655-1.113l1.94-1.969Z" transform="translate(-1516.699 -636.663)" fill="#daa9ae"/>
        <path id="Trazado_117651" data-name="Trazado 117651" d="M1958.154,658.1v6.564s31.126,4.111,35.209,3.78c2.513-.2,17-11.127,19.646-18.172,1.654-4.395,2.808-7.948,2.808-7.948l3.036-18.827s-9.188.692-10.692,3.741-16.786,25.947-17.957,27.953c0,0-29.041,2.574-32.05,2.909" transform="translate(-1571.46 -500.371)" fill="#e6ca66"/>
        <path id="Trazado_117652" data-name="Trazado 117652" d="M2276.307,562.6s-1.4,11.446-1.553,13.064l13.015,4.465,2.332-8.073a27.945,27.945,0,0,1-2.395-14.017Z" transform="translate(-1825.537 -447.84)" fill="#c88d94"/>
        <path id="Trazado_117653" data-name="Trazado 117653" d="M2260.532,495.141s13.27.607,13.52-7.663,2.132-13.761-6.33-14.5-10.2,2.369-10.959,5.109.324,16.682,3.77,17.052" transform="translate(-1810.916 -379.488)" fill="#daa9ae"/>
        <path id="Trazado_117654" data-name="Trazado 117654" d="M2263.373,466.453s-.992-11.035-12.813-10.639-9.668-13.29,8.78-7.871c12.93,3.8,5.225,16.759,4.033,18.51" transform="translate(-1800.236 -358.464)" fill="#575ba1"/>
        <path id="Trazado_117655" data-name="Trazado 117655" d="M2160.689,1629.487l-2.078,6.681H2138s5.273-9.012,22.692-6.681" transform="translate(-1715.787 -1307.389)" fill="#272253"/>
        <path id="Trazado_117656" data-name="Trazado 117656" d="M2356.686,1629.487l-1.84,6.681h-18.254s4.67-9.012,20.093-6.681" transform="translate(-1875.165 -1307.389)" fill="#272253"/>
        <path id="Trazado_117657" data-name="Trazado 117657" d="M2172.206,997.675l35.353.765s-13.326,66.158-28.795,124.727l-18.66.545Z" transform="translate(-1733.529 -800.655)" fill="#2f2c60"/>
        <path id="Trazado_117658" data-name="Trazado 117658" d="M2312.57,991.89s10.3,50.991,4.412,127.179H2301L2291,1018.638h0c-.292-2.93-4.81-5.5-4.81-5.5l-.335-19.564Z" transform="translate(-1834.443 -796.012)" fill="#373481"/>
        <path id="Trazado_117659" data-name="Trazado 117659" d="M2364.04,1022.214a15.331,15.331,0,0,1-13.017-6.63l.417-.244a14.771,14.771,0,0,0,12.928,6.871l-.328,0" transform="translate(-1886.745 -814.832)" fill="#272253"/>
        <path id="Trazado_117660" data-name="Trazado 117660" d="M2408.952,1170.971c-1.449-9.556-2.647-20.9-3.307-32.728-.1-1.809-.193-3.67-.275-5.532-.091-2.054-.17-4.133-.235-6.181a9.388,9.388,0,0,1,.358-2.3,8.977,8.977,0,0,0,.338-2.1c-.193-7.788-.033-14.921.107-21.213q.056-2.476.1-4.85c.264-14.308.363-22.417.36-22.5,0,.08.36,8.147.1,22.475q-.044,2.377-.1,4.852c-.14,6.287-.3,13.413-.106,21.188a9.418,9.418,0,0,1-.354,2.237,9.019,9.019,0,0,0-.344,2.158c.066,2.046.145,4.124.235,6.175.082,1.859.175,3.719.275,5.525.659,11.815,1.537,23.257,2.983,32.8Z" transform="translate(-1930.169 -861.563)" fill="#2f2c60"/>
        <path id="Trazado_117661" data-name="Trazado 117661" d="M2203.2,694.622c.064,1.891.744,3.242,2.638,3.216,0,0,13.658.453,18.158.39,4.965-.07,19.7-.921,19.7-.921l.814-.011a2.633,2.633,0,0,0,2.483-3.393c-1.435-4.764-3.537-14.005-2.016-23.708a112.54,112.54,0,0,0,1.416-23.439c-.593-10.49-3.119-17.792-6.707-20.716a63.928,63.928,0,0,0-10.381-2.731c-1.358,2.117-3.74,4.625-7.4,4.623a7.257,7.257,0,0,1-6.764-4.768c-4.456.184-9.516,1.755-11.212,2.794-3.49,2.137-3.592,24.187-1.627,48.6.648,8.051.764,16.186.9,20.064" transform="translate(-1766.362 -500.101)" fill="#e6ca66"/>
        <g id="Grupo_141491" data-name="Grupo 141491" transform="translate(455.79 121.85)" opacity="0.2">
          <g id="Grupo_141490" data-name="Grupo 141490">
            <g id="Grupo_141489" data-name="Grupo 141489" clip-path="url(#clip-path-6)">
              <path id="Trazado_117662" data-name="Trazado 117662" d="M2315.489,617.034s-3.464,4.979-7.446,5.258l3.92,5.787s8.756-4.127,8.218-8.568c0,0-3.415-2.383-4.692-2.477" transform="translate(-2308.042 -617.033)" fill="#cd832c"/>
            </g>
          </g>
        </g>
        <path id="Trazado_117663" data-name="Trazado 117663" d="M2198.958,876.681l-1.393-.6a9.523,9.523,0,0,1-11.6,3.021s-2.964-1.473-1.048-3.023,1.413-.716,4.063-2.952,6.136-3.218,8.429-2.256l2.542,1.085Z" transform="translate(-1752.922 -698.598)" fill="#daa9ae"/>
        <g id="Grupo_141494" data-name="Grupo 141494" transform="translate(444.835 121.744)" opacity="0.2">
          <g id="Grupo_141493" data-name="Grupo 141493">
            <g id="Grupo_141492" data-name="Grupo 141492" clip-path="url(#clip-path-7)">
              <path id="Trazado_117664" data-name="Trazado 117664" d="M2257.787,616.487s2.351,5.631,6.017,5.338l-3.7,5.815s-7.317-4.414-7.537-8.582c0,0,3.94-2.477,5.217-2.571" transform="translate(-2252.57 -616.488)" fill="#cd832c"/>
            </g>
          </g>
        </g>
        <path id="Trazado_117665" data-name="Trazado 117665" d="M2299.673,644.25h-5.289a.779.779,0,0,0-.426,1.024c.213.81,2.174,2.858,2.835,2.9s4.458-2.559,2.88-3.924" transform="translate(-1840.914 -517.024)" fill="#373481"/>
        <path id="Trazado_117666" data-name="Trazado 117666" d="M2257.3,613.263s1.806,5.724,5.789,6l-3.8,5.072s-7.047-4.336-7.267-8.5c0,0,4-2.477,5.274-2.571" transform="translate(-1807.295 -492.156)" fill="#e6ca66"/>
        <path id="Trazado_117667" data-name="Trazado 117667" d="M2315.635,613.655s-3.609,5.647-7.592,5.925l3.778,5.182s8.141-3.8,8.36-7.963c0,0-3.268-3.05-4.546-3.144" transform="translate(-1852.253 -492.471)" fill="#e6ca66"/>
        <path id="Trazado_117668" data-name="Trazado 117668" d="M2275.845,661.128s-1.7,12.788-1.7,16.437c0,15.347,2.386,39.183,2.386,39.183a6.75,6.75,0,0,1-1.694,4.78,28.107,28.107,0,0,1-3.933,3.488,13.565,13.565,0,0,1-3.655-6.753c-.646-2.9-1.516-20.853,2.053-40.055a148.059,148.059,0,0,1,4.677-17.36s1.444-.193,1.866.28" transform="translate(-1819.044 -530.313)" fill="#575ba1"/>
        <g id="Grupo_141497" data-name="Grupo 141497" transform="translate(460.825 142.717)" opacity="0.2">
          <g id="Grupo_141496" data-name="Grupo 141496">
            <g id="Grupo_141495" data-name="Grupo 141495" clip-path="url(#clip-path-8)">
              <path id="Trazado_117669" data-name="Trazado 117669" d="M2338.111,767.572a20.817,20.817,0,0,0,11.935,9.612l.815-.011a2.633,2.633,0,0,0,2.482-3.393c-1.435-4.764-3.537-14-2.015-23.708a112.591,112.591,0,0,0,1.416-23.439c-4.471-2.943-11.261-6.208-14.633-1.748-5.285,6.988-6.854,30.692,0,42.688" transform="translate(-2333.54 -722.695)" fill="#cd832c"/>
            </g>
          </g>
        </g>
        <path id="Trazado_117670" data-name="Trazado 117670" d="M2273.8,629.576a44.51,44.51,0,0,1,10.079,2.2c4.285,1.659,10.6,40.707,7.838,46.032-2.6,5.026-41.469,6.114-41.469,6.114l.46-5.7s23.538-5.573,30.816-8.079Z" transform="translate(-1805.868 -505.248)" fill="#e6ca66"/>
        <path id="Trazado_117671" data-name="Trazado 117671" d="M2117.189,768.618h-34.1l7.061,24.848h33.813Z" transform="translate(-1671.722 -616.832)" fill="#2f2c60"/>
        <path id="Trazado_117672" data-name="Trazado 117672" d="M2114.538,768.618h-34.1l7.061,24.848h33.813Z" transform="translate(-1669.594 -616.832)" fill="#373481"/>
        <rect id="Rectángulo_36971" data-name="Rectángulo 36971" width="43.968" height="0.857" transform="translate(417.903 176.634)" fill="#2f2c60"/>
        <path id="Trazado_117673" data-name="Trazado 117673" d="M2170.883,824.518a2.637,2.637,0,0,0-1.931-2.412,1.459,1.459,0,0,0-1.931,1.45,2.638,2.638,0,0,0,1.931,2.412,1.459,1.459,0,0,0,1.931-1.45" transform="translate(-1739.08 -659.709)" fill="#cfd4ec"/>
        <path id="Trazado_117674" data-name="Trazado 117674" d="M1356.053,1292.9v-65.85a2.317,2.317,0,0,0-2.31-2.31h-5.828a2.317,2.317,0,0,0-2.31,2.31v65.85a27.229,27.229,0,0,0-20.8,18.783h52.041a27.229,27.229,0,0,0-20.8-18.783" transform="translate(-1063.187 -982.878)" fill="#d1872b"/>
        <path id="Trazado_117675" data-name="Trazado 117675" d="M754.7,788.566s.5-8.773-10.834-8.257-12.586,10.838-11.7,15.1,5.141,7.741,8.237,7.548a26.536,26.536,0,0,0,6.1-1.226Z" transform="translate(-587.396 -626.197)" fill="#2f2c60"/>
        <path id="Trazado_117676" data-name="Trazado 117676" d="M972.441,1138.507a6.9,6.9,0,0,0-8.63-.941l-14.828-4.786-3.032,5.161,16.627,3.191c1.3,1.241,3.916,1.474,6.286.642s1.815-.4,3.51-.952.068-2.316.068-2.316" transform="translate(-759.145 -909.08)" fill="#dfbd9f"/>
        <path id="Trazado_117677" data-name="Trazado 117677" d="M674.433,1146.32c0,.028-.007.058-.012.087a31.757,31.757,0,0,1-3.763,11.521c-3.722,6.275-10.781,13.261-27.706,15.544-.82.108-1.666.21-2.534.3q-2.368.243-4.983.362c-.222.01-.444.019-.668.024a82.038,82.038,0,0,1-16.576-2.483c-12.61-2.992-20.826-9.151-26.021-16.641a0,0,0,0,1,0,0,40.6,40.6,0,0,1-3.963-7.2,55.1,55.1,0,0,1-4.093-20.744,68.49,68.49,0,0,1,2.191-16.272,29.575,29.575,0,0,1,4.009-8.924,24.248,24.248,0,0,1,1.533-2.037,22.711,22.711,0,0,1,6.22-5.239c6.024-3.433,25.838-6.854,42.621,2,30.893,16.3,35.543,36.435,33.747,49.7" transform="translate(-468.761 -875.543)" fill="#aa3d0c"/>
        <path id="Trazado_117678" data-name="Trazado 117678" d="M732.926,1487.836H708.349V1450.3h-6.872v37.54H675.911a2.418,2.418,0,1,0,0,4.837h57.015a2.418,2.418,0,0,0,0-4.837" transform="translate(-540.492 -1163.893)" fill="#d1872b"/>
        <path id="Trazado_117679" data-name="Trazado 117679" d="M695,1355.842a31.778,31.778,0,0,1-3.764,11.521c-3.722,6.276-10.78,13.26-27.706,15.543q-1.152.154-2.37.281l-.018,0c-.047.006-.1.012-.146.016q-2.37.24-4.982.361c-.223.01-.444.018-.667.024a82.1,82.1,0,0,1-16.577-2.482c-.257-.061-.513-.122-.766-.187-.16-.04-.318-.079-.476-.123-.136-.034-.269-.069-.4-.1q-.622-.166-1.23-.344l-.31-.091c-.182-.054-.362-.109-.539-.164-.241-.073-.478-.148-.713-.225s-.47-.154-.7-.233c-.263-.089-.521-.18-.78-.271l-.472-.172c-.429-.158-.849-.32-1.266-.486-.109-.042-.217-.087-.326-.13l-.474-.2c-.02-.01-.039-.018-.059-.026-.207-.087-.415-.176-.618-.265q-.335-.148-.663-.3c-.186-.083-.369-.168-.551-.257l-.065-.029c-.2-.093-.389-.186-.581-.28-.172-.083-.34-.168-.507-.253-.042-.022-.083-.044-.124-.064-.17-.086-.338-.175-.505-.262-.239-.128-.478-.256-.715-.387q-.249-.137-.492-.276c-.19-.107-.375-.216-.561-.326s-.371-.219-.553-.332-.351-.215-.525-.326l-.409-.263c-.1-.061-.2-.126-.29-.19l-.375-.251q-.261-.178-.516-.356-.512-.359-1.005-.728c-.164-.121-.324-.245-.484-.368-.14-.107-.277-.215-.413-.322-.34-.272-.672-.545-1-.821-.14-.119-.278-.239-.417-.359-.115-.1-.227-.2-.34-.3s-.225-.2-.336-.306-.221-.2-.332-.308-.223-.211-.334-.318c-.14-.134-.28-.27-.417-.409-.115-.115-.229-.229-.341-.344q-.563-.575-1.092-1.167c-.091-.1-.178-.2-.265-.3l-.041-.047c-.162-.184-.32-.367-.476-.553-.217-.257-.43-.518-.638-.778-.085-.107-.17-.213-.253-.32-.219-.281-.432-.561-.642-.845-.1-.14-.205-.282-.308-.425s-.219-.308-.326-.462a40.622,40.622,0,0,1-2.992-5.885,156.847,156.847,0,0,1,37.255-6.509c.278-.012.559-.024.837-.033a105.763,105.763,0,0,1,13.946.389c11.385,1.112,23.21,2.349,33.208,3.417" transform="translate(-489.344 -1084.979)" fill="#b85223"/>
        <path id="Trazado_117680" data-name="Trazado 117680" d="M822.318,913.419l-14.489-1.282a65.669,65.669,0,0,0,1-14.54l10.393,3.163s-1.382,8.038,3.1,12.659" transform="translate(-648.3 -720.34)" fill="#dfbd9f"/>
        <path id="Trazado_117681" data-name="Trazado 117681" d="M820.876,851.453s-12.484,2.279-13.784-5.517-3.787-12.753,4.13-14.538,9.965.931,11.031,3.428,1.837,15.833-1.377,16.627" transform="translate(-646.569 -666.753)" fill="#e2b48c"/>
        <path id="Trazado_117682" data-name="Trazado 117682" d="M1224.125,1584.048l7.089,7.225,4.253-3.028-6.106-13.617Z" transform="translate(-982.386 -1263.672)" fill="#deadb2"/>
        <path id="Trazado_117683" data-name="Trazado 117683" d="M784.319,1264c-.743,1.556-10.545,19.191,5.727,23.892s57.046.72,57.046.72.88,13.838,5.483,20.321c7.393,10.411,26.207,29.677,26.207,29.677l3.436-.109s-22.813-60.4-28.117-64.252c-3.879-2.821-23.394-7.813-34.183-9.487-2.628-.407-18.532-.89-22.789-1.057-6.671-.262-12.4-.568-12.81.3" transform="translate(-626.541 -1013.932)" fill="#ddc4ad"/>
        <path id="Trazado_117684" data-name="Trazado 117684" d="M1265.38,1636.32l1.63,5.392h16.176s-4.138-7.272-17.805-5.392" transform="translate(-1015.494 -1312.932)" fill="#373484"/>
        <path id="Trazado_117685" data-name="Trazado 117685" d="M751.652,1264c-.743,1.556-10.545,19.191,5.726,23.892s54.3,2.655,54.3,2.655,3.621,11.9,8.225,18.386c7.393,10.411,26.207,29.677,26.207,29.677l7.291-.109s-26.668-60.4-31.971-64.252c-3.879-2.821-23.395-7.813-34.183-9.487-2.628-.407-18.533-.89-22.79-1.057-6.671-.262-12.4-.568-12.81.3" transform="translate(-600.325 -1013.932)" fill="#ddc4ad"/>
        <path id="Trazado_117686" data-name="Trazado 117686" d="M816.845,1263.862a59.108,59.108,0,0,0-6.269.094c-6.048.207-12.274,18.349-12.274,18.349-5.262.832-42.024-.772-56.6-5.09-3.476-1.03-5.69-2.214-5.915-3.555-.36-2.16.163-5.129,1.057-8.2a91,91,0,0,1,5.8-14.155,22.606,22.606,0,0,0,7.281,1.651,117.719,117.719,0,0,0,17.327-.006c17.151-2.015,48.9,10.175,49.586,10.908" transform="translate(-590.395 -1004.202)" fill="#039be5"/>
        <path id="Trazado_117687" data-name="Trazado 117687" d="M896.077,999.7l-.859,3.257-.37,1.4s-12.473-1.271-12.758-3.083c-.143-.91-2.425-8.121-4.658-15.067-2.21-6.874-4.374-13.489-4.374-13.489l-1.145-8.382s7.544,1.419,8.3,2.383c1.833,2.322,7.5,29.272,7.5,29.272.567.184,8.361,3.712,8.361,3.712" transform="translate(-699.729 -773.902)" fill="#039be5"/>
        <g id="Grupo_141500" data-name="Grupo 141500" transform="translate(177.18 201.238)" opacity="0.2">
          <g id="Grupo_141499" data-name="Grupo 141499">
            <g id="Grupo_141498" data-name="Grupo 141498" clip-path="url(#clip-path-9)">
              <path id="Trazado_117688" data-name="Trazado 117688" d="M915.517,1046.855l-.37,1.4s-12.473-1.271-12.758-3.083c-.143-.91-2.425-8.121-4.658-15.067l-.525-11.07s6.476,12.245,8.051,19.934c0,0-.238,3.644,1.575,4.225,1.291.414,6.056,2.5,8.684,3.663" transform="translate(-897.207 -1019.033)" fill="#373484"/>
            </g>
          </g>
        </g>
        <path id="Trazado_117689" data-name="Trazado 117689" d="M786.669,1013.1a37.73,37.73,0,0,0,3.027,8.837l-.095.012-31.891,4.122s.618-1.562,1.419-4c1.639-4.988,4.053-13.639,3.53-20.06-.236-2.88-.341-9.139-.846-16.582-.364-5.388-.939-11.4-1.924-17.192,0,0,4.462-3.121,7.884-3.924,5.7-1.339,12.569-.374,20.794,1.9,0,0,7.225,26.45-1.678,43.869a5.292,5.292,0,0,0-.22,3.017Z" transform="translate(-608.078 -773.389)" fill="#039be5"/>
        <path id="Trazado_117690" data-name="Trazado 117690" d="M793.282,821.894s-3.012-1.1-4.925.774.133,4.193.133,4.193Z" transform="translate(-632.018 -659.33)" fill="#c5541d"/>
        <path id="Trazado_117691" data-name="Trazado 117691" d="M795.86,836.637s4.967-1.072,4.773-6.1,4.963-6.861,9.788-6.188c0,0-.014-6.2-12.594-4.94s-1.967,17.233-1.967,17.233" transform="translate(-635.337 -657.454)" fill="#373484"/>
        <path id="Trazado_117692" data-name="Trazado 117692" d="M808.668,961.968s4.489,6.4,10.875,6.2c0,0,2.794-4.86,1.615-6.688s-12.49.484-12.49.484" transform="translate(-648.973 -771.047)" fill="#dfbd9f"/>
        <path id="Trazado_117693" data-name="Trazado 117693" d="M1085.65,1052.03h40.788l-8.445,29.721h-40.445Z" transform="translate(-864.755 -844.276)" fill="#373481"/>
        <path id="Trazado_117694" data-name="Trazado 117694" d="M1088.822,1052.03h40.788l-8.445,29.721H1080.72Z" transform="translate(-867.3 -844.276)" fill="#575b9f"/>
        <rect id="Rectángulo_36973" data-name="Rectángulo 36973" width="52.591" height="1.025" transform="translate(201.274 237.475)" fill="#373481"/>
        <path id="Trazado_117695" data-name="Trazado 117695" d="M1201.334,1118.893a3.154,3.154,0,0,1,2.31-2.885,1.745,1.745,0,0,1,2.31,1.734,3.155,3.155,0,0,1-2.31,2.885,1.745,1.745,0,0,1-2.31-1.734" transform="translate(-964.096 -895.563)" fill="#dadfef"/>
        <g id="Grupo_141503" data-name="Grupo 141503" transform="translate(168.788 239.706)" opacity="0.2">
          <g id="Grupo_141502" data-name="Grupo 141502">
            <g id="Grupo_141501" data-name="Grupo 141501" clip-path="url(#clip-path-10)">
              <path id="Trazado_117696" data-name="Trazado 117696" d="M867.542,1222.669l-.095.012c-3.524-.1-9.566-.178-12.734.387.29-.114,9.584-3.79,9.8-9.235a37.739,37.739,0,0,0,3.027,8.837" transform="translate(-854.713 -1213.832)" fill="#373484"/>
            </g>
          </g>
        </g>
        <g id="Grupo_141506" data-name="Grupo 141506" transform="translate(146.452 212.085)" opacity="0.2">
          <g id="Grupo_141505" data-name="Grupo 141505">
            <g id="Grupo_141504" data-name="Grupo 141504" clip-path="url(#clip-path-11)">
              <path id="Trazado_117697" data-name="Trazado 117697" d="M754.686,1125.772c-3.265-1.807-1.633-9.209.008-15.088,3.1-5.759,14.877-23.316,16.265-24.559,1.562-1.4,0-1.982,0-1.982-10.019-.628-15.659-10.18-15.659-10.18l-2.782,2.059.068.2a28.506,28.506,0,0,0-3.7-2.257c.505,7.443.61,13.7.846,16.582.509,6.251-1.765,14.613-3.4,19.654a114.711,114.711,0,0,0-4.731,12.99l1.33,2.777,3.528,8.974c14.573,4.318,51.335,5.922,56.6,5.09-3.743-11.484-43.481-11.548-48.378-14.258" transform="translate(-741.609 -1073.963)" fill="#373484"/>
            </g>
          </g>
        </g>
        <path id="Trazado_117698" data-name="Trazado 117698" d="M931.964,1165.394a6.9,6.9,0,0,0-8.63-.941l-14.828-4.785-3.032,5.161,16.627,3.191c1.3,1.241,3.916,1.474,6.285.642s1.815-.4,3.51-.952.069-2.316.069-2.316" transform="translate(-726.661 -930.657)" fill="#dfbd9f"/>
        <path id="Trazado_117699" data-name="Trazado 117699" d="M763.516,966.793s-9.526,2.157-11.075,6.93c-.719,2.216,9.419,30.449,12.9,32.514s19.712,5.039,19.712,5.039l.953-6.393s-10.988-4.8-11.891-6.237-10.6-31.851-10.6-31.851" transform="translate(-603.821 -775.872)" fill="#039be5"/>
        <path id="Trazado_117700" data-name="Trazado 117700" d="M902.215,1156.161l-1.931-.863-3.077,6.79,4.035.847Z" transform="translate(-720.028 -927.151)" fill="#e8cd66"/>
        <path id="Trazado_117701" data-name="Trazado 117701" d="M977.457,1139.869l-1.939-.876-2.2,5.269,2.91.261Z" transform="translate(-781.108 -914.066)" fill="#e8cd66"/>
        <path id="Trazado_117702" data-name="Trazado 117702" d="M642.95,1209.476c-.282.038-.567.075-.855.109q-.631.08-1.28.146c-.079.01-.156.018-.235.026l-.018,0c-1.116.158-2.607.328-3.624.373q-.687.033-1.386.04-.1,0-.2,0l-.591-.012a82.093,82.093,0,0,1-16.576-2.482c-.257-.061-.513-.123-.766-.188-.16-.039-.318-.079-.476-.122-.136-.033-.269-.069-.4-.1q-.622-.166-1.23-.344l-.31-.091c-.182-.053-.361-.108-.539-.164-.241-.073-.478-.148-.713-.225s-.47-.154-.7-.233c-.263-.089-.521-.18-.78-.271l-.472-.172c-.429-.158-.849-.32-1.266-.486-.109-.042-.217-.087-.326-.13l-.474-.2c-.02-.01-.039-.018-.059-.026-.207-.087-.415-.176-.618-.265-.223-.1-.444-.2-.664-.3-.186-.083-.369-.168-.551-.257l-.065-.03c-.2-.093-.389-.186-.581-.28-.172-.083-.34-.168-.507-.253-.042-.022-.083-.043-.125-.063-.17-.087-.338-.176-.505-.262-.239-.129-.478-.257-.715-.387-.166-.091-.33-.184-.492-.276-.189-.107-.375-.215-.561-.326s-.371-.219-.553-.332-.352-.215-.525-.326l-.409-.263c-.1-.061-.2-.126-.29-.189l-.375-.251q-.261-.178-.515-.356-.512-.359-1.005-.729c-.164-.12-.324-.245-.484-.367-.14-.106-.277-.215-.413-.322-.34-.273-.671-.545-1-.821-.14-.119-.278-.239-.417-.36-.115-.1-.227-.2-.34-.3s-.225-.2-.336-.306-.221-.2-.332-.308-.223-.212-.334-.318c-.14-.134-.281-.271-.417-.409-.115-.115-.229-.229-.342-.344q-.563-.574-1.092-1.167c-.091-.1-.178-.2-.265-.3l-.042-.047c-.162-.184-.32-.368-.476-.553-.217-.257-.43-.517-.638-.778-.085-.107-.17-.213-.253-.32-.219-.281-.432-.561-.642-.845-.1-.14-.205-.282-.308-.425s-.219-.308-.326-.462a40.592,40.592,0,0,1-3.963-7.2,55.123,55.123,0,0,1-4.094-20.743,68.5,68.5,0,0,1,2.192-16.272,29.539,29.539,0,0,1,4.009-8.924c.357-.531.735-1.048,1.138-1.55.128-.164.261-.326.395-.488,7.074,7.4,23.06,24.843,35.424,42.75,7.474,10.826,13.626,21.821,15.684,30.87" transform="translate(-468.76 -911.548)" fill="#d58b2a"/>
        <path id="Trazado_117703" data-name="Trazado 117703" d="M642.095,1211.567q-.631.08-1.28.146c-.077.006-.156.014-.235.026l-.018,0c-1.116.158-2.607.328-3.624.373q-.687.032-1.386.039-.1,0-.2,0l-.591-.012a82.086,82.086,0,0,1-16.576-2.482c-.257-.061-.513-.122-.766-.187-.16-.04-.318-.079-.476-.123-.136-.034-.269-.069-.4-.1q-.622-.166-1.23-.344c-.1-.03-.207-.061-.31-.091-.182-.054-.361-.109-.539-.164-.241-.073-.478-.148-.713-.225s-.47-.154-.7-.233c-.263-.089-.521-.18-.78-.271l-.472-.172c-.429-.158-.849-.32-1.266-.486-.109-.042-.217-.087-.326-.13l-.474-.2c-.02-.01-.039-.018-.059-.026-.207-.087-.415-.176-.618-.265q-.335-.148-.664-.3c-.186-.083-.369-.168-.551-.257l-.065-.03q-.293-.139-.581-.28c-.172-.083-.34-.168-.507-.253-.042-.022-.083-.043-.125-.063-.17-.087-.338-.176-.505-.263-.239-.128-.478-.257-.715-.387-.166-.091-.33-.184-.492-.277-.189-.107-.375-.215-.561-.326s-.371-.219-.553-.332-.352-.215-.525-.326l-.409-.263c-.1-.061-.2-.126-.29-.19l-.375-.251q-.261-.177-.515-.355-.512-.359-1.005-.729c-.164-.12-.324-.245-.484-.367-.14-.107-.277-.215-.413-.322-.34-.272-.671-.545-1-.822-.14-.118-.278-.239-.417-.359-.115-.1-.227-.2-.34-.3s-.225-.2-.336-.306-.221-.2-.332-.308-.223-.211-.334-.318c-.14-.134-.281-.27-.417-.409-.115-.114-.229-.229-.342-.344q-.563-.575-1.092-1.167c-.091-.1-.178-.2-.265-.3l-.042-.047c-.162-.184-.32-.368-.476-.553-.217-.257-.43-.517-.638-.778-.085-.107-.17-.213-.253-.32-.219-.281-.432-.561-.642-.845-.1-.14-.205-.282-.308-.425s-.219-.308-.326-.462a40.6,40.6,0,0,1-3.963-7.2,55.124,55.124,0,0,1-4.094-20.743A68.5,68.5,0,0,1,586.3,1148.8a29.543,29.543,0,0,1,4.009-8.924c.357-.531.735-1.049,1.138-1.55,7.293,7.66,22.878,24.758,34.981,42.3,7.465,10.816,13.61,21.906,15.666,30.945" transform="translate(-468.76 -913.53)" fill="#c75d1d"/>
        <path id="Trazado_117704" data-name="Trazado 117704" d="M1236.474,1636.32l1.63,5.392h16.175s-4.138-7.272-17.805-5.392" transform="translate(-992.296 -1312.932)" fill="#575ba5"/>
        <path id="Trazado_117705" data-name="Trazado 117705" d="M1165.116,1214.428H981.873a2.651,2.651,0,0,1-2.643-2.643v-1.443a2.651,2.651,0,0,1,2.643-2.643h183.243a2.651,2.651,0,0,1,2.643,2.643v1.443a2.651,2.651,0,0,1-2.643,2.643" transform="translate(-785.853 -969.204)" fill="#d1872b"/>
      </g>
    </g>
  </g>
</svg>
