<svg xmlns="http://www.w3.org/2000/svg" xmlns:xlink="http://www.w3.org/1999/xlink" width="1329" height="458" viewBox="0 0 1329 458">
  <defs>
    <clipPath id="clip-path">
      <rect id="Rectángulo_33876" data-name="Rectángulo 33876" width="1329" height="458" rx="26" transform="translate(180 2386)" fill="#1565c0"/>
    </clipPath>
    <linearGradient id="linear-gradient" x1="0.167" y1="0.9" x2="0.931" y2="-0.031" gradientUnits="objectBoundingBox">
      <stop offset="0" stop-color="#4dd0e1"/>
      <stop offset="1" stop-color="#0b3360"/>
    </linearGradient>
    <linearGradient id="linear-gradient-2" x1="0.756" y1="0.104" x2="0.09" y2="0.957" xlink:href="#linear-gradient"/>
    <linearGradient id="linear-gradient-3" x1="0.601" y1="0.408" x2="0.878" y2="-0.078" xlink:href="#linear-gradient"/>
  </defs>
  <g id="Grupo_141728" data-name="Grupo 141728" transform="translate(-135 -1927)">
    <rect id="Rectángulo_36169" data-name="Rectángulo 36169" width="1328" height="458" transform="translate(136 1927)" fill="#e7f8fa"/>
    <g id="Enmascarar_grupo_7" data-name="Enmascarar grupo 7" transform="translate(-45 -459)" opacity="0.338" clip-path="url(#clip-path)">
      <g id="Grupo_78293" data-name="Grupo 78293" transform="translate(855.218 2450.061)">
        <path id="Trazado_113147" data-name="Trazado 113147" d="M0,0H605.552V258.453H0Z" transform="translate(0 0)" fill="none"/>
      </g>
      <path id="Trazado_113352" data-name="Trazado 113352" d="M105.47,0H302.12L-476.133,457.4h-196.65Z" transform="translate(317.429 2325.321)" fill="#1565c0" opacity="0.064" style="mix-blend-mode: multiply;isolation: isolate"/>
      <path id="Trazado_113353" data-name="Trazado 113353" d="M-173.256,0H-47.035L-546.562,293.585H-672.783Z" transform="translate(423.758 2415.904)" fill="#1565c0" opacity="0.064" style="mix-blend-mode: multiply;isolation: isolate"/>
      <path id="Trazado_113354" data-name="Trazado 113354" d="M-299.174,0h94.4l-373.61,219.58h-94.4Z" transform="translate(1885.867 2672.93)" fill="#1565c0" opacity="0.064" style="mix-blend-mode: multiply;isolation: isolate"/>
      <path id="Trazado_113355" data-name="Trazado 113355" d="M-299.174,0h94.4l-373.61,219.58h-94.4Z" transform="translate(1906.689 2672.93)" fill="#1565c0" opacity="0.064" style="mix-blend-mode: multiply;isolation: isolate"/>
      <path id="Trazado_113356" data-name="Trazado 113356" d="M133.233,0H336.9L-469.118,473.716H-672.783Z" transform="translate(1292.333 2386)" opacity="0.064" fill="url(#linear-gradient)" style="mix-blend-mode: multiply;isolation: isolate"/>
      <path id="Trazado_113357" data-name="Trazado 113357" d="M118.2,0,515.829,8.834-275.157,473.716l-397.626-8.834Z" transform="translate(1058.293 2386)" opacity="0.064" fill="url(#linear-gradient-2)" style="mix-blend-mode: multiply;isolation: isolate"/>
      <path id="Trazado_113358" data-name="Trazado 113358" d="M-191.88,0,49.869,5.371l-480.9,282.639-241.749-5.371Z" transform="translate(890.401 2693.684)" opacity="0.064" fill="url(#linear-gradient-3)" style="mix-blend-mode: multiply;isolation: isolate"/>
    </g>
  </g>
</svg>
