<svg xmlns="http://www.w3.org/2000/svg" xmlns:xlink="http://www.w3.org/1999/xlink" width="208" height="208" viewBox="0 0 208 208">
  <defs>
    <filter id="Elipse_4811" x="0" y="0" width="208" height="208" filterUnits="userSpaceOnUse">
      <feOffset dy="3" input="SourceAlpha"/>
      <feGaussianBlur stdDeviation="3" result="blur"/>
      <feFlood flood-opacity="0.161"/>
      <feComposite operator="in" in2="blur"/>
      <feComposite in="SourceGraphic"/>
    </filter>
    <clipPath id="clip-path">
      <rect id="Rectángulo_37099" data-name="Rectángulo 37099" width="58.74" height="63.237" fill="#fff"/>
    </clipPath>
  </defs>
  <g id="Grupo_141678" data-name="Grupo 141678" transform="translate(-586.125 -5514)">
    <g transform="matrix(1, 0, 0, 1, 586.13, 5514)" filter="url(#Elipse_4811)">
      <circle id="Elipse_4811-2" data-name="Elipse 4811" cx="95" cy="95" r="95" transform="translate(9 6)" fill="#039be5"/>
    </g>
    <path id="Trazado_183777" data-name="Trazado 183777" d="M6.592-3.867,9.424-14.219h3.828L8.467,0H4.717L-.029-14.219h3.8ZM19.639,0a3.716,3.716,0,0,1-.312-.947A3.06,3.06,0,0,1,16.787.2a3.749,3.749,0,0,1-2.539-.9A2.875,2.875,0,0,1,13.2-2.979a2.955,2.955,0,0,1,1.27-2.6,6.468,6.468,0,0,1,3.691-.879H19.18v-.559q0-1.462-1.26-1.462a1.03,1.03,0,0,0-1.172,1.158H13.457a2.95,2.95,0,0,1,1.3-2.487,5.479,5.479,0,0,1,3.325-.956,4.8,4.8,0,0,1,3.193.986,3.429,3.429,0,0,1,1.2,2.705v4.678A4.79,4.79,0,0,0,22.93-.166V0ZM17.578-2.148A1.836,1.836,0,0,0,18.6-2.412a1.653,1.653,0,0,0,.581-.6V-4.7h-.957Q16.5-4.7,16.5-3.154a.942.942,0,0,0,.3.728A1.1,1.1,0,0,0,17.578-2.148ZM27.773,0h-3.3V-15h3.3Zm5.5,0h-3.3V-10.566h3.3Zm-3.5-13.3a1.482,1.482,0,0,1,.508-1.159,1.909,1.909,0,0,1,1.318-.452,1.909,1.909,0,0,1,1.318.452,1.482,1.482,0,0,1,.508,1.159,1.482,1.482,0,0,1-.508,1.159,1.909,1.909,0,0,1-1.318.452,1.909,1.909,0,0,1-1.318-.452A1.482,1.482,0,0,1,29.775-13.3Zm5.107,7.92A6.236,6.236,0,0,1,35.5-8.2a4.4,4.4,0,0,1,1.768-1.9,5.323,5.323,0,0,1,2.705-.664,4.858,4.858,0,0,1,3.74,1.47,5.64,5.64,0,0,1,1.367,4v.117a5.472,5.472,0,0,1-1.372,3.921A4.871,4.871,0,0,1,39.99.2a4.927,4.927,0,0,1-3.623-1.353,5.29,5.29,0,0,1-1.475-3.667Zm3.291.205a3.932,3.932,0,0,0,.459,2.148,1.529,1.529,0,0,0,1.357.684q1.758,0,1.8-2.705v-.332q0-2.842-1.816-2.842-1.65,0-1.787,2.451ZM52.061-2.969a.76.76,0,0,0-.439-.674,6.685,6.685,0,0,0-1.67-.527,7.615,7.615,0,0,1-2.031-.718A3.4,3.4,0,0,1,46.7-5.967a2.577,2.577,0,0,1-.42-1.455,2.92,2.92,0,0,1,1.2-2.4,4.948,4.948,0,0,1,3.145-.942,5.482,5.482,0,0,1,3.359.947,2.962,2.962,0,0,1,1.27,2.49h-3.3q0-1.27-1.338-1.27a1.326,1.326,0,0,0-.869.288.892.892,0,0,0-.352.718.819.819,0,0,0,.43.713,4.06,4.06,0,0,0,1.372.449,11.857,11.857,0,0,1,1.655.42,3.007,3.007,0,0,1,2.383,2.939A2.767,2.767,0,0,1,53.95-.713,5.632,5.632,0,0,1,50.625.2,5.747,5.747,0,0,1,48.2-.293a4.05,4.05,0,0,1-1.66-1.328,3.007,3.007,0,0,1-.6-1.768h3.076a1.272,1.272,0,0,0,.488,1.069,2.009,2.009,0,0,0,1.2.337,1.58,1.58,0,0,0,1.011-.273A.875.875,0,0,0,52.061-2.969ZM62.725,0a3.716,3.716,0,0,1-.312-.947A3.06,3.06,0,0,1,59.873.2a3.749,3.749,0,0,1-2.539-.9,2.875,2.875,0,0,1-1.045-2.271,2.955,2.955,0,0,1,1.27-2.6,6.468,6.468,0,0,1,3.691-.879h1.016v-.559q0-1.462-1.26-1.462a1.03,1.03,0,0,0-1.172,1.158H56.543a2.95,2.95,0,0,1,1.3-2.487,5.479,5.479,0,0,1,3.325-.956,4.8,4.8,0,0,1,3.193.986,3.429,3.429,0,0,1,1.2,2.705v4.678a4.79,4.79,0,0,0,.449,2.227V0ZM60.664-2.148a1.836,1.836,0,0,0,1.021-.264,1.653,1.653,0,0,0,.581-.6V-4.7h-.957q-1.719,0-1.719,1.543a.942.942,0,0,0,.3.728A1.1,1.1,0,0,0,60.664-2.148Z" transform="translate(657.125 5663.339)" fill="#fff"/>
    <g id="Grupo_141643" data-name="Grupo 141643" transform="translate(660.755 5555.776)">
      <g id="Grupo_141642" data-name="Grupo 141642" clip-path="url(#clip-path)">
        <path id="Trazado_183518" data-name="Trazado 183518" d="M53.349,34.679H5.517a2.517,2.517,0,1,0,0,5.035H53.349a2.517,2.517,0,1,0,0-5.035" transform="translate(2.035 23.523)" fill="#fff"/>
        <path id="Trazado_183519" data-name="Trazado 183519" d="M55.384,0H6.713A3.356,3.356,0,0,0,3.357,3.357V6.8A4.2,4.2,0,0,0,0,10.909V19.3a4.2,4.2,0,0,0,3.357,4.11v8.561A4.2,4.2,0,0,0,0,36.083V42.8a4.2,4.2,0,0,0,3.357,4.11v3.442a3.357,3.357,0,0,0,3.357,3.357H55.384a3.358,3.358,0,0,0,3.357-3.357V3.357A3.357,3.357,0,0,0,55.384,0M17.2,27.22v8.863a2.1,2.1,0,1,1-4.2,0V27.22a5.035,5.035,0,1,1,4.2,0m33.984,1.73H48.422a9.138,9.138,0,0,1-1.15,2.768l1.957,1.955a2.1,2.1,0,0,1-2.967,2.967l-1.955-1.957a9.156,9.156,0,0,1-2.768,1.15V38.6a2.1,2.1,0,0,1-4.2,0V35.833a9.138,9.138,0,0,1-2.768-1.15l-1.957,1.957a2.1,2.1,0,0,1-2.966-2.967l1.955-1.955a9.2,9.2,0,0,1-1.148-2.768H27.7a2.1,2.1,0,0,1,0-4.2h2.762a9.177,9.177,0,0,1,1.148-2.768l-1.955-1.955a2.1,2.1,0,0,1,2.966-2.967l1.957,1.957a9.138,9.138,0,0,1,2.768-1.15V15.108a2.1,2.1,0,0,1,4.2,0v2.764a9.138,9.138,0,0,1,2.768,1.15l1.955-1.957a2.1,2.1,0,0,1,2.967,2.967l-1.957,1.955a9.138,9.138,0,0,1,1.15,2.768h2.764a2.1,2.1,0,0,1,0,4.2M39.442,22.659a4.194,4.194,0,1,0,4.194,4.194,4.194,4.194,0,0,0-4.194-4.194" fill="#fff"/>
      </g>
    </g>
  </g>
</svg>
