<svg xmlns="http://www.w3.org/2000/svg" width="434" height="255" viewBox="0 0 434 255">
  <g id="Grupo_141751" data-name="Grupo 141751" transform="translate(-915 -2966)">
    <g id="Grupo_141659" data-name="Grupo 141659" transform="translate(732 -11417)">
      <rect id="Rectángulo_33770" data-name="Rectángulo 33770" width="4" height="25" transform="translate(183 14383)" fill="#ffa726"/>
      <path id="Trazado_183796" data-name="Trazado 183796" d="M4.462-3.739H2.292V0H1.066V-9.242h3.06a3.621,3.621,0,0,1,2.4.711A2.558,2.558,0,0,1,7.37-6.462a2.488,2.488,0,0,1-.467,1.5A2.785,2.785,0,0,1,5.6-4L7.776-.076V0H6.468Zm-2.171-1H4.164a2.112,2.112,0,0,0,1.444-.471,1.591,1.591,0,0,0,.536-1.259,1.676,1.676,0,0,0-.511-1.316,2.164,2.164,0,0,0-1.476-.464H2.292ZM11.743.127A3,3,0,0,1,9.471-.79a3.4,3.4,0,0,1-.876-2.453v-.216a4.121,4.121,0,0,1,.39-1.825,3.045,3.045,0,0,1,1.092-1.257A2.745,2.745,0,0,1,11.6-7a2.572,2.572,0,0,1,2.082.882,3.82,3.82,0,0,1,.743,2.526V-3.1H9.769a2.441,2.441,0,0,0,.594,1.641,1.866,1.866,0,0,0,1.444.625,2.045,2.045,0,0,0,1.054-.254,2.648,2.648,0,0,0,.755-.673l.717.559A2.884,2.884,0,0,1,11.743.127ZM11.6-6.03a1.566,1.566,0,0,0-1.193.517,2.515,2.515,0,0,0-.6,1.45h3.44v-.089a2.237,2.237,0,0,0-.482-1.387A1.475,1.475,0,0,0,11.6-6.03Zm9.985,2.672a4.113,4.113,0,0,1-.717,2.526,2.3,2.3,0,0,1-1.942.958,2.519,2.519,0,0,1-1.968-.793V2.641H15.78V-6.868h1.073l.057.762A2.419,2.419,0,0,1,18.9-7a2.342,2.342,0,0,1,1.958.933,4.157,4.157,0,0,1,.72,2.6Zm-1.174-.133a3.035,3.035,0,0,0-.5-1.834A1.6,1.6,0,0,0,18.554-6a1.726,1.726,0,0,0-1.6.946v3.282a1.73,1.73,0,0,0,1.612.939,1.587,1.587,0,0,0,1.343-.67A3.312,3.312,0,0,0,20.408-3.491Zm5.986-2.323a3.519,3.519,0,0,0-.578-.044,1.547,1.547,0,0,0-1.568.984V0H23.074V-6.868h1.143l.019.793A1.829,1.829,0,0,1,25.873-7a1.2,1.2,0,0,1,.521.089ZM30.2.127A3,3,0,0,1,27.93-.79a3.4,3.4,0,0,1-.876-2.453v-.216a4.121,4.121,0,0,1,.39-1.825,3.045,3.045,0,0,1,1.092-1.257A2.745,2.745,0,0,1,30.056-7a2.572,2.572,0,0,1,2.082.882,3.82,3.82,0,0,1,.743,2.526V-3.1H28.228a2.441,2.441,0,0,0,.594,1.641,1.866,1.866,0,0,0,1.444.625,2.045,2.045,0,0,0,1.054-.254,2.648,2.648,0,0,0,.755-.673l.717.559A2.884,2.884,0,0,1,30.2.127ZM30.056-6.03a1.566,1.566,0,0,0-1.193.517,2.515,2.515,0,0,0-.6,1.45h3.44v-.089a2.237,2.237,0,0,0-.482-1.387A1.475,1.475,0,0,0,30.056-6.03Zm8.182,4.208a.865.865,0,0,0-.359-.74,3.452,3.452,0,0,0-1.25-.454,5.912,5.912,0,0,1-1.416-.457,2.014,2.014,0,0,1-.774-.635,1.518,1.518,0,0,1-.251-.876A1.782,1.782,0,0,1,34.9-6.411,2.789,2.789,0,0,1,36.728-7a2.87,2.87,0,0,1,1.895.6,1.915,1.915,0,0,1,.727,1.542H38.168a1.06,1.06,0,0,0-.409-.832,1.534,1.534,0,0,0-1.031-.349,1.605,1.605,0,0,0-1,.279.879.879,0,0,0-.362.73.712.712,0,0,0,.336.641,4.139,4.139,0,0,0,1.216.413,6.334,6.334,0,0,1,1.425.47,2.079,2.079,0,0,1,.809.657,1.615,1.615,0,0,1,.263.936,1.758,1.758,0,0,1-.736,1.476,3.089,3.089,0,0,1-1.911.555,3.459,3.459,0,0,1-1.46-.292,2.375,2.375,0,0,1-.993-.816,1.966,1.966,0,0,1-.359-1.133h1.174a1.216,1.216,0,0,0,.473.936,1.835,1.835,0,0,0,1.165.346,1.894,1.894,0,0,0,1.07-.27A.829.829,0,0,0,38.238-1.822ZM43.792.127A3,3,0,0,1,41.52-.79a3.4,3.4,0,0,1-.876-2.453v-.216a4.121,4.121,0,0,1,.39-1.825,3.045,3.045,0,0,1,1.092-1.257A2.745,2.745,0,0,1,43.646-7a2.572,2.572,0,0,1,2.082.882,3.82,3.82,0,0,1,.743,2.526V-3.1H41.818a2.441,2.441,0,0,0,.594,1.641,1.866,1.866,0,0,0,1.444.625,2.045,2.045,0,0,0,1.054-.254,2.648,2.648,0,0,0,.755-.673l.717.559A2.884,2.884,0,0,1,43.792.127ZM43.646-6.03a1.566,1.566,0,0,0-1.193.517,2.515,2.515,0,0,0-.6,1.45H45.3v-.089a2.237,2.237,0,0,0-.482-1.387A1.475,1.475,0,0,0,43.646-6.03Zm5.294-.838L48.979-6A2.5,2.5,0,0,1,51.035-7q2.177,0,2.2,2.457V0H52.057V-4.545a1.581,1.581,0,0,0-.34-1.1A1.361,1.361,0,0,0,50.68-6a1.7,1.7,0,0,0-1,.3,2.069,2.069,0,0,0-.673.8V0H47.83V-6.868ZM56.6-8.531v1.663h1.282v.908H56.6V-1.7a.953.953,0,0,0,.171.62.721.721,0,0,0,.584.207,2.843,2.843,0,0,0,.559-.076V0a3.424,3.424,0,0,1-.9.126,1.462,1.462,0,0,1-1.187-.476,2.045,2.045,0,0,1-.4-1.352V-5.96h-1.25v-.908h1.25V-8.531ZM63.489,0a2.467,2.467,0,0,1-.165-.724,2.62,2.62,0,0,1-1.955.851A2.424,2.424,0,0,1,59.7-.448,1.859,1.859,0,0,1,59.052-1.9a1.942,1.942,0,0,1,.816-1.666,3.846,3.846,0,0,1,2.295-.594h1.143V-4.7a1.319,1.319,0,0,0-.368-.981,1.48,1.48,0,0,0-1.085-.365,1.712,1.712,0,0,0-1.054.317.935.935,0,0,0-.425.768H59.192a1.621,1.621,0,0,1,.365-.993,2.491,2.491,0,0,1,.99-.759A3.331,3.331,0,0,1,61.921-7a2.715,2.715,0,0,1,1.86.594,2.141,2.141,0,0,1,.7,1.635v3.161a3.865,3.865,0,0,0,.241,1.5V0ZM61.541-.9a2.064,2.064,0,0,0,1.047-.286,1.728,1.728,0,0,0,.717-.743V-3.333h-.92q-2.158,0-2.158,1.263a1.069,1.069,0,0,0,.368.863A1.415,1.415,0,0,0,61.541-.9Zm7.535.063a1.691,1.691,0,0,0,1.1-.381,1.34,1.34,0,0,0,.521-.952H71.8A2.13,2.13,0,0,1,71.4-1.041a2.676,2.676,0,0,1-1,.851,2.885,2.885,0,0,1-1.323.317,2.829,2.829,0,0,1-2.231-.936,3.729,3.729,0,0,1-.828-2.561v-.2a4.135,4.135,0,0,1,.368-1.784,2.8,2.8,0,0,1,1.057-1.212A3,3,0,0,1,69.069-7a2.755,2.755,0,0,1,1.92.692,2.473,2.473,0,0,1,.816,1.8H70.694a1.618,1.618,0,0,0-.5-1.095,1.57,1.57,0,0,0-1.12-.428,1.644,1.644,0,0,0-1.387.644,3.026,3.026,0,0,0-.492,1.863V-3.3a2.966,2.966,0,0,0,.489,1.828A1.651,1.651,0,0,0,69.075-.832ZM74.4,0H73.227V-6.868H74.4Zm-1.27-8.69a.7.7,0,0,1,.175-.482.655.655,0,0,1,.517-.2.666.666,0,0,1,.521.2.694.694,0,0,1,.178.482.671.671,0,0,1-.178.476.678.678,0,0,1-.521.19.667.667,0,0,1-.517-.19A.678.678,0,0,1,73.131-8.69ZM75.969-3.5a4.057,4.057,0,0,1,.4-1.815,2.96,2.96,0,0,1,1.1-1.244A3.007,3.007,0,0,1,79.085-7a2.9,2.9,0,0,1,2.269.971,3.736,3.736,0,0,1,.866,2.583v.083a4.092,4.092,0,0,1-.384,1.8,2.916,2.916,0,0,1-1.1,1.241A3.041,3.041,0,0,1,79.1.127a2.889,2.889,0,0,1-2.263-.971,3.718,3.718,0,0,1-.866-2.571Zm1.181.14a2.938,2.938,0,0,0,.53,1.834A1.7,1.7,0,0,0,79.1-.832a1.686,1.686,0,0,0,1.422-.7A3.213,3.213,0,0,0,81.047-3.5a2.933,2.933,0,0,0-.536-1.831,1.705,1.705,0,0,0-1.425-.7,1.686,1.686,0,0,0-1.4.692A3.189,3.189,0,0,0,77.149-3.358Zm2.469-6.379h1.422l-1.7,1.866-.946,0ZM84.8-6.868,84.843-6A2.5,2.5,0,0,1,86.9-7q2.177,0,2.2,2.457V0H87.921V-4.545a1.581,1.581,0,0,0-.34-1.1A1.361,1.361,0,0,0,86.544-6a1.7,1.7,0,0,0-1,.3,2.069,2.069,0,0,0-.673.8V0H83.694V-6.868Zm9,3.377a4.037,4.037,0,0,1,.743-2.555A2.375,2.375,0,0,1,96.516-7a2.363,2.363,0,0,1,1.961.889l.057-.762h1.073v6.7a2.794,2.794,0,0,1-.79,2.1,2.916,2.916,0,0,1-2.123.768,3.532,3.532,0,0,1-1.454-.317,2.5,2.5,0,0,1-1.085-.87l.609-.7a2.3,2.3,0,0,0,1.847.933,1.8,1.8,0,0,0,1.336-.482A1.844,1.844,0,0,0,98.427-.1v-.59A2.414,2.414,0,0,1,96.5.127a2.346,2.346,0,0,1-1.952-.971A4.244,4.244,0,0,1,93.806-3.491Zm1.181.133a3.08,3.08,0,0,0,.476,1.825A1.547,1.547,0,0,0,96.8-.87a1.72,1.72,0,0,0,1.631-1.009V-5.015A1.74,1.74,0,0,0,96.808-6a1.561,1.561,0,0,0-1.339.667A3.354,3.354,0,0,0,94.986-3.358ZM104.7-5.814a3.519,3.519,0,0,0-.578-.044,1.547,1.547,0,0,0-1.568.984V0h-1.174V-6.868h1.143l.019.793A1.829,1.829,0,0,1,104.178-7a1.2,1.2,0,0,1,.521.089ZM109.764,0a2.467,2.467,0,0,1-.165-.724,2.62,2.62,0,0,1-1.955.851,2.424,2.424,0,0,1-1.666-.574,1.859,1.859,0,0,1-.651-1.457,1.942,1.942,0,0,1,.816-1.666,3.846,3.846,0,0,1,2.295-.594h1.143V-4.7a1.319,1.319,0,0,0-.368-.981,1.48,1.48,0,0,0-1.085-.365,1.712,1.712,0,0,0-1.054.317.935.935,0,0,0-.425.768h-1.181a1.621,1.621,0,0,1,.365-.993,2.491,2.491,0,0,1,.99-.759A3.331,3.331,0,0,1,108.2-7a2.715,2.715,0,0,1,1.86.594,2.141,2.141,0,0,1,.7,1.635v3.161A3.865,3.865,0,0,0,111-.1V0Zm-1.949-.9a2.064,2.064,0,0,0,1.047-.286,1.728,1.728,0,0,0,.717-.743V-3.333h-.92q-2.158,0-2.158,1.263a1.069,1.069,0,0,0,.368.863A1.415,1.415,0,0,0,107.815-.9ZM108.9-9.737h1.422l-1.7,1.866-.946,0ZM112.988,0V-5.96H111.9v-.908h1.085v-.584a2.386,2.386,0,0,1,.657-1.79,2.548,2.548,0,0,1,1.857-.641,5.591,5.591,0,0,1,1.8.387l-.2.99a4.069,4.069,0,0,0-1.511-.317,1.478,1.478,0,0,0-1.089.34,1.4,1.4,0,0,0-.333,1.019v.6h1.4v.908h-1.4V0Zm4.894,0H116.7V-6.868h1.181Zm4.666-.832a1.691,1.691,0,0,0,1.1-.381,1.34,1.34,0,0,0,.521-.952h1.111a2.13,2.13,0,0,1-.406,1.124,2.676,2.676,0,0,1-1,.851,2.885,2.885,0,0,1-1.323.317,2.829,2.829,0,0,1-2.231-.936,3.729,3.729,0,0,1-.828-2.561v-.2a4.135,4.135,0,0,1,.368-1.784,2.8,2.8,0,0,1,1.057-1.212A3,3,0,0,1,122.542-7a2.755,2.755,0,0,1,1.92.692,2.473,2.473,0,0,1,.816,1.8h-1.111a1.618,1.618,0,0,0-.5-1.095,1.57,1.57,0,0,0-1.12-.428,1.644,1.644,0,0,0-1.387.644,3.026,3.026,0,0,0-.492,1.863V-3.3a2.966,2.966,0,0,0,.489,1.828A1.651,1.651,0,0,0,122.548-.832Zm8.29.832a2.467,2.467,0,0,1-.165-.724,2.62,2.62,0,0,1-1.955.851,2.424,2.424,0,0,1-1.666-.574A1.859,1.859,0,0,1,126.4-1.9a1.942,1.942,0,0,1,.816-1.666,3.846,3.846,0,0,1,2.295-.594h1.143V-4.7a1.319,1.319,0,0,0-.368-.981,1.48,1.48,0,0,0-1.085-.365,1.712,1.712,0,0,0-1.054.317.935.935,0,0,0-.425.768h-1.181a1.621,1.621,0,0,1,.365-.993,2.491,2.491,0,0,1,.99-.759A3.331,3.331,0,0,1,129.27-7a2.715,2.715,0,0,1,1.86.594,2.141,2.141,0,0,1,.7,1.635v3.161a3.865,3.865,0,0,0,.241,1.5V0Zm-1.949-.9a2.064,2.064,0,0,0,1.047-.286,1.728,1.728,0,0,0,.717-.743V-3.333h-.92q-2.158,0-2.158,1.263a1.069,1.069,0,0,0,.368.863A1.415,1.415,0,0,0,128.889-.9Zm7.712-2.6a4.023,4.023,0,0,1,.749-2.542A2.369,2.369,0,0,1,139.312-7a2.382,2.382,0,0,1,1.911.825V-9.75H142.4V0h-1.079l-.057-.736A2.391,2.391,0,0,1,139.3.127a2.346,2.346,0,0,1-1.946-.978A4.069,4.069,0,0,1,136.6-3.4Zm1.174.133a3.046,3.046,0,0,0,.482,1.828,1.56,1.56,0,0,0,1.333.66,1.713,1.713,0,0,0,1.631-1V-5.027A1.726,1.726,0,0,0,139.6-6a1.567,1.567,0,0,0-1.346.667A3.354,3.354,0,0,0,137.776-3.358ZM147.069.127A3,3,0,0,1,144.8-.79a3.4,3.4,0,0,1-.876-2.453v-.216a4.121,4.121,0,0,1,.39-1.825A3.045,3.045,0,0,1,145.4-6.541,2.745,2.745,0,0,1,146.923-7,2.572,2.572,0,0,1,149-6.113a3.82,3.82,0,0,1,.743,2.526V-3.1h-4.653a2.441,2.441,0,0,0,.594,1.641,1.866,1.866,0,0,0,1.444.625,2.045,2.045,0,0,0,1.054-.254,2.647,2.647,0,0,0,.755-.673l.717.559A2.884,2.884,0,0,1,147.069.127Zm-.146-6.157a1.566,1.566,0,0,0-1.193.517,2.515,2.515,0,0,0-.6,1.45h3.44v-.089a2.237,2.237,0,0,0-.482-1.387A1.475,1.475,0,0,0,146.923-6.03ZM158.564-.679a2.494,2.494,0,0,1-2.012.806,2.135,2.135,0,0,1-1.673-.638A2.761,2.761,0,0,1,154.3-2.4V-6.868h1.174v4.437q0,1.562,1.27,1.562a1.758,1.758,0,0,0,1.79-1v-5h1.174V0H158.59ZM162.6-6.868,162.64-6A2.5,2.5,0,0,1,164.7-7q2.177,0,2.2,2.457V0h-1.174V-4.545a1.581,1.581,0,0,0-.34-1.1A1.361,1.361,0,0,0,164.341-6a1.7,1.7,0,0,0-1,.3,2.069,2.069,0,0,0-.673.8V0h-1.174V-6.868Zm10.391,0,.038.863A2.5,2.5,0,0,1,175.087-7q2.177,0,2.2,2.457V0h-1.174V-4.545a1.581,1.581,0,0,0-.34-1.1A1.361,1.361,0,0,0,174.732-6a1.7,1.7,0,0,0-1,.3,2.069,2.069,0,0,0-.673.8V0h-1.174V-6.868ZM178.744-3.5a4.057,4.057,0,0,1,.4-1.815,2.959,2.959,0,0,1,1.1-1.244A3.007,3.007,0,0,1,181.86-7a2.9,2.9,0,0,1,2.269.971A3.736,3.736,0,0,1,185-3.44v.083a4.092,4.092,0,0,1-.384,1.8,2.916,2.916,0,0,1-1.1,1.241,3.041,3.041,0,0,1-1.641.444,2.889,2.889,0,0,1-2.263-.971,3.718,3.718,0,0,1-.866-2.571Zm1.181.14a2.938,2.938,0,0,0,.53,1.834,1.7,1.7,0,0,0,1.419.692,1.686,1.686,0,0,0,1.422-.7,3.213,3.213,0,0,0,.527-1.965,2.933,2.933,0,0,0-.536-1.831,1.705,1.705,0,0,0-1.425-.7,1.686,1.686,0,0,0-1.4.692A3.189,3.189,0,0,0,179.924-3.358Zm6.259-.133a4.023,4.023,0,0,1,.749-2.542A2.369,2.369,0,0,1,188.894-7a2.382,2.382,0,0,1,1.911.825V-9.75h1.174V0H190.9l-.057-.736a2.391,2.391,0,0,1-1.961.863,2.346,2.346,0,0,1-1.946-.978,4.069,4.069,0,0,1-.752-2.552Zm1.174.133a3.046,3.046,0,0,0,.482,1.828,1.56,1.56,0,0,0,1.333.66,1.713,1.713,0,0,0,1.631-1V-5.027A1.726,1.726,0,0,0,189.186-6a1.567,1.567,0,0,0-1.346.667A3.354,3.354,0,0,0,187.357-3.358Zm6.132-.14a4.057,4.057,0,0,1,.4-1.815,2.959,2.959,0,0,1,1.1-1.244A3.007,3.007,0,0,1,196.606-7a2.9,2.9,0,0,1,2.269.971,3.736,3.736,0,0,1,.866,2.583v.083a4.092,4.092,0,0,1-.384,1.8,2.916,2.916,0,0,1-1.1,1.241,3.041,3.041,0,0,1-1.641.444,2.889,2.889,0,0,1-2.263-.971,3.718,3.718,0,0,1-.866-2.571Zm1.181.14a2.938,2.938,0,0,0,.53,1.834,1.7,1.7,0,0,0,1.419.692,1.686,1.686,0,0,0,1.422-.7,3.213,3.213,0,0,0,.527-1.965,2.933,2.933,0,0,0-.536-1.831,1.705,1.705,0,0,0-1.425-.7,1.686,1.686,0,0,0-1.4.692A3.189,3.189,0,0,0,194.67-3.358ZM204.826,0V-5.96h-1.085v-.908h1.085v-.584a2.386,2.386,0,0,1,.657-1.79,2.548,2.548,0,0,1,1.857-.641,5.591,5.591,0,0,1,1.8.387l-.2.99a4.069,4.069,0,0,0-1.511-.317,1.478,1.478,0,0,0-1.089.34,1.4,1.4,0,0,0-.333,1.019v.6h1.4v.908h-1.4V0Zm4.894,0H208.54V-6.868h1.181Zm3.021-6.868L212.78-6A2.5,2.5,0,0,1,214.836-7q2.177,0,2.2,2.457V0h-1.174V-4.545a1.581,1.581,0,0,0-.34-1.1A1.361,1.361,0,0,0,214.481-6a1.7,1.7,0,0,0-1,.3,2.069,2.069,0,0,0-.673.8V0h-1.174V-6.868ZM223.044,0a2.467,2.467,0,0,1-.165-.724,2.62,2.62,0,0,1-1.955.851,2.424,2.424,0,0,1-1.666-.574,1.859,1.859,0,0,1-.651-1.457,1.942,1.942,0,0,1,.816-1.666,3.846,3.846,0,0,1,2.295-.594h1.143V-4.7a1.319,1.319,0,0,0-.368-.981,1.48,1.48,0,0,0-1.085-.365,1.712,1.712,0,0,0-1.054.317.935.935,0,0,0-.425.768h-1.181a1.621,1.621,0,0,1,.365-.993,2.491,2.491,0,0,1,.99-.759A3.331,3.331,0,0,1,221.476-7a2.715,2.715,0,0,1,1.86.594,2.141,2.141,0,0,1,.7,1.635v3.161a3.865,3.865,0,0,0,.241,1.5V0ZM221.1-.9a2.064,2.064,0,0,0,1.047-.286,1.728,1.728,0,0,0,.717-.743V-3.333h-.92q-2.158,0-2.158,1.263a1.069,1.069,0,0,0,.368.863A1.415,1.415,0,0,0,221.1-.9Zm6.056.9h-1.174V-9.75h1.174Z" transform="translate(198 14400)" fill="#12263f"/>
    </g>
    <g id="Grupo_141708" data-name="Grupo 141708">
      <rect id="Rectángulo_37119" data-name="Rectángulo 37119" width="434" height="210" transform="translate(915 3011)" fill="#fff"/>
      <g id="Rectángulo_37120" data-name="Rectángulo 37120" transform="translate(969 3088)" fill="none" stroke="#1d67bd" stroke-width="2">
        <rect width="178" height="64" rx="22" stroke="none"/>
        <rect x="1" y="1" width="176" height="62" rx="21" fill="none"/>
      </g>
      <path id="Trazado_183797" data-name="Trazado 183797" d="M13.457,15.279H7.5L6.162,19H4.229L9.658,4.781H11.3L16.738,19H14.814ZM8.066,13.746H12.9L10.479,7.1Zm14.541,3.975a2.6,2.6,0,0,0,1.689-.586,2.061,2.061,0,0,0,.8-1.465h1.709a3.276,3.276,0,0,1-.625,1.729,4.116,4.116,0,0,1-1.538,1.309,4.438,4.438,0,0,1-2.036.488,4.353,4.353,0,0,1-3.433-1.44,5.737,5.737,0,0,1-1.274-3.94v-.3a6.361,6.361,0,0,1,.566-2.744A4.314,4.314,0,0,1,20.093,8.9a4.619,4.619,0,0,1,2.5-.664A4.238,4.238,0,0,1,25.552,9.3a3.8,3.8,0,0,1,1.255,2.764H25.1a2.49,2.49,0,0,0-.776-1.685A2.415,2.415,0,0,0,22.6,9.723a2.529,2.529,0,0,0-2.134.991,4.655,4.655,0,0,0-.757,2.866v.342a4.562,4.562,0,0,0,.752,2.813A2.541,2.541,0,0,0,22.607,17.721ZM31.289,5.875V8.434h1.973v1.4H31.289v6.561a1.467,1.467,0,0,0,.264.953,1.11,1.11,0,0,0,.9.318,4.374,4.374,0,0,0,.859-.117V19a5.268,5.268,0,0,1-1.387.194,2.25,2.25,0,0,1-1.826-.732,3.147,3.147,0,0,1-.615-2.08V9.83H27.559v-1.4h1.924V5.875ZM37.334,19H35.527V8.434h1.807ZM35.381,5.631a1.078,1.078,0,0,1,.269-.742,1.008,1.008,0,0,1,.8-.3,1.024,1.024,0,0,1,.8.3,1.067,1.067,0,0,1,.273.742,1.032,1.032,0,0,1-.273.732,1.043,1.043,0,0,1-.8.293,1.026,1.026,0,0,1-.8-.293A1.043,1.043,0,0,1,35.381,5.631Zm8.33,10.918,2.617-8.115h1.846L44.385,19H43.008L39.18,8.434h1.846ZM51.875,19H50.068V8.434h1.807ZM49.922,5.631a1.078,1.078,0,0,1,.269-.742,1.008,1.008,0,0,1,.8-.3,1.024,1.024,0,0,1,.8.3,1.067,1.067,0,0,1,.273.742,1.032,1.032,0,0,1-.273.732,1.043,1.043,0,0,1-.8.293,1.026,1.026,0,0,1-.8-.293A1.043,1.043,0,0,1,49.922,5.631Zm4.4,8a6.19,6.19,0,0,1,1.152-3.911,3.921,3.921,0,0,1,5.957-.21V4h1.807V19h-1.66l-.088-1.133A3.679,3.679,0,0,1,58.477,19.2a3.609,3.609,0,0,1-2.993-1.5,6.26,6.26,0,0,1-1.157-3.926Zm1.807.205a4.687,4.687,0,0,0,.742,2.813,2.4,2.4,0,0,0,2.051,1.016,2.636,2.636,0,0,0,2.51-1.543V11.266a2.656,2.656,0,0,0-2.49-1.494,2.411,2.411,0,0,0-2.07,1.025A5.16,5.16,0,0,0,56.133,13.834ZM72.568,19a3.8,3.8,0,0,1-.254-1.113A4.031,4.031,0,0,1,69.307,19.2a3.73,3.73,0,0,1-2.563-.884,2.859,2.859,0,0,1-1-2.241A2.987,2.987,0,0,1,67,13.507a5.916,5.916,0,0,1,3.53-.913h1.758v-.83a2.029,2.029,0,0,0-.566-1.509,2.276,2.276,0,0,0-1.67-.562,2.634,2.634,0,0,0-1.621.488,1.439,1.439,0,0,0-.654,1.182H65.957a2.493,2.493,0,0,1,.562-1.528,3.832,3.832,0,0,1,1.523-1.167,5.125,5.125,0,0,1,2.114-.43,4.177,4.177,0,0,1,2.861.913,3.294,3.294,0,0,1,1.074,2.515v4.863a5.946,5.946,0,0,0,.371,2.314V19Zm-3-1.377a3.175,3.175,0,0,0,1.611-.439,2.658,2.658,0,0,0,1.1-1.143V13.873H70.869q-3.32,0-3.32,1.943a1.645,1.645,0,0,0,.566,1.328A2.177,2.177,0,0,0,69.57,17.623Zm6.914-3.994a6.19,6.19,0,0,1,1.152-3.911,3.921,3.921,0,0,1,5.957-.21V4H85.4V19H83.74l-.088-1.133A3.679,3.679,0,0,1,80.635,19.2a3.609,3.609,0,0,1-2.993-1.5,6.26,6.26,0,0,1-1.157-3.926Zm1.807.205a4.687,4.687,0,0,0,.742,2.813,2.4,2.4,0,0,0,2.051,1.016,2.636,2.636,0,0,0,2.51-1.543V11.266A2.656,2.656,0,0,0,81.1,9.771a2.411,2.411,0,0,0-2.07,1.025A5.16,5.16,0,0,0,78.291,13.834ZM104.365,19H102.48L95.322,8.043V19H93.438V4.781h1.885L102.5,15.787V4.781h1.865Z" transform="translate(1003 3107)" fill="#12263f"/>
      <line id="Línea_272" data-name="Línea 272" x2="46" transform="translate(1153 3119.5)" fill="none" stroke="#2fa69a" stroke-width="1"/>
      <path id="Polígono_40" data-name="Polígono 40" d="M8.5,0,17,14H0Z" transform="translate(1213 3111) rotate(90)" fill="#2fa69a"/>
      <circle id="Elipse_4870" data-name="Elipse 4870" cx="18" cy="18" r="18" transform="translate(1226 3102)" fill="#1565c0"/>
      <g id="Elipse_4871" data-name="Elipse 4871" transform="translate(1218 3090)" fill="none" stroke="#1d67bd" stroke-width="1">
        <circle cx="31" cy="31" r="31" stroke="none"/>
        <circle cx="31" cy="31" r="30.5" fill="none"/>
      </g>
    </g>
  </g>
</svg>
