<svg xmlns="http://www.w3.org/2000/svg" xmlns:xlink="http://www.w3.org/1999/xlink" width="628" height="398" viewBox="0 0 628 398">
  <defs>
    <filter id="Rectángulo_36778" x="0" y="0" width="313" height="156" filterUnits="userSpaceOnUse">
      <feOffset dy="3" input="SourceAlpha"/>
      <feGaussianBlur stdDeviation="3" result="blur"/>
      <feFlood flood-opacity="0.161"/>
      <feComposite operator="in" in2="blur"/>
      <feComposite in="SourceGraphic"/>
    </filter>
    <filter id="Rectángulo_36779" x="315" y="0" width="313" height="156" filterUnits="userSpaceOnUse">
      <feOffset dy="3" input="SourceAlpha"/>
      <feGaussianBlur stdDeviation="3" result="blur-2"/>
      <feFlood flood-opacity="0.161"/>
      <feComposite operator="in" in2="blur-2"/>
      <feComposite in="SourceGraphic"/>
    </filter>
    <clipPath id="clip-path">
      <rect id="Rectángulo_36783" data-name="Rectángulo 36783" width="69" height="69" fill="#fff"/>
    </clipPath>
    <clipPath id="clip-path-2">
      <rect id="Rectángulo_35918" data-name="Rectángulo 35918" width="64.925" height="64.779" fill="#fff"/>
    </clipPath>
    <filter id="Rectángulo_36781" x="0" y="242" width="313" height="156" filterUnits="userSpaceOnUse">
      <feOffset dy="3" input="SourceAlpha"/>
      <feGaussianBlur stdDeviation="3" result="blur-3"/>
      <feFlood flood-opacity="0.161"/>
      <feComposite operator="in" in2="blur-3"/>
      <feComposite in="SourceGraphic"/>
    </filter>
    <filter id="Rectángulo_36780" x="315" y="242" width="313" height="156" filterUnits="userSpaceOnUse">
      <feOffset dy="3" input="SourceAlpha"/>
      <feGaussianBlur stdDeviation="3" result="blur-4"/>
      <feFlood flood-opacity="0.161"/>
      <feComposite operator="in" in2="blur-4"/>
      <feComposite in="SourceGraphic"/>
    </filter>
    <clipPath id="clip-path-3">
      <path id="Rectángulo_37004" data-name="Rectángulo 37004" d="M2.679,0h54.06a2.68,2.68,0,0,1,2.68,2.68V18.235a2.679,2.679,0,0,1-2.679,2.679H2.679A2.679,2.679,0,0,1,0,18.235V2.679A2.679,2.679,0,0,1,2.679,0Z" fill="#fff"/>
    </clipPath>
    <clipPath id="clip-path-4">
      <path id="Rectángulo_37006" data-name="Rectángulo 37006" d="M2.68,0H26.911A2.679,2.679,0,0,1,29.59,2.679v9.912a2.679,2.679,0,0,1-2.679,2.679H2.68A2.68,2.68,0,0,1,0,12.59V2.68A2.68,2.68,0,0,1,2.68,0Z" fill="#fff"/>
    </clipPath>
    <clipPath id="clip-path-5">
      <path id="Rectángulo_37008" data-name="Rectángulo 37008" d="M2.68,0H26.911a2.68,2.68,0,0,1,2.68,2.68v9.911a2.679,2.679,0,0,1-2.679,2.679H2.68A2.68,2.68,0,0,1,0,12.59V2.68A2.68,2.68,0,0,1,2.68,0Z" fill="#fff"/>
    </clipPath>
    <clipPath id="clip-path-6">
      <path id="Trazado_183321" data-name="Trazado 183321" d="M33.322,25.756v5.517H15.578a1.95,1.95,0,0,0-1.951,1.951h0v7.468a1.952,1.952,0,1,0,3.9,0V35.175H53.014v5.518a1.951,1.951,0,1,0,3.9,0V33.225h0a1.951,1.951,0,0,0-1.951-1.951H37.222V25.756a1.95,1.95,0,1,0-3.9,0" transform="translate(-13.627 -23.804)" fill="#fff"/>
    </clipPath>
    <filter id="Rectángulo_36782" x="153" y="127" width="313" height="156" filterUnits="userSpaceOnUse">
      <feOffset dy="3" input="SourceAlpha"/>
      <feGaussianBlur stdDeviation="3" result="blur-5"/>
      <feFlood flood-opacity="0.161"/>
      <feComposite operator="in" in2="blur-5"/>
      <feComposite in="SourceGraphic"/>
    </filter>
    <clipPath id="clip-path-7">
      <path id="Trazado_183322" data-name="Trazado 183322" d="M23.64,37.582V9.1H65.174V37.582a1.127,1.127,0,0,1-1.126,1.126H24.766a1.127,1.127,0,0,1-1.126-1.126M24.766,0A2.469,2.469,0,0,0,22.3,2.467V37.582a2.468,2.468,0,0,0,2.466,2.466H64.048a2.468,2.468,0,0,0,2.466-2.466V2.467A2.469,2.469,0,0,0,64.048,0Z" fill="none"/>
    </clipPath>
    <linearGradient id="linear-gradient" x1="-0.504" y1="2.192" x2="-0.482" y2="2.192" gradientUnits="objectBoundingBox">
      <stop offset="0" stop-color="#252525"/>
      <stop offset="1" stop-color="#0c0c0c"/>
    </linearGradient>
    <clipPath id="clip-path-8">
      <path id="Trazado_183323" data-name="Trazado 183323" d="M31.64,85.33V70.449H57.173V85.33a1.126,1.126,0,0,1-1.125,1.126H32.766A1.127,1.127,0,0,1,31.64,85.33m1.126-23.981A2.47,2.47,0,0,0,30.3,63.816V85.33A2.47,2.47,0,0,0,32.766,87.8H56.048a2.469,2.469,0,0,0,2.466-2.467V63.816a2.469,2.469,0,0,0-2.466-2.467Z" fill="none"/>
    </clipPath>
    <linearGradient id="linear-gradient-2" x1="-1.074" y1="1" x2="-1.038" y2="1" xlink:href="#linear-gradient"/>
    <clipPath id="clip-path-9">
      <path id="Trazado_183324" data-name="Trazado 183324" d="M61.941,85.33V70.449H87.474V85.33a1.127,1.127,0,0,1-1.126,1.126H63.067a1.127,1.127,0,0,1-1.126-1.126m1.126-23.981A2.47,2.47,0,0,0,60.6,63.816V85.33A2.47,2.47,0,0,0,63.067,87.8H86.348a2.47,2.47,0,0,0,2.467-2.467V63.816a2.47,2.47,0,0,0-2.467-2.467Z" fill="none"/>
    </clipPath>
    <linearGradient id="linear-gradient-3" x1="-2.148" y1="1" x2="-2.112" y2="1" xlink:href="#linear-gradient"/>
    <clipPath id="clip-path-10">
      <path id="Trazado_183325" data-name="Trazado 183325" d="M1.34,85.33V70.449H26.874V85.33a1.127,1.127,0,0,1-1.126,1.126H2.467A1.128,1.128,0,0,1,1.34,85.33M2.467,61.349A2.469,2.469,0,0,0,0,63.816V85.33A2.469,2.469,0,0,0,2.467,87.8H25.748a2.47,2.47,0,0,0,2.467-2.467V63.816a2.47,2.47,0,0,0-2.467-2.467Z" fill="none"/>
    </clipPath>
    <linearGradient id="linear-gradient-4" x1="0" y1="1" x2="0.035" y2="1" xlink:href="#linear-gradient"/>
    <clipPath id="clip-path-11">
      <path id="Trazado_183326" data-name="Trazado 183326" d="M43.736,42.3V57.927l-1.181-1.181a.67.67,0,0,0-.948.948l2.327,2.326a.67.67,0,0,0,.947,0l2.326-2.326a.67.67,0,0,0-.948-.948l-1.182,1.181V42.3a.67.67,0,1,0-1.341,0" fill="none"/>
    </clipPath>
    <linearGradient id="linear-gradient-5" x1="-6.751" y1="2.484" x2="-6.588" y2="2.484" xlink:href="#linear-gradient"/>
    <clipPath id="clip-path-12">
      <path id="Trazado_183327" data-name="Trazado 183327" d="M39.476,41.829,24.467,56.837V55.165a.67.67,0,1,0-1.34,0v3.289a.673.673,0,0,0,.67.671h3.29a.67.67,0,1,0,0-1.341H25.416L40.424,42.777a.67.67,0,1,0-.948-.948" fill="none"/>
    </clipPath>
    <linearGradient id="linear-gradient-6" x1="-0.787" y1="2.01" x2="-0.747" y2="2.01" xlink:href="#linear-gradient"/>
    <clipPath id="clip-path-13">
      <path id="Trazado_183328" data-name="Trazado 183328" d="M48.39,41.829a.671.671,0,0,0,0,.947L63.4,57.785H61.727a.67.67,0,0,0,0,1.341h3.29a.673.673,0,0,0,.67-.671v-3.29a.67.67,0,0,0-1.341,0v1.671L49.339,41.829a.67.67,0,0,0-.949,0" fill="none"/>
    </clipPath>
    <linearGradient id="linear-gradient-7" x1="-1.796" y1="2.01" x2="-1.756" y2="2.01" xlink:href="#linear-gradient"/>
  </defs>
  <g id="Grupo_141687" data-name="Grupo 141687" transform="translate(-486 -5483)">
    <g transform="matrix(1, 0, 0, 1, 486, 5483)" filter="url(#Rectángulo_36778)">
      <rect id="Rectángulo_36778-2" data-name="Rectángulo 36778" width="295" height="138" rx="29" transform="translate(9 6)" fill="#039be5"/>
    </g>
    <g transform="matrix(1, 0, 0, 1, 486, 5483)" filter="url(#Rectángulo_36779)">
      <rect id="Rectángulo_36779-2" data-name="Rectángulo 36779" width="295" height="138" rx="29" transform="translate(324 6)" fill="#039be5"/>
    </g>
    <g id="Grupo_141417" data-name="Grupo 141417" transform="translate(857 5520)">
      <g id="Grupo_141416" data-name="Grupo 141416" clip-path="url(#clip-path)">
        <path id="Trazado_117221" data-name="Trazado 117221" d="M175.032,660.768c-14.189.627-28.45,1.067-42.6.265a26.237,26.237,0,0,0,32.472,1.309l20.5,20.5a4.136,4.136,0,0,0,5.849-5.85Z" transform="translate(-123.224 -614.809)" fill="#fff"/>
        <path id="Trazado_117222" data-name="Trazado 117222" d="M51.809,45.959l-4.276-4.274A26.275,26.275,0,1,0,9.211,46.224c14.148.8,28.409.362,42.6-.265M8.272,26.265a18,18,0,1,1,17.994,18,18.014,18.014,0,0,1-17.994-18" transform="translate(0 0)" fill="#fff"/>
        <path id="Trazado_117223" data-name="Trazado 117223" d="M298.909,344.369a10.213,10.213,0,0,1-14.261,9.372,1.879,1.879,0,1,0-1.494,3.447,13.969,13.969,0,0,0,19.514-12.819,1.879,1.879,0,0,0-3.758,0" transform="translate(-262.405 -318.669)" fill="#fff"/>
      </g>
    </g>
    <path id="Trazado_183766" data-name="Trazado 183766" d="M12.578,14.186a5.193,5.193,0,0,1-.8,2.622A4.833,4.833,0,0,1,9.722,18.57,7,7,0,0,1,6.7,19.2a5.584,5.584,0,0,1-4.414-1.826A7.54,7.54,0,0,1,.674,12.213v-.7A8.607,8.607,0,0,1,1.4,7.853,5.513,5.513,0,0,1,3.5,5.431,5.844,5.844,0,0,1,6.66,4.576a6.129,6.129,0,0,1,4.16,1.362,5.383,5.383,0,0,1,1.787,3.755H9.189a2.547,2.547,0,0,0-.654-1.865A2.691,2.691,0,0,0,6.66,7.262a2.048,2.048,0,0,0-1.875.957,6.151,6.151,0,0,0-.625,3.057v1.006a6.806,6.806,0,0,0,.571,3.252A2.091,2.091,0,0,0,6.7,16.51a2.632,2.632,0,0,0,1.807-.557,2.363,2.363,0,0,0,.664-1.768Zm1.055-.566a6.236,6.236,0,0,1,.615-2.817,4.4,4.4,0,0,1,1.768-1.9,5.323,5.323,0,0,1,2.705-.664,4.858,4.858,0,0,1,3.74,1.47,5.64,5.64,0,0,1,1.367,4v.117a5.472,5.472,0,0,1-1.372,3.921A4.871,4.871,0,0,1,18.74,19.2a4.927,4.927,0,0,1-3.623-1.353,5.29,5.29,0,0,1-1.475-3.667Zm3.291.205a3.932,3.932,0,0,0,.459,2.148,1.529,1.529,0,0,0,1.357.684q1.758,0,1.8-2.705v-.332q0-2.842-1.816-2.842-1.65,0-1.787,2.451ZM28.3,8.434l.107,1.24a3.583,3.583,0,0,1,3.018-1.436,3.015,3.015,0,0,1,2.466.986,4.7,4.7,0,0,1,.845,2.969V19h-3.3V12.33a1.783,1.783,0,0,0-.322-1.177,1.491,1.491,0,0,0-1.172-.376,1.569,1.569,0,0,0-1.436.762V19H25.215V8.434Zm13.789,7.6a.76.76,0,0,0-.439-.674,6.685,6.685,0,0,0-1.67-.527,7.615,7.615,0,0,1-2.031-.718,3.4,3.4,0,0,1-1.221-1.079,2.577,2.577,0,0,1-.42-1.455,2.92,2.92,0,0,1,1.2-2.4,4.948,4.948,0,0,1,3.145-.942,5.482,5.482,0,0,1,3.359.947,2.962,2.962,0,0,1,1.27,2.49h-3.3q0-1.27-1.338-1.27a1.326,1.326,0,0,0-.869.288.892.892,0,0,0-.352.718.819.819,0,0,0,.43.713,4.06,4.06,0,0,0,1.372.449,11.857,11.857,0,0,1,1.655.42,3.007,3.007,0,0,1,2.383,2.939,2.767,2.767,0,0,1-1.284,2.354,5.632,5.632,0,0,1-3.325.908,5.747,5.747,0,0,1-2.422-.488,4.05,4.05,0,0,1-1.66-1.328,3.007,3.007,0,0,1-.6-1.768h3.076a1.272,1.272,0,0,0,.488,1.069,2.009,2.009,0,0,0,1.2.337,1.58,1.58,0,0,0,1.011-.273A.875.875,0,0,0,42.09,16.031ZM50.635,5.807V8.434h1.738v2.285H50.635v4.834a1.234,1.234,0,0,0,.215.83,1.152,1.152,0,0,0,.85.234,4.828,4.828,0,0,0,.82-.059v2.354a6.074,6.074,0,0,1-1.855.283,3.448,3.448,0,0,1-2.51-.8,3.282,3.282,0,0,1-.811-2.432V10.719H46V8.434h1.348V5.807Zm9.424,5.605-1.084-.078a1.947,1.947,0,0,0-1.992.977V19H53.691V8.434h3.086l.107,1.357A2.548,2.548,0,0,1,59.2,8.238a3.209,3.209,0,0,1,.918.117Zm7.48,6.445A3.393,3.393,0,0,1,64.717,19.2a3.328,3.328,0,0,1-2.632-1.011,4.251,4.251,0,0,1-.894-2.905V8.434h3.291V15.3A1.183,1.183,0,0,0,65.8,16.656a1.72,1.72,0,0,0,1.611-.811V8.434h3.311V19H67.637ZM76,19H72.7V8.434H76ZM72.5,5.7a1.482,1.482,0,0,1,.508-1.159,2.149,2.149,0,0,1,2.637,0A1.482,1.482,0,0,1,76.152,5.7a1.482,1.482,0,0,1-.508,1.159,2.149,2.149,0,0,1-2.637,0A1.482,1.482,0,0,1,72.5,5.7Zm11.914,5.713-1.084-.078a1.947,1.947,0,0,0-1.992.977V19H78.047V8.434h3.086l.107,1.357a2.548,2.548,0,0,1,2.314-1.553,3.209,3.209,0,0,1,.918.117Z" transform="translate(636 5546)" fill="#fff"/>
    <path id="Trazado_183767" data-name="Trazado 183767" d="M6.592,15.133,9.424,4.781h3.828L8.467,19H4.717L-.029,4.781h3.8ZM17.607,19h-3.3V8.434h3.3Zm-3.5-13.3a1.482,1.482,0,0,1,.508-1.159,1.909,1.909,0,0,1,1.318-.452,1.909,1.909,0,0,1,1.318.452A1.482,1.482,0,0,1,17.764,5.7a1.482,1.482,0,0,1-.508,1.159,1.909,1.909,0,0,1-1.318.452,1.909,1.909,0,0,1-1.318-.452A1.482,1.482,0,0,1,14.111,5.7ZM25.166,16.031a.76.76,0,0,0-.439-.674,6.685,6.685,0,0,0-1.67-.527,7.615,7.615,0,0,1-2.031-.718A3.4,3.4,0,0,1,19.8,13.033a2.577,2.577,0,0,1-.42-1.455,2.92,2.92,0,0,1,1.2-2.4,4.948,4.948,0,0,1,3.145-.942,5.482,5.482,0,0,1,3.359.947,2.962,2.962,0,0,1,1.27,2.49h-3.3q0-1.27-1.338-1.27a1.326,1.326,0,0,0-.869.288.892.892,0,0,0-.352.718.819.819,0,0,0,.43.713,4.06,4.06,0,0,0,1.372.449,11.857,11.857,0,0,1,1.655.42,3.007,3.007,0,0,1,2.383,2.939,2.767,2.767,0,0,1-1.284,2.354,5.631,5.631,0,0,1-3.325.908,5.747,5.747,0,0,1-2.422-.488,4.05,4.05,0,0,1-1.66-1.328,3.007,3.007,0,0,1-.6-1.768h3.076a1.272,1.272,0,0,0,.488,1.069,2.009,2.009,0,0,0,1.2.337,1.58,1.58,0,0,0,1.011-.273A.875.875,0,0,0,25.166,16.031Zm11.006,1.826A3.393,3.393,0,0,1,33.35,19.2a3.328,3.328,0,0,1-2.632-1.011,4.251,4.251,0,0,1-.894-2.905V8.434h3.291V15.3a1.183,1.183,0,0,0,1.318,1.357,1.72,1.72,0,0,0,1.611-.811V8.434h3.311V19H36.27ZM47.109,19a3.716,3.716,0,0,1-.312-.947A3.06,3.06,0,0,1,44.258,19.2a3.749,3.749,0,0,1-2.539-.9,2.875,2.875,0,0,1-1.045-2.271,2.955,2.955,0,0,1,1.27-2.6,6.468,6.468,0,0,1,3.691-.879H46.65v-.559q0-1.462-1.26-1.462a1.03,1.03,0,0,0-1.172,1.158H40.928a2.95,2.95,0,0,1,1.3-2.487,5.479,5.479,0,0,1,3.325-.956,4.8,4.8,0,0,1,3.193.986,3.429,3.429,0,0,1,1.2,2.705v4.678a4.79,4.79,0,0,0,.449,2.227V19Zm-2.061-2.148a1.836,1.836,0,0,0,1.021-.264,1.653,1.653,0,0,0,.581-.6V14.3h-.957q-1.719,0-1.719,1.543a.942.942,0,0,0,.3.728A1.1,1.1,0,0,0,45.049,16.852ZM55.244,19h-3.3V4h3.3Zm5.5,0h-3.3V8.434h3.3Zm-3.5-13.3a1.482,1.482,0,0,1,.508-1.159,2.149,2.149,0,0,1,2.637,0A1.482,1.482,0,0,1,60.9,5.7a1.482,1.482,0,0,1-.508,1.159,2.149,2.149,0,0,1-2.637,0A1.482,1.482,0,0,1,57.246,5.7Zm9.4,10.762h4.814V19H62.49V17.164l4.688-6.191H62.7V8.434h8.662v1.777ZM79.014,19a3.716,3.716,0,0,1-.312-.947A3.06,3.06,0,0,1,76.162,19.2a3.749,3.749,0,0,1-2.539-.9,2.875,2.875,0,0,1-1.045-2.271,2.955,2.955,0,0,1,1.27-2.6,6.468,6.468,0,0,1,3.691-.879h1.016v-.559q0-1.462-1.26-1.462a1.03,1.03,0,0,0-1.172,1.158H72.832a2.95,2.95,0,0,1,1.3-2.487,5.479,5.479,0,0,1,3.325-.956,4.8,4.8,0,0,1,3.193.986,3.429,3.429,0,0,1,1.2,2.705v4.678a4.79,4.79,0,0,0,.449,2.227V19Zm-2.061-2.148a1.836,1.836,0,0,0,1.021-.264,1.653,1.653,0,0,0,.581-.6V14.3H77.6q-1.719,0-1.719,1.543a.942.942,0,0,0,.3.728A1.1,1.1,0,0,0,76.953,16.852Zm13.115-5.439-1.084-.078a1.947,1.947,0,0,0-1.992.977V19H83.7V8.434h3.086l.107,1.357a2.548,2.548,0,0,1,2.314-1.553,3.209,3.209,0,0,1,.918.117Z" transform="translate(943 5546)" fill="#fff"/>
    <g id="Grupo_141573" data-name="Grupo 141573" transform="translate(541.462 5532.92)">
      <g id="Grupo_141184" data-name="Grupo 141184" transform="translate(0 0)" clip-path="url(#clip-path-2)">
        <path id="Trazado_183058" data-name="Trazado 183058" d="M4.32,25.315a3.541,3.541,0,0,0-3.285,5.96c.013.012.032.015.048.033a.216.216,0,0,0-.019.011L7.737,37.99,18.249,27.479,4.327,25.265a.271.271,0,0,0-.007.05" transform="translate(0 -3.388)" fill="#fff"/>
        <path id="Trazado_183059" data-name="Trazado 183059" d="M47.365,67.119c.02.005.047,0,.067.009L45.321,53.8,34.858,64.267l6.407,6.408a.324.324,0,0,0,.042-.042,3.807,3.807,0,0,0,.268.337,3.547,3.547,0,0,0,5.791-3.85" transform="translate(-4.681 -7.225)" fill="#fff"/>
        <path id="Trazado_183060" data-name="Trazado 183060" d="M33.492,42.051l-2.919-2.918a2.533,2.533,0,0,0-3.592,0L21.609,44.5l-.814.815a2.535,2.535,0,0,0,0,3.593l2.919,2.919a2.533,2.533,0,0,0,3.589,0l6.186-6.186a2.536,2.536,0,0,0,0-3.59" transform="translate(-2.693 -5.155)" fill="#fff"/>
        <path id="Trazado_183061" data-name="Trazado 183061" d="M57.876,27.581l.03.03L65.488,4.857a3.359,3.359,0,0,0,.244-.75l0-.011a3.415,3.415,0,0,0-4.16-4l0-.006L61.53.1a4.067,4.067,0,0,0-.489.166L38.872,7.575a4.175,4.175,0,0,0-2.12,1.08L21.025,24.384,9.711,35.7,7.8,37.609A4.292,4.292,0,0,0,7.8,43.682l2.6,2.6-.654,1.278,8.276,8.276,1.28-.652,2.672,2.672a4.291,4.291,0,0,0,6.069,0l1.912-1.912L41.214,44.687,57,28.9a4.256,4.256,0,0,0,.877-1.321M26.286,47.463a3.662,3.662,0,0,1-5.176,0l-2.919-2.919a3.665,3.665,0,0,1,0-5.177L19,38.553l5.372-5.371a3.663,3.663,0,0,1,5.177,0L32.472,36.1a3.661,3.661,0,0,1,0,5.176ZM37.364,28.294a6.587,6.587,0,1,1,9.314-.005,6.583,6.583,0,0,1-9.314.005" transform="translate(-0.879 0)" fill="#fff"/>
      </g>
    </g>
    <g transform="matrix(1, 0, 0, 1, 486, 5483)" filter="url(#Rectángulo_36781)">
      <rect id="Rectángulo_36781-2" data-name="Rectángulo 36781" width="295" height="138" rx="29" transform="translate(9 248)" fill="#039be5"/>
    </g>
    <g transform="matrix(1, 0, 0, 1, 486, 5483)" filter="url(#Rectángulo_36780)">
      <rect id="Rectángulo_36780-2" data-name="Rectángulo 36780" width="295" height="138" rx="29" transform="translate(324 248)" fill="#039be5"/>
    </g>
    <path id="Trazado_183769" data-name="Trazado 183769" d="M9.893,12.965H4.5v3.4h6.367V19H1.074V4.781h9.814V7.428H4.5v3H9.893Zm7.754,3.066a.76.76,0,0,0-.439-.674,6.685,6.685,0,0,0-1.67-.527,7.615,7.615,0,0,1-2.031-.718,3.4,3.4,0,0,1-1.221-1.079,2.577,2.577,0,0,1-.42-1.455,2.92,2.92,0,0,1,1.2-2.4,4.948,4.948,0,0,1,3.145-.942,5.482,5.482,0,0,1,3.359.947,2.962,2.962,0,0,1,1.27,2.49h-3.3q0-1.27-1.338-1.27a1.326,1.326,0,0,0-.869.288.892.892,0,0,0-.352.718.819.819,0,0,0,.43.713,4.06,4.06,0,0,0,1.372.449,11.857,11.857,0,0,1,1.655.42,3.007,3.007,0,0,1,2.383,2.939,2.767,2.767,0,0,1-1.284,2.354,5.631,5.631,0,0,1-3.325.908,5.747,5.747,0,0,1-2.422-.488,4.05,4.05,0,0,1-1.66-1.328,3.007,3.007,0,0,1-.6-1.768h3.076a1.272,1.272,0,0,0,.488,1.069,2.009,2.009,0,0,0,1.2.337,1.58,1.58,0,0,0,1.011-.273A.875.875,0,0,0,17.646,16.031Zm14.521-2.236a6.372,6.372,0,0,1-1.108,3.931,3.554,3.554,0,0,1-2.993,1.47,3.046,3.046,0,0,1-2.393-1.064v4.932H22.383V8.434h3.076l.1.977a3.046,3.046,0,0,1,2.49-1.172,3.582,3.582,0,0,1,3.037,1.44,6.45,6.45,0,0,1,1.084,3.96Zm-3.291-.205q0-2.812-1.641-2.812a1.549,1.549,0,0,0-1.562.84v4.16a1.6,1.6,0,0,0,1.582.879q1.572,0,1.621-2.715ZM38.73,19.2a5.432,5.432,0,0,1-3.936-1.45,5.008,5.008,0,0,1-1.5-3.774V13.7a6.489,6.489,0,0,1,.6-2.861,4.395,4.395,0,0,1,1.753-1.919,5.292,5.292,0,0,1,2.734-.679A4.574,4.574,0,0,1,41.895,9.62a5.43,5.43,0,0,1,1.289,3.853v1.279H36.641a2.372,2.372,0,0,0,.771,1.4,2.3,2.3,0,0,0,1.543.508A2.958,2.958,0,0,0,41.4,15.563l1.5,1.777a4.2,4.2,0,0,1-1.743,1.353A5.891,5.891,0,0,1,38.73,19.2Zm-.371-8.418q-1.445,0-1.719,1.914h3.32v-.254a1.63,1.63,0,0,0-.4-1.226A1.593,1.593,0,0,0,38.359,10.777Zm10.615,5.879a1.464,1.464,0,0,0,1.074-.376,1.379,1.379,0,0,0,.371-1.05h3.086a3.653,3.653,0,0,1-1.245,2.852A4.631,4.631,0,0,1,49.053,19.2,4.689,4.689,0,0,1,45.42,17.75a5.7,5.7,0,0,1-1.328-4v-.137a6.436,6.436,0,0,1,.591-2.827,4.3,4.3,0,0,1,1.7-1.885,5.081,5.081,0,0,1,2.637-.659,4.573,4.573,0,0,1,3.271,1.143,4.053,4.053,0,0,1,1.211,3.1H50.42a1.807,1.807,0,0,0-.4-1.26,1.382,1.382,0,0,0-1.074-.439q-1.279,0-1.494,1.631a11.507,11.507,0,0,0-.068,1.426,4.52,4.52,0,0,0,.381,2.207A1.319,1.319,0,0,0,48.975,16.656ZM58.369,19h-3.3V8.434h3.3Zm-3.5-13.3a1.482,1.482,0,0,1,.508-1.159,2.149,2.149,0,0,1,2.637,0A1.482,1.482,0,0,1,58.525,5.7a1.482,1.482,0,0,1-.508,1.159,2.149,2.149,0,0,1-2.637,0A1.482,1.482,0,0,1,54.873,5.7ZM61.162,19V10.719H59.629V8.434h1.533V8.082A4.034,4.034,0,0,1,62.549,4.85a5.541,5.541,0,0,1,3.6-1.055,12.787,12.787,0,0,1,3.438.566l-.449,2.6-.547-.146a8.7,8.7,0,0,0-2.246-.283q-1.885,0-1.885,1.719v.186h2.07v2.285h-2.07V19ZM71.1,19H67.793V8.434H71.1Zm6.475-2.344a1.464,1.464,0,0,0,1.074-.376,1.379,1.379,0,0,0,.371-1.05h3.086a3.653,3.653,0,0,1-1.245,2.852A4.631,4.631,0,0,1,77.656,19.2a4.689,4.689,0,0,1-3.633-1.445,5.7,5.7,0,0,1-1.328-4v-.137a6.436,6.436,0,0,1,.591-2.827A4.3,4.3,0,0,1,74.99,8.9a5.081,5.081,0,0,1,2.637-.659A4.573,4.573,0,0,1,80.9,9.381a4.053,4.053,0,0,1,1.211,3.1H79.023a1.806,1.806,0,0,0-.4-1.26,1.382,1.382,0,0,0-1.074-.439q-1.279,0-1.494,1.631a11.508,11.508,0,0,0-.068,1.426,4.52,4.52,0,0,0,.381,2.207A1.319,1.319,0,0,0,77.578,16.656ZM89.453,19a3.716,3.716,0,0,1-.312-.947A3.06,3.06,0,0,1,86.6,19.2a3.749,3.749,0,0,1-2.539-.9,2.875,2.875,0,0,1-1.045-2.271,2.955,2.955,0,0,1,1.27-2.6,6.468,6.468,0,0,1,3.691-.879h1.016v-.559q0-1.462-1.26-1.462a1.03,1.03,0,0,0-1.172,1.158H83.271a2.95,2.95,0,0,1,1.3-2.487A5.479,5.479,0,0,1,87.9,8.238a4.8,4.8,0,0,1,3.193.986,3.429,3.429,0,0,1,1.2,2.705v4.678a4.79,4.79,0,0,0,.449,2.227V19Zm-2.061-2.148a1.836,1.836,0,0,0,1.021-.264,1.653,1.653,0,0,0,.581-.6V14.3h-.957q-1.719,0-1.719,1.543a.942.942,0,0,0,.3.728A1.1,1.1,0,0,0,87.393,16.852Zm13.115-5.439-1.084-.078a1.947,1.947,0,0,0-1.992.977V19H94.141V8.434h3.086l.107,1.357a2.548,2.548,0,0,1,2.314-1.553,3.209,3.209,0,0,1,.918.117Z" transform="translate(620 5796)" fill="#fff"/>
    <path id="Trazado_183770" data-name="Trazado 183770" d="M1.074,19V4.781h4.58a6.737,6.737,0,0,1,3.389.854,6.006,6.006,0,0,1,2.349,2.412,7.283,7.283,0,0,1,.854,3.491v.654a7.325,7.325,0,0,1-.825,3.5A6.032,6.032,0,0,1,9.1,18.116,6.589,6.589,0,0,1,5.752,19ZM4.5,7.428v8.936H5.693a2.666,2.666,0,0,0,2.266-1.05,5.145,5.145,0,0,0,.791-3.12v-.615a5.1,5.1,0,0,0-.791-3.105,2.713,2.713,0,0,0-2.3-1.045Zm8.936,6.191a6.236,6.236,0,0,1,.615-2.817A4.4,4.4,0,0,1,15.82,8.9a5.323,5.323,0,0,1,2.705-.664,4.858,4.858,0,0,1,3.74,1.47,5.64,5.64,0,0,1,1.367,4v.117a5.472,5.472,0,0,1-1.372,3.921,4.871,4.871,0,0,1-3.716,1.45,4.927,4.927,0,0,1-3.623-1.353,5.29,5.29,0,0,1-1.475-3.667Zm3.291.205a3.932,3.932,0,0,0,.459,2.148,1.529,1.529,0,0,0,1.357.684q1.758,0,1.8-2.705v-.332q0-2.842-1.816-2.842-1.65,0-1.787,2.451Zm12.822,2.832a1.464,1.464,0,0,0,1.074-.376A1.379,1.379,0,0,0,31,15.23h3.086a3.653,3.653,0,0,1-1.245,2.852A4.631,4.631,0,0,1,29.629,19.2,4.689,4.689,0,0,1,26,17.75a5.7,5.7,0,0,1-1.328-4v-.137a6.436,6.436,0,0,1,.591-2.827,4.3,4.3,0,0,1,1.7-1.885A5.081,5.081,0,0,1,29.6,8.238a4.573,4.573,0,0,1,3.271,1.143,4.053,4.053,0,0,1,1.211,3.1H31a1.807,1.807,0,0,0-.4-1.26,1.382,1.382,0,0,0-1.074-.439q-1.279,0-1.494,1.631a11.508,11.508,0,0,0-.068,1.426,4.52,4.52,0,0,0,.381,2.207A1.319,1.319,0,0,0,29.551,16.656Zm12.217,1.2A3.393,3.393,0,0,1,38.945,19.2a3.328,3.328,0,0,1-2.632-1.011,4.251,4.251,0,0,1-.894-2.905V8.434h3.291V15.3a1.183,1.183,0,0,0,1.318,1.357,1.72,1.72,0,0,0,1.611-.811V8.434h3.311V19H41.865Zm8.1-9.424.107,1.24a3.633,3.633,0,0,1,3.018-1.436A2.675,2.675,0,0,1,55.693,9.83,3.516,3.516,0,0,1,58.8,8.238q3.213,0,3.3,3.887V19H58.8V12.33a2.014,2.014,0,0,0-.273-1.182,1.164,1.164,0,0,0-1-.371,1.559,1.559,0,0,0-1.455.869l.01.137V19h-3.3V12.35a2.117,2.117,0,0,0-.264-1.2,1.161,1.161,0,0,0-1.006-.371,1.578,1.578,0,0,0-1.445.869V19H46.777V8.434ZM69.092,19.2a5.432,5.432,0,0,1-3.936-1.45,5.008,5.008,0,0,1-1.5-3.774V13.7a6.489,6.489,0,0,1,.6-2.861,4.395,4.395,0,0,1,1.753-1.919,5.292,5.292,0,0,1,2.734-.679A4.574,4.574,0,0,1,72.256,9.62a5.43,5.43,0,0,1,1.289,3.853v1.279H67a2.372,2.372,0,0,0,.771,1.4,2.3,2.3,0,0,0,1.543.508,2.958,2.958,0,0,0,2.441-1.094l1.5,1.777a4.2,4.2,0,0,1-1.743,1.353A5.891,5.891,0,0,1,69.092,19.2Zm-.371-8.418q-1.445,0-1.719,1.914h3.32v-.254a1.63,1.63,0,0,0-.4-1.226A1.593,1.593,0,0,0,68.721,10.777Zm9.17-2.344L78,9.674a3.583,3.583,0,0,1,3.018-1.436,3.015,3.015,0,0,1,2.466.986,4.7,4.7,0,0,1,.845,2.969V19h-3.3V12.33a1.783,1.783,0,0,0-.322-1.177,1.491,1.491,0,0,0-1.172-.376,1.569,1.569,0,0,0-1.436.762V19H74.8V8.434ZM89.98,5.807V8.434h1.738v2.285H89.98v4.834a1.234,1.234,0,0,0,.215.83,1.152,1.152,0,0,0,.85.234,4.828,4.828,0,0,0,.82-.059v2.354a6.074,6.074,0,0,1-1.855.283,3.448,3.448,0,0,1-2.51-.8,3.282,3.282,0,0,1-.811-2.432V10.719H85.342V8.434h1.348V5.807ZM98.965,19a3.716,3.716,0,0,1-.312-.947A3.06,3.06,0,0,1,96.113,19.2a3.749,3.749,0,0,1-2.539-.9,2.875,2.875,0,0,1-1.045-2.271,2.955,2.955,0,0,1,1.27-2.6,6.468,6.468,0,0,1,3.691-.879h1.016v-.559q0-1.462-1.26-1.462a1.03,1.03,0,0,0-1.172,1.158H92.783a2.95,2.95,0,0,1,1.3-2.487,5.479,5.479,0,0,1,3.325-.956,4.8,4.8,0,0,1,3.193.986,3.429,3.429,0,0,1,1.2,2.705v4.678a4.79,4.79,0,0,0,.449,2.227V19ZM96.9,16.852a1.836,1.836,0,0,0,1.021-.264,1.653,1.653,0,0,0,.581-.6V14.3h-.957q-1.719,0-1.719,1.543a.942.942,0,0,0,.3.728A1.1,1.1,0,0,0,96.9,16.852Zm13.115-5.439-1.084-.078a1.947,1.947,0,0,0-1.992.977V19h-3.291V8.434h3.086l.107,1.357a2.548,2.548,0,0,1,2.314-1.553,3.209,3.209,0,0,1,.918.117Z" transform="translate(943 5796)" fill="#fff"/>
    <g id="Grupo_141571" data-name="Grupo 141571" transform="translate(861.063 5781)">
      <path id="Trazado_118122" data-name="Trazado 118122" d="M0,0H60.875V64.934H0Z" transform="translate(0 0.001)" fill="#fff"/>
      <rect id="Rectángulo_36033" data-name="Rectángulo 36033" width="39.058" height="7.323" transform="translate(4.977 14.679)" fill="#039be5"/>
      <rect id="Rectángulo_36034" data-name="Rectángulo 36034" width="39.058" height="7.323" transform="translate(4.977 25.664)" fill="#039be5"/>
      <rect id="Rectángulo_36035" data-name="Rectángulo 36035" width="39.058" height="6.103" transform="translate(4.977 36.649)" fill="#039be5"/>
      <rect id="Rectángulo_36036" data-name="Rectángulo 36036" width="39.058" height="6.103" transform="translate(4.977 47.634)" fill="#039be5"/>
    </g>
    <g id="Grupo_141572" data-name="Grupo 141572" transform="translate(537.774 5774.766)">
      <g id="Grupo_141563" data-name="Grupo 141563" transform="translate(4.596 0)">
        <g id="Grupo_141562" data-name="Grupo 141562" clip-path="url(#clip-path-3)">
          <rect id="Rectángulo_37003" data-name="Rectángulo 37003" width="59.419" height="20.914" transform="translate(0)" fill="#fff"/>
        </g>
      </g>
      <g id="Grupo_141565" data-name="Grupo 141565" transform="translate(0 42.158)">
        <g id="Grupo_141564" data-name="Grupo 141564" clip-path="url(#clip-path-4)">
          <rect id="Rectángulo_37005" data-name="Rectángulo 37005" width="29.59" height="15.27" transform="translate(0 0)" fill="#fff"/>
        </g>
      </g>
      <g id="Grupo_141567" data-name="Grupo 141567" transform="translate(39.021 42.158)">
        <g id="Grupo_141566" data-name="Grupo 141566" clip-path="url(#clip-path-5)">
          <rect id="Rectángulo_37007" data-name="Rectángulo 37007" width="29.591" height="15.27" transform="translate(0 0)" fill="#fff"/>
        </g>
      </g>
      <g id="Grupo_141569" data-name="Grupo 141569" transform="translate(12.661 22.116)">
        <g id="Grupo_141568" data-name="Grupo 141568" clip-path="url(#clip-path-6)">
          <rect id="Rectángulo_37009" data-name="Rectángulo 37009" width="43.289" height="18.841" transform="translate(0 0)" fill="#fff"/>
        </g>
      </g>
    </g>
    <g transform="matrix(1, 0, 0, 1, 486, 5483)" filter="url(#Rectángulo_36782)">
      <rect id="Rectángulo_36782-2" data-name="Rectángulo 36782" width="295" height="138" rx="29" transform="translate(162 133)" fill="#ffa726"/>
    </g>
    <g id="Grupo_141588" data-name="Grupo 141588" transform="translate(707.438 5641.102)">
      <g id="Grupo_141575" data-name="Grupo 141575">
        <g id="Grupo_141574" data-name="Grupo 141574" clip-path="url(#clip-path-7)">
          <rect id="Rectángulo_37011" data-name="Rectángulo 37011" width="44.214" height="40.048" transform="translate(22.3 0)" fill="url(#linear-gradient)"/>
        </g>
      </g>
      <g id="Grupo_141577" data-name="Grupo 141577">
        <g id="Grupo_141576" data-name="Grupo 141576" clip-path="url(#clip-path-8)">
          <rect id="Rectángulo_37012" data-name="Rectángulo 37012" width="28.215" height="26.448" transform="translate(30.299 61.349)" fill="url(#linear-gradient-2)"/>
        </g>
      </g>
      <g id="Grupo_141579" data-name="Grupo 141579">
        <g id="Grupo_141578" data-name="Grupo 141578" clip-path="url(#clip-path-9)">
          <rect id="Rectángulo_37013" data-name="Rectángulo 37013" width="28.215" height="26.448" transform="translate(60.6 61.349)" fill="url(#linear-gradient-3)"/>
        </g>
      </g>
      <g id="Grupo_141581" data-name="Grupo 141581">
        <g id="Grupo_141580" data-name="Grupo 141580" clip-path="url(#clip-path-10)">
          <rect id="Rectángulo_37014" data-name="Rectángulo 37014" width="28.215" height="26.448" transform="translate(0 61.349)" fill="url(#linear-gradient-4)"/>
        </g>
      </g>
      <g id="Grupo_141583" data-name="Grupo 141583">
        <g id="Grupo_141582" data-name="Grupo 141582" clip-path="url(#clip-path-11)">
          <rect id="Rectángulo_37015" data-name="Rectángulo 37015" width="6.124" height="18.584" transform="translate(41.345 41.632)" fill="url(#linear-gradient-5)"/>
        </g>
      </g>
      <g id="Grupo_141585" data-name="Grupo 141585">
        <g id="Grupo_141584" data-name="Grupo 141584" clip-path="url(#clip-path-12)">
          <rect id="Rectángulo_37016" data-name="Rectángulo 37016" width="24.786" height="24.786" transform="translate(14.38 50.379) rotate(-45)" fill="url(#linear-gradient-6)"/>
        </g>
      </g>
      <g id="Grupo_141587" data-name="Grupo 141587">
        <g id="Grupo_141586" data-name="Grupo 141586" clip-path="url(#clip-path-13)">
          <rect id="Rectángulo_37017" data-name="Rectángulo 37017" width="24.786" height="24.786" transform="translate(39.382 50.379) rotate(-45)" fill="url(#linear-gradient-7)"/>
        </g>
      </g>
    </g>
    <path id="Trazado_183768" data-name="Trazado 183768" d="M14.672,5.938V17.105a6.419,6.419,0,0,1-.809,3.287,5.238,5.238,0,0,1-2.32,2.115,8.174,8.174,0,0,1-3.574.727,7.062,7.062,0,0,1-4.91-1.617,5.768,5.768,0,0,1-1.828-4.43V5.938H5.367V17.27q.07,2.8,2.6,2.8a2.518,2.518,0,0,0,1.934-.7,3.286,3.286,0,0,0,.656-2.285V5.938Zm7.969,0,3.809,11.871,3.8-11.871H35.66V23H31.535V19.016l.4-8.156L27.809,23H25.09L20.953,10.848l.4,8.168V23H17.238V5.938Zm19.746,13.9h7.16V23H38.273V5.938h4.113Z" transform="translate(806.938 5681.099)" fill="#12263f"/>
  </g>
</svg>
