<svg xmlns="http://www.w3.org/2000/svg" xmlns:xlink="http://www.w3.org/1999/xlink" width="440" height="240.803" viewBox="0 0 440 240.803">
  <defs>
    <linearGradient id="linear-gradient" x1="-78.476" y1="0.5" x2="-77.475" y2="0.5" gradientUnits="objectBoundingBox">
      <stop offset="0" stop-color="#ff928e"/>
      <stop offset="1" stop-color="#feb3b1"/>
    </linearGradient>
    <linearGradient id="linear-gradient-2" x1="-85.22" y1="0.5" x2="-84.22" y2="0.5" xlink:href="#linear-gradient"/>
  </defs>
  <g id="Grupo_79894" data-name="Grupo 79894" transform="translate(78 -76.464)">
    <g id="Grupo_79882" data-name="Grupo 79882" transform="translate(-41.671 130.809)">
      <g id="Grupo_79869" data-name="Grupo 79869" transform="translate(77.322 66.04)">
        <path id="Trazado_116537" data-name="Trazado 116537" d="M1953.772,778.741l-113.238-10.05a8.933,8.933,0,0,1-8.143-8.849l-.417-76.35a8.933,8.933,0,0,1,9.552-8.96l120.579,8.391a8.933,8.933,0,0,1,8.278,9.7l-6.923,78.008A8.933,8.933,0,0,1,1953.772,778.741Z" transform="translate(-1831.974 -674.511)" fill="#1565c0"/>
        <path id="Trazado_116538" data-name="Trazado 116538" d="M1851.29,714.368l-.749,65.922a5.525,5.525,0,0,0,4.978,5.56L1964.1,796.634a5.524,5.524,0,0,0,6.049-5.009l6.256-70.488a5.525,5.525,0,0,0-5.2-6l-114.089-6.218A5.525,5.525,0,0,0,1851.29,714.368Z" transform="translate(-1844.651 -697.995)" fill="#e8f0f1"/>
        <path id="Trazado_116539" data-name="Trazado 116539" d="M2012.625,907.69l61.451,3.606a1.119,1.119,0,0,1,1.049,1.216l-.087.987a1.119,1.119,0,0,1-1.2,1.017l-61.363-4.593a1.119,1.119,0,0,1-1.031-1.214h0A1.119,1.119,0,0,1,2012.625,907.69Z" transform="translate(-1954.512 -833.721)" fill="#1565c0"/>
        <path id="Trazado_116540" data-name="Trazado 116540" d="M2009.928,924.906l-.037.42a1.118,1.118,0,0,0,1.015,1.213l61.288,5.439a1.119,1.119,0,0,0,1.213-1.015l.038-.421a1.119,1.119,0,0,0-1.016-1.213l-61.289-5.439A1.119,1.119,0,0,0,2009.928,924.906Z" transform="translate(-1953.45 -844.781)" fill="#1565c0"/>
        <path id="Trazado_116541" data-name="Trazado 116541" d="M2067.078,947.432l-.017.185a1.119,1.119,0,0,0,1.016,1.213l42.686,3.788a1.119,1.119,0,0,0,1.214-1.016l.076-.868a1.119,1.119,0,0,0-1.033-1.215l-42.747-3.105A1.119,1.119,0,0,0,2067.078,947.432Z" transform="translate(-1992.486 -860.161)" fill="#1565c0"/>
      </g>
      <g id="Grupo_79870" data-name="Grupo 79870" transform="translate(39.097 29.743)">
        <path id="Trazado_116542" data-name="Trazado 116542" d="M1862,673.339l-133.637-2.72a10.5,10.5,0,0,1-10.26-9.728l-6.6-89.528a10.5,10.5,0,0,1,10.488-11.275l142.115.187a10.5,10.5,0,0,1,10.487,10.716l-1.874,92.062A10.5,10.5,0,0,1,1862,673.339Z" transform="translate(-1711.47 -560.087)" fill="#1565c0"/>
        <path id="Trazado_116543" data-name="Trazado 116543" d="M1737.955,602.545l4.4,77.389a6.5,6.5,0,0,0,6.285,6.124l128.235,3.954a6.5,6.5,0,0,0,6.695-6.36l1.693-83.186a6.5,6.5,0,0,0-6.584-6.627l-134.329,1.843A6.5,6.5,0,0,0,1737.955,602.545Z" transform="translate(-1729.546 -583.132)" fill="#e8f0f1"/>
        <path id="Trazado_116544" data-name="Trazado 116544" d="M1940.064,819.791l72.373-.691a1.316,1.316,0,0,1,1.328,1.342l-.024,1.165a1.316,1.316,0,0,1-1.324,1.288l-72.349-.474a1.315,1.315,0,0,1-1.307-1.342h0A1.316,1.316,0,0,1,1940.064,819.791Z" transform="translate(-1866.661 -736.938)" fill="#039be5"/>
        <path id="Rectángulo_34374" data-name="Rectángulo 34374" d="M1.564,0h0A1.564,1.564,0,0,1,3.127,1.564V73.411a1.563,1.563,0,0,1-1.563,1.563h0A1.564,1.564,0,0,1,0,73.411V1.564A1.564,1.564,0,0,1,1.564,0Z" transform="translate(71.94 92.019) rotate(-88.836)" fill="#039be5"/>
        <path id="Trazado_116545" data-name="Trazado 116545" d="M2007.154,863.533l0,.218a1.316,1.316,0,0,0,1.288,1.342l50.376,1.025a1.315,1.315,0,0,0,1.342-1.288l.021-1.024a1.315,1.315,0,0,0-1.309-1.342l-50.392-.219A1.316,1.316,0,0,0,2007.154,863.533Z" transform="translate(-1913.356 -766.397)" fill="#039be5"/>
      </g>
      <g id="Grupo_79881" data-name="Grupo 79881" transform="translate(0)">
        <path id="Trazado_116546" data-name="Trazado 116546" d="M1757.471,591.754H1609.214a11.649,11.649,0,0,1-11.6-10.556l-9.344-99.132a11.649,11.649,0,0,1,11.376-12.74l157.6-3a11.65,11.65,0,0,1,11.871,11.647V580.1A11.649,11.649,0,0,1,1757.471,591.754Z" transform="translate(-1588.22 -466.322)" fill="#12263f"/>
        <path id="Trazado_116547" data-name="Trazado 116547" d="M1618.211,516.177l6.626,85.721a7.206,7.206,0,0,0,7.108,6.649l142.294,1.491a7.2,7.2,0,0,0,7.28-7.2V510.546a7.2,7.2,0,0,0-7.45-7.2l-148.921,5.075A7.2,7.2,0,0,0,1618.211,516.177Z" transform="translate(-1608.682 -491.599)" fill="#e8f0f1"/>
        <path id="Trazado_116548" data-name="Trazado 116548" d="M1854.69,536.166l80.241-2.4a1.459,1.459,0,0,1,1.5,1.458v1.292a1.46,1.46,0,0,1-1.439,1.459l-80.241,1.108a1.459,1.459,0,0,1-1.479-1.459h0A1.459,1.459,0,0,1,1854.69,536.166Z" transform="translate(-1769.196 -512.372)" fill="#12263f"/>
        <path id="Rectángulo_34375" data-name="Rectángulo 34375" d="M1.734,0H81.425A1.734,1.734,0,0,1,83.16,1.734v0a1.734,1.734,0,0,1-1.734,1.734H1.734A1.734,1.734,0,0,1,0,1.734v0A1.734,1.734,0,0,1,1.734,0Z" transform="translate(84.079 30.521)" fill="#12263f"/>
        <g id="Grupo_79871" data-name="Grupo 79871" transform="translate(63.772 81.224)">
          <path id="Trazado_116549" data-name="Trazado 116549" d="M1789.967,745.293a.655.655,0,0,1-.655-.653l-.005-1.964a.655.655,0,0,1,.653-.656h0a.655.655,0,0,1,.655.653l0,1.964a.654.654,0,0,1-.653.657Zm-.017-6.547a.654.654,0,0,1-.654-.653l-.005-1.964a.654.654,0,0,1,.653-.657h0a.655.655,0,0,1,.655.653l.005,1.964a.655.655,0,0,1-.653.657Zm-.016-6.547a.655.655,0,0,1-.655-.653l0-1.964a.655.655,0,0,1,.653-.657h0a.656.656,0,0,1,.655.653l0,1.964a.655.655,0,0,1-.653.657Zm-.017-6.547a.656.656,0,0,1-.655-.653l0-1.964a.655.655,0,0,1,.653-.657h0a.654.654,0,0,1,.655.653l0,1.964a.654.654,0,0,1-.653.657Z" transform="translate(-1789.257 -722.379)" fill="#12263f"/>
        </g>
        <g id="Grupo_79872" data-name="Grupo 79872" transform="translate(96.708 72.812)">
          <path id="Trazado_116550" data-name="Trazado 116550" d="M1893.741,725.32a.655.655,0,0,1-.655-.655V722.7a.655.655,0,0,1,1.31,0v1.964A.655.655,0,0,1,1893.741,725.32Zm0-6.547a.655.655,0,0,1-.655-.655v-1.964a.655.655,0,0,1,1.31,0v1.964A.655.655,0,0,1,1893.741,718.773Zm0-6.547a.655.655,0,0,1-.655-.655v-1.964a.655.655,0,0,1,1.31,0v1.964A.655.655,0,0,1,1893.741,712.227Zm0-6.547a.655.655,0,0,1-.655-.655v-1.964a.655.655,0,0,1,1.31,0v1.964A.655.655,0,0,1,1893.741,705.68Zm0-6.547a.655.655,0,0,1-.655-.655v-1.964a.655.655,0,0,1,1.31,0v1.964A.655.655,0,0,1,1893.741,699.133Z" transform="translate(-1893.086 -695.86)" fill="#12263f"/>
        </g>
        <g id="Grupo_79873" data-name="Grupo 79873" transform="translate(120.531 65.939)">
          <path id="Trazado_116551" data-name="Trazado 116551" d="M1970.1,715.936a.655.655,0,0,1-.654-.635l-.036-1.172a.655.655,0,0,1,.634-.675.642.642,0,0,1,.675.634l.036,1.173a.655.655,0,0,1-.634.675Zm-.178-5.753a.655.655,0,0,1-.654-.634l-.061-1.963a.655.655,0,1,1,1.309-.041l.061,1.963a.656.656,0,0,1-.634.675Zm-.2-6.544a.654.654,0,0,1-.654-.634l-.061-1.963a.655.655,0,0,1,.634-.675.673.673,0,0,1,.675.634l.061,1.963a.655.655,0,0,1-.634.675Zm-.2-6.544a.654.654,0,0,1-.653-.634l-.061-1.963a.655.655,0,1,1,1.309-.041l.061,1.963a.655.655,0,0,1-.634.675Zm-.2-6.543a.655.655,0,0,1-.654-.634l-.061-1.963a.655.655,0,1,1,1.309-.041l.061,1.963a.655.655,0,0,1-.634.675Zm-.2-6.544a.654.654,0,0,1-.654-.634l-.062-1.963a.656.656,0,0,1,.634-.675.646.646,0,0,1,.674.634l.061,1.963a.655.655,0,0,1-.634.675Zm-.2-6.544a.654.654,0,0,1-.654-.634l-.061-1.963a.656.656,0,0,1,.634-.675.646.646,0,0,1,.674.634l.061,1.964a.655.655,0,0,1-.634.675Z" transform="translate(-1968.19 -674.193)" fill="#12263f"/>
        </g>
        <g id="Grupo_79874" data-name="Grupo 79874" transform="translate(145.624 48.371)">
          <path id="Trazado_116552" data-name="Trazado 116552" d="M2047.948,674.457a.654.654,0,0,1-.655-.655v-1.964a.655.655,0,1,1,1.309,0V673.8A.654.654,0,0,1,2047.948,674.457Zm0-6.547a.655.655,0,0,1-.655-.655v-1.964a.655.655,0,1,1,1.309,0v1.964A.654.654,0,0,1,2047.948,667.91Zm0-6.547a.654.654,0,0,1-.655-.655v-1.964a.655.655,0,0,1,1.309,0v1.964A.654.654,0,0,1,2047.948,661.363Zm0-6.547a.655.655,0,0,1-.655-.655V652.2a.655.655,0,0,1,1.309,0v1.964A.655.655,0,0,1,2047.948,654.817Zm0-6.547a.654.654,0,0,1-.655-.654v-1.964a.655.655,0,1,1,1.309,0v1.964A.654.654,0,0,1,2047.948,648.27Zm0-6.547a.654.654,0,0,1-.655-.655V639.1a.655.655,0,1,1,1.309,0v1.964A.654.654,0,0,1,2047.948,641.723Zm0-6.547a.655.655,0,0,1-.655-.655v-1.964a.655.655,0,1,1,1.309,0v1.964A.654.654,0,0,1,2047.948,635.177Zm0-6.547a.654.654,0,0,1-.655-.655v-1.964a.655.655,0,1,1,1.309,0v1.964A.654.654,0,0,1,2047.948,628.63Zm0-6.547a.654.654,0,0,1-.655-.655v-1.964a.655.655,0,1,1,1.309,0v1.964A.654.654,0,0,1,2047.948,622.083Z" transform="translate(-2047.294 -618.81)" fill="#12263f"/>
        </g>
        <g id="Grupo_79876" data-name="Grupo 79876" transform="translate(19.348 29.27)">
          <path id="Trazado_116553" data-name="Trazado 116553" d="M1663.98,643.774a.982.982,0,0,1-.977-.9l-6.711-79.258a.982.982,0,1,1,1.957-.166l6.711,79.258a.982.982,0,0,1-.9,1.062C1664.036,643.773,1664.008,643.774,1663.98,643.774Z" transform="translate(-1654.044 -561.298)" fill="#12263f"/>
          <g id="Grupo_79875" data-name="Grupo 79875">
            <path id="Trazado_116554" data-name="Trazado 116554" d="M1649.452,565.009l3.037-3.6,3.6,3.039-.238-2.817-3.6-3.037-3.037,3.6Z" transform="translate(-1649.213 -558.594)" fill="#12263f"/>
          </g>
        </g>
        <g id="Grupo_79878" data-name="Grupo 79878" transform="translate(23.211 103.698)">
          <path id="Trazado_116555" data-name="Trazado 116555" d="M1800.471,802.591h-138.1a.982.982,0,0,1,0-1.964h138.1a.982.982,0,1,1,0,1.964Z" transform="translate(-1661.392 -798.279)" fill="#12263f"/>
          <g id="Grupo_79877" data-name="Grupo 79877" transform="translate(135.167)">
            <path id="Trazado_116556" data-name="Trazado 116556" d="M2087.5,799.884l3.331-3.329-3.331-3.33h2.827l3.329,3.33-3.329,3.329Z" transform="translate(-2087.499 -793.225)" fill="#12263f"/>
          </g>
        </g>
        <g id="Grupo_79879" data-name="Grupo 79879" transform="translate(34.049 43.905)">
          <path id="Trazado_116557" data-name="Trazado 116557" d="M1696.538,646.064a.982.982,0,0,1-.128-1.956c.725-.1,73.029-10,112.611-39.183a.982.982,0,1,1,1.165,1.58c-39.989,29.487-112.786,39.453-113.517,39.55A.984.984,0,0,1,1696.538,646.064Z" transform="translate(-1695.557 -604.733)" fill="#12263f"/>
        </g>
        <g id="Grupo_79880" data-name="Grupo 79880" transform="translate(141.36 42.909)">
          <path id="Trazado_116558" data-name="Trazado 116558" d="M2040.889,608.793c-.026,0-.052,0-.078,0a.982.982,0,0,1-.9-1.055l.3-3.857-5.438-.323a.982.982,0,0,1-.922-1.038.972.972,0,0,1,1.039-.922l6.438.381a.981.981,0,0,1,.921,1.057l-.382,4.856A.982.982,0,0,1,2040.889,608.793Z" transform="translate(-2033.85 -601.591)" fill="#7d97f4" stroke="#12263f" stroke-width="1"/>
        </g>
      </g>
    </g>
    <g id="Grupo_79889" data-name="Grupo 79889" transform="translate(131.738 92.422)">
      <g id="Grupo_79883" data-name="Grupo 79883" transform="translate(103.312 130.811)">
        <rect id="Rectángulo_34376" data-name="Rectángulo 34376" width="6.051" height="65.433" transform="translate(31.268 15.581)" fill="#12263f"/>
        <path id="Trazado_116559" data-name="Trazado 116559" d="M1958.762,1477.777h-52.994v-3.017a.922.922,0,0,1,.922-.921h51.08a.993.993,0,0,1,.993.993Z" transform="translate(-1897.971 -1395.5)" fill="#12263f"/>
        <rect id="Rectángulo_34377" data-name="Rectángulo 34377" width="70.812" height="20.083" rx="10.042" fill="#745d60"/>
      </g>
      <g id="Grupo_79885" data-name="Grupo 79885" transform="translate(51.834)">
        <path id="Trazado_116560" data-name="Trazado 116560" d="M1856.639,1442s-17.277,12.453-14.278,20.821c0,0,18.9-8.156,21.188-14.581s-.386-9.263-.386-9.263Z" transform="translate(-1804.569 -1241.763)" fill="#12263f"/>
        <path id="Trazado_116561" data-name="Trazado 116561" d="M1877.617,1417.321l2.825,8.167a2.84,2.84,0,0,1-1.1,3.333,7.417,7.417,0,0,1-2.338.9,3.306,3.306,0,0,1-3.658-1.66l-3.379-6.364Z" transform="translate(-1822.951 -1227.525)" fill="url(#linear-gradient)"/>
        <path id="Trazado_116562" data-name="Trazado 116562" d="M1866.775,1202.634s-35.488,6.151-50.71,20.213,13.973,58.921,13.973,58.921,4.783-.03,10.58-5c0,0-17.311-33.737-2.392-43.575,16.772-11.061,36.1-13.552,36.1-13.552l-7.208-15.924Z" transform="translate(-1784.616 -1086.35)" fill="#12263f"/>
        <path id="Trazado_116563" data-name="Trazado 116563" d="M1839.837,1476.548c3.8-1.759,14.559-9.289,16.373-9.622s4.959,1.8,4.959,1.8a4.9,4.9,0,0,1-.053,3.776c-2.525,3.055-8.132,8.88-15.67,11.051-5.544,1.6-9.423.108-11.838-1.634A16.019,16.019,0,0,1,1839.837,1476.548Z" transform="translate(-1799.043 -1260.121)" fill="#727997"/>
        <path id="Trazado_116565" data-name="Trazado 116565" d="M1904.331,1450.857c-.043,1.047-2.183,4.637-3.434,6.652a3.261,3.261,0,0,1-2.763,1.545,8.378,8.378,0,0,1-2.282-.275,2.116,2.116,0,0,1-1.422-2.633l2.444-8.345Z" transform="translate(-1838.983 -1247.568)" fill="url(#linear-gradient-2)"/>
        <path id="Trazado_116566" data-name="Trazado 116566" d="M1955.3,1171.525s7.881,21.074,0,27.482-26.683,13.624-30.882,26.389-11.328,37.572-20.866,46.358c0,0-6.7-.649-9.209-3.32,0,0,5.432-37.033,9.015-46.536,3.1-8.229,7.674-20.107,16.435-26.746,2.508-1.9,2.071-4.911.908-7.834l-2.117-5.324Z" transform="translate(-1838.983 -1065.894)" fill="#12263f"/>
        <path id="Trazado_116567" data-name="Trazado 116567" d="M1831.731,1082.663c13.215.8,9.1-20.315,8.858-21.154l20.057,14.166s-1.062,11.29-17.737,17.212a20.722,20.722,0,0,1-11.484.831A18.25,18.25,0,0,0,1831.731,1082.663Z" transform="translate(-1797.608 -993.549)" fill="#039be5"/>
        <path id="Trazado_116568" data-name="Trazado 116568" d="M1741.236,1101.808c4.924-3.425,10.5,0,10.5,0,6.584,4.306,11.455,6.138,15.049,6.354a18.246,18.246,0,0,1-.306,11.055c-7.376-1.585-12.653-6.924-14.946-9.663a2.382,2.382,0,0,0-3.3-.36c-1.026.809-2.021,1.918-1.841,3.085.356,2.3-2.314,3.033-2.515,2.2s.913-5.782.913-5.782-5.341,5.37-7.425,7.434-4.706,0-4.706,0S1736.312,1105.234,1741.236,1101.808Z" transform="translate(-1732.665 -1019.048)" fill="#edbea1"/>
        <path id="Trazado_116569" data-name="Trazado 116569" d="M1904.235,964.558s-19.225-7.7-55,21.84c0,0-2.989,6.186.272,11.692s34.324,32.334,38.594,47.212c0,0,18.506,6.013,37.645-8.246C1925.743,1037.055,1924.054,995.649,1904.235,964.558Z" transform="translate(-1808.495 -929.201)" fill="#039be5"/>
        <path id="Trazado_116570" data-name="Trazado 116570" d="M1876.741,946.232l9.464,11.473a3.766,3.766,0,0,1,.5,4.049c-1.313,2.68-4.43,6.581-11.343,6.041a5.808,5.808,0,0,1-4.775-3.258l-6.618-13.68Z" transform="translate(-1819.006 -917.745)" fill="#edbea1"/>
        <path id="Trazado_116571" data-name="Trazado 116571" d="M2016.608,1015.43c2.231-9.089-20.374-29.353-20.374-29.353l5.49-19.784s48.814,32.5,36.374,58.628a19.03,19.03,0,0,1-6.9,8.125C2027.27,1022.466,2021.006,1017.614,2016.608,1015.43Z" transform="translate(-1905.983 -930.937)" fill="#039be5"/>
        <path id="Trazado_116572" data-name="Trazado 116572" d="M2015.627,1047.509a.534.534,0,0,0,.518-.407c2.282-9.293-19.6-29.041-20.537-29.878a.534.534,0,1,0-.714.8c.224.2,22.344,20.152,20.212,28.828a.535.535,0,0,0,.392.646A.567.567,0,0,0,2015.627,1047.509Z" transform="translate(-1904.986 -964.339)" fill="#1565c0"/>
        <path id="Trazado_116573" data-name="Trazado 116573" d="M1912.406,1106.69s26.8,10.406,33.345,2.579a4.4,4.4,0,0,0,.9-1.8c4.4,2.184,10.662,7.036,14.592,17.616-14.1,9.008-38.191-5.011-44.706-9.143a4.862,4.862,0,0,0-3.6-.661c-2.513.521-6.854,1.287-9.195.927-3.425-.528-8.345,11.554-13.9,7.827C1889.841,1124.038,1894.594,1103.037,1912.406,1106.69Z" transform="translate(-1836.021 -1022.978)" fill="#edbea1"/>
        <g id="Grupo_79884" data-name="Grupo 79884" transform="translate(31.303)">
          <path id="Trazado_116574" data-name="Trazado 116574" d="M1841.13,891.607c-.1.369,2.218,25.448,2.218,25.448l14.292-1.625,1.339-24.1S1842.723,885.432,1841.13,891.607Z" transform="translate(-1835.29 -879.972)" fill="#edbea1"/>
          <path id="Trazado_116575" data-name="Trazado 116575" d="M1844.048,879.394l.289,12.74a1.755,1.755,0,0,1-.055.481c-.249.969-1.349,4.239-4.626,2.91-2.974-1.206-5.706-2.263-7.715-1.882a1.779,1.779,0,0,0-1.441,1.912,76.873,76.873,0,0,0,1.955,11.782,1.775,1.775,0,0,0,2.028,1.279,57.349,57.349,0,0,0,12.845-3.681,1.78,1.78,0,0,0,1.037-1.5c.215-3.185.9-12.862,1.51-15.529.571-2.5,3.849-3.681,5.261-4.077a1.75,1.75,0,0,0,1.074-.866c.8-1.5,2.06-5.036-2.352-7.025a1.782,1.782,0,0,1-.87-2.414c.885-1.812,1.486-4.66-1.879-6.634-3.42-2.007-6.317-.384-7.939,1.015a1.781,1.781,0,0,1-2.285.019,1.409,1.409,0,0,0-1.6-.121,1.754,1.754,0,0,1-2.386-1.019,5.315,5.315,0,0,0-5.8-3.733c-6.367.384-7.834,7.232-6.632,11.471s8.083,3.43,11.673,1.753c2.73-1.274,5.87.72,7.219,1.749A1.766,1.766,0,0,1,1844.048,879.394Z" transform="translate(-1824.082 -863.039)" fill="#12263f"/>
          <path id="Trazado_116576" data-name="Trazado 116576" d="M1898.52,930.957s-1.779-7.476,1.053-8.948,6.642-.128,5.209,4.989C1903,933.362,1898.52,930.957,1898.52,930.957Z" transform="translate(-1872.668 -901.447)" fill="#edbea1"/>
        </g>
      </g>
      <g id="Grupo_79886" data-name="Grupo 79886" transform="translate(3.827 53.174)">
        <path id="Trazado_116577" data-name="Trazado 116577" d="M1802.57,1157.656c-.043,0-.086,0-.129,0l-56.235-.061a2.517,2.517,0,1,1,.006-5.034l56.235.062a2.517,2.517,0,0,1,.124,5.031Z" transform="translate(-1691.909 -1106.598)" fill="#12263f"/>
        <path id="Trazado_116578" data-name="Trazado 116578" d="M1596.21,1018.327h46.833a8.926,8.926,0,0,1,8.073,5.118l21.651,45.909h-58.2a5.425,5.425,0,0,1-5.045-3.431l-16.79-42.482A3.74,3.74,0,0,1,1596.21,1018.327Z" transform="translate(-1592.466 -1018.327)" fill="#12263f"/>
      </g>
      <g id="Grupo_79888" data-name="Grupo 79888" transform="translate(0 103.697)">
        <g id="Grupo_79887" data-name="Grupo 79887" transform="translate(12.801 5.03)">
          <path id="Trazado_116579" data-name="Trazado 116579" d="M1621.036,1296.683a2.428,2.428,0,0,1-.933-.187,2.26,2.26,0,0,1-1.237-3.006l49.56-111.541a2.394,2.394,0,0,1,3.1-1.2,2.261,2.261,0,0,1,1.237,3.006L1623.207,1295.3A2.367,2.367,0,0,1,1621.036,1296.683Z" transform="translate(-1618.673 -1180.565)" fill="#745d60"/>
          <path id="Trazado_116580" data-name="Trazado 116580" d="M1688.908,1296.682a2.368,2.368,0,0,1-2.172-1.385l-49.56-111.541a2.261,2.261,0,0,1,1.237-3.006,2.393,2.393,0,0,1,3.1,1.2l49.56,111.54a2.26,2.26,0,0,1-1.237,3.006A2.424,2.424,0,0,1,1688.908,1296.682Z" transform="translate(-1630.713 -1180.564)" fill="#745d60"/>
          <path id="Trazado_116581" data-name="Trazado 116581" d="M2069.061,1296.683a2.43,2.43,0,0,1-.933-.187,2.262,2.262,0,0,1-1.237-3.006l49.561-111.541a2.393,2.393,0,0,1,3.1-1.2,2.261,2.261,0,0,1,1.237,3.006L2071.233,1295.3A2.367,2.367,0,0,1,2069.061,1296.683Z" transform="translate(-1913.286 -1180.565)" fill="#745d60"/>
          <path id="Trazado_116582" data-name="Trazado 116582" d="M2136.932,1296.682a2.367,2.367,0,0,1-2.172-1.385L2085.2,1183.757a2.262,2.262,0,0,1,1.237-3.006,2.394,2.394,0,0,1,3.1,1.2l49.561,111.54a2.261,2.261,0,0,1-1.237,3.006A2.427,2.427,0,0,1,2136.932,1296.682Z" transform="translate(-1925.325 -1180.564)" fill="#745d60"/>
        </g>
        <path id="Trazado_116583" data-name="Trazado 116583" d="M1811.509,1168.846a2.72,2.72,0,0,0-.469-2.063,2.147,2.147,0,0,0-1.72-.907H1583.854a2.512,2.512,0,0,0-2.162,1.325,3.174,3.174,0,0,0-.168,2.753l2.443,5.92a3.421,3.421,0,0,0,3.106,2.224h220.7a2.685,2.685,0,0,0,2.543-2.349Z" transform="translate(-1581.288 -1165.875)" fill="#745d60"/>
      </g>
    </g>
    <path id="Trazado_116585" data-name="Trazado 116585" d="M14.376,0A14.376,14.376,0,1,1,0,14.376,14.376,14.376,0,0,1,14.376,0Z" transform="translate(-58.281 163.11)" fill="#039be5"/>
    <circle id="Elipse_4803" data-name="Elipse 4803" cx="6.656" cy="6.656" r="6.656" transform="translate(329.108 169.785)" fill="#26a69a"/>
    <circle id="Elipse_4804" data-name="Elipse 4804" cx="7.979" cy="7.979" r="7.979" transform="translate(-78 130.809)" fill="#1565c0"/>
    <path id="Trazado_116586" data-name="Trazado 116586" d="M7.979,0A7.979,7.979,0,1,1,0,7.979,7.979,7.979,0,0,1,7.979,0Z" transform="translate(284.066 76.464)" fill="#ffca28"/>
  </g>
</svg>
