<svg xmlns="http://www.w3.org/2000/svg" xmlns:xlink="http://www.w3.org/1999/xlink" width="1239" height="926" viewBox="0 0 1239 926">
  <defs>
    <clipPath id="clip-path">
      <path id="Trazado_183796" data-name="Trazado 183796" d="M0,0H1239V926H0Z" transform="translate(0.32)" fill="#fff" stroke="#707070" stroke-width="1"/>
    </clipPath>
  </defs>
  <g id="Enmascarar_grupo_25" data-name="Enmascarar grupo 25" transform="translate(-0.32)" clip-path="url(#clip-path)">
    <rect id="Rectángulo_37240" data-name="Rectángulo 37240" width="1995.024" height="10.684" transform="translate(-972.259 465.3)" fill="#e8e8e8"/>
    <path id="Trazado_183706" data-name="Trazado 183706" d="M1132.922,999.192a15.14,15.14,0,1,1-15.14,15.14,15.14,15.14,0,0,1,15.14-15.14" transform="translate(-1955.819 -542.774)" fill="#039be5"/>
    <path id="Trazado_183707" data-name="Trazado 183707" d="M1989.575,999.192a15.14,15.14,0,1,1-15.14,15.14,15.141,15.141,0,0,1,15.14-15.14" transform="translate(-2530.655 -542.774)" fill="#039be5"/>
    <path id="Trazado_183708" data-name="Trazado 183708" d="M2389.887,999.192a15.14,15.14,0,1,1-15.14,15.14,15.14,15.14,0,0,1,15.14-15.14" transform="translate(-2799.275 -542.774)" fill="#039be5"/>
    <path id="Trazado_183709" data-name="Trazado 183709" d="M2917.139,999.192a15.14,15.14,0,1,1-15.141,15.14,15.14,15.14,0,0,1,15.141-15.14" transform="translate(-3153.074 -542.774)" fill="#039be5"/>
    <path id="Trazado_183710" data-name="Trazado 183710" d="M3355.642,999.192a15.14,15.14,0,1,1-15.141,15.14,15.14,15.14,0,0,1,15.141-15.14" transform="translate(-3447.322 -542.774)" fill="#039be5"/>
    <path id="Trazado_183711" data-name="Trazado 183711" d="M3778,999.192a15.14,15.14,0,1,1-15.141,15.14A15.14,15.14,0,0,1,3778,999.192" transform="translate(-3730.736 -542.774)" fill="#039be5"/>
    <path id="Trazado_183712" data-name="Trazado 183712" d="M4232.3,999.192a15.14,15.14,0,1,1-15.14,15.14,15.14,15.14,0,0,1,15.14-15.14" transform="translate(-4035.579 -542.774)" fill="#039be5"/>
    <path id="Trazado_183713" data-name="Trazado 183713" d="M4669.5,999.192a15.14,15.14,0,1,1-15.14,15.14,15.14,15.14,0,0,1,15.14-15.14" transform="translate(-4328.957 -542.774)" fill="#039be5"/>
    <path id="Trazado_183714" data-name="Trazado 183714" d="M5075.438,999.192a15.14,15.14,0,1,1-15.141,15.14,15.142,15.142,0,0,1,15.141-15.14" transform="translate(-4601.348 -542.774)" fill="#039be5"/>
    <path id="Trazado_183715" data-name="Trazado 183715" d="M5520.02,999.192a15.14,15.14,0,1,1-15.142,15.14,15.139,15.139,0,0,1,15.142-15.14" transform="translate(-4899.673 -542.774)" fill="#039be5"/>
    <path id="Trazado_183716" data-name="Trazado 183716" d="M5992.891,999.192a15.14,15.14,0,1,1-15.141,15.14,15.14,15.14,0,0,1,15.141-15.14" transform="translate(-5216.982 -542.774)" fill="#039be5"/>
    <path id="Trazado_183717" data-name="Trazado 183717" d="M6398,999.192a15.14,15.14,0,1,1-15.14,15.14,15.14,15.14,0,0,1,15.14-15.14" transform="translate(-5488.822 -542.774)" fill="#039be5"/>
    <text id="_99" data-name="99" transform="translate(-119.246 107.16)" fill="#12263f" font-size="23" font-family="Roboto-Regular, Roboto"><tspan x="0" y="0">99</tspan></text>
    <path id="Trazado_183797" data-name="Trazado 183797" d="M11.612-6.974A9.5,9.5,0,0,1,10.366-1.55,4.433,4.433,0,0,1,6.469.225,4.466,4.466,0,0,1,2.594-1.51a9.019,9.019,0,0,1-1.3-5.183V-9.467a9.291,9.291,0,0,1,1.247-5.357,4.468,4.468,0,0,1,3.908-1.752,4.508,4.508,0,0,1,3.886,1.69,8.966,8.966,0,0,1,1.28,5.217ZM9.535-9.815a7.613,7.613,0,0,0-.741-3.846,2.551,2.551,0,0,0-2.347-1.207,2.518,2.518,0,0,0-2.325,1.2,7.433,7.433,0,0,0-.752,3.695v3.324a7.735,7.735,0,0,0,.769,3.914,2.546,2.546,0,0,0,2.33,1.263,2.511,2.511,0,0,0,2.285-1.19,7.455,7.455,0,0,0,.781-3.751ZM21.1,0H19.013V-13.847l-4.189,1.539V-14.2l5.952-2.235H21.1Z" transform="translate(36.179 107.16)" fill="#12263f"/>
    <path id="Trazado_183802" data-name="Trazado 183802" d="M11.612-6.974A9.5,9.5,0,0,1,10.366-1.55,4.433,4.433,0,0,1,6.469.225,4.466,4.466,0,0,1,2.594-1.51a9.019,9.019,0,0,1-1.3-5.183V-9.467a9.291,9.291,0,0,1,1.247-5.357,4.468,4.468,0,0,1,3.908-1.752,4.508,4.508,0,0,1,3.886,1.69,8.966,8.966,0,0,1,1.28,5.217ZM9.535-9.815a7.613,7.613,0,0,0-.741-3.846,2.551,2.551,0,0,0-2.347-1.207,2.518,2.518,0,0,0-2.325,1.2,7.433,7.433,0,0,0-.752,3.695v3.324a7.735,7.735,0,0,0,.769,3.914,2.546,2.546,0,0,0,2.33,1.263,2.511,2.511,0,0,0,2.285-1.19,7.455,7.455,0,0,0,.781-3.751ZM15.229-8.2l.831-8.153h8.378v1.92H17.823l-.494,4.458a5.277,5.277,0,0,1,2.729-.708A4.511,4.511,0,0,1,23.606-9.2,5.788,5.788,0,0,1,24.92-5.211,5.586,5.586,0,0,1,23.556-1.23,4.973,4.973,0,0,1,19.743.225a5.169,5.169,0,0,1-3.538-1.2A4.8,4.8,0,0,1,14.645-4.3H16.61a3.3,3.3,0,0,0,1,2.117,3.108,3.108,0,0,0,2.134.713,2.8,2.8,0,0,0,2.274-.988,4.131,4.131,0,0,0,.825-2.729,3.792,3.792,0,0,0-.893-2.634,3.037,3.037,0,0,0-2.375-.994,3.425,3.425,0,0,0-2.134.6l-.55.449Z" transform="translate(182.728 107.16)" fill="#12263f"/>
    <path id="Trazado_183804" data-name="Trazado 183804" d="M11.612-6.974A9.5,9.5,0,0,1,10.366-1.55,4.433,4.433,0,0,1,6.469.225,4.466,4.466,0,0,1,2.594-1.51a9.019,9.019,0,0,1-1.3-5.183V-9.467a9.291,9.291,0,0,1,1.247-5.357,4.468,4.468,0,0,1,3.908-1.752,4.508,4.508,0,0,1,3.886,1.69,8.966,8.966,0,0,1,1.28,5.217ZM9.535-9.815a7.613,7.613,0,0,0-.741-3.846,2.551,2.551,0,0,0-2.347-1.207,2.518,2.518,0,0,0-2.325,1.2,7.433,7.433,0,0,0-.752,3.695v3.324a7.735,7.735,0,0,0,.769,3.914,2.546,2.546,0,0,0,2.33,1.263,2.511,2.511,0,0,0,2.285-1.19,7.455,7.455,0,0,0,.781-3.751Zm12.893-6.547V-14.6h-.382a5.47,5.47,0,0,0-3.863,1.438A5.982,5.982,0,0,0,16.52-9.243a4.435,4.435,0,0,1,3.526-1.482,4.24,4.24,0,0,1,3.408,1.5,5.8,5.8,0,0,1,1.275,3.886,5.786,5.786,0,0,1-1.376,4.043A4.737,4.737,0,0,1,19.665.225a4.667,4.667,0,0,1-3.807-1.8A7.144,7.144,0,0,1,14.4-6.222v-.8q0-4.515,1.926-6.9a7.074,7.074,0,0,1,5.733-2.443ZM19.7-9a3.315,3.315,0,0,0-1.965.64A3.336,3.336,0,0,0,16.486-6.75v.764a5.364,5.364,0,0,0,.91,3.257,2.726,2.726,0,0,0,2.269,1.235,2.641,2.641,0,0,0,2.207-1.033,4.287,4.287,0,0,0,.8-2.707,4.289,4.289,0,0,0-.814-2.723A2.61,2.61,0,0,0,19.7-9Z" transform="translate(329.276 107.16)" fill="#12263f"/>
    <path id="Trazado_183805" data-name="Trazado 183805" d="M11.612-6.974A9.5,9.5,0,0,1,10.366-1.55,4.433,4.433,0,0,1,6.469.225,4.466,4.466,0,0,1,2.594-1.51a9.019,9.019,0,0,1-1.3-5.183V-9.467a9.291,9.291,0,0,1,1.247-5.357,4.468,4.468,0,0,1,3.908-1.752,4.508,4.508,0,0,1,3.886,1.69,8.966,8.966,0,0,1,1.28,5.217ZM9.535-9.815a7.613,7.613,0,0,0-.741-3.846,2.551,2.551,0,0,0-2.347-1.207,2.518,2.518,0,0,0-2.325,1.2,7.433,7.433,0,0,0-.752,3.695v3.324a7.735,7.735,0,0,0,.769,3.914,2.546,2.546,0,0,0,2.33,1.263,2.511,2.511,0,0,0,2.285-1.19,7.455,7.455,0,0,0,.781-3.751Zm12.7,2.628a5.083,5.083,0,0,1-1.555,1.247,4.22,4.22,0,0,1-1.982.472,4.357,4.357,0,0,1-2.465-.7,4.527,4.527,0,0,1-1.623-1.96,6.681,6.681,0,0,1-.573-2.791,6.807,6.807,0,0,1,.623-2.954,4.579,4.579,0,0,1,1.769-2.01,5.044,5.044,0,0,1,2.673-.7,4.566,4.566,0,0,1,3.824,1.814,7.911,7.911,0,0,1,1.4,4.947v.606q0,4.773-1.887,6.969A7.249,7.249,0,0,1,16.745.011h-.4V-1.752h.438a5.72,5.72,0,0,0,3.953-1.339A5.747,5.747,0,0,0,22.236-7.187Zm-3.2,0a3.208,3.208,0,0,0,1.926-.64,3.773,3.773,0,0,0,1.286-1.583v-.831a5.717,5.717,0,0,0-.887-3.324,2.647,2.647,0,0,0-2.246-1.28,2.668,2.668,0,0,0-2.2,1.05,4.332,4.332,0,0,0-.831,2.768,4.508,4.508,0,0,0,.8,2.757A2.542,2.542,0,0,0,19.036-7.187Z" transform="translate(460.041 107.16)" fill="#12263f"/>
    <path id="Trazado_183806" data-name="Trazado 183806" d="M8.187,0H6.1V-13.847L1.909-12.309V-14.2L7.861-16.43h.326Zm16.34-6.974A9.5,9.5,0,0,1,23.281-1.55a4.433,4.433,0,0,1-3.9,1.774A4.466,4.466,0,0,1,15.509-1.51a9.019,9.019,0,0,1-1.3-5.183V-9.467a9.291,9.291,0,0,1,1.247-5.357,4.468,4.468,0,0,1,3.908-1.752,4.508,4.508,0,0,1,3.886,1.69,8.966,8.966,0,0,1,1.28,5.217ZM22.45-9.815a7.613,7.613,0,0,0-.741-3.846,2.551,2.551,0,0,0-2.347-1.207,2.518,2.518,0,0,0-2.325,1.2,7.433,7.433,0,0,0-.752,3.695v3.324a7.735,7.735,0,0,0,.769,3.914,2.546,2.546,0,0,0,2.33,1.263,2.511,2.511,0,0,0,2.285-1.19,7.455,7.455,0,0,0,.781-3.751Z" transform="translate(606.59 107.16)" fill="#12263f"/>
    <path id="Trazado_183807" data-name="Trazado 183807" d="M8.187,0H6.1V-13.847L1.909-12.309V-14.2L7.861-16.43h.326ZM21.1,0H19.013V-13.847l-4.189,1.539V-14.2l5.952-2.235H21.1Z" transform="translate(762.33 107.16)" fill="#12263f"/>
    <path id="Trazado_183808" data-name="Trazado 183808" d="M8.187,0H6.1V-13.847L1.909-12.309V-14.2L7.861-16.43h.326Zm9.108-9.187h1.561a3.431,3.431,0,0,0,2.313-.775,2.589,2.589,0,0,0,.842-2.033,2.536,2.536,0,0,0-2.864-2.875A2.979,2.979,0,0,0,17-14.1a2.692,2.692,0,0,0-.8,2.038H14.117a4.171,4.171,0,0,1,1.421-3.229,5.175,5.175,0,0,1,3.611-1.286,5.114,5.114,0,0,1,3.627,1.224,4.422,4.422,0,0,1,1.314,3.4A3.589,3.589,0,0,1,23.4-9.883a4.17,4.17,0,0,1-1.881,1.494A4.018,4.018,0,0,1,23.6-6.974a3.93,3.93,0,0,1,.736,2.415A4.461,4.461,0,0,1,22.9-1.067,5.383,5.383,0,0,1,19.159.225a5.525,5.525,0,0,1-3.745-1.247,4.135,4.135,0,0,1-1.443-3.291H16.06A2.673,2.673,0,0,0,16.9-2.246a3.2,3.2,0,0,0,2.257.775,3.144,3.144,0,0,0,2.3-.786,3.03,3.03,0,0,0,.8-2.257,2.749,2.749,0,0,0-.876-2.19,3.817,3.817,0,0,0-2.527-.786H17.295Z" transform="translate(886.949 107.16)" fill="#12263f"/>
    <text id="Antes_del_95_" data-name="Antes del 95 " transform="translate(-1062.974 779.039)" fill="#12263f" font-size="22" font-family="Roboto-Regular, Roboto"><tspan x="0" y="0">Antes del 95 </tspan></text>
    <text id="Fragmentación" transform="translate(-1062.974 807.463)" fill="#12263f" font-size="22" font-family="Roboto-Regular, Roboto"><tspan x="0" y="0">Fragmentación</tspan></text>
    <text id="_95-" data-name="95-" transform="translate(-844.967 778.039)" fill="#12263f" font-size="21" font-family="Roboto-Regular, Roboto"><tspan x="0" y="0">95-</tspan></text>
    <text id="Unificación" transform="translate(-844.967 807.463)" fill="#12263f" font-size="22" font-family="Roboto-Regular, Roboto"><tspan x="0" y="0">Unificación</tspan></text>
    <text id="Ivan_Jacobson" data-name="Ivan Jacobson" transform="translate(-746.527 662.426)" fill="#12263f" font-size="22" font-family="Roboto-Bold, Roboto" font-weight="700"><tspan x="0" y="0">Ivan Jacobson</tspan></text>
    <text id="Experticia_de_socios" data-name="Experticia de socios" transform="translate(-550.714 662.426)" fill="#12263f" font-size="22" font-family="Roboto-Regular, Roboto"><tspan x="0" y="0">Experticia de socios</tspan></text>
    <text id="_98-" data-name="98-" transform="translate(-248.828 778.039)" fill="#12263f" font-size="21" font-family="Roboto-Regular, Roboto"><tspan x="0" y="0">98-</tspan></text>
    <text id="Estadarización" transform="translate(-373.288 807.463)" fill="#12263f" font-size="22" font-family="Roboto-Regular, Roboto"><tspan x="0" y="0">Estadarización</tspan></text>
    <text id="_99-" data-name="99-" transform="translate(-107.644 778.039)" fill="#12263f" font-size="21" font-family="Roboto-Regular, Roboto"><tspan x="0" y="0">99-</tspan></text>
    <text id="Industrialización" transform="translate(-204.463 807.463)" fill="#12263f" font-size="22" font-family="Roboto-Regular, Roboto"><tspan x="0" y="0">Industrialización</tspan></text>
    <path id="Trazado_183718" data-name="Trazado 183718" d="M6360.747,1249.761h-75.429a21.156,21.156,0,1,1,0-42.313h75.429a21.156,21.156,0,0,1,0,42.313" transform="translate(-5409.173 -682.52)" fill="#4dd0e1"/>
    <path id="Trazado_183812" data-name="Trazado 183812" d="M13.234-15.641v10.3a5.274,5.274,0,0,1-1.606,4.061A6.191,6.191,0,0,1,7.24.215,6.261,6.261,0,0,1,2.89-1.235,5.184,5.184,0,0,1,1.246-5.221v-10.42H4.469V-5.317A2.98,2.98,0,0,0,5.2-3.078a2.825,2.825,0,0,0,2.036.7q2.718,0,2.761-2.857V-15.641Zm6.854,0L24.105-4.3l4-11.344h4.232V0H29.1V-4.275l.322-7.38L25.2,0H22.988L18.777-11.645,19.1-4.275V0H15.877V-15.641ZM38.371-2.589h6.843V0H35.148V-15.641h3.223ZM62.928,0H52.207V-2.127l5.06-5.393a12.482,12.482,0,0,0,1.542-1.987,3.193,3.193,0,0,0,.5-1.611,2.389,2.389,0,0,0-.526-1.638,1.9,1.9,0,0,0-1.5-.6,2.049,2.049,0,0,0-1.66.725,2.872,2.872,0,0,0-.607,1.907H51.9a5.128,5.128,0,0,1,.682-2.61,4.808,4.808,0,0,1,1.928-1.853,5.861,5.861,0,0,1,2.825-.671,5.549,5.549,0,0,1,3.754,1.16,4.1,4.1,0,0,1,1.337,3.276,5.259,5.259,0,0,1-.6,2.363,13.133,13.133,0,0,1-2.062,2.8L56.2-2.5h6.725Zm2.191-1.525a1.563,1.563,0,0,1,.5-1.2A1.772,1.772,0,0,1,66.87-3.19a1.787,1.787,0,0,1,1.262.462,1.563,1.563,0,0,1,.5,1.2,1.542,1.542,0,0,1-.494,1.187A1.794,1.794,0,0,1,66.87.118a1.78,1.78,0,0,1-1.257-.457A1.542,1.542,0,0,1,65.119-1.525Zm6.563-6.166.9-7.949h8.766v2.589h-6.22l-.387,3.362A4.922,4.922,0,0,1,77.1-10.28a4.508,4.508,0,0,1,3.5,1.386,5.535,5.535,0,0,1,1.268,3.878A5.671,5.671,0,0,1,81.227-2.3,4.511,4.511,0,0,1,79.4-.446a5.718,5.718,0,0,1-2.814.661A6.072,6.072,0,0,1,73.949-.36a4.668,4.668,0,0,1-1.917-1.617,4.406,4.406,0,0,1-.747-2.374h3.072a2.3,2.3,0,0,0,.682,1.52,2.163,2.163,0,0,0,1.531.542,1.909,1.909,0,0,0,1.622-.757,3.508,3.508,0,0,0,.569-2.143,2.9,2.9,0,0,0-.655-2.041,2.4,2.4,0,0,0-1.858-.709,2.687,2.687,0,0,0-1.794.58l-.3.279Z" transform="translate(867.554 552.738)" fill="#12263f"/>
    <path id="Trazado_183719" data-name="Trazado 183719" d="M6429,1188.665h-27.156l13.578-13.578Z" transform="translate(-5501.558 -660.803)" fill="#4dd0e1"/>
    <path id="Trazado_183720" data-name="Trazado 183720" d="M5468.535,1249.761h-75.426a21.156,21.156,0,1,1,0-42.313h75.426a21.156,21.156,0,1,1,0,42.313" transform="translate(-4810.476 -682.52)" fill="#4dd0e1"/>
    <path id="Trazado_183721" data-name="Trazado 183721" d="M5536.785,1188.665H5509.63l13.577-13.578Z" transform="translate(-4902.862 -660.803)" fill="#4dd0e1"/>
    <path id="Trazado_183722" data-name="Trazado 183722" d="M4618.017,1249.761H4542.59a21.156,21.156,0,0,1,0-42.313h75.427a21.156,21.156,0,0,1,0,42.313" transform="translate(-4239.758 -682.52)" fill="#4dd0e1"/>
    <path id="Trazado_183723" data-name="Trazado 183723" d="M4686.268,1188.665h-27.156l13.578-13.578Z" transform="translate(-4332.144 -660.803)" fill="#4dd0e1"/>
    <path id="Trazado_183724" data-name="Trazado 183724" d="M2851.376,1249.761h-75.428a21.156,21.156,0,1,1,0-42.313h75.428a21.156,21.156,0,1,1,0,42.313" transform="translate(-3054.294 -682.52)" fill="#4dd0e1"/>
    <path id="Trazado_183725" data-name="Trazado 183725" d="M2919.625,1188.665h-27.155l13.578-13.578Z" transform="translate(-3146.681 -660.803)" fill="#4dd0e1"/>
    <path id="Trazado_183726" data-name="Trazado 183726" d="M1154.438,1168.028h-27.156l13.578-13.578Z" transform="translate(-1962.195 -646.957)" fill="#4dd0e1"/>
    <path id="Trazado_183727" data-name="Trazado 183727" d="M3697.253,1276.525h-79.212a34.641,34.641,0,0,1-34.539-34.539h0a34.641,34.641,0,0,1,34.539-34.539h79.212a34.64,34.64,0,0,1,34.539,34.539h0a34.64,34.64,0,0,1-34.539,34.539" transform="translate(-3610.381 -682.517)" fill="#4dd0e1"/>
    <path id="Trazado_183728" data-name="Trazado 183728" d="M164.1,723.294H34.539A34.641,34.641,0,0,1,0,688.755H0a34.641,34.641,0,0,1,34.539-34.539H164.1a34.641,34.641,0,0,1,34.539,34.539h0A34.64,34.64,0,0,1,164.1,723.294" transform="translate(-1205.759 -311.287)" fill="#4dd0e1"/>
    <path id="Trazado_183729" data-name="Trazado 183729" d="M1023.217,1295.668h-77.89a49.216,49.216,0,0,1-49.072-49.072h0a49.216,49.216,0,0,1,49.072-49.072h77.89a49.216,49.216,0,0,1,49.072,49.072h0a49.216,49.216,0,0,1-49.072,49.072" transform="translate(-1807.169 -675.858)" fill="#4dd0e1"/>
    <path id="Trazado_183730" data-name="Trazado 183730" d="M3794.769,1188.665h-27.156l13.578-13.578Z" transform="translate(-3733.924 -660.803)" fill="#4dd0e1"/>
    <path id="Trazado_183731" data-name="Trazado 183731" d="M589.949,745.089V717.934l13.578,13.578Z" transform="translate(-1601.629 -354.042)" fill="#4dd0e1"/>
    <path id="Trazado_183732" data-name="Trazado 183732" d="M562.208,1026.627V999.471l13.578,13.578Z" transform="translate(-1583.014 -542.962)" fill="#4dd0e1"/>
    <path id="Trazado_183733" data-name="Trazado 183733" d="M562.208,1340.289v-27.155l13.578,13.577Z" transform="translate(-1583.014 -753.435)" fill="#4dd0e1"/>
    <path id="Trazado_183810" data-name="Trazado 183810" d="M13.234-15.641v10.3a5.274,5.274,0,0,1-1.606,4.061A6.191,6.191,0,0,1,7.24.215,6.261,6.261,0,0,1,2.89-1.235,5.184,5.184,0,0,1,1.246-5.221v-10.42H4.469V-5.317A2.98,2.98,0,0,0,5.2-3.078a2.825,2.825,0,0,0,2.036.7q2.718,0,2.761-2.857V-15.641Zm6.854,0L24.105-4.3l4-11.344h4.232V0H29.1V-4.275l.322-7.38L25.2,0H22.988L18.777-11.645,19.1-4.275V0H15.877V-15.641ZM38.371-2.589h6.843V0H35.148V-15.641h3.223ZM62.928,0H52.207V-2.127l5.06-5.393a12.482,12.482,0,0,0,1.542-1.987,3.193,3.193,0,0,0,.5-1.611,2.389,2.389,0,0,0-.526-1.638,1.9,1.9,0,0,0-1.5-.6,2.049,2.049,0,0,0-1.66.725,2.872,2.872,0,0,0-.607,1.907H51.9a5.128,5.128,0,0,1,.682-2.61,4.808,4.808,0,0,1,1.928-1.853,5.861,5.861,0,0,1,2.825-.671,5.549,5.549,0,0,1,3.754,1.16,4.1,4.1,0,0,1,1.337,3.276,5.259,5.259,0,0,1-.6,2.363,13.133,13.133,0,0,1-2.062,2.8L56.2-2.5h6.725Zm2.191-1.525a1.563,1.563,0,0,1,.5-1.2A1.772,1.772,0,0,1,66.87-3.19a1.787,1.787,0,0,1,1.262.462,1.563,1.563,0,0,1,.5,1.2,1.542,1.542,0,0,1-.494,1.187A1.794,1.794,0,0,1,66.87.118a1.78,1.78,0,0,1-1.257-.457A1.542,1.542,0,0,1,65.119-1.525Zm9.26-7.67h1.654a2.331,2.331,0,0,0,1.751-.591,2.165,2.165,0,0,0,.569-1.568,1.914,1.914,0,0,0-.564-1.472,2.186,2.186,0,0,0-1.552-.526,2.291,2.291,0,0,0-1.493.489,1.563,1.563,0,0,0-.6,1.273h-3.1a3.818,3.818,0,0,1,.661-2.2,4.4,4.4,0,0,1,1.848-1.52,6.166,6.166,0,0,1,2.616-.548,5.848,5.848,0,0,1,3.889,1.187A4.05,4.05,0,0,1,81.458-11.4,3.291,3.291,0,0,1,80.8-9.421a4.257,4.257,0,0,1-1.719,1.386,3.886,3.886,0,0,1,1.971,1.418,3.846,3.846,0,0,1,.65,2.234,4.117,4.117,0,0,1-1.52,3.341A6.112,6.112,0,0,1,76.162.215a5.8,5.8,0,0,1-3.83-1.235,4.034,4.034,0,0,1-1.488-3.266h3.1a1.8,1.8,0,0,0,.661,1.439,2.434,2.434,0,0,0,1.627.559,2.446,2.446,0,0,0,1.735-.585A2.021,2.021,0,0,0,78.6-4.426q0-2.342-2.578-2.342H74.379Z" transform="translate(576.113 552.731)" fill="#12263f"/>
    <path id="Trazado_183803" data-name="Trazado 183803" d="M13.234-15.641v10.3a5.274,5.274,0,0,1-1.606,4.061A6.191,6.191,0,0,1,7.24.215,6.261,6.261,0,0,1,2.89-1.235,5.184,5.184,0,0,1,1.246-5.221v-10.42H4.469V-5.317A2.98,2.98,0,0,0,5.2-3.078a2.825,2.825,0,0,0,2.036.7q2.718,0,2.761-2.857V-15.641Zm6.854,0L24.105-4.3l4-11.344h4.232V0H29.1V-4.275l.322-7.38L25.2,0H22.988L18.777-11.645,19.1-4.275V0H15.877V-15.641ZM38.371-2.589h6.843V0H35.148V-15.641h3.223ZM62.928,0H52.207V-2.127l5.06-5.393a12.482,12.482,0,0,0,1.542-1.987,3.193,3.193,0,0,0,.5-1.611,2.389,2.389,0,0,0-.526-1.638,1.9,1.9,0,0,0-1.5-.6,2.049,2.049,0,0,0-1.66.725,2.872,2.872,0,0,0-.607,1.907H51.9a5.128,5.128,0,0,1,.682-2.61,4.808,4.808,0,0,1,1.928-1.853,5.861,5.861,0,0,1,2.825-.671,5.549,5.549,0,0,1,3.754,1.16,4.1,4.1,0,0,1,1.337,3.276,5.259,5.259,0,0,1-.6,2.363,13.133,13.133,0,0,1-2.062,2.8L56.2-2.5h6.725Zm2.191-1.525a1.563,1.563,0,0,1,.5-1.2A1.772,1.772,0,0,1,66.87-3.19a1.787,1.787,0,0,1,1.262.462,1.563,1.563,0,0,1,.5,1.2,1.542,1.542,0,0,1-.494,1.187A1.794,1.794,0,0,1,66.87.118a1.78,1.78,0,0,1-1.257-.457A1.542,1.542,0,0,1,65.119-1.525ZM78.762,0h-3.1V-11.983l-3.706,1.144v-2.5l6.478-2.32h.333Z" transform="translate(298.037 554.01)" fill="#12263f"/>
    <path id="Trazado_183799" data-name="Trazado 183799" d="M13.234-15.641v10.3a5.274,5.274,0,0,1-1.606,4.061A6.191,6.191,0,0,1,7.24.215,6.261,6.261,0,0,1,2.89-1.235,5.184,5.184,0,0,1,1.246-5.221v-10.42H4.469V-5.317A2.98,2.98,0,0,0,5.2-3.078a2.825,2.825,0,0,0,2.036.7q2.718,0,2.761-2.857V-15.641Zm6.854,0L24.105-4.3l4-11.344h4.232V0H29.1V-4.275l.322-7.38L25.2,0H22.988L18.777-11.645,19.1-4.275V0H15.877V-15.641ZM38.371-2.589h6.843V0H35.148V-15.641h3.223ZM59.748,0h-3.1V-11.983l-3.706,1.144v-2.5l6.478-2.32h.333Zm5.371-1.525a1.563,1.563,0,0,1,.5-1.2A1.772,1.772,0,0,1,66.87-3.19a1.787,1.787,0,0,1,1.262.462,1.563,1.563,0,0,1,.5,1.2,1.542,1.542,0,0,1-.494,1.187A1.794,1.794,0,0,1,66.87.118a1.78,1.78,0,0,1-1.257-.457A1.542,1.542,0,0,1,65.119-1.525ZM80.405-5.887h1.772v2.5H80.405V0H77.3V-3.384H70.888l-.14-1.955,6.521-10.3h3.137Zm-6.563,0H77.3v-5.521l-.2.354ZM84.949,1.343H82.64L88.4-15.641h2.31Z" transform="translate(-0.337 552.731)" fill="#12263f"/>
    <path id="Trazado_183800" data-name="Trazado 183800" d="M8.213,0H5.25V-11.439L1.712-10.346v-2.389L7.9-14.95h.318ZM13.34-1.456A1.492,1.492,0,0,1,13.817-2.6a1.692,1.692,0,0,1,1.195-.441,1.706,1.706,0,0,1,1.2.441,1.492,1.492,0,0,1,.477,1.148,1.472,1.472,0,0,1-.472,1.133,1.713,1.713,0,0,1-1.21.436,1.7,1.7,0,0,1-1.2-.436A1.472,1.472,0,0,1,13.34-1.456Zm6.265-5.886.861-7.588h8.367v2.471H22.9l-.369,3.209a4.7,4.7,0,0,1,2.246-.564A4.3,4.3,0,0,1,28.116-8.49a5.284,5.284,0,0,1,1.21,3.7,5.413,5.413,0,0,1-.61,2.589A4.306,4.306,0,0,1,26.968-.426a5.458,5.458,0,0,1-2.687.631,5.8,5.8,0,0,1-2.512-.549,4.456,4.456,0,0,1-1.83-1.543,4.206,4.206,0,0,1-.713-2.266h2.933A2.19,2.19,0,0,0,22.81-2.7a2.064,2.064,0,0,0,1.461.518,1.822,1.822,0,0,0,1.548-.723,3.349,3.349,0,0,0,.543-2.046A2.769,2.769,0,0,0,25.737-6.9a2.3,2.3,0,0,0-1.774-.677,2.565,2.565,0,0,0-1.712.554l-.287.267Z" transform="translate(31.615 580.155)" fill="#12263f"/>
    <path id="Trazado_183798" data-name="Trazado 183798" d="M7.552-6.327H3.878V0H1.8V-15.641H6.982a6.128,6.128,0,0,1,4.066,1.2,4.329,4.329,0,0,1,1.423,3.5,4.211,4.211,0,0,1-.79,2.546,4.713,4.713,0,0,1-2.2,1.622L13.159-.129V0H10.946ZM3.878-8.014H7.047a3.574,3.574,0,0,0,2.444-.8,2.693,2.693,0,0,0,.908-2.131,2.836,2.836,0,0,0-.865-2.228,3.662,3.662,0,0,0-2.5-.786H3.878Zm21.431-5.94H20.281V0H18.229V-13.954H13.213v-1.687h12.1ZM36.255-6.907H29.691V0H27.629V-15.641h9.689v1.687H29.691v5.36h6.563Zm8.594.559a16.608,16.608,0,0,1,.65-4.662,13.543,13.543,0,0,1,1.939-4.061,8.249,8.249,0,0,1,2.675-2.578l.408,1.311a8.556,8.556,0,0,0-2.573,3.674,15.927,15.927,0,0,0-1.1,5.532l-.011.913a16.01,16.01,0,0,0,1.515,7.2,8.6,8.6,0,0,0,2.17,2.857l-.408,1.214a8.514,8.514,0,0,1-2.729-2.664A14.932,14.932,0,0,1,44.849-6.349Zm19.089.021H60.264V0H58.19V-15.641h5.178a6.128,6.128,0,0,1,4.066,1.2,4.329,4.329,0,0,1,1.423,3.5,4.211,4.211,0,0,1-.79,2.546,4.713,4.713,0,0,1-2.2,1.622L69.545-.129V0H67.332ZM60.264-8.014h3.169a3.574,3.574,0,0,0,2.444-.8,2.693,2.693,0,0,0,.908-2.131,2.836,2.836,0,0,0-.865-2.228,3.662,3.662,0,0,0-2.5-.786H60.264Zm16,8.229a5.078,5.078,0,0,1-3.846-1.552,5.761,5.761,0,0,1-1.482-4.152v-.365a6.975,6.975,0,0,1,.661-3.088,5.154,5.154,0,0,1,1.848-2.127,4.645,4.645,0,0,1,2.573-.768,4.353,4.353,0,0,1,3.523,1.493,6.465,6.465,0,0,1,1.257,4.275v.827H72.918a4.132,4.132,0,0,0,1,2.777,3.157,3.157,0,0,0,2.444,1.058,3.461,3.461,0,0,0,1.783-.43,4.48,4.48,0,0,0,1.278-1.139l1.214.945A4.881,4.881,0,0,1,76.259.215Zm-.247-10.42a2.651,2.651,0,0,0-2.02.875,4.255,4.255,0,0,0-1.01,2.455H78.8v-.15a3.785,3.785,0,0,0-.816-2.347A2.5,2.5,0,0,0,76.012-10.205ZM86.786-2.7l2.879-8.927H91.7L87.527,0H86.013L81.8-11.623h2.03ZM95.767,0H93.779V-11.623h1.987ZM93.618-14.706a1.186,1.186,0,0,1,.3-.816,1.109,1.109,0,0,1,.875-.333,1.126,1.126,0,0,1,.881.333,1.174,1.174,0,0,1,.3.816,1.135,1.135,0,0,1-.3.806,1.147,1.147,0,0,1-.881.322,1.129,1.129,0,0,1-.875-.322A1.147,1.147,0,0,1,93.618-14.706Zm12.1,11.623a1.463,1.463,0,0,0-.607-1.251,5.842,5.842,0,0,0-2.116-.768,10.005,10.005,0,0,1-2.4-.773A3.408,3.408,0,0,1,99.285-6.95a2.57,2.57,0,0,1-.424-1.482,3.015,3.015,0,0,1,1.208-2.417,4.72,4.72,0,0,1,3.088-.988,4.857,4.857,0,0,1,3.207,1.021,3.241,3.241,0,0,1,1.23,2.61h-2a1.794,1.794,0,0,0-.693-1.407,2.6,2.6,0,0,0-1.746-.591,2.717,2.717,0,0,0-1.7.473,1.488,1.488,0,0,0-.612,1.235,1.205,1.205,0,0,0,.569,1.085,7,7,0,0,0,2.057.7,10.719,10.719,0,0,1,2.412.795,3.518,3.518,0,0,1,1.37,1.112,2.734,2.734,0,0,1,.446,1.584,2.975,2.975,0,0,1-1.246,2.5,5.227,5.227,0,0,1-3.233.94,5.853,5.853,0,0,1-2.471-.494A4.018,4.018,0,0,1,99.07-1.66a3.327,3.327,0,0,1-.607-1.917h1.987a2.058,2.058,0,0,0,.8,1.584,3.1,3.1,0,0,0,1.971.585,3.2,3.2,0,0,0,1.81-.457A1.4,1.4,0,0,0,105.714-3.083ZM112.449,0h-1.987V-11.623h1.987ZM110.3-14.706a1.186,1.186,0,0,1,.3-.816,1.109,1.109,0,0,1,.875-.333,1.126,1.126,0,0,1,.881.333,1.174,1.174,0,0,1,.3.816,1.135,1.135,0,0,1-.3.806,1.147,1.147,0,0,1-.881.322,1.129,1.129,0,0,1-.875-.322A1.147,1.147,0,0,1,110.3-14.706Zm4.8,8.787a6.865,6.865,0,0,1,.671-3.072,5.009,5.009,0,0,1,1.869-2.105,5.088,5.088,0,0,1,2.734-.741,4.9,4.9,0,0,1,3.84,1.644,6.323,6.323,0,0,1,1.466,4.372v.14a6.925,6.925,0,0,1-.65,3.045,4.935,4.935,0,0,1-1.858,2.1A5.147,5.147,0,0,1,120.4.215a4.889,4.889,0,0,1-3.83-1.644A6.291,6.291,0,0,1,115.1-5.779Zm2,.236a4.972,4.972,0,0,0,.9,3.1,2.871,2.871,0,0,0,2.4,1.171A2.853,2.853,0,0,0,122.8-2.594a5.437,5.437,0,0,0,.892-3.325,4.964,4.964,0,0,0-.908-3.1,2.886,2.886,0,0,0-2.412-1.187A2.854,2.854,0,0,0,118-9.034,5.4,5.4,0,0,0,117.1-5.683Zm4.179-10.8h2.406l-2.879,3.158-1.6-.005Zm8.776,4.855.064,1.461a4.236,4.236,0,0,1,3.48-1.676q3.685,0,3.717,4.157V0H135.33V-7.691a2.676,2.676,0,0,0-.575-1.858,2.3,2.3,0,0,0-1.756-.6,2.868,2.868,0,0,0-1.7.516,3.5,3.5,0,0,0-1.139,1.354V0h-1.987V-11.623ZM146.738,0V-10.087H144.9v-1.536h1.837v-1.192a3.958,3.958,0,0,1,1-2.89,3.774,3.774,0,0,1,2.825-1.021,5.247,5.247,0,0,1,1.364.181l-.107,1.6a5.708,5.708,0,0,0-1.074-.1,1.939,1.939,0,0,0-1.493.566,2.3,2.3,0,0,0-.526,1.622v1.228h2.481v1.536h-2.481V0Zm13.836-1.149A4.221,4.221,0,0,1,157.169.215a3.613,3.613,0,0,1-2.831-1.08,4.673,4.673,0,0,1-.983-3.2v-7.562h1.987v7.509q0,2.643,2.148,2.643a2.975,2.975,0,0,0,3.029-1.7v-8.454h1.987V0h-1.891ZM170.35.215A5.078,5.078,0,0,1,166.5-1.337a5.761,5.761,0,0,1-1.482-4.152v-.365a6.975,6.975,0,0,1,.661-3.088,5.154,5.154,0,0,1,1.848-2.127,4.645,4.645,0,0,1,2.573-.768,4.353,4.353,0,0,1,3.523,1.493,6.465,6.465,0,0,1,1.257,4.275v.827h-7.874a4.132,4.132,0,0,0,1,2.777,3.157,3.157,0,0,0,2.444,1.058,3.461,3.461,0,0,0,1.783-.43,4.48,4.48,0,0,0,1.278-1.139l1.214.945A4.881,4.881,0,0,1,170.35.215Zm-.247-10.42a2.651,2.651,0,0,0-2.02.875,4.255,4.255,0,0,0-1.01,2.455H172.9v-.15a3.785,3.785,0,0,0-.816-2.347A2.5,2.5,0,0,0,170.1-10.205Zm12.7.365a5.955,5.955,0,0,0-.978-.075,2.619,2.619,0,0,0-2.653,1.665V0h-1.987V-11.623h1.934l.032,1.343a3.094,3.094,0,0,1,2.771-1.558,2.03,2.03,0,0,1,.881.15Zm3.7,8.218h6.8V0h-9.228V-1.461l6.413-8.519h-6.316v-1.644h8.809v1.407ZM202.705,0a4.175,4.175,0,0,1-.279-1.225A4.434,4.434,0,0,1,199.117.215a4.1,4.1,0,0,1-2.82-.972,3.145,3.145,0,0,1-1.1-2.465,3.286,3.286,0,0,1,1.38-2.82,6.508,6.508,0,0,1,3.883-1h1.934V-7.96a2.232,2.232,0,0,0-.623-1.66,2.5,2.5,0,0,0-1.837-.618,2.9,2.9,0,0,0-1.783.537,1.583,1.583,0,0,0-.72,1.3h-2a2.743,2.743,0,0,1,.618-1.681,4.216,4.216,0,0,1,1.676-1.284,5.638,5.638,0,0,1,2.326-.473,4.6,4.6,0,0,1,3.147,1,3.623,3.623,0,0,1,1.182,2.766v5.35a6.54,6.54,0,0,0,.408,2.546V0Zm-3.3-1.515A3.493,3.493,0,0,0,201.18-2a2.924,2.924,0,0,0,1.214-1.257V-5.64h-1.558q-3.652,0-3.652,2.138a1.809,1.809,0,0,0,.623,1.461A2.4,2.4,0,0,0,199.407-1.515Zm13.052-4.394a6.809,6.809,0,0,1,1.268-4.3,4.008,4.008,0,0,1,3.319-1.627,4.031,4.031,0,0,1,3.233,1.4V-16.5h1.987V0H220.44l-.1-1.246A4.047,4.047,0,0,1,217.024.215a3.97,3.97,0,0,1-3.292-1.654,6.886,6.886,0,0,1-1.273-4.318Zm1.987.226a5.155,5.155,0,0,0,.816,3.094,2.639,2.639,0,0,0,2.256,1.117,2.9,2.9,0,0,0,2.761-1.7V-8.508a2.921,2.921,0,0,0-2.739-1.644,2.652,2.652,0,0,0-2.277,1.128A5.676,5.676,0,0,0,214.446-5.683Zm15.727,5.9a5.078,5.078,0,0,1-3.846-1.552,5.761,5.761,0,0,1-1.482-4.152v-.365a6.975,6.975,0,0,1,.661-3.088,5.154,5.154,0,0,1,1.848-2.127,4.645,4.645,0,0,1,2.573-.768,4.353,4.353,0,0,1,3.523,1.493,6.465,6.465,0,0,1,1.257,4.275v.827h-7.874a4.132,4.132,0,0,0,1,2.777,3.157,3.157,0,0,0,2.444,1.058,3.461,3.461,0,0,0,1.783-.43,4.48,4.48,0,0,0,1.278-1.139l1.214.945A4.881,4.881,0,0,1,230.173.215Zm-.247-10.42a2.651,2.651,0,0,0-2.02.875,4.255,4.255,0,0,0-1.01,2.455h5.822v-.15a3.785,3.785,0,0,0-.816-2.347A2.5,2.5,0,0,0,229.926-10.205Zm15.222-4.232v2.814h2.17v1.536h-2.17V-2.87a1.613,1.613,0,0,0,.29,1.049,1.221,1.221,0,0,0,.988.35,4.811,4.811,0,0,0,.945-.129V0a5.8,5.8,0,0,1-1.525.214,2.475,2.475,0,0,1-2.009-.806,3.461,3.461,0,0,1-.677-2.288v-7.208h-2.116v-1.536h2.116v-2.814ZM256.813,0a4.175,4.175,0,0,1-.279-1.225A4.434,4.434,0,0,1,253.226.215a4.1,4.1,0,0,1-2.82-.972,3.145,3.145,0,0,1-1.1-2.465,3.286,3.286,0,0,1,1.38-2.82,6.508,6.508,0,0,1,3.883-1H256.5V-7.96a2.232,2.232,0,0,0-.623-1.66,2.5,2.5,0,0,0-1.837-.618,2.9,2.9,0,0,0-1.783.537,1.583,1.583,0,0,0-.72,1.3h-2a2.743,2.743,0,0,1,.618-1.681,4.216,4.216,0,0,1,1.676-1.284,5.638,5.638,0,0,1,2.326-.473,4.6,4.6,0,0,1,3.147,1,3.623,3.623,0,0,1,1.182,2.766v5.35A6.541,6.541,0,0,0,258.9-.172V0Zm-3.3-1.515A3.493,3.493,0,0,0,255.288-2,2.924,2.924,0,0,0,256.5-3.255V-5.64h-1.558q-3.652,0-3.652,2.138a1.809,1.809,0,0,0,.623,1.461A2.4,2.4,0,0,0,253.516-1.515ZM267.223-9.84a5.955,5.955,0,0,0-.978-.075,2.619,2.619,0,0,0-2.653,1.665V0H261.6V-11.623h1.934l.032,1.343a3.094,3.094,0,0,1,2.771-1.558,2.03,2.03,0,0,1,.881.15ZM273.668.215a5.078,5.078,0,0,1-3.846-1.552,5.761,5.761,0,0,1-1.482-4.152v-.365A6.975,6.975,0,0,1,269-8.943a5.153,5.153,0,0,1,1.848-2.127,4.645,4.645,0,0,1,2.573-.768,4.353,4.353,0,0,1,3.523,1.493A6.465,6.465,0,0,1,278.2-6.069v.827h-7.874a4.132,4.132,0,0,0,1,2.777,3.157,3.157,0,0,0,2.444,1.058,3.461,3.461,0,0,0,1.783-.43,4.481,4.481,0,0,0,1.278-1.139l1.214.945A4.881,4.881,0,0,1,273.668.215Zm-.247-10.42a2.651,2.651,0,0,0-2.02.875,4.255,4.255,0,0,0-1.01,2.455h5.822v-.15a3.785,3.785,0,0,0-.816-2.347A2.5,2.5,0,0,0,273.421-10.205ZM287.676,0a4.175,4.175,0,0,1-.279-1.225A4.434,4.434,0,0,1,284.088.215a4.1,4.1,0,0,1-2.82-.972,3.145,3.145,0,0,1-1.1-2.465,3.286,3.286,0,0,1,1.38-2.82,6.508,6.508,0,0,1,3.883-1h1.934V-7.96a2.232,2.232,0,0,0-.623-1.66,2.5,2.5,0,0,0-1.837-.618,2.9,2.9,0,0,0-1.783.537,1.583,1.583,0,0,0-.72,1.3h-2a2.743,2.743,0,0,1,.618-1.681,4.216,4.216,0,0,1,1.676-1.284,5.638,5.638,0,0,1,2.326-.473,4.6,4.6,0,0,1,3.147,1,3.623,3.623,0,0,1,1.182,2.766v5.35a6.541,6.541,0,0,0,.408,2.546V0Zm-3.3-1.515A3.493,3.493,0,0,0,286.15-2a2.924,2.924,0,0,0,1.214-1.257V-5.64h-1.558q-3.652,0-3.652,2.138a1.809,1.809,0,0,0,.623,1.461A2.4,2.4,0,0,0,284.378-1.515Zm14.856-1.568a1.463,1.463,0,0,0-.607-1.251,5.842,5.842,0,0,0-2.116-.768,10.005,10.005,0,0,1-2.4-.773,3.408,3.408,0,0,1-1.311-1.074,2.57,2.57,0,0,1-.424-1.482,3.015,3.015,0,0,1,1.208-2.417,4.72,4.72,0,0,1,3.088-.988,4.857,4.857,0,0,1,3.207,1.021,3.241,3.241,0,0,1,1.23,2.61h-2a1.794,1.794,0,0,0-.693-1.407,2.6,2.6,0,0,0-1.746-.591,2.717,2.717,0,0,0-1.7.473,1.488,1.488,0,0,0-.612,1.235,1.206,1.206,0,0,0,.569,1.085,7,7,0,0,0,2.057.7,10.719,10.719,0,0,1,2.412.795,3.518,3.518,0,0,1,1.37,1.112,2.734,2.734,0,0,1,.446,1.584,2.975,2.975,0,0,1-1.246,2.5,5.227,5.227,0,0,1-3.233.94,5.853,5.853,0,0,1-2.471-.494,4.018,4.018,0,0,1-1.681-1.38,3.327,3.327,0,0,1-.607-1.917h1.987a2.058,2.058,0,0,0,.8,1.584,3.1,3.1,0,0,0,1.971.585,3.2,3.2,0,0,0,1.81-.457A1.4,1.4,0,0,0,299.234-3.083ZM308.4-6.241a16.616,16.616,0,0,1-.628,4.592,13.58,13.58,0,0,1-1.923,4.055,8.425,8.425,0,0,1-2.712,2.643l-.419-1.214A8.636,8.636,0,0,0,305.374-.1,17.032,17.032,0,0,0,306.4-6.026V-6.37a17.685,17.685,0,0,0-.473-4.195,14.157,14.157,0,0,0-1.316-3.475,8.027,8.027,0,0,0-1.9-2.4l.419-1.214a8.392,8.392,0,0,1,2.7,2.621,13.608,13.608,0,0,1,1.923,4.05A17,17,0,0,1,308.4-6.241Z" transform="translate(-265.926 300.697)" fill="#12263f"/>
    <text id="UML_1.2" data-name="UML 1.2" transform="translate(-287.187 552.738)" fill="#12263f" font-size="22" font-family="Roboto-Bold, Roboto" font-weight="700"><tspan x="0" y="0">UML 1.2</tspan></text>
    <text id="Método" transform="translate(-863.447 559.178)" fill="#12263f" font-size="22" font-family="Roboto-Bold, Roboto" font-weight="700"><tspan x="0" y="0">Método</tspan></text>
    <text id="Unificado_0.8" data-name="Unificado 0.8" transform="translate(-892.391 588.602)" fill="#12263f" font-size="23" font-family="Roboto-Bold, Roboto" font-weight="700"><tspan x="0" y="0">Unificado 0.8</tspan></text>
    <rect id="Rectángulo_37241" data-name="Rectángulo 37241" width="1.316" height="1.974" transform="translate(-541.738 480.903)" fill="#039be5"/>
    <rect id="Rectángulo_37242" data-name="Rectángulo 37242" width="1.316" height="1.974" transform="translate(-410.046 480.903)" fill="#039be5"/>
    <rect id="Rectángulo_37243" data-name="Rectángulo 37243" width="1.316" height="1.974" transform="translate(-238.558 479.974)" fill="#039be5"/>
    <rect id="Rectángulo_37244" data-name="Rectángulo 37244" width="1.316" height="1.974" transform="translate(-94.462 479.974)" fill="#039be5"/>
    <rect id="Rectángulo_37245" data-name="Rectángulo 37245" width="1.316" height="1.974" transform="translate(49.635 479.974)" fill="#039be5"/>
    <line id="Línea_339" data-name="Línea 339" y1="540.005" transform="translate(-978.648 200.97)" fill="none" stroke="#1b9ce2" stroke-width="1" stroke-dasharray="3"/>
    <line id="Línea_340" data-name="Línea 340" y1="593.826" transform="translate(-824.361 143.561)" fill="none" stroke="#1b9ce2" stroke-width="1" stroke-dasharray="3"/>
    <line id="Línea_341" data-name="Línea 341" y1="489.772" transform="translate(-670.074 143.561)" fill="none" stroke="#1b9ce2" stroke-width="1" stroke-dasharray="3"/>
    <line id="Línea_342" data-name="Línea 342" y1="489.772" transform="translate(-540.422 143.561)" fill="none" stroke="#1b9ce2" stroke-width="1" stroke-dasharray="3"/>
    <line id="Línea_343" data-name="Línea 343" y1="482.595" transform="translate(-408.73 150.737)" fill="none" stroke="#1b9ce2" stroke-width="1" stroke-dasharray="3"/>
    <line id="Línea_344" data-name="Línea 344" y1="432.362" transform="translate(-237.242 308.613)" fill="none" stroke="#1b9ce2" stroke-width="1" stroke-dasharray="3"/>
    <line id="Línea_345" data-name="Línea 345" y1="432.362" transform="translate(-91.68 308.613)" fill="none" stroke="#1b9ce2" stroke-width="1" stroke-dasharray="3"/>
    <line id="Línea_346" data-name="Línea 346" y1="150.699" transform="translate(49.635 308.613)" fill="none" stroke="#1b9ce2" stroke-width="1" stroke-dasharray="3"/>
    <line id="Línea_347" data-name="Línea 347" y1="308.574" transform="translate(197.032 150.737)" fill="none" stroke="#1b9ce2" stroke-width="1" stroke-dasharray="3"/>
    <line id="Línea_348" data-name="Línea 348" y1="308.574" transform="translate(341.991 150.737)" fill="none" stroke="#1b9ce2" stroke-width="1" stroke-dasharray="3"/>
    <line id="Línea_349" data-name="Línea 349" y1="308.574" transform="translate(473.496 150.737)" fill="none" stroke="#1b9ce2" stroke-width="1" stroke-dasharray="3"/>
    <line id="Línea_350" data-name="Línea 350" y1="308.574" transform="translate(618.455 150.737)" fill="none" stroke="#1b9ce2" stroke-width="1" stroke-dasharray="3"/>
    <line id="Línea_351" data-name="Línea 351" y1="308.574" transform="translate(775.908 150.737)" fill="none" stroke="#1b9ce2" stroke-width="1" stroke-dasharray="3"/>
    <line id="Línea_352" data-name="Línea 352" y1="258.341" transform="translate(907.028 200.97)" fill="none" stroke="#1b9ce2" stroke-width="1" stroke-dasharray="3"/>
    <line id="Línea_353" data-name="Línea 353" y1="127.671" transform="translate(-237.242 150.737)" fill="none" stroke="#1b9ce2" stroke-width="1" stroke-dasharray="3"/>
    <line id="Línea_354" data-name="Línea 354" y1="127.671" transform="translate(-91.68 150.737)" fill="none" stroke="#1b9ce2" stroke-width="1" stroke-dasharray="3"/>
    <line id="Línea_355" data-name="Línea 355" y1="127.671" transform="translate(49.635 150.737)" fill="none" stroke="#1b9ce2" stroke-width="1" stroke-dasharray="3"/>
    <path id="Trazado_183734" data-name="Trazado 183734" d="M1938.091,1249.761h-75.427a21.156,21.156,0,1,1,0-42.313h75.427a21.156,21.156,0,1,1,0,42.313" transform="translate(-2441.457 -682.52)" fill="#4dd0e1"/>
    <path id="Trazado_183735" data-name="Trazado 183735" d="M168.28,1018.747H21.156a21.156,21.156,0,0,1,0-42.313H168.28a21.156,21.156,0,1,1,0,42.313" transform="translate(-1205.759 -527.504)" fill="#4dd0e1"/>
    <path id="Trazado_183736" data-name="Trazado 183736" d="M168.28,1332.409H21.156A21.219,21.219,0,0,1,0,1311.252H0A21.219,21.219,0,0,1,21.156,1290.1H168.28a21.219,21.219,0,0,1,21.157,21.156h0a21.219,21.219,0,0,1-21.157,21.157" transform="translate(-1205.759 -737.978)" fill="#4dd0e1"/>
    <path id="Trazado_183737" data-name="Trazado 183737" d="M2006.341,1188.665h-27.156l13.577-13.578Z" transform="translate(-2533.844 -660.803)" fill="#4dd0e1"/>
    <text id="UML_1.0" data-name="UML 1.0" transform="translate(-586.496 552.738)" fill="#12263f" font-size="22" font-family="Roboto-Bold, Roboto" font-weight="700"><tspan x="0" y="0">UML 1.0</tspan></text>
    <rect id="Rectángulo_37246" data-name="Rectángulo 37246" width="10.8" height="192.9" transform="translate(-983.059 379.536)" fill="#e8e8e8"/>
    <path id="Trazado_183738" data-name="Trazado 183738" d="M675.434,1311.511a17.247,17.247,0,1,1-17.247-17.247,17.247,17.247,0,0,1,17.247,17.247" transform="translate(-1635.845 -740.775)" fill="#ffa726"/>
    <path id="Trazado_183739" data-name="Trazado 183739" d="M675.05,1009.138a17.247,17.247,0,1,1-13.29-20.452,17.247,17.247,0,0,1,13.29,20.452" transform="translate(-1635.839 -535.47)" fill="#ffa726"/>
    <path id="Trazado_183740" data-name="Trazado 183740" d="M675.434,724.027a17.247,17.247,0,1,1-17.247-17.247,17.247,17.247,0,0,1,17.247,17.247" transform="translate(-1635.845 -346.556)" fill="#199be5"/>
    <text id="Otras_" data-name="Otras " transform="translate(-1137.705 362.49)" fill="#12263f" font-size="22" font-family="Roboto-Regular, Roboto"><tspan x="0" y="0">Otras </tspan></text>
    <text id="metodologías" transform="translate(-1178.777 390.914)" fill="#12263f" font-size="22" font-family="Roboto-Regular, Roboto"><tspan x="0" y="0">metodologías</tspan></text>
    <text id="Grady_Booch" data-name="Grady Booch" transform="translate(-1181.998 478.441)" fill="#12263f" font-size="23" font-family="Roboto-Bold, Roboto" font-weight="700"><tspan x="0" y="0">Grady Booch</tspan></text>
    <text id="Jim_Rumbaugh" data-name="Jim Rumbaugh" transform="translate(-1186.143 578.72)" fill="#12263f" font-size="22" font-family="Roboto-Bold, Roboto" font-weight="700"><tspan x="0" y="0">Jim Rumbaugh</tspan></text>
    <text id="Antes_" data-name="Antes " transform="translate(-1009.655 100.285)" fill="#12263f" font-size="23" font-family="Roboto-Regular, Roboto"><tspan x="0" y="0">Antes </tspan></text>
    <text id="del_95" data-name="del 95" transform="translate(-1008.353 127.709)" fill="#12263f" font-size="22" font-family="Roboto-Regular, Roboto"><tspan x="0" y="0">del 95</tspan></text>
    <text id="_95_" data-name="95  " transform="translate(-838.736 106.551)" fill="#12263f" font-size="21" font-family="Roboto-Regular, Roboto"><tspan x="0" y="0" xml:space="preserve">95  </tspan></text>
    <text id="_96_" data-name="96   " transform="translate(-684.233 107.551)" fill="#12263f" font-size="22" font-family="Roboto-Regular, Roboto"><tspan x="0" y="0" xml:space="preserve">96   </tspan></text>
    <text id="Enero_" data-name="Enero " transform="translate(-563.174 106.153)" fill="#12263f" font-size="22" font-family="Roboto-Regular, Roboto"><tspan x="0" y="0">Enero </tspan></text>
    <text id="_97_" data-name="97   " transform="translate(-554.481 134.577)" fill="#12263f" font-size="22" font-family="Roboto-Regular, Roboto"><tspan x="0" y="0" xml:space="preserve">97   </tspan></text>
    <text id="Septiembre_" data-name="Septiembre " transform="translate(-460.813 106.153)" fill="#12263f" font-size="22" font-family="Roboto-Regular, Roboto"><tspan x="0" y="0">Septiembre </tspan></text>
    <text id="_97_2" data-name="97  " transform="translate(-417.111 133.577)" fill="#12263f" font-size="21" font-family="Roboto-Regular, Roboto"><tspan x="0" y="0" xml:space="preserve">97  </tspan></text>
    <text id="_98_" data-name="98  " transform="translate(-254.21 105.153)" fill="#12263f" font-size="21" font-family="Roboto-Regular, Roboto"><tspan x="0" y="0" xml:space="preserve">98  </tspan></text>
    <g id="Grupo_141671" data-name="Grupo 141671" transform="translate(-983.999 467.105)">
      <path id="Trazado_183741" data-name="Trazado 183741" d="M1165.025,1405.015a8.574,8.574,0,0,0-2.71,5.405,8.773,8.773,0,0,0-10.525.93,8.577,8.577,0,0,0-2.71,5.406,8.776,8.776,0,0,0-10.525.929,8.592,8.592,0,0,0-2.673,5.109l-14.141-14.14a8.807,8.807,0,0,0-12.123-.336,8.649,8.649,0,0,0-.226,12.45l29.022,29.022a8.652,8.652,0,0,0-4.583,16.315s16.411,8.482,22.867,11.812c.961.5,1.936,1.027,2.878,1.54l1.09.592a31.382,31.382,0,0,0,19.084,3.438,30.842,30.842,0,0,0,17.715-8.818l2.489-2.489a31.164,31.164,0,0,0,0-44.023l-22.806-22.806A8.808,8.808,0,0,0,1165.025,1405.015Z" transform="translate(-1106.858 -1402.759)" fill="#fff"/>
      <path id="Trazado_183742" data-name="Trazado 183742" d="M1165.025,1405.015a8.574,8.574,0,0,0-2.71,5.405,8.773,8.773,0,0,0-10.525.93,8.577,8.577,0,0,0-2.71,5.406,8.776,8.776,0,0,0-10.525.929,8.592,8.592,0,0,0-2.673,5.109l-14.141-14.14a8.807,8.807,0,0,0-12.123-.336,8.649,8.649,0,0,0-.226,12.45l29.022,29.022a8.652,8.652,0,0,0-4.583,16.315s16.411,8.482,22.867,11.812c.961.5,1.936,1.027,2.878,1.54l1.09.592a31.382,31.382,0,0,0,19.084,3.438,30.842,30.842,0,0,0,17.715-8.818l2.489-2.489a31.164,31.164,0,0,0,0-44.023l-22.806-22.806A8.808,8.808,0,0,0,1165.025,1405.015Zm32.482,25.587a27.7,27.7,0,0,1,0,39.131l-2.489,2.489A27.834,27.834,0,0,1,1162.31,1477l-1.081-.587c-.959-.522-1.951-1.062-2.946-1.576-6.455-3.33-22.864-11.81-22.864-11.81a5.19,5.19,0,1,1,4.767-9.22l4.875,2.521a1.734,1.734,0,0,0,2.171-.489c.014-.017.03-.039.042-.058a1.731,1.731,0,0,0-.191-2.219l-35.247-35.246a5.19,5.19,0,0,1,.138-7.471,5.32,5.32,0,0,1,7.319.249l19.036,19.035,11.778,11.778a1.73,1.73,0,0,0,2.446-2.446l-11.778-11.779a5.19,5.19,0,0,1,.138-7.472,5.32,5.32,0,0,1,7.318.251l3.333,3.332,10.754,10.754a1.73,1.73,0,1,0,2.447-2.446l-10.754-10.755a5.189,5.189,0,0,1,.137-7.471,5.32,5.32,0,0,1,7.319.25l3.332,3.333,9.061,9.06a1.73,1.73,0,0,0,2.446-2.446l-9.06-9.061a5.191,5.191,0,0,1,.138-7.471,5.319,5.319,0,0,1,7.319.25Z" transform="translate(-1106.858 -1402.759)" fill="#03060c"/>
    </g>
    <path id="Trazado_183743" data-name="Trazado 183743" d="M1517.614,737.505H1438.4a34.641,34.641,0,0,1-34.539-34.539h0a34.641,34.641,0,0,1,34.539-34.539h79.213a34.641,34.641,0,0,1,34.539,34.539h0a34.641,34.641,0,0,1-34.539,34.539" transform="translate(-2147.786 -320.82)" fill="#4dd0e1"/>
    <path id="Trazado_183744" data-name="Trazado 183744" d="M1587.972,869.467h27.155l-13.578,13.578Z" transform="translate(-2271.329 -455.724)" fill="#4dd0e1"/>
    <text id="UML_0.9_" data-name="UML 0.9 &amp;" transform="translate(-725.049 374)" fill="#12263f" font-size="22" font-family="Roboto-Bold, Roboto" font-weight="700"><tspan x="0" y="0">UML 0.9 &amp;</tspan></text>
    <text id="_0.91" data-name="0.91" transform="translate(-693.593 402.424)" fill="#12263f" font-size="22" font-family="Roboto-Bold, Roboto" font-weight="700"><tspan x="0" y="0">0.91</tspan></text>
    <path id="Trazado_183745" data-name="Trazado 183745" d="M2336.252,783.159h-75.428A21.219,21.219,0,0,1,2239.668,762h0a21.219,21.219,0,0,1,21.156-21.156h75.428A21.219,21.219,0,0,1,2357.409,762h0a21.219,21.219,0,0,1-21.157,21.156" transform="translate(-2708.633 -369.417)" fill="#4dd0e1"/>
    <path id="Trazado_183746" data-name="Trazado 183746" d="M2374.232,869.467h27.155l-13.577,13.578Z" transform="translate(-2797.905 -459.312)" fill="#4dd0e1"/>
    <text id="UML_1.1" data-name="UML 1.1" transform="translate(-452.35 399.015)" fill="#12263f" font-size="22" font-family="Roboto-Bold, Roboto" font-weight="700"><tspan x="0" y="0">UML 1.1</tspan></text>
    <path id="Trazado_183747" data-name="Trazado 183747" d="M3304.158,783.159H3228.73A21.218,21.218,0,0,1,3207.574,762h0a21.218,21.218,0,0,1,21.156-21.156h75.428A21.218,21.218,0,0,1,3325.314,762h0a21.219,21.219,0,0,1-21.156,21.156" transform="translate(-3358.125 -369.417)" fill="#4dd0e1"/>
    <path id="Trazado_183748" data-name="Trazado 183748" d="M3342.137,869.467h27.155l-13.577,13.578Z" transform="translate(-3448.42 -455.724)" fill="#4dd0e1"/>
    <text id="UML_1.3" data-name="UML 1.3" transform="translate(-138.094 399.008)" fill="#12263f" font-size="22" font-family="Roboto-Bold, Roboto" font-weight="700"><tspan x="0" y="0">UML 1.3</tspan></text>
    <path id="Trazado_183749" data-name="Trazado 183749" d="M1598.362,999.192a15.14,15.14,0,1,1-15.14,15.14,15.14,15.14,0,0,1,15.14-15.14" transform="translate(-2268.141 -542.774)" fill="#ffa726"/>
    <path id="Trazado_183750" data-name="Trazado 183750" d="M-7668.5-8722.971v48.88h972.281v-48.88" transform="translate(6604.725 9548.645)" fill="none" stroke="#1b9ce2" stroke-width="3"/>
    <path id="Trazado_183751" data-name="Trazado 183751" d="M-7668.5-8722.971v48.88h1890.157v-48.88" transform="translate(6689.856 8866.146)" fill="none" stroke="#1b9ce2" stroke-width="3"/>
    <path id="Trazado_183752" data-name="Trazado 183752" d="M4180.813,783.159h-75.428A21.219,21.219,0,0,1,4084.229,762h0a21.219,21.219,0,0,1,21.156-21.156h75.428A21.218,21.218,0,0,1,4201.97,762h0a21.219,21.219,0,0,1-21.157,21.156" transform="translate(-3946.382 -369.417)" fill="#4dd0e1"/>
    <path id="Trazado_183753" data-name="Trazado 183753" d="M4218.793,869.467h27.156l-13.578,13.578Z" transform="translate(-4036.677 -455.724)" fill="#4dd0e1"/>
    <path id="Trazado_183801" data-name="Trazado 183801" d="M13.234-15.641v10.3a5.274,5.274,0,0,1-1.606,4.061A6.191,6.191,0,0,1,7.24.215,6.261,6.261,0,0,1,2.89-1.235,5.184,5.184,0,0,1,1.246-5.221v-10.42H4.469V-5.317A2.98,2.98,0,0,0,5.2-3.078a2.825,2.825,0,0,0,2.036.7q2.718,0,2.761-2.857V-15.641Zm6.854,0L24.105-4.3l4-11.344h4.232V0H29.1V-4.275l.322-7.38L25.2,0H22.988L18.777-11.645,19.1-4.275V0H15.877V-15.641ZM38.371-2.589h6.843V0H35.148V-15.641h3.223ZM62.928,0H52.207V-2.127l5.06-5.393a12.482,12.482,0,0,0,1.542-1.987,3.193,3.193,0,0,0,.5-1.611,2.389,2.389,0,0,0-.526-1.638,1.9,1.9,0,0,0-1.5-.6,2.049,2.049,0,0,0-1.66.725,2.872,2.872,0,0,0-.607,1.907H51.9a5.128,5.128,0,0,1,.682-2.61,4.808,4.808,0,0,1,1.928-1.853,5.861,5.861,0,0,1,2.825-.671,5.549,5.549,0,0,1,3.754,1.16,4.1,4.1,0,0,1,1.337,3.276,5.259,5.259,0,0,1-.6,2.363,13.133,13.133,0,0,1-2.062,2.8L56.2-2.5h6.725Zm2.191-1.525a1.563,1.563,0,0,1,.5-1.2A1.772,1.772,0,0,1,66.87-3.19a1.787,1.787,0,0,1,1.262.462,1.563,1.563,0,0,1,.5,1.2,1.542,1.542,0,0,1-.494,1.187A1.794,1.794,0,0,1,66.87.118a1.78,1.78,0,0,1-1.257-.457A1.542,1.542,0,0,1,65.119-1.525ZM81.748-6.467A7.923,7.923,0,0,1,80.405-1.5,4.687,4.687,0,0,1,76.474.215a4.72,4.72,0,0,1-3.91-1.687,7.691,7.691,0,0,1-1.386-4.834V-9.185a7.819,7.819,0,0,1,1.359-4.974,4.722,4.722,0,0,1,3.916-1.7,4.726,4.726,0,0,1,3.91,1.681,7.668,7.668,0,0,1,1.386,4.829Zm-3.1-3.165a5.727,5.727,0,0,0-.532-2.833,1.8,1.8,0,0,0-1.66-.887,1.765,1.765,0,0,0-1.617.844,5.36,5.36,0,0,0-.553,2.64v3.806A6.012,6.012,0,0,0,74.8-3.218a1.773,1.773,0,0,0,1.67.93,1.743,1.743,0,0,0,1.644-.892,5.868,5.868,0,0,0,.526-2.731Z" transform="translate(153.078 399.008)" fill="#12263f"/>
    <path id="Trazado_183754" data-name="Trazado 183754" d="M5030.65,783.159h-75.427A21.218,21.218,0,0,1,4934.067,762h0a21.218,21.218,0,0,1,21.156-21.156h75.427A21.219,21.219,0,0,1,5051.808,762h0a21.219,21.219,0,0,1-21.158,21.156" transform="translate(-4516.646 -369.417)" fill="#4dd0e1"/>
    <path id="Trazado_183755" data-name="Trazado 183755" d="M5068.631,869.467h27.155l-13.577,13.578Z" transform="translate(-4606.942 -455.724)" fill="#4dd0e1"/>
    <path id="Trazado_183809" data-name="Trazado 183809" d="M13.234-15.641v10.3a5.274,5.274,0,0,1-1.606,4.061A6.191,6.191,0,0,1,7.24.215,6.261,6.261,0,0,1,2.89-1.235,5.184,5.184,0,0,1,1.246-5.221v-10.42H4.469V-5.317A2.98,2.98,0,0,0,5.2-3.078a2.825,2.825,0,0,0,2.036.7q2.718,0,2.761-2.857V-15.641Zm6.854,0L24.105-4.3l4-11.344h4.232V0H29.1V-4.275l.322-7.38L25.2,0H22.988L18.777-11.645,19.1-4.275V0H15.877V-15.641ZM38.371-2.589h6.843V0H35.148V-15.641h3.223ZM62.928,0H52.207V-2.127l5.06-5.393a12.482,12.482,0,0,0,1.542-1.987,3.193,3.193,0,0,0,.5-1.611,2.389,2.389,0,0,0-.526-1.638,1.9,1.9,0,0,0-1.5-.6,2.049,2.049,0,0,0-1.66.725,2.872,2.872,0,0,0-.607,1.907H51.9a5.128,5.128,0,0,1,.682-2.61,4.808,4.808,0,0,1,1.928-1.853,5.861,5.861,0,0,1,2.825-.671,5.549,5.549,0,0,1,3.754,1.16,4.1,4.1,0,0,1,1.337,3.276,5.259,5.259,0,0,1-.6,2.363,13.133,13.133,0,0,1-2.062,2.8L56.2-2.5h6.725Zm2.191-1.525a1.563,1.563,0,0,1,.5-1.2A1.772,1.772,0,0,1,66.87-3.19a1.787,1.787,0,0,1,1.262.462,1.563,1.563,0,0,1,.5,1.2,1.542,1.542,0,0,1-.494,1.187A1.794,1.794,0,0,1,66.87.118a1.78,1.78,0,0,1-1.257-.457A1.542,1.542,0,0,1,65.119-1.525ZM81.941,0H71.221V-2.127L76.28-7.52a12.482,12.482,0,0,0,1.542-1.987,3.193,3.193,0,0,0,.5-1.611,2.389,2.389,0,0,0-.526-1.638,1.9,1.9,0,0,0-1.5-.6,2.049,2.049,0,0,0-1.66.725,2.872,2.872,0,0,0-.607,1.907H70.909a5.128,5.128,0,0,1,.682-2.61,4.808,4.808,0,0,1,1.928-1.853,5.861,5.861,0,0,1,2.825-.671A5.549,5.549,0,0,1,80.1-14.7a4.1,4.1,0,0,1,1.337,3.276,5.259,5.259,0,0,1-.6,2.363,13.133,13.133,0,0,1-2.062,2.8L75.217-2.5h6.725Z" transform="translate(429.543 399.008)" fill="#12263f"/>
    <path id="Trazado_183756" data-name="Trazado 183756" d="M5927.52,783.159h-102.14A21.219,21.219,0,0,1,5804.223,762h0a21.218,21.218,0,0,1,21.157-21.156h102.14A21.218,21.218,0,0,1,5948.676,762h0a21.219,21.219,0,0,1-21.156,21.156" transform="translate(-5100.541 -369.417)" fill="#4dd0e1"/>
    <path id="Trazado_183757" data-name="Trazado 183757" d="M5982.5,869.467h27.155l-13.578,13.578Z" transform="translate(-5220.171 -455.724)" fill="#4dd0e1"/>
    <path id="Trazado_183811" data-name="Trazado 183811" d="M13.234-15.641v10.3a5.274,5.274,0,0,1-1.606,4.061A6.191,6.191,0,0,1,7.24.215,6.261,6.261,0,0,1,2.89-1.235,5.184,5.184,0,0,1,1.246-5.221v-10.42H4.469V-5.317A2.98,2.98,0,0,0,5.2-3.078a2.825,2.825,0,0,0,2.036.7q2.718,0,2.761-2.857V-15.641Zm6.854,0L24.105-4.3l4-11.344h4.232V0H29.1V-4.275l.322-7.38L25.2,0H22.988L18.777-11.645,19.1-4.275V0H15.877V-15.641ZM38.371-2.589h6.843V0H35.148V-15.641h3.223ZM62.928,0H52.207V-2.127l5.06-5.393a12.482,12.482,0,0,0,1.542-1.987,3.193,3.193,0,0,0,.5-1.611,2.389,2.389,0,0,0-.526-1.638,1.9,1.9,0,0,0-1.5-.6,2.049,2.049,0,0,0-1.66.725,2.872,2.872,0,0,0-.607,1.907H51.9a5.128,5.128,0,0,1,.682-2.61,4.808,4.808,0,0,1,1.928-1.853,5.861,5.861,0,0,1,2.825-.671,5.549,5.549,0,0,1,3.754,1.16,4.1,4.1,0,0,1,1.337,3.276,5.259,5.259,0,0,1-.6,2.363,13.133,13.133,0,0,1-2.062,2.8L56.2-2.5h6.725Zm2.191-1.525a1.563,1.563,0,0,1,.5-1.2A1.772,1.772,0,0,1,66.87-3.19a1.787,1.787,0,0,1,1.262.462,1.563,1.563,0,0,1,.5,1.2,1.542,1.542,0,0,1-.494,1.187A1.794,1.794,0,0,1,66.87.118a1.78,1.78,0,0,1-1.257-.457A1.542,1.542,0,0,1,65.119-1.525ZM80.405-5.887h1.772v2.5H80.405V0H77.3V-3.384H70.888l-.14-1.955,6.521-10.3h3.137Zm-6.563,0H77.3v-5.521l-.2.354ZM84.133-1.525a1.563,1.563,0,0,1,.5-1.2,1.772,1.772,0,0,1,1.251-.462,1.787,1.787,0,0,1,1.262.462,1.563,1.563,0,0,1,.5,1.2,1.542,1.542,0,0,1-.494,1.187,1.794,1.794,0,0,1-1.268.457,1.78,1.78,0,0,1-1.257-.457A1.542,1.542,0,0,1,84.133-1.525ZM97.775,0h-3.1V-11.983l-3.706,1.144v-2.5l6.478-2.32h.333Z" transform="translate(724.27 399.008)" fill="#12263f"/>
  </g>
</svg>
